# https://github.com/mikedh/trimesh
v -0.02305221 -0.07629716 0.06508547
v -0.02339679 -0.07574391 0.06489849
v -0.02408152 -0.07612359 0.06442826
v -0.02339679 -0.07574391 0.06489849
v -0.02305221 -0.07629716 0.06508547
v -0.02331507 -0.07576447 0.06530714
v -0.02305221 -0.07629716 0.06508547
v -0.02362507 -0.07570111 0.06567037
v -0.02331507 -0.07576447 0.06530714
v -0.02351683 -0.07625377 0.06599456
v -0.02362507 -0.07570111 0.06567037
v -0.02305221 -0.07629716 0.06508547
v -0.02385795 -0.07567971 0.06475472
v -0.02408152 -0.07612359 0.06442826
v -0.02339679 -0.07574391 0.06489849
v -0.02454090 -0.07606053 0.06544870
v -0.02402192 -0.07564109 0.06556254
v -0.02351683 -0.07625377 0.06599456
v -0.02351683 -0.07625377 0.06599456
v -0.02402192 -0.07564109 0.06556254
v -0.02362507 -0.07570111 0.06567037
v -0.02402192 -0.07564109 0.06556254
v -0.02454090 -0.07606053 0.06544870
v -0.02420240 -0.07563090 0.06519550
v -0.02420240 -0.07563090 0.06519550
v -0.02408152 -0.07612359 0.06442826
v -0.02385795 -0.07567971 0.06475472
v -0.02408152 -0.07612359 0.06442826
v -0.02420240 -0.07563090 0.06519550
v -0.02454090 -0.07606053 0.06544870
v -0.02249485 -0.07637858 0.06396138
v -0.02189069 -0.07643151 0.06439507
v -0.02305221 -0.07629716 0.06508547
v -0.02829205 -0.07545769 0.06080776
v -0.02784729 -0.07552057 0.06209981
v -0.02918523 -0.07528990 0.06264072
v -0.02638268 -0.07576453 0.06046265
v -0.02735728 -0.07560676 0.06064230
v -0.02590465 -0.07585179 0.05945402
v -0.02599853 -0.07586067 0.06653678
v -0.02734249 -0.07559633 0.06613433
v -0.02677994 -0.07569605 0.06579089
v -0.02619308 -0.07579511 0.06321024
v -0.02635043 -0.07577031 0.06501448
v -0.02739566 -0.07560032 0.06378275
v -0.02546459 -0.07591301 0.06376361
v -0.02554655 -0.07589846 0.06503456
v -0.02677994 -0.07569605 0.06579089
v -0.02734249 -0.07559633 0.06613433
v -0.02711308 -0.07560843 0.06537377
v -0.02408152 -0.07612359 0.06442826
v -0.02454090 -0.07606053 0.06544870
v -0.02554655 -0.07589846 0.06503456
v -0.02619308 -0.07579511 0.06321024
v -0.02739566 -0.07560032 0.06378275
v -0.02782189 -0.07552295 0.06283181
v -0.02836573 -0.07544660 0.06434917
v -0.02767962 -0.07551705 0.06472885
v -0.02851742 -0.07539165 0.06497490
v -0.02546459 -0.07591301 0.06376361
v -0.02408152 -0.07612359 0.06442826
v -0.02554655 -0.07589846 0.06503456
v -0.02619308 -0.07579511 0.06321024
v -0.02782189 -0.07552295 0.06283181
v -0.02784729 -0.07552057 0.06209981
v -0.02379536 -0.07616984 0.06182277
v -0.02352732 -0.07622021 0.06325566
v -0.02468448 -0.07603263 0.06293314
v -0.02379536 -0.07616984 0.06182277
v -0.02571821 -0.07585895 0.06222921
v -0.02542161 -0.07591414 0.06102228
v -0.02571821 -0.07585895 0.06222921
v -0.02784729 -0.07552057 0.06209981
v -0.02784729 -0.07552057 0.06209981
v -0.02688449 -0.07567942 0.06143897
v -0.02427035 -0.07610642 0.06084209
v -0.02195119 -0.07651716 0.06288492
v -0.02189069 -0.07643151 0.06439507
v -0.02249485 -0.07637858 0.06396138
v -0.02379536 -0.07616984 0.06182277
v -0.02275240 -0.07635235 0.06242853
v -0.02352732 -0.07622021 0.06325566
v -0.02468448 -0.07603263 0.06293314
v -0.02635043 -0.07577031 0.06501448
v -0.02677994 -0.07569605 0.06579089
v -0.02711308 -0.07560843 0.06537377
v -0.02739566 -0.07560032 0.06378275
v -0.02739566 -0.07560032 0.06378275
v -0.02711308 -0.07560843 0.06537377
v -0.02767962 -0.07551705 0.06472885
v -0.02427035 -0.07610642 0.06084209
v -0.02542161 -0.07591414 0.06102228
v -0.02494072 -0.07599610 0.06000328
v -0.02635043 -0.07577031 0.06501448
v -0.02782189 -0.07552295 0.06283181
v -0.02890896 -0.07536238 0.06345701
v -0.02918523 -0.07528990 0.06264072
v -0.02275854 -0.07635438 0.06114310
v -0.02275240 -0.07635235 0.06242853
v -0.02379536 -0.07616984 0.06182277
v -0.02189069 -0.07643151 0.06439507
v -0.02351683 -0.07625377 0.06599456
v -0.02305221 -0.07629716 0.06508547
v -0.02349746 -0.07622402 0.05982857
v -0.02494072 -0.07599610 0.06000328
v -0.02590465 -0.07585179 0.05945402
v -0.02735728 -0.07560676 0.06064230
v -0.02829205 -0.07545769 0.06080776
v -0.02349746 -0.07622402 0.05982857
v -0.02195119 -0.07651716 0.06288492
v -0.02275240 -0.07635235 0.06242853
v -0.02275854 -0.07635438 0.06114310
v -0.02349746 -0.07622402 0.05982857
v -0.02336102 -0.07627576 0.06026399
v -0.02427035 -0.07610642 0.06084209
v -0.02305221 -0.07629716 0.06508547
v -0.02408152 -0.07612359 0.06442826
v -0.02454090 -0.07606053 0.06544870
v -0.02599853 -0.07586067 0.06653678
v -0.02531021 -0.07593643 0.06586509
v -0.02918523 -0.07528990 0.06264072
v -0.02195614 -0.07638835 0.06134635
v -0.02195119 -0.07651716 0.06288492
v -0.02275854 -0.07635438 0.06114310
v -0.02352732 -0.07622021 0.06325566
v -0.02408152 -0.07612359 0.06442826
v -0.02468448 -0.07603263 0.06293314
v -0.02351683 -0.07625377 0.06599456
v -0.02599853 -0.07586067 0.06653678
v -0.02454090 -0.07606053 0.06544870
v -0.02249485 -0.07637858 0.06396138
v -0.02305221 -0.07629716 0.06508547
v -0.02352732 -0.07622021 0.06325566
v -0.02638268 -0.07576453 0.06046265
v -0.02688449 -0.07567942 0.06143897
v -0.02735728 -0.07560676 0.06064230
v -0.02454090 -0.07606053 0.06544870
v -0.02531021 -0.07593643 0.06586509
v -0.02554655 -0.07589846 0.06503456
v -0.02559852 -0.07538735 0.06539285
v -0.02595043 -0.07532501 0.06522583
v -0.02559852 -0.07538735 0.06539285
v -0.02531021 -0.07593643 0.06586509
v -0.02554476 -0.07540714 0.06591773
v -0.02554655 -0.07589846 0.06503456
v -0.02531021 -0.07593643 0.06586509
v -0.02559852 -0.07538735 0.06539285
v -0.02599853 -0.07586067 0.06653678
v -0.02554476 -0.07540714 0.06591773
v -0.02531021 -0.07593643 0.06586509
v -0.02554476 -0.07540714 0.06591773
v -0.02599853 -0.07586067 0.06653678
v -0.02608096 -0.07530832 0.06615370
v -0.02677994 -0.07569605 0.06579089
v -0.02608096 -0.07530832 0.06615370
v -0.02599853 -0.07586067 0.06653678
v -0.02608096 -0.07530832 0.06615370
v -0.02677994 -0.07569605 0.06579089
v -0.02638638 -0.07526701 0.06580156
v -0.02677994 -0.07569605 0.06579089
v -0.02630323 -0.07527345 0.06539446
v -0.02638638 -0.07526701 0.06580156
v -0.02635043 -0.07577031 0.06501448
v -0.02630323 -0.07527345 0.06539446
v -0.02677994 -0.07569605 0.06579089
v -0.02635043 -0.07577031 0.06501448
v -0.02595043 -0.07532501 0.06522583
v -0.02630323 -0.07527345 0.06539446
v -0.02595043 -0.07532501 0.06522583
v -0.02635043 -0.07577031 0.06501448
v -0.02554655 -0.07589846 0.06503456
v -0.02768713 -0.07504510 0.06326627
v -0.02739566 -0.07560032 0.06378275
v -0.02764028 -0.07506853 0.06379562
v -0.02739566 -0.07560032 0.06378275
v -0.02768713 -0.07504510 0.06326627
v -0.02782189 -0.07552295 0.06283181
v -0.02836573 -0.07544660 0.06434917
v -0.02764028 -0.07506853 0.06379562
v -0.02739566 -0.07560032 0.06378275
v -0.02836573 -0.07544660 0.06434917
v -0.02816599 -0.07496535 0.06404447
v -0.02764028 -0.07506853 0.06379562
v -0.02804344 -0.07498574 0.06310433
v -0.02782189 -0.07552295 0.06283181
v -0.02768713 -0.07504510 0.06326627
v -0.02816599 -0.07496535 0.06404447
v -0.02890896 -0.07536238 0.06345701
v -0.02848047 -0.07492786 0.06367999
v -0.02836573 -0.07544660 0.06434917
v -0.02890896 -0.07536238 0.06345701
v -0.02816599 -0.07496535 0.06404447
v -0.02890896 -0.07536238 0.06345701
v -0.02839630 -0.07493418 0.06327134
v -0.02848047 -0.07492786 0.06367999
v -0.02782189 -0.07552295 0.06283181
v -0.02839630 -0.07493418 0.06327134
v -0.02890896 -0.07536238 0.06345701
v -0.02782189 -0.07552295 0.06283181
v -0.02804344 -0.07498574 0.06310433
v -0.02839630 -0.07493418 0.06327134
v -0.02688449 -0.07567942 0.06143897
v -0.02720350 -0.07512760 0.06104260
v -0.02735728 -0.07560676 0.06064230
v -0.02720350 -0.07512760 0.06104260
v -0.02688449 -0.07567942 0.06143897
v -0.02712237 -0.07514780 0.06144958
v -0.02688449 -0.07567942 0.06143897
v -0.02742540 -0.07509052 0.06180197
v -0.02712237 -0.07514780 0.06144958
v -0.02784729 -0.07552057 0.06209981
v -0.02742540 -0.07509052 0.06180197
v -0.02688449 -0.07567942 0.06143897
v -0.02768599 -0.07504779 0.06088083
v -0.02735728 -0.07560676 0.06064230
v -0.02720350 -0.07512760 0.06104260
v -0.02790832 -0.07501327 0.06164354
v -0.02829205 -0.07545769 0.06080776
v -0.02799230 -0.07500690 0.06123489
v -0.02829205 -0.07545769 0.06080776
v -0.02790832 -0.07501327 0.06164354
v -0.02784729 -0.07552057 0.06209981
v -0.02829205 -0.07545769 0.06080776
v -0.02768599 -0.07504779 0.06088083
v -0.02799230 -0.07500690 0.06123489
v -0.02768599 -0.07504779 0.06088083
v -0.02829205 -0.07545769 0.06080776
v -0.02735728 -0.07560676 0.06064230
v -0.02742540 -0.07509052 0.06180197
v -0.02784729 -0.07552057 0.06209981
v -0.02790832 -0.07501327 0.06164354
v -0.02494072 -0.07599610 0.06000328
v -0.02544933 -0.07540220 0.05977565
v -0.02590465 -0.07585179 0.05945402
v -0.02544933 -0.07540220 0.05977565
v -0.02494072 -0.07599610 0.06000328
v -0.02514082 -0.07546877 0.06014496
v -0.02494072 -0.07599610 0.06000328
v -0.02522248 -0.07544821 0.06055361
v -0.02514082 -0.07546877 0.06014496
v -0.02542161 -0.07591414 0.06102228
v -0.02522248 -0.07544821 0.06055361
v -0.02494072 -0.07599610 0.06000328
v -0.02542161 -0.07591414 0.06102228
v -0.02569657 -0.07536560 0.06072288
v -0.02522248 -0.07544821 0.06055361
v -0.02638268 -0.07576453 0.06046265
v -0.02569657 -0.07536560 0.06072288
v -0.02542161 -0.07591414 0.06102228
v -0.02638268 -0.07576453 0.06046265
v -0.02601248 -0.07532614 0.06036186
v -0.02569657 -0.07536560 0.06072288
v -0.02638268 -0.07576453 0.06046265
v -0.02592653 -0.07533419 0.05995100
v -0.02601248 -0.07532614 0.06036186
v -0.02590465 -0.07585179 0.05945402
v -0.02592653 -0.07533419 0.05995100
v -0.02638268 -0.07576453 0.06046265
v -0.02590465 -0.07585179 0.05945402
v -0.02544933 -0.07540220 0.05977565
v -0.02592653 -0.07533419 0.05995100
v -0.02357143 -0.07572788 0.06149423
v -0.02379536 -0.07616984 0.06182277
v -0.02392351 -0.07567161 0.06105256
v -0.02427035 -0.07610642 0.06084209
v -0.02392351 -0.07567161 0.06105256
v -0.02379536 -0.07616984 0.06182277
v -0.02427035 -0.07610642 0.06084209
v -0.02358442 -0.07570767 0.06058180
v -0.02392351 -0.07567161 0.06105256
v -0.02336102 -0.07627576 0.06026399
v -0.02358442 -0.07570767 0.06058180
v -0.02427035 -0.07610642 0.06084209
v -0.02336102 -0.07627576 0.06026399
v -0.02305680 -0.07581007 0.06082862
v -0.02358442 -0.07570767 0.06058180
v -0.02275854 -0.07635438 0.06114310
v -0.02305680 -0.07581007 0.06082862
v -0.02336102 -0.07627576 0.06026399
v -0.02275854 -0.07635438 0.06114310
v -0.02311033 -0.07579034 0.06135368
v -0.02305680 -0.07581007 0.06082862
v -0.02311033 -0.07579034 0.06135368
v -0.02379536 -0.07616984 0.06182277
v -0.02357143 -0.07572788 0.06149423
v -0.02379536 -0.07616984 0.06182277
v -0.02311033 -0.07579034 0.06135368
v -0.02275854 -0.07635438 0.06114310
v -0.02468448 -0.07603263 0.06293314
v -0.02503311 -0.07547891 0.06269878
v -0.02571821 -0.07585895 0.06222921
v -0.02503311 -0.07547891 0.06269878
v -0.02468448 -0.07603263 0.06293314
v -0.02493536 -0.07549422 0.06305950
v -0.02546459 -0.07591301 0.06376361
v -0.02512592 -0.07546705 0.06337827
v -0.02468448 -0.07603263 0.06293314
v -0.02512592 -0.07546705 0.06337827
v -0.02493536 -0.07549422 0.06305950
v -0.02468448 -0.07603263 0.06293314
v -0.02512592 -0.07546705 0.06337827
v -0.02546459 -0.07591301 0.06376361
v -0.02556586 -0.07539111 0.06343197
v -0.02549386 -0.07541650 0.06255823
v -0.02571821 -0.07585895 0.06222921
v -0.02503311 -0.07547891 0.06269878
v -0.02619308 -0.07579511 0.06321024
v -0.02556586 -0.07539111 0.06343197
v -0.02546459 -0.07591301 0.06376361
v -0.02619308 -0.07579511 0.06321024
v -0.02584606 -0.07536023 0.06299990
v -0.02556586 -0.07539111 0.06343197
v -0.02584606 -0.07536023 0.06299990
v -0.02571821 -0.07585895 0.06222921
v -0.02549386 -0.07541650 0.06255823
v -0.02571821 -0.07585895 0.06222921
v -0.02584606 -0.07536023 0.06299990
v -0.02619308 -0.07579511 0.06321024
v -0.02195119 -0.07651716 0.06288492
v -0.02254903 -0.07587540 0.06272155
v -0.02275240 -0.07635235 0.06242853
v -0.02195119 -0.07651716 0.06288492
v -0.02223670 -0.07593768 0.06308275
v -0.02254903 -0.07587540 0.06272155
v -0.02195119 -0.07651716 0.06288492
v -0.02234804 -0.07591015 0.06354689
v -0.02223670 -0.07593768 0.06308275
v -0.02249485 -0.07637858 0.06396138
v -0.02234804 -0.07591015 0.06354689
v -0.02195119 -0.07651716 0.06288492
v -0.02234804 -0.07591015 0.06354689
v -0.02249485 -0.07637858 0.06396138
v -0.02285259 -0.07582819 0.06362879
v -0.02352732 -0.07622021 0.06325566
v -0.02285259 -0.07582819 0.06362879
v -0.02249485 -0.07637858 0.06396138
v -0.02352732 -0.07622021 0.06325566
v -0.02311062 -0.07579612 0.06330168
v -0.02285259 -0.07582819 0.06362879
v -0.02352732 -0.07622021 0.06325566
v -0.02302461 -0.07580417 0.06289106
v -0.02311062 -0.07579612 0.06330168
v -0.02275240 -0.07635235 0.06242853
v -0.02302461 -0.07580417 0.06289106
v -0.02352732 -0.07622021 0.06325566
v -0.02275240 -0.07635235 0.06242853
v -0.02254903 -0.07587540 0.06272155
v -0.02302461 -0.07580417 0.06289106
v -0.02824831 -0.07526403 0.06021177
v -0.02590465 -0.07585179 0.05945402
v -0.02829205 -0.07545769 0.06080776
v -0.02318501 -0.07602995 0.06629115
v -0.02351683 -0.07625377 0.06599456
v -0.02189069 -0.07643151 0.06439507
v -0.02318501 -0.07602995 0.06629115
v -0.02189069 -0.07643151 0.06439507
v -0.02208906 -0.07615709 0.06513386
v -0.02657592 -0.07561552 0.05923533
v -0.02590465 -0.07585179 0.05945402
v -0.02824831 -0.07526403 0.06021177
v -0.02467441 -0.07581853 0.06688886
v -0.02599853 -0.07586067 0.06653678
v -0.02351683 -0.07625377 0.06599456
v -0.02467441 -0.07581853 0.06688886
v -0.02351683 -0.07625377 0.06599456
v -0.02318501 -0.07602995 0.06629115
v -0.02657592 -0.07561552 0.05923533
v -0.02349746 -0.07622402 0.05982857
v -0.02590465 -0.07585179 0.05945402
v -0.02525818 -0.07570481 0.05902463
v -0.02349746 -0.07622402 0.05982857
v -0.02657592 -0.07561552 0.05923533
v -0.02627909 -0.07554638 0.06689631
v -0.02599853 -0.07586067 0.06653678
v -0.02467441 -0.07581853 0.06688886
v -0.02396893 -0.07593446 0.05932921
v -0.02349746 -0.07622402 0.05982857
v -0.02525818 -0.07570481 0.05902463
v -0.02925103 -0.07498812 0.06400686
v -0.02851742 -0.07539165 0.06497490
v -0.02863663 -0.07512062 0.06517416
v -0.02627909 -0.07554638 0.06689631
v -0.02734249 -0.07559633 0.06613433
v -0.02599853 -0.07586067 0.06653678
v -0.02627909 -0.07554638 0.06689631
v -0.02757126 -0.07532680 0.06625634
v -0.02734249 -0.07559633 0.06613433
v -0.02890896 -0.07536238 0.06345701
v -0.02836573 -0.07544660 0.06434917
v -0.02851742 -0.07539165 0.06497490
v -0.02918523 -0.07528990 0.06264072
v -0.02890896 -0.07536238 0.06345701
v -0.02851742 -0.07539165 0.06497490
v -0.02925103 -0.07498812 0.06400686
v -0.02918523 -0.07528990 0.06264072
v -0.02851742 -0.07539165 0.06497490
v -0.02261066 -0.07611906 0.06021875
v -0.02349746 -0.07622402 0.05982857
v -0.02396893 -0.07593446 0.05932921
v -0.02261066 -0.07611906 0.06021875
v -0.02195614 -0.07638835 0.06134635
v -0.02349746 -0.07622402 0.05982857
v -0.02195614 -0.07638835 0.06134635
v -0.02275854 -0.07635438 0.06114310
v -0.02336102 -0.07627576 0.06026399
v -0.02926814 -0.07498538 0.06206542
v -0.02918523 -0.07528990 0.06264072
v -0.02925103 -0.07498812 0.06400686
v -0.02349746 -0.07622402 0.05982857
v -0.02195614 -0.07638835 0.06134635
v -0.02336102 -0.07627576 0.06026399
v -0.02143615 -0.07621151 0.06299090
v -0.02195119 -0.07651716 0.06288492
v -0.02195614 -0.07638835 0.06134635
v -0.02824831 -0.07526403 0.06021177
v -0.02829205 -0.07545769 0.06080776
v -0.02918523 -0.07528990 0.06264072
v -0.02824831 -0.07526403 0.06021177
v -0.02918523 -0.07528990 0.06264072
v -0.02926814 -0.07498538 0.06206542
v -0.02143615 -0.07621151 0.06299090
v -0.02189069 -0.07643151 0.06439507
v -0.02195119 -0.07651716 0.06288492
v -0.02291280 -0.06843864 0.06687986
v -0.02627909 -0.07554638 0.06689631
v -0.02467441 -0.07581853 0.06688886
v -0.02075529 -0.06878811 0.06089621
v -0.02195614 -0.07638835 0.06134635
v -0.02261066 -0.07611906 0.06021875
v -0.02291280 -0.06843864 0.06687986
v -0.02467441 -0.07581853 0.06688886
v -0.02318501 -0.07602995 0.06629115
v -0.02354216 -0.06833672 0.05890160
v -0.02075529 -0.06878811 0.06089621
v -0.02261066 -0.07611906 0.06021875
v -0.02354216 -0.06833672 0.05890160
v -0.02261066 -0.07611906 0.06021875
v -0.02396893 -0.07593446 0.05932921
v -0.02034622 -0.06885433 0.06440401
v -0.02291280 -0.06843864 0.06687986
v -0.02318501 -0.07602995 0.06629115
v -0.02034622 -0.06885433 0.06440401
v -0.02318501 -0.07602995 0.06629115
v -0.02208906 -0.07615709 0.06513386
v -0.02354216 -0.06833672 0.05890160
v -0.02396893 -0.07593446 0.05932921
v -0.02525818 -0.07570481 0.05902463
v -0.02034622 -0.06885433 0.06440401
v -0.02208906 -0.07615709 0.06513386
v -0.02189069 -0.07643151 0.06439507
v -0.02034622 -0.06885433 0.06440401
v -0.02189069 -0.07643151 0.06439507
v -0.02143615 -0.07621151 0.06299090
v -0.02075529 -0.06878811 0.06089621
v -0.02034622 -0.06885433 0.06440401
v -0.02143615 -0.07621151 0.06299090
v -0.02075529 -0.06878811 0.06089621
v -0.02143615 -0.07621151 0.06299090
v -0.02195614 -0.07638835 0.06134635
v -0.02634537 -0.06788551 0.06642645
v -0.02757126 -0.07532680 0.06625634
v -0.02627909 -0.07554638 0.06689631
v -0.02291280 -0.06843864 0.06687986
v -0.02634537 -0.06788551 0.06642645
v -0.02627909 -0.07554638 0.06689631
v -0.02711308 -0.07560843 0.06537377
v -0.02757126 -0.07532680 0.06625634
v -0.02738428 -0.07537031 0.06597274
v -0.02711308 -0.07560843 0.06537377
v -0.02734249 -0.07559633 0.06613433
v -0.02757126 -0.07532680 0.06625634
v -0.02654844 -0.06682527 0.06472676
v -0.02767962 -0.07551705 0.06472885
v -0.02573871 -0.06695640 0.06538522
v -0.02767962 -0.07551705 0.06472885
v -0.02711308 -0.07560843 0.06537377
v -0.02573871 -0.06695640 0.06538522
v -0.02711308 -0.07560843 0.06537377
v -0.02738428 -0.07537031 0.06597274
v -0.02573871 -0.06695640 0.06538522
v -0.02573871 -0.06695640 0.06538522
v -0.02738428 -0.07537031 0.06597274
v -0.02600806 -0.06693434 0.06596165
v -0.02706855 -0.06730306 0.06497025
v -0.02654844 -0.06682527 0.06472676
v -0.02698951 -0.06675374 0.06497991
v -0.02851742 -0.07539165 0.06497490
v -0.02851742 -0.07539165 0.06497490
v -0.02767962 -0.07551705 0.06472885
v -0.02654844 -0.06682527 0.06472676
v -0.02812284 -0.06759476 0.06389069
v -0.02925103 -0.07498812 0.06400686
v -0.02863663 -0.07512062 0.06517416
v -0.02747941 -0.06768870 0.06511968
v -0.02354216 -0.06833672 0.05890160
v -0.02525818 -0.07570481 0.05902463
v -0.02657592 -0.07561552 0.05923533
v -0.02634274 -0.06788307 0.05958437
v -0.02354216 -0.06833672 0.05890160
v -0.02657592 -0.07561552 0.05923533
v -0.02634274 -0.06788307 0.05958437
v -0.02657592 -0.07561552 0.05923533
v -0.02824831 -0.07526403 0.06021177
v -0.02790087 -0.06763076 0.06134408
v -0.02634274 -0.06788307 0.05958437
v -0.02824831 -0.07526403 0.06021177
v -0.02790087 -0.06763076 0.06134408
v -0.02824831 -0.07526403 0.06021177
v -0.02926814 -0.07498538 0.06206542
v -0.02812284 -0.06759476 0.06389069
v -0.02790087 -0.06763076 0.06134408
v -0.02926814 -0.07498538 0.06206542
v -0.02812284 -0.06759476 0.06389069
v -0.02926814 -0.07498538 0.06206542
v -0.02925103 -0.07498812 0.06400686
v -0.02851742 -0.07539165 0.06497490
v -0.02706855 -0.06730306 0.06497025
v -0.02747941 -0.06768870 0.06511968
v -0.02851742 -0.07539165 0.06497490
v -0.02747941 -0.06768870 0.06511968
v -0.02863663 -0.07512062 0.06517416
v -0.02757126 -0.07532680 0.06625634
v -0.02747488 -0.07519578 0.06608438
v -0.02738428 -0.07537031 0.06597274
v -0.02633607 -0.06774353 0.06606900
v -0.02747488 -0.07519578 0.06608438
v -0.02757126 -0.07532680 0.06625634
v -0.02634537 -0.06788551 0.06642645
v -0.02633607 -0.06774353 0.06606900
v -0.02757126 -0.07532680 0.06625634
vn -0.54398641 -0.05585473 0.83723296
vn -0.54398641 -0.05585473 0.83723296
vn -0.54398641 -0.05585473 0.83723296
vn -0.86114358 -0.48642043 0.14773928
vn -0.86114358 -0.48642043 0.14773928
vn -0.86114358 -0.48642043 0.14773928
vn -0.76541438 -0.11415018 -0.63333290
vn -0.76541438 -0.11415018 -0.63333290
vn -0.76541438 -0.11415018 -0.63333290
vn -0.82459324 -0.39758123 -0.40246136
vn -0.82459324 -0.39758123 -0.40246136
vn -0.82459324 -0.39758123 -0.40246136
vn -0.32229594 -0.45013666 0.83276786
vn -0.32229594 -0.45013666 0.83276786
vn -0.32229594 -0.45013666 0.83276786
vn 0.41174110 -0.27352355 -0.86928369
vn 0.41174110 -0.27352355 -0.86928369
vn 0.41174110 -0.27352355 -0.86928369
vn 0.16305445 -0.47524473 -0.86461303
vn 0.16305445 -0.47524473 -0.86461303
vn 0.16305445 -0.47524473 -0.86461303
vn 0.63590611 -0.69669550 -0.33202228
vn 0.63590611 -0.69669550 -0.33202228
vn 0.63590611 -0.69669550 -0.33202228
vn 0.55822605 -0.65536941 0.50879722
vn 0.55822605 -0.65536941 0.50879722
vn 0.55822605 -0.65536941 0.50879722
vn 0.82035827 -0.41363430 0.39486578
vn 0.82035827 -0.41363430 0.39486578
vn 0.82035827 -0.41363430 0.39486578
vn -0.10240119 -0.99451595 0.02126088
vn -0.10240119 -0.99451595 0.02126088
vn -0.10240119 -0.99451595 0.02126088
vn -0.16626099 -0.98603842 0.00924788
vn -0.16626099 -0.98603842 0.00924788
vn -0.16626099 -0.98603842 0.00924788
vn -0.15748435 -0.98748504 0.00848349
vn -0.15788469 -0.98740069 0.01059682
vn -0.15788469 -0.98740069 0.01059682
vn -0.18689865 -0.98215544 -0.02096654
vn -0.18689865 -0.98215544 -0.02096654
vn -0.18689865 -0.98215544 -0.02096654
vn -0.15979845 -0.98714959 -0.00036979
vn -0.15883914 -0.98730444 0.00027001
vn -0.16007423 -0.98710490 -0.00039446
vn -0.15898125 -0.98728160 0.00004341
vn -0.15807268 -0.98742716 0.00079660
vn -0.20096465 -0.97856207 -0.04504969
vn -0.20096465 -0.97856207 -0.04504969
vn -0.20096465 -0.97856207 -0.04504969
vn -0.15550219 -0.98779485 -0.00896643
vn -0.15550219 -0.98779485 -0.00896643
vn -0.15550219 -0.98779485 -0.00896643
vn -0.15846273 -0.98731401 -0.01003020
vn -0.16318967 -0.98656902 -0.00712088
vn -0.16318967 -0.98656902 -0.00712088
vn -0.13051366 -0.99007502 0.05213093
vn -0.12984483 -0.99022730 0.05089406
vn -0.13201506 -0.98972574 0.05490887
vn -0.15104252 -0.98852663 0.00111731
vn -0.15105960 -0.98852398 0.00115368
vn -0.15125191 -0.98849401 0.00156335
vn -0.16537403 -0.98622769 0.00252636
vn -0.16688385 -0.98597319 0.00257958
vn -0.16733729 -0.98589629 0.00259557
vn -0.15970305 -0.98714748 -0.00589765
vn -0.15864399 -0.98732305 -0.00502792
vn -0.16006006 -0.98708786 -0.00619089
vn -0.16039802 -0.98699572 0.01057920
vn -0.15740740 -0.98751065 0.00675541
vn -0.15819820 -0.98737837 0.00756828
vn -0.15820604 -0.98735938 -0.00960770
vn -0.15627949 -0.98764740 -0.01137280
vn -0.15743340 -0.98749715 0.00800634
vn -0.15710811 -0.98755576 0.00711725
vn -0.16245428 -0.98660384 0.01488183
vn -0.13074479 -0.98951568 0.06135572
vn -0.13074479 -0.98951568 0.06135572
vn -0.13074479 -0.98951568 0.06135572
vn -0.17086692 -0.98529050 -0.00267003
vn -0.17086692 -0.98529050 -0.00267003
vn -0.16945264 -0.98553811 -0.00065990
vn -0.15084341 -0.98855743 0.00069321
vn -0.22047295 -0.97497033 -0.02871464
vn -0.22047295 -0.97497033 -0.02871464
vn -0.22047295 -0.97497033 -0.02871464
vn -0.12859323 -0.99050680 0.04858048
vn -0.19281246 -0.98079976 0.02924355
vn -0.19333385 -0.98069434 0.02933669
vn -0.19121703 -0.98112051 0.02895855
vn -0.16002568 -0.98711096 -0.00193423
vn -0.16447695 -0.98637943 0.00171941
vn -0.16073533 -0.98699662 -0.00135204
vn -0.19422606 -0.98051324 0.02949608
vn -0.16405059 -0.98593212 -0.03201970
vn -0.16405059 -0.98593212 -0.03201970
vn -0.16405059 -0.98593212 -0.03201970
vn -0.17371431 -0.98479321 0.00238225
vn -0.17371431 -0.98479321 0.00238225
vn -0.17371431 -0.98479321 0.00238225
vn -0.12441059 -0.99209795 -0.01623794
vn -0.12441059 -0.99209795 -0.01623794
vn -0.12441059 -0.99209795 -0.01623794
vn -0.15459014 -0.98790893 0.01174061
vn -0.15459014 -0.98790893 0.01174061
vn -0.15472686 -0.98787796 0.01251957
vn -0.15501879 -0.98780968 0.01418462
vn -0.15501879 -0.98780968 0.01418462
vn -0.15655085 -0.98765832 -0.00478328
vn -0.20285117 -0.97920636 0.00251261
vn -0.20285117 -0.97920636 0.00251261
vn -0.20285117 -0.97920636 0.00251261
vn -0.21299743 -0.97581309 -0.04920266
vn -0.21299743 -0.97581309 -0.04920266
vn -0.21299743 -0.97581309 -0.04920266
vn -0.16754786 -0.98586182 0.00204506
vn -0.16754786 -0.98586182 0.00204506
vn -0.21821830 -0.96918197 -0.11431139
vn -0.21821830 -0.96918197 -0.11431139
vn -0.21821830 -0.96918197 -0.11431139
vn -0.16885944 -0.98563658 0.00264923
vn -0.02107452 -0.99629830 -0.08334000
vn -0.02107452 -0.99629830 -0.08334000
vn -0.02107452 -0.99629830 -0.08334000
vn -0.16137940 -0.98687955 0.00504428
vn -0.16137940 -0.98687955 0.00504428
vn -0.16137940 -0.98687955 0.00504428
vn -0.16478787 -0.98552848 -0.03973115
vn -0.16478787 -0.98552848 -0.03973115
vn -0.16478787 -0.98552848 -0.03973115
vn -0.14982822 -0.98870842 -0.00267555
vn -0.14982822 -0.98870842 -0.00267555
vn -0.14982822 -0.98870842 -0.00267555
vn -0.15901815 -0.98726617 0.00432962
vn -0.15901815 -0.98726617 0.00432962
vn -0.15901815 -0.98726617 0.00432962
vn -0.15917393 -0.98725054 0.00016262
vn -0.15917393 -0.98725054 0.00016262
vn -0.43621970 -0.54584105 0.71538096
vn -0.43621970 -0.54584105 0.71538096
vn -0.43621970 -0.54584105 0.71538096
vn -0.90861585 -0.41036170 0.07759194
vn -0.90861585 -0.41036170 0.07759194
vn -0.90861585 -0.41036170 0.07759194
vn -0.92899107 -0.27108886 0.25196513
vn -0.92899107 -0.27108886 0.25196513
vn -0.92899107 -0.27108886 0.25196513
vn -0.69155223 -0.23865331 -0.68176250
vn -0.69155223 -0.23865331 -0.68176250
vn -0.69155223 -0.23865331 -0.68176250
vn -0.41812330 -0.55899639 -0.71602789
vn -0.41812330 -0.55899639 -0.71602789
vn -0.41812330 -0.55899639 -0.71602789
vn 0.58721092 -0.40029459 -0.70352511
vn 0.58721092 -0.40029459 -0.70352511
vn 0.58721092 -0.40029459 -0.70352511
vn 0.60382633 -0.53929319 -0.58698945
vn 0.60382633 -0.53929319 -0.58698945
vn 0.60382633 -0.53929319 -0.58698945
vn 0.72560124 -0.66954316 0.15879167
vn 0.72560124 -0.66954316 0.15879167
vn 0.72560124 -0.66954316 0.15879167
vn 0.77141242 -0.43117492 0.46798618
vn 0.77141242 -0.43117492 0.46798618
vn 0.77141242 -0.43117492 0.46798618
vn 0.27156061 -0.60079135 0.75186740
vn 0.27156061 -0.60079135 0.75186740
vn 0.27156061 -0.60079135 0.75186740
vn -0.08158981 -0.36659264 0.92679714
vn -0.08158981 -0.36659264 0.92679714
vn -0.08158981 -0.36659264 0.92679714
vn -0.90619400 -0.41833864 0.06168646
vn -0.90619400 -0.41833864 0.06168646
vn -0.90619400 -0.41833864 0.06168646
vn -0.91055038 -0.10640948 0.39946843
vn -0.91055038 -0.10640948 0.39946843
vn -0.91055038 -0.10640948 0.39946843
vn -0.51763576 -0.21809223 -0.82733851
vn -0.51763576 -0.21809223 -0.82733851
vn -0.51763576 -0.21809223 -0.82733851
vn -0.45603012 -0.33321614 -0.82522938
vn -0.45603012 -0.33321614 -0.82522938
vn -0.45603012 -0.33321614 -0.82522938
vn -0.42082720 -0.54241006 0.72711471
vn -0.42082720 -0.54241006 0.72711471
vn -0.42082720 -0.54241006 0.72711471
vn 0.68920077 -0.35570180 -0.63125155
vn 0.68920077 -0.35570180 -0.63125155
vn 0.68920077 -0.35570180 -0.63125155
vn 0.67418789 -0.57404055 -0.46470220
vn 0.67418789 -0.57404055 -0.46470220
vn 0.67418789 -0.57404055 -0.46470220
vn 0.66504955 -0.73192657 0.14829902
vn 0.66504955 -0.73192657 0.14829902
vn 0.66504955 -0.73192657 0.14829902
vn 0.46885032 -0.18702255 0.86325080
vn 0.46885032 -0.18702255 0.86325080
vn 0.46885032 -0.18702255 0.86325080
vn 0.37389055 -0.29231971 0.88020170
vn 0.37389055 -0.29231971 0.88020170
vn 0.37389055 -0.29231971 0.88020170
vn -0.85710895 -0.13925470 0.49595602
vn -0.85710895 -0.13925470 0.49595602
vn -0.85710895 -0.13925470 0.49595602
vn -0.89994798 -0.40587074 0.15925633
vn -0.89994798 -0.40587074 0.15925633
vn -0.89994798 -0.40587074 0.15925633
vn -0.74327775 -0.32087350 -0.58700799
vn -0.74327775 -0.32087350 -0.58700799
vn -0.74327775 -0.32087350 -0.58700799
vn -0.56737258 -0.01362260 -0.82334852
vn -0.56737258 -0.01362260 -0.82334852
vn -0.56737258 -0.01362260 -0.82334852
vn -0.34689831 -0.53324680 0.77156297
vn -0.34689831 -0.53324680 0.77156297
vn -0.34689831 -0.53324680 0.77156297
vn 0.89088043 -0.41281304 -0.18951897
vn 0.89088043 -0.41281304 -0.18951897
vn 0.89088043 -0.41281304 -0.18951897
vn 0.92671720 -0.18345837 -0.32793027
vn 0.92671720 -0.18345837 -0.32793027
vn 0.92671720 -0.18345837 -0.32793027
vn 0.45185525 -0.75328149 0.47790568
vn 0.45185525 -0.75328149 0.47790568
vn 0.45185525 -0.75328149 0.47790568
vn 0.11254776 -0.33327231 0.93608897
vn 0.11254776 -0.33327231 0.93608897
vn 0.11254776 -0.33327231 0.93608897
vn 0.13982609 -0.65280375 -0.74451053
vn 0.13982609 -0.65280375 -0.74451053
vn 0.13982609 -0.65280375 -0.74451053
vn -0.50404291 -0.10298826 0.85751627
vn -0.50404291 -0.10298826 0.85751627
vn -0.50404291 -0.10298826 0.85751627
vn -0.73187333 -0.42156298 0.53539339
vn -0.73187333 -0.42156298 0.53539339
vn -0.73187333 -0.42156298 0.53539339
vn -0.93551070 -0.30893840 -0.17139661
vn -0.93551070 -0.30893840 -0.17139661
vn -0.93551070 -0.30893840 -0.17139661
vn -0.90486923 -0.03961210 -0.42384261
vn -0.90486923 -0.03961210 -0.42384261
vn -0.90486923 -0.03961210 -0.42384261
vn -0.36169139 -0.57979562 -0.73007971
vn -0.36169139 -0.57979562 -0.73007971
vn -0.36169139 -0.57979562 -0.73007971
vn 0.46139522 -0.23558480 -0.85534452
vn 0.46139522 -0.23558480 -0.85534452
vn 0.46139522 -0.23558480 -0.85534452
vn 0.56477376 -0.60576922 -0.56042328
vn 0.56477376 -0.60576922 -0.56042328
vn 0.56477376 -0.60576922 -0.56042328
vn 0.77174594 -0.61182261 0.17343962
vn 0.77174594 -0.61182261 0.17343962
vn 0.77174594 -0.61182261 0.17343962
vn 0.82599050 -0.37184586 0.42363941
vn 0.82599050 -0.37184586 0.42363941
vn 0.82599050 -0.37184586 0.42363941
vn 0.16585047 -0.67934441 0.71483201
vn 0.16585047 -0.67934441 0.71483201
vn 0.16585047 -0.67934441 0.71483201
vn 0.54389640 -0.66042209 -0.51770587
vn 0.54389640 -0.66042209 -0.51770587
vn 0.54389640 -0.66042209 -0.51770587
vn 0.79851496 -0.43609802 -0.41496068
vn 0.79851496 -0.43609802 -0.41496068
vn 0.79851496 -0.43609802 -0.41496068
vn 0.57019693 -0.67880982 0.46270151
vn 0.57019693 -0.67880982 0.46270151
vn 0.57019693 -0.67880982 0.46270151
vn 0.47789587 -0.27818862 0.83320263
vn 0.47789587 -0.27818862 0.83320263
vn 0.47789587 -0.27818862 0.83320263
vn -0.43719545 -0.56388451 0.70063857
vn -0.43719545 -0.56388451 0.70063857
vn -0.43719545 -0.56388451 0.70063857
vn -0.82312842 -0.13193388 0.55231608
vn -0.82312842 -0.13193388 0.55231608
vn -0.82312842 -0.13193388 0.55231608
vn -0.85776415 -0.50948497 -0.06830614
vn -0.85776415 -0.50948497 -0.06830614
vn -0.85776415 -0.50948497 -0.06830614
vn -0.31537995 -0.45802321 -0.83111385
vn -0.31537995 -0.45802321 -0.83111385
vn -0.31537995 -0.45802321 -0.83111385
vn -0.55206850 -0.03328028 -0.83313432
vn -0.55206850 -0.03328028 -0.83313432
vn -0.55206850 -0.03328028 -0.83313432
vn -0.56342938 -0.00508302 0.82614859
vn -0.56342938 -0.00508302 0.82614859
vn -0.56342938 -0.00508302 0.82614859
vn -0.86490074 -0.45350361 0.21513060
vn -0.86490074 -0.45350361 0.21513060
vn -0.86490074 -0.45350361 0.21513060
vn -0.73087701 -0.03396899 -0.68166334
vn -0.73087701 -0.03396899 -0.68166334
vn -0.73087701 -0.03396899 -0.68166334
vn -0.83485885 -0.27743191 -0.47543899
vn -0.83485885 -0.27743191 -0.47543899
vn -0.83485885 -0.27743191 -0.47543899
vn -0.19433383 -0.55268129 -0.81041826
vn -0.19433383 -0.55268129 -0.81041826
vn -0.19433383 -0.55268129 -0.81041826
vn -0.31556198 -0.45798862 0.83106381
vn -0.31556198 -0.45798862 0.83106381
vn -0.31556198 -0.45798862 0.83106381
vn 0.51797328 -0.38490862 -0.76390381
vn 0.51797328 -0.38490862 -0.76390381
vn 0.51797328 -0.38490862 -0.76390381
vn 0.59132622 -0.68088027 -0.43212886
vn 0.59132622 -0.68088027 -0.43212886
vn 0.59132622 -0.68088027 -0.43212886
vn 0.54365760 -0.66063192 0.51768898
vn 0.54365760 -0.66063192 0.51768898
vn 0.54365760 -0.66063192 0.51768898
vn 0.79838592 -0.43642826 0.41486177
vn 0.79838592 -0.43642826 0.41486177
vn 0.79838592 -0.43642826 0.41486177
vn -0.51797209 -0.27645860 0.80949092
vn -0.51797209 -0.27645860 0.80949092
vn -0.51797209 -0.27645860 0.80949092
vn -0.69072558 -0.51397294 0.50865507
vn -0.69072558 -0.51397294 0.50865507
vn -0.69072558 -0.51397294 0.50865507
vn -0.90460013 -0.37929761 -0.19450430
vn -0.90460013 -0.37929761 -0.19450430
vn -0.90460013 -0.37929761 -0.19450430
vn -0.89296880 -0.10700644 -0.43721429
vn -0.89296880 -0.10700644 -0.43721429
vn -0.89296880 -0.10700644 -0.43721429
vn -0.22242433 -0.60605167 -0.76369418
vn -0.22242433 -0.60605167 -0.76369418
vn -0.22242433 -0.60605167 -0.76369418
vn 0.54270746 -0.14696697 -0.82696392
vn 0.54270746 -0.14696697 -0.82696392
vn 0.54270746 -0.14696697 -0.82696392
vn 0.62563716 -0.55527531 -0.54794842
vn 0.62563716 -0.55527531 -0.54794842
vn 0.62563716 -0.55527531 -0.54794842
vn 0.69546803 -0.70065244 0.15940634
vn 0.69546803 -0.70065244 0.15940634
vn 0.69546803 -0.70065244 0.15940634
vn 0.69042915 -0.23454992 0.68432005
vn 0.69042915 -0.23454992 0.68432005
vn 0.69042915 -0.23454992 0.68432005
vn 0.19767772 -0.57295081 0.79539354
vn 0.19767772 -0.57295081 0.79539354
vn 0.19767772 -0.57295081 0.79539354
vn -0.32516576 -0.89209412 -0.31374403
vn -0.32516576 -0.89209412 -0.31374403
vn -0.32516576 -0.89209412 -0.31374403
vn 0.26792420 -0.88906630 0.37118423
vn 0.26792420 -0.88906630 0.37118423
vn 0.26792420 -0.88906630 0.37118423
vn 0.32887677 -0.85304339 0.40516298
vn 0.32887677 -0.85304339 0.40516298
vn 0.32887677 -0.85304339 0.40516298
vn -0.28523396 -0.94701935 -0.14763450
vn -0.28523396 -0.94701935 -0.14763450
vn -0.28523396 -0.94701935 -0.14763450
vn -0.06741966 -0.92867937 0.36470430
vn -0.06741966 -0.92867937 0.36470430
vn -0.06741966 -0.92867937 0.36470430
vn 0.09352277 -0.84222531 0.53095199
vn 0.09352277 -0.84222531 0.53095199
vn 0.09352277 -0.84222531 0.53095199
vn 0.01684098 -0.65298646 -0.75718232
vn 0.01684098 -0.65298646 -0.75718232
vn 0.01684098 -0.65298646 -0.75718232
vn -0.11803054 -0.93178851 -0.34327681
vn -0.11803054 -0.93178851 -0.34327681
vn -0.11803054 -0.93178851 -0.34327681
vn -0.13209679 -0.79507489 0.59195131
vn -0.13209679 -0.79507489 0.59195131
vn -0.13209679 -0.79507489 0.59195131
vn -0.04673041 -0.88265200 -0.46769832
vn -0.04673041 -0.88265200 -0.46769832
vn -0.04673041 -0.88265200 -0.46769832
vn -0.75043408 -0.57268057 0.32997825
vn -0.75043408 -0.57268057 0.32997825
vn -0.75043408 -0.57268057 0.32997825
vn -0.30553314 -0.82216990 0.48029798
vn -0.30553314 -0.82216990 0.48029798
vn -0.30553314 -0.82216990 0.48029798
vn -0.42391288 -0.64678582 0.63400787
vn -0.42391288 -0.64678582 0.63400787
vn -0.42391288 -0.64678582 0.63400787
vn -0.20917055 -0.97724871 0.03510908
vn -0.20917055 -0.97724871 0.03510908
vn -0.20917055 -0.97724871 0.03510908
vn -0.64594803 -0.74805567 0.15219676
vn -0.64594803 -0.74805567 0.15219676
vn -0.64594803 -0.74805567 0.15219676
vn -0.61422884 -0.77626643 0.14189209
vn -0.61422884 -0.77626643 0.14189209
vn -0.61422884 -0.77626643 0.14189209
vn 0.38128438 -0.59676989 -0.70603677
vn 0.38128438 -0.59676989 -0.70603677
vn 0.38128438 -0.59676989 -0.70603677
vn 0.26726695 -0.89065142 -0.36784294
vn 0.26726695 -0.89065142 -0.36784294
vn 0.26726695 -0.89065142 -0.36784294
vn -0.02375440 -0.99705728 -0.07288701
vn -0.02375440 -0.99705728 -0.07288701
vn -0.02375440 -0.99705728 -0.07288701
vn -0.96865743 -0.24826550 0.00818634
vn -0.96865743 -0.24826550 0.00818634
vn -0.96865743 -0.24826550 0.00818634
vn 0.01490970 -0.99234636 -0.12258225
vn 0.01490970 -0.99234636 -0.12258225
vn 0.01490970 -0.99234636 -0.12258225
vn 0.52003661 -0.85102567 -0.07291933
vn 0.52003661 -0.85102567 -0.07291933
vn 0.52003661 -0.85102567 -0.07291933
vn -0.68284096 -0.67859649 -0.27061971
vn -0.68284096 -0.67859649 -0.27061971
vn -0.68284096 -0.67859649 -0.27061971
vn -0.67407021 -0.68859065 -0.26734300
vn -0.67407021 -0.68859065 -0.26734300
vn -0.67407021 -0.68859065 -0.26734300
vn 0.50576803 -0.86219413 0.02863542
vn 0.50576803 -0.86219413 0.02863542
vn 0.50576803 -0.86219413 0.02863542
vn 0.00466112 0.00010693 0.99998913
vn 0.00466112 0.00010693 0.99998913
vn 0.00466112 0.00010693 0.99998913
vn 0.83586693 -0.16311146 -0.52413845
vn 0.83586693 -0.16311146 -0.52413845
vn 0.83586693 -0.16311146 -0.52413845
vn 0.36067907 -0.08496281 0.92881211
vn 0.36067907 -0.08496281 0.92881211
vn 0.36067907 -0.08496281 0.92881211
vn 0.57311870 -0.06959468 -0.81651181
vn 0.57311870 -0.06959468 -0.81651181
vn 0.57311870 -0.06959468 -0.81651181
vn 0.53883370 -0.07747770 -0.83884173
vn 0.53883370 -0.07747770 -0.83884173
vn 0.53883370 -0.07747770 -0.83884173
vn 0.68520492 -0.08070596 0.72386515
vn 0.68520492 -0.08070596 0.72386515
vn 0.68520492 -0.08070596 0.72386515
vn 0.71667091 -0.10208723 0.68989927
vn 0.71667091 -0.10208723 0.68989927
vn 0.71667091 -0.10208723 0.68989927
vn 0.21807503 -0.06704637 -0.97362625
vn 0.21807503 -0.06704637 -0.97362625
vn 0.21807503 -0.06704637 -0.97362625
vn 0.92835548 -0.18960554 0.31969649
vn 0.92835548 -0.18960554 0.31969649
vn 0.92835548 -0.18960554 0.31969649
vn 0.94206110 -0.19234622 0.27481598
vn 0.94206110 -0.19234622 0.27481598
vn 0.94206110 -0.19234622 0.27481598
vn 0.98539876 -0.12346225 -0.11724481
vn 0.98539876 -0.12346225 -0.11724481
vn 0.98539876 -0.12346225 -0.11724481
vn 0.94523592 -0.16599314 -0.28102551
vn 0.94523592 -0.16599314 -0.28102551
vn 0.94523592 -0.16599314 -0.28102551
vn -0.43621805 0.05132596 0.89837601
vn -0.43621805 0.05132596 0.89837601
vn -0.43621805 0.05132596 0.89837601
vn -0.12125552 0.05972102 0.99082314
vn -0.12125552 0.05972102 0.99082314
vn -0.12125552 0.05972102 0.99082314
vn -0.65393231 0.55324866 -0.51603144
vn -0.65393231 0.55324866 -0.51603144
vn -0.65393231 0.55324866 -0.51603144
vn -0.79084383 -0.56735106 -0.22951866
vn -0.79084383 -0.56735106 -0.22951866
vn -0.79084383 -0.56735106 -0.22951866
vn -0.62091178 0.08099491 0.77968480
vn -0.62091178 0.08099491 0.77968480
vn -0.62091178 0.08099491 0.77968480
vn -0.73795215 0.11634337 0.66474871
vn -0.73795215 0.11634337 0.66474871
vn -0.73795215 0.11634337 0.66474871
vn -0.87979851 0.14035651 -0.45415265
vn -0.87979851 0.14035651 -0.45415265
vn -0.87979851 0.14035651 -0.45415265
vn -0.89421034 0.14532235 -0.42340203
vn -0.89421034 0.14532235 -0.42340203
vn -0.89421034 0.14532235 -0.42340203
vn 0.48633098 -0.08630340 0.86950210
vn 0.48600150 -0.08582683 0.86973346
vn 0.48554593 -0.08516828 0.87005259
vn 0.48657629 -0.08665838 0.86932953
vn 0.27666924 -0.03577628 0.96029901
vn 0.27666924 -0.03577628 0.96029901
vn 0.27666924 -0.03577628 0.96029901
vn -0.87249862 0.13943027 0.46830050
vn -0.86953413 0.14012765 0.47357643
vn -0.86993268 0.14003464 0.47287148
vn -0.87286843 0.13934237 0.46763705
vn -0.15654008 0.01996984 -0.98746970
vn -0.15654008 0.01996984 -0.98746970
vn -0.15654008 0.01996984 -0.98746970
vn -0.22878133 0.05078184 -0.97215241
vn -0.22878133 0.05078184 -0.97215241
vn -0.22878133 0.05078184 -0.97215241
vn -0.49497202 0.05407265 -0.86722479
vn -0.49497202 0.05407265 -0.86722479
vn -0.49497202 0.05407265 -0.86722479
vn -0.73260011 0.13238533 -0.66766099
vn -0.73260011 0.13238533 -0.66766099
vn -0.73260011 0.13238533 -0.66766099
vn -0.86338877 0.11226482 -0.49189068
vn -0.86338877 0.11226482 -0.49189068
vn -0.86338877 0.11226482 -0.49189068
vn -0.98085957 0.17372174 -0.08795037
vn -0.98085957 0.17372174 -0.08795037
vn -0.98085957 0.17372174 -0.08795037
vn -0.98849656 0.15097980 0.00892503
vn -0.98849656 0.15097980 0.00892503
vn -0.98849656 0.15097980 0.00892503
vn 0.39908421 -0.07096058 0.91416431
vn 0.39908421 -0.07096058 0.91416431
vn 0.39908421 -0.07096058 0.91416431
vn 0.77481691 -0.11609043 0.62143525
vn 0.77481691 -0.11609043 0.62143525
vn 0.77481691 -0.11609043 0.62143525
vn -0.83777029 -0.09045642 -0.53847802
vn -0.83777029 -0.09045642 -0.53847802
vn -0.83777029 -0.09045642 -0.53847802
vn -0.90503193 0.13747119 -0.40251569
vn -0.90503193 0.13747119 -0.40251569
vn -0.90503193 0.13747119 -0.40251569
vn -0.98610878 0.16157264 0.03851963
vn -0.98610878 0.16157264 0.03851963
vn -0.98610878 0.16157264 0.03851963
f 1//1 2//2 3//3
f 4//4 5//5 6//6
f 7//7 8//8 9//9
f 10//10 11//11 12//12
f 13//13 14//14 15//15
f 16//16 17//17 18//18
f 19//19 20//20 21//21
f 22//22 23//23 24//24
f 25//25 26//26 27//27
f 28//28 29//29 30//30
f 31//31 32//32 33//33
f 34//34 35//35 36//36
f 37//37 38//38 39//39
f 40//40 41//41 42//42
f 43//43 44//44 45//45
f 46//46 44//44 43//43
f 46//46 47//47 44//44
f 48//48 49//49 50//50
f 51//51 52//52 53//53
f 54//54 55//55 56//56
f 57//57 58//58 59//59
f 60//60 61//61 62//62
f 63//63 64//64 65//65
f 66//66 67//67 68//68
f 69//69 70//70 71//71
f 66//66 68//68 72//72
f 72//72 54//54 73//73
f 70//70 74//74 75//75
f 76//76 69//69 71//71
f 77//77 78//78 79//79
f 80//80 81//81 82//82
f 83//83 61//61 60//60
f 84//84 85//85 86//86
f 87//87 58//58 57//57
f 88//88 89//89 90//90
f 91//91 92//92 93//93
f 88//88 94//94 89//89
f 95//95 96//96 97//97
f 98//98 99//99 100//100
f 101//101 102//102 103//103
f 104//104 105//105 106//106
f 106//106 107//107 108//108
f 109//109 91//91 93//93
f 110//110 111//111 112//112
f 113//113 114//114 115//115
f 82//82 116//116 117//117
f 118//118 119//119 120//120
f 71//71 75//75 37//37
f 65//65 64//64 121//121
f 122//122 123//123 124//124
f 125//125 126//126 127//127
f 128//128 129//129 130//130
f 131//131 132//132 133//133
f 134//134 135//135 136//136
f 137//137 138//138 47//47
f 71//71 70//70 75//75
f 139//139 140//140 141//141
f 142//142 143//143 144//144
f 145//145 146//146 147//147
f 148//148 149//149 150//150
f 151//151 152//152 153//153
f 154//154 155//155 156//156
f 157//157 158//158 159//159
f 160//160 161//161 162//162
f 163//163 164//164 165//165
f 166//166 167//167 168//168
f 169//169 170//170 171//171
f 172//172 173//173 174//174
f 175//175 176//176 177//177
f 178//178 179//179 180//180
f 181//181 182//182 183//183
f 184//184 185//185 186//186
f 187//187 188//188 189//189
f 190//190 191//191 192//192
f 193//193 194//194 195//195
f 196//196 197//197 198//198
f 199//199 200//200 201//201
f 202//202 203//203 204//204
f 205//205 206//206 207//207
f 208//208 209//209 210//210
f 211//211 212//212 213//213
f 214//214 215//215 216//216
f 217//217 218//218 219//219
f 220//220 221//221 222//222
f 223//223 224//224 225//225
f 226//226 227//227 228//228
f 229//229 230//230 231//231
f 232//232 233//233 234//234
f 235//235 236//236 237//237
f 238//238 239//239 240//240
f 241//241 242//242 243//243
f 244//244 245//245 246//246
f 247//247 248//248 249//249
f 250//250 251//251 252//252
f 253//253 254//254 255//255
f 256//256 257//257 258//258
f 259//259 260//260 261//261
f 262//262 263//263 264//264
f 265//265 266//266 267//267
f 268//268 269//269 270//270
f 271//271 272//272 273//273
f 274//274 275//275 276//276
f 277//277 278//278 279//279
f 280//280 281//281 282//282
f 283//283 284//284 285//285
f 286//286 287//287 288//288
f 289//289 290//290 291//291
f 292//292 293//293 294//294
f 295//295 296//296 297//297
f 298//298 299//299 300//300
f 301//301 302//302 303//303
f 304//304 305//305 306//306
f 307//307 308//308 309//309
f 310//310 311//311 312//312
f 313//313 314//314 315//315
f 316//316 317//317 318//318
f 319//319 320//320 321//321
f 322//322 323//323 324//324
f 325//325 326//326 327//327
f 328//328 329//329 330//330
f 331//331 332//332 333//333
f 334//334 335//335 336//336
f 337//337 338//338 339//339
f 340//340 341//341 342//342
f 343//343 344//344 345//345
f 346//346 347//347 348//348
f 349//349 350//350 351//351
f 352//352 353//353 354//354
f 355//355 356//356 357//357
f 358//358 359//359 360//360
f 361//361 362//362 363//363
f 364//364 365//365 366//366
f 367//367 368//368 369//369
f 370//370 371//371 372//372
f 373//373 374//374 375//375
f 376//376 377//377 378//378
f 379//379 380//380 381//381
f 382//382 383//383 384//384
f 385//385 386//386 387//387
f 388//388 389//389 390//390
f 391//391 392//392 393//393
f 394//394 395//395 396//396
f 397//397 398//398 399//399
f 400//400 401//401 402//402
f 403//403 404//404 405//405
f 406//406 407//407 408//408
f 409//409 410//410 411//411
f 412//412 413//413 414//414
f 415//415 416//416 417//417
f 418//418 419//419 420//420
f 421//421 422//422 423//423
f 424//424 425//425 426//426
f 427//427 428//428 429//429
f 430//430 431//431 432//432
f 433//433 434//434 435//435
f 436//436 437//437 438//438
f 439//439 440//440 441//441
f 442//442 443//443 444//444
f 445//445 446//446 447//447
f 448//448 449//449 450//450
f 451//451 452//452 453//453
f 454//454 455//455 456//456
f 457//457 458//458 459//459
f 460//460 461//461 462//462
f 463//463 464//464 465//465
f 466//466 467//467 468//468
f 469//469 470//470 471//471
f 472//472 473//473 474//474
f 475//475 476//476 477//477
f 478//478 479//479 480//480
f 481//481 482//482 483//483
f 484//484 485//485 486//486
f 484//484 487//487 485//485
f 488//488 489//489 490//490
f 491//491 492//492 493//493
f 494//494 491//491 493//493
f 495//495 496//496 497//497
f 498//498 499//499 500//500
f 501//501 502//502 503//503
f 504//504 505//505 506//506
f 507//507 508//508 509//509
f 510//510 511//511 512//512
f 513//513 514//514 515//515
f 516//516 517//517 518//518
f 519//519 520//520 521//521
f 522//522 523//523 524//524
f 525//525 526//526 527//527
f 528//528 529//529 530//530
