# https://github.com/mikedh/trimesh
v -0.02650034 -0.07635426 0.03652471
v -0.02626353 -0.07625192 0.03664737
v -0.02649921 -0.07623189 0.03684788
v -0.02524000 -0.07651817 0.02908653
v -0.02641993 -0.07634878 0.02925670
v -0.02628082 -0.07621294 0.02907449
v -0.02432310 -0.07656788 0.02921253
v -0.02346640 -0.07683438 0.02983111
v -0.02524000 -0.07651817 0.02908653
v -0.02351230 -0.07665592 0.02957421
v -0.02346640 -0.07683438 0.02983111
v -0.02432310 -0.07656788 0.02921253
v -0.02822268 -0.07605779 0.03027886
v -0.02893984 -0.07588076 0.03103262
v -0.02817589 -0.07591837 0.03002727
v -0.02730160 -0.07614815 0.02947866
v -0.02822268 -0.07605779 0.03027886
v -0.02817589 -0.07591837 0.03002727
v -0.02188581 -0.07691282 0.03146398
v -0.02242064 -0.07700359 0.03085672
v -0.02246749 -0.07682210 0.03048515
v -0.02641993 -0.07634878 0.02925670
v -0.02730160 -0.07614815 0.02947866
v -0.02628082 -0.07621294 0.02907449
v -0.02188581 -0.07691282 0.03146398
v -0.02177220 -0.07711052 0.03286480
v -0.02242064 -0.07700359 0.03085672
v -0.02893984 -0.07588076 0.03103262
v -0.02934390 -0.07588171 0.03260093
v -0.02944231 -0.07567667 0.03237861
v -0.02158838 -0.07698327 0.03285580
v -0.02177220 -0.07711052 0.03286480
v -0.02188581 -0.07691282 0.03146398
v -0.02300792 -0.07681864 0.02999669
v -0.02346640 -0.07683438 0.02983111
v -0.02351230 -0.07665592 0.02957421
v -0.02300792 -0.07681864 0.02999669
v -0.02242064 -0.07700359 0.03085672
v -0.02346640 -0.07683438 0.02983111
v -0.02242064 -0.07700359 0.03085672
v -0.02300792 -0.07681864 0.02999669
v -0.02246749 -0.07682210 0.03048515
v -0.02180469 -0.07704019 0.03411877
v -0.02177220 -0.07711052 0.03286480
v -0.02158838 -0.07698327 0.03285580
v -0.02221286 -0.07690358 0.03510779
v -0.02273356 -0.07696855 0.03547430
v -0.02180469 -0.07704019 0.03411877
v -0.02368861 -0.07677882 0.03638416
v -0.02273356 -0.07696855 0.03547430
v -0.02261066 -0.07683682 0.03564745
v -0.02353656 -0.07662147 0.03647333
v -0.02368861 -0.07677882 0.03638416
v -0.02261066 -0.07683682 0.03564745
v -0.02368861 -0.07677882 0.03638416
v -0.02461665 -0.07645452 0.03686296
v -0.02464067 -0.07664209 0.03668439
v -0.02353656 -0.07662147 0.03647333
v -0.02461665 -0.07645452 0.03686296
v -0.02368861 -0.07677882 0.03638416
v -0.02261066 -0.07683682 0.03564745
v -0.02273356 -0.07696855 0.03547430
v -0.02221286 -0.07690358 0.03510779
v -0.02169483 -0.06821912 0.03622955
v -0.02461665 -0.07645452 0.03686296
v -0.02353656 -0.07662147 0.03647333
v -0.02337175 -0.06794756 0.03683453
v -0.02169483 -0.06821912 0.03622955
v -0.02353656 -0.07662147 0.03647333
v -0.02261066 -0.07683682 0.03564745
v -0.02169483 -0.06821912 0.03622955
v -0.02261066 -0.07683682 0.03564745
v -0.02221286 -0.07690358 0.03510779
v -0.02033889 -0.06843876 0.03419268
v -0.02169483 -0.06821912 0.03622955
v -0.02221286 -0.07690358 0.03510779
v -0.02033889 -0.06843876 0.03419268
v -0.02221286 -0.07690358 0.03510779
v -0.02180469 -0.07704019 0.03411877
v -0.02033889 -0.06843876 0.03419268
v -0.02180469 -0.07704019 0.03411877
v -0.02158838 -0.07698327 0.03285580
v -0.02035075 -0.06843686 0.03162199
v -0.02033889 -0.06843876 0.03419268
v -0.02158838 -0.07698327 0.03285580
v -0.02656418 -0.06743049 0.02980202
v -0.02730160 -0.07614815 0.02947866
v -0.02817589 -0.07591837 0.03002727
v -0.02656418 -0.06743049 0.02980202
v -0.02454882 -0.06775683 0.02893579
v -0.02730160 -0.07614815 0.02947866
v -0.02035075 -0.06843686 0.03162199
v -0.02158838 -0.07698327 0.03285580
v -0.02188581 -0.07691282 0.03146398
v -0.02789485 -0.06721496 0.03149873
v -0.02817589 -0.07591837 0.03002727
v -0.02893984 -0.07588076 0.03103262
v -0.02789485 -0.06721496 0.03149873
v -0.02656418 -0.06743049 0.02980202
v -0.02817589 -0.07591837 0.03002727
v -0.02035075 -0.06843686 0.03162199
v -0.02188581 -0.07691282 0.03146398
v -0.02246749 -0.07682210 0.03048515
v -0.02789485 -0.06721496 0.03149873
v -0.02893984 -0.07588076 0.03103262
v -0.02944231 -0.07567667 0.03237861
v -0.02204370 -0.06816262 0.02955377
v -0.02035075 -0.06843686 0.03162199
v -0.02246749 -0.07682210 0.03048515
v -0.02204370 -0.06816262 0.02955377
v -0.02246749 -0.07682210 0.03048515
v -0.02300792 -0.07681864 0.02999669
v -0.02807307 -0.06718611 0.03365725
v -0.02789485 -0.06721496 0.03149873
v -0.02944231 -0.07567667 0.03237861
v -0.02204370 -0.06816262 0.02955377
v -0.02300792 -0.07681864 0.02999669
v -0.02351230 -0.07665592 0.02957421
v -0.02204370 -0.06816262 0.02955377
v -0.02351230 -0.07665592 0.02957421
v -0.02432310 -0.07656788 0.02921253
v -0.02454882 -0.06775683 0.02893579
v -0.02432310 -0.07656788 0.02921253
v -0.02524000 -0.07651817 0.02908653
v -0.02454882 -0.06775683 0.02893579
v -0.02204370 -0.06816262 0.02955377
v -0.02432310 -0.07656788 0.02921253
v -0.02454882 -0.06775683 0.02893579
v -0.02524000 -0.07651817 0.02908653
v -0.02628082 -0.07621294 0.02907449
v -0.02454882 -0.06775683 0.02893579
v -0.02628082 -0.07621294 0.02907449
v -0.02730160 -0.07614815 0.02947866
v -0.02724504 -0.07623457 0.03496152
v -0.02662914 -0.07633239 0.03497076
v -0.02702921 -0.07586038 0.03514355
v -0.02662914 -0.07633239 0.03497076
v -0.02635890 -0.07637709 0.03557848
v -0.02654379 -0.07592439 0.03536528
v -0.02724504 -0.07623457 0.03496152
v -0.02702921 -0.07586038 0.03514355
v -0.02758187 -0.07617902 0.03546929
v -0.02758187 -0.07617902 0.03546929
v -0.02702921 -0.07586038 0.03514355
v -0.02728456 -0.07582151 0.03548187
v -0.02662914 -0.07633239 0.03497076
v -0.02654379 -0.07592439 0.03536528
v -0.02702921 -0.07586038 0.03514355
v -0.02625548 -0.07436907 0.03562241
v -0.02649879 -0.07432967 0.03515923
v -0.02654379 -0.07592439 0.03536528
v -0.02654379 -0.07592439 0.03536528
v -0.02649879 -0.07432967 0.03515923
v -0.02702921 -0.07586038 0.03514355
v -0.02649879 -0.07432967 0.03515923
v -0.02704954 -0.07424050 0.03537058
v -0.02702921 -0.07586038 0.03514355
v -0.02702921 -0.07586038 0.03514355
v -0.02704954 -0.07424050 0.03537058
v -0.02728456 -0.07582151 0.03548187
v -0.02777171 -0.07572549 0.03396832
v -0.02766364 -0.07616674 0.03380393
v -0.02763557 -0.07617080 0.03440809
v -0.02882522 -0.07597351 0.03399115
v -0.02825713 -0.07566154 0.03374660
v -0.02851223 -0.07562261 0.03408515
v -0.02819401 -0.07608026 0.03350836
v -0.02825713 -0.07566154 0.03374660
v -0.02882522 -0.07597351 0.03399115
v -0.02766364 -0.07616674 0.03380393
v -0.02777171 -0.07572549 0.03396832
v -0.02819401 -0.07608026 0.03350836
v -0.02819401 -0.07608026 0.03350836
v -0.02777171 -0.07572549 0.03396832
v -0.02825713 -0.07566154 0.03374660
v -0.02777171 -0.07572549 0.03396832
v -0.02795952 -0.07409310 0.03373008
v -0.02825713 -0.07566154 0.03374660
v -0.02746355 -0.07417345 0.03407621
v -0.02795952 -0.07409310 0.03373008
v -0.02777171 -0.07572549 0.03396832
v -0.02825713 -0.07566154 0.03374660
v -0.02827715 -0.07404160 0.03428030
v -0.02851223 -0.07562261 0.03408515
v -0.02795952 -0.07409310 0.03373008
v -0.02827715 -0.07404160 0.03428030
v -0.02825713 -0.07566154 0.03374660
v -0.02864325 -0.07560145 0.03230375
v -0.02890777 -0.07595515 0.03189790
v -0.02849555 -0.07561141 0.03194886
v -0.02890777 -0.07595515 0.03189790
v -0.02797985 -0.07611417 0.03171092
v -0.02849555 -0.07561141 0.03194886
v -0.02849555 -0.07561141 0.03194886
v -0.02797985 -0.07611417 0.03171092
v -0.02803659 -0.07568728 0.03194320
v -0.02797985 -0.07611417 0.03171092
v -0.02771759 -0.07615703 0.03231608
v -0.02803659 -0.07568728 0.03194320
v -0.02803659 -0.07568728 0.03194320
v -0.02771759 -0.07615703 0.03231608
v -0.02789765 -0.07571101 0.03241610
v -0.02789765 -0.07571101 0.03241610
v -0.02773219 -0.07412993 0.03194451
v -0.02803659 -0.07568728 0.03194320
v -0.02803659 -0.07568728 0.03194320
v -0.02773219 -0.07412993 0.03194451
v -0.02849555 -0.07561141 0.03194886
v -0.02773219 -0.07412993 0.03194451
v -0.02840811 -0.07402044 0.03210824
v -0.02849555 -0.07561141 0.03194886
v -0.02849555 -0.07561141 0.03194886
v -0.02840811 -0.07402044 0.03210824
v -0.02864325 -0.07560145 0.03230375
v -0.02502638 -0.07659381 0.02977693
v -0.02526193 -0.07614314 0.02978545
v -0.02555668 -0.07650727 0.02948123
v -0.02587491 -0.07604980 0.03014189
v -0.02612352 -0.07641565 0.02981919
v -0.02572727 -0.07605975 0.02978718
v -0.02512902 -0.07615935 0.03025448
v -0.02502638 -0.07659381 0.02977693
v -0.02499783 -0.07659798 0.03038078
v -0.02526193 -0.07614314 0.02978545
v -0.02502638 -0.07659381 0.02977693
v -0.02512902 -0.07615935 0.03025448
v -0.02555668 -0.07650727 0.02948123
v -0.02572727 -0.07605975 0.02978718
v -0.02612352 -0.07641565 0.02981919
v -0.02572727 -0.07605975 0.02978718
v -0.02555668 -0.07650727 0.02948123
v -0.02526193 -0.07614314 0.02978545
v -0.02493631 -0.07458269 0.03037333
v -0.02491855 -0.07458561 0.02989083
v -0.02512902 -0.07615935 0.03025448
v -0.02512902 -0.07615935 0.03025448
v -0.02491855 -0.07458561 0.02989083
v -0.02526193 -0.07614314 0.02978545
v -0.02491855 -0.07458561 0.02989083
v -0.02537173 -0.07451224 0.02970552
v -0.02526193 -0.07614314 0.02978545
v -0.02526193 -0.07614314 0.02978545
v -0.02537173 -0.07451224 0.02970552
v -0.02572727 -0.07605975 0.02978718
v -0.02572727 -0.07605975 0.02978718
v -0.02559185 -0.07447654 0.03034538
v -0.02587491 -0.07604980 0.03014189
v -0.02537173 -0.07451224 0.02970552
v -0.02559185 -0.07447654 0.03034538
v -0.02572727 -0.07605975 0.02978718
v -0.02318483 -0.07688701 0.03056699
v -0.02352118 -0.07641768 0.03038448
v -0.02381724 -0.07678902 0.03008431
v -0.02437585 -0.07669878 0.03098392
v -0.02434772 -0.07670378 0.03038001
v -0.02412724 -0.07633286 0.03074496
v -0.02412724 -0.07633286 0.03074496
v -0.02434772 -0.07670378 0.03038001
v -0.02399045 -0.07634967 0.03039622
v -0.02352118 -0.07641768 0.03038448
v -0.02318483 -0.07688701 0.03056699
v -0.02338165 -0.07644242 0.03085762
v -0.02381724 -0.07678902 0.03008431
v -0.02399045 -0.07634967 0.03039622
v -0.02434772 -0.07670378 0.03038001
v -0.02381724 -0.07678902 0.03008431
v -0.02352118 -0.07641768 0.03038448
v -0.02399045 -0.07634967 0.03039622
v -0.02338165 -0.07644242 0.03085762
v -0.02325958 -0.07485431 0.03038585
v -0.02352118 -0.07641768 0.03038448
v -0.02314931 -0.07487219 0.03094375
v -0.02325958 -0.07485431 0.03038585
v -0.02338165 -0.07644242 0.03085762
v -0.02352118 -0.07641768 0.03038448
v -0.02384442 -0.07475960 0.03045773
v -0.02399045 -0.07634967 0.03039622
v -0.02325958 -0.07485431 0.03038585
v -0.02384442 -0.07475960 0.03045773
v -0.02352118 -0.07641768 0.03038448
v -0.02399045 -0.07634967 0.03039622
v -0.02384442 -0.07475960 0.03045773
v -0.02412724 -0.07633286 0.03074496
v -0.02310651 -0.07649821 0.03230375
v -0.02340394 -0.07685583 0.03220689
v -0.02295893 -0.07650816 0.03194886
v -0.02306675 -0.07691127 0.03169912
v -0.02245146 -0.07700836 0.03170853
v -0.02295893 -0.07650816 0.03194886
v -0.02245146 -0.07700836 0.03170853
v -0.02221024 -0.07704079 0.03262537
v -0.02249372 -0.07659149 0.03194689
v -0.02249372 -0.07659149 0.03194689
v -0.02221024 -0.07704079 0.03262537
v -0.02236092 -0.07660776 0.03241610
v -0.02306675 -0.07691127 0.03169912
v -0.02295893 -0.07650816 0.03194886
v -0.02340394 -0.07685583 0.03220689
v -0.02295893 -0.07650816 0.03194886
v -0.02245146 -0.07700836 0.03170853
v -0.02249372 -0.07659149 0.03194689
v -0.02236092 -0.07660776 0.03241610
v -0.02213490 -0.07503646 0.03204435
v -0.02249372 -0.07659149 0.03194689
v -0.02213490 -0.07503646 0.03204435
v -0.02280098 -0.07492858 0.03196710
v -0.02249372 -0.07659149 0.03194689
v -0.02249372 -0.07659149 0.03194689
v -0.02280098 -0.07492858 0.03196710
v -0.02295893 -0.07650816 0.03194886
v -0.02295893 -0.07650816 0.03194886
v -0.02280098 -0.07492858 0.03196710
v -0.02310651 -0.07649821 0.03230375
v -0.02229470 -0.07703119 0.03399115
v -0.02263104 -0.07656180 0.03380841
v -0.02292734 -0.07693332 0.03350836
v -0.02348572 -0.07684290 0.03440809
v -0.02345782 -0.07684797 0.03380393
v -0.02323710 -0.07647705 0.03416913
v -0.02323710 -0.07647705 0.03416913
v -0.02345782 -0.07684797 0.03380393
v -0.02310055 -0.07649385 0.03382039
v -0.02263104 -0.07656180 0.03380841
v -0.02229470 -0.07703119 0.03399115
v -0.02249169 -0.07658654 0.03428173
v -0.02292734 -0.07693332 0.03350836
v -0.02310055 -0.07649385 0.03382039
v -0.02345782 -0.07684797 0.03380393
v -0.02292734 -0.07693332 0.03350836
v -0.02263104 -0.07656180 0.03380841
v -0.02310055 -0.07649385 0.03382039
v -0.02249169 -0.07658654 0.03428173
v -0.02216476 -0.07503163 0.03418099
v -0.02263104 -0.07656180 0.03380841
v -0.02216476 -0.07503163 0.03418099
v -0.02259016 -0.07496273 0.03373926
v -0.02263104 -0.07656180 0.03380841
v -0.02263104 -0.07656180 0.03380841
v -0.02259016 -0.07496273 0.03373926
v -0.02310055 -0.07649385 0.03382039
v -0.02259016 -0.07496273 0.03373926
v -0.02298069 -0.07489943 0.03398209
v -0.02310055 -0.07649385 0.03382039
v -0.02310055 -0.07649385 0.03382039
v -0.02298069 -0.07489943 0.03398209
v -0.02323710 -0.07647705 0.03416913
v -0.02446526 -0.07627815 0.03556615
v -0.02479368 -0.07664406 0.03569841
v -0.02431762 -0.07628810 0.03521126
v -0.02371937 -0.07638770 0.03567826
v -0.02361667 -0.07682216 0.03520089
v -0.02358824 -0.07682609 0.03580451
v -0.02385228 -0.07637143 0.03520923
v -0.02361667 -0.07682216 0.03520089
v -0.02371937 -0.07638770 0.03567826
v -0.02428436 -0.07671195 0.03489071
v -0.02431762 -0.07628810 0.03521126
v -0.02479368 -0.07664406 0.03569841
v -0.02431762 -0.07628810 0.03521126
v -0.02428436 -0.07671195 0.03489071
v -0.02385228 -0.07637143 0.03520923
v -0.02361667 -0.07682216 0.03520089
v -0.02385228 -0.07637143 0.03520923
v -0.02428436 -0.07671195 0.03489071
v -0.02358692 -0.07480126 0.03588265
v -0.02358520 -0.07480156 0.03519088
v -0.02371937 -0.07638770 0.03567826
v -0.02371937 -0.07638770 0.03567826
v -0.02358520 -0.07480156 0.03519088
v -0.02385228 -0.07637143 0.03520923
v -0.02385228 -0.07637143 0.03520923
v -0.02358520 -0.07480156 0.03519088
v -0.02431762 -0.07628810 0.03521126
v -0.02358520 -0.07480156 0.03519088
v -0.02407521 -0.07472223 0.03522479
v -0.02431762 -0.07628810 0.03521126
v -0.02431762 -0.07628810 0.03521126
v -0.02420878 -0.07470059 0.03566879
v -0.02446526 -0.07627815 0.03556615
v -0.02407521 -0.07472223 0.03522479
v -0.02420878 -0.07470059 0.03566879
v -0.02431762 -0.07628810 0.03521126
v -0.02399170 -0.07675731 0.03231394
v -0.02432781 -0.07628798 0.03213155
v -0.02462482 -0.07665860 0.03182965
v -0.02487391 -0.07616627 0.03221583
v -0.02462482 -0.07665860 0.03182965
v -0.02432781 -0.07628798 0.03213155
v -0.02432781 -0.07628798 0.03213155
v -0.02399170 -0.07675731 0.03231394
v -0.02417469 -0.07633304 0.03249323
v -0.02462482 -0.07665860 0.03182965
v -0.02487391 -0.07616627 0.03221583
v -0.02518314 -0.07656794 0.03216922
v -0.02458328 -0.07463991 0.03277307
v -0.02487391 -0.07616627 0.03221583
v -0.02458328 -0.07463991 0.03217667
v -0.02458328 -0.07463991 0.03217667
v -0.02487391 -0.07616627 0.03221583
v -0.02397871 -0.07473784 0.03216075
v -0.02487391 -0.07616627 0.03221583
v -0.02432781 -0.07628798 0.03213155
v -0.02397871 -0.07473784 0.03216075
v -0.02432781 -0.07628798 0.03213155
v -0.02417469 -0.07633304 0.03249323
v -0.02397871 -0.07473784 0.03216075
v -0.02581721 -0.07602280 0.03434062
v -0.02612358 -0.07641577 0.03381896
v -0.02572727 -0.07605975 0.03378719
v -0.02515643 -0.07614815 0.03386849
v -0.02502632 -0.07659387 0.03377676
v -0.02499783 -0.07659798 0.03438079
v -0.02555668 -0.07650750 0.03348106
v -0.02572727 -0.07605975 0.03378719
v -0.02612358 -0.07641577 0.03381896
v -0.02572727 -0.07605975 0.03378719
v -0.02555668 -0.07650750 0.03348106
v -0.02515643 -0.07614815 0.03386849
v -0.02502632 -0.07659387 0.03377676
v -0.02515643 -0.07614815 0.03386849
v -0.02555668 -0.07650750 0.03348106
v -0.02581721 -0.07602280 0.03434062
v -0.02572727 -0.07605975 0.03378719
v -0.02564316 -0.07446825 0.03418374
v -0.02564316 -0.07446825 0.03418374
v -0.02572727 -0.07605975 0.03378719
v -0.02536588 -0.07451313 0.03372490
v -0.02572727 -0.07605975 0.03378719
v -0.02515643 -0.07614815 0.03386849
v -0.02536588 -0.07451313 0.03372490
v -0.02536588 -0.07451313 0.03372490
v -0.02515643 -0.07614815 0.03386849
v -0.02490347 -0.07458806 0.03388243
v -0.02596670 -0.07644152 0.03212690
v -0.02606964 -0.07600706 0.03229540
v -0.02650547 -0.07635402 0.03182965
v -0.02650547 -0.07635402 0.03182965
v -0.02606964 -0.07600706 0.03229540
v -0.02655184 -0.07593190 0.03206795
v -0.02606964 -0.07600706 0.03229540
v -0.02596670 -0.07644152 0.03212690
v -0.02593839 -0.07644575 0.03273057
v -0.02706390 -0.07626336 0.03216916
v -0.02655184 -0.07593190 0.03206795
v -0.02681523 -0.07589751 0.03240782
v -0.02650547 -0.07635402 0.03182965
v -0.02655184 -0.07593190 0.03206795
v -0.02706390 -0.07626336 0.03216916
v -0.02681523 -0.07589751 0.03240782
v -0.02655184 -0.07593190 0.03206795
v -0.02656382 -0.07431918 0.03235453
v -0.02656382 -0.07431918 0.03235453
v -0.02655184 -0.07593190 0.03206795
v -0.02611619 -0.07439166 0.03203922
v -0.02655184 -0.07593190 0.03206795
v -0.02606964 -0.07600706 0.03229540
v -0.02611619 -0.07439166 0.03203922
v -0.02611619 -0.07439166 0.03203922
v -0.02606964 -0.07600706 0.03229540
v -0.02579349 -0.07444393 0.03244996
v -0.02687674 -0.07587629 0.03054863
v -0.02677381 -0.07631075 0.03038007
v -0.02674543 -0.07631492 0.03098386
v -0.02787101 -0.07613241 0.03042227
v -0.02735888 -0.07580113 0.03032106
v -0.02762252 -0.07576674 0.03066074
v -0.02731281 -0.07622313 0.03008288
v -0.02735888 -0.07580113 0.03032106
v -0.02787101 -0.07613241 0.03042227
v -0.02677381 -0.07631075 0.03038007
v -0.02687674 -0.07587629 0.03054863
v -0.02731281 -0.07622313 0.03008288
v -0.02731281 -0.07622313 0.03008288
v -0.02687674 -0.07587629 0.03054863
v -0.02735888 -0.07580113 0.03032106
v -0.02687674 -0.07587629 0.03054863
v -0.02668422 -0.07429969 0.03042972
v -0.02735888 -0.07580113 0.03032106
v -0.02668422 -0.07429969 0.03042972
v -0.02728509 -0.07420229 0.03041505
v -0.02735888 -0.07580113 0.03032106
v -0.02735888 -0.07580113 0.03032106
v -0.02728509 -0.07420229 0.03041505
v -0.02762252 -0.07576674 0.03066074
v -0.02728509 -0.07420229 0.03041505
v -0.02722430 -0.07421219 0.03104871
v -0.02762252 -0.07576674 0.03066074
v -0.02762252 -0.07576674 0.03066074
v -0.02722430 -0.07421219 0.03104871
v -0.02748548 -0.07578361 0.03100997
v -0.02748548 -0.07578361 0.03100997
v -0.02722430 -0.07421219 0.03104871
v -0.02701646 -0.07585155 0.03102171
v -0.02722430 -0.07421219 0.03104871
v -0.02668666 -0.07429921 0.03095448
v -0.02701646 -0.07585155 0.03102171
v -0.02701646 -0.07585155 0.03102171
v -0.02668666 -0.07429921 0.03095448
v -0.02687674 -0.07587629 0.03054863
v -0.02668666 -0.07429921 0.03095448
v -0.02668422 -0.07429969 0.03042972
v -0.02687674 -0.07587629 0.03054863
v -0.02784276 -0.07613760 0.03102618
v -0.02748548 -0.07578361 0.03100997
v -0.02731227 -0.07622313 0.03132200
v -0.02687674 -0.07587629 0.03054863
v -0.02674543 -0.07631492 0.03098386
v -0.02701646 -0.07585155 0.03102171
v -0.02762252 -0.07576674 0.03066074
v -0.02784276 -0.07613760 0.03102618
v -0.02787101 -0.07613241 0.03042227
v -0.02748548 -0.07578361 0.03100997
v -0.02784276 -0.07613760 0.03102618
v -0.02762252 -0.07576674 0.03066074
v -0.02731227 -0.07622313 0.03132200
v -0.02701646 -0.07585155 0.03102171
v -0.02674543 -0.07631492 0.03098386
v -0.02701646 -0.07585155 0.03102171
v -0.02731227 -0.07622313 0.03132200
v -0.02748548 -0.07578361 0.03100997
v -0.02579349 -0.07444393 0.03244996
v -0.02620917 -0.07598233 0.03276830
v -0.02621668 -0.07437539 0.03288853
v -0.02606964 -0.07600706 0.03229540
v -0.02620917 -0.07598233 0.03276830
v -0.02579349 -0.07444393 0.03244996
v -0.02620917 -0.07598233 0.03276830
v -0.02667850 -0.07591432 0.03275686
v -0.02621668 -0.07437539 0.03288853
v -0.02621668 -0.07437539 0.03288853
v -0.02667850 -0.07591432 0.03275686
v -0.02656382 -0.07431918 0.03235453
v -0.02667850 -0.07591432 0.03275686
v -0.02681523 -0.07589751 0.03240782
v -0.02656382 -0.07431918 0.03235453
v -0.02606964 -0.07600706 0.03229540
v -0.02593839 -0.07644575 0.03273057
v -0.02620917 -0.07598233 0.03276830
v -0.02681523 -0.07589751 0.03240782
v -0.02703571 -0.07626843 0.03277283
v -0.02706390 -0.07626336 0.03216916
v -0.02667850 -0.07591432 0.03275686
v -0.02703571 -0.07626843 0.03277283
v -0.02681523 -0.07589751 0.03240782
v -0.02650529 -0.07635390 0.03306889
v -0.02620917 -0.07598233 0.03276830
v -0.02593839 -0.07644575 0.03273057
v -0.02620917 -0.07598233 0.03276830
v -0.02650529 -0.07635390 0.03306889
v -0.02667850 -0.07591432 0.03275686
v -0.02703571 -0.07626843 0.03277283
v -0.02667850 -0.07591432 0.03275686
v -0.02650529 -0.07635390 0.03306889
v -0.02490347 -0.07458806 0.03388243
v -0.02515643 -0.07614815 0.03386849
v -0.02505970 -0.07456278 0.03448629
v -0.02515643 -0.07614815 0.03386849
v -0.02526170 -0.07613521 0.03441274
v -0.02505970 -0.07456278 0.03448629
v -0.02526170 -0.07613521 0.03441274
v -0.02581721 -0.07602280 0.03434062
v -0.02505970 -0.07456278 0.03448629
v -0.02505970 -0.07456278 0.03448629
v -0.02581721 -0.07602280 0.03434062
v -0.02564316 -0.07446825 0.03418374
v -0.02515643 -0.07614815 0.03386849
v -0.02499783 -0.07659798 0.03438079
v -0.02526170 -0.07613521 0.03441274
v -0.02526170 -0.07613521 0.03441274
v -0.02555644 -0.07650774 0.03472030
v -0.02581721 -0.07602280 0.03434062
v -0.02581721 -0.07602280 0.03434062
v -0.02609539 -0.07642066 0.03442305
v -0.02612358 -0.07641577 0.03381896
v -0.02555644 -0.07650774 0.03472030
v -0.02526170 -0.07613521 0.03441274
v -0.02499783 -0.07659798 0.03438079
v -0.02609539 -0.07642066 0.03442305
v -0.02581721 -0.07602280 0.03434062
v -0.02555644 -0.07650774 0.03472030
v -0.02397871 -0.07473784 0.03216075
v -0.02417469 -0.07633304 0.03249323
v -0.02403694 -0.07472842 0.03273123
v -0.02417469 -0.07633304 0.03249323
v -0.02437615 -0.07628911 0.03279107
v -0.02403694 -0.07472842 0.03273123
v -0.02403694 -0.07472842 0.03273123
v -0.02437615 -0.07628911 0.03279107
v -0.02458328 -0.07463991 0.03277307
v -0.02437615 -0.07628911 0.03279107
v -0.02479749 -0.07621896 0.03275686
v -0.02458328 -0.07463991 0.03277307
v -0.02479749 -0.07621896 0.03275686
v -0.02487391 -0.07616627 0.03221583
v -0.02458328 -0.07463991 0.03277307
v -0.02487391 -0.07616627 0.03221583
v -0.02515476 -0.07657301 0.03277283
v -0.02518314 -0.07656794 0.03216922
v -0.02479749 -0.07621896 0.03275686
v -0.02515476 -0.07657301 0.03277283
v -0.02487391 -0.07616627 0.03221583
v -0.02448666 -0.07667917 0.03308326
v -0.02437615 -0.07628911 0.03279107
v -0.02399170 -0.07675731 0.03231394
v -0.02399170 -0.07675731 0.03231394
v -0.02437615 -0.07628911 0.03279107
v -0.02417469 -0.07633304 0.03249323
v -0.02437615 -0.07628911 0.03279107
v -0.02448666 -0.07667917 0.03308326
v -0.02479749 -0.07621896 0.03275686
v -0.02515476 -0.07657301 0.03277283
v -0.02479749 -0.07621896 0.03275686
v -0.02448666 -0.07667917 0.03308326
v -0.02446526 -0.07627815 0.03556615
v -0.02420878 -0.07470059 0.03566879
v -0.02419745 -0.07630330 0.03590720
v -0.02420878 -0.07470059 0.03566879
v -0.02358692 -0.07480126 0.03588265
v -0.02419745 -0.07630330 0.03590720
v -0.02419745 -0.07630330 0.03590720
v -0.02358692 -0.07480126 0.03588265
v -0.02371937 -0.07638770 0.03567826
v -0.02479368 -0.07664406 0.03569841
v -0.02419745 -0.07630330 0.03590720
v -0.02415657 -0.07673406 0.03614157
v -0.02479368 -0.07664406 0.03569841
v -0.02446526 -0.07627815 0.03556615
v -0.02419745 -0.07630330 0.03590720
v -0.02415657 -0.07673406 0.03614157
v -0.02371937 -0.07638770 0.03567826
v -0.02358824 -0.07682609 0.03580451
v -0.02415657 -0.07673406 0.03614157
v -0.02419745 -0.07630330 0.03590720
v -0.02371937 -0.07638770 0.03567826
v -0.02323710 -0.07647705 0.03416913
v -0.02277565 -0.07493269 0.03449285
v -0.02297025 -0.07650291 0.03451037
v -0.02298069 -0.07489943 0.03398209
v -0.02277565 -0.07493269 0.03449285
v -0.02323710 -0.07647705 0.03416913
v -0.02297025 -0.07650291 0.03451037
v -0.02216476 -0.07503163 0.03418099
v -0.02249169 -0.07658654 0.03428173
v -0.02277565 -0.07493269 0.03449285
v -0.02216476 -0.07503163 0.03418099
v -0.02297025 -0.07650291 0.03451037
v -0.02348572 -0.07684290 0.03440809
v -0.02323710 -0.07647705 0.03416913
v -0.02297025 -0.07650291 0.03451037
v -0.02278923 -0.07695376 0.03476023
v -0.02249169 -0.07658654 0.03428173
v -0.02229470 -0.07703119 0.03399115
v -0.02278923 -0.07695376 0.03476023
v -0.02297025 -0.07650291 0.03451037
v -0.02249169 -0.07658654 0.03428173
v -0.02348572 -0.07684290 0.03440809
v -0.02297025 -0.07650291 0.03451037
v -0.02278923 -0.07695376 0.03476023
v -0.02310651 -0.07649821 0.03230375
v -0.02271664 -0.07494229 0.03256088
v -0.02283895 -0.07652336 0.03264480
v -0.02280098 -0.07492858 0.03196710
v -0.02271664 -0.07494229 0.03256088
v -0.02310651 -0.07649821 0.03230375
v -0.02271664 -0.07494229 0.03256088
v -0.02224165 -0.07501918 0.03260082
v -0.02283895 -0.07652336 0.03264480
v -0.02283895 -0.07652336 0.03264480
v -0.02224165 -0.07501918 0.03260082
v -0.02236092 -0.07660776 0.03241610
v -0.02224165 -0.07501918 0.03260082
v -0.02213490 -0.07503646 0.03204435
v -0.02236092 -0.07660776 0.03241610
v -0.02312988 -0.07689887 0.03281760
v -0.02310651 -0.07649821 0.03230375
v -0.02283895 -0.07652336 0.03264480
v -0.02221024 -0.07704079 0.03262537
v -0.02312988 -0.07689887 0.03281760
v -0.02283895 -0.07652336 0.03264480
v -0.02312988 -0.07689887 0.03281760
v -0.02340394 -0.07685583 0.03220689
v -0.02310651 -0.07649821 0.03230375
v -0.02221024 -0.07704079 0.03262537
v -0.02283895 -0.07652336 0.03264480
v -0.02236092 -0.07660776 0.03241610
v -0.02412724 -0.07633286 0.03074496
v -0.02370345 -0.07478243 0.03103697
v -0.02386045 -0.07635879 0.03108626
v -0.02384442 -0.07475960 0.03045773
v -0.02370345 -0.07478243 0.03103697
v -0.02412724 -0.07633286 0.03074496
v -0.02370345 -0.07478243 0.03103697
v -0.02314931 -0.07487219 0.03094375
v -0.02386045 -0.07635879 0.03108626
v -0.02386045 -0.07635879 0.03108626
v -0.02314931 -0.07487219 0.03094375
v -0.02338165 -0.07644242 0.03085762
v -0.02437585 -0.07669878 0.03098392
v -0.02412724 -0.07633286 0.03074496
v -0.02386045 -0.07635879 0.03108626
v -0.02367937 -0.07680994 0.03133618
v -0.02338165 -0.07644242 0.03085762
v -0.02318483 -0.07688701 0.03056699
v -0.02367937 -0.07680994 0.03133618
v -0.02386045 -0.07635879 0.03108626
v -0.02338165 -0.07644242 0.03085762
v -0.02437585 -0.07669878 0.03098392
v -0.02386045 -0.07635879 0.03108626
v -0.02367937 -0.07680994 0.03133618
v -0.02587491 -0.07604980 0.03014189
v -0.02559185 -0.07447654 0.03034538
v -0.02560710 -0.07607495 0.03048336
v -0.02559185 -0.07447654 0.03034538
v -0.02493631 -0.07458269 0.03037333
v -0.02560710 -0.07607495 0.03048336
v -0.02560710 -0.07607495 0.03048336
v -0.02493631 -0.07458269 0.03037333
v -0.02512902 -0.07615935 0.03025448
v -0.02609539 -0.07642072 0.03042304
v -0.02587491 -0.07604980 0.03014189
v -0.02560710 -0.07607495 0.03048336
v -0.02587491 -0.07604980 0.03014189
v -0.02609539 -0.07642072 0.03042304
v -0.02612352 -0.07641565 0.02981919
v -0.02556622 -0.07650589 0.03071761
v -0.02512902 -0.07615935 0.03025448
v -0.02499783 -0.07659798 0.03038078
v -0.02556622 -0.07650589 0.03071761
v -0.02560710 -0.07607495 0.03048336
v -0.02512902 -0.07615935 0.03025448
v -0.02609539 -0.07642072 0.03042304
v -0.02560710 -0.07607495 0.03048336
v -0.02556622 -0.07650589 0.03071761
v -0.02864325 -0.07560145 0.03230375
v -0.02840811 -0.07402044 0.03210824
v -0.02837646 -0.07562738 0.03264451
v -0.02840811 -0.07402044 0.03210824
v -0.02809011 -0.07407194 0.03265833
v -0.02837646 -0.07562738 0.03264451
v -0.02837646 -0.07562738 0.03264451
v -0.02809011 -0.07407194 0.03265833
v -0.02789765 -0.07571101 0.03241610
v -0.02809011 -0.07407194 0.03265833
v -0.02768689 -0.07413727 0.03247076
v -0.02789765 -0.07571101 0.03241610
v -0.02768689 -0.07413727 0.03247076
v -0.02773219 -0.07412993 0.03194451
v -0.02789765 -0.07571101 0.03241610
v -0.02866965 -0.07600164 0.03281468
v -0.02864325 -0.07560145 0.03230375
v -0.02837646 -0.07562738 0.03264451
v -0.02805477 -0.07610338 0.03282392
v -0.02866965 -0.07600164 0.03281468
v -0.02837646 -0.07562738 0.03264451
v -0.02866965 -0.07600164 0.03281468
v -0.02890777 -0.07595515 0.03189790
v -0.02864325 -0.07560145 0.03230375
v -0.02805477 -0.07610338 0.03282392
v -0.02789765 -0.07571101 0.03241610
v -0.02771759 -0.07615703 0.03231608
v -0.02805477 -0.07610338 0.03282392
v -0.02837646 -0.07562738 0.03264451
v -0.02789765 -0.07571101 0.03241610
v -0.02851223 -0.07562261 0.03408515
v -0.02827715 -0.07404160 0.03428030
v -0.02836459 -0.07563257 0.03444004
v -0.02836459 -0.07563257 0.03444004
v -0.02777415 -0.07412314 0.03450042
v -0.02789551 -0.07572162 0.03444123
v -0.02827715 -0.07404160 0.03428030
v -0.02777415 -0.07412314 0.03450042
v -0.02836459 -0.07563257 0.03444004
v -0.02777415 -0.07412314 0.03450042
v -0.02746355 -0.07417345 0.03407621
v -0.02789551 -0.07572162 0.03444123
v -0.02789551 -0.07572162 0.03444123
v -0.02746355 -0.07417345 0.03407621
v -0.02777171 -0.07572549 0.03396832
v -0.02882522 -0.07597351 0.03399115
v -0.02836459 -0.07563257 0.03444004
v -0.02833127 -0.07605612 0.03476023
v -0.02777171 -0.07572549 0.03396832
v -0.02763557 -0.07617080 0.03440809
v -0.02789551 -0.07572162 0.03444123
v -0.02836459 -0.07563257 0.03444004
v -0.02882522 -0.07597351 0.03399115
v -0.02851223 -0.07562261 0.03408515
v -0.02833127 -0.07605612 0.03476023
v -0.02789551 -0.07572162 0.03444123
v -0.02763557 -0.07617080 0.03440809
v -0.02833127 -0.07605612 0.03476023
v -0.02836459 -0.07563257 0.03444004
v -0.02789551 -0.07572162 0.03444123
v -0.02728456 -0.07582151 0.03548187
v -0.02704954 -0.07424050 0.03537058
v -0.02715492 -0.07584279 0.03582674
v -0.02704954 -0.07424050 0.03537058
v -0.02673161 -0.07429200 0.03592067
v -0.02715492 -0.07584279 0.03582674
v -0.02715492 -0.07584279 0.03582674
v -0.02673161 -0.07429200 0.03592067
v -0.02667433 -0.07591164 0.03584229
v -0.02673161 -0.07429200 0.03592067
v -0.02625548 -0.07436907 0.03562241
v -0.02667433 -0.07591164 0.03584229
v -0.02667433 -0.07591164 0.03584229
v -0.02625548 -0.07436907 0.03562241
v -0.02654379 -0.07592439 0.03536528
v -0.02654379 -0.07592439 0.03536528
v -0.02635890 -0.07637709 0.03557848
v -0.02667433 -0.07591164 0.03584229
v -0.02669602 -0.07632350 0.03608644
v -0.02730751 -0.07622176 0.03607982
v -0.02667433 -0.07591164 0.03584229
v -0.02730751 -0.07622176 0.03607982
v -0.02758187 -0.07617902 0.03546929
v -0.02715492 -0.07584279 0.03582674
v -0.02715492 -0.07584279 0.03582674
v -0.02758187 -0.07617902 0.03546929
v -0.02728456 -0.07582151 0.03548187
v -0.02669602 -0.07632350 0.03608644
v -0.02667433 -0.07591164 0.03584229
v -0.02635890 -0.07637709 0.03557848
v -0.02667433 -0.07591164 0.03584229
v -0.02730751 -0.07622176 0.03607982
v -0.02715492 -0.07584279 0.03582674
v -0.02361667 -0.07682216 0.03520089
v -0.02348572 -0.07684290 0.03440809
v -0.02278923 -0.07695376 0.03476023
v -0.02703571 -0.07626843 0.03277283
v -0.02771759 -0.07615703 0.03231608
v -0.02706390 -0.07626336 0.03216916
v -0.02415657 -0.07673406 0.03614157
v -0.02482074 -0.07657712 0.03624224
v -0.02479368 -0.07664406 0.03569841
v -0.02650547 -0.07635402 0.03182965
v -0.02674543 -0.07631492 0.03098386
v -0.02609539 -0.07642072 0.03042304
v -0.02556622 -0.07650589 0.03071761
v -0.02805477 -0.07610338 0.03282392
v -0.02766364 -0.07616674 0.03380393
v -0.02731281 -0.07622313 0.03008288
v -0.02822268 -0.07605779 0.03027886
v -0.02730160 -0.07614815 0.02947866
v -0.02180469 -0.07704019 0.03411877
v -0.02229470 -0.07703119 0.03399115
v -0.02177220 -0.07711052 0.03286480
v -0.02819401 -0.07608026 0.03350836
v -0.02731281 -0.07622313 0.03008288
v -0.02787101 -0.07613241 0.03042227
v -0.02822268 -0.07605779 0.03027886
v -0.02596670 -0.07644152 0.03212690
v -0.02340394 -0.07685583 0.03220689
v -0.02399170 -0.07675731 0.03231394
v -0.02367937 -0.07680994 0.03133618
v -0.02340394 -0.07685583 0.03220689
v -0.02367937 -0.07680994 0.03133618
v -0.02306675 -0.07691127 0.03169912
v -0.02844119 -0.07604223 0.03541928
v -0.02882522 -0.07597351 0.03399115
v -0.02833127 -0.07605612 0.03476023
v -0.02844119 -0.07604223 0.03541928
v -0.02919501 -0.07590943 0.03393369
v -0.02882522 -0.07597351 0.03399115
v -0.02784276 -0.07613760 0.03102618
v -0.02822268 -0.07605779 0.03027886
v -0.02787101 -0.07613241 0.03042227
v -0.02784276 -0.07613760 0.03102618
v -0.02893984 -0.07588076 0.03103262
v -0.02822268 -0.07605779 0.03027886
v -0.02434772 -0.07670378 0.03038001
v -0.02499783 -0.07659798 0.03038078
v -0.02502638 -0.07659381 0.02977693
v -0.02731281 -0.07622313 0.03008288
v -0.02730160 -0.07614815 0.02947866
v -0.02641993 -0.07634878 0.02925670
v -0.02434772 -0.07670378 0.03038001
v -0.02502638 -0.07659381 0.02977693
v -0.02524000 -0.07651817 0.02908653
v -0.02434772 -0.07670378 0.03038001
v -0.02524000 -0.07651817 0.02908653
v -0.02346640 -0.07683438 0.02983111
v -0.02306675 -0.07691127 0.03169912
v -0.02318483 -0.07688701 0.03056699
v -0.02242064 -0.07700359 0.03085672
v -0.02318483 -0.07688701 0.03056699
v -0.02555644 -0.07650774 0.03472030
v -0.02662914 -0.07633239 0.03497076
v -0.02609539 -0.07642066 0.03442305
v -0.02381724 -0.07678902 0.03008431
v -0.02434772 -0.07670378 0.03038001
v -0.02346640 -0.07683438 0.02983111
v -0.02245146 -0.07700836 0.03170853
v -0.02306675 -0.07691127 0.03169912
v -0.02242064 -0.07700359 0.03085672
v -0.02464067 -0.07664209 0.03668439
v -0.02482074 -0.07657712 0.03624224
v -0.02415657 -0.07673406 0.03614157
v -0.02677381 -0.07631075 0.03038007
v -0.02731281 -0.07622313 0.03008288
v -0.02641993 -0.07634878 0.02925670
v -0.02273356 -0.07696855 0.03547430
v -0.02229470 -0.07703119 0.03399115
v -0.02180469 -0.07704019 0.03411877
v -0.02890777 -0.07595515 0.03189790
v -0.02934390 -0.07588171 0.03260093
v -0.02893984 -0.07588076 0.03103262
v -0.02273356 -0.07696855 0.03547430
v -0.02278923 -0.07695376 0.03476023
v -0.02229470 -0.07703119 0.03399115
v -0.02368861 -0.07677882 0.03638416
v -0.02464067 -0.07664209 0.03668439
v -0.02415657 -0.07673406 0.03614157
v -0.02650529 -0.07635390 0.03306889
v -0.02368861 -0.07677882 0.03638416
v -0.02415657 -0.07673406 0.03614157
v -0.02358824 -0.07682609 0.03580451
v -0.02437585 -0.07669878 0.03098392
v -0.02797985 -0.07611417 0.03171092
v -0.02893984 -0.07588076 0.03103262
v -0.02784276 -0.07613760 0.03102618
v -0.02797985 -0.07611417 0.03171092
v -0.02890777 -0.07595515 0.03189790
v -0.02893984 -0.07588076 0.03103262
v -0.02273356 -0.07696855 0.03547430
v -0.02368861 -0.07677882 0.03638416
v -0.02358824 -0.07682609 0.03580451
v -0.02273356 -0.07696855 0.03547430
v -0.02361667 -0.07682216 0.03520089
v -0.02278923 -0.07695376 0.03476023
v -0.02273356 -0.07696855 0.03547430
v -0.02358824 -0.07682609 0.03580451
v -0.02312988 -0.07689887 0.03281760
v -0.02399170 -0.07675731 0.03231394
v -0.02866965 -0.07600164 0.03281468
v -0.02934390 -0.07588171 0.03260093
v -0.02890777 -0.07595515 0.03189790
v -0.02797985 -0.07611417 0.03171092
v -0.02784276 -0.07613760 0.03102618
v -0.02731227 -0.07622313 0.03132200
v -0.02555668 -0.07650727 0.02948123
v -0.02612352 -0.07641565 0.02981919
v -0.02641993 -0.07634878 0.02925670
v -0.02612352 -0.07641565 0.02981919
v -0.02677381 -0.07631075 0.03038007
v -0.02641993 -0.07634878 0.02925670
v -0.02919501 -0.07590943 0.03393369
v -0.02524000 -0.07651817 0.02908653
v -0.02555668 -0.07650727 0.02948123
v -0.02641993 -0.07634878 0.02925670
v -0.02715224 -0.07622492 0.03651463
v -0.02730751 -0.07622176 0.03607982
v -0.02669602 -0.07632350 0.03608644
v -0.02318483 -0.07688701 0.03056699
v -0.02381724 -0.07678902 0.03008431
v -0.02346640 -0.07683438 0.02983111
v -0.02593368 -0.07642805 0.03565526
v -0.02669602 -0.07632350 0.03608644
v -0.02635890 -0.07637709 0.03557848
v -0.02677381 -0.07631075 0.03038007
v -0.02612352 -0.07641565 0.02981919
v -0.02650034 -0.07635426 0.03652471
v -0.02669602 -0.07632350 0.03608644
v -0.02593368 -0.07642805 0.03565526
v -0.02593368 -0.07642805 0.03565526
v -0.02662914 -0.07633239 0.03497076
v -0.02555644 -0.07650774 0.03472030
v -0.02518314 -0.07656794 0.03216922
v -0.02593368 -0.07642805 0.03565526
v -0.02635890 -0.07637709 0.03557848
v -0.02662914 -0.07633239 0.03497076
v -0.02650034 -0.07635426 0.03652471
v -0.02715224 -0.07622492 0.03651463
v -0.02669602 -0.07632350 0.03608644
v -0.02462482 -0.07665860 0.03182965
v -0.02593839 -0.07644575 0.03273057
v -0.02221024 -0.07704079 0.03262537
v -0.02245146 -0.07700836 0.03170853
v -0.02242064 -0.07700359 0.03085672
v -0.02502638 -0.07659381 0.02977693
v -0.02555668 -0.07650727 0.02948123
v -0.02524000 -0.07651817 0.02908653
v -0.02515476 -0.07657301 0.03277283
v -0.02242064 -0.07700359 0.03085672
v -0.02318483 -0.07688701 0.03056699
v -0.02346640 -0.07683438 0.02983111
v -0.02177220 -0.07711052 0.03286480
v -0.02221024 -0.07704079 0.03262537
v -0.02242064 -0.07700359 0.03085672
v -0.02345782 -0.07684797 0.03380393
v -0.02448666 -0.07667917 0.03308326
v -0.02292734 -0.07693332 0.03350836
v -0.02612358 -0.07641577 0.03381896
v -0.02758187 -0.07617902 0.03546929
v -0.02763557 -0.07617080 0.03440809
v -0.02724504 -0.07623457 0.03496152
v -0.02499783 -0.07659798 0.03438079
v -0.02502632 -0.07659387 0.03377676
v -0.02833127 -0.07605612 0.03476023
v -0.02479368 -0.07664406 0.03569841
v -0.02499783 -0.07659798 0.03438079
v -0.02428436 -0.07671195 0.03489071
v -0.02479368 -0.07664406 0.03569841
v -0.02593368 -0.07642805 0.03565526
v -0.02555644 -0.07650774 0.03472030
v -0.02479368 -0.07664406 0.03569841
v -0.02555644 -0.07650774 0.03472030
v -0.02499783 -0.07659798 0.03438079
v -0.02555668 -0.07650750 0.03348106
v -0.02866965 -0.07600164 0.03281468
v -0.02758187 -0.07617902 0.03546929
v -0.02292734 -0.07693332 0.03350836
v -0.02312988 -0.07689887 0.03281760
v -0.02221024 -0.07704079 0.03262537
v -0.02428436 -0.07671195 0.03489071
v -0.02819401 -0.07608026 0.03350836
v -0.02229470 -0.07703119 0.03399115
v -0.02866965 -0.07600164 0.03281468
v -0.02730751 -0.07622176 0.03607982
v -0.02844119 -0.07604223 0.03541928
v -0.02229470 -0.07703119 0.03399115
v -0.02715224 -0.07622492 0.03651463
v -0.02844119 -0.07604223 0.03541928
v -0.02730751 -0.07622176 0.03607982
v -0.02464067 -0.07664209 0.03668439
v -0.02461665 -0.07645452 0.03686296
v -0.02481478 -0.07647120 0.03665626
v -0.02866441 -0.07585966 0.03540301
v -0.02844119 -0.07604223 0.03541928
v -0.02793622 -0.07596874 0.03617179
v -0.02912962 -0.07577860 0.03463464
v -0.02844119 -0.07604223 0.03541928
v -0.02866441 -0.07585966 0.03540301
v -0.02793622 -0.07596874 0.03617179
v -0.02715224 -0.07622492 0.03651463
v -0.02649921 -0.07623189 0.03684788
v -0.02793622 -0.07596874 0.03617179
v -0.02844119 -0.07604223 0.03541928
v -0.02715224 -0.07622492 0.03651463
v -0.02912962 -0.07577860 0.03463464
v -0.02919501 -0.07590943 0.03393369
v -0.02844119 -0.07604223 0.03541928
v -0.02942866 -0.07569491 0.03358334
v -0.02919501 -0.07590943 0.03393369
v -0.02912962 -0.07577860 0.03463464
v -0.02942866 -0.07569491 0.03358334
v -0.02934390 -0.07588171 0.03260093
v -0.02919501 -0.07590943 0.03393369
v -0.02942866 -0.07569491 0.03358334
v -0.02944231 -0.07567667 0.03237861
v -0.02934390 -0.07588171 0.03260093
v -0.02649921 -0.07623189 0.03684788
v -0.02715224 -0.07622492 0.03651463
v -0.02650034 -0.07635426 0.03652471
v -0.02492719 -0.06769555 0.03684645
v -0.02649921 -0.07623189 0.03684788
v -0.02626353 -0.07625192 0.03664737
v -0.02521425 -0.07642412 0.03582352
v -0.02578270 -0.07625502 0.03582143
v -0.02593368 -0.07642805 0.03565526
v -0.02650034 -0.07635426 0.03652471
v -0.02617168 -0.07619845 0.03617990
v -0.02626353 -0.07625192 0.03664737
v -0.02479368 -0.07664406 0.03569841
v -0.02521425 -0.07642412 0.03582352
v -0.02593368 -0.07642805 0.03565526
v -0.02593368 -0.07642805 0.03565526
v -0.02617168 -0.07619845 0.03617990
v -0.02650034 -0.07635426 0.03652471
v -0.02482074 -0.07657712 0.03624224
v -0.02521425 -0.07642412 0.03582352
v -0.02479368 -0.07664406 0.03569841
v -0.02593368 -0.07642805 0.03565526
v -0.02578270 -0.07625502 0.03582143
v -0.02617168 -0.07619845 0.03617990
v -0.02482074 -0.07657712 0.03624224
v -0.02464067 -0.07664209 0.03668439
v -0.02481478 -0.07647120 0.03665626
v -0.02492719 -0.06769555 0.03684645
v -0.02626353 -0.07625192 0.03664737
v -0.02464669 -0.06774103 0.03591787
v -0.02626353 -0.07625192 0.03664737
v -0.02617168 -0.07619845 0.03617990
v -0.02464669 -0.06774103 0.03591787
v -0.02617168 -0.07619845 0.03617990
v -0.02578270 -0.07625502 0.03582143
v -0.02464669 -0.06774103 0.03591787
v -0.02464669 -0.06774103 0.03591787
v -0.02521425 -0.07642412 0.03582352
v -0.02377325 -0.06788253 0.03588593
v -0.02578270 -0.07625502 0.03582143
v -0.02521425 -0.07642412 0.03582352
v -0.02464669 -0.06774103 0.03591787
v -0.02521425 -0.07642412 0.03582352
v -0.02482074 -0.07657712 0.03624224
v -0.02377325 -0.06788253 0.03588593
v -0.02377325 -0.06788253 0.03588593
v -0.02482074 -0.07657712 0.03624224
v -0.02337175 -0.06794756 0.03683453
v -0.02482074 -0.07657712 0.03624224
v -0.02481478 -0.07647120 0.03665626
v -0.02337175 -0.06794756 0.03683453
v -0.02337175 -0.06794756 0.03683453
v -0.02481478 -0.07647120 0.03665626
v -0.02461665 -0.07645452 0.03686296
v -0.02807307 -0.06718611 0.03365725
v -0.02944231 -0.07567667 0.03237861
v -0.02942866 -0.07569491 0.03358334
v -0.02807307 -0.06718611 0.03365725
v -0.02942866 -0.07569491 0.03358334
v -0.02912962 -0.07577860 0.03463464
v -0.02741330 -0.06729292 0.03532606
v -0.02807307 -0.06718611 0.03365725
v -0.02912962 -0.07577860 0.03463464
v -0.02741330 -0.06729292 0.03532606
v -0.02912962 -0.07577860 0.03463464
v -0.02866441 -0.07585966 0.03540301
v -0.02741330 -0.06729292 0.03532606
v -0.02866441 -0.07585966 0.03540301
v -0.02793622 -0.07596874 0.03617179
v -0.02613633 -0.06749975 0.03648257
v -0.02741330 -0.06729292 0.03532606
v -0.02793622 -0.07596874 0.03617179
v -0.02613633 -0.06749975 0.03648257
v -0.02793622 -0.07596874 0.03617179
v -0.02649921 -0.07623189 0.03684788
v -0.02492719 -0.06769555 0.03684645
v -0.02613633 -0.06749975 0.03648257
v -0.02649921 -0.07623189 0.03684788
vn 0.21598261 -0.91337838 0.34509628
vn 0.21598261 -0.91337838 0.34509628
vn 0.21598261 -0.91337838 0.34509628
vn -0.19935668 -0.70658434 -0.67896648
vn -0.19935668 -0.70658434 -0.67896648
vn -0.19935668 -0.70658434 -0.67896648
vn 0.00564063 -0.91551674 -0.40224033
vn 0.00564063 -0.91551674 -0.40224033
vn 0.00564063 -0.91551674 -0.40224033
vn 0.17367324 -0.79398756 -0.58259880
vn 0.17367324 -0.79398756 -0.58259880
vn 0.17367324 -0.79398756 -0.58259880
vn -0.63696393 -0.61793764 -0.46090132
vn -0.63696393 -0.61793764 -0.46090132
vn -0.63696393 -0.61793764 -0.46090132
vn -0.49577221 -0.71723842 -0.48967231
vn -0.49577221 -0.71723842 -0.48967231
vn -0.49577221 -0.71723842 -0.48967231
vn 0.58773787 -0.69527725 -0.41370732
vn 0.58773787 -0.69527725 -0.41370732
vn 0.58773787 -0.69527725 -0.41370732
vn -0.32132422 -0.62510048 -0.71133686
vn -0.32132422 -0.62510048 -0.71133686
vn -0.32132422 -0.62510048 -0.71133686
vn 0.33726518 -0.92800092 -0.15832403
vn 0.33726518 -0.92800092 -0.15832403
vn 0.33726518 -0.92800092 -0.15832403
vn -0.77993321 -0.59260573 -0.20130236
vn -0.77993321 -0.59260573 -0.20130236
vn -0.77993321 -0.59260573 -0.20130236
vn 0.55650867 -0.81525234 -0.16019277
vn 0.55650867 -0.81525234 -0.16019277
vn 0.55650867 -0.81525234 -0.16019277
vn 0.23705890 -0.77751077 -0.58247754
vn 0.23705890 -0.77751077 -0.58247754
vn 0.23705890 -0.77751077 -0.58247754
vn 0.14033252 -0.94393357 -0.29882469
vn 0.14033252 -0.94393357 -0.29882469
vn 0.14033252 -0.94393357 -0.29882469
vn 0.39516108 -0.80478344 -0.44291233
vn 0.39516108 -0.80478344 -0.44291233
vn 0.39516108 -0.80478344 -0.44291233
vn 0.57013152 -0.81930606 0.06072577
vn 0.57013152 -0.81930606 0.06072577
vn 0.57013152 -0.81930606 0.06072577
vn 0.28934518 -0.92476960 0.24714482
vn 0.28934518 -0.92476960 0.24714482
vn 0.28934518 -0.92476960 0.24714482
vn 0.26643764 -0.84880259 0.45666744
vn 0.26643764 -0.84880259 0.45666744
vn 0.26643764 -0.84880259 0.45666744
vn 0.37456291 -0.70393575 0.60347086
vn 0.37456291 -0.70393575 0.60347086
vn 0.37456291 -0.70393575 0.60347086
vn 0.12463533 -0.69246639 0.71060279
vn 0.12463533 -0.69246639 0.71060279
vn 0.12463533 -0.69246639 0.71060279
vn 0.18276951 -0.61245341 0.76908785
vn 0.18276951 -0.61245341 0.76908785
vn 0.18276951 -0.61245341 0.76908785
vn 0.37281907 -0.84671766 0.37957233
vn 0.37281907 -0.84671766 0.37957233
vn 0.37281907 -0.84671766 0.37957233
vn 0.33250123 -0.04551525 0.94200387
vn 0.33270111 -0.04559188 0.94192959
vn 0.33273475 -0.04560478 0.94191708
vn 0.33247875 -0.04550664 0.94201222
vn 0.64524983 -0.11954140 0.75456113
vn 0.64524983 -0.11954140 0.75456113
vn 0.64524983 -0.11954140 0.75456113
vn 0.79125592 -0.12452797 0.59867090
vn 0.79125592 -0.12452797 0.59867090
vn 0.79125592 -0.12452797 0.59867090
vn 0.82021624 -0.12114152 0.55907965
vn 0.82021624 -0.12114152 0.55907965
vn 0.82021624 -0.12114152 0.55907965
vn 0.90495309 -0.15761265 0.39524442
vn 0.90495309 -0.15761265 0.39524442
vn 0.90495309 -0.15761265 0.39524442
vn 0.97300237 -0.16718017 0.15911373
vn 0.97300237 -0.16718017 0.15911373
vn 0.97300237 -0.16718017 0.15911373
vn 0.98957003 -0.14397683 -0.00467234
vn 0.98957003 -0.14397683 -0.00467234
vn 0.98957003 -0.14397683 -0.00467234
vn -0.51573699 0.07528178 -0.85343308
vn -0.51573699 0.07528178 -0.85343308
vn -0.51573699 0.07528178 -0.85343308
vn -0.38486799 0.06670154 -0.92055827
vn -0.38486799 0.06670154 -0.92055827
vn -0.38486799 0.06670154 -0.92055827
vn 0.96185437 -0.17020664 -0.21416318
vn 0.96185437 -0.17020664 -0.21416318
vn 0.96185437 -0.17020664 -0.21416318
vn -0.78741794 0.12739267 -0.60311200
vn -0.78741794 0.12739267 -0.60311200
vn -0.78741794 0.12739267 -0.60311200
vn -0.77209215 0.13009980 -0.62205125
vn -0.77209215 0.13009980 -0.62205125
vn -0.77209215 0.13009980 -0.62205125
vn 0.84488299 -0.14340715 -0.51537086
vn 0.84488299 -0.14340715 -0.51537086
vn 0.84488299 -0.14340715 -0.51537086
vn -0.92214216 0.13078155 -0.36407419
vn -0.92214216 0.13078155 -0.36407419
vn -0.92214216 0.13078155 -0.36407419
vn 0.76252713 -0.10596215 -0.63821972
vn 0.76252713 -0.10596215 -0.63821972
vn 0.76252713 -0.10596215 -0.63821972
vn 0.66592782 -0.11192068 -0.73757298
vn 0.66592782 -0.11192068 -0.73757298
vn 0.66592782 -0.11192068 -0.73757298
vn -0.98176130 0.17087596 -0.08334363
vn -0.98176130 0.17087596 -0.08334363
vn -0.98176130 0.17087596 -0.08334363
vn 0.61748928 -0.10864677 -0.77903971
vn 0.61748928 -0.10864677 -0.77903971
vn 0.61748928 -0.10864677 -0.77903971
vn 0.39987393 -0.07134257 -0.91378941
vn 0.39987393 -0.07134257 -0.91378941
vn 0.39987393 -0.07134257 -0.91378941
vn 0.13461649 -0.02766178 -0.99051160
vn 0.13461649 -0.02766178 -0.99051160
vn 0.13461649 -0.02766178 -0.99051160
vn 0.23569578 -0.02447582 -0.97151862
vn 0.23569578 -0.02447582 -0.97151862
vn 0.23569578 -0.02447582 -0.97151862
vn 0.00637379 -0.01770493 -0.99982294
vn 0.00637379 -0.01770493 -0.99982294
vn 0.00637379 -0.01770493 -0.99982294
vn -0.36422767 0.05935739 -0.92941643
vn -0.36422767 0.05935739 -0.92941643
vn -0.36422767 0.05935739 -0.92941643
vn -0.07719551 -0.39978451 0.91335272
vn -0.07719551 -0.39978451 0.91335272
vn -0.07719551 -0.39978451 0.91335272
vn -0.90278018 -0.18609305 0.38775936
vn -0.90278018 -0.18609305 0.38775936
vn -0.90278018 -0.18609305 0.38775936
vn 0.63355521 -0.60190664 0.48612364
vn 0.63355521 -0.60190664 0.48612364
vn 0.63355521 -0.60190664 0.48612364
vn 0.63611041 -0.54810988 0.54308297
vn 0.63611041 -0.54810988 0.54308297
vn 0.63611041 -0.54810988 0.54308297
vn -0.39786138 -0.59337378 0.69972414
vn -0.39786138 -0.59337378 0.69972414
vn -0.39786138 -0.59337378 0.69972414
vn -0.87904150 0.08540705 0.46903271
vn -0.87904150 0.08540705 0.46903271
vn -0.87904150 0.08540705 0.46903271
vn -0.39795634 0.12859441 0.90834698
vn -0.39795634 0.12859441 0.90834698
vn -0.39795634 0.12859441 0.90834698
vn 0.33748054 -0.12649804 0.93279426
vn 0.33748054 -0.12649804 0.93279426
vn 0.33748054 -0.12649804 0.93279426
vn 0.79175962 -0.07502516 0.60620782
vn 0.79175962 -0.07502516 0.60620782
vn 0.79175962 -0.07502516 0.60620782
vn -0.96654860 -0.25281786 0.04320791
vn -0.96654860 -0.25281786 0.04320791
vn -0.96654860 -0.25281786 0.04320791
vn 0.57223507 -0.64581215 0.50544405
vn 0.57223507 -0.64581215 0.50544405
vn 0.57223507 -0.64581215 0.50544405
vn 0.52818420 -0.35837132 0.76979962
vn 0.52818420 -0.35837132 0.76979962
vn 0.52818420 -0.35837132 0.76979962
vn -0.49437731 -0.40719035 0.76797597
vn -0.49437731 -0.40719035 0.76797597
vn -0.49437731 -0.40719035 0.76797597
vn -0.41390944 -0.49651140 0.76299109
vn -0.41390944 -0.49651140 0.76299109
vn -0.41390944 -0.49651140 0.76299109
vn -0.40448305 0.08634102 0.91046070
vn -0.40448305 0.08634102 0.91046070
vn -0.40448305 0.08634102 0.91046070
vn -0.56541824 0.05505531 0.82296484
vn -0.56541824 0.05505531 0.82296484
vn -0.56541824 0.05505531 0.82296484
vn 0.77355305 -0.18965784 0.60468635
vn 0.77355305 -0.18965784 0.60468635
vn 0.77355305 -0.18965784 0.60468635
vn 0.84909340 -0.15579796 0.50474488
vn 0.84909340 -0.15579796 0.50474488
vn 0.84909340 -0.15579796 0.50474488
vn 0.59683664 -0.75571018 0.26960739
vn 0.59683664 -0.75571018 0.26960739
vn 0.59683664 -0.75571018 0.26960739
vn 0.13766467 -0.30480974 0.94241151
vn 0.13766467 -0.30480974 0.94241151
vn 0.13766467 -0.30480974 0.94241151
vn -0.06922677 -0.48388672 0.87238827
vn -0.06922677 -0.48388672 0.87238827
vn -0.06922677 -0.48388672 0.87238827
vn -0.87953081 -0.31226784 0.35904643
vn -0.87953081 -0.31226784 0.35904643
vn -0.87953081 -0.31226784 0.35904643
vn -0.88085954 -0.40903810 0.23827361
vn -0.88085954 -0.40903810 0.23827361
vn -0.88085954 -0.40903810 0.23827361
vn -0.94060564 0.18361109 0.28556608
vn -0.94060564 0.18361109 0.28556608
vn -0.94060564 0.18361109 0.28556608
vn 0.01181568 -0.00315145 0.99992523
vn 0.01181568 -0.00315145 0.99992523
vn 0.01181568 -0.00315145 0.99992523
vn 0.21728814 -0.10911285 0.96998982
vn 0.21728814 -0.10911285 0.96998982
vn 0.21728814 -0.10911285 0.96998982
vn 0.91867790 -0.08904275 0.38484062
vn 0.91867790 -0.08904275 0.38484062
vn 0.91867790 -0.08904275 0.38484062
vn -0.50202582 -0.27787444 0.81899687
vn -0.50202582 -0.27787444 0.81899687
vn -0.50202582 -0.27787444 0.81899687
vn 0.65218297 -0.69994201 0.29109887
vn 0.65218297 -0.69994201 0.29109887
vn 0.65218297 -0.69994201 0.29109887
vn -0.96052920 -0.27475488 0.04351344
vn -0.96052920 -0.27475488 0.04351344
vn -0.96052920 -0.27475488 0.04351344
vn -0.86106543 -0.45436514 0.22829509
vn -0.86106543 -0.45436514 0.22829509
vn -0.86106543 -0.45436514 0.22829509
vn 0.42199955 -0.39651306 0.81528754
vn 0.42199955 -0.39651306 0.81528754
vn 0.42199955 -0.39651306 0.81528754
vn -0.10233145 -0.58769789 0.80258299
vn -0.10233145 -0.58769789 0.80258299
vn -0.10233145 -0.58769789 0.80258299
vn -0.99158219 0.12400603 -0.03724593
vn -0.99158219 0.12400603 -0.03724593
vn -0.99158219 0.12400603 -0.03724593
vn -0.94297225 0.18936938 0.27375642
vn -0.94297225 0.18936938 0.27375642
vn -0.94297225 0.18936938 0.27375642
vn -0.37561891 0.02012152 0.92655575
vn -0.37561891 0.02012152 0.92655575
vn -0.37561891 0.02012152 0.92655575
vn 0.01263279 0.04979559 0.99867953
vn 0.01263279 0.04979559 0.99867953
vn 0.01263279 0.04979559 0.99867953
vn 0.90027611 -0.21121196 0.38064738
vn 0.90027611 -0.21121196 0.38064738
vn 0.90027611 -0.21121196 0.38064738
vn 0.92406846 -0.19495626 0.32876973
vn 0.92406846 -0.19495626 0.32876973
vn 0.92406846 -0.19495626 0.32876973
vn -0.61433518 -0.13816671 0.77685407
vn -0.61433518 -0.13816671 0.77685407
vn -0.61433518 -0.13816671 0.77685407
vn 0.83936669 -0.54181559 0.04358246
vn 0.83936669 -0.54181559 0.04358246
vn 0.83936669 -0.54181559 0.04358246
vn 0.66602145 -0.68543288 0.29427402
vn 0.66602145 -0.68543288 0.29427402
vn 0.66602145 -0.68543288 0.29427402
vn -0.83142512 -0.51088508 0.21846902
vn -0.83142512 -0.51088508 0.21846902
vn -0.83142512 -0.51088508 0.21846902
vn 0.38674027 -0.42759004 0.81706715
vn 0.38674027 -0.42759004 0.81706715
vn 0.38674027 -0.42759004 0.81706715
vn -0.06616230 -0.59482633 0.80112682
vn -0.06616230 -0.59482633 0.80112682
vn -0.06616230 -0.59482633 0.80112682
vn -0.94486693 0.15785328 0.28689516
vn -0.94486693 0.15785328 0.28689516
vn -0.94486693 0.15785328 0.28689516
vn -0.97148870 0.13298104 0.19627978
vn -0.97148870 0.13298104 0.19627978
vn -0.97148870 0.13298104 0.19627978
vn 0.01913767 -0.04040292 0.99900018
vn 0.01913767 -0.04040292 0.99900018
vn 0.01913767 -0.04040292 0.99900018
vn 0.11865352 -0.02072484 0.99271941
vn 0.11865352 -0.02072484 0.99271941
vn 0.11865352 -0.02072484 0.99271941
vn 0.92472798 -0.09914179 0.36749023
vn 0.92472798 -0.09914179 0.36749023
vn 0.92472798 -0.09914179 0.36749023
vn 0.68985784 -0.65643366 0.30527204
vn 0.68985784 -0.65643366 0.30527204
vn 0.68985784 -0.65643366 0.30527204
vn -0.09299855 -0.50627354 0.85734379
vn -0.09299855 -0.50627354 0.85734379
vn -0.09299855 -0.50627354 0.85734379
vn -0.94254809 -0.23263868 0.23975475
vn -0.94254809 -0.23263868 0.23975475
vn -0.94254809 -0.23263868 0.23975475
vn -0.94403575 -0.20276638 0.26015822
vn -0.94403575 -0.20276638 0.26015822
vn -0.94403575 -0.20276638 0.26015822
vn 0.69286734 -0.50449305 0.51519086
vn 0.69286734 -0.50449305 0.51519086
vn 0.69286734 -0.50449305 0.51519086
vn -0.08611490 -0.50109355 0.86109783
vn -0.08611490 -0.50109355 0.86109783
vn -0.08611490 -0.50109355 0.86109783
vn -0.94092702 0.19999138 0.27323945
vn -0.94092702 0.19999138 0.27323945
vn -0.94092702 0.19999138 0.27323945
vn -0.12062581 -0.03434558 0.99210372
vn -0.12062581 -0.03434558 0.99210372
vn -0.12062581 -0.03434558 0.99210372
vn 0.00212939 -0.01175889 0.99992859
vn 0.00212939 -0.01175889 0.99992859
vn 0.00212939 -0.01175889 0.99992859
vn 0.91810021 -0.09624548 0.38448512
vn 0.91810021 -0.09624548 0.38448512
vn 0.91810021 -0.09624548 0.38448512
vn -0.61425694 -0.13764371 0.77700876
vn -0.61425694 -0.13764371 0.77700876
vn -0.61425694 -0.13764371 0.77700876
vn 0.83923719 -0.54203809 0.04330873
vn 0.83923719 -0.54203809 0.04330873
vn 0.83923719 -0.54203809 0.04330873
vn 0.66603177 -0.68561820 0.29381858
vn 0.66603177 -0.68561820 0.29381858
vn 0.66603177 -0.68561820 0.29381858
vn -0.83150778 -0.51090666 0.21810363
vn -0.83150778 -0.51090666 0.21810363
vn -0.83150778 -0.51090666 0.21810363
vn 0.38642217 -0.42784537 0.81708399
vn 0.38642217 -0.42784537 0.81708399
vn 0.38642217 -0.42784537 0.81708399
vn -0.06563035 -0.59475467 0.80122377
vn -0.06563035 -0.59475467 0.80122377
vn -0.06563035 -0.59475467 0.80122377
vn -0.93378326 0.21487297 0.28614406
vn -0.93378326 0.21487297 0.28614406
vn -0.93378326 0.21487297 0.28614406
vn -0.71566543 0.04842576 0.69676247
vn -0.71566543 0.04842576 0.69676247
vn -0.71566543 0.04842576 0.69676247
vn 0.03161403 0.04237440 0.99860150
vn 0.03161403 0.04237440 0.99860150
vn 0.03161403 0.04237440 0.99860150
vn 0.50927412 -0.12464292 0.85153039
vn 0.50927412 -0.12464292 0.85153039
vn 0.50927412 -0.12464292 0.85153039
vn 0.92409373 -0.10668477 0.36697293
vn 0.92409373 -0.10668477 0.36697293
vn 0.92409373 -0.10668477 0.36697293
vn 0.75856223 -0.56109284 0.33129771
vn 0.75856223 -0.56109284 0.33129771
vn 0.75856223 -0.56109284 0.33129771
vn -0.96051957 -0.27479834 0.04345144
vn -0.96051957 -0.27479834 0.04345144
vn -0.96051957 -0.27479834 0.04345144
vn -0.86109132 -0.45434098 0.22824552
vn -0.86109132 -0.45434098 0.22824552
vn -0.86109132 -0.45434098 0.22824552
vn 0.78445586 -0.33376047 0.52271690
vn 0.78445586 -0.33376047 0.52271690
vn 0.78445586 -0.33376047 0.52271690
vn -0.10491837 -0.60509139 0.78921261
vn -0.10491837 -0.60509139 0.78921261
vn -0.10491837 -0.60509139 0.78921261
vn -0.44148654 -0.24674183 0.86267497
vn -0.44148654 -0.24674183 0.86267497
vn -0.44148654 -0.24674183 0.86267497
vn -0.99650286 0.08352083 -0.00251254
vn -0.99650286 0.08352083 -0.00251254
vn -0.99650286 0.08352083 -0.00251254
vn -0.94751509 0.16440377 0.27420166
vn -0.94751509 0.16440377 0.27420166
vn -0.94751509 0.16440377 0.27420166
vn 0.00626500 0.01062259 0.99992395
vn 0.00626500 0.01062259 0.99992395
vn 0.00626500 0.01062259 0.99992395
vn 0.06599281 -0.01883666 0.99764229
vn 0.06599281 -0.01883666 0.99764229
vn 0.06599281 -0.01883666 0.99764229
vn 0.90773301 -0.17246209 0.38246255
vn 0.90773301 -0.17246209 0.38246255
vn 0.90773301 -0.17246209 0.38246255
vn 0.94492064 -0.14880119 0.29151877
vn 0.94492064 -0.14880119 0.29151877
vn 0.94492064 -0.14880119 0.29151877
vn -0.61524239 -0.13904481 0.77597896
vn -0.61524239 -0.13904481 0.77597896
vn -0.61524239 -0.13904481 0.77597896
vn -0.01805588 -0.62271824 0.78223780
vn -0.01805588 -0.62271824 0.78223780
vn -0.01805588 -0.62271824 0.78223780
vn -0.82779501 -0.47986151 0.29066881
vn -0.82779501 -0.47986151 0.29066881
vn -0.82779501 -0.47986151 0.29066881
vn 0.42157480 -0.41793840 0.80473734
vn 0.42157480 -0.41793840 0.80473734
vn 0.42157480 -0.41793840 0.80473734
vn 0.98235104 -0.18704661 0.00000000
vn 0.98235104 -0.18704661 0.00000000
vn 0.98235104 -0.18704661 0.00000000
vn 0.02955460 0.02001217 0.99936282
vn 0.02955460 0.02001217 0.99936282
vn 0.02955460 0.02001217 0.99936282
vn 0.14133994 -0.05045595 0.98867448
vn 0.14133994 -0.05045595 0.98867448
vn 0.14133994 -0.05045595 0.98867448
vn -0.89450169 0.19385822 0.40284702
vn -0.89450169 0.19385822 0.40284702
vn -0.89450169 0.19385822 0.40284702
vn 0.66692627 -0.72839093 0.15702234
vn 0.66692627 -0.72839093 0.15702234
vn 0.66692627 -0.72839093 0.15702234
vn -0.95661730 -0.28813329 0.04315716
vn -0.95661730 -0.28813329 0.04315716
vn -0.95661730 -0.28813329 0.04315716
vn 0.42176060 -0.39673820 0.81530166
vn 0.42176060 -0.39673820 0.81530166
vn 0.42176060 -0.39673820 0.81530166
vn -0.20329978 -0.60421667 0.77044884
vn -0.20329978 -0.60421667 0.77044884
vn -0.20329978 -0.60421667 0.77044884
vn -0.50090138 -0.31234411 0.80717964
vn -0.50090138 -0.31234411 0.80717964
vn -0.50090138 -0.31234411 0.80717964
vn 0.98175146 -0.09318921 0.16577048
vn 0.98175146 -0.09318921 0.16577048
vn 0.98175146 -0.09318921 0.16577048
vn 0.83515408 -0.17413327 0.52172337
vn 0.83515408 -0.17413327 0.52172337
vn 0.83515408 -0.17413327 0.52172337
vn -0.12998798 0.07020688 0.98902685
vn -0.12998798 0.07020688 0.98902685
vn -0.12998798 0.07020688 0.98902685
vn -0.31596485 0.04276292 0.94780670
vn -0.31596485 0.04276292 0.94780670
vn -0.31596485 0.04276292 0.94780670
vn -0.49038640 -0.41368526 0.76706303
vn -0.49038640 -0.41368526 0.76706303
vn -0.49038640 -0.41368526 0.76706303
vn -0.43450433 -0.47849620 0.76305136
vn -0.43450433 -0.47849620 0.76305136
vn -0.43450433 -0.47849620 0.76305136
vn -0.96819824 -0.24634187 0.04367882
vn -0.96819824 -0.24634187 0.04367882
vn -0.96819824 -0.24634187 0.04367882
vn 0.54022474 -0.68555301 0.48803104
vn 0.54022474 -0.68555301 0.48803104
vn 0.54022474 -0.68555301 0.48803104
vn 0.42455776 -0.40928304 0.80761259
vn 0.42455776 -0.40928304 0.80761259
vn 0.42455776 -0.40928304 0.80761259
vn 0.78106630 -0.10362380 0.61579018
vn 0.78106630 -0.10362380 0.61579018
vn 0.78106630 -0.10362380 0.61579018
vn 0.55464487 -0.14158507 0.81995289
vn 0.55464487 -0.14158507 0.81995289
vn 0.55464487 -0.14158507 0.81995289
vn -0.40602519 0.13171074 0.90432064
vn -0.40602519 0.13171074 0.90432064
vn -0.40602519 0.13171074 0.90432064
vn -0.77932225 0.07617783 0.62197570
vn -0.77932225 0.07617783 0.62197570
vn -0.77932225 0.07617783 0.62197570
vn -0.96818435 -0.24637374 0.04380701
vn -0.96818435 -0.24637374 0.04380701
vn -0.96818435 -0.24637374 0.04380701
vn 0.53994287 -0.68546846 0.48846155
vn 0.53994287 -0.68546846 0.48846155
vn 0.53994287 -0.68546846 0.48846155
vn 0.42446513 -0.40945937 0.80757190
vn 0.42446513 -0.40945937 0.80757190
vn 0.42446513 -0.40945937 0.80757190
vn -0.49023094 -0.41376774 0.76711791
vn -0.49023094 -0.41376774 0.76711791
vn -0.49023094 -0.41376774 0.76711791
vn -0.43473706 -0.47817225 0.76312187
vn -0.43473706 -0.47817225 0.76312187
vn -0.43473706 -0.47817225 0.76312187
vn -0.40872781 0.11816475 0.90497440
vn -0.40872781 0.11816475 0.90497440
vn -0.40872781 0.11816475 0.90497440
vn -0.03361830 -0.05710635 0.99780192
vn -0.03361830 -0.05710635 0.99780192
vn -0.03361830 -0.05710635 0.99780192
vn 0.78433860 -0.07241760 0.61609143
vn 0.78433860 -0.07241760 0.61609143
vn 0.78433860 -0.07241760 0.61609143
vn 0.96972323 -0.22431664 -0.09653448
vn 0.96972323 -0.22431664 -0.09653448
vn 0.96972323 -0.22431664 -0.09653448
vn 0.91885900 -0.14366068 -0.36750477
vn 0.91885900 -0.14366068 -0.36750477
vn 0.91885900 -0.14366068 -0.36750477
vn 0.02791368 0.01999848 -0.99941027
vn 0.02791368 0.01999848 -0.99941027
vn 0.02791368 0.01999848 -0.99941027
vn -0.17353794 -0.00578221 -0.98481021
vn -0.17353794 -0.00578221 -0.98481021
vn -0.17353794 -0.00578221 -0.98481021
vn -0.93940252 0.18714033 -0.28723058
vn -0.93940252 0.18714033 -0.28723058
vn -0.93940252 0.18714033 -0.28723058
vn -0.99265856 0.12085806 -0.00472375
vn -0.99265856 0.12085806 -0.00472375
vn -0.99265856 0.12085806 -0.00472375
vn 0.38666715 -0.42767427 -0.81705767
vn 0.38666715 -0.42767427 -0.81705767
vn 0.38666715 -0.42767427 -0.81705767
vn -0.84883268 -0.47806126 -0.22570008
vn -0.84883268 -0.47806126 -0.22570008
vn -0.84883268 -0.47806126 -0.22570008
vn 0.83938453 -0.54176031 -0.04392476
vn 0.83938453 -0.54176031 -0.04392476
vn 0.83938453 -0.54176031 -0.04392476
vn 0.66586482 -0.68553051 -0.29440102
vn 0.66586482 -0.68553051 -0.29440102
vn 0.66586482 -0.68553051 -0.29440102
vn -0.52569344 -0.24084232 -0.81586849
vn -0.52569344 -0.24084232 -0.81586849
vn -0.52569344 -0.24084232 -0.81586849
vn -0.06611026 -0.59481193 -0.80114181
vn -0.06611026 -0.59481193 -0.80114181
vn -0.06611026 -0.59481193 -0.80114181
vn -0.71492796 0.04884434 -0.69748995
vn -0.71492796 0.04884434 -0.69748995
vn -0.71492796 0.04884434 -0.69748995
vn -0.93808121 0.19409759 -0.28693165
vn -0.93808121 0.19409759 -0.28693165
vn -0.93808121 0.19409759 -0.28693165
vn 0.03512120 0.07472783 -0.99658530
vn 0.03512120 0.07472783 -0.99658530
vn 0.03512120 0.07472783 -0.99658530
vn 0.81241524 -0.19683959 -0.54884940
vn 0.81241524 -0.19683959 -0.54884940
vn 0.81241524 -0.19683959 -0.54884940
vn 0.91673655 -0.15840853 -0.36674356
vn 0.91673655 -0.15840853 -0.36674356
vn 0.91673655 -0.15840853 -0.36674356
vn -0.84905405 -0.47774699 -0.22553279
vn -0.84905405 -0.47774699 -0.22553279
vn -0.84905405 -0.47774699 -0.22553279
vn 0.83928586 -0.54192790 -0.04374236
vn 0.83928586 -0.54192790 -0.04374236
vn 0.83928586 -0.54192790 -0.04374236
vn 0.66623764 -0.68533938 -0.29400226
vn 0.66623764 -0.68533938 -0.29400226
vn 0.66623764 -0.68533938 -0.29400226
vn -0.52586345 -0.24084489 -0.81575816
vn -0.52586345 -0.24084489 -0.81575816
vn -0.52586345 -0.24084489 -0.81575816
vn -0.06667649 -0.59488562 -0.80104016
vn -0.06667649 -0.59488562 -0.80104016
vn -0.06667649 -0.59488562 -0.80104016
vn 0.38714092 -0.42738227 -0.81698611
vn 0.38714092 -0.42738227 -0.81698611
vn 0.38714092 -0.42738227 -0.81698611
vn -0.95449897 0.15703201 -0.25352054
vn -0.95449897 0.15703201 -0.25352054
vn -0.95449897 0.15703201 -0.25352054
vn -0.97236894 0.13385999 -0.19125938
vn -0.97236894 0.13385999 -0.19125938
vn -0.97236894 0.13385999 -0.19125938
vn 0.13447450 0.02905386 -0.99049103
vn 0.13447450 0.02905386 -0.99049103
vn 0.13447450 0.02905386 -0.99049103
vn 0.43808612 -0.13867973 -0.88817143
vn 0.43808612 -0.13867973 -0.88817143
vn 0.43808612 -0.13867973 -0.88817143
vn -0.86272653 -0.48119162 -0.15542702
vn -0.86272653 -0.48119162 -0.15542702
vn -0.86272653 -0.48119162 -0.15542702
vn -0.02505655 -0.62459503 -0.78054674
vn -0.02505655 -0.62459503 -0.78054674
vn -0.02505655 -0.62459503 -0.78054674
vn 0.81462098 -0.57842020 -0.04269343
vn 0.81462098 -0.57842020 -0.04269343
vn 0.81462098 -0.57842020 -0.04269343
vn -0.53210180 -0.24749681 -0.80969933
vn -0.53210180 -0.24749681 -0.80969933
vn -0.53210180 -0.24749681 -0.80969933
vn 0.38001263 -0.43484324 -0.81639559
vn 0.38001263 -0.43484324 -0.81639559
vn 0.38001263 -0.43484324 -0.81639559
vn -0.98965726 0.10018654 -0.10267019
vn -0.98965726 0.10018654 -0.10267019
vn -0.98965726 0.10018654 -0.10267019
vn -0.80778923 0.15375118 -0.56906690
vn -0.80778923 0.15375118 -0.56906690
vn -0.80778923 0.15375118 -0.56906690
vn -0.07970372 -0.02088794 -0.99659972
vn -0.07970372 -0.02088794 -0.99659972
vn -0.07970372 -0.02088794 -0.99659972
vn 0.08080471 -0.00073046 -0.99672969
vn 0.08080471 -0.00073046 -0.99672969
vn 0.08080471 -0.00073046 -0.99672969
vn 0.97973964 -0.13135675 -0.15118079
vn 0.97973964 -0.13135675 -0.15118079
vn 0.97973964 -0.13135675 -0.15118079
vn 0.79404261 -0.60638000 -0.04242209
vn 0.79404261 -0.60638000 -0.04242209
vn 0.79404261 -0.60638000 -0.04242209
vn 0.69036022 -0.70414287 -0.16608906
vn 0.69036022 -0.70414287 -0.16608906
vn 0.69036022 -0.70414287 -0.16608906
vn -0.83793579 -0.15467020 -0.52339348
vn -0.83793579 -0.15467020 -0.52339348
vn -0.83793579 -0.15467020 -0.52339348
vn -0.83012384 -0.12878143 -0.54250324
vn -0.83012384 -0.12878143 -0.54250324
vn -0.83012384 -0.12878143 -0.54250324
vn -0.03343239 -0.59311306 -0.80442475
vn -0.03343239 -0.59311306 -0.80442475
vn -0.03343239 -0.59311306 -0.80442475
vn 0.33911442 -0.38100382 -0.86013807
vn 0.33911442 -0.38100382 -0.86013807
vn 0.33911442 -0.38100382 -0.86013807
vn 0.78042983 -0.08659408 -0.61921785
vn 0.78042983 -0.08659408 -0.61921785
vn 0.78042983 -0.08659408 -0.61921785
vn 0.30201521 -0.13817539 -0.94323612
vn 0.30201521 -0.13817539 -0.94323612
vn 0.30201521 -0.13817539 -0.94323612
vn -0.40535077 0.15002277 -0.90176711
vn -0.40535077 0.15002277 -0.90176711
vn -0.40535077 0.15002277 -0.90176711
vn 0.49149229 -0.37976795 -0.78371655
vn 0.49149229 -0.37976795 -0.78371655
vn 0.49149229 -0.37976795 -0.78371655
vn 0.55569848 -0.67446394 -0.48610450
vn 0.55569848 -0.67446394 -0.48610450
vn 0.55569848 -0.67446394 -0.48610450
vn -0.51695452 -0.37608748 -0.76897089
vn -0.51695452 -0.37608748 -0.76897089
vn -0.51695452 -0.37608748 -0.76897089
vn -0.44828042 -0.45966770 -0.76664872
vn -0.44828042 -0.45966770 -0.76664872
vn -0.44828042 -0.45966770 -0.76664872
vn 0.77968356 -0.10351763 -0.61755780
vn 0.77968356 -0.10351763 -0.61755780
vn 0.77968356 -0.10351763 -0.61755780
vn 0.90637670 -0.19193250 -0.37635513
vn 0.90637670 -0.19193250 -0.37635513
vn 0.90637670 -0.19193250 -0.37635513
vn -0.42645398 0.03109813 -0.90397451
vn -0.42645398 0.03109813 -0.90397451
vn -0.42645398 0.03109813 -0.90397451
vn -0.44833708 0.04560250 -0.89270055
vn -0.44833708 0.04560250 -0.89270055
vn -0.44833708 0.04560250 -0.89270055
vn 0.54739369 -0.68552610 -0.48001470
vn 0.54739369 -0.68552610 -0.48001470
vn 0.54739369 -0.68552610 -0.48001470
vn -0.84187983 -0.02055425 -0.53927346
vn -0.84187983 -0.02055425 -0.53927346
vn -0.84187983 -0.02055425 -0.53927346
vn -0.43419858 -0.56372653 -0.70262650
vn -0.43419858 -0.56372653 -0.70262650
vn -0.43419858 -0.56372653 -0.70262650
vn 0.38524024 -0.32415428 -0.86401039
vn 0.38524024 -0.32415428 -0.86401039
vn 0.38524024 -0.32415428 -0.86401039
vn 0.78000341 -0.09318482 -0.61879824
vn 0.78000341 -0.09318482 -0.61879824
vn 0.78000341 -0.09318482 -0.61879824
vn 0.96544306 -0.21841759 -0.14217406
vn 0.96544306 -0.21841759 -0.14217406
vn 0.96544306 -0.21841759 -0.14217406
vn 0.07422385 -0.05858173 -0.99551946
vn 0.07422385 -0.05858173 -0.99551946
vn 0.07422385 -0.05858173 -0.99551946
vn -0.40800172 0.13561601 -0.90285264
vn -0.40800172 0.13561601 -0.90285264
vn -0.40800172 0.13561601 -0.90285264
vn -0.97705129 0.09549661 -0.19039743
vn -0.97705129 0.09549661 -0.19039743
vn -0.97705129 0.09549661 -0.19039743
vn 0.56422142 -0.66333949 -0.49156375
vn 0.56422142 -0.66333949 -0.49156375
vn 0.56422142 -0.66333949 -0.49156375
vn -0.23493944 -0.25019503 -0.93925817
vn -0.23493944 -0.25019503 -0.93925817
vn -0.23493944 -0.25019503 -0.93925817
vn 0.75952460 -0.52927209 -0.37814474
vn 0.75952460 -0.52927209 -0.37814474
vn 0.75952460 -0.52927209 -0.37814474
vn -0.44279565 -0.51034178 -0.73721319
vn -0.44279565 -0.51034178 -0.73721319
vn -0.44279565 -0.51034178 -0.73721319
vn 0.78054895 -0.09704950 -0.61751496
vn 0.78054895 -0.09704950 -0.61751496
vn 0.78054895 -0.09704950 -0.61751496
vn 0.94718150 -0.21389601 -0.23894708
vn 0.94718150 -0.21389601 -0.23894708
vn 0.94718150 -0.21389601 -0.23894708
vn -0.16809400 -0.01407931 -0.98567042
vn -0.16809400 -0.01407931 -0.98567042
vn -0.16809400 -0.01407931 -0.98567042
vn -0.41246926 0.11062919 -0.90422911
vn -0.41246926 0.11062919 -0.90422911
vn -0.41246926 0.11062919 -0.90422911
vn 0.54748304 -0.68544365 -0.48003055
vn 0.54748304 -0.68544365 -0.48003055
vn 0.54748304 -0.68544365 -0.48003055
vn -0.84189610 -0.02018984 -0.53926183
vn -0.84189610 -0.02018984 -0.53926183
vn -0.84189610 -0.02018984 -0.53926183
vn -0.43406324 -0.56356395 -0.70284050
vn -0.43406324 -0.56356395 -0.70284050
vn -0.43406324 -0.56356395 -0.70284050
vn 0.38529925 -0.32399488 -0.86404387
vn 0.38529925 -0.32399488 -0.86404387
vn 0.38529925 -0.32399488 -0.86404387
vn 0.78321987 -0.06088499 -0.61875654
vn 0.78321987 -0.06088499 -0.61875654
vn 0.78321987 -0.06088499 -0.61875654
vn 0.02849473 -0.08623782 -0.99586700
vn 0.02849473 -0.08623782 -0.99586700
vn 0.02849473 -0.08623782 -0.99586700
vn -0.41168756 0.11843315 -0.90359667
vn -0.41168756 0.11843315 -0.90359667
vn -0.41168756 0.11843315 -0.90359667
vn 0.54596918 -0.68748139 -0.47883921
vn 0.54596918 -0.68748139 -0.47883921
vn 0.54596918 -0.68748139 -0.47883921
vn 0.84384835 -0.53479137 -0.04379677
vn 0.84384835 -0.53479137 -0.04379677
vn 0.84384835 -0.53479137 -0.04379677
vn -0.51672661 -0.37602046 -0.76915683
vn -0.51672661 -0.37602046 -0.76915683
vn -0.51672661 -0.37602046 -0.76915683
vn -0.44822939 -0.45936646 -0.76685910
vn -0.44822939 -0.45936646 -0.76685910
vn -0.44822939 -0.45936646 -0.76685910
vn 0.39224737 -0.41030725 -0.82328000
vn 0.39224737 -0.41030725 -0.82328000
vn 0.39224737 -0.41030725 -0.82328000
vn 0.76599482 -0.18987337 -0.61416613
vn 0.76599482 -0.18987337 -0.61416613
vn 0.76599482 -0.18987337 -0.61416613
vn 0.84947605 -0.15189498 -0.50529036
vn 0.84947605 -0.15189498 -0.50529036
vn 0.84947605 -0.15189498 -0.50529036
vn -0.41690053 0.08479076 -0.90498866
vn -0.41690053 0.08479076 -0.90498866
vn -0.41690053 0.08479076 -0.90498866
vn -0.40868127 0.08628793 -0.90858902
vn -0.40868127 0.08628793 -0.90858902
vn -0.40868127 0.08628793 -0.90858902
vn -0.98779983 0.12927334 0.08683256
vn -0.98779983 0.12927334 0.08683256
vn -0.98779983 0.12927334 0.08683256
vn 0.56302923 -0.66449355 -0.49137197
vn 0.56302923 -0.66449355 -0.49137197
vn 0.56302923 -0.66449355 -0.49137197
vn -0.04920853 -0.38121043 -0.92317773
vn -0.04920853 -0.38121043 -0.92317773
vn -0.04920853 -0.38121043 -0.92317773
vn 0.89092991 -0.37873357 -0.25060881
vn 0.89092991 -0.37873357 -0.25060881
vn 0.89092991 -0.37873357 -0.25060881
vn -0.82391954 -0.21503896 -0.52432322
vn -0.82391954 -0.21503896 -0.52432322
vn -0.82391954 -0.21503896 -0.52432322
vn -0.43442415 -0.55960409 -0.70577540
vn -0.43442415 -0.55960409 -0.70577540
vn -0.43442415 -0.55960409 -0.70577540
vn 0.91872583 -0.08911952 -0.38470842
vn 0.91872583 -0.08911952 -0.38470842
vn 0.91872583 -0.08911952 -0.38470842
vn 0.00942054 0.03628827 -0.99929696
vn 0.00942054 0.03628827 -0.99929696
vn 0.00942054 0.03628827 -0.99929696
vn 0.38289032 -0.11309864 -0.91684442
vn 0.38289032 -0.11309864 -0.91684442
vn 0.38289032 -0.11309864 -0.91684442
vn -0.79937902 0.08272713 -0.59510453
vn -0.79937902 0.08272713 -0.59510453
vn -0.79937902 0.08272713 -0.59510453
vn -0.94639246 0.20524720 -0.24942916
vn -0.94639246 0.20524720 -0.24942916
vn -0.94639246 0.20524720 -0.24942916
vn 0.77337200 -0.34246309 -0.53349300
vn 0.77337200 -0.34246309 -0.53349300
vn 0.77337200 -0.34246309 -0.53349300
vn -0.85142834 -0.47656204 -0.21899407
vn -0.85142834 -0.47656204 -0.21899407
vn -0.85142834 -0.47656204 -0.21899407
vn 0.74706254 -0.57874399 -0.32703662
vn 0.74706254 -0.57874399 -0.32703662
vn 0.74706254 -0.57874399 -0.32703662
vn -0.46880956 -0.20796163 -0.85846931
vn -0.46880956 -0.20796163 -0.85846931
vn -0.46880956 -0.20796163 -0.85846931
vn -0.11282146 -0.60482233 -0.78832815
vn -0.11282146 -0.60482233 -0.78832815
vn -0.11282146 -0.60482233 -0.78832815
vn 0.92037243 -0.16187227 -0.35596624
vn 0.92037243 -0.16187227 -0.35596624
vn 0.92037243 -0.16187227 -0.35596624
vn 0.84032946 -0.19883510 -0.50429257
vn 0.84032946 -0.19883510 -0.50429257
vn 0.84032946 -0.19883510 -0.50429257
vn 0.03940827 0.04968969 -0.99798694
vn 0.03940827 0.04968969 -0.99798694
vn 0.03940827 0.04968969 -0.99798694
vn -0.52812355 0.02240228 -0.84887199
vn -0.52812355 0.02240228 -0.84887199
vn -0.52812355 0.02240228 -0.84887199
vn -0.93990012 0.21771664 -0.26303466
vn -0.93990012 0.21771664 -0.26303466
vn -0.93990012 0.21771664 -0.26303466
vn -0.86101600 -0.45687588 -0.22341864
vn -0.86101600 -0.45687588 -0.22341864
vn -0.86101600 -0.45687588 -0.22341864
vn -0.07481921 -0.50558775 -0.85952494
vn -0.07481921 -0.50558775 -0.85952494
vn -0.07481921 -0.50558775 -0.85952494
vn 0.74650342 -0.55033327 -0.37398655
vn 0.74650342 -0.55033327 -0.37398655
vn 0.74650342 -0.55033327 -0.37398655
vn 0.73549506 -0.60061618 -0.31353981
vn 0.73549506 -0.60061618 -0.31353981
vn 0.73549506 -0.60061618 -0.31353981
vn -0.81661656 -0.26189617 -0.51434209
vn -0.81661656 -0.26189617 -0.51434209
vn -0.81661656 -0.26189617 -0.51434209
vn -0.05027456 -0.54058357 -0.83978680
vn -0.05027456 -0.54058357 -0.83978680
vn -0.05027456 -0.54058357 -0.83978680
vn -0.16153802 -0.98686649 0.00004505
vn -0.15959079 -0.98718313 0.00050284
vn -0.15713545 -0.98757705 -0.00012543
vn -0.15984960 -0.98714132 -0.00033286
vn -0.16038833 -0.98705347 -0.00101284
vn -0.16057513 -0.98702360 -0.00022067
vn -0.21292543 -0.97097739 0.10892967
vn -0.21292543 -0.97097739 0.10892967
vn -0.21292543 -0.97097739 0.10892967
vn -0.16008473 -0.98710327 -0.00011515
vn -0.16032998 -0.98706347 0.00005576
vn -0.15980962 -0.98714785 -0.00003206
vn -0.15965610 -0.98717269 0.00004715
vn -0.16121698 -0.98691893 -0.00032221
vn -0.15990937 -0.98713163 0.00038263
vn -0.20325136 -0.97120668 -0.12428381
vn -0.20325136 -0.97120668 -0.12428381
vn -0.20325136 -0.97120668 -0.12428381
vn -0.03268728 -0.99794420 0.05512642
vn -0.03268728 -0.99794420 0.05512642
vn -0.03268728 -0.99794420 0.05512642
vn -0.16183555 -0.98681766 0.00040964
vn -0.18856990 -0.98088823 -0.04795496
vn -0.18856990 -0.98088823 -0.04795496
vn -0.18856990 -0.98088823 -0.04795496
vn -0.15955151 -0.98718961 0.00000936
vn -0.16525882 -0.98625019 0.00029856
vn -0.16525882 -0.98625019 0.00029856
vn -0.16525882 -0.98625019 0.00029856
vn -0.16400506 -0.98645570 0.00273602
vn -0.15957373 -0.98718547 -0.00103394
vn -0.16204812 -0.98678089 -0.00196855
vn -0.15689267 -0.98760120 -0.00534501
vn -0.15686131 -0.98760620 -0.00533967
vn -0.15687316 -0.98760431 -0.00534169
vn -0.17051324 -0.98535415 -0.00156026
vn -0.17073197 -0.98531750 -0.00011168
vn -0.16973376 -0.98548995 -0.00006422
vn -0.20807628 -0.97811171 0.00132291
vn -0.20807628 -0.97811171 0.00132291
vn -0.20807628 -0.97811171 0.00132291
vn -0.22787022 -0.97361921 0.01186545
vn -0.22787022 -0.97361921 0.01186545
vn -0.22787022 -0.97361921 0.01186545
vn -0.16062508 -0.98701523 0.00071639
vn -0.16032824 -0.98706369 0.00036735
vn -0.16062501 -0.98701520 0.00077419
vn -0.24970602 -0.96037496 -0.12380157
vn -0.24970602 -0.96037496 -0.12380157
vn -0.24970602 -0.96037496 -0.12380157
vn -0.08856775 -0.99274200 -0.08135764
vn -0.08856775 -0.99274200 -0.08135764
vn -0.08856775 -0.99274200 -0.08135764
vn -0.16385383 -0.98607383 -0.02846630
vn -0.16385383 -0.98607383 -0.02846630
vn -0.16385383 -0.98607383 -0.02846630
vn -0.14870051 -0.98886597 -0.00567987
vn -0.14870051 -0.98886597 -0.00567987
vn -0.14870051 -0.98886597 -0.00567987
vn -0.16064787 -0.98700200 -0.00439383
vn -0.16078396 -0.98698677 0.00237334
vn -0.15972009 -0.98716212 0.00066589
vn -0.16229732 -0.98674153 0.00085903
vn -0.25388029 -0.95003720 -0.18158778
vn -0.25388029 -0.95003720 -0.18158778
vn -0.25388029 -0.95003720 -0.18158778
vn -0.15568847 -0.98774313 -0.01116259
vn -0.15568847 -0.98774313 -0.01116259
vn -0.15568847 -0.98774313 -0.01116259
vn -0.23636265 -0.97055870 -0.04635208
vn -0.23636265 -0.97055870 -0.04635208
vn -0.23636265 -0.97055870 -0.04635208
vn -0.15258283 -0.98818272 -0.01460809
vn -0.15258283 -0.98818272 -0.01460809
vn -0.15258283 -0.98818272 -0.01460809
vn -0.02723962 -0.99904605 0.03413203
vn -0.02723962 -0.99904605 0.03413203
vn -0.02723962 -0.99904605 0.03413203
vn -0.27751574 -0.95801317 -0.07208172
vn -0.27751574 -0.95801317 -0.07208172
vn -0.27751574 -0.95801317 -0.07208172
vn -0.16602096 -0.98609386 -0.00747997
vn -0.16602096 -0.98609386 -0.00747997
vn -0.16602096 -0.98609386 -0.00747997
vn -0.12429890 -0.99060708 0.05698588
vn -0.12429890 -0.99060708 0.05698588
vn -0.12429890 -0.99060708 0.05698588
vn -0.15966528 -0.98717121 0.00001219
vn -0.12534575 -0.99035413 0.05905194
vn -0.12534575 -0.99035413 0.05905194
vn -0.12534575 -0.99035413 0.05905194
vn -0.15933922 -0.98722387 0.00021133
vn -0.22800358 -0.97358220 -0.01233189
vn -0.22800358 -0.97358220 -0.01233189
vn -0.22800358 -0.97358220 -0.01233189
vn -0.18354198 -0.97995595 -0.07745117
vn -0.18354198 -0.97995595 -0.07745117
vn -0.18354198 -0.97995595 -0.07745117
vn -0.14315260 -0.98812709 0.05578697
vn -0.14315260 -0.98812709 0.05578697
vn -0.14315260 -0.98812709 0.05578697
vn -0.16115503 -0.98689768 -0.00787598
vn -0.16115503 -0.98689768 -0.00787598
vn -0.16115503 -0.98689768 -0.00787598
vn -0.16392648 -0.98647170 0.00130383
vn -0.16392648 -0.98647170 0.00130383
vn -0.16135321 -0.98689618 -0.00103495
vn -0.15980432 -0.98714841 0.00076710
vn -0.17432918 -0.98468411 -0.00255633
vn -0.17418824 -0.98470776 -0.00301416
vn -0.17362707 -0.98479960 -0.00483585
vn -0.16055635 -0.98702649 0.00061244
vn -0.16010129 -0.98709908 0.00172531
vn -0.16034840 -0.98706037 0.00047221
vn -0.17416308 -0.98439310 -0.02524776
vn -0.17416308 -0.98439310 -0.02524776
vn -0.17416308 -0.98439310 -0.02524776
vn -0.17844444 -0.98368330 -0.02290727
vn -0.17844444 -0.98368330 -0.02290727
vn -0.17844444 -0.98368330 -0.02290727
vn -0.17482478 -0.98459911 -0.00094531
vn -0.15516891 -0.98307990 -0.09734744
vn -0.15516891 -0.98307990 -0.09734744
vn -0.15516891 -0.98307990 -0.09734744
vn -0.16445724 -0.98503603 0.05155415
vn -0.16445724 -0.98503603 0.05155415
vn -0.16445724 -0.98503603 0.05155415
vn -0.14033484 -0.98995632 -0.01710623
vn -0.14033484 -0.98995632 -0.01710623
vn -0.14033484 -0.98995632 -0.01710623
vn -0.12305647 -0.99213333 0.02299053
vn -0.12305647 -0.99213333 0.02299053
vn -0.12305647 -0.99213333 0.02299053
vn -0.16002023 -0.98711372 0.00017408
vn -0.15995817 -0.98712344 -0.00083065
vn -0.13978859 -0.99015612 -0.00707187
vn -0.13978859 -0.99015612 -0.00707187
vn -0.13978859 -0.99015612 -0.00707187
vn -0.15650699 -0.98745319 0.02101793
vn -0.15650699 -0.98745319 0.02101793
vn -0.15650699 -0.98745319 0.02101793
vn -0.15979978 -0.98714944 -0.00010746
vn -0.11507426 -0.99311612 -0.02186969
vn -0.11507426 -0.99311612 -0.02186969
vn -0.11507426 -0.99311612 -0.02186969
vn -0.19484181 -0.98066628 0.01817447
vn -0.19484181 -0.98066628 0.01817447
vn -0.19484181 -0.98066628 0.01817447
vn -0.15872423 -0.98732254 0.00091129
vn -0.15990518 -0.98713237 0.00008269
vn -0.09899898 -0.99504545 -0.00915227
vn -0.09899898 -0.99504545 -0.00915227
vn -0.09899898 -0.99504545 -0.00915227
vn -0.12215095 -0.98999271 -0.07066525
vn -0.12215095 -0.98999271 -0.07066525
vn -0.12215095 -0.98999271 -0.07066525
vn -0.15950205 -0.98719756 -0.00028136
vn -0.14515003 -0.98929264 -0.01521632
vn -0.14515003 -0.98929264 -0.01521632
vn -0.14515003 -0.98929264 -0.01521632
vn -0.15585388 -0.98777686 -0.00253688
vn -0.15593941 -0.98776376 -0.00237660
vn -0.15602567 -0.98775052 -0.00221493
vn -0.16007905 -0.98710334 -0.00130497
vn -0.15901327 -0.98727409 -0.00215514
vn -0.16008193 -0.98710109 -0.00228255
vn -0.16007406 -0.98710497 0.00026269
vn -0.15927656 -0.98723333 0.00115339
vn -0.16032298 -0.98706451 0.00043778
vn -0.15919253 -0.98724653 -0.00142120
vn -0.15992931 -0.98712739 0.00145949
vn -0.15949035 -0.98719939 -0.00044018
vn -0.16236209 -0.98673108 0.00057473
vn -0.14980635 -0.98865003 -0.01136587
vn -0.14980635 -0.98865003 -0.01136587
vn -0.14980635 -0.98865003 -0.01136587
vn -0.18647771 -0.98242245 0.00849647
vn -0.18647771 -0.98242245 0.00849647
vn -0.18647771 -0.98242245 0.00849647
vn -0.16477957 -0.98628969 -0.00896340
vn -0.16477957 -0.98628969 -0.00896340
vn -0.16477957 -0.98628969 -0.00896340
vn -0.16024985 -0.98707648 0.00010377
vn -0.16709263 -0.98594010 0.00147551
vn -0.15690196 -0.98759971 -0.00534659
vn -0.15199233 -0.98837670 -0.00313508
vn -0.15339031 -0.98815634 -0.00429724
vn -0.15229255 -0.98832966 -0.00338463
vn -0.16074444 -0.98699444 0.00179000
vn -0.16549542 -0.98620910 0.00169315
vn -0.15109941 -0.98851568 -0.00239300
vn -0.16325338 -0.98658417 0.00011332
vn -0.15729591 -0.98755029 0.00155809
vn -0.15729591 -0.98755029 0.00155809
vn -0.15577369 -0.98778912 -0.00268717
vn -0.19066850 -0.97976033 0.06095261
vn -0.19066850 -0.97976033 0.06095261
vn -0.19066850 -0.97976033 0.06095261
vn -0.60006679 -0.50993075 0.61635256
vn -0.60006679 -0.50993075 0.61635256
vn -0.60006679 -0.50993075 0.61635256
vn -0.58290954 -0.67198645 0.45678297
vn -0.58290954 -0.67198645 0.45678297
vn -0.58290954 -0.67198645 0.45678297
vn -0.61741870 -0.72842268 0.29697568
vn -0.61741870 -0.72842268 0.29697568
vn -0.61741870 -0.72842268 0.29697568
vn -0.44694428 -0.20130977 0.87161642
vn -0.44694428 -0.20130977 0.87161642
vn -0.44694428 -0.20130977 0.87161642
vn -0.43062201 -0.82348033 0.36938440
vn -0.43062201 -0.82348033 0.36938440
vn -0.43062201 -0.82348033 0.36938440
vn -0.54310217 -0.81482216 0.20274341
vn -0.54310217 -0.81482216 0.20274341
vn -0.54310217 -0.81482216 0.20274341
vn -0.79881196 -0.57352799 0.18156295
vn -0.79881196 -0.57352799 0.18156295
vn -0.79881196 -0.57352799 0.18156295
vn -0.72748877 -0.68283351 0.06707084
vn -0.72748877 -0.68283351 0.06707084
vn -0.72748877 -0.68283351 0.06707084
vn -0.90310298 -0.42940783 0.00373104
vn -0.90310298 -0.42940783 0.00373104
vn -0.90310298 -0.42940783 0.00373104
vn -0.18759125 -0.91838176 0.34840274
vn -0.18759125 -0.91838176 0.34840274
vn -0.18759125 -0.91838176 0.34840274
vn 0.63771309 -0.11731162 0.76128838
vn 0.63771309 -0.11731162 0.76128838
vn 0.63771309 -0.11731162 0.76128838
vn -0.17992594 -0.59517040 0.78319784
vn -0.17992594 -0.59517040 0.78319784
vn -0.17992594 -0.59517040 0.78319784
vn 0.40721324 -0.91300679 -0.02441270
vn 0.40721324 -0.91300679 -0.02441270
vn 0.40721324 -0.91300679 -0.02441270
vn -0.15900008 -0.70004489 0.69617248
vn -0.15900008 -0.70004489 0.69617248
vn -0.15900008 -0.70004489 0.69617248
vn 0.74441737 -0.41804805 0.52065209
vn 0.74441737 -0.41804805 0.52065209
vn 0.74441737 -0.41804805 0.52065209
vn -0.44093451 -0.89321362 0.08801245
vn -0.44093451 -0.89321362 0.08801245
vn -0.44093451 -0.89321362 0.08801245
vn 0.34985233 -0.78952907 0.50422930
vn 0.34985233 -0.78952907 0.50422930
vn 0.34985233 -0.78952907 0.50422930
vn -0.70340475 -0.68611651 0.18564992
vn -0.70340475 -0.68611651 0.18564992
vn -0.70340475 -0.68611651 0.18564992
vn 0.94371332 -0.15419841 0.29262265
vn 0.94371332 -0.15419841 0.29262265
vn 0.94371332 -0.15419841 0.29262265
vn 0.97049982 -0.16968800 0.17127781
vn 0.97049982 -0.16968800 0.17127781
vn 0.97049982 -0.16968800 0.17127781
vn 0.66676929 -0.09733560 0.73888056
vn 0.66676929 -0.09733560 0.73888056
vn 0.66676929 -0.09733560 0.73888056
vn 0.03442030 -0.01310846 0.99932148
vn 0.03442030 -0.01310846 0.99932148
vn 0.03442030 -0.01310846 0.99932148
vn -0.00677649 -0.01042222 0.99992273
vn -0.00677649 -0.01042222 0.99992273
vn -0.00677649 -0.01042222 0.99992273
vn -0.70297190 0.11346411 0.70210854
vn -0.70297190 0.11346411 0.70210854
vn -0.70297190 0.11346411 0.70210854
vn -0.91046301 0.12583468 0.39398317
vn -0.91046301 0.12583468 0.39398317
vn -0.91046301 0.12583468 0.39398317
vn -0.98546650 0.16743613 -0.02865168
vn -0.98546650 0.16743613 -0.02865168
vn -0.98546650 0.16743613 -0.02865168
vn -0.72202726 0.10794433 0.68339202
vn -0.72202726 0.10794433 0.68339202
vn -0.72202726 0.10794433 0.68339202
vn -0.98747316 0.15720266 0.01356795
vn -0.98747316 0.15720266 0.01356795
vn -0.98747316 0.15720266 0.01356795
vn -0.94799231 0.14858553 0.28148342
vn -0.94799231 0.14858553 0.28148342
vn -0.94799231 0.14858553 0.28148342
vn -0.91531499 0.15483908 0.37178397
vn -0.91531499 0.15483908 0.37178397
vn -0.91531499 0.15483908 0.37178397
vn -0.84239562 0.12772816 0.52350276
vn -0.84239562 0.12772816 0.52350276
vn -0.84239562 0.12772816 0.52350276
vn -0.71370051 0.11044387 0.69168904
vn -0.71370051 0.11044387 0.69168904
vn -0.71370051 0.11044387 0.69168904
vn -0.65698644 0.11227068 0.74549589
vn -0.65698644 0.11227068 0.74549589
vn -0.65698644 0.11227068 0.74549589
vn -0.41676189 0.05527765 0.90733340
vn -0.41676189 0.05527765 0.90733340
vn -0.41676189 0.05527765 0.90733340
vn -0.28009825 0.05174207 0.95857588
vn -0.28009825 0.05174207 0.95857588
vn -0.28009825 0.05174207 0.95857588
f 1//1 2//2 3//3
f 4//4 5//5 6//6
f 7//7 8//8 9//9
f 10//10 11//11 12//12
f 13//13 14//14 15//15
f 16//16 17//17 18//18
f 19//19 20//20 21//21
f 22//22 23//23 24//24
f 25//25 26//26 27//27
f 28//28 29//29 30//30
f 31//31 32//32 33//33
f 34//34 35//35 36//36
f 37//37 38//38 39//39
f 40//40 41//41 42//42
f 43//43 44//44 45//45
f 46//46 47//47 48//48
f 49//49 50//50 51//51
f 52//52 53//53 54//54
f 55//55 56//56 57//57
f 58//58 59//59 60//60
f 61//61 62//62 63//63
f 64//64 65//65 66//66
f 64//64 67//67 65//65
f 68//68 69//69 70//70
f 71//71 72//72 73//73
f 74//74 75//75 76//76
f 77//77 78//78 79//79
f 80//80 81//81 82//82
f 83//83 84//84 85//85
f 86//86 87//87 88//88
f 89//89 90//90 91//91
f 92//92 93//93 94//94
f 95//95 96//96 97//97
f 98//98 99//99 100//100
f 101//101 102//102 103//103
f 104//104 105//105 106//106
f 107//107 108//108 109//109
f 110//110 111//111 112//112
f 113//113 114//114 115//115
f 116//116 117//117 118//118
f 119//119 120//120 121//121
f 122//122 123//123 124//124
f 125//125 126//126 127//127
f 128//128 129//129 130//130
f 131//131 132//132 133//133
f 134//134 135//135 136//136
f 137//137 138//138 139//139
f 140//140 141//141 142//142
f 143//143 144//144 145//145
f 146//146 147//147 148//148
f 149//149 150//150 151//151
f 152//152 153//153 154//154
f 155//155 156//156 157//157
f 158//158 159//159 160//160
f 161//161 162//162 163//163
f 164//164 165//165 166//166
f 167//167 168//168 169//169
f 170//170 171//171 172//172
f 173//173 174//174 175//175
f 176//176 177//177 178//178
f 179//179 180//180 181//181
f 182//182 183//183 184//184
f 185//185 186//186 187//187
f 188//188 189//189 190//190
f 191//191 192//192 193//193
f 194//194 195//195 196//196
f 197//197 198//198 199//199
f 200//200 201//201 202//202
f 203//203 204//204 205//205
f 206//206 207//207 208//208
f 209//209 210//210 211//211
f 212//212 213//213 214//214
f 215//215 216//216 217//217
f 218//218 219//219 220//220
f 221//221 222//222 223//223
f 224//224 225//225 226//226
f 227//227 228//228 229//229
f 230//230 231//231 232//232
f 233//233 234//234 235//235
f 236//236 237//237 238//238
f 239//239 240//240 241//241
f 242//242 243//243 244//244
f 245//245 246//246 247//247
f 248//248 249//249 250//250
f 251//251 252//252 253//253
f 254//254 255//255 256//256
f 257//257 258//258 259//259
f 260//260 261//261 262//262
f 263//263 264//264 265//265
f 266//266 267//267 268//268
f 269//269 270//270 271//271
f 272//272 273//273 274//274
f 275//275 276//276 277//277
f 278//278 279//279 280//280
f 281//281 282//282 283//283
f 284//284 285//285 286//286
f 287//287 288//288 289//289
f 290//290 291//291 292//292
f 293//293 294//294 295//295
f 296//296 297//297 298//298
f 299//299 300//300 301//301
f 302//302 303//303 304//304
f 305//305 306//306 307//307
f 308//308 309//309 310//310
f 311//311 312//312 313//313
f 314//314 315//315 316//316
f 317//317 318//318 319//319
f 320//320 321//321 322//322
f 323//323 324//324 325//325
f 326//326 327//327 328//328
f 329//329 330//330 331//331
f 332//332 333//333 334//334
f 335//335 336//336 337//337
f 338//338 339//339 340//340
f 341//341 342//342 343//343
f 344//344 345//345 346//346
f 347//347 348//348 349//349
f 350//350 351//351 352//352
f 353//353 354//354 355//355
f 356//356 357//357 358//358
f 359//359 360//360 361//361
f 362//362 363//363 364//364
f 365//365 366//366 367//367
f 368//368 369//369 370//370
f 371//371 372//372 373//373
f 374//374 375//375 376//376
f 377//377 378//378 379//379
f 380//380 381//381 382//382
f 383//383 384//384 385//385
f 386//386 387//387 388//388
f 389//389 390//390 391//391
f 392//392 393//393 394//394
f 395//395 396//396 397//397
f 398//398 399//399 400//400
f 401//401 402//402 403//403
f 404//404 405//405 406//406
f 407//407 408//408 409//409
f 410//410 411//411 412//412
f 413//413 414//414 415//415
f 416//416 417//417 418//418
f 419//419 420//420 421//421
f 422//422 423//423 424//424
f 425//425 426//426 427//427
f 428//428 429//429 430//430
f 431//431 432//432 433//433
f 434//434 435//435 436//436
f 437//437 438//438 439//439
f 440//440 441//441 442//442
f 443//443 444//444 445//445
f 446//446 447//447 448//448
f 449//449 450//450 451//451
f 452//452 453//453 454//454
f 455//455 456//456 457//457
f 458//458 459//459 460//460
f 461//461 462//462 463//463
f 464//464 465//465 466//466
f 467//467 468//468 469//469
f 470//470 471//471 472//472
f 473//473 474//474 475//475
f 476//476 477//477 478//478
f 479//479 480//480 481//481
f 482//482 483//483 484//484
f 485//485 486//486 487//487
f 488//488 489//489 490//490
f 491//491 492//492 493//493
f 494//494 495//495 496//496
f 497//497 498//498 499//499
f 500//500 501//501 502//502
f 503//503 504//504 505//505
f 506//506 507//507 508//508
f 509//509 510//510 511//511
f 512//512 513//513 514//514
f 515//515 516//516 517//517
f 518//518 519//519 520//520
f 521//521 522//522 523//523
f 524//524 525//525 526//526
f 527//527 528//528 529//529
f 530//530 531//531 532//532
f 533//533 534//534 535//535
f 536//536 537//537 538//538
f 539//539 540//540 541//541
f 542//542 543//543 544//544
f 545//545 546//546 547//547
f 548//548 549//549 550//550
f 551//551 552//552 553//553
f 554//554 555//555 556//556
f 557//557 558//558 559//559
f 560//560 561//561 562//562
f 563//563 564//564 565//565
f 566//566 567//567 568//568
f 569//569 570//570 571//571
f 572//572 573//573 574//574
f 575//575 576//576 577//577
f 578//578 579//579 580//580
f 581//581 582//582 583//583
f 584//584 585//585 586//586
f 587//587 588//588 589//589
f 590//590 591//591 592//592
f 593//593 594//594 595//595
f 596//596 597//597 598//598
f 599//599 600//600 601//601
f 602//602 603//603 604//604
f 605//605 606//606 607//607
f 608//608 609//609 610//610
f 611//611 612//612 613//613
f 614//614 615//615 616//616
f 617//617 618//618 619//619
f 620//620 621//621 622//622
f 623//623 624//624 625//625
f 626//626 627//627 628//628
f 629//629 630//630 631//631
f 632//632 633//633 634//634
f 635//635 636//636 637//637
f 638//638 639//639 640//640
f 641//641 642//642 643//643
f 644//644 645//645 646//646
f 647//647 648//648 649//649
f 650//650 651//651 652//652
f 653//653 654//654 655//655
f 656//656 657//657 658//658
f 659//659 660//660 661//661
f 662//662 663//663 664//664
f 665//665 666//666 667//667
f 668//668 669//669 670//670
f 671//671 672//672 673//673
f 674//674 675//675 676//676
f 677//677 678//678 679//679
f 680//680 681//681 682//682
f 683//683 684//684 685//685
f 686//686 687//687 688//688
f 689//689 690//690 691//691
f 692//692 693//693 694//694
f 695//695 696//696 697//697
f 698//698 699//699 700//700
f 701//701 702//702 703//703
f 704//704 705//705 706//706
f 707//707 708//708 709//709
f 710//710 711//711 712//712
f 713//713 714//714 715//715
f 716//716 717//717 718//718
f 719//719 720//720 721//721
f 722//722 723//723 724//724
f 725//725 726//726 727//727
f 728//728 729//729 730//730
f 731//731 732//732 733//733
f 734//734 735//735 736//736
f 737//737 738//738 739//739
f 740//740 741//741 742//742
f 743//743 744//744 745//745
f 746//746 747//747 748//748
f 749//749 750//750 751//751
f 752//752 753//753 754//754
f 755//755 756//756 757//757
f 758//758 759//759 760//760
f 761//761 762//762 763//763
f 764//764 765//765 766//766
f 767//767 768//768 769//769
f 770//770 771//771 772//772
f 773//773 774//774 775//775
f 776//776 777//777 778//778
f 779//779 780//780 781//781
f 782//782 783//783 784//784
f 785//785 786//786 787//787
f 788//788 789//789 790//790
f 791//791 792//792 793//793
f 794//794 795//795 796//796
f 797//797 798//798 799//799
f 800//800 801//801 802//802
f 803//803 804//804 805//805
f 806//806 807//807 808//808
f 809//809 810//810 811//811
f 812//812 813//813 814//814
f 815//815 816//816 817//817
f 818//818 819//819 820//820
f 821//821 822//822 823//823
f 824//824 825//825 826//826
f 827//827 828//828 829//829
f 830//830 831//831 832//832
f 833//833 834//834 835//835
f 836//836 837//837 838//838
f 836//836 838//838 839//839
f 830//830 840//840 831//831
f 841//841 840//840 830//830
f 842//842 843//843 844//844
f 845//845 846//846 847//847
f 841//841 848//848 840//840
f 849//849 850//850 851//851
f 852//852 836//836 839//839
f 853//853 854//854 855//855
f 856//856 857//857 858//858
f 859//859 860//860 861//861
f 862//862 863//863 864//864
f 865//865 866//866 867//867
f 868//868 869//869 870//870
f 871//871 872//872 873//873
f 874//874 875//875 876//876
f 877//877 878//878 879//879
f 880//880 881//881 882//882
f 883//883 884//884 885//885
f 858//858 857//857 886//886
f 887//887 888//888 889//889
f 890//890 891//891 892//892
f 893//893 894//894 895//895
f 896//896 897//897 898//898
f 899//899 900//900 901//901
f 902//902 903//903 904//904
f 905//905 906//906 907//907
f 908//908 909//909 910//910
f 911//911 912//912 913//913
f 914//914 841//841 830//830
f 915//915 916//916 917//917
f 918//918 872//872 871//871
f 919//919 920//920 921//921
f 922//922 923//923 924//924
f 925//925 926//926 927//927
f 928//928 929//929 930//930
f 931//931 932//932 827//827
f 933//933 934//934 856//856
f 935//935 936//936 937//937
f 938//938 939//939 940//940
f 941//941 942//942 943//943
f 944//944 945//945 946//946
f 935//935 947//947 936//936
f 948//948 949//949 950//950
f 951//951 952//952 953//953
f 954//954 955//955 956//956
f 957//957 958//958 959//959
f 838//838 960//960 961//961
f 962//962 963//963 964//964
f 965//965 966//966 967//967
f 968//968 852//852 839//839
f 969//969 970//970 971//971
f 972//972 973//973 974//974
f 975//975 872//872 918//918
f 975//975 968//968 839//839
f 975//975 839//839 872//872
f 968//968 976//976 852//852
f 977//977 978//978 979//979
f 838//838 837//837 960//960
f 980//980 981//981 982//982
f 983//983 976//976 968//968
f 975//975 918//918 857//857
f 984//984 985//985 986//986
f 987//987 988//988 989//989
f 990//990 991//991 934//934
f 990//990 934//934 933//933
f 934//934 975//975 857//857
f 992//992 990//990 933//933
f 993//993 914//914 976//976
f 994//994 995//995 996//996
f 990//990 997//997 998//998
f 990//990 998//998 991//991
f 994//994 999//999 995//995
f 1000//1000 1001//1001 1002//1002
f 1003//1003 1004//1004 1005//1005
f 1006//1006 1007//1007 1008//1008
f 1009//1009 993//993 976//976
f 828//828 997//997 990//990
f 864//864 863//863 1010//1010
f 1011//1011 859//859 861//861
f 1012//1012 1013//1013 1014//1014
f 993//993 841//841 914//914
f 1015//1015 997//997 828//828
f 832//832 938//938 940//940
f 993//993 995//995 841//841
f 1016//1016 864//864 1010//1010
f 832//832 831//831 938//938
f 888//888 996//996 995//995
f 888//888 995//995 993//993
f 836//836 832//832 940//940
f 836//836 940//940 837//837
f 1009//1009 976//976 983//983
f 889//889 888//888 993//993
f 1017//1017 1012//1012 1014//1014
f 848//848 1018//1018 840//840
f 1019//1019 1020//1020 994//994
f 827//827 1015//1015 828//828
f 987//987 1021//1021 988//988
f 998//998 983//983 991//991
f 998//998 1009//1009 983//983
f 1022//1022 1023//1023 1024//1024
f 1025//1025 1026//1026 1027//1027
f 1028//1028 1029//1029 1030//1030
f 1031//1031 1032//1032 1033//1033
f 1034//1034 1035//1035 1036//1036
f 1037//1037 1038//1038 1039//1039
f 1040//1040 1041//1041 1042//1042
f 1043//1043 1044//1044 1045//1045
f 1046//1046 1047//1047 1048//1048
f 1049//1049 1050//1050 1051//1051
f 1052//1052 1053//1053 1054//1054
f 1055//1055 1056//1056 1057//1057
f 1058//1058 1059//1059 1060//1060
f 1061//1061 1062//1062 1063//1063
f 1064//1064 1065//1065 1066//1066
f 1067//1067 1068//1068 1069//1069
f 1070//1070 1071//1071 1072//1072
f 1073//1073 1074//1074 1075//1075
f 1076//1076 1077//1077 1078//1078
f 1079//1079 1080//1080 1081//1081
f 1082//1082 1083//1083 1084//1084
f 1085//1085 1086//1086 1087//1087
f 1088//1088 1089//1089 1090//1090
f 1091//1091 1092//1092 1093//1093
f 1094//1094 1095//1095 1096//1096
f 1097//1097 1098//1098 1099//1099
f 1100//1100 1101//1101 1102//1102
f 1103//1103 1104//1104 1105//1105
f 1106//1106 1107//1107 1108//1108
f 1109//1109 1110//1110 1111//1111
f 1112//1112 1113//1113 1114//1114
f 1115//1115 1116//1116 1117//1117
f 1118//1118 1119//1119 1120//1120
f 1121//1121 1122//1122 1123//1123
f 1124//1124 1125//1125 1126//1126
f 1127//1127 1128//1128 1129//1129
