# https://github.com/mikedh/trimesh
v -0.02556133 0.07589513 0.04064399
v -0.02707463 0.07565468 0.04000157
v -0.02716821 0.07564133 0.04000157
v -0.02832305 0.07545632 0.03916937
v -0.02736449 0.07560533 0.03765553
v -0.02825528 0.07545483 0.03782480
v -0.02848589 0.07542520 0.03633189
v -0.02826327 0.07546216 0.03604763
v -0.02846533 0.07542949 0.03583765
v -0.02911812 0.07529574 0.03763115
v -0.02832305 0.07545632 0.03916937
v -0.02825528 0.07545483 0.03782480
v -0.02832305 0.07545632 0.03916937
v -0.02716821 0.07564133 0.04000157
v -0.02717119 0.07563906 0.03947538
v -0.02240002 0.07641178 0.03818774
v -0.02320486 0.07628142 0.03822362
v -0.02313262 0.07625848 0.03864157
v -0.02240002 0.07641178 0.03818774
v -0.02313262 0.07625848 0.03864157
v -0.02276617 0.07630652 0.03873229
v -0.02619814 0.07579660 0.03845000
v -0.02706402 0.07565641 0.03949350
v -0.02832305 0.07545632 0.03916937
v -0.02689617 0.07568353 0.03774285
v -0.02736449 0.07560533 0.03765553
v -0.02689617 0.07568353 0.03625690
v -0.02819085 0.07547718 0.03494668
v -0.02773267 0.07554799 0.03560948
v -0.02773267 0.07554799 0.03560948
v -0.02819085 0.07547718 0.03494668
v -0.02786785 0.07552617 0.03552693
v -0.02779614 0.07553780 0.03587388
v -0.02773940 0.07554763 0.03576207
v -0.02786463 0.07552683 0.03562498
v -0.02375853 0.07619178 0.03439170
v -0.02375495 0.07619231 0.03447026
v -0.02338773 0.07624405 0.03396779
v -0.02689617 0.07568353 0.03625690
v -0.02773267 0.07554799 0.03560948
v -0.02765917 0.07555991 0.03581076
v -0.02848589 0.07542520 0.03633189
v -0.02846533 0.07542949 0.03583765
v -0.02897042 0.07533895 0.03612375
v -0.02748924 0.07558751 0.03424227
v -0.02619814 0.07579660 0.03554981
v -0.02578645 0.07585251 0.03532356
v -0.02748924 0.07558751 0.03424227
v -0.02578645 0.07585251 0.03532356
v -0.02630174 0.07577943 0.03450000
v -0.02473163 0.07603412 0.03554981
v -0.02375495 0.07619231 0.03447026
v -0.02426999 0.07610887 0.03458011
v -0.02375495 0.07619231 0.03447026
v -0.02256989 0.07639008 0.03487139
v -0.02338773 0.07624405 0.03396779
v -0.02256989 0.07639008 0.03487139
v -0.02403366 0.07614719 0.03625690
v -0.02331900 0.07625281 0.03617566
v -0.02434158 0.07609730 0.03401434
v -0.02375853 0.07619178 0.03439170
v -0.02338773 0.07624405 0.03396779
v -0.02876955 0.07537966 0.03700000
v -0.02848589 0.07542520 0.03633189
v -0.02897042 0.07533895 0.03612375
v -0.02489650 0.07600557 0.03384423
v -0.02434158 0.07609730 0.03401434
v -0.02338773 0.07624405 0.03396779
v -0.02479583 0.07598519 0.04072833
v -0.02489650 0.07600557 0.04015552
v -0.02578783 0.07585585 0.04032576
v -0.02426999 0.07610887 0.03447198
v -0.02242869 0.07640510 0.03634423
v -0.02194797 0.07648605 0.03733485
v -0.02256989 0.07639008 0.03487139
v -0.02489662 0.07600504 0.03884428
v -0.02383697 0.07614028 0.03936338
v -0.02473163 0.07603412 0.03845000
v -0.02454829 0.07606387 0.03437381
v -0.02435928 0.07609444 0.03437381
v -0.02434158 0.07609730 0.03401434
v -0.02489650 0.07600557 0.03384423
v -0.02826339 0.07546216 0.03551322
v -0.02456551 0.07610911 0.03447222
v -0.02454829 0.07606387 0.03437381
v -0.02489650 0.07600557 0.03384423
v -0.02216041 0.07645010 0.03699928
v -0.02194797 0.07648605 0.03733485
v -0.02242869 0.07640510 0.03634423
v -0.02456551 0.07610911 0.03447222
v -0.02435928 0.07609444 0.03458011
v -0.02435928 0.07609444 0.03447198
v -0.02578741 0.07585453 0.03367501
v -0.02489650 0.07600557 0.03384423
v -0.02338773 0.07624405 0.03396779
v -0.02760750 0.07556241 0.03617346
v -0.02689617 0.07568353 0.03625690
v -0.02765917 0.07555991 0.03581076
v -0.02578741 0.07585453 0.03367501
v -0.02338773 0.07624405 0.03396779
v -0.02497512 0.07597124 0.03328132
v -0.02331900 0.07625281 0.03617566
v -0.02242869 0.07640510 0.03634423
v -0.02256989 0.07639008 0.03487139
v -0.02660191 0.07573121 0.03948873
v -0.02646201 0.07575386 0.03955799
v -0.02630180 0.07577961 0.03949928
v -0.02800643 0.07550376 0.03574299
v -0.02779614 0.07553780 0.03587388
v -0.02786463 0.07552683 0.03562498
v -0.02637130 0.07576853 0.03973639
v -0.02808314 0.07549130 0.03571337
v -0.02786785 0.07552617 0.03552693
v -0.02826339 0.07546216 0.03551322
v -0.02660191 0.07573121 0.03948873
v -0.02630180 0.07577961 0.03949928
v -0.02578669 0.07585310 0.03867584
v -0.02789497 0.07552176 0.03590399
v -0.02637130 0.07576853 0.03973639
v -0.02578783 0.07585585 0.04032576
v -0.02630180 0.07577961 0.03949928
v -0.02489656 0.07600528 0.03515559
v -0.02435928 0.07609444 0.03458011
v -0.02489656 0.07600528 0.03515559
v -0.02435928 0.07609444 0.03458011
v -0.02456551 0.07610911 0.03447222
v -0.02242863 0.07640540 0.03765577
v -0.02825105 0.07546406 0.03561186
v -0.02760750 0.07556241 0.03617346
v -0.02765917 0.07555991 0.03581076
v -0.02786260 0.07552701 0.03601390
v -0.02825105 0.07546406 0.03561186
v -0.02807253 0.07549244 0.03582316
v -0.02808314 0.07549130 0.03571337
v -0.02706271 0.07563799 0.03364133
v -0.02578741 0.07585453 0.03367501
v -0.02497512 0.07597124 0.03328132
v -0.02642858 0.07575929 0.03990316
v -0.02473163 0.07603412 0.03554981
v -0.02426999 0.07610887 0.03458011
v -0.02489656 0.07600528 0.03515559
v -0.02911812 0.07529574 0.03763115
v -0.02876955 0.07537966 0.03700000
v -0.02897042 0.07533895 0.03612375
v -0.02911812 0.07529574 0.03763115
v -0.02825528 0.07545483 0.03782480
v -0.02876955 0.07537966 0.03700000
v -0.02709609 0.07565069 0.03700053
v -0.02689617 0.07568353 0.03625690
v -0.02760750 0.07556241 0.03617346
v -0.02462804 0.07605063 0.03949981
v -0.02383697 0.07614028 0.03936338
v -0.02489662 0.07600504 0.03884428
v -0.02556133 0.07589513 0.04064399
v -0.02479583 0.07598519 0.04072833
v -0.02578783 0.07585585 0.04032576
v -0.02261495 0.07637697 0.03793162
v -0.02194797 0.07648605 0.03733485
v -0.02242863 0.07640540 0.03765577
v -0.02240002 0.07641178 0.03818774
v -0.02194797 0.07648605 0.03733485
v -0.02261495 0.07637697 0.03793162
v -0.02272129 0.07641750 0.03791904
v -0.02261495 0.07637697 0.03793162
v -0.02242863 0.07640540 0.03765577
v -0.02383387 0.07617908 0.03700000
v -0.02331900 0.07625281 0.03617566
v -0.02403366 0.07614719 0.03625690
v -0.02578669 0.07585310 0.03867584
v -0.02489662 0.07600504 0.03884428
v -0.02473163 0.07603412 0.03845000
v -0.02706271 0.07563799 0.03364133
v -0.02630174 0.07577943 0.03450000
v -0.02578741 0.07585453 0.03367501
v -0.02809345 0.07548958 0.03599232
v -0.02786260 0.07552701 0.03601390
v -0.02802973 0.07549989 0.03590399
v -0.02578645 0.07585251 0.03532356
v -0.02479583 0.07598519 0.04072833
v -0.02356392 0.07620149 0.04013478
v -0.02383697 0.07614028 0.03936338
v -0.02670741 0.07571440 0.03984892
v -0.02645343 0.07575529 0.03977870
v -0.02648854 0.07574951 0.03965842
v -0.02670741 0.07571440 0.03984892
v -0.02657461 0.07573515 0.03990310
v -0.02645343 0.07575529 0.03977870
v -0.02897042 0.07533895 0.03612375
v -0.02844917 0.07543206 0.03567868
v -0.02826339 0.07546216 0.03551322
v -0.02897042 0.07533895 0.03612375
v -0.02826339 0.07546216 0.03551322
v -0.02819085 0.07547718 0.03494668
v -0.02660894 0.07573002 0.03958821
v -0.02276617 0.07630652 0.03873229
v -0.02232486 0.07638549 0.03897452
v -0.02194797 0.07648605 0.03733485
v -0.02760750 0.07556241 0.03617346
v -0.02786260 0.07552701 0.03601390
v -0.02809345 0.07548958 0.03599232
v -0.02276617 0.07630652 0.03873229
v -0.02194797 0.07648605 0.03733485
v -0.02240002 0.07641178 0.03818774
v -0.02320486 0.07628142 0.03812533
v -0.02259415 0.07638037 0.03812402
v -0.02272129 0.07641750 0.03791904
v -0.02320486 0.07628142 0.03812533
v -0.02272129 0.07641750 0.03791904
v -0.02354973 0.07622390 0.03766775
v -0.02706402 0.07565641 0.03949350
v -0.02578669 0.07585310 0.03867584
v -0.02619814 0.07579660 0.03845000
v -0.02833288 0.07545089 0.03589016
v -0.02820783 0.07547134 0.03594273
v -0.02807253 0.07549244 0.03582316
v -0.02706402 0.07565641 0.03949350
v -0.02748924 0.07558751 0.03424227
v -0.02630174 0.07577943 0.03450000
v -0.02706271 0.07563799 0.03364133
v -0.02833288 0.07545089 0.03589016
v -0.02839577 0.07544052 0.03576225
v -0.02619814 0.07579660 0.03554981
v -0.02473163 0.07603412 0.03554981
v -0.02578645 0.07585251 0.03532356
v -0.02807253 0.07549244 0.03582316
v -0.02403366 0.07614719 0.03774285
v -0.02354973 0.07622390 0.03766775
v -0.02383387 0.07617908 0.03700000
v -0.02320486 0.07628142 0.03822362
v -0.02320486 0.07628142 0.03812533
v -0.02403366 0.07614719 0.03774285
v -0.02320486 0.07628142 0.03812533
v -0.02354973 0.07622390 0.03766775
v -0.02403366 0.07614719 0.03625690
v -0.02313262 0.07625848 0.03864157
v -0.02320486 0.07628142 0.03822362
v -0.02403366 0.07614719 0.03774285
v -0.02819085 0.07547718 0.03494668
v -0.02748924 0.07558751 0.03424227
v -0.02706271 0.07563799 0.03364133
v -0.02844917 0.07543206 0.03567868
v -0.02462804 0.07605063 0.03949981
v -0.02479583 0.07598519 0.04072833
v -0.02383697 0.07614028 0.03936338
v -0.02848589 0.07542520 0.03633189
v -0.02809345 0.07548958 0.03599232
v -0.02556133 0.07589513 0.04064399
v -0.02642858 0.07575929 0.03990316
v -0.02659249 0.07573276 0.04000622
v -0.02556133 0.07589513 0.04064399
v -0.02578783 0.07585585 0.04032576
v -0.02642858 0.07575929 0.03990316
v -0.02489650 0.07600557 0.04015552
v -0.02479583 0.07598519 0.04072833
v -0.02462804 0.07605063 0.03949981
v -0.02689617 0.07568353 0.03774285
v -0.02709609 0.07565069 0.03700053
v -0.02736449 0.07560533 0.03765553
v -0.02556133 0.07589513 0.04064399
v -0.02659249 0.07573276 0.04000622
v -0.02675497 0.07570642 0.03992921
v -0.02619814 0.07579660 0.03845000
v -0.02578669 0.07585310 0.03867584
v -0.02473163 0.07603412 0.03845000
v -0.02707463 0.07565468 0.04000157
v -0.02675497 0.07570642 0.03992921
v -0.02707117 0.07565522 0.03960454
v -0.02194797 0.07648605 0.03733485
v -0.02183032 0.07630836 0.03549927
v -0.02256989 0.07639008 0.03487139
v -0.02194797 0.07648605 0.03733485
v -0.02152431 0.07632911 0.03698772
v -0.02183032 0.07630836 0.03549927
v -0.02180922 0.07641983 0.03806334
v -0.02152431 0.07632911 0.03698772
v -0.02194797 0.07648605 0.03733485
v -0.02232486 0.07638549 0.03897452
v -0.02208918 0.07610833 0.03912597
v -0.02162700 0.07614022 0.03821229
v -0.02232486 0.07638549 0.03897452
v -0.02162700 0.07614022 0.03821229
v -0.02180922 0.07641983 0.03806334
v -0.02194797 0.07648605 0.03733485
v -0.02232486 0.07638549 0.03897452
v -0.02180922 0.07641983 0.03806334
v -0.02497512 0.07597124 0.03328132
v -0.02473783 0.07574981 0.03308033
v -0.02613610 0.07547891 0.03304994
v -0.02497512 0.07597124 0.03328132
v -0.02370363 0.07584375 0.03338193
v -0.02473783 0.07574981 0.03308033
v -0.02180922 0.07641983 0.03806334
v -0.02162700 0.07614022 0.03821229
v -0.02152431 0.07632911 0.03698772
v -0.02338773 0.07624405 0.03396779
v -0.02370363 0.07584375 0.03338193
v -0.02497512 0.07597124 0.03328132
v -0.02338773 0.07624405 0.03396779
v -0.02256006 0.07609242 0.03423959
v -0.02370363 0.07584375 0.03338193
v -0.02256989 0.07639008 0.03487139
v -0.02256006 0.07609242 0.03423959
v -0.02338773 0.07624405 0.03396779
v -0.02183032 0.07630836 0.03549927
v -0.02256006 0.07609242 0.03423959
v -0.02256989 0.07639008 0.03487139
v -0.02152431 0.07632911 0.03698772
v -0.02152311 0.07616448 0.03624063
v -0.02183032 0.07630836 0.03549927
v -0.02933174 0.07500988 0.03656172
v -0.02927827 0.07495254 0.03779500
v -0.02911812 0.07529574 0.03763115
v -0.02897042 0.07533895 0.03612375
v -0.02933174 0.07500988 0.03656172
v -0.02911812 0.07529574 0.03763115
v -0.02897042 0.07533895 0.03612375
v -0.02910888 0.07505124 0.03564494
v -0.02933174 0.07500988 0.03656172
v -0.02870017 0.07518649 0.03485292
v -0.02910888 0.07505124 0.03564494
v -0.02897042 0.07533895 0.03612375
v -0.02706271 0.07563799 0.03364133
v -0.02870017 0.07518649 0.03485292
v -0.02897042 0.07533895 0.03612375
v -0.02706271 0.07563799 0.03364133
v -0.02897042 0.07533895 0.03612375
v -0.02819085 0.07547718 0.03494668
v -0.02590626 0.07561439 0.04094326
v -0.02479583 0.07598519 0.04072833
v -0.02556133 0.07589513 0.04064399
v -0.02706271 0.07563799 0.03364133
v -0.02819681 0.07518541 0.03419578
v -0.02870017 0.07518649 0.03485292
v -0.02706271 0.07563799 0.03364133
v -0.02755886 0.07529389 0.03366303
v -0.02819681 0.07518541 0.03419578
v -0.02735668 0.07556676 0.04021024
v -0.02725613 0.07528555 0.04056000
v -0.02590626 0.07561439 0.04094326
v -0.02735668 0.07556676 0.04021024
v -0.02590626 0.07561439 0.04094326
v -0.02556133 0.07589513 0.04064399
v -0.02706271 0.07563799 0.03364133
v -0.02613610 0.07547891 0.03304994
v -0.02755886 0.07529389 0.03366303
v -0.02735668 0.07556676 0.04021024
v -0.02556133 0.07589513 0.04064399
v -0.02716821 0.07564133 0.04000157
v -0.02735668 0.07556676 0.04021024
v -0.02840811 0.07514113 0.03959691
v -0.02725613 0.07528555 0.04056000
v -0.02497512 0.07597124 0.03328132
v -0.02613610 0.07547891 0.03304994
v -0.02706271 0.07563799 0.03364133
v -0.02735668 0.07556676 0.04021024
v -0.02716821 0.07564133 0.04000157
v -0.02832305 0.07545632 0.03916937
v -0.02832305 0.07545632 0.03916937
v -0.02840811 0.07514113 0.03959691
v -0.02735668 0.07556676 0.04021024
v -0.02892512 0.07509779 0.03878146
v -0.02840811 0.07514113 0.03959691
v -0.02832305 0.07545632 0.03916937
v -0.02911812 0.07529574 0.03763115
v -0.02892512 0.07509779 0.03878146
v -0.02832305 0.07545632 0.03916937
v -0.02911812 0.07529574 0.03763115
v -0.02927827 0.07495254 0.03779500
v -0.02892512 0.07509779 0.03878146
v -0.02479583 0.07598519 0.04072833
v -0.02430981 0.07576060 0.04086071
v -0.02333962 0.07595318 0.04036682
v -0.02356392 0.07620149 0.04013478
v -0.02479583 0.07598519 0.04072833
v -0.02590626 0.07561439 0.04094326
v -0.02430981 0.07576060 0.04086071
v -0.02329391 0.07598394 0.04016631
v -0.02356392 0.07620149 0.04013478
v -0.02333962 0.07595318 0.04036682
v -0.02329391 0.07598394 0.04016631
v -0.02367568 0.07611244 0.03979641
v -0.02356392 0.07620149 0.04013478
v -0.02367568 0.07611244 0.03979641
v -0.02383697 0.07614028 0.03936338
v -0.02356392 0.07620149 0.04013478
v -0.02355796 0.07460337 0.03957349
v -0.02383697 0.07614028 0.03936338
v -0.02355796 0.07460337 0.03957349
v -0.02362614 0.07509887 0.03935384
v -0.02362614 0.07509887 0.03935384
v -0.02327996 0.07464843 0.03883939
v -0.02310520 0.07518321 0.03867542
v -0.02355796 0.07460337 0.03957349
v -0.02327996 0.07464843 0.03883939
v -0.02362614 0.07509887 0.03935384
v -0.02327996 0.07464843 0.03883939
v -0.02259927 0.07475864 0.03870981
v -0.02310520 0.07518321 0.03867542
v -0.02313262 0.07625848 0.03864157
v -0.02310520 0.07518321 0.03867542
v -0.02276617 0.07630652 0.03873229
v -0.02310520 0.07518321 0.03867542
v -0.02259927 0.07475864 0.03870981
v -0.02276617 0.07630652 0.03873229
v -0.02489650 0.07600569 0.03634417
v -0.02441161 0.07608598 0.03672957
v -0.02523446 0.07595270 0.03592437
v -0.02653533 0.07574200 0.03703022
v -0.02578771 0.07585525 0.03617435
v -0.02618008 0.07579952 0.03620517
v -0.02630168 0.07577949 0.03700047
v -0.02578771 0.07585525 0.03617435
v -0.02653533 0.07574200 0.03703022
v -0.02546489 0.07591474 0.03784579
v -0.02482551 0.07601898 0.03791254
v -0.02489644 0.07600569 0.03765577
v -0.02462804 0.07605057 0.03700000
v -0.02441161 0.07608598 0.03672957
v -0.02489650 0.07600569 0.03634417
v -0.02578771 0.07585525 0.03617435
v -0.02489650 0.07600569 0.03634417
v -0.02523446 0.07595270 0.03592437
v -0.02603387 0.07582318 0.03793102
v -0.02482551 0.07601898 0.03791254
v -0.02618008 0.07579952 0.03620517
v -0.02578771 0.07585525 0.03617435
v -0.02523446 0.07595270 0.03592437
v -0.02603298 0.07582163 0.03765577
v -0.02489644 0.07600569 0.03765577
v -0.02482551 0.07601898 0.03791254
v -0.02462804 0.07605057 0.03700000
v -0.02653533 0.07574200 0.03703022
v -0.02603298 0.07582163 0.03765577
v -0.02630168 0.07577949 0.03700047
v -0.02603387 0.07582318 0.03793102
v -0.02603298 0.07582163 0.03765577
v -0.02653533 0.07574200 0.03703022
v -0.02489650 0.07600569 0.03634417
v -0.02578771 0.07585525 0.03617435
v -0.02525252 0.07540255 0.03643745
v -0.02525252 0.07540255 0.03643745
v -0.02578771 0.07585525 0.03617435
v -0.02588003 0.07535171 0.03671222
v -0.02630168 0.07577949 0.03700047
v -0.02588003 0.07535171 0.03671222
v -0.02578771 0.07585525 0.03617435
v -0.02489650 0.07600569 0.03634417
v -0.02482157 0.07549697 0.03691715
v -0.02462804 0.07605057 0.03700000
v -0.02489650 0.07600569 0.03634417
v -0.02525252 0.07540255 0.03643745
v -0.02482157 0.07549697 0.03691715
v -0.02603298 0.07582163 0.03765577
v -0.02546489 0.07591474 0.03784579
v -0.02578812 0.07535892 0.03742969
v -0.02578812 0.07535892 0.03742969
v -0.02546489 0.07591474 0.03784579
v -0.02504986 0.07549655 0.03746604
v -0.02546489 0.07591474 0.03784579
v -0.02489644 0.07600569 0.03765577
v -0.02504986 0.07549655 0.03746604
v -0.02489644 0.07600569 0.03765577
v -0.02482157 0.07549697 0.03691715
v -0.02504986 0.07549655 0.03746604
v -0.02462804 0.07605057 0.03700000
v -0.02482157 0.07549697 0.03691715
v -0.02489644 0.07600569 0.03765577
v -0.02588003 0.07535171 0.03671222
v -0.02630168 0.07577949 0.03700047
v -0.02578812 0.07535892 0.03742969
v -0.02603298 0.07582163 0.03765577
v -0.02578812 0.07535892 0.03742969
v -0.02630168 0.07577949 0.03700047
v -0.02440345 0.07497298 0.03763753
v -0.02430170 0.07498943 0.03657972
v -0.02441161 0.07608598 0.03672957
v -0.02440345 0.07497298 0.03763753
v -0.02441161 0.07608598 0.03672957
v -0.02482551 0.07601898 0.03791254
v -0.02552545 0.07479125 0.03809684
v -0.02440345 0.07497298 0.03763753
v -0.02482551 0.07601898 0.03791254
v -0.02552545 0.07479125 0.03809684
v -0.02482551 0.07601898 0.03791254
v -0.02603387 0.07582318 0.03793102
v -0.02600437 0.07471370 0.03779464
v -0.02552545 0.07479125 0.03809684
v -0.02603387 0.07582318 0.03793102
v -0.02600437 0.07471370 0.03779464
v -0.02603387 0.07582318 0.03793102
v -0.02653533 0.07574200 0.03703022
v -0.02635931 0.07465618 0.03696954
v -0.02600437 0.07471370 0.03779464
v -0.02653533 0.07574200 0.03703022
v -0.02672046 0.07459771 0.03625690
v -0.02602249 0.07471072 0.03554981
v -0.02801138 0.07438862 0.03494936
v -0.02731335 0.07450169 0.03424227
v -0.02585822 0.07473737 0.03606873
v -0.02635931 0.07465618 0.03696954
v -0.02493304 0.07488715 0.03599089
v -0.02455580 0.07494831 0.03554981
v -0.02672046 0.07459771 0.03774285
v -0.02467900 0.07492834 0.03586572
v -0.02447694 0.07496106 0.03570497
v -0.02465808 0.07493174 0.03611969
v -0.02600437 0.07471370 0.03779464
v -0.02446585 0.07496303 0.03581053
v -0.02430480 0.07498890 0.03572767
v -0.02431190 0.07498770 0.03581899
v -0.02460408 0.07494020 0.03591245
v -0.02458411 0.07494354 0.03605800
v -0.02430170 0.07498943 0.03657972
v -0.02443069 0.07496863 0.03625184
v -0.02437072 0.07497841 0.03613775
v -0.02423381 0.07500028 0.03597903
v -0.02415663 0.07501292 0.03603017
v -0.02399194 0.07503962 0.03588396
v -0.02418655 0.07500809 0.03585273
v -0.02389901 0.07505464 0.03580528
v -0.02326488 0.07515740 0.03424227
v -0.02424865 0.07499802 0.03616786
v -0.02399194 0.07503962 0.03620266
v -0.02801138 0.07438862 0.03905040
v -0.02552545 0.07479125 0.03809684
v -0.02731335 0.07450169 0.03975749
v -0.02389734 0.07505494 0.03620374
v -0.02256691 0.07527041 0.03494936
v -0.02455580 0.07494831 0.03845000
v -0.02440345 0.07497298 0.03763753
v -0.02385777 0.07506138 0.03774285
v -0.02310520 0.07518321 0.03867542
v -0.02362614 0.07509887 0.03935384
v -0.02276617 0.07630652 0.03873229
v -0.02234286 0.07624161 0.03912276
v -0.02232486 0.07638549 0.03897452
v -0.02234286 0.07624161 0.03912276
v -0.02208918 0.07610833 0.03912597
v -0.02232486 0.07638549 0.03897452
v -0.02910888 0.07505124 0.03564494
v -0.02924394 0.07414585 0.03656578
v -0.02933174 0.07500988 0.03656172
v -0.02791291 0.06793272 0.03540337
v -0.02924394 0.07414585 0.03656578
v -0.02910888 0.07505124 0.03564494
v -0.02791291 0.06793272 0.03540337
v -0.02830177 0.06789553 0.03657907
v -0.02924394 0.07414585 0.03656578
v -0.02791291 0.06793272 0.03540337
v -0.02910888 0.07505124 0.03564494
v -0.02870017 0.07518649 0.03485292
v -0.02666825 0.06813430 0.03373551
v -0.02870017 0.07518649 0.03485292
v -0.02819681 0.07518541 0.03419578
v -0.02791291 0.06793272 0.03540337
v -0.02666825 0.06813430 0.03373551
v -0.02819681 0.07518541 0.03419578
v -0.02755886 0.07529389 0.03366303
v -0.02666825 0.06813430 0.03373551
v -0.02755886 0.07529389 0.03366303
v -0.02613610 0.07547891 0.03304994
v -0.02499729 0.06840497 0.03306293
v -0.02666825 0.06813430 0.03373551
v -0.02613610 0.07547891 0.03304994
v -0.02499729 0.06840497 0.03306293
v -0.02613610 0.07547891 0.03304994
v -0.02569317 0.07467108 0.03297173
v -0.02473783 0.07574981 0.03308033
v -0.02569317 0.07467108 0.03297173
v -0.02613610 0.07547891 0.03304994
v -0.02473783 0.07574981 0.03308033
v -0.02498275 0.07471406 0.03292042
v -0.02569317 0.07467108 0.03297173
v -0.02370363 0.07584375 0.03338193
v -0.02498275 0.07471406 0.03292042
v -0.02473783 0.07574981 0.03308033
v -0.02341449 0.06866049 0.03303468
v -0.02498275 0.07471406 0.03292042
v -0.02370363 0.07584375 0.03338193
v -0.02104502 0.06904500 0.03456819
v -0.02370363 0.07584375 0.03338193
v -0.02256006 0.07609242 0.03423959
v -0.02104502 0.06904500 0.03456819
v -0.02341449 0.06866049 0.03303468
v -0.02370363 0.07584375 0.03338193
v -0.02104502 0.06904500 0.03456819
v -0.02256006 0.07609242 0.03423959
v -0.02183032 0.07630836 0.03549927
v -0.02104502 0.06904500 0.03456819
v -0.02183032 0.07630836 0.03549927
v -0.02152311 0.07616448 0.03624063
v -0.02038121 0.06915259 0.03626108
v -0.02152311 0.07616448 0.03624063
v -0.02131050 0.07538968 0.03654140
v -0.02038121 0.06915259 0.03626108
v -0.02104502 0.06904500 0.03456819
v -0.02152311 0.07616448 0.03624063
v -0.02152431 0.07632911 0.03698772
v -0.02131050 0.07538968 0.03654140
v -0.02152311 0.07616448 0.03624063
v -0.02448487 0.06852203 0.03286868
v -0.02499729 0.06840497 0.03306293
v -0.02569317 0.07467108 0.03297173
v -0.02448487 0.06852203 0.03286868
v -0.02569317 0.07467108 0.03297173
v -0.02498275 0.07471406 0.03292042
v -0.02341449 0.06866049 0.03303468
v -0.02448487 0.06852203 0.03286868
v -0.02498275 0.07471406 0.03292042
v -0.02019268 0.06921732 0.03679043
v -0.02038121 0.06915259 0.03626108
v -0.02131050 0.07538968 0.03654140
v -0.02019268 0.06921732 0.03679043
v -0.02131050 0.07538968 0.03654140
v -0.02117711 0.07524079 0.03704768
v -0.02117711 0.07524079 0.03704768
v -0.02131050 0.07538968 0.03654140
v -0.02135205 0.07535219 0.03758317
v -0.02036017 0.06915646 0.03780448
v -0.02117711 0.07524079 0.03704768
v -0.02135205 0.07535219 0.03758317
v -0.02036017 0.06915646 0.03780448
v -0.02019268 0.06921732 0.03679043
v -0.02117711 0.07524079 0.03704768
v -0.02152431 0.07632911 0.03698772
v -0.02135205 0.07535219 0.03758317
v -0.02131050 0.07538968 0.03654140
v -0.02162700 0.07614022 0.03821229
v -0.02135205 0.07535219 0.03758317
v -0.02152431 0.07632911 0.03698772
v -0.02036017 0.06915646 0.03780448
v -0.02135205 0.07535219 0.03758317
v -0.02162700 0.07614022 0.03821229
v -0.02196156 0.07486194 0.03920459
v -0.02162700 0.07614022 0.03821229
v -0.02208918 0.07610833 0.03912597
v -0.02036017 0.06915646 0.03780448
v -0.02162700 0.07614022 0.03821229
v -0.02196156 0.07486194 0.03920459
v -0.02121639 0.06902652 0.03959929
v -0.02196156 0.07486194 0.03920459
v -0.02233248 0.07480186 0.03988170
v -0.02121639 0.06902652 0.03959929
v -0.02036017 0.06915646 0.03780448
v -0.02196156 0.07486194 0.03920459
v -0.02233248 0.07480186 0.03988170
v -0.02174872 0.06893503 0.04014027
v -0.02121639 0.06902652 0.03959929
v -0.02355796 0.07460337 0.03957349
v -0.02303373 0.07468831 0.04029220
v -0.02233248 0.07480186 0.03988170
v -0.02327996 0.07464843 0.03883939
v -0.02196156 0.07486194 0.03920459
v -0.02259927 0.07475864 0.03870981
v -0.02355796 0.07460337 0.03957349
v -0.02329391 0.07598394 0.04016631
v -0.02303373 0.07468831 0.04029220
v -0.02355796 0.07460337 0.03957349
v -0.02367568 0.07611244 0.03979641
v -0.02329391 0.07598394 0.04016631
v -0.02329391 0.07598394 0.04016631
v -0.02333962 0.07595318 0.04036682
v -0.02303373 0.07468831 0.04029220
v -0.02196156 0.07486194 0.03920459
v -0.02234286 0.07624161 0.03912276
v -0.02259927 0.07475864 0.03870981
v -0.02234286 0.07624161 0.03912276
v -0.02276617 0.07630652 0.03873229
v -0.02259927 0.07475864 0.03870981
v -0.02196156 0.07486194 0.03920459
v -0.02208918 0.07610833 0.03912597
v -0.02234286 0.07624161 0.03912276
v -0.02933174 0.07500988 0.03656172
v -0.02921187 0.07409828 0.03753173
v -0.02927827 0.07495254 0.03779500
v -0.02924394 0.07414585 0.03656578
v -0.02921187 0.07409828 0.03753173
v -0.02933174 0.07500988 0.03656172
v -0.02725613 0.07528555 0.04056000
v -0.02554321 0.07462304 0.04107952
v -0.02590626 0.07561439 0.04094326
v -0.02174872 0.06893503 0.04014027
v -0.02233248 0.07480186 0.03988170
v -0.02303373 0.07468831 0.04029220
v -0.02430981 0.07576060 0.04086071
v -0.02303373 0.07468831 0.04029220
v -0.02333962 0.07595318 0.04036682
v -0.02174872 0.06893503 0.04014027
v -0.02303373 0.07468831 0.04029220
v -0.02430981 0.07576060 0.04086071
v -0.02512073 0.06838417 0.04096508
v -0.02554321 0.07462304 0.04107952
v -0.02725613 0.07528555 0.04056000
v -0.02352899 0.06864267 0.04094445
v -0.02174872 0.06893503 0.04014027
v -0.02430981 0.07576060 0.04086071
v -0.02749001 0.06800115 0.03943181
v -0.02512073 0.06838417 0.04096508
v -0.02725613 0.07528555 0.04056000
v -0.02749001 0.06800115 0.03943181
v -0.02725613 0.07528555 0.04056000
v -0.02840811 0.07514113 0.03959691
v -0.02352899 0.06864267 0.04094445
v -0.02430981 0.07576060 0.04086071
v -0.02485489 0.07480788 0.04102760
v -0.02749001 0.06800115 0.03943181
v -0.02840811 0.07514113 0.03959691
v -0.02892512 0.07509779 0.03878146
v -0.02749001 0.06800115 0.03943181
v -0.02892512 0.07509779 0.03878146
v -0.02927827 0.07495254 0.03779500
v -0.02590626 0.07561439 0.04094326
v -0.02485489 0.07480788 0.04102760
v -0.02430981 0.07576060 0.04086071
v -0.02819430 0.06789451 0.03768908
v -0.02749001 0.06800115 0.03943181
v -0.02927827 0.07495254 0.03779500
v -0.02819430 0.06789451 0.03768908
v -0.02927827 0.07495254 0.03779500
v -0.02921187 0.07409828 0.03753173
v -0.02590626 0.07561439 0.04094326
v -0.02554321 0.07462304 0.04107952
v -0.02485489 0.07480788 0.04102760
v -0.02406114 0.06859064 0.04113107
v -0.02352899 0.06864267 0.04094445
v -0.02485489 0.07480788 0.04102760
v -0.02406114 0.06859064 0.04113107
v -0.02485489 0.07480788 0.04102760
v -0.02554321 0.07462304 0.04107952
v -0.02512073 0.06838417 0.04096508
v -0.02406114 0.06859064 0.04113107
v -0.02554321 0.07462304 0.04107952
v -0.02819430 0.06789451 0.03768908
v -0.02921187 0.07409828 0.03753173
v -0.02931118 0.07390916 0.03713154
v -0.02830177 0.06789553 0.03657907
v -0.02819430 0.06789451 0.03768908
v -0.02931118 0.07390916 0.03713154
v -0.02830177 0.06789553 0.03657907
v -0.02931118 0.07390916 0.03713154
v -0.02924394 0.07414585 0.03656578
v -0.02921187 0.07409828 0.03753173
v -0.02924394 0.07414585 0.03656578
v -0.02931118 0.07390916 0.03713154
v -0.02313262 0.07625848 0.03864157
v -0.02385777 0.07506138 0.03774285
v -0.02310520 0.07518321 0.03867542
v -0.02313262 0.07625848 0.03864157
v -0.02403366 0.07614719 0.03774285
v -0.02385777 0.07506138 0.03774285
v -0.02389734 0.07505494 0.03620374
v -0.02403366 0.07614719 0.03774285
v -0.02403366 0.07614719 0.03625690
v -0.02385777 0.07506138 0.03774285
v -0.02403366 0.07614719 0.03774285
v -0.02389734 0.07505494 0.03620374
v -0.02389734 0.07505494 0.03620374
v -0.02256989 0.07639008 0.03487139
v -0.02256691 0.07527041 0.03494936
v -0.02403366 0.07614719 0.03625690
v -0.02455580 0.07494831 0.03845000
v -0.02383697 0.07614028 0.03936338
v -0.02362614 0.07509887 0.03935384
v -0.02473163 0.07603412 0.03845000
v -0.02383697 0.07614028 0.03936338
v -0.02455580 0.07494831 0.03845000
v -0.02619814 0.07579660 0.03845000
v -0.02455580 0.07494831 0.03845000
v -0.02552545 0.07479125 0.03809684
v -0.02619814 0.07579660 0.03845000
v -0.02473163 0.07603412 0.03845000
v -0.02455580 0.07494831 0.03845000
v -0.02801138 0.07438862 0.03905040
v -0.02832305 0.07545632 0.03916937
v -0.02731335 0.07450169 0.03975749
v -0.02832305 0.07545632 0.03916937
v -0.02717119 0.07563906 0.03947538
v -0.02731335 0.07450169 0.03975749
v -0.02717119 0.07563906 0.03947538
v -0.02552545 0.07479125 0.03809684
v -0.02731335 0.07450169 0.03975749
v -0.02717119 0.07563906 0.03947538
v -0.02619814 0.07579660 0.03845000
v -0.02552545 0.07479125 0.03809684
v -0.02689617 0.07568353 0.03774285
v -0.02801138 0.07438862 0.03905040
v -0.02672046 0.07459771 0.03774285
v -0.02689617 0.07568353 0.03774285
v -0.02832305 0.07545632 0.03916937
v -0.02801138 0.07438862 0.03905040
v -0.02689617 0.07568353 0.03625690
v -0.02689617 0.07568353 0.03774285
v -0.02672046 0.07459771 0.03625690
v -0.02672046 0.07459771 0.03774285
v -0.02819085 0.07547718 0.03494668
v -0.02672046 0.07459771 0.03625690
v -0.02801138 0.07438862 0.03494936
v -0.02689617 0.07568353 0.03625690
v -0.02731335 0.07450169 0.03424227
v -0.02819085 0.07547718 0.03494668
v -0.02801138 0.07438862 0.03494936
v -0.02748924 0.07558751 0.03424227
v -0.02819085 0.07547718 0.03494668
v -0.02731335 0.07450169 0.03424227
v -0.02619814 0.07579660 0.03554981
v -0.02731335 0.07450169 0.03424227
v -0.02602249 0.07471072 0.03554981
v -0.02748924 0.07558751 0.03424227
v -0.02455580 0.07494831 0.03554981
v -0.02619814 0.07579660 0.03554981
v -0.02602249 0.07471072 0.03554981
v -0.02473163 0.07603412 0.03554981
v -0.02375495 0.07619231 0.03447026
v -0.02455580 0.07494831 0.03554981
v -0.02326488 0.07515740 0.03424227
v -0.02375495 0.07619231 0.03447026
v -0.02473163 0.07603412 0.03554981
v -0.02455580 0.07494831 0.03554981
v -0.02256691 0.07527041 0.03494936
v -0.02256989 0.07639008 0.03487139
v -0.02326488 0.07515740 0.03424227
v -0.02256989 0.07639008 0.03487139
v -0.02375495 0.07619231 0.03447026
v -0.02326488 0.07515740 0.03424227
v -0.02241837 0.07589036 0.03672736
v -0.02242869 0.07640510 0.03634423
v -0.02313309 0.07575315 0.03644394
v -0.02242869 0.07640510 0.03634423
v -0.02331900 0.07625281 0.03617566
v -0.02313309 0.07575315 0.03644394
v -0.02383387 0.07617908 0.03700000
v -0.02346992 0.07570475 0.03706663
v -0.02331900 0.07625281 0.03617566
v -0.02331900 0.07625281 0.03617566
v -0.02346992 0.07570475 0.03706663
v -0.02313309 0.07575315 0.03644394
v -0.02242869 0.07640510 0.03634423
v -0.02241837 0.07589036 0.03672736
v -0.02216041 0.07645010 0.03699928
v -0.02489662 0.07600504 0.03884428
v -0.02578669 0.07585310 0.03867584
v -0.02497708 0.07548344 0.03908181
v -0.02497708 0.07548344 0.03908181
v -0.02578669 0.07585310 0.03867584
v -0.02572268 0.07537585 0.03903234
v -0.02630180 0.07577961 0.03949928
v -0.02593046 0.07530528 0.03967869
v -0.02578669 0.07585310 0.03867584
v -0.02578669 0.07585310 0.03867584
v -0.02593046 0.07530528 0.03967869
v -0.02572268 0.07537585 0.03903234
v -0.02489084 0.07549554 0.03978103
v -0.02462804 0.07605063 0.03949981
v -0.02497708 0.07548344 0.03908181
v -0.02489662 0.07600504 0.03884428
v -0.02497708 0.07548344 0.03908181
v -0.02462804 0.07605063 0.03949981
v -0.02593046 0.07530528 0.03967869
v -0.02578783 0.07585585 0.04032576
v -0.02537262 0.07542294 0.04006803
v -0.02537262 0.07542294 0.04006803
v -0.02489650 0.07600557 0.04015552
v -0.02489084 0.07549554 0.03978103
v -0.02578783 0.07585585 0.04032576
v -0.02489650 0.07600557 0.04015552
v -0.02537262 0.07542294 0.04006803
v -0.02462804 0.07605063 0.03949981
v -0.02489084 0.07549554 0.03978103
v -0.02489650 0.07600557 0.04015552
v -0.02578783 0.07585585 0.04032576
v -0.02593046 0.07530528 0.03967869
v -0.02630180 0.07577961 0.03949928
v -0.02354973 0.07622390 0.03766775
v -0.02317065 0.07577872 0.03750658
v -0.02346992 0.07570475 0.03706663
v -0.02354973 0.07622390 0.03766775
v -0.02272129 0.07641750 0.03791904
v -0.02317065 0.07577872 0.03750658
v -0.02317065 0.07577872 0.03750658
v -0.02272129 0.07641750 0.03791904
v -0.02249974 0.07589352 0.03740894
v -0.02272129 0.07641750 0.03791904
v -0.02242863 0.07640540 0.03765577
v -0.02249974 0.07589352 0.03740894
v -0.02216041 0.07645010 0.03699928
v -0.02249974 0.07589352 0.03740894
v -0.02242863 0.07640540 0.03765577
v -0.02249974 0.07589352 0.03740894
v -0.02216041 0.07645010 0.03699928
v -0.02241837 0.07589036 0.03672736
v -0.02354973 0.07622390 0.03766775
v -0.02346992 0.07570475 0.03706663
v -0.02383387 0.07617908 0.03700000
v -0.02488631 0.07549065 0.03422755
v -0.02489650 0.07600557 0.03384423
v -0.02560091 0.07535344 0.03394407
v -0.02489650 0.07600557 0.03384423
v -0.02578741 0.07585453 0.03367501
v -0.02560091 0.07535344 0.03394407
v -0.02630174 0.07577943 0.03450000
v -0.02593773 0.07530504 0.03456676
v -0.02578741 0.07585453 0.03367501
v -0.02578741 0.07585453 0.03367501
v -0.02593773 0.07530504 0.03456676
v -0.02560091 0.07535344 0.03394407
v -0.02489650 0.07600557 0.03384423
v -0.02488631 0.07549065 0.03422755
v -0.02456551 0.07610911 0.03447222
v -0.02578645 0.07585251 0.03532356
v -0.02563858 0.07537901 0.03500664
v -0.02593773 0.07530504 0.03456676
v -0.02563858 0.07537901 0.03500664
v -0.02578645 0.07585251 0.03532356
v -0.02496767 0.07549381 0.03490895
v -0.02578645 0.07585251 0.03532356
v -0.02489656 0.07600528 0.03515559
v -0.02496767 0.07549381 0.03490895
v -0.02456551 0.07610911 0.03447222
v -0.02496767 0.07549381 0.03490895
v -0.02489656 0.07600528 0.03515559
v -0.02496767 0.07549381 0.03490895
v -0.02456551 0.07610911 0.03447222
v -0.02488631 0.07549065 0.03422755
v -0.02578645 0.07585251 0.03532356
v -0.02593773 0.07530504 0.03456676
v -0.02630174 0.07577943 0.03450000
v -0.02738738 0.07510238 0.03668516
v -0.02760750 0.07556241 0.03617346
v -0.02784049 0.07502323 0.03643167
v -0.02784049 0.07502323 0.03643167
v -0.02848589 0.07542520 0.03633189
v -0.02831894 0.07495784 0.03667598
v -0.02760750 0.07556241 0.03617346
v -0.02848589 0.07542520 0.03633189
v -0.02784049 0.07502323 0.03643167
v -0.02876955 0.07537966 0.03700000
v -0.02831894 0.07495784 0.03667598
v -0.02848589 0.07542520 0.03633189
v -0.02735424 0.07509094 0.03727239
v -0.02709609 0.07565069 0.03700053
v -0.02738738 0.07510238 0.03668516
v -0.02831894 0.07495784 0.03667598
v -0.02876955 0.07537966 0.03700000
v -0.02834725 0.07495254 0.03728848
v -0.02760750 0.07556241 0.03617346
v -0.02738738 0.07510238 0.03668516
v -0.02709609 0.07565069 0.03700053
v -0.02834725 0.07495254 0.03728848
v -0.02825528 0.07545483 0.03782480
v -0.02784049 0.07502323 0.03756809
v -0.02784049 0.07502323 0.03756809
v -0.02736449 0.07560533 0.03765553
v -0.02735424 0.07509094 0.03727239
v -0.02825528 0.07545483 0.03782480
v -0.02736449 0.07560533 0.03765553
v -0.02784049 0.07502323 0.03756809
v -0.02709609 0.07565069 0.03700053
v -0.02735424 0.07509094 0.03727239
v -0.02736449 0.07560533 0.03765553
v -0.02825528 0.07545483 0.03782480
v -0.02834725 0.07495254 0.03728848
v -0.02876955 0.07537966 0.03700000
v -0.02635931 0.07465618 0.03696954
v -0.02653533 0.07574200 0.03703022
v -0.02618008 0.07579952 0.03620517
v -0.02585822 0.07473737 0.03606873
v -0.02635931 0.07465618 0.03696954
v -0.02618008 0.07579952 0.03620517
v -0.02585822 0.07473737 0.03606873
v -0.02618008 0.07579952 0.03620517
v -0.02523446 0.07595270 0.03592437
v -0.02493304 0.07488715 0.03599089
v -0.02585822 0.07473737 0.03606873
v -0.02523446 0.07595270 0.03592437
v -0.02430170 0.07498943 0.03657972
v -0.02523446 0.07595270 0.03592437
v -0.02441161 0.07608598 0.03672957
v -0.02430170 0.07498943 0.03657972
v -0.02493304 0.07488715 0.03599089
v -0.02523446 0.07595270 0.03592437
v -0.02579724 0.07454460 0.03723186
v -0.02542901 0.07460427 0.03639703
v -0.02588003 0.07535171 0.03671222
v -0.02588003 0.07535171 0.03671222
v -0.02542901 0.07460427 0.03639703
v -0.02525252 0.07540255 0.03643745
v -0.02525252 0.07540255 0.03643745
v -0.02469635 0.07472288 0.03685981
v -0.02482157 0.07549697 0.03691715
v -0.02542901 0.07460427 0.03639703
v -0.02469635 0.07472288 0.03685981
v -0.02525252 0.07540255 0.03643745
v -0.02326822 0.07495421 0.03733474
v -0.02323210 0.07496011 0.03663116
v -0.02346992 0.07570475 0.03706663
v -0.02346992 0.07570475 0.03706663
v -0.02323210 0.07496011 0.03663116
v -0.02313309 0.07575315 0.03644394
v -0.02323210 0.07496011 0.03663116
v -0.02253669 0.07507270 0.03646332
v -0.02313309 0.07575315 0.03644394
v -0.02313309 0.07575315 0.03644394
v -0.02253669 0.07507270 0.03646332
v -0.02241837 0.07589036 0.03672736
v -0.02253669 0.07507270 0.03646332
v -0.02222818 0.07512271 0.03706902
v -0.02241837 0.07589036 0.03672736
v -0.02593046 0.07530528 0.03967869
v -0.02583646 0.07453823 0.03935509
v -0.02572268 0.07537585 0.03903234
v -0.02583646 0.07453823 0.03935509
v -0.02527678 0.07462894 0.03893125
v -0.02572268 0.07537585 0.03903234
v -0.02572268 0.07537585 0.03903234
v -0.02527678 0.07462894 0.03893125
v -0.02497708 0.07548344 0.03908181
v -0.02527678 0.07462894 0.03893125
v -0.02470374 0.07472175 0.03928720
v -0.02497708 0.07548344 0.03908181
v -0.02497708 0.07548344 0.03908181
v -0.02470374 0.07472175 0.03928720
v -0.02489084 0.07549554 0.03978103
v -0.02834725 0.07495254 0.03728848
v -0.02830976 0.07413768 0.03695076
v -0.02831894 0.07495784 0.03667598
v -0.02830976 0.07413768 0.03695076
v -0.02774739 0.07422876 0.03640598
v -0.02831894 0.07495784 0.03667598
v -0.02831894 0.07495784 0.03667598
v -0.02774739 0.07422876 0.03640598
v -0.02784049 0.07502323 0.03643167
v -0.02784049 0.07502323 0.03643167
v -0.02774739 0.07422876 0.03640598
v -0.02738738 0.07510238 0.03668516
v -0.02774739 0.07422876 0.03640598
v -0.02710402 0.07433295 0.03707635
v -0.02738738 0.07510238 0.03668516
v -0.02738738 0.07510238 0.03668516
v -0.02710402 0.07433295 0.03707635
v -0.02735424 0.07509094 0.03727239
v -0.02593773 0.07530504 0.03456676
v -0.02576088 0.07455044 0.03423202
v -0.02560091 0.07535344 0.03394407
v -0.02576088 0.07455044 0.03423202
v -0.02506566 0.07466310 0.03392142
v -0.02560091 0.07535344 0.03394407
v -0.02560091 0.07535344 0.03394407
v -0.02506566 0.07466310 0.03392142
v -0.02488631 0.07549065 0.03422755
v -0.02506566 0.07466310 0.03392142
v -0.02474248 0.07471543 0.03485971
v -0.02488631 0.07549065 0.03422755
v -0.02482157 0.07549697 0.03691715
v -0.02469635 0.07472288 0.03685981
v -0.02504986 0.07549655 0.03746604
v -0.02469635 0.07472288 0.03685981
v -0.02504551 0.07466638 0.03756529
v -0.02504986 0.07549655 0.03746604
v -0.02504986 0.07549655 0.03746604
v -0.02504551 0.07466638 0.03756529
v -0.02578812 0.07535892 0.03742969
v -0.02504551 0.07466638 0.03756529
v -0.02579724 0.07454460 0.03723186
v -0.02578812 0.07535892 0.03742969
v -0.02578812 0.07535892 0.03742969
v -0.02579724 0.07454460 0.03723186
v -0.02588003 0.07535171 0.03671222
v -0.02488631 0.07549065 0.03422755
v -0.02474248 0.07471543 0.03485971
v -0.02496767 0.07549381 0.03490895
v -0.02496767 0.07549381 0.03490895
v -0.02474248 0.07471543 0.03485971
v -0.02563858 0.07537901 0.03500664
v -0.02474248 0.07471543 0.03485971
v -0.02566272 0.07456642 0.03492951
v -0.02563858 0.07537901 0.03500664
v -0.02563858 0.07537901 0.03500664
v -0.02566272 0.07456642 0.03492951
v -0.02593773 0.07530504 0.03456676
v -0.02566272 0.07456642 0.03492951
v -0.02576088 0.07455044 0.03423202
v -0.02593773 0.07530504 0.03456676
v -0.02735424 0.07509094 0.03727239
v -0.02710402 0.07433295 0.03707635
v -0.02784049 0.07502323 0.03756809
v -0.02710402 0.07433295 0.03707635
v -0.02786403 0.07420980 0.03757238
v -0.02784049 0.07502323 0.03756809
v -0.02784049 0.07502323 0.03756809
v -0.02786403 0.07420980 0.03757238
v -0.02834725 0.07495254 0.03728848
v -0.02786403 0.07420980 0.03757238
v -0.02830976 0.07413768 0.03695076
v -0.02834725 0.07495254 0.03728848
v -0.02470374 0.07472175 0.03928720
v -0.02494925 0.07468193 0.03998965
v -0.02489084 0.07549554 0.03978103
v -0.02489084 0.07549554 0.03978103
v -0.02494925 0.07468193 0.03998965
v -0.02537262 0.07542294 0.04006803
v -0.02494925 0.07468193 0.03998965
v -0.02553540 0.07458704 0.03999418
v -0.02537262 0.07542294 0.04006803
v -0.02537262 0.07542294 0.04006803
v -0.02553540 0.07458704 0.03999418
v -0.02593046 0.07530528 0.03967869
v -0.02553540 0.07458704 0.03999418
v -0.02583646 0.07453823 0.03935509
v -0.02593046 0.07530528 0.03967869
v -0.02241837 0.07589036 0.03672736
v -0.02222818 0.07512271 0.03706902
v -0.02249974 0.07589352 0.03740894
v -0.02222818 0.07512271 0.03706902
v -0.02260607 0.07506150 0.03755009
v -0.02249974 0.07589352 0.03740894
v -0.02249974 0.07589352 0.03740894
v -0.02260607 0.07506150 0.03755009
v -0.02317065 0.07577872 0.03750658
v -0.02260607 0.07506150 0.03755009
v -0.02326822 0.07495421 0.03733474
v -0.02317065 0.07577872 0.03750658
v -0.02317065 0.07577872 0.03750658
v -0.02326822 0.07495421 0.03733474
v -0.02346992 0.07570475 0.03706663
vn -0.14114110 0.98926759 -0.03779982
vn -0.14114110 0.98926759 -0.03779982
vn -0.14114110 0.98926759 -0.03779982
vn -0.16835380 0.98568010 -0.00957791
vn -0.16835380 0.98568010 -0.00957791
vn -0.16835380 0.98568010 -0.00957791
vn -0.16064155 0.98700956 0.00253365
vn -0.15932106 0.98722028 0.00359521
vn -0.16149010 0.98687260 0.00185130
vn -0.17911954 0.98377528 -0.01011842
vn -0.17911954 0.98377528 -0.01011842
vn -0.17911954 0.98377528 -0.01011842
vn -0.15581441 0.98778060 -0.00336939
vn -0.15581441 0.98778060 -0.00336939
vn -0.15718460 0.98756681 -0.00218810
vn -0.15584614 0.98445699 0.08097170
vn -0.15584614 0.98445699 0.08097170
vn -0.15584614 0.98445699 0.08097170
vn -0.15104342 0.98453500 0.08875091
vn -0.15104342 0.98453500 0.08875091
vn -0.15104342 0.98453500 0.08875091
vn -0.15977204 0.98715394 0.00004385
vn -0.15971096 0.98716381 -0.00014597
vn -0.16351623 0.98651968 -0.00643213
vn -0.16351623 0.98651968 -0.00643213
vn -0.16351623 0.98651968 -0.00643213
vn -0.16818680 0.98569424 0.01095707
vn -0.16818680 0.98569424 0.01095707
vn -0.16818680 0.98569424 0.01095707
vn -0.16420187 0.98639327 0.00812770
vn -0.16049846 0.98701777 0.00601345
vn -0.16300558 0.98659706 0.00744457
vn -0.16625751 0.98607969 0.00229934
vn -0.16625751 0.98607969 0.00229934
vn -0.16625751 0.98607969 0.00229934
vn -0.13990164 0.99016536 -0.00029201
vn -0.13990164 0.99016536 -0.00029201
vn -0.13990164 0.99016536 -0.00029201
vn -0.16136422 0.98689492 -0.00001047
vn -0.15991441 0.98713088 -0.00003208
vn -0.15991441 0.98713088 -0.00003208
vn -0.17576320 0.98443170 0.00123635
vn -0.17702742 0.98420534 -0.00106718
vn -0.17608461 0.98437482 0.00065093
vn -0.14349030 0.98951342 -0.01654461
vn -0.14349030 0.98951342 -0.01654461
vn -0.14349030 0.98951342 -0.01654461
vn -0.16251921 0.98660413 0.01413462
vn -0.16251921 0.98660413 0.01413462
vn -0.16251921 0.98660413 0.01413462
vn -0.15992853 0.98712860 -0.00004111
vn -0.15992641 0.98712894 -0.00003094
vn -0.15986278 0.98713903 0.00065628
vn -0.15963622 0.98706142 -0.01503422
vn -0.15963622 0.98706142 -0.01503422
vn -0.15963622 0.98706142 -0.01503422
vn -0.14376972 0.98937643 0.02155355
vn -0.14376972 0.98937643 0.02155355
vn -0.14376972 0.98937643 0.02155355
vn -0.15260245 0.98821909 -0.01164152
vn -0.15260245 0.98821909 -0.01164152
vn -0.15260245 0.98821909 -0.01164152
vn -0.17267245 0.98495993 -0.00617752
vn -0.17267245 0.98495993 -0.00617752
vn -0.17267245 0.98495993 -0.00617752
vn -0.15349878 0.98763549 -0.03184743
vn -0.15349878 0.98763549 -0.03184743
vn -0.15349878 0.98763549 -0.03184743
vn -0.15378413 0.98615057 0.06210876
vn -0.15378413 0.98615057 0.06210876
vn -0.15378413 0.98615057 0.06210876
vn -0.15991998 0.98712998 0.00000000
vn -0.18063702 0.98352283 0.00728728
vn -0.18063702 0.98352283 0.00728728
vn -0.18063702 0.98352283 0.00728728
vn -0.13463897 0.99075346 0.01673104
vn -0.13463897 0.99075346 0.01673104
vn -0.13463897 0.99075346 0.01673104
vn -0.16116804 0.98692657 -0.00089429
vn -0.15966124 0.98717186 -0.00000500
vn -0.16180970 0.98682116 -0.00127308
vn -0.16257694 0.98669436 -0.00172607
vn -0.15993572 0.98711102 0.00569233
vn 0.36476191 0.86857128 -0.33545890
vn 0.36476191 0.86857128 -0.33545890
vn 0.36476191 0.86857128 -0.33545890
vn -0.16856990 0.98568906 0.00112182
vn -0.16612580 0.98610446 -0.00046998
vn -0.16944119 0.98553885 0.00168952
vn 0.07095574 0.99747947 0.00000000
vn 0.07095574 0.99747947 0.00000000
vn 0.07095574 0.99747947 0.00000000
vn -0.14691951 0.98361982 -0.10443514
vn -0.14691951 0.98361982 -0.10443514
vn -0.14691951 0.98361982 -0.10443514
vn -0.16980852 0.98532363 0.01738999
vn -0.16980852 0.98532363 0.01738999
vn -0.16980852 0.98532363 0.01738999
vn -0.15654165 0.98720525 -0.03033987
vn -0.15654165 0.98720525 -0.03033987
vn -0.15654165 0.98720525 -0.03033987
vn -0.16974509 0.98546835 0.00622324
vn -0.16974509 0.98546835 0.00622324
vn -0.16974509 0.98546835 0.00622324
vn -0.15965240 0.98717329 0.00012315
vn -0.15904111 0.98727146 -0.00099631
vn -0.15893289 0.98728915 -0.00069322
vn -0.16027886 0.98707170 0.00038810
vn -0.16010975 0.98709909 0.00051242
vn -0.16067996 0.98700640 -0.00056564
vn -0.15883741 0.98730466 -0.00042587
vn -0.16015782 0.98709142 0.00010396
vn -0.16046039 0.98704204 -0.00069002
vn -0.16019972 0.98708446 0.00056523
vn -0.15962901 0.98710326 -0.01207213
vn -0.15881789 0.98724394 -0.01123759
vn -0.15934464 0.98715274 -0.01177953
vn -0.16007709 0.98710441 0.00045856
vn -0.15042373 0.98861859 0.00244454
vn -0.15051876 0.98860389 0.00254080
vn -0.15016266 0.98865890 0.00218011
vn -0.15955684 0.98718071 0.00398176
vn -0.15955684 0.98718071 0.00398176
vn -0.00659235 0.98910110 0.14709031
vn -0.00659235 0.98910110 0.14709031
vn -0.00659235 0.98910110 0.14709031
vn -0.16588793 0.98614441 -0.00062485
vn -0.15996787 0.98712198 0.00068702
vn -0.14838725 0.98884425 0.01297196
vn -0.14599916 0.98918605 0.01397146
vn -0.14599916 0.98918605 0.01397146
vn -0.16339630 0.98654492 0.00554681
vn -0.16339630 0.98654492 0.00554681
vn -0.16339630 0.98654492 0.00554681
vn -0.16589745 0.98485734 -0.05033936
vn -0.16589745 0.98485734 -0.05033936
vn -0.16589745 0.98485734 -0.05033936
vn -0.15090523 0.98854389 0.00293229
vn -0.16765295 0.98584408 -0.00198357
vn -0.16565889 0.98617902 -0.00284234
vn -0.16747949 0.98587341 -0.00205829
vn -0.22376437 0.97462471 0.00601482
vn -0.22376437 0.97462471 0.00601482
vn -0.22376437 0.97462471 0.00601482
vn -0.18716001 0.98195266 0.02720497
vn -0.18716001 0.98195266 0.02720497
vn -0.18716001 0.98195266 0.02720497
vn -0.16767507 0.98584110 -0.00154920
vn -0.16767507 0.98584110 -0.00154920
vn -0.16767507 0.98584110 -0.00154920
vn -0.11622527 0.99299144 -0.02144023
vn -0.11622527 0.99299144 -0.02144023
vn -0.11622527 0.99299144 -0.02144023
vn -0.11209112 0.99277754 -0.04275906
vn -0.11209112 0.99277754 -0.04275906
vn -0.11209112 0.99277754 -0.04275906
vn -0.17739187 0.98396824 -0.01840169
vn -0.17739187 0.98396824 -0.01840169
vn -0.17739187 0.98396824 -0.01840169
vn -0.16076181 0.98699296 0.00073768
vn -0.16076181 0.98699296 0.00073768
vn -0.16076181 0.98699296 0.00073768
vn 0.30828691 0.90234052 0.30123208
vn 0.30828691 0.90234052 0.30123208
vn 0.30828691 0.90234052 0.30123208
vn -0.14654046 0.98919997 -0.00305058
vn -0.14654046 0.98919997 -0.00305058
vn -0.14654046 0.98919997 -0.00305058
vn -0.16866048 0.98567193 0.00211974
vn -0.16866048 0.98567193 0.00211974
vn -0.16866048 0.98567193 0.00211974
vn -0.16701562 0.98584940 -0.01437849
vn -0.16701562 0.98584940 -0.01437849
vn -0.16701562 0.98584940 -0.01437849
vn -0.15943905 0.98720709 0.00116463
vn -0.16003714 0.98711097 -0.00021223
vn -0.16003714 0.98711097 -0.00021223
vn -0.16941832 0.98554347 -0.00122300
vn -0.17966913 0.98362085 -0.01445755
vn -0.17966913 0.98362085 -0.01445755
vn -0.17966913 0.98362085 -0.01445755
vn -0.15935189 0.98722129 -0.00104964
vn -0.15920908 0.98724440 -0.00098051
vn -0.15922053 0.98724254 -0.00099401
vn -0.15709638 0.98755956 0.00684431
vn -0.15709638 0.98755956 0.00684431
vn -0.15709638 0.98755956 0.00684431
vn -0.45722579 0.81058859 -0.36591080
vn -0.45722579 0.81058859 -0.36591080
vn -0.45722579 0.81058859 -0.36591080
vn -0.16777330 0.98581462 0.00465442
vn -0.16777330 0.98581462 0.00465442
vn -0.16777330 0.98581462 0.00465442
vn -0.15949478 0.98719864 -0.00051383
vn -0.18548100 0.98248983 0.01762171
vn -0.18548100 0.98248983 0.01762171
vn -0.18548100 0.98248983 0.01762171
vn -0.16385116 0.98553330 0.04332330
vn -0.16385116 0.98553330 0.04332330
vn -0.16385116 0.98553330 0.04332330
vn 0.58053791 -0.77807621 0.23994403
vn 0.58053791 -0.77807621 0.23994403
vn 0.58053791 -0.77807621 0.23994403
vn -0.15355268 0.95123544 0.26753075
vn -0.15355268 0.95123544 0.26753075
vn -0.15355268 0.95123544 0.26753075
vn -0.24525012 0.96739510 0.06323839
vn -0.24525012 0.96739510 0.06323839
vn -0.24525012 0.96739510 0.06323839
vn -0.14350663 0.98955226 0.01386282
vn -0.14350663 0.98955226 0.01386282
vn -0.14350663 0.98955226 0.01386282
vn -0.15904631 0.98725437 -0.00575113
vn -0.15904631 0.98725437 -0.00575113
vn -0.15904631 0.98725437 -0.00575113
vn -0.15990689 0.98705474 -0.01235809
vn -0.15392866 0.98773224 -0.02628658
vn -0.15392866 0.98773224 -0.02628658
vn -0.15392866 0.98773224 -0.02628658
vn -0.15909873 0.98726268 -0.00005089
vn -0.16129731 0.98690560 -0.00071426
vn -0.15970643 0.98604943 -0.04690819
vn -0.15970643 0.98604943 -0.04690819
vn -0.15970643 0.98604943 -0.04690819
vn -0.15749737 0.98751931 0.00043211
vn -0.15691547 0.98761201 0.00023124
vn -0.15651634 0.98767532 0.00030315
vn -0.15739037 0.98753646 0.00006212
vn -0.15987334 0.98713754 0.00000000
vn -0.15987334 0.98713754 0.00000000
vn -0.15739359 0.98752059 -0.00550784
vn -0.15739359 0.98752059 -0.00550784
vn -0.15739359 0.98752059 -0.00550784
vn -0.15761562 0.98750054 0.00000000
vn -0.20971404 0.97364057 0.08968865
vn -0.20971404 0.97364057 0.08968865
vn -0.20971404 0.97364057 0.08968865
vn -0.24486477 0.96511258 -0.09273052
vn -0.24486477 0.96511258 -0.09273052
vn -0.24486477 0.96511258 -0.09273052
vn -0.17761782 0.98409721 -0.00214372
vn -0.10596760 0.99362578 0.03845358
vn -0.10596760 0.99362578 0.03845358
vn -0.10596760 0.99362578 0.03845358
vn -0.15233127 0.98826466 0.01132013
vn -0.15233127 0.98826466 0.01132013
vn -0.15819190 0.98740038 0.00397571
vn -0.15765024 0.98748886 0.00348609
vn -0.15765024 0.98748886 0.00348609
vn -0.12943556 0.99112752 -0.03021050
vn -0.12943556 0.99112752 -0.03021050
vn -0.12943556 0.99112752 -0.03021050
vn -0.05649638 0.99736960 0.04540976
vn -0.05649638 0.99736960 0.04540976
vn -0.05649638 0.99736960 0.04540976
vn -0.16429591 0.98641091 0.00061666
vn -0.16262394 0.98668811 0.00015410
vn -0.16482489 0.98632255 0.00076303
vn -0.17448503 0.98415412 0.03155390
vn -0.17448503 0.98415412 0.03155390
vn -0.17448503 0.98415412 0.03155390
vn -0.15972576 0.98616880 0.04425810
vn -0.15972576 0.98616880 0.04425810
vn -0.15972576 0.98616880 0.04425810
vn -0.15948493 0.98719938 0.00139602
vn -0.15909453 0.98725829 0.00316281
vn -0.15980184 0.98714911 -0.00003990
vn 0.17913156 0.98028272 -0.08341272
vn 0.17913156 0.98028272 -0.08341272
vn 0.17913156 0.98028272 -0.08341272
vn 0.29290986 0.95331014 -0.07350914
vn 0.29290986 0.95331014 -0.07350914
vn 0.29290986 0.95331014 -0.07350914
vn 0.35912697 0.93314419 0.01642372
vn 0.35912697 0.93314419 0.01642372
vn 0.35912697 0.93314419 0.01642372
vn 0.61810320 0.70998674 0.33744223
vn 0.61810320 0.70998674 0.33744223
vn 0.61810320 0.70998674 0.33744223
vn 0.65807045 0.64008548 0.39652724
vn 0.65807045 0.64008548 0.39652724
vn 0.65807045 0.64008548 0.39652724
vn 0.06997269 0.99456648 0.07708010
vn 0.06997269 0.99456648 0.07708010
vn 0.06997269 0.99456648 0.07708010
vn -0.10056264 0.60745797 -0.78796064
vn -0.10056264 0.60745797 -0.78796064
vn -0.10056264 0.60745797 -0.78796064
vn 0.12644202 0.73758094 -0.66331499
vn 0.12644202 0.73758094 -0.66331499
vn 0.12644202 0.73758094 -0.66331499
vn 0.78664924 0.59683282 0.15803024
vn 0.78664924 0.59683282 0.15803024
vn 0.78664924 0.59683282 0.15803024
vn 0.12669106 0.78587151 -0.60527295
vn 0.12669106 0.78587151 -0.60527295
vn 0.12669106 0.78587151 -0.60527295
vn 0.33790049 0.68224587 -0.64835471
vn 0.33790049 0.68224587 -0.64835471
vn 0.33790049 0.68224587 -0.64835471
vn 0.29150816 0.86708125 -0.40397166
vn 0.29150816 0.86708125 -0.40397166
vn 0.29150816 0.86708125 -0.40397166
vn 0.41576023 0.82521474 -0.38231410
vn 0.41576023 0.82521474 -0.38231410
vn 0.41576023 0.82521474 -0.38231410
vn 0.69746785 0.70005936 -0.15315185
vn 0.69746785 0.70005936 -0.15315185
vn 0.69746785 0.70005936 -0.15315185
vn -0.89341502 0.44528287 0.05943701
vn -0.89341502 0.44528287 0.05943701
vn -0.89341502 0.44528287 0.05943701
vn -0.70416102 0.70836901 -0.04868895
vn -0.70416102 0.70836901 -0.04868895
vn -0.70416102 0.70836901 -0.04868895
vn -0.76221066 0.62801285 -0.15695465
vn -0.76221066 0.62801285 -0.15695465
vn -0.76221066 0.62801285 -0.15695465
vn -0.67374190 0.70303723 -0.22761921
vn -0.67374190 0.70303723 -0.22761921
vn -0.67374190 0.70303723 -0.22761921
vn -0.38970559 0.90092444 -0.19095735
vn -0.38970559 0.90092444 -0.19095735
vn -0.38970559 0.90092444 -0.19095735
vn 0.02834232 -0.99477763 -0.09805194
vn 0.02834232 -0.99477763 -0.09805194
vn 0.02834232 -0.99477763 -0.09805194
vn -0.15774469 0.80439499 0.57276987
vn -0.15774469 0.80439499 0.57276987
vn -0.15774469 0.80439499 0.57276987
vn -0.49765753 0.77848984 -0.38247948
vn -0.49765753 0.77848984 -0.38247948
vn -0.49765753 0.77848984 -0.38247948
vn -0.51610775 0.71436681 -0.47255989
vn -0.51610775 0.71436681 -0.47255989
vn -0.51610775 0.71436681 -0.47255989
vn -0.34882771 0.67886890 0.64610854
vn -0.34882771 0.67886890 0.64610854
vn -0.34882771 0.67886890 0.64610854
vn -0.26823284 0.83734868 0.47633845
vn -0.26823284 0.83734868 0.47633845
vn -0.26823284 0.83734868 0.47633845
vn -0.39409892 0.52047561 -0.75749005
vn -0.39409892 0.52047561 -0.75749005
vn -0.39409892 0.52047561 -0.75749005
vn -0.21328407 0.96505984 0.15221499
vn -0.21328407 0.96505984 0.15221499
vn -0.21328407 0.96505984 0.15221499
vn -0.57575101 0.54839588 0.60644269
vn -0.57575101 0.54839588 0.60644269
vn -0.57575101 0.54839588 0.60644269
vn -0.22418590 0.79413797 -0.56487660
vn -0.22418590 0.79413797 -0.56487660
vn -0.22418590 0.79413797 -0.56487660
vn -0.24340176 0.96197795 0.12391132
vn -0.24340176 0.96197795 0.12391132
vn -0.24340176 0.96197795 0.12391132
vn -0.54186104 0.72437829 0.42621908
vn -0.54186104 0.72437829 0.42621908
vn -0.54186104 0.72437829 0.42621908
vn -0.63955486 0.67403039 0.36966556
vn -0.63955486 0.67403039 0.36966556
vn -0.63955486 0.67403039 0.36966556
vn -0.60383749 0.76244171 0.23251436
vn -0.60383749 0.76244171 0.23251436
vn -0.60383749 0.76244171 0.23251436
vn -0.83685815 0.49850344 0.22619186
vn -0.83685815 0.49850344 0.22619186
vn -0.83685815 0.49850344 0.22619186
vn 0.17436316 0.75192830 0.63576829
vn 0.17434775 0.75198891 0.63570083
vn 0.17438848 0.75182873 0.63587910
vn 0.17439912 0.75178689 0.63592564
vn -0.00163636 0.50514753 0.86303145
vn -0.00163636 0.50514753 0.86303145
vn -0.00163636 0.50514753 0.86303145
vn 0.58912066 0.76771683 0.25208673
vn 0.58912066 0.76771683 0.25208673
vn 0.58912066 0.76771683 0.25208673
vn 0.60616162 0.69673731 -0.38356905
vn 0.60616162 0.69673731 -0.38356905
vn 0.60616162 0.69673731 -0.38356905
vn 0.93272888 0.12111622 -0.33962878
vn 0.93258516 0.12263761 -0.33947745
vn 0.93281773 0.12016362 -0.33972311
vn 0.93256096 0.12289149 -0.33945212
vn 0.97082848 0.19526808 0.13914902
vn 0.97082848 0.19526808 0.13914902
vn 0.97082848 0.19526808 0.13914902
vn 0.79539306 -0.07553852 0.60136828
vn 0.79539306 -0.07553852 0.60136828
vn 0.79539306 -0.07553852 0.60136828
vn 0.89193893 0.28008151 0.35496379
vn 0.89193893 0.28008151 0.35496379
vn 0.89193893 0.28008151 0.35496379
vn 0.14240632 0.24732147 0.95841146
vn 0.14240632 0.24732147 0.95841146
vn 0.14240632 0.24732147 0.95841146
vn -0.24324656 0.02432400 0.96965945
vn -0.24324656 0.02432400 0.96965945
vn -0.24324656 0.02432400 0.96965945
vn -0.08776831 -0.02392776 0.99585350
vn -0.08776831 -0.02392776 0.99585350
vn -0.08776831 -0.02392776 0.99585350
vn -0.17825789 0.98379394 0.01932895
vn -0.17825789 0.98379394 0.01932895
vn -0.17825789 0.98379394 0.01932895
vn -0.13994318 0.99012070 0.00876947
vn -0.13994318 0.99012070 0.00876947
vn -0.13994318 0.99012070 0.00876947
vn -0.15950798 0.98715819 -0.00871279
vn -0.15950798 0.98715819 -0.00871279
vn -0.15950798 0.98715819 -0.00871279
vn -0.16004703 0.98707861 -0.00779511
vn -0.16019790 0.98706036 -0.00696263
vn -0.16021056 0.98705917 -0.00683948
vn -0.16269363 0.98667610 -0.00102935
vn -0.16263149 0.98668640 -0.00097827
vn -0.16261055 0.98668986 -0.00096105
vn -0.16852783 0.98563254 0.01126367
vn -0.16852783 0.98563254 0.01126367
vn -0.16852783 0.98563254 0.01126367
vn -0.15978612 0.98713184 -0.00625579
vn -0.16272700 0.98667057 -0.00105678
vn -0.13310276 0.98698962 0.09019505
vn -0.13310276 0.98698962 0.09019505
vn -0.13310276 0.98698962 0.09019505
vn -0.15975984 0.98713722 -0.00607457
vn -0.17271461 0.98496646 -0.00327705
vn -0.17271461 0.98496646 -0.00327705
vn -0.17271461 0.98496646 -0.00327705
vn -0.15825911 0.98739663 0.00139598
vn -0.15825911 0.98739663 0.00139598
vn -0.15825911 0.98739663 0.00139598
vn -0.14920780 0.98878735 -0.00604973
vn -0.14920780 0.98878735 -0.00604973
vn -0.14920780 0.98878735 -0.00604973
vn -0.22479224 0.27716557 0.93415614
vn -0.22479224 0.27716557 0.93415614
vn -0.22479224 0.27716557 0.93415614
vn 0.24419495 0.68665711 0.68474144
vn 0.24419495 0.68665711 0.68474144
vn 0.24419495 0.68665711 0.68474144
vn 0.75920192 0.40502268 0.50947922
vn 0.75920192 0.40502268 0.50947922
vn 0.75920192 0.40502268 0.50947922
vn -0.89929656 0.26197173 0.35019496
vn -0.89929656 0.26197173 0.35019496
vn -0.89929656 0.26197173 0.35019496
vn -0.69387469 0.49103761 0.52670673
vn -0.69387469 0.49103761 0.52670673
vn -0.69387469 0.49103761 0.52670673
vn 0.19577054 0.51219506 -0.83625960
vn 0.19577054 0.51219506 -0.83625960
vn 0.19577054 0.51219506 -0.83625960
vn -0.07856924 0.62632009 -0.77559655
vn -0.07856924 0.62632009 -0.77559655
vn -0.07856924 0.62632009 -0.77559655
vn -0.34746250 0.41756829 -0.83958712
vn -0.34746250 0.41756829 -0.83958712
vn -0.34746250 0.41756829 -0.83958712
vn -0.85101205 0.38821955 -0.35364399
vn -0.85101205 0.38821955 -0.35364399
vn -0.85101205 0.38821955 -0.35364399
vn -0.87340692 0.35519116 -0.33316601
vn -0.87340692 0.35519116 -0.33316601
vn -0.87340692 0.35519116 -0.33316601
vn 0.67663683 0.73028970 -0.09401895
vn 0.67663683 0.73028970 -0.09401895
vn 0.67663683 0.73028970 -0.09401895
vn 0.75005765 0.56494051 -0.34388333
vn 0.75005765 0.56494051 -0.34388333
vn 0.75005765 0.56494051 -0.34388333
vn 0.99157467 0.08617047 0.09671781
vn 0.99157467 0.08617047 0.09671781
vn 0.99157467 0.08617047 0.09671781
vn 0.90200123 0.27685991 0.33127386
vn 0.90200123 0.27685991 0.33127386
vn 0.90200123 0.27685991 0.33127386
vn 0.38915099 -0.08415468 0.91732192
vn 0.38915099 -0.08415468 0.91732192
vn 0.38915099 -0.08415468 0.91732192
vn -0.00983019 0.15392359 0.98803385
vn -0.00983019 0.15392359 0.98803385
vn -0.00983019 0.15392359 0.98803385
vn -0.51618331 -0.11800354 0.84831006
vn -0.51618331 -0.11800354 0.84831006
vn -0.51618331 -0.11800354 0.84831006
vn -0.86748759 -0.08335169 0.49042613
vn -0.86748759 -0.08335169 0.49042613
vn -0.86748759 -0.08335169 0.49042613
vn -0.90117363 -0.16840852 0.39940538
vn -0.90117363 -0.16840852 0.39940538
vn -0.90117363 -0.16840852 0.39940538
vn -0.15986946 0.98713816 -0.00001124
vn -0.15988915 0.98713497 -0.00004965
vn -0.15986799 0.98713840 0.00001066
vn -0.15987297 0.98713760 0.00002762
vn -0.15989436 0.98713413 -0.00003371
vn -0.15985286 0.98714085 0.00000081
vn -0.15992135 0.98712975 0.00014891
vn -0.15983089 0.98714441 0.00009140
vn -0.15987725 0.98713690 -0.00000301
vn -0.16003942 0.98711062 -0.00001623
vn -0.15964600 0.98717425 -0.00038214
vn -0.16021732 0.98708173 0.00027229
vn -0.15989697 0.98713371 0.00004610
vn -0.15972834 0.98716090 -0.00046568
vn -0.15953615 0.98719206 0.00023475
vn -0.15822209 0.98740355 0.00005517
vn -0.16319779 0.98659333 -0.00028510
vn -0.16196352 0.98679669 0.00032075
vn -0.15991352 0.98713103 0.00004318
vn -0.15999282 0.98711813 0.00031544
vn -0.15976904 0.98715442 0.00005753
vn -0.15818555 0.98740932 -0.00040988
vn -0.15996889 0.98712206 -0.00000373
vn -0.15997644 0.98712083 0.00003540
vn -0.15994671 0.98712565 0.00006976
vn -0.15989737 0.98713364 0.00000468
vn -0.15985898 0.98713986 0.00004193
vn -0.15978802 0.98715135 -0.00000699
vn -0.15994469 0.98712598 -0.00000687
vn -0.15988350 0.98713589 -0.00000958
vn -0.15988553 0.98713556 0.00000597
vn -0.15988550 0.98713557 -0.00001493
vn -0.15993886 0.98712692 -0.00003208
vn -0.15987842 0.98713671 0.00002277
vn -0.15987749 0.98713686 0.00000119
vn -0.15990692 0.98713210 -0.00001931
vn -0.15989489 0.98713405 0.00000322
vn -0.15985259 0.98714090 0.00000399
vn -0.15984857 0.98714155 -0.00002251
vn -0.44614861 0.66867951 0.59482698
vn -0.44614861 0.66867951 0.59482698
vn -0.44614861 0.66867951 0.59482698
vn 0.33569831 0.65524586 0.67672706
vn 0.33569831 0.65524586 0.67672706
vn 0.33569831 0.65524586 0.67672706
vn -0.96586471 -0.09927216 -0.23927056
vn -0.96586471 -0.09927216 -0.23927056
vn -0.96586471 -0.09927216 -0.23927056
vn -0.94661670 -0.14934479 -0.28567980
vn -0.94661670 -0.14934479 -0.28567980
vn -0.94661670 -0.14934479 -0.28567980
vn -0.93842972 -0.14212789 -0.31487986
vn -0.93842972 -0.14212789 -0.31487986
vn -0.93842972 -0.14212789 -0.31487986
vn -0.87180805 -0.13044807 -0.47215890
vn -0.87180805 -0.13044807 -0.47215890
vn -0.87180805 -0.13044807 -0.47215890
vn -0.78686766 -0.13116928 -0.60302066
vn -0.78705374 -0.13126467 -0.60275700
vn -0.78709917 -0.13128796 -0.60269260
vn -0.78684919 -0.13115982 -0.60304681
vn -0.62992484 -0.08617260 -0.77186072
vn -0.62992484 -0.08617260 -0.77186072
vn -0.62992484 -0.08617260 -0.77186072
vn -0.38874493 -0.05766631 -0.91953900
vn -0.38874493 -0.05766631 -0.91953900
vn -0.38874493 -0.05766631 -0.91953900
vn -0.36428819 -0.06035211 -0.92932865
vn -0.36428819 -0.06035211 -0.92932865
vn -0.36428819 -0.06035211 -0.92932865
vn -0.24662325 -0.04148104 -0.96822327
vn -0.24662325 -0.04148104 -0.96822327
vn -0.24662325 -0.04148104 -0.96822327
vn 0.00267625 0.09782077 -0.99520045
vn 0.00267625 0.09782077 -0.99520045
vn 0.00267625 0.09782077 -0.99520045
vn -0.08125180 0.17081496 -0.98194725
vn -0.08125180 0.17081496 -0.98194725
vn -0.08125180 0.17081496 -0.98194725
vn 0.27197066 0.08369395 -0.95865911
vn 0.27197066 0.08369395 -0.95865911
vn 0.27197066 0.08369395 -0.95865911
vn 0.29315257 0.05793305 -0.95430882
vn 0.29315257 0.05793305 -0.95430882
vn 0.29315257 0.05793305 -0.95430882
vn 0.58529907 0.08824493 -0.80600113
vn 0.58529907 0.08824493 -0.80600113
vn 0.58529907 0.08824493 -0.80600113
vn 0.53513704 0.06226669 -0.84246733
vn 0.53513704 0.06226669 -0.84246733
vn 0.53513704 0.06226669 -0.84246733
vn 0.84262220 0.15712893 -0.51507118
vn 0.84262220 0.15712893 -0.51507118
vn 0.84262220 0.15712893 -0.51507118
vn 0.92367403 0.14531581 -0.35455549
vn 0.92367403 0.14531581 -0.35455549
vn 0.92367403 0.14531581 -0.35455549
vn 0.94912157 0.15376491 -0.27481739
vn 0.94912157 0.15376491 -0.27481739
vn 0.94912157 0.15376491 -0.27481739
vn 0.91744707 0.14833144 -0.36917295
vn 0.91744707 0.14833144 -0.36917295
vn 0.91744707 0.14833144 -0.36917295
vn 0.96803525 0.24525944 -0.05249340
vn 0.96803525 0.24525944 -0.05249340
vn 0.96803525 0.24525944 -0.05249340
vn -0.34362481 -0.05180891 -0.93767682
vn -0.34362481 -0.05180891 -0.93767682
vn -0.34362481 -0.05180891 -0.93767682
vn -0.07218701 0.00252984 -0.99738791
vn -0.07218701 0.00252984 -0.99738791
vn -0.07218701 0.00252984 -0.99738791
vn 0.15064666 0.02037190 -0.98837775
vn 0.15064666 0.02037190 -0.98837775
vn 0.15064666 0.02037190 -0.98837775
vn 0.92480317 0.15343666 -0.34813258
vn 0.92480317 0.15343666 -0.34813258
vn 0.92480317 0.15343666 -0.34813258
vn 0.96447696 0.16638921 -0.20518000
vn 0.96447696 0.16638921 -0.20518000
vn 0.96447696 0.16638921 -0.20518000
vn 0.64709368 0.76055355 0.05317961
vn 0.64709368 0.76055355 0.05317961
vn 0.64709368 0.76055355 0.05317961
vn 0.94750304 0.16154324 0.27593797
vn 0.94750304 0.16154324 0.27593797
vn 0.94750304 0.16154324 0.27593797
vn 0.97368185 0.15187317 0.16993588
vn 0.97368185 0.15187317 0.16993588
vn 0.97368185 0.15187317 0.16993588
vn 0.97855225 0.20073903 0.04625286
vn 0.97855225 0.20073903 0.04625286
vn 0.97855225 0.20073903 0.04625286
vn 0.96312032 0.24178656 0.11806145
vn 0.96312032 0.24178656 0.11806145
vn 0.96312032 0.24178656 0.11806145
vn 0.96245901 0.16186381 0.21788244
vn 0.96245901 0.16186381 0.21788244
vn 0.96245901 0.16186381 0.21788244
vn 0.88430949 0.11902351 0.45147551
vn 0.88430949 0.11902351 0.45147551
vn 0.88430949 0.11902351 0.45147551
vn 0.87555472 0.13167964 0.46482729
vn 0.87555472 0.13167964 0.46482729
vn 0.87555472 0.13167964 0.46482729
vn 0.86261900 0.14297451 0.48522855
vn 0.86261900 0.14297451 0.48522855
vn 0.86261900 0.14297451 0.48522855
vn 0.88922750 0.14294512 0.43455857
vn 0.88922750 0.14294512 0.43455857
vn 0.88922750 0.14294512 0.43455857
vn 0.70057206 0.10084266 0.70642024
vn 0.70057206 0.10084266 0.70642024
vn 0.70057206 0.10084266 0.70642024
vn -0.15988958 0.98713491 0.00001297
vn -0.15987515 0.98713724 -0.00004592
vn -0.15987869 0.98713667 -0.00000943
vn -0.15986502 0.98713888 0.00001175
vn -0.15990224 0.98713285 -0.00000368
vn -0.15985203 0.98714099 -0.00001541
vn 0.79785564 0.10249741 -0.59407125
vn 0.79785564 0.10249741 -0.59407125
vn 0.79785564 0.10249741 -0.59407125
vn 0.71394820 0.15650971 -0.68248273
vn 0.71394820 0.15650971 -0.68248273
vn 0.71394820 0.15650971 -0.68248273
vn 0.94481204 0.21384585 0.24819379
vn 0.94481204 0.21384585 0.24819379
vn 0.94481204 0.21384585 0.24819379
vn -0.59674434 -0.11784567 0.79373080
vn -0.59674434 -0.11784567 0.79373080
vn -0.59674434 -0.11784567 0.79373080
vn -0.68255691 -0.08414035 0.72597278
vn -0.68255691 -0.08414035 0.72597278
vn -0.68255691 -0.08414035 0.72597278
vn 0.02159569 0.06513973 0.99764244
vn 0.02159569 0.06513973 0.99764244
vn 0.02159569 0.06513973 0.99764244
vn -0.99523435 -0.08937631 0.03899316
vn -0.99523435 -0.08937631 0.03899316
vn -0.99523435 -0.08937631 0.03899316
vn -0.99449853 -0.10092554 0.02804843
vn -0.99449853 -0.10092554 0.02804843
vn -0.99449853 -0.10092554 0.02804843
vn -0.27965191 0.02948904 0.95964848
vn -0.27965191 0.02948904 0.95964848
vn -0.27965191 0.02948904 0.95964848
vn 0.49271472 0.08718546 0.86581228
vn 0.49271472 0.08718546 0.86581228
vn 0.49271472 0.08718546 0.86581228
vn 0.44433904 0.05470373 0.89418696
vn 0.44433904 0.05470373 0.89418696
vn 0.44433904 0.05470373 0.89418696
vn 0.46067681 0.07954952 0.88399590
vn 0.46067681 0.07954952 0.88399590
vn 0.46067681 0.07954952 0.88399590
vn -0.30346575 -0.03801416 0.95208375
vn -0.30346575 -0.03801416 0.95208375
vn -0.30346575 -0.03801416 0.95208375
vn 0.40352530 0.05501070 0.91331328
vn 0.40352530 0.05501070 0.91331328
vn 0.40352530 0.05501070 0.91331328
vn -0.52678532 -0.11355209 0.84237946
vn -0.52678532 -0.11355209 0.84237946
vn -0.52678532 -0.11355209 0.84237946
vn -0.63092919 -0.09892219 0.76950813
vn -0.63092919 -0.09892219 0.76950813
vn -0.63092919 -0.09892219 0.76950813
vn 0.23290612 0.03698220 0.97179579
vn 0.23290612 0.03698220 0.97179579
vn 0.23290612 0.03698220 0.97179579
vn -0.83557824 -0.11984088 0.53614100
vn -0.83557824 -0.11984088 0.53614100
vn -0.83557824 -0.11984088 0.53614100
vn -0.92279301 -0.15425476 0.35307014
vn -0.92279301 -0.15425476 0.35307014
vn -0.92279301 -0.15425476 0.35307014
vn 0.03717665 0.15175400 0.98771890
vn 0.03717665 0.15175400 0.98771890
vn 0.03717665 0.15175400 0.98771890
vn -0.91407028 -0.14606043 0.37834094
vn -0.91407028 -0.14606043 0.37834094
vn -0.91407028 -0.14606043 0.37834094
vn -0.95706754 -0.15070202 0.24760982
vn -0.95706754 -0.15070202 0.24760982
vn -0.95706754 -0.15070202 0.24760982
vn 0.03465945 0.14853332 0.98829984
vn 0.03465945 0.14853332 0.98829984
vn 0.03465945 0.14853332 0.98829984
vn 0.32540235 0.05725161 0.94384086
vn 0.32540235 0.05725161 0.94384086
vn 0.32540235 0.05725161 0.94384086
vn 0.06842492 0.02533381 0.99733456
vn 0.06842492 0.02533381 0.99733456
vn 0.06842492 0.02533381 0.99733456
vn -0.14933323 -0.02824257 0.98838350
vn -0.14933323 -0.02824257 0.98838350
vn -0.14933323 -0.02824257 0.98838350
vn -0.94161379 -0.14676171 0.30302552
vn -0.94161379 -0.14676171 0.30302552
vn -0.94161379 -0.14676171 0.30302552
vn -0.98030877 -0.17325332 0.09475231
vn -0.98030877 -0.17325332 0.09475231
vn -0.98030877 -0.17325332 0.09475231
vn -0.97312830 -0.14706559 -0.17718074
vn -0.97312830 -0.14706559 -0.17718074
vn -0.97312830 -0.14706559 -0.17718074
vn -0.92349297 0.38042172 0.04939677
vn -0.92349297 0.38042172 0.04939677
vn -0.92349297 0.38042172 0.04939677
vn -0.77820560 -0.00007365 0.62800959
vn -0.77820560 -0.00007365 0.62800959
vn -0.77820560 -0.00007365 0.62800959
vn -0.69470639 -0.11253495 0.71043573
vn -0.69470639 -0.11253495 0.71043573
vn -0.69470639 -0.11253495 0.71043573
vn -0.99230150 -0.12384562 0.00000000
vn -0.99230150 -0.12384562 0.00000000
vn -0.99230150 -0.12384562 0.00000000
vn -0.98679773 -0.15985060 0.02603881
vn -0.98679773 -0.15985060 0.02603881
vn -0.98679773 -0.15985060 0.02603881
vn -0.68168182 -0.05061464 -0.72989592
vn -0.68112427 -0.05161814 -0.73034601
vn -0.68052036 -0.05270287 -0.73083134
vn -0.68222083 -0.04964266 -0.72945894
vn 0.67776123 0.14381772 -0.72107987
vn 0.67776123 0.14381772 -0.72107987
vn 0.67776123 0.14381772 -0.72107987
vn 0.70309776 0.11385567 -0.70191911
vn 0.70309776 0.11385567 -0.70191911
vn 0.70309776 0.11385567 -0.70191911
vn 0.23731296 0.45945399 -0.85591156
vn 0.23731296 0.45945399 -0.85591156
vn 0.23731296 0.45945399 -0.85591156
vn 0.00000000 0.00000000 -1.00000000
vn 0.00000000 0.00000000 -1.00000000
vn 0.00000000 0.00000000 -1.00000000
vn 0.66292690 0.27126977 -0.69781132
vn 0.66292690 0.27126977 -0.69781132
vn 0.66292690 0.27126977 -0.69781132
vn 0.28657234 -0.26423514 -0.92089961
vn 0.28657234 -0.26423514 -0.92089961
vn 0.28657234 -0.26423514 -0.92089961
vn -0.66851348 -0.09925733 -0.73704661
vn -0.66851348 -0.09925733 -0.73704661
vn -0.66851348 -0.09925733 -0.73704661
vn -0.69050877 -0.21997376 -0.68906400
vn -0.69050877 -0.21997376 -0.68906400
vn -0.69050877 -0.21997376 -0.68906400
vn 0.69797544 0.11294759 0.70715849
vn 0.69797544 0.11294759 0.70715849
vn 0.69797544 0.11294759 0.70715849
vn 0.69184130 0.12266824 0.71155331
vn 0.69184130 0.12266824 0.71155331
vn 0.69184130 0.12266824 0.71155331
vn 0.98715853 0.15974369 0.00000000
vn 0.98715853 0.15974369 0.00000000
vn 0.98715853 0.15974369 0.00000000
vn 0.98715853 0.15974369 0.00000000
vn 0.69787808 0.11318627 -0.70721641
vn 0.69784722 0.11305898 -0.70726722
vn 0.69791142 0.11332384 -0.70716148
vn 0.69781386 0.11292144 -0.70732211
vn 0.69739259 0.11671825 0.70712123
vn 0.69739259 0.11671825 0.70712123
vn 0.69739259 0.11671825 0.70712123
vn 0.69513425 0.11260349 0.71000621
vn 0.69513425 0.11260349 0.71000621
vn 0.69513425 0.11260349 0.71000621
vn -0.69796657 -0.11295652 0.70716581
vn -0.69793769 -0.11300273 0.70718694
vn -0.69799773 -0.11290668 0.70714303
vn -0.69790653 -0.11305256 0.70720972
vn 0.00000000 0.00000000 1.00000000
vn 0.00000000 0.00000000 1.00000000
vn 0.00000000 0.00000000 1.00000000
vn 0.00000000 0.00000000 1.00000000
vn 0.68752170 0.17004140 0.70597439
vn 0.68752170 0.17004140 0.70597439
vn 0.68752170 0.17004140 0.70597439
vn 0.72773483 0.11784525 0.67565858
vn 0.72773483 0.11784525 0.67565858
vn 0.72773483 0.11784525 0.67565858
vn -0.71462733 0.04670161 0.69794465
vn -0.71462733 0.04670161 0.69794465
vn -0.71462733 0.04670161 0.69794465
vn -0.25498582 -0.32163327 0.91188501
vn -0.25498582 -0.32163327 0.91188501
vn -0.25498582 -0.32163327 0.91188501
vn -0.39757783 0.54272067 0.73985548
vn -0.39757783 0.54272067 0.73985548
vn -0.39757783 0.54272067 0.73985548
vn -0.23529911 0.39036253 0.89008507
vn -0.23529911 0.39036253 0.89008507
vn -0.23529911 0.39036253 0.89008507
vn 0.66775515 0.57822240 0.46878771
vn 0.66775515 0.57822240 0.46878771
vn 0.66775515 0.57822240 0.46878771
vn 0.73889560 0.51084813 0.43939446
vn 0.73889560 0.51084813 0.43939446
vn 0.73889560 0.51084813 0.43939446
vn -0.90305022 0.24467105 0.35303878
vn -0.90305022 0.24467105 0.35303878
vn -0.90305022 0.24467105 0.35303878
vn -0.23840046 0.43270524 0.86944315
vn -0.23840046 0.43270524 0.86944315
vn -0.23840046 0.43270524 0.86944315
vn -0.13706379 0.58093708 0.80232514
vn -0.13706379 0.58093708 0.80232514
vn -0.13706379 0.58093708 0.80232514
vn 0.61647879 0.65045129 0.44369699
vn 0.61647879 0.65045129 0.44369699
vn 0.61647879 0.65045129 0.44369699
vn 0.87707080 0.35738918 0.32096695
vn 0.87707080 0.35738918 0.32096695
vn 0.87707080 0.35738918 0.32096695
vn -0.87865752 0.46679985 0.10029386
vn -0.87865752 0.46679985 0.10029386
vn -0.87865752 0.46679985 0.10029386
vn -0.89132683 0.29446879 0.34470947
vn -0.89132683 0.29446879 0.34470947
vn -0.89132683 0.29446879 0.34470947
vn 0.31166543 0.68867693 -0.65466689
vn 0.31166543 0.68867693 -0.65466689
vn 0.31166543 0.68867693 -0.65466689
vn -0.49554856 0.51048341 -0.70273630
vn -0.49554856 0.51048341 -0.70273630
vn -0.49554856 0.51048341 -0.70273630
vn -0.22986032 0.32556210 -0.91715514
vn -0.22986032 0.32556210 -0.91715514
vn -0.22986032 0.32556210 -0.91715514
vn -0.90224255 0.24866925 -0.35230949
vn -0.90224255 0.24866925 -0.35230949
vn -0.90224255 0.24866925 -0.35230949
vn 0.76031371 0.40235207 -0.50993712
vn 0.76031371 0.40235207 -0.50993712
vn 0.76031371 0.40235207 -0.50993712
vn 0.56476805 0.66018237 -0.49517299
vn 0.56476805 0.66018237 -0.49517299
vn 0.56476805 0.66018237 -0.49517299
vn 0.15993841 0.45360077 -0.87673602
vn 0.15993841 0.45360077 -0.87673602
vn 0.15993841 0.45360077 -0.87673602
vn -0.21645897 0.63248893 -0.74370912
vn -0.21645897 0.63248893 -0.74370912
vn -0.21645897 0.63248893 -0.74370912
vn -0.59935850 0.41371073 -0.68528302
vn -0.59935850 0.41371073 -0.68528302
vn -0.59935850 0.41371073 -0.68528302
vn -0.89260514 0.29032283 -0.34491843
vn -0.89260514 0.29032283 -0.34491843
vn -0.89260514 0.29032283 -0.34491843
vn -0.88207350 0.45869905 -0.10743150
vn -0.88207350 0.45869905 -0.10743150
vn -0.88207350 0.45869905 -0.10743150
vn 0.76369092 0.53528505 -0.36089624
vn 0.76369092 0.53528505 -0.36089624
vn 0.76369092 0.53528505 -0.36089624
vn -0.39767584 0.54281290 0.73973514
vn -0.39767584 0.54281290 0.73973514
vn -0.39767584 0.54281290 0.73973514
vn -0.23524451 0.39037894 0.89009230
vn -0.23524451 0.39037894 0.89009230
vn -0.23524451 0.39037894 0.89009230
vn 0.66764344 0.57827784 0.46887842
vn 0.66764344 0.57827784 0.46887842
vn 0.66764344 0.57827784 0.46887842
vn 0.73885953 0.51091673 0.43937534
vn 0.73885953 0.51091673 0.43937534
vn 0.73885953 0.51091673 0.43937534
vn -0.86605804 0.28739421 0.40908195
vn -0.86605804 0.28739421 0.40908195
vn -0.86605804 0.28739421 0.40908195
vn 0.64158974 0.55484575 -0.52963082
vn 0.64158974 0.55484575 -0.52963082
vn 0.64158974 0.55484575 -0.52963082
vn -0.20783904 0.49841971 -0.84165357
vn -0.20783904 0.49841971 -0.84165357
vn -0.20783904 0.49841971 -0.84165357
vn -0.23952909 0.44852962 -0.86107317
vn -0.23952909 0.44852962 -0.86107317
vn -0.23952909 0.44852962 -0.86107317
vn -0.87474066 0.30370852 -0.37761080
vn -0.87474066 0.30370852 -0.37761080
vn -0.87474066 0.30370852 -0.37761080
vn -0.86504277 0.49046692 -0.10556142
vn -0.86504277 0.49046692 -0.10556142
vn -0.86504277 0.49046692 -0.10556142
vn 0.72176079 0.48421855 -0.49456422
vn 0.72176079 0.48421855 -0.49456422
vn 0.72176079 0.48421855 -0.49456422
vn -0.48099969 0.53898719 0.69147097
vn -0.48099969 0.53898719 0.69147097
vn -0.48099969 0.53898719 0.69147097
vn 0.28212432 0.63211764 0.72168772
vn 0.28212432 0.63211764 0.72168772
vn 0.28212432 0.63211764 0.72168772
vn 0.10343445 0.39289210 0.91374893
vn 0.10343445 0.39289210 0.91374893
vn 0.10343445 0.39289210 0.91374893
vn 0.76234123 0.53759923 0.36030948
vn 0.76234123 0.53759923 0.36030948
vn 0.76234123 0.53759923 0.36030948
vn -0.89526230 0.44159829 0.05913003
vn -0.89526230 0.44159829 0.05913003
vn -0.89526230 0.44159829 0.05913003
vn 0.69748413 0.71556918 0.03842711
vn 0.69748413 0.71556918 0.03842711
vn 0.69748413 0.71556918 0.03842711
vn -0.84726057 0.15851377 0.50697428
vn -0.84726057 0.15851377 0.50697428
vn -0.84726057 0.15851377 0.50697428
vn 0.28159384 0.67578291 -0.68119187
vn 0.28159384 0.67578291 -0.68119187
vn 0.28159384 0.67578291 -0.68119187
vn -0.49727475 0.51185701 -0.70051426
vn -0.49727475 0.51185701 -0.70051426
vn -0.49727475 0.51185701 -0.70051426
vn -0.22928478 0.32529492 -0.91739397
vn -0.22928478 0.32529492 -0.91739397
vn -0.22928478 0.32529492 -0.91739397
vn -0.90296726 0.24496700 -0.35304574
vn -0.90296726 0.24496700 -0.35304574
vn -0.90296726 0.24496700 -0.35304574
vn 0.75857929 0.40559959 -0.50994748
vn 0.75857929 0.40559959 -0.50994748
vn 0.75857929 0.40559959 -0.50994748
vn -0.90809482 -0.12487150 -0.39971353
vn -0.90809482 -0.12487150 -0.39971353
vn -0.90809482 -0.12487150 -0.39971353
vn -0.84965157 -0.19450321 -0.49016397
vn -0.84965157 -0.19450321 -0.49016397
vn -0.84965157 -0.19450321 -0.49016397
vn -0.28970306 0.03507648 -0.95647362
vn -0.28970306 0.03507648 -0.95647362
vn -0.28970306 0.03507648 -0.95647362
vn -0.07037258 -0.08196804 -0.99414734
vn -0.07037258 -0.08196804 -0.99414734
vn -0.07037258 -0.08196804 -0.99414734
vn 0.67585386 0.16587860 -0.71812663
vn 0.67585386 0.16587860 -0.71812663
vn 0.67585386 0.16587860 -0.71812663
vn 0.66282105 0.14159687 -0.73526770
vn 0.66282105 0.14159687 -0.73526770
vn 0.66282105 0.14159687 -0.73526770
vn 0.84967740 0.34429262 0.39938817
vn 0.84967740 0.34429262 0.39938817
vn 0.84967740 0.34429262 0.39938817
vn 0.40660025 -0.13564563 0.90348022
vn 0.40660025 -0.13564563 0.90348022
vn 0.40660025 -0.13564563 0.90348022
vn -0.71707599 -0.16613740 0.67690500
vn -0.71707599 -0.16613740 0.67690500
vn -0.71707599 -0.16613740 0.67690500
vn -0.54134957 0.07729102 0.83723757
vn -0.54134957 0.07729102 0.83723757
vn -0.54134957 0.07729102 0.83723757
vn 0.95967756 0.27632984 0.05158292
vn 0.95967756 0.27632984 0.05158292
vn 0.95967756 0.27632984 0.05158292
vn 0.87947840 0.00255383 0.47593195
vn 0.87947840 0.00255383 0.47593195
vn 0.87947840 0.00255383 0.47593195
vn 0.19883807 0.20159034 0.95907495
vn 0.19883807 0.20159034 0.95907495
vn 0.19883807 0.20159034 0.95907495
vn -0.31504961 -0.25005872 0.91554049
vn -0.31504961 -0.25005872 0.91554049
vn -0.31504961 -0.25005872 0.91554049
vn -0.89032081 -0.01808826 0.45497435
vn -0.89032081 -0.01808826 0.45497435
vn -0.89032081 -0.01808826 0.45497435
vn 0.95232825 -0.01189921 0.30484308
vn 0.95232825 -0.01189921 0.30484308
vn 0.95232825 -0.01189921 0.30484308
vn 0.56376883 0.22917232 0.79350157
vn 0.56376883 0.22917232 0.79350157
vn 0.56376883 0.22917232 0.79350157
vn -0.04251560 -0.15888286 0.98638160
vn -0.04251560 -0.15888286 0.98638160
vn -0.04251560 -0.15888286 0.98638160
vn -0.53164143 0.03737773 0.84614437
vn -0.53164143 0.03737773 0.84614437
vn -0.53164143 0.03737773 0.84614437
vn -0.94421052 -0.30601128 0.12175219
vn -0.94421052 -0.30601128 0.12175219
vn -0.94421052 -0.30601128 0.12175219
vn 0.99856627 0.02671658 0.04638569
vn 0.99856627 0.02671658 0.04638569
vn 0.99856627 0.02671658 0.04638569
vn 0.65326856 0.24708600 0.71567359
vn 0.65326856 0.24708600 0.71567359
vn 0.65326856 0.24708600 0.71567359
vn 0.45201644 0.02413602 0.89168301
vn 0.45201644 0.02413602 0.89168301
vn 0.45201644 0.02413602 0.89168301
vn -0.47529201 -0.08401680 0.87580745
vn -0.47529201 -0.08401680 0.87580745
vn -0.47529201 -0.08401680 0.87580745
vn -0.72536472 0.08044401 0.68364815
vn -0.72536472 0.08044401 0.68364815
vn -0.72536472 0.08044401 0.68364815
vn -0.94486468 -0.32406943 0.04700776
vn -0.94486468 -0.32406943 0.04700776
vn -0.94486468 -0.32406943 0.04700776
vn 0.87971438 -0.00474891 0.47547877
vn 0.87971438 -0.00474891 0.47547877
vn 0.87971438 -0.00474891 0.47547877
vn 0.36082503 0.25028565 0.89842217
vn 0.36082503 0.25028565 0.89842217
vn 0.36082503 0.25028565 0.89842217
vn -0.30978245 -0.27009743 0.91163710
vn -0.30978245 -0.27009743 0.91163710
vn -0.30978245 -0.27009743 0.91163710
vn -0.94344897 0.08603417 0.32015958
vn -0.94344897 0.08603417 0.32015958
vn -0.94344897 0.08603417 0.32015958
vn -0.91661655 -0.12002931 -0.38132279
vn -0.91661655 -0.12002931 -0.38132279
vn -0.91661655 -0.12002931 -0.38132279
vn -0.89287046 -0.05806489 -0.44655438
vn -0.89287046 -0.05806489 -0.44655438
vn -0.89287046 -0.05806489 -0.44655438
vn 0.07077655 -0.11804479 -0.99048276
vn 0.07077655 -0.11804479 -0.99048276
vn 0.07077655 -0.11804479 -0.99048276
vn 0.36648640 0.21577165 -0.90505818
vn 0.36648640 0.21577165 -0.90505818
vn 0.36648640 0.21577165 -0.90505818
vn 0.99167503 0.01980460 -0.12723373
vn 0.99167503 0.01980460 -0.12723373
vn 0.99167503 0.01980460 -0.12723373
vn -0.95634612 -0.26953054 -0.11293976
vn -0.95634612 -0.26953054 -0.11293976
vn -0.95634612 -0.26953054 -0.11293976
vn -0.14739401 0.01991500 -0.98887734
vn -0.14739401 0.01991500 -0.98887734
vn -0.14739401 0.01991500 -0.98887734
vn -0.09085004 0.09677576 -0.99115121
vn -0.09085004 0.09677576 -0.99115121
vn -0.09085004 0.09677576 -0.99115121
vn 0.82425669 0.02918550 -0.56546363
vn 0.82425669 0.02918550 -0.56546363
vn 0.82425669 0.02918550 -0.56546363
vn 0.94843626 0.28437968 -0.13998879
vn 0.94843626 0.28437968 -0.13998879
vn 0.94843626 0.28437968 -0.13998879
vn -0.52378999 0.04706938 -0.85054601
vn -0.52378999 0.04706938 -0.85054601
vn -0.52378999 0.04706938 -0.85054601
vn -0.54781849 0.01144022 -0.83651899
vn -0.54781849 0.01144022 -0.83651899
vn -0.54781849 0.01144022 -0.83651899
vn 0.48500878 -0.01864868 -0.87431042
vn 0.48500878 -0.01864868 -0.87431042
vn 0.48500878 -0.01864868 -0.87431042
vn 0.76564458 0.27603255 -0.58102876
vn 0.76564458 0.27603255 -0.58102876
vn 0.76564458 0.27603255 -0.58102876
vn -0.94356423 -0.01706800 -0.33074948
vn -0.94356423 -0.01706800 -0.33074948
vn -0.94356423 -0.01706800 -0.33074948
vn -0.48223368 -0.18494498 -0.85629786
vn -0.48223368 -0.18494498 -0.85629786
vn -0.48223368 -0.18494498 -0.85629786
vn -0.02264486 0.09235712 -0.99546842
vn -0.02264486 0.09235712 -0.99546842
vn -0.02264486 0.09235712 -0.99546842
vn 0.57758429 -0.04044263 -0.81532864
vn 0.57758429 -0.04044263 -0.81532864
vn 0.57758429 -0.04044263 -0.81532864
vn 0.85854928 0.28501973 -0.42621226
vn 0.85854928 0.28501973 -0.42621226
vn 0.85854928 0.28501973 -0.42621226
vn -0.95169743 -0.28576614 -0.11229297
vn -0.95169743 -0.28576614 -0.11229297
vn -0.95169743 -0.28576614 -0.11229297
vn -0.78611556 -0.00439116 -0.61806394
vn -0.78611556 -0.00439116 -0.61806394
vn -0.78611556 -0.00439116 -0.61806394
vn -0.11690719 -0.15157126 -0.98150846
vn -0.11690719 -0.15157126 -0.98150846
vn -0.11690719 -0.15157126 -0.98150846
vn 0.28099990 0.16382897 -0.94562103
vn 0.28099990 0.16382897 -0.94562103
vn 0.28099990 0.16382897 -0.94562103
vn 0.82509974 0.02003877 -0.56463162
vn 0.82509974 0.02003877 -0.56463162
vn 0.82509974 0.02003877 -0.56463162
f 1//1 2//2 3//3
f 4//4 5//5 6//6
f 7//7 8//8 9//9
f 10//10 11//11 12//12
f 13//13 14//14 15//15
f 16//16 17//17 18//18
f 19//19 20//20 21//21
f 22//22 15//15 23//23
f 24//24 25//25 26//26
f 27//27 28//28 29//29
f 30//30 31//31 32//32
f 33//33 34//34 35//35
f 36//36 37//37 38//38
f 39//39 40//40 41//41
f 42//42 43//43 44//44
f 45//45 46//46 47//47
f 48//48 49//49 50//50
f 51//51 52//52 53//53
f 54//54 55//55 56//56
f 57//57 58//58 59//59
f 60//60 61//61 62//62
f 63//63 64//64 65//65
f 66//66 67//67 68//68
f 69//69 70//70 71//71
f 53//53 52//52 72//72
f 73//73 74//74 75//75
f 76//76 77//77 78//78
f 79//79 80//80 81//81
f 79//79 81//81 82//82
f 83//83 32//32 31//31
f 84//84 85//85 86//86
f 87//87 88//88 89//89
f 90//90 91//91 92//92
f 93//93 94//94 95//95
f 96//96 97//97 98//98
f 99//99 100//100 101//101
f 102//102 103//103 104//104
f 105//105 106//106 107//107
f 108//108 109//109 110//110
f 111//111 107//107 106//106
f 112//112 110//110 113//113
f 112//112 113//113 114//114
f 112//112 108//108 110//110
f 115//115 116//116 117//117
f 118//118 109//109 108//108
f 119//119 120//120 121//121
f 122//122 53//53 123//123
f 124//124 125//125 126//126
f 127//127 88//88 87//87
f 128//128 112//112 114//114
f 129//129 130//130 131//131
f 132//132 133//133 134//134
f 135//135 136//136 137//137
f 138//138 120//120 119//119
f 139//139 140//140 141//141
f 142//142 143//143 144//144
f 145//145 146//146 147//147
f 148//148 149//149 150//150
f 151//151 152//152 153//153
f 154//154 155//155 156//156
f 157//157 158//158 159//159
f 160//160 161//161 162//162
f 163//163 164//164 165//165
f 166//166 167//167 168//168
f 169//169 170//170 171//171
f 172//172 173//173 174//174
f 175//175 176//176 177//177
f 178//178 139//139 141//141
f 179//179 180//180 181//181
f 182//182 183//183 184//184
f 185//185 186//186 187//187
f 188//188 189//189 190//190
f 191//191 192//192 193//193
f 182//182 184//184 194//194
f 23//23 194//194 105//105
f 195//195 196//196 197//197
f 198//198 199//199 200//200
f 182//182 194//194 23//23
f 201//201 202//202 203//203
f 204//204 205//205 206//206
f 207//207 208//208 209//209
f 210//210 211//211 212//212
f 213//213 214//214 215//215
f 216//216 115//115 117//117
f 217//217 218//218 219//219
f 220//220 128//128 221//221
f 222//222 223//223 224//224
f 220//220 225//225 128//128
f 226//226 227//227 228//228
f 226//226 229//229 230//230
f 231//231 232//232 233//233
f 226//226 228//228 234//234
f 235//235 236//236 237//237
f 238//238 239//239 240//240
f 43//43 241//241 44//44
f 242//242 243//243 244//244
f 7//7 175//175 8//8
f 245//245 129//129 246//246
f 247//247 248//248 249//249
f 250//250 251//251 252//252
f 253//253 254//254 255//255
f 256//256 257//257 258//258
f 256//256 39//39 257//257
f 259//259 260//260 261//261
f 262//262 263//263 264//264
f 265//265 247//247 266//266
f 265//265 266//266 267//267
f 268//268 269//269 270//270
f 271//271 272//272 273//273
f 274//274 275//275 276//276
f 277//277 278//278 279//279
f 280//280 281//281 282//282
f 283//283 284//284 285//285
f 286//286 287//287 288//288
f 289//289 290//290 291//291
f 292//292 293//293 294//294
f 295//295 296//296 297//297
f 298//298 299//299 300//300
f 301//301 302//302 303//303
f 304//304 305//305 306//306
f 307//307 308//308 309//309
f 310//310 311//311 312//312
f 313//313 314//314 315//315
f 316//316 317//317 318//318
f 319//319 320//320 321//321
f 322//322 323//323 324//324
f 325//325 326//326 327//327
f 328//328 329//329 330//330
f 331//331 332//332 333//333
f 334//334 335//335 336//336
f 337//337 338//338 339//339
f 340//340 341//341 342//342
f 343//343 344//344 345//345
f 346//346 347//347 348//348
f 349//349 350//350 351//351
f 352//352 353//353 354//354
f 355//355 356//356 357//357
f 358//358 359//359 360//360
f 361//361 362//362 363//363
f 364//364 365//365 366//366
f 367//367 368//368 369//369
f 370//370 371//371 372//372
f 370//370 372//372 373//373
f 374//374 375//375 376//376
f 377//377 378//378 379//379
f 380//380 381//381 382//382
f 383//383 384//384 385//385
f 383//383 386//386 384//384
f 387//387 388//388 389//389
f 390//390 391//391 392//392
f 393//393 394//394 395//395
f 396//396 397//397 398//398
f 399//399 400//400 401//401
f 402//402 403//403 404//404
f 405//405 406//406 407//407
f 408//408 409//409 410//410
f 411//411 412//412 413//413
f 414//414 415//415 416//416
f 417//417 418//418 419//419
f 420//420 421//421 422//422
f 423//423 415//415 414//414
f 424//424 418//418 417//417
f 425//425 426//426 427//427
f 423//423 414//414 428//428
f 429//429 430//430 431//431
f 432//432 433//433 434//434
f 435//435 436//436 437//437
f 438//438 439//439 440//440
f 441//441 442//442 443//443
f 444//444 445//445 446//446
f 447//447 448//448 449//449
f 450//450 451//451 452//452
f 453//453 454//454 455//455
f 456//456 457//457 458//458
f 459//459 460//460 461//461
f 462//462 463//463 464//464
f 465//465 466//466 467//467
f 468//468 469//469 470//470
f 471//471 472//472 473//473
f 474//474 475//475 476//476
f 477//477 478//478 479//479
f 480//480 481//481 482//482
f 483//483 484//484 485//485
f 486//486 487//487 488//488
f 489//489 490//490 491//491
f 492//492 493//493 494//494
f 495//495 496//496 497//497
f 497//497 496//496 498//498
f 495//495 499//499 496//496
f 495//495 500//500 499//499
f 501//501 502//502 499//499
f 499//499 502//502 496//496
f 495//495 503//503 500//500
f 501//501 504//504 502//502
f 504//504 505//505 502//502
f 501//501 506//506 504//504
f 503//503 507//507 500//500
f 508//508 509//509 505//505
f 505//505 509//509 502//502
f 508//508 510//510 509//509
f 511//511 512//512 508//508
f 501//501 513//513 506//506
f 506//506 513//513 514//514
f 512//512 515//515 508//508
f 508//508 515//515 510//510
f 510//510 515//515 516//516
f 517//517 518//518 519//519
f 502//502 520//520 521//521
f 509//509 520//520 502//502
f 514//514 513//513 522//522
f 522//522 523//523 517//517
f 513//513 523//523 522//522
f 517//517 523//523 518//518
f 524//524 525//525 503//503
f 503//503 525//525 507//507
f 524//524 526//526 525//525
f 513//513 527//527 523//523
f 527//527 528//528 520//520
f 520//520 528//528 521//521
f 525//525 529//529 530//530
f 530//530 531//531 513//513
f 529//529 531//531 530//530
f 513//513 531//531 527//527
f 529//529 532//532 531//531
f 529//529 533//533 532//532
f 534//534 535//535 536//536
f 537//537 538//538 539//539
f 540//540 541//541 542//542
f 543//543 544//544 545//545
f 546//546 547//547 548//548
f 549//549 550//550 551//551
f 552//552 553//553 554//554
f 552//552 555//555 553//553
f 556//556 557//557 558//558
f 559//559 560//560 561//561
f 562//562 563//563 564//564
f 565//565 566//566 567//567
f 568//568 569//569 570//570
f 571//571 572//572 573//573
f 574//574 575//575 576//576
f 577//577 578//578 579//579
f 580//580 581//581 582//582
f 583//583 584//584 585//585
f 586//586 587//587 588//588
f 589//589 590//590 591//591
f 592//592 593//593 594//594
f 595//595 596//596 597//597
f 598//598 599//599 600//600
f 601//601 602//602 603//603
f 604//604 605//605 606//606
f 607//607 608//608 609//609
f 610//610 611//611 612//612
f 613//613 614//614 615//615
f 616//616 617//617 618//618
f 619//619 620//620 621//621
f 622//622 623//623 624//624
f 625//625 626//626 627//627
f 628//628 629//629 630//630
f 631//631 632//632 633//633
f 634//634 635//635 636//636
f 637//637 638//638 639//639
f 640//640 641//641 642//642
f 643//643 644//644 645//645
f 646//646 647//647 648//648
f 649//649 650//650 651//651
f 649//649 651//651 652//652
f 651//651 653//653 654//654
f 651//651 654//654 652//652
f 655//655 656//656 657//657
f 658//658 659//659 660//660
f 661//661 662//662 663//663
f 664//664 665//665 666//666
f 667//667 668//668 669//669
f 670//670 671//671 672//672
f 673//673 674//674 675//675
f 676//676 677//677 678//678
f 679//679 680//680 681//681
f 682//682 683//683 684//684
f 685//685 686//686 687//687
f 688//688 689//689 690//690
f 691//691 692//692 693//693
f 694//694 695//695 696//696
f 697//697 698//698 699//699
f 700//700 701//701 702//702
f 703//703 704//704 705//705
f 706//706 707//707 708//708
f 709//709 710//710 711//711
f 712//712 713//713 714//714
f 715//715 716//716 717//717
f 718//718 719//719 720//720
f 721//721 722//722 723//723
f 724//724 725//725 726//726
f 727//727 728//728 729//729
f 730//730 731//731 732//732
f 733//733 734//734 735//735
f 736//736 737//737 738//738
f 739//739 740//740 741//741
f 742//742 743//743 744//744
f 745//745 746//746 747//747
f 748//748 749//749 750//750
f 751//751 752//752 753//753
f 754//754 755//755 756//756
f 757//757 758//758 759//759
f 760//760 758//758 757//757
f 761//761 762//762 763//763
f 764//764 765//765 766//766
f 767//767 768//768 769//769
f 770//770 771//771 772//772
f 773//773 774//774 775//775
f 776//776 777//777 778//778
f 779//779 780//780 781//781
f 782//782 783//783 784//784
f 785//785 786//786 787//787
f 788//788 789//789 790//790
f 791//791 792//792 793//793
f 792//792 794//794 793//793
f 795//795 796//796 797//797
f 795//795 798//798 796//796
f 799//799 800//800 801//801
f 802//802 803//803 804//804
f 805//805 806//806 807//807
f 805//805 808//808 806//806
f 809//809 810//810 811//811
f 812//812 810//810 809//809
f 813//813 814//814 815//815
f 816//816 817//817 818//818
f 819//819 820//820 821//821
f 822//822 823//823 824//824
f 825//825 826//826 827//827
f 828//828 829//829 830//830
f 831//831 832//832 833//833
f 834//834 835//835 836//836
f 837//837 838//838 839//839
f 840//840 841//841 842//842
f 843//843 844//844 845//845
f 846//846 847//847 848//848
f 849//849 850//850 851//851
f 852//852 853//853 854//854
f 855//855 856//856 857//857
f 858//858 859//859 860//860
f 861//861 862//862 863//863
f 864//864 865//865 866//866
f 867//867 868//868 869//869
f 870//870 871//871 872//872
f 873//873 874//874 875//875
f 876//876 877//877 878//878
f 879//879 880//880 881//881
f 882//882 883//883 884//884
f 885//885 886//886 887//887
f 888//888 889//889 890//890
f 891//891 892//892 893//893
f 894//894 895//895 896//896
f 897//897 898//898 899//899
f 900//900 901//901 902//902
f 903//903 904//904 905//905
f 906//906 907//907 908//908
f 909//909 910//910 911//911
f 912//912 913//913 914//914
f 915//915 916//916 917//917
f 918//918 919//919 920//920
f 921//921 922//922 923//923
f 924//924 925//925 926//926
f 927//927 928//928 929//929
f 930//930 931//931 932//932
f 933//933 934//934 935//935
f 936//936 937//937 938//938
f 939//939 940//940 941//941
f 942//942 943//943 944//944
f 945//945 946//946 947//947
f 948//948 949//949 950//950
f 951//951 952//952 953//953
f 954//954 955//955 956//956
f 957//957 958//958 959//959
f 960//960 961//961 962//962
f 963//963 964//964 965//965
f 966//966 967//967 968//968
f 969//969 970//970 971//971
f 972//972 973//973 974//974
f 975//975 976//976 977//977
f 978//978 979//979 980//980
f 981//981 982//982 983//983
f 984//984 985//985 986//986
f 987//987 988//988 989//989
f 990//990 991//991 992//992
f 993//993 994//994 995//995
f 996//996 997//997 998//998
f 999//999 1000//1000 1001//1001
f 1002//1002 1003//1003 1004//1004
f 1005//1005 1006//1006 1007//1007
f 1008//1008 1009//1009 1010//1010
f 1011//1011 1012//1012 1013//1013
f 1014//1014 1015//1015 1016//1016
f 1017//1017 1018//1018 1019//1019
f 1020//1020 1021//1021 1022//1022
f 1023//1023 1024//1024 1025//1025
f 1026//1026 1027//1027 1028//1028
f 1029//1029 1030//1030 1031//1031
f 1032//1032 1033//1033 1034//1034
f 1035//1035 1036//1036 1037//1037
f 1038//1038 1039//1039 1040//1040
f 1041//1041 1042//1042 1043//1043
f 1044//1044 1045//1045 1046//1046
f 1047//1047 1048//1048 1049//1049
f 1050//1050 1051//1051 1052//1052
f 1053//1053 1054//1054 1055//1055
f 1056//1056 1057//1057 1058//1058
f 1059//1059 1060//1060 1061//1061
f 1062//1062 1063//1063 1064//1064
f 1065//1065 1066//1066 1067//1067
f 1068//1068 1069//1069 1070//1070
f 1071//1071 1072//1072 1073//1073
f 1074//1074 1075//1075 1076//1076
f 1077//1077 1078//1078 1079//1079
f 1080//1080 1081//1081 1082//1082
f 1083//1083 1084//1084 1085//1085
f 1086//1086 1087//1087 1088//1088
f 1089//1089 1090//1090 1091//1091
f 1092//1092 1093//1093 1094//1094
f 1095//1095 1096//1096 1097//1097
f 1098//1098 1099//1099 1100//1100
f 1101//1101 1102//1102 1103//1103
f 1104//1104 1105//1105 1106//1106
f 1107//1107 1108//1108 1109//1109
f 1110//1110 1111//1111 1112//1112
f 1113//1113 1114//1114 1115//1115
f 1116//1116 1117//1117 1118//1118
f 1119//1119 1120//1120 1121//1121
f 1122//1122 1123//1123 1124//1124
