# https://github.com/mikedh/trimesh
v 0.09659445 0.07077389 -0.03329699
v 0.05359226 0.07916194 -0.00000148
v 0.10232300 0.06963342 -0.03110795
v 0.11118890 0.06802713 -0.02450834
v 0.05359226 0.07916194 -0.00000148
v 0.11480420 0.06679326 0.00000001
v 0.05359226 0.07916194 -0.00000148
v 0.06519109 0.07684230 -0.02622174
v 0.06141752 0.07755947 -0.02232145
v 0.09124153 0.07182341 -0.03440361
v 0.06906020 0.07610684 -0.02915405
v 0.08109778 0.07379561 -0.03403424
v 0.07442957 0.07507902 -0.03208129
v 0.11118890 0.06802713 -0.02450834
v 0.10733400 0.06863009 -0.02792661
v 0.05359226 0.07916194 -0.00000148
v 0.06906020 0.07610684 -0.02915405
v 0.08590149 0.07286357 -0.03457509
v 0.10733400 0.06863009 -0.02792661
v 0.05860149 0.07809507 -0.01837562
v 0.05359226 0.07916194 -0.00000148
v 0.06141752 0.07755947 -0.02232145
v 0.05600041 0.07859778 -0.01332908
v 0.05359226 0.07916194 -0.00000148
v 0.05860149 0.07809507 -0.01837562
v 0.05359226 0.07916194 -0.00000148
v 0.05600041 0.07859778 -0.01332908
v 0.05422312 0.07893705 -0.00758742
v 0.05422312 0.07893705 -0.00758742
v 0.05357807 0.07906335 -0.00340622
v 0.05359226 0.07916194 -0.00000148
v 0.11480420 0.06679326 0.00000001
v 0.11829340 0.06490671 -0.01717429
v 0.11118890 0.06802713 -0.02450834
v 0.12385400 0.06093311 -0.00000118
v 0.12061280 0.06318473 -0.01412401
v 0.11480420 0.06679326 0.00000001
v 0.12215600 0.06215107 -0.01114105
v 0.11480420 0.06679326 0.00000001
v 0.12061280 0.06318473 -0.01412401
v 0.11829340 0.06490671 -0.01717429
v 0.12385400 0.06093311 -0.00000118
v 0.12352450 0.06128650 -0.00421660
v 0.12313180 0.06152266 -0.00702052
v 0.12385400 0.06093311 -0.00000118
v 0.12313180 0.06152266 -0.00702052
v 0.12215600 0.06215107 -0.01114105
v 0.12352450 0.06128650 -0.00421660
v 0.12385400 0.06093311 -0.00000118
v 0.12361540 0.06114751 -0.00409340
v 0.05712014 0.07829326 0.01604212
v 0.05353683 0.07862007 -0.00000118
v 0.05446082 0.07879751 0.00896312
v 0.06699156 0.07638168 0.02774359
v 0.05353683 0.07862007 -0.00000118
v 0.06210434 0.07730156 0.02331651
v 0.07521903 0.07478034 0.03235967
v 0.08114171 0.07361733 0.03406651
v 0.07074344 0.07565379 0.03021521
v 0.05353683 0.07862007 -0.00000118
v 0.08114171 0.07361733 0.03406651
v 0.08864718 0.07225507 0.03463639
v 0.05353683 0.07862007 -0.00000118
v 0.05712014 0.07829326 0.01604212
v 0.06210434 0.07730156 0.02331651
v 0.05446082 0.07879751 0.00896312
v 0.05353683 0.07862007 -0.00000118
v 0.05360305 0.07897377 0.00432051
v 0.09605842 0.07078355 0.03346933
v 0.10127740 0.06973892 0.03154833
v 0.11498430 0.06665229 -0.00000017
v 0.10517000 0.06896936 0.02943362
v 0.11498430 0.06665229 -0.00000017
v 0.10127740 0.06973892 0.03154833
v 0.10986560 0.06800454 0.02591933
v 0.10517000 0.06896936 0.02943362
v 0.08864718 0.07225507 0.03463639
v 0.05353683 0.07862007 -0.00000118
v 0.12199810 0.06217855 0.01200343
v 0.11498430 0.06665229 -0.00000017
v 0.11938570 0.06398129 0.01601953
v 0.11498430 0.06665229 -0.00000017
v 0.11379480 0.06709295 0.02180953
v 0.11938570 0.06398129 0.01601953
v 0.12199810 0.06217855 0.01200343
v 0.12385830 0.06083279 0.00000025
v 0.11498430 0.06665229 -0.00000017
v 0.11379480 0.06709295 0.02180953
v 0.11498430 0.06665229 -0.00000017
v 0.10986560 0.06800454 0.02591933
v 0.12306650 0.06148254 0.00801481
v 0.12385830 0.06083279 0.00000025
v 0.12199810 0.06217855 0.01200343
v 0.12385830 0.06083279 0.00000025
v 0.12306650 0.06148254 0.00801481
v 0.12366090 0.06097227 0.00353057
vn 0.19348623 0.98109920 0.00272779
vn 0.19075110 0.98163843 -0.00008787
vn 0.19408204 0.98097887 0.00355166
vn 0.19801968 0.97999138 0.02012703
vn 0.19801968 0.97999138 0.02012703
vn 0.19801968 0.97999138 0.02012703
vn 0.18028507 0.98358758 -0.00726441
vn 0.18161102 0.98334792 -0.00665666
vn 0.17874753 0.98386270 -0.00796890
vn 0.19194362 0.98140570 0.00071103
vn 0.18199565 0.98327798 -0.00648033
vn 0.18993581 0.98179565 -0.00130342
vn 0.18779075 0.98220438 -0.00303036
vn 0.17837676 0.98357325 -0.02766571
vn 0.17837676 0.98357325 -0.02766571
vn 0.17837676 0.98357325 -0.02766571
vn 0.18565830 0.98260422 -0.00446637
vn 0.19100361 0.98158928 -0.00032492
vn 0.19412017 0.98097110 0.00361379
vn 0.17343566 0.98479546 -0.00989818
vn 0.17343566 0.98479546 -0.00989818
vn 0.17343566 0.98479546 -0.00989818
vn 0.16867022 0.98560840 -0.01124455
vn 0.16867022 0.98560840 -0.01124455
vn 0.16867022 0.98560840 -0.01124455
vn 0.12895923 0.99147416 -0.01866820
vn 0.12895923 0.99147416 -0.01866820
vn 0.12895923 0.99147416 -0.01866820
vn 0.00787104 0.99954907 -0.02897747
vn 0.00787104 0.99954907 -0.02897747
vn 0.00787104 0.99954907 -0.02897747
vn 0.41545877 0.90947997 -0.01549792
vn 0.41545877 0.90947997 -0.01549792
vn 0.41545877 0.90947997 -0.01549792
vn 0.54360822 0.83929029 0.00905081
vn 0.54392457 0.83908643 0.00894570
vn 0.54351757 0.83934867 0.00908092
vn 0.54495845 0.83841892 0.00860200
vn 0.57319885 0.81898802 0.02648947
vn 0.57319885 0.81898802 0.02648947
vn 0.57319885 0.81898802 0.02648947
vn 0.00629160 0.99652551 0.08305016
vn 0.00629160 0.99652551 0.08305016
vn 0.00629160 0.99652551 0.08305016
vn 0.45528792 0.88990704 0.02789941
vn 0.45528792 0.88990704 0.02789941
vn 0.45528792 0.88990704 0.02789941
vn 0.84527657 0.53390388 -0.02131140
vn 0.84527657 0.53390388 -0.02131140
vn 0.84527657 0.53390388 -0.02131140
vn 0.31632347 0.94726031 -0.05135536
vn 0.31632347 0.94726031 -0.05135536
vn 0.31632347 0.94726031 -0.05135536
vn 0.20245107 0.97910442 -0.01918602
vn 0.19995804 0.97964524 -0.01766312
vn 0.20111352 0.97939297 -0.01851410
vn 0.19747180 0.98017787 -0.01600710
vn 0.19701252 0.98027545 -0.01568779
vn 0.20005732 0.97962332 -0.01775442
vn 0.17860236 0.98392131 -0.00023475
vn 0.17860236 0.98392131 -0.00023475
vn 0.17860236 0.98392131 -0.00023475
vn 0.24338111 0.96931289 -0.03461427
vn 0.24338111 0.96931289 -0.03461427
vn 0.24338111 0.96931289 -0.03461427
vn 0.57569869 0.81417284 -0.07545595
vn 0.57569869 0.81417284 -0.07545595
vn 0.57569869 0.81417284 -0.07545595
vn 0.19263967 0.98119396 -0.01218091
vn 0.19175352 0.98136091 -0.01270261
vn 0.19144194 0.98141521 -0.01319753
vn 0.18588386 0.98245167 -0.01535952
vn 0.18588386 0.98245167 -0.01535952
vn 0.18588386 0.98245167 -0.01535952
vn 0.19165372 0.98137180 -0.01335063
vn 0.19165372 0.98137180 -0.01335063
vn 0.19175605 0.98135738 -0.01293499
vn 0.19115525 0.98146821 -0.01340976
vn 0.55389611 0.83247826 -0.01338117
vn 0.55389611 0.83247826 -0.01338117
vn 0.55389611 0.83247826 -0.01338117
vn 0.49367070 0.86959860 0.00935485
vn 0.49367070 0.86959860 0.00935485
vn 0.49367070 0.86959860 0.00935485
vn 0.54836805 0.83619114 -0.00876729
vn 0.54836805 0.83619114 -0.00876729
vn 0.54836805 0.83619114 -0.00876729
vn 0.21823142 0.97586576 -0.00781468
vn 0.21823142 0.97586576 -0.00781468
vn 0.21823142 0.97586576 -0.00781468
vn 0.48353945 0.87501593 -0.02316706
vn 0.48353945 0.87501593 -0.02316706
vn 0.48353945 0.87501593 -0.02316706
vn 0.69595828 0.71800474 0.01054807
vn 0.69595828 0.71800474 0.01054807
vn 0.69595828 0.71800474 0.01054807
f 1//1 2//2 3//3
f 4//4 5//5 6//6
f 7//7 8//8 9//9
f 10//10 2//2 1//1
f 11//11 8//8 7//7
f 2//2 12//12 13//13
f 14//14 15//15 16//16
f 13//13 17//17 2//2
f 18//18 2//2 10//10
f 3//3 2//2 19//19
f 12//12 2//2 18//18
f 20//20 21//21 22//22
f 23//23 24//24 25//25
f 26//26 27//27 28//28
f 29//29 30//30 31//31
f 32//32 33//33 34//34
f 35//35 36//36 37//37
f 35//35 38//38 36//36
f 39//39 40//40 41//41
f 42//42 43//43 44//44
f 45//45 46//46 47//47
f 48//48 49//49 50//50
f 51//51 52//52 53//53
f 54//54 55//55 56//56
f 55//55 57//57 58//58
f 54//54 59//59 55//55
f 60//60 61//61 62//62
f 57//57 55//55 59//59
f 63//63 64//64 65//65
f 66//66 67//67 68//68
f 69//69 70//70 71//71
f 72//72 73//73 74//74
f 75//75 71//71 76//76
f 77//77 71//71 78//78
f 69//69 71//71 77//77
f 79//79 80//80 81//81
f 82//82 83//83 84//84
f 85//85 86//86 87//87
f 88//88 89//89 90//90
f 91//91 92//92 93//93
f 94//94 95//95 96//96
