# https://github.com/mikedh/trimesh
v -0.06731861 0.05677735 0.04519999
v -0.05275809 0.05913585 0.04519999
v -0.05395799 0.05894148 0.04070836
v -0.06731861 0.05677735 0.02879995
v -0.06662023 0.05689042 0.03880316
v -0.06662023 0.05689042 0.03811734
v -0.06662023 0.05689042 0.03583157
v -0.06662023 0.05689042 0.03524720
v -0.05275809 0.05913585 0.02879995
v -0.05345678 0.05902272 0.03524720
v -0.05345678 0.05902272 0.03583157
v -0.05345678 0.05902272 0.03811734
v -0.05345678 0.05902272 0.03880316
v -0.05275809 0.05913585 0.02879995
v -0.06731861 0.05677735 0.02879995
v -0.06223237 0.05760139 0.02882117
v -0.05275809 0.05913585 0.02879995
v -0.06223237 0.05760139 0.02882117
v -0.05784446 0.05831182 0.02882117
v -0.05671626 0.05849456 0.03181833
v -0.05784446 0.05831182 0.02882117
v -0.05395799 0.05894148 0.03334236
v -0.05389553 0.05895137 0.03519660
v -0.05389553 0.05895137 0.03524720
v -0.05395799 0.05894148 0.03519660
v -0.05784446 0.05831182 0.03181833
v -0.05671626 0.05849456 0.03334236
v -0.05365264 0.05899101 0.03811734
v -0.05365264 0.05899101 0.03583157
v -0.05395799 0.05894148 0.03880316
v -0.06336069 0.05741864 0.03181833
v -0.06223237 0.05760139 0.03181833
v -0.06223237 0.05760139 0.02882117
v -0.06611877 0.05697166 0.03334236
v -0.06336069 0.05741864 0.03334236
v -0.06618142 0.05696177 0.03519660
v -0.06611877 0.05697166 0.03519660
v -0.06618142 0.05696177 0.03524720
v -0.06642431 0.05692219 0.03811734
v -0.06642431 0.05692219 0.03583157
v -0.06611877 0.05697166 0.04070836
v -0.06611877 0.05697166 0.03880316
vn -0.15989114 0.98713465 -0.00000693
vn -0.15989651 0.98713378 -0.00000088
vn -0.15993298 0.98712787 0.00000585
vn -0.15993103 0.98712819 0.00000443
vn -0.15985597 0.98714035 -0.00000063
vn -0.15990249 0.98713281 0.00000000
vn -0.15990249 0.98713281 0.00000000
vn -0.16001864 0.98711399 -0.00003962
vn -0.15992595 0.98712901 -0.00000020
vn -0.16003718 0.98711099 0.00003522
vn -0.15982950 0.98714464 0.00000000
vn -0.15982950 0.98714464 0.00000000
vn -0.15989062 0.98713474 0.00000103
vn -0.15988986 0.98710187 -0.00807013
vn -0.15988986 0.98710187 -0.00807013
vn -0.15988986 0.98710187 -0.00807013
vn -0.15977960 0.98686324 0.02390435
vn -0.15977960 0.98686324 0.02390435
vn -0.15977960 0.98686324 0.02390435
vn -0.15992295 0.98712950 0.00000109
vn -0.15991522 0.98713075 0.00000926
vn -0.15994963 0.98712518 -0.00000298
vn -0.15917774 0.98724994 0.00005204
vn -0.16051364 0.98703362 0.00000000
vn -0.15639815 0.98769409 0.00000000
vn -0.15989124 0.98713464 0.00000000
vn -0.15994304 0.98712624 0.00000000
vn -0.15981800 0.98714650 0.00000000
vn -0.15981800 0.98714650 0.00000000
vn -0.16000122 0.98711682 0.00000000
vn -0.15993444 0.98712764 0.00000139
vn -0.15988113 0.98713627 0.00000000
vn -0.15991701 0.98713046 -0.00001386
vn -0.15992227 0.98712961 0.00000419
vn -0.15997457 0.98712114 0.00000000
vn -0.15901334 0.98727643 -0.00005779
vn -0.15593543 0.98776725 0.00000000
vn -0.16049240 0.98703708 0.00000000
vn -0.16006325 0.98710676 0.00000000
vn -0.16006325 0.98710676 0.00000000
vn -0.15989678 0.98713374 -0.00000795
vn -0.15992361 0.98712939 0.00000000
f 1//1 2//2 3//3
f 4//4 1//1 5//5
f 4//4 5//5 6//6
f 4//4 6//6 7//7
f 4//4 7//7 8//8
f 2//2 9//9 10//10
f 2//2 10//10 11//11
f 2//2 11//11 12//12
f 2//2 12//12 13//13
f 14//14 15//15 16//16
f 17//17 18//18 19//19
f 20//20 9//9 21//21
f 20//20 22//22 9//9
f 10//10 9//9 22//22
f 23//23 10//10 22//22
f 24//24 10//10 23//23
f 25//25 23//23 22//22
f 26//26 20//20 21//21
f 27//27 22//22 20//20
f 28//28 11//11 29//29
f 28//28 12//12 11//11
f 3//3 13//13 30//30
f 31//31 32//32 33//33
f 4//4 31//31 33//33
f 2//2 13//13 3//3
f 34//34 35//35 31//31
f 34//34 31//31 4//4
f 36//36 37//37 34//34
f 8//8 38//38 36//36
f 8//8 34//34 4//4
f 8//8 36//36 34//34
f 6//6 39//39 40//40
f 6//6 40//40 7//7
f 41//41 42//42 5//5
f 1//1 3//3 41//41
f 1//1 41//41 5//5
