# https://github.com/mikedh/trimesh
v -0.06125724 0.05766332 0.04569995
v -0.06065946 0.05773913 0.04775089
v -0.06029701 0.05782377 0.04592388
v -0.05920279 0.05800122 0.04684329
v -0.06065946 0.05773913 0.04775089
v -0.05912762 0.05804908 0.04870063
v -0.05968451 0.05792707 0.04784679
v -0.05920279 0.05800122 0.04684329
v -0.05920279 0.05800122 0.04684329
v -0.05912762 0.05804908 0.04870063
v -0.05878674 0.05804795 0.04569995
v -0.06029701 0.05782377 0.04592388
v -0.05878674 0.05804795 0.04569995
v -0.06125724 0.05766332 0.04569995
v -0.05920279 0.05800122 0.04684329
v -0.05878674 0.05804795 0.04569995
v -0.06029701 0.05782377 0.04592388
v -0.06735098 0.05676424 0.04523670
v -0.07137674 0.05605870 0.03469640
v -0.07160872 0.05601567 0.03762418
v -0.06735098 0.05676424 0.04523670
v -0.07160872 0.05601567 0.03762418
v -0.07094275 0.05612564 0.04099160
v -0.05279189 0.05905759 0.02879768
v -0.05021297 0.05949717 0.03071999
v -0.05340725 0.05899375 0.02742373
v -0.05673027 0.05849248 0.02730000
v -0.05340725 0.05899375 0.02742373
v -0.05674535 0.05841821 0.02569699
v -0.05670166 0.05831563 0.02885562
v -0.05340725 0.05899375 0.02742373
v -0.05673027 0.05849248 0.02730000
v -0.05670166 0.05831563 0.02885562
v -0.05279189 0.05905759 0.02879768
v -0.05340725 0.05899375 0.02742373
v -0.06334662 0.05742079 0.02730000
v -0.06071949 0.05780231 0.02528983
v -0.06417751 0.05721563 0.02601110
v -0.06417751 0.05721563 0.02601110
v -0.06331795 0.05724406 0.02885562
v -0.06334662 0.05742079 0.02730000
v -0.06789791 0.05662149 0.02831262
v -0.06331795 0.05724406 0.02885562
v -0.06417751 0.05721563 0.02601110
v -0.06726866 0.05671525 0.02879858
v -0.06331795 0.05724406 0.02885562
v -0.06789791 0.05662149 0.02831262
v -0.05272746 0.05913347 0.04523885
v -0.05213660 0.05916440 0.04569923
v -0.04948043 0.05960267 0.04189956
v -0.07042545 0.05622720 0.03184801
v -0.06726866 0.05671525 0.02879858
v -0.06789791 0.05662149 0.02831262
v -0.05878674 0.05804795 0.04569995
v -0.05213660 0.05916440 0.04569923
v -0.05272746 0.05913347 0.04523885
v -0.05878674 0.05804795 0.04569995
v -0.05587399 0.05836546 0.04817986
v -0.05213660 0.05916440 0.04569923
v -0.05912762 0.05804908 0.04870063
v -0.05587399 0.05836546 0.04817986
v -0.05878674 0.05804795 0.04569995
v -0.06361991 0.05732131 0.04816704
v -0.05912762 0.05804908 0.04870063
v -0.06065946 0.05773913 0.04775089
v -0.06361991 0.05732131 0.04816704
v -0.06065946 0.05773913 0.04775089
v -0.06125724 0.05766332 0.04569995
v -0.06667488 0.05684477 0.04656350
v -0.06361991 0.05732131 0.04816704
v -0.06125724 0.05766332 0.04569995
v -0.06667488 0.05684477 0.04656350
v -0.06125724 0.05766332 0.04569995
v -0.06735098 0.05676424 0.04523670
v -0.06937378 0.05639010 0.04392457
v -0.06735098 0.05676424 0.04523670
v -0.07094275 0.05612564 0.04099160
v -0.06937378 0.05639010 0.04392457
v -0.06667488 0.05684477 0.04656350
v -0.06735098 0.05676424 0.04523670
v -0.06334662 0.05742079 0.02730000
v -0.05673027 0.05849248 0.02730000
v -0.05674535 0.05841821 0.02569699
v -0.06334662 0.05742079 0.02730000
v -0.05674535 0.05841821 0.02569699
v -0.06071949 0.05780231 0.02528983
v -0.05279189 0.05905759 0.02879768
v -0.05272746 0.05913347 0.04523885
v -0.05021297 0.05949717 0.03071999
v -0.05021297 0.05949717 0.03071999
v -0.05272746 0.05913347 0.04523885
v -0.04886162 0.05949527 0.03314316
v -0.04886162 0.05949527 0.03314316
v -0.05272746 0.05913347 0.04523885
v -0.04847437 0.05977505 0.03626090
v -0.04847437 0.05977505 0.03626090
v -0.05272746 0.05913347 0.04523885
v -0.04857558 0.05973881 0.03881663
v -0.04857558 0.05973881 0.03881663
v -0.05272746 0.05913347 0.04523885
v -0.04948043 0.05960267 0.04189956
v -0.05272746 0.05913347 0.04523885
v -0.06735098 0.05676424 0.04523670
v -0.06125724 0.05766332 0.04569995
v -0.05272746 0.05913347 0.04523885
v -0.06125724 0.05766332 0.04569995
v -0.05878674 0.05804795 0.04569995
v -0.06735098 0.05676424 0.04523670
v -0.06726866 0.05671525 0.02879858
v -0.07042545 0.05622720 0.03184801
v -0.07042545 0.05622720 0.03184801
v -0.05340725 0.05899375 0.02742373
v -0.05265146 0.05885434 0.02763551
v -0.05674535 0.05841821 0.02569699
v -0.06497454 0.05686593 0.02609163
v -0.06417751 0.05721563 0.02601110
v -0.06071949 0.05780231 0.02528983
v -0.06789791 0.05662149 0.02831262
v -0.06417751 0.05721563 0.02601110
v -0.06497454 0.05686593 0.02609163
v -0.06953501 0.05611819 0.03016126
v -0.07042545 0.05622720 0.03184801
v -0.06789791 0.05662149 0.02831262
v -0.05021297 0.05949717 0.03071999
v -0.04886162 0.05949527 0.03314316
v -0.05265146 0.05885434 0.02763551
v -0.07042545 0.05622720 0.03184801
v -0.07141375 0.05581539 0.03408694
v -0.07137674 0.05605870 0.03469640
v -0.07160872 0.05601567 0.03762418
v -0.07141375 0.05581539 0.03408694
v -0.07128268 0.05583751 0.04061758
v -0.05674535 0.05841821 0.02569699
v -0.05265146 0.05885434 0.02763551
v -0.05845654 0.05791175 0.02522009
v -0.05845654 0.05791175 0.02522009
v -0.06071949 0.05780231 0.02528983
v -0.05674535 0.05841821 0.02569699
v -0.06071949 0.05780231 0.02528983
v -0.05845654 0.05791175 0.02522009
v -0.06497454 0.05686593 0.02609163
v -0.05265146 0.05885434 0.02763551
v -0.05340725 0.05899375 0.02742373
v -0.05021297 0.05949717 0.03071999
v -0.06789791 0.05662149 0.02831262
v -0.06497454 0.05686593 0.02609163
v -0.06953501 0.05611819 0.03016126
v -0.07042545 0.05622720 0.03184801
v -0.06953501 0.05611819 0.03016126
v -0.07141375 0.05581539 0.03408694
v -0.07141375 0.05581539 0.03408694
v -0.07160872 0.05601567 0.03762418
v -0.07137674 0.05605870 0.03469640
v -0.04886162 0.05949527 0.03314316
v -0.04847437 0.05977505 0.03626090
v -0.04828804 0.05956023 0.03591609
v -0.06667488 0.05684477 0.04656350
v -0.06732857 0.05647689 0.04636693
v -0.06361991 0.05732131 0.04816704
v -0.05213660 0.05916440 0.04569923
v -0.05587399 0.05836546 0.04817986
v -0.05283087 0.05882090 0.04642117
v -0.04947751 0.05936121 0.04247272
v -0.04948043 0.05960267 0.04189956
v -0.05213660 0.05916440 0.04569923
v -0.06937378 0.05639010 0.04392457
v -0.07128268 0.05583751 0.04061758
v -0.06732857 0.05647689 0.04636693
v -0.04857558 0.05973881 0.03881663
v -0.04947751 0.05936121 0.04247272
v -0.04828804 0.05956023 0.03591609
v -0.04847437 0.05977505 0.03626090
v -0.04857558 0.05973881 0.03881663
v -0.04828804 0.05956023 0.03591609
v -0.06361991 0.05732131 0.04816704
v -0.06732857 0.05647689 0.04636693
v -0.06135743 0.05744218 0.04878014
v -0.05912762 0.05804908 0.04870063
v -0.06135743 0.05744218 0.04878014
v -0.05587399 0.05836546 0.04817986
v -0.06937378 0.05639010 0.04392457
v -0.07094275 0.05612564 0.04099160
v -0.07128268 0.05583751 0.04061758
v -0.06732857 0.05647689 0.04636693
v -0.06667488 0.05684477 0.04656350
v -0.06937378 0.05639010 0.04392457
v -0.05213660 0.05916440 0.04569923
v -0.05283087 0.05882090 0.04642117
v -0.04947751 0.05936121 0.04247272
v -0.06135743 0.05744218 0.04878014
v -0.05912762 0.05804908 0.04870063
v -0.06361991 0.05732131 0.04816704
v -0.04948043 0.05960267 0.04189956
v -0.04947751 0.05936121 0.04247272
v -0.04857558 0.05973881 0.03881663
v -0.07094275 0.05612564 0.04099160
v -0.07160872 0.05601567 0.03762418
v -0.07128268 0.05583751 0.04061758
vn -0.16761187 0.98577488 0.01241555
vn -0.16901570 0.98553876 0.01212611
vn -0.16851368 0.98562344 0.01222963
vn -0.16984766 0.98539782 0.01195454
vn -0.18757251 0.98209121 -0.01770308
vn -0.18780770 0.98204381 -0.01783899
vn -0.18771805 0.98206263 -0.01774621
vn -0.18779316 0.98205123 -0.01758141
vn -0.16257766 0.98651586 -0.01884021
vn -0.16257766 0.98651586 -0.01884021
vn -0.16257766 0.98651586 -0.01884021
vn -0.15365605 0.98694488 -0.04826623
vn -0.15365605 0.98694488 -0.04826623
vn -0.15365605 0.98694488 -0.04826623
vn -0.14880739 0.98877078 -0.01373717
vn -0.14880739 0.98877078 -0.01373717
vn -0.14880739 0.98877078 -0.01373717
vn -0.17389048 0.98476487 0.00049806
vn -0.17359057 0.98481784 0.00037997
vn -0.17430534 0.98469143 0.00066143
vn -0.17873346 0.98389227 0.00321669
vn -0.17873346 0.98389227 0.00321669
vn -0.17873346 0.98389227 0.00321669
vn -0.19957927 0.97889767 0.04390289
vn -0.19957927 0.97889767 0.04390289
vn -0.19957927 0.97889767 0.04390289
vn -0.14739614 0.98808077 -0.04439341
vn -0.14739614 0.98808077 -0.04439341
vn -0.14739614 0.98808077 -0.04439341
vn -0.15234388 0.98168372 0.11440460
vn -0.15234388 0.98168372 0.11440460
vn -0.15234388 0.98168372 0.11440460
vn -0.18577361 0.98187362 0.03758136
vn -0.18577361 0.98187362 0.03758136
vn -0.18577361 0.98187362 0.03758136
vn -0.17585754 0.98346838 -0.04317496
vn -0.17585754 0.98346838 -0.04317496
vn -0.17585754 0.98346838 -0.04317496
vn -0.39689418 0.91114871 0.11082886
vn -0.39689418 0.91114871 0.11082886
vn -0.39689418 0.91114871 0.11082886
vn -0.13834006 0.98987054 0.03191142
vn -0.13834006 0.98987054 0.03191142
vn -0.13834006 0.98987054 0.03191142
vn -0.13236106 0.99100344 -0.01981766
vn -0.13236106 0.99100344 -0.01981766
vn -0.13236106 0.99100344 -0.01981766
vn -0.09156631 0.99450744 0.05070078
vn -0.09156631 0.99450744 0.05070078
vn -0.09156631 0.99450744 0.05070078
vn -0.14978337 0.98871371 0.00318341
vn -0.14978337 0.98871371 0.00318341
vn -0.14978337 0.98871371 0.00318341
vn -0.16380973 0.97582570 0.14467405
vn -0.16380973 0.97582570 0.14467405
vn -0.16380973 0.97582570 0.14467405
vn -0.16517606 0.98391489 0.06803201
vn -0.16517606 0.98391489 0.06803201
vn -0.16517606 0.98391489 0.06803201
vn -0.09861195 0.99505862 -0.01157681
vn -0.09861195 0.99505862 -0.01157681
vn -0.09861195 0.99505862 -0.01157681
vn -0.15023013 0.98546557 -0.07930012
vn -0.15023013 0.98546557 -0.07930012
vn -0.15023013 0.98546557 -0.07930012
vn -0.13920115 0.99025617 0.00396916
vn -0.13920115 0.99025617 0.00396916
vn -0.13920115 0.99025617 0.00396916
vn -0.15049324 0.98858571 -0.00707659
vn -0.15049324 0.98858571 -0.00707659
vn -0.15049324 0.98858571 -0.00707659
vn -0.14705417 0.98901610 0.01490707
vn -0.14705417 0.98901610 0.01490707
vn -0.14705417 0.98901610 0.01490707
vn -0.19013179 0.98166990 0.01319511
vn -0.19013179 0.98166990 0.01319511
vn -0.19013179 0.98166990 0.01319511
vn -0.21225684 0.97598849 0.04892338
vn -0.21225684 0.97598849 0.04892338
vn -0.21225684 0.97598849 0.04892338
vn -0.15973623 0.98617021 -0.04418880
vn -0.15973623 0.98617021 -0.04418880
vn -0.15973623 0.98617021 -0.04418880
vn -0.15202794 0.98831373 -0.01111202
vn -0.15202794 0.98831373 -0.01111202
vn -0.15202794 0.98831373 -0.01111202
vn -0.16519771 0.98625274 -0.00390445
vn -0.16519771 0.98625274 -0.00390445
vn -0.16519771 0.98625274 -0.00390445
vn -0.03317741 0.99926339 0.01928580
vn -0.03317741 0.99926339 0.01928580
vn -0.03317741 0.99926339 0.01928580
vn -0.25991836 0.96410642 -0.05423331
vn -0.25991836 0.96410642 -0.05423331
vn -0.25991836 0.96410642 -0.05423331
vn -0.13080921 0.99136782 0.00887721
vn -0.13080921 0.99136782 0.00887721
vn -0.13080921 0.99136782 0.00887721
vn -0.14051806 0.99007501 0.00247871
vn -0.14051806 0.99007501 0.00247871
vn -0.14051806 0.99007501 0.00247871
vn -0.15719396 0.97007589 0.18504819
vn -0.15719396 0.97007589 0.18504819
vn -0.15719396 0.97007589 0.18504819
vn -0.14715852 0.94521073 0.29141214
vn -0.14715852 0.94521073 0.29141214
vn -0.14715852 0.94521073 0.29141214
vn -0.15630186 0.98770230 -0.00372645
vn -0.15630186 0.98770230 -0.00372645
vn -0.15630186 0.98770230 -0.00372645
vn -0.17345889 0.98484106 0.00032812
vn 0.31804732 0.52461303 -0.78970062
vn 0.31804732 0.52461303 -0.78970062
vn 0.31804732 0.52461303 -0.78970062
vn -0.24858792 0.35944780 -0.89944501
vn -0.24858792 0.35944780 -0.89944501
vn -0.24858792 0.35944780 -0.89944501
vn -0.39823848 0.80740672 -0.43531655
vn -0.39823848 0.80740672 -0.43531655
vn -0.39823848 0.80740672 -0.43531655
vn -0.63461039 0.67376889 -0.37855666
vn -0.63461039 0.67376889 -0.37855666
vn -0.63461039 0.67376889 -0.37855666
vn 0.62605415 -0.69697759 -0.34968334
vn 0.62605415 -0.69697759 -0.34968334
vn 0.62605415 -0.69697759 -0.34968334
vn -0.74093290 0.63799644 -0.20971164
vn -0.74093290 0.63799644 -0.20971164
vn -0.74093290 0.63799644 -0.20971164
vn -0.57776635 -0.81607589 0.01435959
vn -0.57776635 -0.81607589 0.01435959
vn -0.57776635 -0.81607589 0.01435959
vn 0.37656003 -0.66417062 -0.64581726
vn 0.37656003 -0.66417062 -0.64581726
vn 0.37656003 -0.66417062 -0.64581726
vn -0.05692400 0.77960521 -0.62367891
vn -0.05692400 0.77960521 -0.62367891
vn -0.05692400 0.77960521 -0.62367891
vn 0.01000180 -0.67621524 -0.73663622
vn 0.01000180 -0.67621524 -0.73663622
vn 0.01000180 -0.67621524 -0.73663622
vn 0.27314518 0.87558784 -0.39841894
vn 0.27314518 0.87558784 -0.39841894
vn 0.27314518 0.87558784 -0.39841894
vn -0.30659839 -0.81411899 -0.49316092
vn -0.30659839 -0.81411899 -0.49316092
vn -0.30659839 -0.81411899 -0.49316092
vn -0.85233128 -0.29657792 -0.43078176
vn -0.85233128 -0.29657792 -0.43078176
vn -0.85233128 -0.29657792 -0.43078176
vn -0.94497765 0.31951867 -0.07017876
vn -0.94497765 0.31951867 -0.07017876
vn -0.94497765 0.31951867 -0.07017876
vn 0.61912170 0.77157728 -0.14613972
vn 0.61912170 0.77157728 -0.14613972
vn 0.61912170 0.77157728 -0.14613972
vn -0.47172839 0.42559719 0.77223012
vn -0.47172839 0.42559719 0.77223012
vn -0.47172839 0.42559719 0.77223012
vn 0.22043709 0.78140926 0.58378683
vn 0.22043709 0.78140926 0.58378683
vn 0.22043709 0.78140926 0.58378683
vn 0.37196242 0.85611280 0.35876850
vn 0.37196242 0.85611280 0.35876850
vn 0.37196242 0.85611280 0.35876850
vn -0.41760355 -0.82579309 0.37904228
vn -0.41760355 -0.82579309 0.37904228
vn -0.41760355 -0.82579309 0.37904228
vn 0.74022854 -0.66259000 0.11417622
vn 0.74022854 -0.66259000 0.11417622
vn 0.74022854 -0.66259000 0.11417622
vn 0.78561313 0.61743237 0.03986584
vn 0.78561313 0.61743237 0.03986584
vn 0.78561313 0.61743237 0.03986584
vn -0.12839485 -0.76956795 0.62552373
vn -0.12839485 -0.76956795 0.62552373
vn -0.12839485 -0.76956795 0.62552373
vn 0.18361669 -0.56967733 0.80109466
vn 0.18361669 -0.56967733 0.80109466
vn 0.18361669 -0.56967733 0.80109466
vn -0.80641116 0.44327775 0.39141522
vn -0.80641116 0.44327775 0.39141522
vn -0.80641116 0.44327775 0.39141522
vn -0.53764431 0.72861957 0.42432548
vn -0.53764431 0.72861957 0.42432548
vn -0.53764431 0.72861957 0.42432548
vn 0.75459012 -0.25020003 0.60662483
vn 0.75459012 -0.25020003 0.60662483
vn 0.75459012 -0.25020003 0.60662483
vn -0.19693218 0.79814289 0.56937303
vn -0.19693218 0.79814289 0.56937303
vn -0.19693218 0.79814289 0.56937303
vn 0.75922967 0.60114753 0.24938315
vn 0.75922967 0.60114753 0.24938315
vn 0.75922967 0.60114753 0.24938315
vn -0.71487949 0.68906851 0.11887769
vn -0.71487949 0.68906851 0.11887769
vn -0.71487949 0.68906851 0.11887769
f 1//1 2//2 3//3
f 2//2 4//4 3//3
f 5//5 6//6 7//7
f 7//7 6//6 8//8
f 9//9 10//10 11//11
f 12//12 13//13 14//14
f 15//15 16//16 17//17
f 5//5 7//7 8//8
f 18//18 19//19 20//20
f 21//21 22//22 23//23
f 24//24 25//25 26//26
f 27//27 28//28 29//29
f 30//30 31//31 32//32
f 33//33 34//34 35//35
f 36//36 37//37 38//38
f 39//39 40//40 41//41
f 42//42 43//43 44//44
f 45//45 46//46 47//47
f 48//48 49//49 50//50
f 51//51 52//52 53//53
f 54//54 55//55 56//56
f 57//57 58//58 59//59
f 60//60 61//61 62//62
f 63//63 64//64 65//65
f 66//66 67//67 68//68
f 69//69 70//70 71//71
f 72//72 73//73 74//74
f 75//75 76//76 77//77
f 78//78 79//79 80//80
f 81//81 82//82 83//83
f 84//84 85//85 86//86
f 87//87 88//88 89//89
f 90//90 91//91 92//92
f 93//93 94//94 95//95
f 96//96 97//97 98//98
f 99//99 100//100 101//101
f 102//102 103//103 104//104
f 105//105 106//106 107//107
f 108//108 109//109 110//110
f 18//18 111//111 19//19
f 112//112 113//113 114//114
f 115//115 116//116 117//117
f 118//118 119//119 120//120
f 121//121 122//122 123//123
f 124//124 125//125 126//126
f 127//127 128//128 129//129
f 130//130 131//131 132//132
f 133//133 134//134 135//135
f 136//136 137//137 138//138
f 139//139 140//140 141//141
f 142//142 143//143 144//144
f 145//145 146//146 147//147
f 148//148 149//149 150//150
f 151//151 152//152 153//153
f 154//154 155//155 156//156
f 157//157 158//158 159//159
f 160//160 161//161 162//162
f 163//163 164//164 165//165
f 166//166 167//167 168//168
f 169//169 170//170 171//171
f 172//172 173//173 174//174
f 175//175 176//176 177//177
f 178//178 179//179 180//180
f 181//181 182//182 183//183
f 184//184 185//185 186//186
f 187//187 188//188 189//189
f 190//190 191//191 192//192
f 193//193 194//194 195//195
f 196//196 197//197 198//198
