# https://github.com/mikedh/trimesh
v 0.09868311 0.07611072 -0.00049727
v 0.09998410 0.07590478 -0.00072842
v 0.09851664 0.07581371 -0.00086229
v 0.09715747 0.07595324 -0.00077461
v 0.09740138 0.07612937 -0.00058084
v 0.09851664 0.07581371 -0.00086229
v 0.09715747 0.07595324 -0.00077461
v 0.09851664 0.07581371 -0.00086229
v 0.09744447 0.07561069 -0.00100093
v 0.09728819 0.07624137 -0.00031155
v 0.09868311 0.07611072 -0.00049727
v 0.09740138 0.07612937 -0.00058084
v 0.09868311 0.07611072 -0.00049727
v 0.09991049 0.07614594 -0.00019174
v 0.09998410 0.07590478 -0.00072842
v 0.09995585 0.07549464 -0.00099235
v 0.09851664 0.07581371 -0.00086229
v 0.09998410 0.07590478 -0.00072842
v 0.09851664 0.07581371 -0.00086229
v 0.09740138 0.07612937 -0.00058084
v 0.09868311 0.07611072 -0.00049727
v 0.09744447 0.07561069 -0.00100093
v 0.09851664 0.07581371 -0.00086229
v 0.09995585 0.07549464 -0.00099235
v 0.09991049 0.07614594 -0.00019174
v 0.09728819 0.07624137 -0.00031155
v 0.09735029 0.07627540 0.00010676
v 0.09868311 0.07611072 -0.00049727
v 0.09728819 0.07624137 -0.00031155
v 0.09991049 0.07614594 -0.00019174
v 0.09725207 0.07563447 0.00099988
v 0.09727418 0.07614773 0.00055648
v 0.09677010 0.07566648 0.00075109
v 0.09670066 0.07566636 -0.00065320
v 0.09715747 0.07595324 -0.00077461
v 0.09698772 0.07565057 -0.00089293
v 0.09740138 0.07612937 -0.00058084
v 0.09715747 0.07595324 -0.00077461
v 0.09728819 0.07624137 -0.00031155
v 0.09670066 0.07566636 -0.00065320
v 0.09670025 0.07594782 -0.00032228
v 0.09715747 0.07595324 -0.00077461
v 0.09728819 0.07624137 -0.00031155
v 0.09715747 0.07595324 -0.00077461
v 0.09698313 0.07619482 -0.00014674
v 0.09698772 0.07565057 -0.00089293
v 0.09715747 0.07595324 -0.00077461
v 0.09744447 0.07561069 -0.00100093
v 0.09670025 0.07594782 -0.00032228
v 0.09698313 0.07619482 -0.00014674
v 0.09715747 0.07595324 -0.00077461
v 0.09650176 0.07567954 0.00030018
v 0.09679388 0.07602453 0.00038625
v 0.09646934 0.07568222 -0.00020068
v 0.09646934 0.07568222 -0.00020068
v 0.09670025 0.07594782 -0.00032228
v 0.09670066 0.07566636 -0.00065320
v 0.09735029 0.07627540 0.00010676
v 0.09728819 0.07624137 -0.00031155
v 0.09698313 0.07619482 -0.00014674
v 0.09727418 0.07614773 0.00055648
v 0.09679388 0.07602453 0.00038625
v 0.09677010 0.07566648 0.00075109
v 0.09698313 0.07619482 -0.00014674
v 0.09679388 0.07602453 0.00038625
v 0.09727418 0.07614773 0.00055648
v 0.09727418 0.07614773 0.00055648
v 0.09735029 0.07627540 0.00010676
v 0.09698313 0.07619482 -0.00014674
v 0.09677010 0.07566648 0.00075109
v 0.09679388 0.07602453 0.00038625
v 0.09650176 0.07567954 0.00030018
v 0.09646934 0.07568222 -0.00020068
v 0.09679388 0.07602453 0.00038625
v 0.09670025 0.07594782 -0.00032228
v 0.09679388 0.07602453 0.00038625
v 0.09698313 0.07619482 -0.00014674
v 0.09670025 0.07594782 -0.00032228
v 0.10003740 0.07549619 0.00099380
v 0.10012090 0.07572317 0.00086118
v 0.09863454 0.07554745 0.00099815
v 0.10012090 0.07572317 0.00086118
v 0.09993904 0.07601433 0.00056870
v 0.09869688 0.07583075 0.00084139
v 0.09863454 0.07554745 0.00099815
v 0.09869688 0.07583075 0.00084139
v 0.09725207 0.07563447 0.00099988
v 0.09735029 0.07627540 0.00010676
v 0.09868532 0.07614427 0.00039829
v 0.09991049 0.07614594 -0.00019174
v 0.09869688 0.07583075 0.00084139
v 0.09993904 0.07601433 0.00056870
v 0.09727418 0.07614773 0.00055648
v 0.09727418 0.07614773 0.00055648
v 0.09993904 0.07601433 0.00056870
v 0.09868532 0.07614427 0.00039829
v 0.09868532 0.07614427 0.00039829
v 0.10010390 0.07609498 0.00034220
v 0.09991049 0.07614594 -0.00019174
v 0.09725207 0.07563447 0.00099988
v 0.09869688 0.07583075 0.00084139
v 0.09727418 0.07614773 0.00055648
v 0.10012090 0.07572317 0.00086118
v 0.09869688 0.07583075 0.00084139
v 0.09863454 0.07554745 0.00099815
v 0.09993904 0.07601433 0.00056870
v 0.10010390 0.07609498 0.00034220
v 0.09868532 0.07614427 0.00039829
v 0.09735029 0.07627540 0.00010676
v 0.09727418 0.07614773 0.00055648
v 0.09868532 0.07614427 0.00039829
v 0.10012090 0.07572317 0.00086118
v 0.10003740 0.07549619 0.00099380
v 0.10044020 0.07547473 0.00076468
v 0.10055130 0.07573020 0.00045568
v 0.10010390 0.07609498 0.00034220
v 0.10012090 0.07572317 0.00086118
v 0.10061290 0.07547098 -0.00058918
v 0.10059450 0.07576698 -0.00031959
v 0.10080360 0.07546502 -0.00015544
v 0.10059450 0.07576698 -0.00031959
v 0.10061290 0.07547098 -0.00058918
v 0.10041600 0.07577538 -0.00059717
v 0.10059450 0.07576698 -0.00031959
v 0.10021510 0.07606679 -0.00027107
v 0.10062190 0.07583057 0.00004042
v 0.10062190 0.07583057 0.00004042
v 0.10021510 0.07606679 -0.00027107
v 0.10010390 0.07609498 0.00034220
v 0.10041600 0.07577538 -0.00059717
v 0.10021510 0.07606679 -0.00027107
v 0.10059450 0.07576698 -0.00031959
v 0.10021510 0.07606679 -0.00027107
v 0.09991049 0.07614594 -0.00019174
v 0.10010390 0.07609498 0.00034220
v 0.10072540 0.07546687 0.00041009
v 0.10055130 0.07573020 0.00045568
v 0.10044020 0.07547473 0.00076468
v 0.10044020 0.07547473 0.00076468
v 0.10055130 0.07573020 0.00045568
v 0.10012090 0.07572317 0.00086118
v 0.09998410 0.07590478 -0.00072842
v 0.09991049 0.07614594 -0.00019174
v 0.10021510 0.07606679 -0.00027107
v 0.10012090 0.07572317 0.00086118
v 0.10010390 0.07609498 0.00034220
v 0.09993904 0.07601433 0.00056870
v 0.10062190 0.07583057 0.00004042
v 0.10080360 0.07546502 -0.00015544
v 0.10059450 0.07576698 -0.00031959
v 0.10055130 0.07573020 0.00045568
v 0.10062190 0.07583057 0.00004042
v 0.10010390 0.07609498 0.00034220
v 0.10030840 0.07547950 -0.00085896
v 0.10041600 0.07577538 -0.00059717
v 0.10061290 0.07547098 -0.00058918
v 0.10062190 0.07583057 0.00004042
v 0.10072540 0.07546687 0.00041009
v 0.10080360 0.07546502 -0.00015544
v 0.10055130 0.07573020 0.00045568
v 0.10072540 0.07546687 0.00041009
v 0.10062190 0.07583057 0.00004042
v 0.09995585 0.07549464 -0.00099235
v 0.09998410 0.07590478 -0.00072842
v 0.10030840 0.07547950 -0.00085896
v 0.10030840 0.07547950 -0.00085896
v 0.09998410 0.07590478 -0.00072842
v 0.10041600 0.07577538 -0.00059717
v 0.10041600 0.07577538 -0.00059717
v 0.09998410 0.07590478 -0.00072842
v 0.10021510 0.07606679 -0.00027107
vn 0.00982141 0.77343031 -0.63380525
vn 0.00982141 0.77343031 -0.63380525
vn 0.00982141 0.77343031 -0.63380525
vn 0.02935328 0.72099738 -0.69231580
vn 0.02935328 0.72099738 -0.69231580
vn 0.02935328 0.72099738 -0.69231580
vn 0.00302113 0.55300450 -0.83317279
vn 0.00302113 0.55300450 -0.83317279
vn 0.00302113 0.55300450 -0.83317279
vn 0.03764258 0.92818579 -0.37020828
vn 0.03764258 0.92818579 -0.37020828
vn 0.03764258 0.92818579 -0.37020828
vn 0.07345397 0.91340528 -0.40036896
vn 0.07345397 0.91340528 -0.40036896
vn 0.07345397 0.91340528 -0.40036896
vn 0.04334573 0.53852620 -0.84149312
vn 0.04334573 0.53852620 -0.84149312
vn 0.04334573 0.53852620 -0.84149312
vn 0.05313121 0.76257009 -0.64472004
vn 0.05313121 0.76257009 -0.64472004
vn 0.05313121 0.76257009 -0.64472004
vn 0.02478558 0.47119079 -0.88168300
vn 0.02478558 0.47119079 -0.88168300
vn 0.02478558 0.47119079 -0.88168300
vn 0.04019610 0.99540102 -0.08695447
vn 0.04019610 0.99540102 -0.08695447
vn 0.04019610 0.99540102 -0.08695447
vn 0.04853385 0.95123644 -0.30462060
vn 0.04853385 0.95123644 -0.30462060
vn 0.04853385 0.95123644 -0.30462060
vn -0.32431651 0.62635770 0.70886870
vn -0.32431651 0.62635770 0.70886870
vn -0.32431651 0.62635770 0.70886870
vn -0.51842861 0.54754194 -0.65683301
vn -0.51842861 0.54754194 -0.65683301
vn -0.51842861 0.54754194 -0.65683301
vn -0.25023993 0.85214908 -0.45958886
vn -0.25023993 0.85214908 -0.45958886
vn -0.25023993 0.85214908 -0.45958886
vn -0.54524738 0.63821092 -0.54349987
vn -0.54524738 0.63821092 -0.54349987
vn -0.54524738 0.63821092 -0.54349987
vn -0.35432131 0.83555664 -0.41988273
vn -0.35432131 0.83555664 -0.41988273
vn -0.35432131 0.83555664 -0.41988273
vn -0.17005799 0.44006586 -0.88171555
vn -0.17005799 0.44006586 -0.88171555
vn -0.17005799 0.44006586 -0.88171555
vn -0.43064403 0.79577955 -0.42577062
vn -0.43064403 0.79577955 -0.42577062
vn -0.43064403 0.79577955 -0.42577062
vn -0.76858349 0.63753704 0.05315959
vn -0.76858349 0.63753704 0.05315959
vn -0.76858349 0.63753704 0.05315959
vn -0.77261727 0.48313233 -0.41188069
vn -0.77261727 0.48313233 -0.41188069
vn -0.77261727 0.48313233 -0.41188069
vn -0.17874041 0.98244619 -0.05339804
vn -0.17874041 0.98244619 -0.05339804
vn -0.17874041 0.98244619 -0.05339804
vn -0.39484978 0.66845807 0.63028364
vn -0.39484978 0.66845807 0.63028364
vn -0.39484978 0.66845807 0.63028364
vn -0.30637551 0.93290251 0.18928008
vn -0.30637551 0.93290251 0.18928008
vn -0.30637551 0.93290251 0.18928008
vn -0.34141357 0.91778076 0.20276895
vn -0.34141357 0.91778076 0.20276895
vn -0.34141357 0.91778076 0.20276895
vn -0.73341634 0.50845694 0.45118955
vn -0.73341634 0.50845694 0.45118955
vn -0.73341634 0.50845694 0.45118955
vn -0.74821628 0.66290099 0.02710491
vn -0.74821628 0.66290099 0.02710491
vn -0.74821628 0.66290099 0.02710491
vn -0.65976649 0.75144806 0.00582956
vn -0.65976649 0.75144806 0.00582956
vn -0.65976649 0.75144806 0.00582956
vn 0.02090612 0.49862410 0.86656618
vn 0.02090612 0.49862410 0.86656618
vn 0.02090612 0.49862410 0.86656618
vn 0.04493219 0.72181692 0.69062394
vn 0.04493219 0.72181692 0.69062394
vn 0.04493219 0.72181692 0.69062394
vn 0.03122811 0.47865163 0.87744939
vn 0.03122811 0.47865163 0.87744939
vn 0.03122811 0.47865163 0.87744939
vn 0.06633889 0.98784942 0.14054418
vn 0.06633889 0.98784942 0.14054418
vn 0.06633889 0.98784942 0.14054418
vn 0.03447088 0.74922260 0.66142064
vn 0.03447088 0.74922260 0.66142064
vn 0.03447088 0.74922260 0.66142064
vn 0.04457136 0.92498260 0.37738653
vn 0.04457136 0.92498260 0.37738653
vn 0.04457136 0.92498260 0.37738653
vn 0.03782487 0.99596687 0.08135894
vn 0.03782487 0.99596687 0.08135894
vn 0.03782487 0.99596687 0.08135894
vn -0.00583283 0.65386548 0.75658833
vn -0.00583283 0.65386548 0.75658833
vn -0.00583283 0.65386548 0.75658833
vn 0.02407100 0.47995675 0.87696186
vn 0.02407100 0.47995675 0.87696186
vn 0.02407100 0.47995675 0.87696186
vn 0.04674403 0.92980291 0.36507746
vn 0.04674403 0.92980291 0.36507746
vn 0.04674403 0.92980291 0.36507746
vn 0.03353787 0.95993813 0.27819778
vn 0.03353787 0.95993813 0.27819778
vn 0.03353787 0.95993813 0.27819778
vn 0.48343062 0.30218750 0.82157018
vn 0.48343062 0.30218750 0.82157018
vn 0.48343062 0.30218750 0.82157018
vn 0.46451475 0.72702219 0.50563305
vn 0.46451475 0.72702219 0.50563305
vn 0.46451475 0.72702219 0.50563305
vn 0.84619167 0.38661262 -0.36672925
vn 0.84619167 0.38661262 -0.36672925
vn 0.84619167 0.38661262 -0.36672925
vn 0.74809001 0.47165501 -0.46680070
vn 0.74809001 0.47165501 -0.46680070
vn 0.74809001 0.47165501 -0.46680070
vn 0.59492570 0.78255163 -0.18351119
vn 0.59492570 0.78255163 -0.18351119
vn 0.59492570 0.78255163 -0.18351119
vn 0.47518562 0.87869393 0.04577781
vn 0.47518562 0.87869393 0.04577781
vn 0.47518562 0.87869393 0.04577781
vn 0.55731447 0.75953906 -0.33541168
vn 0.55731447 0.75953906 -0.33541168
vn 0.55731447 0.75953906 -0.33541168
vn 0.25176800 0.96778691 0.00117237
vn 0.25176800 0.96778691 0.00117237
vn 0.25176800 0.96778691 0.00117237
vn 0.72493283 0.37979813 0.57465274
vn 0.72493283 0.37979813 0.57465274
vn 0.72493283 0.37979813 0.57465274
vn 0.58615636 0.50825094 0.63095301
vn 0.58615636 0.50825094 0.63095301
vn 0.58615636 0.50825094 0.63095301
vn 0.13485547 0.91059342 -0.39068353
vn 0.13485547 0.91059342 -0.39068353
vn 0.13485547 0.91059342 -0.39068353
vn 0.36170841 0.76344156 0.53509253
vn 0.36170841 0.76344156 0.53509253
vn 0.36170841 0.76344156 0.53509253
vn 0.84950756 0.50465961 -0.15380375
vn 0.84950756 0.50465961 -0.15380375
vn 0.84950756 0.50465961 -0.15380375
vn 0.56181132 0.77721473 0.28338190
vn 0.56181132 0.77721473 0.28338190
vn 0.56181132 0.77721473 0.28338190
vn 0.61876270 0.38223698 -0.68631451
vn 0.61876270 0.38223698 -0.68631451
vn 0.61876270 0.38223698 -0.68631451
vn 0.91353061 0.38706887 0.12505808
vn 0.91353061 0.38706887 0.12505808
vn 0.91353061 0.38706887 0.12505808
vn 0.82538439 0.50046308 0.26129929
vn 0.82538439 0.50046308 0.26129929
vn 0.82538439 0.50046308 0.26129929
vn 0.32588837 0.49562884 -0.80507691
vn 0.32588837 0.49562884 -0.80507691
vn 0.32588837 0.49562884 -0.80507691
vn 0.38777378 0.52768401 -0.75576523
vn 0.38777378 0.52768401 -0.75576523
vn 0.38777378 0.52768401 -0.75576523
vn 0.38176664 0.79350929 -0.47391691
vn 0.38176664 0.79350929 -0.47391691
vn 0.38176664 0.79350929 -0.47391691
f 1//1 2//2 3//3
f 4//4 5//5 6//6
f 7//7 8//8 9//9
f 10//10 11//11 12//12
f 13//13 14//14 15//15
f 16//16 17//17 18//18
f 19//19 20//20 21//21
f 22//22 23//23 24//24
f 25//25 26//26 27//27
f 28//28 29//29 30//30
f 31//31 32//32 33//33
f 34//34 35//35 36//36
f 37//37 38//38 39//39
f 40//40 41//41 42//42
f 43//43 44//44 45//45
f 46//46 47//47 48//48
f 49//49 50//50 51//51
f 52//52 53//53 54//54
f 55//55 56//56 57//57
f 58//58 59//59 60//60
f 61//61 62//62 63//63
f 64//64 65//65 66//66
f 67//67 68//68 69//69
f 70//70 71//71 72//72
f 73//73 74//74 75//75
f 76//76 77//77 78//78
f 79//79 80//80 81//81
f 82//82 83//83 84//84
f 85//85 86//86 87//87
f 88//88 89//89 90//90
f 91//91 92//92 93//93
f 94//94 95//95 96//96
f 97//97 98//98 99//99
f 100//100 101//101 102//102
f 103//103 104//104 105//105
f 106//106 107//107 108//108
f 109//109 110//110 111//111
f 112//112 113//113 114//114
f 115//115 116//116 117//117
f 118//118 119//119 120//120
f 121//121 122//122 123//123
f 124//124 125//125 126//126
f 127//127 128//128 129//129
f 130//130 131//131 132//132
f 133//133 134//134 135//135
f 136//136 137//137 138//138
f 139//139 140//140 141//141
f 142//142 143//143 144//144
f 145//145 146//146 147//147
f 148//148 149//149 150//150
f 151//151 152//152 153//153
f 154//154 155//155 156//156
f 157//157 158//158 159//159
f 160//160 161//161 162//162
f 163//163 164//164 165//165
f 166//166 167//167 168//168
f 169//169 170//170 171//171
