# https://github.com/mikedh/trimesh
v 0.08914226 0.07657861 0.00273813
v 0.08799797 0.07681626 0.00387932
v 0.08973580 0.07656890 0.00469816
v 0.08857953 0.07664471 0.00175817
v 0.08698552 0.07696157 0.00284327
v 0.08837908 0.07670032 0.00253118
v 0.08991831 0.07643467 -0.00203627
v 0.08829629 0.07668644 -0.00136893
v 0.08936572 0.07649898 -0.00045341
v 0.08569747 0.07716751 0.00013680
v 0.08593362 0.07712775 0.00110460
v 0.08674865 0.07696568 0.00117750
v 0.08775591 0.07685244 -0.00374918
v 0.08715450 0.07692182 -0.00257688
v 0.08918178 0.07658207 -0.00315570
v 0.08329588 0.07770782 -0.00129455
v 0.08413124 0.07750511 -0.00055640
v 0.08342498 0.07768476 -0.00171059
v 0.08342498 0.07768476 -0.00171059
v 0.08413124 0.07750511 -0.00055640
v 0.08503788 0.07733869 -0.00247418
v 0.08674865 0.07696568 0.00117750
v 0.08520835 0.07727295 -0.00072937
v 0.08413124 0.07750511 -0.00055640
v 0.08534437 0.07724142 0.00006510
v 0.08593362 0.07712775 0.00110460
v 0.08577376 0.07716971 0.00171901
v 0.08674865 0.07696568 0.00117750
v 0.08744716 0.07685393 -0.00205760
v 0.08829629 0.07668644 -0.00136893
v 0.08837908 0.07670032 0.00253118
v 0.08698552 0.07696157 0.00284327
v 0.08799797 0.07681626 0.00387932
v 0.09158802 0.07617270 0.00043715
v 0.09061020 0.07633817 0.00228811
v 0.09251457 0.07607996 0.00211311
v 0.08953106 0.07647287 -0.00030469
v 0.08908683 0.07654476 0.00060166
v 0.09029465 0.07635337 -0.00009768
v 0.08973580 0.07656890 0.00469816
v 0.08890712 0.07671809 0.00492401
v 0.08932650 0.07664424 0.00482924
v 0.08799797 0.07681626 0.00387932
v 0.08890712 0.07671809 0.00492401
v 0.08973580 0.07656890 0.00469816
v 0.08936572 0.07649898 -0.00045341
v 0.08413124 0.07750511 -0.00055640
v 0.08329421 0.07770031 0.00129396
v 0.08534437 0.07724142 0.00006510
v 0.09251457 0.07607996 0.00211311
v 0.09208559 0.07615697 0.00286777
v 0.09231644 0.07611721 0.00249995
v 0.08829629 0.07668644 -0.00136893
v 0.08813601 0.07670307 0.00042499
v 0.08936572 0.07649898 -0.00045341
v 0.08329588 0.07770782 -0.00129455
v 0.08320289 0.07772403 -0.00086831
v 0.08413124 0.07750511 -0.00055640
v 0.08597069 0.07723301 -0.00453179
v 0.08503788 0.07733869 -0.00247418
v 0.08775591 0.07685244 -0.00374918
v 0.08744716 0.07685393 -0.00205760
v 0.08707904 0.07691180 -0.00160223
v 0.08829629 0.07668644 -0.00136893
v 0.08559006 0.07730317 -0.00433015
v 0.08522766 0.07736659 -0.00409590
v 0.08597069 0.07723301 -0.00453179
v 0.08799797 0.07681626 0.00387932
v 0.08848124 0.07679301 0.00498099
v 0.08890712 0.07671809 0.00492401
v 0.08534437 0.07724142 0.00006510
v 0.08329421 0.07770031 0.00129396
v 0.08518368 0.07727849 0.00068010
v 0.08693504 0.07694196 -0.00175761
v 0.08314675 0.07773387 -0.00043576
v 0.08674865 0.07696568 0.00117750
v 0.08538371 0.07727825 0.00279612
v 0.08698552 0.07696157 0.00284327
v 0.08577376 0.07716971 0.00171901
v 0.09029465 0.07635337 -0.00009768
v 0.09061020 0.07633817 0.00228811
v 0.09158802 0.07617270 0.00043715
v 0.09251457 0.07607996 0.00211311
v 0.09061020 0.07633817 0.00228811
v 0.09208559 0.07615697 0.00286777
v 0.09121721 0.07631105 -0.00383054
v 0.09182375 0.07620137 -0.00321417
v 0.09153395 0.07625520 -0.00353556
v 0.09182375 0.07620137 -0.00321417
v 0.09231626 0.07611554 -0.00250053
v 0.09208565 0.07615792 -0.00286793
v 0.09087646 0.07637113 -0.00409590
v 0.08918178 0.07658207 -0.00315570
v 0.09121721 0.07631105 -0.00383054
v 0.09051412 0.07643502 -0.00433015
v 0.08918178 0.07658207 -0.00315570
v 0.09087646 0.07637113 -0.00409590
v 0.09013307 0.07650196 -0.00453161
v 0.08918178 0.07658207 -0.00315570
v 0.09051412 0.07643502 -0.00433015
v 0.08775591 0.07685244 -0.00374918
v 0.08503788 0.07733869 -0.00247418
v 0.08715450 0.07692182 -0.00257688
v 0.08518368 0.07727849 0.00068010
v 0.08329421 0.07770031 0.00129396
v 0.08577376 0.07716971 0.00171901
v 0.09251475 0.07608193 -0.00211339
v 0.09165149 0.07617360 -0.00133418
v 0.09267920 0.07605326 -0.00171053
v 0.08829629 0.07668644 -0.00136893
v 0.08804333 0.07671952 0.00052495
v 0.08813601 0.07670307 0.00042499
v 0.08522766 0.07736659 -0.00409590
v 0.08597069 0.07723301 -0.00453179
v 0.08973622 0.07657217 -0.00469893
v 0.09182417 0.07620400 0.00321389
v 0.09280836 0.07603031 -0.00129455
v 0.08314675 0.07773387 -0.00043576
v 0.08312803 0.07773721 -0.00000005
v 0.08413124 0.07750511 -0.00055640
v 0.09121721 0.07631105 -0.00383054
v 0.08918178 0.07658207 -0.00315570
v 0.09182375 0.07620137 -0.00321417
v 0.08932656 0.07664430 -0.00482969
v 0.08918178 0.07658207 -0.00315570
v 0.08973622 0.07657217 -0.00469893
v 0.09231626 0.07611554 -0.00250053
v 0.09165149 0.07617360 -0.00133418
v 0.09251475 0.07608193 -0.00211339
v 0.08457028 0.07748305 -0.00353556
v 0.08503788 0.07733869 -0.00247418
v 0.08488702 0.07742720 -0.00383054
v 0.08522766 0.07736659 -0.00409590
v 0.08707904 0.07691180 -0.00160223
v 0.08805209 0.07686907 0.00499959
v 0.08890712 0.07671797 -0.00492411
v 0.08762300 0.07694482 0.00498093
v 0.08805209 0.07686907 0.00499959
v 0.08799797 0.07681626 0.00387932
v 0.09182375 0.07620137 -0.00321417
v 0.09165149 0.07617360 -0.00133418
v 0.09231626 0.07611554 -0.00250053
v 0.08698552 0.07696157 0.00284327
v 0.08597075 0.07723295 0.00453181
v 0.08799797 0.07681626 0.00387932
v 0.08715450 0.07692182 -0.00257688
v 0.08503788 0.07733869 -0.00247418
v 0.08693504 0.07694196 -0.00175761
v 0.08314675 0.07773387 0.00043572
v 0.08329421 0.07770031 0.00129396
v 0.08312803 0.07773721 -0.00000005
v 0.08314675 0.07773387 0.00043572
v 0.08413124 0.07750511 -0.00055640
v 0.08890712 0.07671797 -0.00492411
v 0.08775591 0.07685244 -0.00374918
v 0.08918178 0.07658207 -0.00315570
v 0.09280836 0.07603031 -0.00129455
v 0.09165149 0.07617360 -0.00133418
v 0.09290134 0.07601374 -0.00086825
v 0.09029465 0.07635337 -0.00009768
v 0.08877027 0.07661396 0.00181002
v 0.09061020 0.07633817 0.00228811
v 0.08908683 0.07654476 0.00060166
v 0.08877027 0.07661396 0.00181002
v 0.09029465 0.07635337 -0.00009768
v 0.09153383 0.07625436 0.00353558
v 0.09290134 0.07601374 -0.00086825
v 0.09297591 0.07599842 0.00000054
v 0.09295743 0.07600408 -0.00043576
v 0.08991831 0.07643467 -0.00203627
v 0.09182375 0.07620137 -0.00321417
v 0.08693504 0.07694196 -0.00175761
v 0.08654683 0.07699763 -0.00036322
v 0.08707904 0.07691180 -0.00160223
v 0.08719700 0.07701939 0.00492407
v 0.08503788 0.07733869 -0.00247418
v 0.08605778 0.07710331 -0.00122964
v 0.08693504 0.07694196 -0.00175761
v 0.08848124 0.07679313 -0.00498103
v 0.08314675 0.07773387 0.00043572
v 0.08320289 0.07772403 0.00086827
v 0.08329421 0.07770031 0.00129396
v 0.08428001 0.07753378 -0.00321399
v 0.08805209 0.07686907 -0.00500004
v 0.08605778 0.07710331 -0.00122964
v 0.09297591 0.07599842 0.00000054
v 0.08538371 0.07727825 0.00279612
v 0.08597075 0.07723295 0.00453181
v 0.08698552 0.07696157 0.00284327
v 0.08707904 0.07691180 -0.00160223
v 0.08654683 0.07699763 -0.00036322
v 0.08661890 0.07698488 0.00013680
v 0.08677768 0.07709372 0.00482924
v 0.08719700 0.07701939 0.00492407
v 0.08538371 0.07727825 0.00279612
v 0.08991831 0.07643467 -0.00203627
v 0.09165149 0.07617360 -0.00133418
v 0.08488702 0.07742720 0.00382978
v 0.08538371 0.07727825 0.00279612
v 0.08457016 0.07748252 0.00353552
v 0.09153383 0.07625436 0.00353558
v 0.09087604 0.07636779 0.00409586
v 0.09121721 0.07631105 0.00382978
v 0.09061020 0.07633817 0.00228811
v 0.09087604 0.07636779 0.00409586
v 0.09153383 0.07625436 0.00353558
v 0.08597075 0.07723295 0.00453181
v 0.08636802 0.07716590 0.00469805
v 0.08677768 0.07709372 0.00482924
v 0.08813601 0.07670307 0.00042499
v 0.08804333 0.07671952 0.00052495
v 0.08877027 0.07661396 0.00181002
v 0.08762300 0.07694482 -0.00498103
v 0.08775591 0.07685244 -0.00374918
v 0.08805209 0.07686907 -0.00500004
v 0.08428007 0.07753425 0.00321389
v 0.08538371 0.07727825 0.00279612
v 0.08401858 0.07758027 0.00286777
v 0.08329421 0.07770031 0.00129396
v 0.08342498 0.07768476 0.00170995
v 0.08358943 0.07765603 0.00211305
v 0.08538371 0.07727825 0.00279612
v 0.08522760 0.07736653 0.00409574
v 0.08597075 0.07723295 0.00453181
v 0.08597075 0.07723295 0.00453181
v 0.08522760 0.07736653 0.00409574
v 0.08559006 0.07730317 0.00433011
v 0.08378767 0.07762068 0.00249995
v 0.08358943 0.07765603 0.00211305
v 0.08378767 0.07762068 0.00249995
v 0.08329421 0.07770031 0.00129396
v 0.08522760 0.07736653 0.00409574
v 0.08428007 0.07753425 0.00321389
v 0.08401858 0.07758033 -0.00286793
v 0.08503788 0.07733869 -0.00247418
v 0.08428001 0.07753378 -0.00321399
v 0.08378767 0.07762068 0.00249995
v 0.09165149 0.07617360 -0.00133418
v 0.09158802 0.07617270 0.00043715
v 0.09297591 0.07599842 0.00000054
v 0.08914226 0.07657861 0.00273813
v 0.09061020 0.07633817 0.00228811
v 0.08857953 0.07664471 0.00175817
v 0.08719700 0.07701945 -0.00492411
v 0.09295743 0.07600414 0.00043572
v 0.09297591 0.07599842 0.00000054
v 0.09290134 0.07601398 0.00086815
v 0.08857953 0.07664471 0.00175817
v 0.08914226 0.07657861 0.00273813
v 0.08877027 0.07661396 0.00181002
v 0.08503788 0.07733869 -0.00247418
v 0.08520835 0.07727295 -0.00072937
v 0.08605778 0.07710331 -0.00122964
v 0.09061020 0.07633817 0.00228811
v 0.08914226 0.07657861 0.00273813
v 0.09087604 0.07636779 0.00409586
v 0.08378773 0.07762074 -0.00250005
v 0.08661890 0.07698488 0.00013680
v 0.08674865 0.07696568 0.00117750
v 0.08804333 0.07671952 0.00052495
v 0.08991831 0.07643467 -0.00203627
v 0.09050065 0.07632958 -0.00087082
v 0.09165149 0.07617360 -0.00133418
v 0.09297591 0.07599842 0.00000054
v 0.09280836 0.07603025 0.00129385
v 0.09290134 0.07601398 0.00086815
v 0.08358943 0.07765603 -0.00211339
v 0.08378773 0.07762074 -0.00250005
v 0.08654683 0.07699763 -0.00036322
v 0.08569747 0.07716751 0.00013680
v 0.08661890 0.07698488 0.00013680
v 0.09087604 0.07636779 0.00409586
v 0.09013307 0.07650196 0.00453151
v 0.09051412 0.07643502 0.00433011
v 0.08973580 0.07656890 0.00469816
v 0.09297591 0.07599842 0.00000054
v 0.09158802 0.07617270 0.00043715
v 0.09280836 0.07603025 0.00129385
v 0.08804333 0.07671952 0.00052495
v 0.08413124 0.07750511 -0.00055640
v 0.08661890 0.07698488 0.00013680
v 0.08569747 0.07716751 0.00013680
v 0.08674865 0.07696568 0.00117750
v 0.08837908 0.07670032 0.00253118
v 0.08799797 0.07681626 0.00387932
v 0.08914226 0.07657861 0.00273813
v 0.08719700 0.07701945 -0.00492411
v 0.08597069 0.07723301 -0.00453179
v 0.08775591 0.07685244 -0.00374918
v 0.08677768 0.07709372 -0.00482963
v 0.08597069 0.07723301 -0.00453179
v 0.08719700 0.07701945 -0.00492411
v 0.08636802 0.07716596 -0.00469893
v 0.08597069 0.07723301 -0.00453179
v 0.08677768 0.07709372 -0.00482963
v 0.09165149 0.07617360 -0.00133418
v 0.09029465 0.07635337 -0.00009768
v 0.09158802 0.07617270 0.00043715
v 0.09050065 0.07632958 -0.00087082
v 0.09087604 0.07636779 0.00409586
v 0.08973580 0.07656890 0.00469816
v 0.09013307 0.07650196 0.00453151
v 0.08918178 0.07658207 -0.00315570
v 0.09158802 0.07617270 0.00043715
v 0.09251457 0.07607996 0.00211311
v 0.09280836 0.07603025 0.00129385
v 0.09280836 0.07603025 0.00129385
v 0.09251457 0.07607996 0.00211311
v 0.09267920 0.07605326 0.00170995
v 0.08991831 0.07643467 -0.00203627
v 0.08936572 0.07649898 -0.00045341
v 0.09050065 0.07632958 -0.00087082
v 0.08520835 0.07727295 -0.00072937
v 0.08534437 0.07724142 0.00006510
v 0.08569747 0.07716751 0.00013680
v 0.08953106 0.07647287 -0.00030469
v 0.08593362 0.07712775 0.00110460
v 0.08569747 0.07716751 0.00013680
v 0.08534437 0.07724142 0.00006510
vn 0.16101559 0.98597614 -0.04387511
vn 0.16101559 0.98597614 -0.04387511
vn 0.16101559 0.98597614 -0.04387511
vn 0.17894115 0.98362203 -0.02162798
vn 0.17954084 0.98347129 -0.02343720
vn 0.17893058 0.98356009 -0.02435959
vn 0.16143799 0.98667734 0.02013976
vn 0.16080357 0.98681215 0.01854689
vn 0.15964121 0.98705134 0.01563146
vn 0.19566193 0.98064310 -0.00745068
vn 0.19566193 0.98064310 -0.00745068
vn 0.19566193 0.98064310 -0.00745068
vn 0.17378206 0.98429924 0.03089989
vn 0.17375961 0.98430579 0.03081741
vn 0.17305828 0.98446445 0.02967468
vn 0.22308470 0.97468056 0.01519972
vn 0.22308470 0.97468056 0.01519972
vn 0.22308470 0.97468056 0.01519972
vn 0.21827779 0.97570454 0.01885380
vn 0.21808609 0.97575558 0.01842575
vn 0.21851530 0.97563249 0.01980686
vn 0.17908567 0.98361010 -0.02096423
vn 0.21110741 0.97745928 0.00265053
vn 0.21110741 0.97745928 0.00265053
vn 0.21110741 0.97745928 0.00265053
vn 0.19636672 0.98040215 -0.01586594
vn 0.19636672 0.98040215 -0.01586594
vn 0.19636672 0.98040215 -0.01586594
vn 0.17289255 0.98450268 0.02937084
vn 0.17182838 0.98473932 0.02763123
vn 0.17664364 0.98366447 -0.03465872
vn 0.17664364 0.98366447 -0.03465872
vn 0.17664364 0.98366447 -0.03465872
vn 0.13266826 0.99098773 -0.01850542
vn 0.13266826 0.99098773 -0.01850542
vn 0.13266826 0.99098773 -0.01850542
vn 0.15619069 0.98772529 -0.00179208
vn 0.15569957 0.98780235 -0.00203891
vn 0.15521766 0.98787766 -0.00228107
vn 0.15453487 0.98446915 -0.08330348
vn 0.15453487 0.98446915 -0.08330348
vn 0.15453487 0.98446915 -0.08330348
vn 0.16376638 0.98523441 -0.04993719
vn 0.16376638 0.98523441 -0.04993719
vn 0.16376638 0.98523441 -0.04993719
vn 0.15712833 0.98757731 -0.00132078
vn 0.21517951 0.97655799 -0.00568033
vn 0.21517951 0.97655799 -0.00568033
vn 0.21517951 0.97655799 -0.00568033
vn 0.10146085 0.99387724 -0.04374627
vn 0.10146085 0.99387724 -0.04374627
vn 0.10146085 0.99387724 -0.04374627
vn 0.16779381 0.98580474 0.00585301
vn 0.16779381 0.98580474 0.00585301
vn 0.16779381 0.98580474 0.00585301
vn 0.22562832 0.97413742 0.01217196
vn 0.22633152 0.97399918 0.00998196
vn 0.22644211 0.97397695 0.00963723
vn 0.19279100 0.98054047 0.03704072
vn 0.19279100 0.98054047 0.03704072
vn 0.19279100 0.98054047 0.03704072
vn 0.17909964 0.98363203 0.01978256
vn 0.18046802 0.98335828 0.02092353
vn 0.17844423 0.98376198 0.01923621
vn 0.22041700 0.97230115 0.07776135
vn 0.22041700 0.97230115 0.07776135
vn 0.22041700 0.97230115 0.07776135
vn 0.16937252 0.98409748 -0.05352668
vn 0.16849509 0.98426914 -0.05313815
vn 0.16624035 0.98470584 -0.05213985
vn 0.21724442 0.97611504 -0.00206995
vn 0.21724442 0.97611504 -0.00206995
vn 0.21724442 0.97611504 -0.00206995
vn 0.18196960 0.98305406 0.02217606
vn 0.22717713 0.97382577 0.00734344
vn 0.19275475 0.98087901 -0.02686963
vn 0.19282637 0.98086665 -0.02680684
vn 0.19460074 0.98055747 -0.02525086
vn 0.18838096 0.98161607 -0.03070025
vn 0.14347218 0.98957322 -0.01267149
vn 0.14347218 0.98957322 -0.01267149
vn 0.14347218 0.98957322 -0.01267149
vn 0.13195933 0.99091127 -0.02610723
vn 0.13347047 0.99060007 -0.02995228
vn 0.13307990 0.99068002 -0.02903165
vn 0.12575055 0.99066963 0.05254038
vn 0.12575055 0.99066963 0.05254038
vn 0.12575055 0.99066963 0.05254038
vn 0.07841254 0.99476519 0.06552629
vn 0.07841254 0.99476519 0.06552629
vn 0.07841254 0.99476519 0.06552629
vn 0.14440040 0.98877217 0.03844639
vn 0.14347982 0.98898628 0.03632744
vn 0.14440040 0.98877217 0.03844639
vn 0.14667510 0.98826439 0.04266038
vn 0.14667510 0.98826439 0.04266038
vn 0.14667510 0.98826439 0.04266038
vn 0.15138616 0.98734805 0.04718117
vn 0.15172156 0.98728528 0.04741673
vn 0.14932593 0.98772978 0.04573453
vn 0.19503068 0.97989482 0.04206148
vn 0.19708736 0.97951880 0.04122487
vn 0.19503068 0.97989482 0.04206148
vn 0.21220539 0.97705511 -0.01822610
vn 0.21296393 0.97683439 -0.02099835
vn 0.21251584 0.97694945 -0.02016902
vn 0.12356107 0.99213201 0.02016768
vn 0.12295251 0.99224064 0.01847113
vn 0.12295271 0.99224061 0.01847168
vn 0.18078924 0.98349718 0.00696814
vn 0.18154014 0.98335811 0.00707087
vn 0.18226124 0.98322400 0.00716952
vn 0.19959765 0.97905286 0.04020290
vn 0.19959765 0.97905286 0.04020290
vn 0.15395289 0.98686325 0.04898402
vn 0.13471106 0.99033125 -0.03312023
vn 0.12234377 0.99234601 0.01677513
vn 0.22659160 0.97398724 0.00225897
vn 0.22659160 0.97398724 0.00225897
vn 0.22614430 0.97409347 0.00082101
vn 0.14329338 0.98906148 0.03499124
vn 0.14329338 0.98906148 0.03499124
vn 0.14050319 0.98959920 0.03085899
vn 0.15989500 0.98584246 0.05048000
vn 0.15957123 0.98589625 0.05045400
vn 0.15758985 0.98622303 0.05029478
vn 0.12514375 0.99189581 0.02194886
vn 0.12514375 0.99189581 0.02194886
vn 0.12514375 0.99189581 0.02194886
vn 0.21126820 0.97661919 0.03975811
vn 0.21036386 0.97681134 0.03983290
vn 0.20709577 0.97747148 0.04075357
vn 0.20583778 0.97773061 0.04091040
vn 0.18074897 0.98350462 0.00696263
vn 0.17196065 0.98358549 -0.05467281
vn 0.16170741 0.98553933 0.05062548
vn 0.17778365 0.98257843 -0.05415352
vn 0.17590007 0.98287988 -0.05482984
vn 0.17739041 0.98264171 -0.05429476
vn 0.13369124 0.99065837 0.02688217
vn 0.13369124 0.99065837 0.02688217
vn 0.13369124 0.99065837 0.02688217
vn 0.18713787 0.98129106 -0.04524678
vn 0.18688381 0.98130243 -0.04604339
vn 0.18671938 0.98132926 -0.04613842
vn 0.19446892 0.98050926 0.02798971
vn 0.19446892 0.98050926 0.02798971
vn 0.19446892 0.98050926 0.02798971
vn 0.22567566 0.97420225 -0.00068378
vn 0.22567566 0.97420225 -0.00068378
vn 0.22426834 0.97452505 -0.00215470
vn 0.22426834 0.97452505 -0.00215470
vn 0.22426834 0.97452505 -0.00215470
vn 0.16646169 0.98475913 0.05039796
vn 0.16712102 0.98463083 0.05072178
vn 0.16597678 0.98486580 0.04991063
vn 0.12251859 0.99239546 0.01185059
vn 0.12358125 0.99229396 0.00896522
vn 0.12375650 0.99227630 0.00848906
vn 0.15172057 0.98832750 -0.01377037
vn 0.15172057 0.98832750 -0.01377037
vn 0.15172057 0.98832750 -0.01377037
vn 0.14609512 0.98909996 -0.01837100
vn 0.15179863 0.98815700 -0.02242572
vn 0.14609512 0.98909996 -0.01837100
vn 0.13485617 0.99030499 -0.03331433
vn 0.10642472 0.99428531 0.00839703
vn 0.10642472 0.99428531 0.00839703
vn 0.10642472 0.99428531 0.00839703
vn 0.14330905 0.98902539 0.03593456
vn 0.14330905 0.98902539 0.03593456
vn 0.18976331 0.98173516 0.01363649
vn 0.18890723 0.98190362 0.01339142
vn 0.19061099 0.98156753 0.01387918
vn 0.17912876 0.98236062 -0.05367024
vn 0.19549069 0.98038138 0.02521372
vn 0.19549069 0.98038138 0.02521372
vn 0.19549069 0.98038138 0.02521372
vn 0.16863660 0.98431095 0.05190044
vn 0.36268156 0.93155339 -0.02589158
vn 0.36268156 0.93155339 -0.02589158
vn 0.36268156 0.93155339 -0.02589158
vn 0.21349602 0.97617646 0.03871641
vn 0.17169392 0.98368399 0.05373082
vn 0.18861587 0.98196077 0.01330802
vn 0.12437044 0.99221242 0.00682025
vn 0.19493234 0.97998624 -0.04035280
vn 0.19493234 0.97998624 -0.04035280
vn 0.19493234 0.97998624 -0.04035280
vn 0.16298550 0.98662706 0.00166231
vn 0.16298550 0.98662706 0.00166231
vn 0.16298550 0.98662706 0.00166231
vn 0.18615891 0.98137072 -0.04750116
vn 0.18505189 0.98150822 -0.04896344
vn 0.21298288 0.97681260 -0.02180448
vn 0.13808100 0.99004530 0.02727534
vn 0.13808100 0.99004530 0.02727534
vn 0.20736258 0.97739608 -0.04120269
vn 0.20946706 0.97703372 -0.03909815
vn 0.21086971 0.97678163 -0.03783663
vn 0.09882308 0.99149343 -0.08470405
vn 0.09882308 0.99149343 -0.08470405
vn 0.09882308 0.99149343 -0.08470405
vn 0.13937131 0.98955960 -0.03670743
vn 0.13937131 0.98955960 -0.03670743
vn 0.13937131 0.98955960 -0.03670743
vn 0.19595446 0.97782460 -0.07389796
vn 0.19595446 0.97782460 -0.07389796
vn 0.19595446 0.97782460 -0.07389796
vn 0.16304671 0.98655485 -0.01119342
vn 0.16298721 0.98656507 -0.01115892
vn 0.16204488 0.98672632 -0.01061262
vn 0.17767883 0.98257738 0.05451544
vn 0.17762851 0.98258614 0.05452152
vn 0.17594043 0.98287847 0.05472558
vn 0.21430039 0.97624031 -0.03209661
vn 0.21441461 0.97627931 -0.03008467
vn 0.21448018 0.97630002 -0.02892267
vn 0.33954117 0.93785614 -0.07167738
vn 0.33954117 0.93785614 -0.07167738
vn 0.33954117 0.93785614 -0.07167738
vn 0.20078405 0.97871905 -0.04236501
vn 0.20078405 0.97871905 -0.04236501
vn 0.20078405 0.97871905 -0.04236501
vn 0.22178885 0.97178386 -0.08028592
vn 0.22178885 0.97178386 -0.08028592
vn 0.22178885 0.97178386 -0.08028592
vn 0.21379693 0.97660746 -0.02299446
vn 0.23832506 0.97061002 -0.03342674
vn 0.23832506 0.97061002 -0.03342674
vn 0.23832506 0.97061002 -0.03342674
vn 0.20660974 0.97753931 -0.04158508
vn 0.21315379 0.97638387 -0.03521360
vn 0.21889281 0.97522890 0.03185188
vn 0.21875194 0.97524813 0.03222834
vn 0.21821876 0.97531948 0.03365236
vn 0.21456290 0.97632438 -0.02744948
vn 0.12615113 0.99199831 0.00502521
vn 0.12615113 0.99199831 0.00502521
vn 0.12615113 0.99199831 0.00502521
vn 0.15435002 0.98771881 -0.02424093
vn 0.15435002 0.98771881 -0.02424093
vn 0.16193551 0.98674495 -0.01054922
vn 0.17934664 0.98228551 0.05431360
vn 0.10950136 0.99395098 -0.00841980
vn 0.10950136 0.99395098 -0.00841980
vn 0.10950136 0.99395098 -0.00841980
vn 0.16684838 0.98554614 -0.02933312
vn 0.16684838 0.98554614 -0.02933312
vn 0.16684838 0.98554614 -0.02933312
vn 0.20907437 0.97776203 0.01641088
vn 0.20989394 0.97758787 0.01632424
vn 0.20532655 0.97854920 0.01680670
vn 0.15008817 0.98793216 -0.03825677
vn 0.15098720 0.98774890 -0.03943326
vn 0.15145653 0.98765232 -0.04004758
vn 0.21937646 0.97516160 0.03055855
vn 0.18441858 0.98283578 -0.00486025
vn 0.18441858 0.98283578 -0.00486025
vn 0.18441858 0.98283578 -0.00486025
vn 0.14159269 0.98975217 0.01849734
vn 0.14159269 0.98975217 0.01849734
vn 0.14159269 0.98975217 0.01849734
vn 0.15122336 0.98848827 -0.00473607
vn 0.15122336 0.98848827 -0.00473607
vn 0.15122336 0.98848827 -0.00473607
vn 0.21890210 0.97552575 0.02076948
vn 0.21955552 0.97531505 0.02357807
vn 0.19441881 0.98091398 -0.00301392
vn 0.19441881 0.98091398 -0.00301392
vn 0.19441881 0.98091398 -0.00301392
vn 0.12908880 0.98805641 -0.08414635
vn 0.12908880 0.98805641 -0.08414635
vn 0.12908880 0.98805641 -0.08414635
vn 0.15237615 0.98746130 -0.04125156
vn 0.12191829 0.99250261 -0.00863134
vn 0.12191829 0.99250261 -0.00863134
vn 0.12191829 0.99250261 -0.00863134
vn 0.17811081 0.98385019 -0.01775774
vn 0.21312646 0.97689389 0.01598228
vn 0.19441603 0.98089993 -0.00614242
vn 0.19441603 0.98089993 -0.00614242
vn 0.19441603 0.98089993 -0.00614242
vn 0.16727200 0.98519964 -0.03744000
vn 0.16727200 0.98519964 -0.03744000
vn 0.16727200 0.98519964 -0.03744000
vn 0.18700265 0.98106066 0.05049753
vn 0.18700265 0.98106066 0.05049753
vn 0.18700265 0.98106066 0.05049753
vn 0.18105051 0.98299007 0.03084210
vn 0.18105051 0.98299007 0.03084210
vn 0.18105051 0.98299007 0.03084210
vn 0.19576705 0.97792323 0.07308501
vn 0.19576705 0.97792323 0.07308501
vn 0.19576705 0.97792323 0.07308501
vn 0.13630955 0.99065074 0.00555063
vn 0.13632464 0.99064857 0.00556751
vn 0.13615980 0.99067226 0.00538317
vn 0.13664720 0.99060204 0.00592822
vn 0.13649581 0.98805599 -0.07151402
vn 0.13649581 0.98805599 -0.07151402
vn 0.13649581 0.98805599 -0.07151402
vn 0.16254977 0.98643378 0.02293392
vn 0.12625364 0.99188594 -0.01490943
vn 0.12625364 0.99188594 -0.01490943
vn 0.12625364 0.99188594 -0.01490943
vn 0.11060284 0.99365057 -0.02062896
vn 0.11060284 0.99365057 -0.02062896
vn 0.11060284 0.99365057 -0.02062896
vn 0.15229039 0.98825007 0.01301653
vn 0.15105854 0.98847845 0.00957448
vn 0.15204892 0.98829592 0.01234137
vn 0.20411209 0.97893973 0.00390692
vn 0.20411209 0.97893973 0.00390692
vn 0.20411209 0.97893973 0.00390692
vn 0.15004417 0.98865629 0.00674426
vn 0.20686211 0.97831611 -0.01027917
vn 0.20686211 0.97831611 -0.01027917
vn 0.20686211 0.97831611 -0.01027917
f 1//1 2//2 3//3
f 4//4 5//5 6//6
f 7//7 8//8 9//9
f 10//10 11//11 12//12
f 13//13 14//14 15//15
f 16//16 17//17 18//18
f 19//19 20//20 21//21
f 22//22 5//5 4//4
f 23//23 24//24 25//25
f 26//26 27//27 28//28
f 15//15 29//29 30//30
f 14//14 29//29 15//15
f 31//31 32//32 33//33
f 34//34 35//35 36//36
f 37//37 38//38 39//39
f 40//40 41//41 42//42
f 43//43 44//44 45//45
f 46//46 38//38 37//37
f 47//47 48//48 49//49
f 50//50 51//51 52//52
f 53//53 54//54 55//55
f 56//56 57//57 58//58
f 59//59 60//60 61//61
f 62//62 63//63 64//64
f 65//65 66//66 67//67
f 68//68 69//69 70//70
f 71//71 72//72 73//73
f 62//62 74//74 63//63
f 57//57 75//75 58//58
f 76//76 77//77 78//78
f 79//79 77//77 76//76
f 80//80 81//81 82//82
f 83//83 84//84 85//85
f 86//86 87//87 88//88
f 89//89 90//90 91//91
f 92//92 93//93 94//94
f 95//95 96//96 97//97
f 98//98 99//99 100//100
f 101//101 102//102 103//103
f 104//104 105//105 106//106
f 107//107 108//108 109//109
f 110//110 111//111 112//112
f 113//113 102//102 114//114
f 115//115 99//99 98//98
f 85//85 84//84 116//116
f 108//108 117//117 109//109
f 118//118 119//119 120//120
f 121//121 122//122 123//123
f 124//124 125//125 126//126
f 127//127 128//128 129//129
f 130//130 131//131 132//132
f 132//132 131//131 133//133
f 134//134 111//111 110//110
f 68//68 135//135 69//69
f 136//136 125//125 124//124
f 137//137 138//138 139//139
f 140//140 141//141 142//142
f 143//143 144//144 145//145
f 146//146 147//147 148//148
f 120//120 149//149 150//150
f 151//151 152//152 153//153
f 154//154 155//155 156//156
f 157//157 158//158 159//159
f 160//160 161//161 162//162
f 163//163 164//164 165//165
f 84//84 166//166 116//116
f 167//167 168//168 169//169
f 93//93 170//170 171//171
f 172//172 173//173 174//174
f 139//139 175//175 137//137
f 176//176 177//177 178//178
f 179//179 155//155 154//154
f 180//180 181//181 182//182
f 130//130 183//183 131//131
f 184//184 155//155 179//179
f 172//172 185//185 173//173
f 158//158 186//186 159//159
f 187//187 188//188 189//189
f 190//190 191//191 192//192
f 144//144 193//193 145//145
f 145//145 193//193 194//194
f 105//105 195//195 106//106
f 123//123 196//196 197//197
f 198//198 199//199 200//200
f 201//201 202//202 203//203
f 204//204 205//205 206//206
f 207//207 208//208 209//209
f 210//210 211//211 212//212
f 213//213 214//214 215//215
f 216//216 217//217 218//218
f 219//219 220//220 221//221
f 222//222 223//223 224//224
f 225//225 226//226 227//227
f 105//105 228//228 195//195
f 229//229 230//230 231//231
f 198//198 232//232 199//199
f 233//233 200//200 199//199
f 234//234 235//235 236//236
f 237//237 218//218 217//217
f 238//238 239//239 240//240
f 164//164 241//241 242//242
f 211//211 243//243 212//212
f 213//213 244//244 214//214
f 245//245 246//246 247//247
f 248//248 249//249 250//250
f 251//251 252//252 253//253
f 254//254 255//255 256//256
f 234//234 257//257 235//235
f 258//258 259//259 260//260
f 261//261 262//262 263//263
f 264//264 265//265 266//266
f 267//267 21//21 268//268
f 269//269 270//270 271//271
f 272//272 273//273 274//274
f 255//255 275//275 256//256
f 276//276 277//277 278//278
f 22//22 4//4 279//279
f 251//251 280//280 252//252
f 281//281 282//282 283//283
f 284//284 285//285 286//286
f 287//287 288//288 289//289
f 290//290 291//291 292//292
f 293//293 294//294 295//295
f 296//296 297//297 298//298
f 299//299 297//297 296//296
f 300//300 301//301 302//302
f 303//303 8//8 7//7
f 304//304 305//305 306//306
f 307//307 308//308 309//309
f 310//310 311//311 312//312
f 313//313 314//314 315//315
f 267//267 19//19 21//21
f 312//312 311//311 316//316
f 317//317 318//318 319//319
