# https://github.com/mikedh/trimesh
v 0.08840119 0.07785028 -0.00925707
v 0.08871704 0.07769900 -0.00931214
v 0.08803182 0.07790184 -0.00924687
v 0.08910661 0.07707989 -0.00946377
v 0.08916902 0.07740217 -0.01194929
v 0.08896195 0.07741326 -0.00919818
v 0.08896881 0.07781368 -0.01207517
v 0.08896195 0.07741326 -0.00919818
v 0.08916902 0.07740217 -0.01194929
v 0.08853560 0.07815009 -0.01194673
v 0.08871704 0.07769900 -0.00931214
v 0.08896881 0.07781368 -0.01207517
v 0.08896881 0.07781368 -0.01207517
v 0.08871704 0.07769900 -0.00931214
v 0.08896195 0.07741326 -0.00919818
v 0.08811509 0.07823497 -0.01188140
v 0.08871704 0.07769900 -0.00931214
v 0.08853560 0.07815009 -0.01194673
v 0.08803182 0.07790184 -0.00924687
v 0.08871704 0.07769900 -0.00931214
v 0.08811509 0.07823497 -0.01188140
v 0.08823615 0.07811945 -0.01238571
v 0.08811509 0.07823497 -0.01188140
v 0.08853560 0.07815009 -0.01194673
v 0.08768749 0.07810640 -0.01226722
v 0.08784502 0.07819986 -0.01181422
v 0.08811509 0.07823497 -0.01188140
v 0.08760076 0.07776254 -0.01260023
v 0.08768749 0.07810640 -0.01226722
v 0.08788967 0.07774680 -0.01277577
v 0.08788967 0.07774680 -0.01277577
v 0.08768749 0.07810640 -0.01226722
v 0.08823615 0.07811945 -0.01238571
v 0.08733719 0.07777142 -0.01232122
v 0.08768749 0.07810640 -0.01226722
v 0.08760076 0.07776254 -0.01260023
v 0.08901578 0.07747757 -0.01235269
v 0.08896881 0.07781368 -0.01207517
v 0.08916902 0.07740217 -0.01194929
v 0.08718758 0.07775354 -0.01197087
v 0.08768749 0.07810640 -0.01226722
v 0.08733719 0.07777142 -0.01232122
v 0.08867073 0.07758587 -0.01267790
v 0.08870828 0.07792222 -0.01238661
v 0.08901578 0.07747757 -0.01235269
v 0.08901578 0.07747757 -0.01235269
v 0.08870828 0.07792222 -0.01238661
v 0.08896881 0.07781368 -0.01207517
v 0.08867073 0.07758587 -0.01267790
v 0.08833372 0.07766991 -0.01280664
v 0.08870828 0.07792222 -0.01238661
v 0.08718758 0.07775354 -0.01197087
v 0.08753055 0.07807612 -0.01179205
v 0.08768749 0.07810640 -0.01226722
v 0.08768749 0.07810640 -0.01226722
v 0.08811509 0.07823497 -0.01188140
v 0.08823615 0.07811945 -0.01238571
v 0.08753055 0.07807612 -0.01179205
v 0.08784502 0.07819986 -0.01181422
v 0.08768749 0.07810640 -0.01226722
v 0.08870828 0.07792222 -0.01238661
v 0.08853560 0.07815009 -0.01194673
v 0.08896881 0.07781368 -0.01207517
v 0.08833372 0.07766991 -0.01280664
v 0.08823615 0.07811945 -0.01238571
v 0.08870828 0.07792222 -0.01238661
v 0.08788967 0.07774680 -0.01277577
v 0.08823615 0.07811945 -0.01238571
v 0.08833372 0.07766991 -0.01280664
v 0.08870828 0.07792222 -0.01238661
v 0.08823615 0.07811945 -0.01238571
v 0.08853560 0.07815009 -0.01194673
v 0.08811509 0.07823497 -0.01188140
v 0.08784502 0.07819986 -0.01181422
v 0.08803182 0.07790184 -0.00924687
v 0.08714294 0.07758909 -0.01068573
v 0.08753055 0.07807612 -0.01179205
v 0.08718758 0.07775354 -0.01197087
v 0.08733385 0.07761836 -0.00916194
v 0.08714294 0.07758909 -0.01068573
v 0.08714419 0.07741141 -0.00927006
v 0.08769232 0.07782757 -0.00912612
v 0.08753055 0.07807612 -0.01179205
v 0.08733385 0.07761836 -0.00916194
v 0.08733385 0.07761836 -0.00916194
v 0.08753055 0.07807612 -0.01179205
v 0.08714294 0.07758909 -0.01068573
v 0.08803182 0.07790184 -0.00924687
v 0.08784502 0.07819986 -0.01181422
v 0.08769232 0.07782757 -0.00912612
v 0.08769232 0.07782757 -0.00912612
v 0.08784502 0.07819986 -0.01181422
v 0.08753055 0.07807612 -0.01179205
v 0.08896195 0.07741326 -0.00919818
v 0.08871704 0.07769900 -0.00931214
v 0.08844465 0.07771557 -0.00895714
v 0.08735644 0.07732266 -0.00885855
v 0.08733385 0.07761836 -0.00916194
v 0.08714419 0.07741141 -0.00927006
v 0.08733385 0.07761836 -0.00916194
v 0.08765488 0.07724958 -0.00858002
v 0.08769232 0.07782757 -0.00912612
v 0.08769232 0.07782757 -0.00912612
v 0.08765488 0.07724958 -0.00858002
v 0.08801120 0.07761418 -0.00873654
v 0.08802151 0.07717418 -0.00848358
v 0.08853042 0.07735836 -0.00867968
v 0.08801120 0.07761418 -0.00873654
v 0.08769232 0.07782757 -0.00912612
v 0.08801120 0.07761418 -0.00873654
v 0.08844465 0.07771557 -0.00895714
v 0.08853042 0.07735836 -0.00867968
v 0.08844465 0.07771557 -0.00895714
v 0.08801120 0.07761418 -0.00873654
v 0.08844465 0.07771557 -0.00895714
v 0.08803182 0.07790184 -0.00924687
v 0.08769232 0.07782757 -0.00912612
v 0.08840119 0.07785028 -0.00925707
v 0.08803182 0.07790184 -0.00924687
v 0.08844465 0.07771557 -0.00895714
v 0.08735644 0.07732266 -0.00885855
v 0.08765488 0.07724958 -0.00858002
v 0.08733385 0.07761836 -0.00916194
v 0.08840119 0.07785028 -0.00925707
v 0.08844465 0.07771557 -0.00895714
v 0.08871704 0.07769900 -0.00931214
v 0.08802151 0.07717418 -0.00848358
v 0.08801120 0.07761418 -0.00873654
v 0.08765488 0.07724958 -0.00858002
v 0.08840054 0.07710528 -0.00853949
v 0.08853042 0.07735836 -0.00867968
v 0.08802151 0.07717418 -0.00848358
v 0.08873480 0.07706719 -0.00872736
v 0.08853042 0.07735836 -0.00867968
v 0.08840054 0.07710528 -0.00853949
v 0.08897030 0.07705694 -0.00900369
v 0.08896195 0.07741326 -0.00919818
v 0.08873480 0.07706719 -0.00872736
v 0.08873480 0.07706719 -0.00872736
v 0.08896195 0.07741326 -0.00919818
v 0.08853042 0.07735836 -0.00867968
v 0.08910661 0.07707989 -0.00946377
v 0.08896195 0.07741326 -0.00919818
v 0.08897030 0.07705694 -0.00900369
v 0.08896195 0.07741326 -0.00919818
v 0.08844465 0.07771557 -0.00895714
v 0.08853042 0.07735836 -0.00867968
vn 0.03006359 0.39675399 -0.91743253
vn 0.03006359 0.39675399 -0.91743253
vn 0.03006359 0.39675399 -0.91743253
vn 0.93405094 0.35043269 0.06888961
vn 0.93405094 0.35043269 0.06888961
vn 0.93405094 0.35043269 0.06888961
vn 0.88933763 0.45259140 0.06511224
vn 0.88933763 0.45259140 0.06511224
vn 0.88933763 0.45259140 0.06511224
vn 0.62726834 0.77367021 0.08926834
vn 0.62726834 0.77367021 0.08926834
vn 0.62726834 0.77367021 0.08926834
vn 0.73681886 0.66939350 0.09492269
vn 0.73681886 0.66939350 0.09492269
vn 0.73681886 0.66939350 0.09492269
vn 0.21796477 0.96434434 0.15010446
vn 0.21796477 0.96434434 0.15010446
vn 0.21796477 0.96434434 0.15010446
vn 0.29275642 0.94743791 0.12905457
vn 0.29275642 0.94743791 0.12905457
vn 0.29275642 0.94743791 0.12905457
vn 0.16734271 0.96899348 -0.18179126
vn 0.16734271 0.96899348 -0.18179126
vn 0.16734271 0.96899348 -0.18179126
vn -0.16286724 0.97597621 -0.14472283
vn -0.16286724 0.97597621 -0.14472283
vn -0.16286724 0.97597621 -0.14472283
vn -0.34451212 0.69648420 -0.62946101
vn -0.34451212 0.69648420 -0.62946101
vn -0.34451212 0.69648420 -0.62946101
vn -0.15022654 0.77808961 -0.60992503
vn -0.15022654 0.77808961 -0.60992503
vn -0.15022654 0.77808961 -0.60992503
vn -0.54102450 0.65149922 -0.53182822
vn -0.54102450 0.65149922 -0.53182822
vn -0.54102450 0.65149922 -0.53182822
vn 0.89508091 0.35155795 -0.27429394
vn 0.89508091 0.35155795 -0.27429394
vn 0.89508091 0.35155795 -0.27429394
vn -0.65102633 0.71969079 -0.24126724
vn -0.65102633 0.71969079 -0.24126724
vn -0.65102633 0.71969079 -0.24126724
vn 0.68694846 0.43040150 -0.58553937
vn 0.68694846 0.43040150 -0.58553937
vn 0.68694846 0.43040150 -0.58553937
vn 0.74739674 0.48198931 -0.45725749
vn 0.74739674 0.48198931 -0.45725749
vn 0.74739674 0.48198931 -0.45725749
vn 0.41343940 0.56927102 -0.71063237
vn 0.41343940 0.56927102 -0.71063237
vn 0.41343940 0.56927102 -0.71063237
vn -0.63077416 0.75930531 -0.15993565
vn -0.63077416 0.75930531 -0.15993565
vn -0.63077416 0.75930531 -0.15993565
vn -0.07477967 0.96796783 -0.23967954
vn -0.07477967 0.96796783 -0.23967954
vn -0.07477967 0.96796783 -0.23967954
vn -0.36929206 0.92718412 -0.06287266
vn -0.36929206 0.92718412 -0.06287266
vn -0.36929206 0.92718412 -0.06287266
vn 0.56532694 0.80185799 -0.19346630
vn 0.56532694 0.80185799 -0.19346630
vn 0.56532694 0.80185799 -0.19346630
vn 0.28585622 0.68730158 -0.66775950
vn 0.28585622 0.68730158 -0.66775950
vn 0.28585622 0.68730158 -0.66775950
vn 0.06934156 0.68982905 -0.72064390
vn 0.06934156 0.68982905 -0.72064390
vn 0.06934156 0.68982905 -0.72064390
vn 0.36587475 0.87723023 -0.31080991
vn 0.36587475 0.87723023 -0.31080991
vn 0.36587475 0.87723023 -0.31080991
vn -0.09810080 0.98769583 0.12179154
vn -0.09810080 0.98769583 0.12179154
vn -0.09810080 0.98769583 0.12179154
vn -0.70175581 0.70931757 0.06638799
vn -0.70175581 0.70931757 0.06638799
vn -0.70175581 0.70931757 0.06638799
vn -0.75575182 0.64967786 0.08220619
vn -0.75575182 0.64967786 0.08220619
vn -0.75575182 0.64967786 0.08220619
vn -0.50918618 0.85353700 0.11047184
vn -0.50918618 0.85353700 0.11047184
vn -0.50918618 0.85353700 0.11047184
vn -0.69288277 0.71734242 0.07302953
vn -0.69288277 0.71734242 0.07302953
vn -0.69288277 0.71734242 0.07302953
vn -0.16910254 0.97753979 0.12577871
vn -0.16910254 0.97753979 0.12577871
vn -0.16910254 0.97753979 0.12577871
vn -0.35741845 0.92765869 0.10817302
vn -0.35741845 0.92765869 0.10817302
vn -0.35741845 0.92765869 0.10817302
vn 0.59615958 0.68074325 0.42565525
vn 0.59615958 0.68074325 0.42565525
vn 0.59615958 0.68074325 0.42565525
vn -0.75609194 0.43964821 0.48480350
vn -0.75609194 0.43964821 0.48480350
vn -0.75609194 0.43964821 0.48480350
vn -0.43375005 0.63348509 0.64074764
vn -0.43375005 0.63348509 0.64074764
vn -0.43375005 0.63348509 0.64074764
vn -0.37395706 0.64962235 0.66192667
vn -0.37395706 0.64962235 0.66192667
vn -0.37395706 0.64962235 0.66192667
vn 0.15038451 0.49539205 0.85555316
vn 0.15038451 0.49539205 0.85555316
vn 0.15038451 0.49539205 0.85555316
vn 0.02806534 0.88620161 0.46244897
vn 0.02806534 0.88620161 0.46244897
vn 0.02806534 0.88620161 0.46244897
vn 0.22964292 0.63082960 0.74116000
vn 0.22964292 0.63082960 0.74116000
vn 0.22964292 0.63082960 0.74116000
vn 0.00556201 0.84473625 0.53515393
vn 0.00556201 0.84473625 0.53515393
vn 0.00556201 0.84473625 0.53515393
vn 0.13787240 0.91081352 0.38911430
vn 0.13787240 0.91081352 0.38911430
vn 0.13787240 0.91081352 0.38911430
vn -0.44590666 0.62416591 0.64154826
vn -0.44590666 0.62416591 0.64154826
vn -0.44590666 0.62416591 0.64154826
vn 0.45412397 0.83547111 0.30945023
vn 0.45412397 0.83547111 0.30945023
vn 0.45412397 0.83547111 0.30945023
vn -0.12533925 0.49227392 0.86136894
vn -0.12533925 0.49227392 0.86136894
vn -0.12533925 0.49227392 0.86136894
vn 0.20363581 0.39236454 0.89698524
vn 0.20363581 0.39236454 0.89698524
vn 0.20363581 0.39236454 0.89698524
vn 0.49710176 0.21109415 0.84162290
vn 0.49710176 0.21109415 0.84162290
vn 0.49710176 0.21109415 0.84162290
vn 0.72060647 0.34512006 0.60134720
vn 0.72060647 0.34512006 0.60134720
vn 0.72060647 0.34512006 0.60134720
vn 0.68953435 0.38336684 0.61446907
vn 0.68953435 0.38336684 0.61446907
vn 0.68953435 0.38336684 0.61446907
vn 0.94083879 0.17907154 0.28767300
vn 0.94083879 0.17907154 0.28767300
vn 0.94083879 0.17907154 0.28767300
vn 0.59691245 0.57662963 0.55784747
vn 0.59691245 0.57662963 0.55784747
vn 0.59691245 0.57662963 0.55784747
f 1//1 2//2 3//3
f 4//4 5//5 6//6
f 7//7 8//8 9//9
f 10//10 11//11 12//12
f 13//13 14//14 15//15
f 16//16 17//17 18//18
f 19//19 20//20 21//21
f 22//22 23//23 24//24
f 25//25 26//26 27//27
f 28//28 29//29 30//30
f 31//31 32//32 33//33
f 34//34 35//35 36//36
f 37//37 38//38 39//39
f 40//40 41//41 42//42
f 43//43 44//44 45//45
f 46//46 47//47 48//48
f 49//49 50//50 51//51
f 52//52 53//53 54//54
f 55//55 56//56 57//57
f 58//58 59//59 60//60
f 61//61 62//62 63//63
f 64//64 65//65 66//66
f 67//67 68//68 69//69
f 70//70 71//71 72//72
f 73//73 74//74 75//75
f 76//76 77//77 78//78
f 79//79 80//80 81//81
f 82//82 83//83 84//84
f 85//85 86//86 87//87
f 88//88 89//89 90//90
f 91//91 92//92 93//93
f 94//94 95//95 96//96
f 97//97 98//98 99//99
f 100//100 101//101 102//102
f 103//103 104//104 105//105
f 106//106 107//107 108//108
f 109//109 110//110 111//111
f 112//112 113//113 114//114
f 115//115 116//116 117//117
f 118//118 119//119 120//120
f 121//121 122//122 123//123
f 124//124 125//125 126//126
f 127//127 128//128 129//129
f 130//130 131//131 132//132
f 133//133 134//134 135//135
f 136//136 137//137 138//138
f 139//139 140//140 141//141
f 142//142 143//143 144//144
f 145//145 146//146 147//147
