# https://github.com/mikedh/trimesh
v -0.06731861 0.05677741 0.04519999
v -0.05275815 0.05913585 0.04519999
v -0.05395805 0.05894148 0.04070836
v -0.06731861 0.05677741 0.02879995
v -0.06662023 0.05689048 0.03880321
v -0.06662023 0.05689048 0.03811740
v -0.06662023 0.05689048 0.03583157
v -0.06662023 0.05689048 0.03524726
v -0.05275815 0.05913585 0.02879995
v -0.05345678 0.05902272 0.03524726
v -0.05345678 0.05902272 0.03583157
v -0.05345678 0.05902272 0.03811740
v -0.05345678 0.05902272 0.03880321
v -0.06223237 0.05760139 0.02882117
v -0.05275815 0.05913585 0.02879995
v -0.06223237 0.05760139 0.02882117
v -0.05784446 0.05831187 0.02882117
v -0.05671626 0.05849462 0.03181833
v -0.05784446 0.05831187 0.02882117
v -0.05395805 0.05894148 0.03334236
v -0.05389553 0.05895143 0.03519660
v -0.05389553 0.05895143 0.03524726
v -0.05395805 0.05894148 0.03519660
v -0.05784446 0.05831187 0.03181833
v -0.05671626 0.05849462 0.03334236
v -0.05365264 0.05899101 0.03811740
v -0.05365264 0.05899101 0.03583157
v -0.05395805 0.05894148 0.03880321
v -0.06336069 0.05741864 0.03181833
v -0.06223237 0.05760139 0.03181833
v -0.06611877 0.05697172 0.03334236
v -0.06336069 0.05741864 0.03334236
v -0.06618142 0.05696177 0.03519660
v -0.06611877 0.05697172 0.03519660
v -0.06618142 0.05696177 0.03524726
v -0.06642431 0.05692225 0.03811740
v -0.06642431 0.05692225 0.03583157
v -0.06611877 0.05697172 0.04070836
v -0.06611877 0.05697172 0.03880321
vn -0.15988799 0.98713516 -0.00000644
vn -0.15989380 0.98713422 -0.00000188
vn -0.15992552 0.98712908 0.00000424
vn -0.15991867 0.98713019 -0.00001191
vn -0.15985597 0.98714035 -0.00000063
vn -0.15990249 0.98713281 0.00000000
vn -0.15990249 0.98713281 0.00000000
vn -0.15998129 0.98712005 -0.00003038
vn -0.15991652 0.98713054 -0.00000948
vn -0.16000779 0.98711575 0.00002749
vn -0.15983836 0.98714320 0.00000000
vn -0.15983836 0.98714320 0.00000000
vn -0.15989329 0.98713430 0.00000084
vn -0.15989599 0.98712548 -0.00407012
vn -0.15980552 0.98695605 0.01949226
vn -0.15980552 0.98695605 0.01949226
vn -0.15980552 0.98695605 0.01949226
vn -0.15991574 0.98713067 0.00000031
vn -0.15991180 0.98713131 0.00000426
vn -0.15993746 0.98712715 -0.00000193
vn -0.15934040 0.98722370 0.00004066
vn -0.16038301 0.98705486 0.00000000
vn -0.15717114 0.98757138 0.00000000
vn -0.15990077 0.98713309 0.00000000
vn -0.15992563 0.98712907 0.00000000
vn -0.15981800 0.98714650 0.00000000
vn -0.15981800 0.98714650 0.00000000
vn -0.15998268 0.98711982 0.00000000
vn -0.15992223 0.98712962 0.00000138
vn -0.15988113 0.98713627 0.00000000
vn -0.15991511 0.98713077 0.00000455
vn -0.15995378 0.98712451 0.00000000
vn -0.15922259 0.98724271 -0.00004452
vn -0.15685210 0.98762210 0.00000000
vn -0.16036178 0.98705831 0.00000000
vn -0.16006325 0.98710676 0.00000000
vn -0.16006325 0.98710676 0.00000000
vn -0.15989524 0.98713399 -0.00000752
vn -0.15992361 0.98712939 0.00000000
f 1//1 2//2 3//3
f 4//4 1//1 5//5
f 4//4 5//5 6//6
f 4//4 6//6 7//7
f 4//4 7//7 8//8
f 2//2 9//9 10//10
f 2//2 10//10 11//11
f 2//2 11//11 12//12
f 2//2 12//12 13//13
f 9//9 4//4 14//14
f 15//15 16//16 17//17
f 18//18 9//9 19//19
f 18//18 20//20 9//9
f 10//10 9//9 20//20
f 21//21 10//10 20//20
f 22//22 10//10 21//21
f 23//23 21//21 20//20
f 24//24 18//18 19//19
f 25//25 20//20 18//18
f 26//26 11//11 27//27
f 26//26 12//12 11//11
f 3//3 13//13 28//28
f 29//29 30//30 14//14
f 4//4 29//29 14//14
f 2//2 13//13 3//3
f 31//31 32//32 29//29
f 31//31 29//29 4//4
f 33//33 34//34 31//31
f 8//8 35//35 33//33
f 8//8 31//31 4//4
f 8//8 33//33 31//31
f 6//6 36//36 37//37
f 6//6 37//37 7//7
f 38//38 39//39 5//5
f 1//1 3//3 38//38
f 1//1 38//38 5//5
