# https://github.com/mikedh/trimesh
v -0.02811545 0.09104064 0.00050000
v -0.02741611 0.09090498 0.00049959
v -0.02762210 0.09104029 0.00049996
v -0.01255548 0.05758980 0.00049999
v -0.01295197 0.05808261 0.00050000
v -0.01248306 0.05673764 0.00050023
v -0.01284062 0.05612860 0.00049760
v -0.01248306 0.05673764 0.00050023
v -0.01325923 0.05587373 0.00049964
v -0.03002637 0.09102670 -0.01580661
v -0.02968645 0.09104482 -0.01050990
v -0.02872622 0.09102568 -0.01101011
v -0.02816766 0.09104273 -0.00043371
v -0.02811545 0.09104082 0.00050000
v -0.02762210 0.09104029 0.00049996
v -0.03002637 0.09102670 -0.01580661
v -0.03107285 0.09102640 -0.01591759
v -0.02968645 0.09104482 -0.01050990
v -0.02885460 0.09104386 -0.00471824
v -0.02867037 0.09104059 -0.00050047
v -0.02761298 0.09103689 -0.00209862
v -0.02885460 0.09104386 -0.00471824
v -0.02816766 0.09104273 -0.00043371
v -0.02762210 0.09104029 0.00049996
v -0.02816301 0.09102825 -0.00793403
v -0.02968645 0.09104482 -0.01050990
v -0.02816301 0.09102825 -0.00793403
v -0.02687031 0.05091945 -0.01494902
v -0.02426820 0.05223152 -0.01501739
v -0.02489382 0.05200515 -0.01043200
v -0.02426820 0.05223152 -0.01501739
v -0.02363145 0.05235348 -0.01818692
v -0.02107906 0.05367652 -0.01390618
v -0.03142333 0.04821435 -0.00798023
v -0.02700746 0.05090151 -0.00717115
v -0.02972859 0.04913322 0.00049910
v -0.02687031 0.05091945 -0.01494902
v -0.02489382 0.05200515 -0.01043200
v -0.02700746 0.05090151 -0.00717115
v -0.02700746 0.05090151 -0.00717115
v -0.02395057 0.05239258 -0.00458872
v -0.02549535 0.05145786 0.00049986
v -0.03500676 0.04549596 -0.00044858
v -0.03417950 0.04624275 -0.01417082
v -0.03489249 0.04560826 0.00050043
v -0.03500676 0.04549596 -0.00044858
v -0.03558290 0.04504136 -0.00050061
v -0.03573513 0.04492578 -0.00383008
v -0.02107906 0.05367652 -0.01390618
v -0.01721847 0.05511991 -0.01044929
v -0.01932132 0.05437664 -0.00719356
v -0.02426820 0.05223152 -0.01501739
v -0.02696532 0.05070708 -0.01815927
v -0.02363145 0.05235348 -0.01818692
v -0.03007990 0.04907594 -0.01465404
v -0.02687031 0.05091945 -0.01494902
v -0.02700746 0.05090151 -0.00717115
v -0.02201795 0.05332753 -0.01006186
v -0.01932132 0.05437664 -0.00719356
v -0.02157187 0.05344901 -0.00472850
v -0.03007990 0.04907594 -0.01465404
v -0.02687031 0.05091945 -0.01494902
v -0.02696532 0.05070708 -0.01815927
v -0.02426820 0.05223152 -0.01501739
v -0.02107906 0.05367652 -0.01390618
v -0.01600342 0.05538050 -0.01510411
v -0.01721847 0.05511991 -0.01044929
v -0.01589727 0.05544344 -0.00424045
v -0.01325923 0.05587373 0.00049964
v -0.01553487 0.05527226 0.00049991
v -0.02201795 0.05332753 -0.01006186
v -0.02107906 0.05367652 -0.01390618
v -0.01932132 0.05437664 -0.00719356
v -0.01589727 0.05544344 -0.00424045
v -0.01330012 0.05621979 -0.00565749
v -0.01325923 0.05587373 0.00049964
v -0.01972210 0.05395630 -0.01821506
v -0.01753562 0.05470267 -0.01821506
v -0.01600342 0.05538050 -0.01510411
v -0.01869970 0.05447105 -0.00294042
v -0.01553487 0.05527226 0.00049991
v -0.02003151 0.05381778 0.00049992
v -0.01869970 0.05447105 -0.00294042
v -0.01589727 0.05544344 -0.00424045
v -0.01553487 0.05527226 0.00049991
v -0.02972859 0.04913322 0.00049910
v -0.02700746 0.05090151 -0.00717115
v -0.02549535 0.05145786 0.00049986
v -0.02996045 0.04901413 -0.01823681
v -0.02687031 0.05091945 -0.01494902
v -0.03007990 0.04907594 -0.01465404
v -0.02996045 0.04901413 -0.01823681
v -0.02696532 0.05070708 -0.01815927
v -0.02687031 0.05091945 -0.01494902
v -0.03643316 0.04437969 -0.00816941
v -0.03500676 0.04549596 -0.00044858
v -0.03573513 0.04492578 -0.00383008
v -0.03643316 0.04437969 -0.00816941
v -0.03417950 0.04624275 -0.01417082
v -0.03500676 0.04549596 -0.00044858
v -0.03301846 0.04699538 -0.01816439
v -0.02996045 0.04901413 -0.01823681
v -0.03007990 0.04907594 -0.01465404
v -0.02489382 0.05200515 -0.01043200
v -0.02201795 0.05332753 -0.01006186
v -0.02157187 0.05344901 -0.00472850
v -0.02489382 0.05200515 -0.01043200
v -0.02157187 0.05344901 -0.00472850
v -0.02395057 0.05239258 -0.00458872
v -0.03417950 0.04624275 -0.01417082
v -0.03007990 0.04907594 -0.01465404
v -0.03142333 0.04821435 -0.00798023
v -0.01434439 0.05596272 -0.01012212
v -0.01330012 0.05621979 -0.00565749
v -0.01589727 0.05544344 -0.00424045
v -0.02157187 0.05344901 -0.00472850
v -0.01869970 0.05447105 -0.00294042
v -0.02003151 0.05381778 0.00049992
v -0.01721847 0.05511991 -0.01044929
v -0.01932132 0.05437664 -0.00719356
v -0.01589727 0.05544344 -0.00424045
v -0.01869970 0.05447105 -0.00294042
v -0.02426820 0.05223152 -0.01501739
v -0.02107906 0.05367652 -0.01390618
v -0.02201795 0.05332753 -0.01006186
v -0.02700746 0.05090151 -0.00717115
v -0.02489382 0.05200515 -0.01043200
v -0.02395057 0.05239258 -0.00458872
v -0.03748887 0.04349623 -0.01204830
v -0.03417950 0.04624275 -0.01417082
v -0.03643316 0.04437969 -0.00816941
v -0.03670775 0.04416255 -0.01820284
v -0.03301846 0.04699538 -0.01816439
v -0.03417950 0.04624275 -0.01417082
v -0.02395057 0.05239258 -0.00458872
v -0.02003151 0.05381778 0.00049992
v -0.02549535 0.05145786 0.00049986
v -0.02395057 0.05239258 -0.00458872
v -0.02157187 0.05344901 -0.00472850
v -0.02003151 0.05381778 0.00049992
v -0.03670775 0.04416255 -0.01820284
v -0.02107906 0.05367652 -0.01390618
v -0.02363145 0.05235348 -0.01818692
v -0.01972210 0.05395630 -0.01821506
v -0.03877264 0.04235831 -0.01823014
v -0.03670775 0.04416255 -0.01820284
v -0.03748887 0.04349623 -0.01204830
v -0.03142333 0.04821435 -0.00798023
v -0.02972859 0.04913322 0.00049910
v -0.03489249 0.04560826 0.00050043
v -0.03877264 0.04235831 -0.01823014
v -0.03748887 0.04349623 -0.01204830
v -0.03855592 0.04253742 -0.01492393
v -0.04022759 0.04095623 -0.01818203
v -0.03877264 0.04235831 -0.01823014
v -0.03855592 0.04253742 -0.01492393
v -0.01972210 0.05395630 -0.01821506
v -0.01600342 0.05538050 -0.01510411
v -0.02107906 0.05367652 -0.01390618
v -0.03301846 0.04699538 -0.01816439
v -0.01721847 0.05511991 -0.01044929
v -0.01600342 0.05538050 -0.01510411
v -0.01434439 0.05596272 -0.01012212
v -0.02157187 0.05344901 -0.00472850
v -0.01932132 0.05437664 -0.00719356
v -0.01869970 0.05447105 -0.00294042
v -0.02489382 0.05200515 -0.01043200
v -0.02426820 0.05223152 -0.01501739
v -0.02201795 0.05332753 -0.01006186
v -0.01932132 0.05437664 -0.00719356
v -0.01721847 0.05511991 -0.01044929
v -0.01589727 0.05544344 -0.00424045
v -0.03417950 0.04624275 -0.01417082
v -0.03142333 0.04821435 -0.00798023
v -0.03489249 0.04560826 0.00050043
v -0.03155636 0.09045336 -0.01721471
v -0.03183424 0.08979002 -0.01783454
v -0.03202807 0.08905849 -0.01822537
v -0.03912073 0.04589603 -0.01839739
v -0.04027009 0.04113797 -0.01836973
v -0.04022759 0.04095623 -0.01818203
v -0.02928692 0.08103988 -0.01838290
v -0.02804172 0.07707677 -0.01834726
v -0.03346872 0.07717565 -0.01839751
v -0.02928692 0.08103988 -0.01838290
v -0.03346872 0.07717565 -0.01839751
v -0.03215897 0.08831218 -0.01838845
v -0.03718245 0.04395119 -0.01836717
v -0.04027009 0.04113797 -0.01836973
v -0.03912073 0.04589603 -0.01839739
v -0.03016299 0.08553049 -0.01837456
v -0.02928692 0.08103988 -0.01838290
v -0.03215897 0.08831218 -0.01838845
v -0.03368288 0.04666523 -0.01835352
v -0.03057682 0.08857784 -0.01833438
v -0.03016299 0.08553049 -0.01837456
v -0.03215897 0.08831218 -0.01838845
v -0.03708881 0.05533556 -0.01840144
v -0.03368288 0.04666523 -0.01835352
v -0.03912073 0.04589603 -0.01839739
v -0.03226459 0.04775361 -0.01838237
v -0.03368288 0.04666523 -0.01835352
v -0.03708881 0.05533556 -0.01840144
v -0.02702999 0.05092690 -0.01838630
v -0.03226459 0.04775361 -0.01838237
v -0.03708881 0.05533556 -0.01840144
v -0.02037549 0.06119118 -0.01837271
v -0.01712161 0.05510858 -0.01838207
v -0.02237522 0.05305842 -0.01836115
v -0.02037549 0.06119118 -0.01837271
v -0.01673823 0.05631778 -0.01837486
v -0.01712161 0.05510858 -0.01838207
v -0.02237522 0.05305842 -0.01836115
v -0.02702999 0.05092690 -0.01838630
v -0.02214163 0.06400827 -0.01836049
v -0.03483831 0.06781415 -0.01839619
v -0.02487069 0.06910733 -0.01834148
v -0.02214163 0.06400827 -0.01836049
v -0.03483831 0.06781415 -0.01839619
v -0.02670407 0.07333026 -0.01834386
v -0.02487069 0.06910733 -0.01834148
v -0.03483831 0.06781415 -0.01839619
v -0.03346872 0.07717565 -0.01839751
v -0.02804172 0.07707677 -0.01834726
v -0.01925534 0.06391010 -0.00121886
v -0.02041387 0.06570802 -0.00222552
v -0.01989454 0.06442681 0.00050004
v -0.01479357 0.05944643 -0.00139666
v -0.01480031 0.05926463 0.00050002
v -0.01295197 0.05808261 0.00050000
v -0.01479357 0.05944643 -0.00139666
v -0.01295197 0.05808261 0.00050000
v -0.01275724 0.05807797 -0.00165564
v -0.02960735 0.08776227 -0.01605540
v -0.02913194 0.09090099 -0.01317507
v -0.02841174 0.08762524 -0.01177567
v -0.02616775 0.07653848 -0.01287931
v -0.02837932 0.08102319 -0.01617342
v -0.02716416 0.08007315 -0.01268845
v -0.02485704 0.07295368 -0.01281964
v -0.02541369 0.07645938 -0.00864273
v -0.02427721 0.07290629 -0.00941878
v -0.02485704 0.07295368 -0.01281964
v -0.02616775 0.07653848 -0.01287931
v -0.02541369 0.07645938 -0.00864273
v -0.02878201 0.07979456 -0.01827645
v -0.02967113 0.08351609 -0.01826608
v -0.02837932 0.08102319 -0.01617342
v -0.02140969 0.06747941 -0.00334489
v -0.02292490 0.07043651 -0.00558227
v -0.02286690 0.07026104 -0.00233662
v -0.02640146 0.07996324 -0.00869501
v -0.02721107 0.08383581 -0.00868654
v -0.02681827 0.08376572 -0.00551951
v -0.02640146 0.07996324 -0.00869501
v -0.02681827 0.08376572 -0.00551951
v -0.02610594 0.08014527 -0.00554198
v -0.02247124 0.06904105 -0.00896168
v -0.02401036 0.07295159 -0.00665927
v -0.02292490 0.07043651 -0.00558227
v -0.02703863 0.07613382 -0.01648110
v -0.02837932 0.08102319 -0.01617342
v -0.02616775 0.07653848 -0.01287931
v -0.02960735 0.08776227 -0.01605540
v -0.02997237 0.09083930 -0.01608026
v -0.02913194 0.09090099 -0.01317507
v -0.02163225 0.06780854 -0.00690520
v -0.02292490 0.07043651 -0.00558227
v -0.02140969 0.06747941 -0.00334489
v -0.02797240 0.08388070 -0.01254743
v -0.02841174 0.08762524 -0.01177567
v -0.02780354 0.08724639 -0.00893575
v -0.02721107 0.08383581 -0.00868654
v -0.02414304 0.07352767 -0.00226641
v -0.02523064 0.07653192 0.00050002
v -0.02371037 0.07172540 0.00049996
v -0.02495992 0.07610485 -0.00233328
v -0.01916873 0.06404683 -0.00380284
v -0.02041387 0.06570802 -0.00222552
v -0.01925534 0.06391010 -0.00121886
v -0.02107501 0.06391105 -0.01619488
v -0.02294355 0.06560359 -0.01823300
v -0.02278447 0.06654916 -0.01642614
v -0.02107501 0.06391105 -0.01619488
v -0.02214163 0.06400827 -0.01836049
v -0.02294355 0.06560359 -0.01823300
v -0.02061313 0.06614158 -0.00649929
v -0.02140969 0.06747941 -0.00334489
v -0.02041387 0.06570802 -0.00222552
v -0.02247124 0.06904105 -0.00896168
v -0.02427721 0.07290629 -0.00941878
v -0.02401036 0.07295159 -0.00665927
v -0.02905035 0.08586213 -0.01516664
v -0.02960735 0.08776227 -0.01605540
v -0.02841174 0.08762524 -0.01177567
v -0.02703863 0.07613382 -0.01648110
v -0.02878201 0.07979456 -0.01827645
v -0.02837932 0.08102319 -0.01617342
v -0.02163225 0.06780854 -0.00690520
v -0.02247124 0.06904105 -0.00896168
v -0.02292490 0.07043651 -0.00558227
v -0.02509635 0.07631430 -0.00556129
v -0.02610594 0.08014527 -0.00554198
v -0.02588707 0.07977102 -0.00215810
v -0.02509635 0.07631430 -0.00556129
v -0.02588707 0.07977102 -0.00215810
v -0.02495992 0.07610485 -0.00233328
v -0.01768153 0.05883339 -0.01683181
v -0.01643419 0.05853478 -0.01495856
v -0.01595366 0.05685506 -0.01674085
v -0.01768153 0.05883339 -0.01683181
v -0.01595366 0.05685506 -0.01674085
v -0.01673823 0.05631778 -0.01837486
v -0.01768153 0.05883339 -0.01683181
v -0.01673823 0.05631778 -0.01837486
v -0.02037549 0.06119118 -0.01837271
v -0.02061313 0.06614158 -0.00649929
v -0.02163225 0.06780854 -0.00690520
v -0.02140969 0.06747941 -0.00334489
v -0.02960735 0.08776227 -0.01605540
v -0.03046858 0.08999852 -0.01764750
v -0.02997237 0.09083930 -0.01608026
v -0.01849669 0.06271193 0.00049806
v -0.01702016 0.06113628 0.00049862
v -0.01611799 0.06072233 -0.00392193
v -0.01730412 0.06185452 -0.00390893
v -0.01916873 0.06404683 -0.00380284
v -0.01925534 0.06391010 -0.00121886
v -0.01730412 0.06185452 -0.00390893
v -0.01925534 0.06391010 -0.00121886
v -0.01849669 0.06271193 0.00049806
v -0.02804172 0.07707677 -0.01834726
v -0.02878201 0.07979456 -0.01827645
v -0.02703863 0.07613382 -0.01648110
v -0.01907581 0.06391266 -0.00602758
v -0.01730412 0.06185452 -0.00390893
v -0.01717078 0.06163761 -0.00673091
v -0.01479357 0.05944643 -0.00139666
v -0.01611799 0.06072233 -0.00392193
v -0.01702016 0.06113628 0.00049862
v -0.01730412 0.06185452 -0.00390893
v -0.01849669 0.06271193 0.00049806
v -0.01611799 0.06072233 -0.00392193
v -0.01916873 0.06404683 -0.00380284
v -0.02061313 0.06614158 -0.00649929
v -0.02041387 0.06570802 -0.00222552
v -0.02286690 0.07026104 -0.00233662
v -0.02414304 0.07352767 -0.00226641
v -0.02371037 0.07172540 0.00049996
v -0.02290785 0.06910906 -0.01162195
v -0.02485704 0.07295368 -0.01281964
v -0.02427721 0.07290629 -0.00941878
v -0.02290785 0.06910906 -0.01162195
v -0.02427721 0.07290629 -0.00941878
v -0.02247124 0.06904105 -0.00896168
v -0.01926529 0.06389693 -0.00884432
v -0.02072376 0.06586782 -0.00953269
v -0.01907581 0.06391266 -0.00602758
v -0.01926529 0.06389693 -0.00884432
v -0.01717078 0.06163761 -0.00673091
v -0.01811188 0.06219384 -0.01011580
v -0.01926529 0.06389693 -0.00884432
v -0.01907581 0.06391266 -0.00602758
v -0.01717078 0.06163761 -0.00673091
v -0.01449704 0.05933080 -0.00402969
v -0.01611799 0.06072233 -0.00392193
v -0.01479357 0.05944643 -0.00139666
v -0.02703863 0.07613382 -0.01648110
v -0.02616775 0.07653848 -0.01287931
v -0.02485704 0.07295368 -0.01281964
v -0.03057682 0.08857784 -0.01833438
v -0.03046858 0.08999852 -0.01764750
v -0.02960735 0.08776227 -0.01605540
v -0.02716416 0.08007315 -0.01268845
v -0.02721107 0.08383581 -0.00868654
v -0.02640146 0.07996324 -0.00869501
v -0.02716416 0.08007315 -0.01268845
v -0.02797240 0.08388070 -0.01254743
v -0.02721107 0.08383581 -0.00868654
v -0.01907581 0.06391266 -0.00602758
v -0.02061313 0.06614158 -0.00649929
v -0.01916873 0.06404683 -0.00380284
v -0.01611799 0.06072233 -0.00392193
v -0.01717078 0.06163761 -0.00673091
v -0.01730412 0.06185452 -0.00390893
v -0.01967984 0.06394223 -0.01117444
v -0.02072376 0.06586782 -0.00953269
v -0.01926529 0.06389693 -0.00884432
v -0.02113592 0.06595776 -0.01168555
v -0.02797240 0.08388070 -0.01254743
v -0.02905035 0.08586213 -0.01516664
v -0.02841174 0.08762524 -0.01177567
v -0.01449704 0.05933080 -0.00402969
v -0.01479357 0.05944643 -0.00139666
v -0.01275724 0.05807797 -0.00165564
v -0.01449704 0.05933080 -0.00402969
v -0.01275724 0.05807797 -0.00165564
v -0.01277571 0.05805841 -0.00366378
v -0.02564710 0.07248864 -0.01644068
v -0.02703863 0.07613382 -0.01648110
v -0.02485704 0.07295368 -0.01281964
v -0.02714020 0.08757303 -0.00198674
v -0.02749961 0.09090552 -0.00267452
v -0.02741611 0.09090498 0.00049959
v -0.02714020 0.08757303 -0.00198674
v -0.02741611 0.09090498 0.00049959
v -0.02692830 0.08589319 0.00050000
v -0.01500642 0.05957219 -0.00669986
v -0.02670407 0.07333026 -0.01834386
v -0.02804172 0.07707677 -0.01834726
v -0.02703863 0.07613382 -0.01648110
v -0.01449704 0.05933080 -0.00402969
v -0.01277571 0.05805841 -0.00366378
v -0.01319617 0.05820600 -0.00661510
v -0.02072376 0.06586782 -0.00953269
v -0.02163225 0.06780854 -0.00690520
v -0.02061313 0.06614158 -0.00649929
v -0.02072376 0.06586782 -0.00953269
v -0.02247124 0.06904105 -0.00896168
v -0.02163225 0.06780854 -0.00690520
v -0.02337110 0.06915668 -0.01369506
v -0.02485704 0.07295368 -0.01281964
v -0.02290785 0.06910906 -0.01162195
v -0.01717078 0.06163761 -0.00673091
v -0.01500642 0.05957219 -0.00669986
v -0.01647830 0.06055615 -0.00934511
v -0.02541369 0.07645938 -0.00864273
v -0.02640146 0.07996324 -0.00869501
v -0.02610594 0.08014527 -0.00554198
v -0.02541369 0.07645938 -0.00864273
v -0.02610594 0.08014527 -0.00554198
v -0.02509635 0.07631430 -0.00556129
v -0.01967984 0.06394223 -0.01117444
v -0.01926529 0.06389693 -0.00884432
v -0.01811188 0.06219384 -0.01011580
v -0.01500642 0.05957219 -0.00669986
v -0.01611799 0.06072233 -0.00392193
v -0.01449704 0.05933080 -0.00402969
v -0.02738213 0.08756069 -0.00564235
v -0.02749961 0.09090552 -0.00267452
v -0.02714020 0.08757303 -0.00198674
v -0.01500642 0.05957219 -0.00669986
v -0.01449704 0.05933080 -0.00402969
v -0.01319617 0.05820600 -0.00661510
v -0.02113234 0.06518570 -0.01370728
v -0.02113592 0.06595776 -0.01168555
v -0.01967984 0.06394223 -0.01117444
v -0.01967984 0.06394223 -0.01117444
v -0.01811188 0.06219384 -0.01011580
v -0.01848357 0.06177912 -0.01299822
v -0.02401036 0.07295159 -0.00665927
v -0.02495992 0.07610485 -0.00233328
v -0.02414304 0.07352767 -0.00226641
v -0.01647830 0.06055615 -0.00934511
v -0.01811188 0.06219384 -0.01011580
v -0.01717078 0.06163761 -0.00673091
v -0.02401036 0.07295159 -0.00665927
v -0.02509635 0.07631430 -0.00556129
v -0.02495992 0.07610485 -0.00233328
v -0.02769196 0.09092394 -0.00511038
v -0.02749961 0.09090552 -0.00267452
v -0.02738213 0.08756069 -0.00564235
v -0.02113234 0.06518570 -0.01370728
v -0.01967984 0.06394223 -0.01117444
v -0.01848357 0.06177912 -0.01299822
v -0.02286690 0.07026104 -0.00233662
v -0.02371037 0.07172540 0.00049996
v -0.02190732 0.06770763 0.00049986
v -0.02113234 0.06518570 -0.01370728
v -0.02107501 0.06391105 -0.01619488
v -0.02278447 0.06654916 -0.01642614
v -0.01487118 0.05923692 -0.00838679
v -0.01647830 0.06055615 -0.00934511
v -0.01500642 0.05957219 -0.00669986
v -0.02564710 0.07248864 -0.01644068
v -0.02670407 0.07333026 -0.01834386
v -0.02703863 0.07613382 -0.01648110
v -0.01487118 0.05923692 -0.00838679
v -0.01500642 0.05957219 -0.00669986
v -0.01319617 0.05820600 -0.00661510
v -0.02663826 0.08388952 -0.00206840
v -0.02692830 0.08589319 0.00050000
v -0.02632606 0.08171884 0.00050000
v -0.02663826 0.08388952 -0.00206840
v -0.02714020 0.08757303 -0.00198674
v -0.02692830 0.08589319 0.00050000
v -0.01692122 0.06049154 -0.01145118
v -0.01811188 0.06219384 -0.01011580
v -0.01647830 0.06055615 -0.00934511
v -0.02072376 0.06586782 -0.00953269
v -0.02061313 0.06614158 -0.00649929
v -0.01907581 0.06391266 -0.00602758
v -0.01692122 0.06049154 -0.01145118
v -0.01848357 0.06177912 -0.01299822
v -0.01811188 0.06219384 -0.01011580
v -0.01487118 0.05923692 -0.00838679
v -0.01319617 0.05820600 -0.00661510
v -0.01346629 0.05785290 -0.00918281
v -0.02113592 0.06595776 -0.01168555
v -0.02247124 0.06904105 -0.00896168
v -0.02072376 0.06586782 -0.00953269
v -0.02113592 0.06595776 -0.01168555
v -0.02290785 0.06910906 -0.01162195
v -0.02247124 0.06904105 -0.00896168
v -0.01529288 0.05914066 -0.01052099
v -0.01647830 0.06055615 -0.00934511
v -0.01487118 0.05923692 -0.00838679
v -0.01692122 0.06049154 -0.01145118
v -0.01529288 0.05914066 -0.01052099
v -0.01487118 0.05923692 -0.00838679
v -0.01346629 0.05785290 -0.00918281
v -0.01848357 0.06177912 -0.01299822
v -0.01692122 0.06049154 -0.01145118
v -0.01724779 0.05998084 -0.01383578
v -0.02456736 0.07002035 -0.01648390
v -0.02485704 0.07295368 -0.01281964
v -0.02337110 0.06915668 -0.01369506
v -0.02456736 0.07002035 -0.01648390
v -0.02564710 0.07248864 -0.01644068
v -0.02485704 0.07295368 -0.01281964
v -0.01968365 0.06166611 -0.01651608
v -0.02107501 0.06391105 -0.01619488
v -0.01848357 0.06177912 -0.01299822
v -0.01529288 0.05914066 -0.01052099
v -0.01346629 0.05785290 -0.00918281
v -0.01413398 0.05770538 -0.01166707
v -0.02780354 0.08724639 -0.00893575
v -0.02769196 0.09092394 -0.00511038
v -0.02738213 0.08756069 -0.00564235
v -0.02780354 0.08724639 -0.00893575
v -0.02817440 0.09084925 -0.00890154
v -0.02769196 0.09092394 -0.00511038
v -0.01573002 0.05890516 -0.01252704
v -0.01692122 0.06049154 -0.01145118
v -0.01529288 0.05914066 -0.01052099
v -0.01573002 0.05890516 -0.01252704
v -0.01724779 0.05998084 -0.01383578
v -0.01692122 0.06049154 -0.01145118
v -0.01573002 0.05890516 -0.01252704
v -0.01529288 0.05914066 -0.01052099
v -0.01413398 0.05770538 -0.01166707
v -0.01724779 0.05998084 -0.01383578
v -0.01968365 0.06166611 -0.01651608
v -0.01848357 0.06177912 -0.01299822
v -0.02837932 0.08102319 -0.01617342
v -0.02905035 0.08586213 -0.01516664
v -0.02797240 0.08388070 -0.01254743
v -0.02588707 0.07977102 -0.00215810
v -0.02663826 0.08388952 -0.00206840
v -0.02632606 0.08171884 0.00050000
v -0.01968365 0.06166611 -0.01651608
v -0.02214163 0.06400827 -0.01836049
v -0.02107501 0.06391105 -0.01619488
v -0.01968365 0.06166611 -0.01651608
v -0.02037549 0.06119118 -0.01837271
v -0.02214163 0.06400827 -0.01836049
v -0.01573002 0.05890516 -0.01252704
v -0.01413398 0.05770538 -0.01166707
v -0.01490861 0.05751279 -0.01389962
v -0.01768153 0.05883339 -0.01683181
v -0.01968365 0.06166611 -0.01651608
v -0.01724779 0.05998084 -0.01383578
v -0.01724779 0.05998084 -0.01383578
v -0.01643419 0.05853478 -0.01495856
v -0.01768153 0.05883339 -0.01683181
v -0.02967113 0.08351609 -0.01826608
v -0.02960735 0.08776227 -0.01605540
v -0.02905035 0.08586213 -0.01516664
v -0.02292490 0.07043651 -0.00558227
v -0.02414304 0.07352767 -0.00226641
v -0.02286690 0.07026104 -0.00233662
v -0.02292490 0.07043651 -0.00558227
v -0.02401036 0.07295159 -0.00665927
v -0.02414304 0.07352767 -0.00226641
v -0.02113234 0.06518570 -0.01370728
v -0.02290785 0.06910906 -0.01162195
v -0.02113592 0.06595776 -0.01168555
v -0.02337110 0.06915668 -0.01369506
v -0.01643419 0.05853478 -0.01495856
v -0.01490861 0.05751279 -0.01389962
v -0.01595366 0.05685506 -0.01674085
v -0.01768153 0.05883339 -0.01683181
v -0.02037549 0.06119118 -0.01837271
v -0.01968365 0.06166611 -0.01651608
v -0.02278447 0.06654916 -0.01642614
v -0.02456736 0.07002035 -0.01648390
v -0.02337110 0.06915668 -0.01369506
v -0.01907581 0.06391266 -0.00602758
v -0.01916873 0.06404683 -0.00380284
v -0.01730412 0.06185452 -0.00390893
v -0.02681827 0.08376572 -0.00551951
v -0.02738213 0.08756069 -0.00564235
v -0.02714020 0.08757303 -0.00198674
v -0.02681827 0.08376572 -0.00551951
v -0.02714020 0.08757303 -0.00198674
v -0.02663826 0.08388952 -0.00206840
v -0.01479357 0.05944643 -0.00139666
v -0.01702016 0.06113628 0.00049862
v -0.01480031 0.05926463 0.00050002
v -0.02401036 0.07295159 -0.00665927
v -0.02541369 0.07645938 -0.00864273
v -0.02509635 0.07631430 -0.00556129
v -0.02588707 0.07977102 -0.00215810
v -0.02632606 0.08171884 0.00050000
v -0.02523064 0.07653192 0.00050002
v -0.02967113 0.08351609 -0.01826608
v -0.03057682 0.08857784 -0.01833438
v -0.02960735 0.08776227 -0.01605540
v -0.02107501 0.06391105 -0.01619488
v -0.02113234 0.06518570 -0.01370728
v -0.01848357 0.06177912 -0.01299822
v -0.02456736 0.07002035 -0.01648390
v -0.02670407 0.07333026 -0.01834386
v -0.02564710 0.07248864 -0.01644068
v -0.02487069 0.06910733 -0.01834148
v -0.02670407 0.07333026 -0.01834386
v -0.02456736 0.07002035 -0.01648390
v -0.02841174 0.08762524 -0.01177567
v -0.02817440 0.09084925 -0.00890154
v -0.02780354 0.08724639 -0.00893575
v -0.02616775 0.07653848 -0.01287931
v -0.02716416 0.08007315 -0.01268845
v -0.02640146 0.07996324 -0.00869501
v -0.01643419 0.05853478 -0.01495856
v -0.01573002 0.05890516 -0.01252704
v -0.01490861 0.05751279 -0.01389962
v -0.02616775 0.07653848 -0.01287931
v -0.02640146 0.07996324 -0.00869501
v -0.02541369 0.07645938 -0.00864273
v -0.01724779 0.05998084 -0.01383578
v -0.01573002 0.05890516 -0.01252704
v -0.01643419 0.05853478 -0.01495856
v -0.02837932 0.08102319 -0.01617342
v -0.02797240 0.08388070 -0.01254743
v -0.02716416 0.08007315 -0.01268845
v -0.02140969 0.06747941 -0.00334489
v -0.02286690 0.07026104 -0.00233662
v -0.02190732 0.06770763 0.00049986
v -0.02278447 0.06654916 -0.01642614
v -0.02337110 0.06915668 -0.01369506
v -0.02113234 0.06518570 -0.01370728
v -0.02967113 0.08351609 -0.01826608
v -0.02905035 0.08586213 -0.01516664
v -0.02837932 0.08102319 -0.01617342
v -0.02841174 0.08762524 -0.01177567
v -0.02913194 0.09090099 -0.01317507
v -0.02817440 0.09084925 -0.00890154
v -0.02278447 0.06654916 -0.01642614
v -0.02487069 0.06910733 -0.01834148
v -0.02456736 0.07002035 -0.01648390
v -0.02427721 0.07290629 -0.00941878
v -0.02541369 0.07645938 -0.00864273
v -0.02401036 0.07295159 -0.00665927
v -0.02041387 0.06570802 -0.00222552
v -0.02190732 0.06770763 0.00049986
v -0.01989454 0.06442681 0.00050004
v -0.02721107 0.08383581 -0.00868654
v -0.02738213 0.08756069 -0.00564235
v -0.02681827 0.08376572 -0.00551951
v -0.02294355 0.06560359 -0.01823300
v -0.02487069 0.06910733 -0.01834148
v -0.02278447 0.06654916 -0.01642614
v -0.02610594 0.08014527 -0.00554198
v -0.02681827 0.08376572 -0.00551951
v -0.02663826 0.08388952 -0.00206840
v -0.02610594 0.08014527 -0.00554198
v -0.02663826 0.08388952 -0.00206840
v -0.02588707 0.07977102 -0.00215810
v -0.02495992 0.07610485 -0.00233328
v -0.02588707 0.07977102 -0.00215810
v -0.02523064 0.07653192 0.00050002
v -0.01849669 0.06271193 0.00049806
v -0.01925534 0.06391010 -0.00121886
v -0.01989454 0.06442681 0.00050004
v -0.02041387 0.06570802 -0.00222552
v -0.02140969 0.06747941 -0.00334489
v -0.02190732 0.06770763 0.00049986
v -0.02721107 0.08383581 -0.00868654
v -0.02780354 0.08724639 -0.00893575
v -0.02738213 0.08756069 -0.00564235
v -0.03057682 0.08857784 -0.01833438
v -0.03202807 0.08905849 -0.01822537
v -0.03071177 0.08917269 -0.01819080
v -0.03036671 0.09064851 -0.01691216
v -0.03155636 0.09045336 -0.01721471
v -0.03107285 0.09102640 -0.01591759
v -0.03036671 0.09064851 -0.01691216
v -0.03107285 0.09102640 -0.01591759
v -0.03002637 0.09102670 -0.01580661
v -0.03046858 0.08999852 -0.01764750
v -0.03155636 0.09045336 -0.01721471
v -0.03036671 0.09064851 -0.01691216
v -0.03046858 0.08999852 -0.01764750
v -0.03183424 0.08979002 -0.01783454
v -0.03155636 0.09045336 -0.01721471
v -0.03071177 0.08917269 -0.01819080
v -0.03202807 0.08905849 -0.01822537
v -0.03183424 0.08979002 -0.01783454
v -0.03071177 0.08917269 -0.01819080
v -0.03183424 0.08979002 -0.01783454
v -0.03046858 0.08999852 -0.01764750
v -0.03057682 0.08857784 -0.01833438
v -0.03215897 0.08831218 -0.01838845
v -0.03202807 0.08905849 -0.01822537
v -0.01243501 0.05698362 -0.00115478
v -0.01253849 0.05714402 -0.00361884
v -0.01249063 0.05755356 -0.00227523
v -0.01588124 0.05615637 -0.01680392
v -0.01669085 0.05568335 -0.01831144
v -0.01673823 0.05631778 -0.01837486
v -0.01588124 0.05615637 -0.01680392
v -0.01673823 0.05631778 -0.01837486
v -0.01595366 0.05685506 -0.01674085
v -0.01243501 0.05698362 -0.00115478
v -0.01266855 0.05662695 -0.00344682
v -0.01253849 0.05714402 -0.00361884
v -0.01601624 0.05565372 -0.01663565
v -0.01703256 0.05500165 -0.01822412
v -0.01669085 0.05568335 -0.01831144
v -0.01601624 0.05565372 -0.01663565
v -0.01669085 0.05568335 -0.01831144
v -0.01588124 0.05615637 -0.01680392
v -0.01480895 0.05690197 -0.01428121
v -0.01595366 0.05685506 -0.01674085
v -0.01490861 0.05751279 -0.01389962
v -0.01455909 0.05623356 -0.01310884
v -0.01395297 0.05697588 -0.01168084
v -0.01340514 0.05670020 -0.00917327
v -0.01480895 0.05690197 -0.01428121
v -0.01588124 0.05615637 -0.01680392
v -0.01595366 0.05685506 -0.01674085
v -0.01455909 0.05623356 -0.01310884
v -0.01588124 0.05615637 -0.01680392
v -0.01480895 0.05690197 -0.01428121
v -0.01455909 0.05623356 -0.01310884
v -0.01601624 0.05565372 -0.01663565
v -0.01588124 0.05615637 -0.01680392
v -0.01455909 0.05623356 -0.01310884
v -0.01703256 0.05500165 -0.01822412
v -0.01601624 0.05565372 -0.01663565
v -0.01340514 0.05670020 -0.00917327
v -0.01266855 0.05662695 -0.00344682
v -0.01330012 0.05621979 -0.00565749
v -0.01413398 0.05770538 -0.01166707
v -0.01480895 0.05690197 -0.01428121
v -0.01490861 0.05751279 -0.01389962
v -0.01395297 0.05697588 -0.01168084
v -0.01480895 0.05690197 -0.01428121
v -0.01413398 0.05770538 -0.01166707
v -0.01249063 0.05755356 -0.00227523
v -0.01277571 0.05805841 -0.00366378
v -0.01275724 0.05807797 -0.00165564
v -0.01395297 0.05697588 -0.01168084
v -0.01455909 0.05623356 -0.01310884
v -0.01480895 0.05690197 -0.01428121
v -0.01392287 0.05620101 -0.00987244
v -0.01703256 0.05500165 -0.01822412
v -0.01455909 0.05623356 -0.01310884
v -0.01434439 0.05596272 -0.01012212
v -0.01703256 0.05500165 -0.01822412
v -0.01392287 0.05620101 -0.00987244
v -0.01434439 0.05596272 -0.01012212
v -0.01600342 0.05538050 -0.01510411
v -0.01703256 0.05500165 -0.01822412
v -0.01364356 0.05738709 -0.01044213
v -0.01340514 0.05670020 -0.00917327
v -0.01395297 0.05697588 -0.01168084
v -0.01315516 0.05728278 -0.00835770
v -0.01288563 0.05697617 -0.00653577
v -0.01340514 0.05670020 -0.00917327
v -0.01288563 0.05697617 -0.00653577
v -0.01315516 0.05728278 -0.00835770
v -0.01276320 0.05758563 -0.00590831
v -0.01276320 0.05758563 -0.00590831
v -0.01319617 0.05820600 -0.00661510
v -0.01277571 0.05805841 -0.00366378
v -0.01288563 0.05697617 -0.00653577
v -0.01266855 0.05662695 -0.00344682
v -0.01340514 0.05670020 -0.00917327
v -0.01330012 0.05621979 -0.00565749
v -0.01266855 0.05662695 -0.00344682
v -0.01284062 0.05612860 0.00049760
v -0.01253849 0.05714402 -0.00361884
v -0.01288563 0.05697617 -0.00653577
v -0.01276320 0.05758563 -0.00590831
v -0.01266855 0.05662695 -0.00344682
v -0.01288563 0.05697617 -0.00653577
v -0.01253849 0.05714402 -0.00361884
v -0.01249063 0.05755356 -0.00227523
v -0.01276320 0.05758563 -0.00590831
v -0.01277571 0.05805841 -0.00366378
v -0.01253849 0.05714402 -0.00361884
v -0.01276320 0.05758563 -0.00590831
v -0.01249063 0.05755356 -0.00227523
v -0.01364356 0.05738709 -0.01044213
v -0.01315516 0.05728278 -0.00835770
v -0.01340514 0.05670020 -0.00917327
v -0.01364356 0.05738709 -0.01044213
v -0.01346629 0.05785290 -0.00918281
v -0.01315516 0.05728278 -0.00835770
v -0.01275724 0.05807797 -0.00165564
v -0.01295197 0.05808261 0.00050000
v -0.01255548 0.05758980 0.00049999
v -0.01249063 0.05755356 -0.00227523
v -0.01275724 0.05807797 -0.00165564
v -0.01255548 0.05758980 0.00049999
v -0.01346629 0.05785290 -0.00918281
v -0.01276320 0.05758563 -0.00590831
v -0.01315516 0.05728278 -0.00835770
v -0.01243501 0.05698362 -0.00115478
v -0.01249063 0.05755356 -0.00227523
v -0.01255548 0.05758980 0.00049999
v -0.01243501 0.05698362 -0.00115478
v -0.01255548 0.05758980 0.00049999
v -0.01248306 0.05673764 0.00050023
v -0.01248306 0.05673764 0.00050023
v -0.01266855 0.05662695 -0.00344682
v -0.01243501 0.05698362 -0.00115478
v -0.01284062 0.05612860 0.00049760
v -0.01266855 0.05662695 -0.00344682
v -0.01248306 0.05673764 0.00050023
v -0.01703256 0.05500165 -0.01822412
v -0.01600342 0.05538050 -0.01510411
v -0.01753562 0.05470267 -0.01821506
v -0.01346629 0.05785290 -0.00918281
v -0.01364356 0.05738709 -0.01044213
v -0.01413398 0.05770538 -0.01166707
v -0.01330012 0.05621979 -0.00565749
v -0.01364356 0.05738709 -0.01044213
v -0.01346629 0.05785290 -0.00918281
v -0.01319617 0.05820600 -0.00661510
v -0.01276320 0.05758563 -0.00590831
v -0.01330012 0.05621979 -0.00565749
v -0.01284062 0.05612860 0.00049760
v -0.01325923 0.05587373 0.00049964
v -0.01455909 0.05623356 -0.01310884
v -0.01340514 0.05670020 -0.00917327
v -0.01392287 0.05620101 -0.00987244
v -0.01340514 0.05670020 -0.00917327
v -0.01330012 0.05621979 -0.00565749
v -0.01392287 0.05620101 -0.00987244
v -0.02363145 0.05235348 -0.01818692
v -0.02696532 0.05070708 -0.01815927
v -0.02613985 0.05124990 -0.01831120
v -0.02996045 0.04901413 -0.01823681
v -0.02613985 0.05124990 -0.01831120
v -0.02696532 0.05070708 -0.01815927
v -0.02996045 0.04901413 -0.01823681
v -0.02702999 0.05092690 -0.01838630
v -0.02613985 0.05124990 -0.01831120
v -0.02996045 0.04901413 -0.01823681
v -0.03226459 0.04775361 -0.01838237
v -0.02702999 0.05092690 -0.01838630
v -0.03368288 0.04666523 -0.01835352
v -0.03226459 0.04775361 -0.01838237
v -0.02996045 0.04901413 -0.01823681
v -0.03301846 0.04699538 -0.01816439
v -0.03368288 0.04666523 -0.01835352
v -0.02996045 0.04901413 -0.01823681
v -0.02237522 0.05305842 -0.01836115
v -0.01712161 0.05510858 -0.01838207
v -0.01972210 0.05395630 -0.01821506
v -0.01972210 0.05395630 -0.01821506
v -0.01712161 0.05510858 -0.01838207
v -0.01753562 0.05470267 -0.01821506
v -0.02237522 0.05305842 -0.01836115
v -0.02613985 0.05124990 -0.01831120
v -0.02702999 0.05092690 -0.01838630
v -0.03718245 0.04395119 -0.01836717
v -0.03670775 0.04416255 -0.01820284
v -0.03877264 0.04235831 -0.01823014
v -0.04027009 0.04113797 -0.01836973
v -0.03718245 0.04395119 -0.01836717
v -0.03877264 0.04235831 -0.01823014
v -0.04027009 0.04113797 -0.01836973
v -0.03877264 0.04235831 -0.01823014
v -0.04022759 0.04095623 -0.01818203
v -0.03718245 0.04395119 -0.01836717
v -0.03368288 0.04666523 -0.01835352
v -0.03301846 0.04699538 -0.01816439
v -0.03718245 0.04395119 -0.01836717
v -0.03301846 0.04699538 -0.01816439
v -0.03670775 0.04416255 -0.01820284
v -0.02363145 0.05235348 -0.01818692
v -0.02237522 0.05305842 -0.01836115
v -0.01972210 0.05395630 -0.01821506
v -0.02237522 0.05305842 -0.01836115
v -0.02363145 0.05235348 -0.01818692
v -0.02613985 0.05124990 -0.01831120
v -0.01712161 0.05510858 -0.01838207
v -0.01669085 0.05568335 -0.01831144
v -0.01703256 0.05500165 -0.01822412
v -0.01712161 0.05510858 -0.01838207
v -0.01673823 0.05631778 -0.01837486
v -0.01669085 0.05568335 -0.01831144
v -0.01712161 0.05510858 -0.01838207
v -0.01703256 0.05500165 -0.01822412
v -0.01753562 0.05470267 -0.01821506
v -0.02967113 0.08351609 -0.01826608
v -0.02878201 0.07979456 -0.01827645
v -0.02928692 0.08103988 -0.01838290
v -0.03016299 0.08553049 -0.01837456
v -0.03057682 0.08857784 -0.01833438
v -0.02967113 0.08351609 -0.01826608
v -0.02928692 0.08103988 -0.01838290
v -0.03016299 0.08553049 -0.01837456
v -0.02967113 0.08351609 -0.01826608
v -0.02294355 0.06560359 -0.01823300
v -0.02214163 0.06400827 -0.01836049
v -0.02487069 0.06910733 -0.01834148
v -0.02928692 0.08103988 -0.01838290
v -0.02878201 0.07979456 -0.01827645
v -0.02804172 0.07707677 -0.01834726
v -0.03046858 0.08999852 -0.01764750
v -0.03057682 0.08857784 -0.01833438
v -0.03071177 0.08917269 -0.01819080
v -0.02997237 0.09083930 -0.01608026
v -0.03046858 0.08999852 -0.01764750
v -0.03036671 0.09064851 -0.01691216
v -0.03002637 0.09102670 -0.01580661
v -0.02997237 0.09083930 -0.01608026
v -0.03036671 0.09064851 -0.01691216
v -0.02872622 0.09102568 -0.01101011
v -0.02913194 0.09090099 -0.01317507
v -0.03002637 0.09102670 -0.01580661
v -0.02816301 0.09102825 -0.00793403
v -0.02817440 0.09084925 -0.00890154
v -0.02872622 0.09102568 -0.01101011
v -0.02769196 0.09092394 -0.00511038
v -0.02817440 0.09084925 -0.00890154
v -0.02816301 0.09102825 -0.00793403
v -0.02769196 0.09092394 -0.00511038
v -0.02816301 0.09102825 -0.00793403
v -0.02761298 0.09103689 -0.00209862
v -0.02749961 0.09090552 -0.00267452
v -0.02769196 0.09092394 -0.00511038
v -0.02761298 0.09103689 -0.00209862
v -0.02749961 0.09090552 -0.00267452
v -0.02761298 0.09103689 -0.00209862
v -0.02741611 0.09090498 0.00049959
v -0.02762210 0.09104029 0.00049996
v -0.02741611 0.09090498 0.00049959
v -0.02761298 0.09103689 -0.00209862
v -0.02997237 0.09083930 -0.01608026
v -0.03002637 0.09102670 -0.01580661
v -0.02913194 0.09090099 -0.01317507
v -0.02872622 0.09102568 -0.01101011
v -0.02817440 0.09084925 -0.00890154
v -0.02913194 0.09090099 -0.01317507
v -0.02816766 0.09104273 -0.00043371
v -0.02811545 0.09104064 0.00050000
v -0.02811545 0.09104082 0.00050000
vn 0.00006912 -0.00268104 0.99999640
vn 0.00006912 -0.00268104 0.99999640
vn 0.00006912 -0.00268104 0.99999640
vn 0.00043562 0.00032213 0.99999985
vn 0.00043562 0.00032213 0.99999985
vn 0.00043562 0.00032213 0.99999985
vn 0.01166372 -0.01116198 0.99986968
vn 0.01166372 -0.01116198 0.99986968
vn 0.01166372 -0.01116198 0.99986968
vn 0.01756116 0.99983545 -0.00454740
vn 0.01769523 0.99983422 -0.00428999
vn 0.01765935 0.99983456 -0.00435887
vn -0.00291019 0.99999500 0.00124101
vn 0.00107238 0.99999746 0.00198280
vn 0.00107238 0.99999746 0.00198280
vn 0.00007137 0.99999413 -0.00342552
vn 0.00007137 0.99999413 -0.00342552
vn 0.00007137 0.99999413 -0.00342552
vn -0.00438193 0.99998993 0.00096687
vn -0.00438193 0.99998993 0.00096687
vn 0.00791647 0.99996798 -0.00117252
vn 0.01096138 0.99993730 -0.00229215
vn 0.00683739 0.99997587 -0.00123043
vn 0.00666801 0.99997694 -0.00128687
vn 0.01364408 0.99990507 -0.00191909
vn 0.01399345 0.99990039 -0.00184393
vn 0.01779728 0.99983323 -0.00409405
vn 0.45053218 -0.89259053 0.01740423
vn 0.45053218 -0.89259053 0.01740423
vn 0.45053218 -0.89259053 0.01740423
vn 0.39925079 -0.91573811 0.04497235
vn 0.39925079 -0.91573811 0.04497235
vn 0.39925079 -0.91573811 0.04497235
vn 0.52092314 -0.85356382 -0.00823936
vn 0.52103158 -0.85348911 -0.00907935
vn 0.52137290 -0.85324815 -0.01174252
vn 0.47041569 -0.88242274 0.00625999
vn 0.47041569 -0.88242274 0.00625999
vn 0.47041569 -0.88242274 0.00625999
vn 0.45539413 -0.88993255 -0.02522383
vn 0.45539413 -0.88993255 -0.02522383
vn 0.45539413 -0.88993255 -0.02522383
vn 0.69104470 -0.72280829 0.00232379
vn 0.69104470 -0.72280829 0.00232379
vn 0.69104470 -0.72280829 0.00232379
vn 0.61949464 -0.78500015 -0.00107370
vn 0.61949464 -0.78500015 -0.00107370
vn 0.61949464 -0.78500015 -0.00107370
vn 0.34401982 -0.93892961 0.00784585
vn 0.34401982 -0.93892961 0.00784585
vn 0.34401982 -0.93892961 0.00784585
vn 0.44249584 -0.89511576 0.05445369
vn 0.44249584 -0.89511576 0.05445369
vn 0.44249584 -0.89511576 0.05445369
vn 0.49852168 -0.86685063 0.00679151
vn 0.49852168 -0.86685063 0.00679151
vn 0.49852168 -0.86685063 0.00679151
vn 0.37172685 -0.92828886 -0.00994673
vn 0.37172685 -0.92828886 -0.00994673
vn 0.37172685 -0.92828886 -0.00994673
vn 0.52055888 -0.85380845 -0.00543871
vn 0.45072249 -0.89149684 0.04563570
vn 0.45072249 -0.89149684 0.04563570
vn 0.45072249 -0.89149684 0.04563570
vn 0.32485295 -0.94522706 0.03188049
vn 0.32485295 -0.94522706 0.03188049
vn 0.32485295 -0.94522706 0.03188049
vn 0.25514929 -0.96537199 -0.05436694
vn 0.25514929 -0.96537199 -0.05436694
vn 0.25514929 -0.96537199 -0.05436694
vn 0.35967231 -0.93307341 0.00313636
vn 0.35967231 -0.93307341 0.00313636
vn 0.35967231 -0.93307341 0.00313636
vn 0.25782007 -0.96457302 -0.05592586
vn 0.25782007 -0.96457302 -0.05592586
vn 0.25782007 -0.96457302 -0.05592586
vn 0.32269557 -0.94533317 0.04704006
vn 0.32269557 -0.94533317 0.04704006
vn 0.32269557 -0.94533317 0.04704006
vn 0.30717887 -0.94966805 -0.06141442
vn 0.30717887 -0.94966805 -0.06141442
vn 0.30717887 -0.94966805 -0.06141442
vn 0.30333785 -0.95114437 -0.05753717
vn 0.30333785 -0.95114437 -0.05753717
vn 0.30333785 -0.95114437 -0.05753717
vn 0.48110841 -0.87610232 -0.03129569
vn 0.48110841 -0.87610232 -0.03129569
vn 0.48110841 -0.87610232 -0.03129569
vn 0.49999739 -0.86545017 0.03160068
vn 0.49999739 -0.86545017 0.03160068
vn 0.49999739 -0.86545017 0.03160068
vn 0.49076776 -0.87022656 0.04304343
vn 0.49076776 -0.87022656 0.04304343
vn 0.49076776 -0.87022656 0.04304343
vn 0.61710578 -0.78688017 -0.00024214
vn 0.61710578 -0.78688017 -0.00024214
vn 0.61710578 -0.78688017 -0.00024214
vn 0.63041798 -0.77624429 -0.00423925
vn 0.63041798 -0.77624429 -0.00423925
vn 0.63041798 -0.77624429 -0.00423925
vn 0.55117490 -0.83374637 0.03275998
vn 0.55117490 -0.83374637 0.03275998
vn 0.55117490 -0.83374637 0.03275998
vn 0.41925423 -0.90775483 -0.01438961
vn 0.41925423 -0.90775483 -0.01438961
vn 0.41925423 -0.90775483 -0.01438961
vn 0.40564701 -0.91401680 -0.00487898
vn 0.40564701 -0.91401680 -0.00487898
vn 0.40564701 -0.91401680 -0.00487898
vn 0.56926473 -0.82209931 0.00950731
vn 0.56925148 -0.82211053 0.00932910
vn 0.56918468 -0.82216644 0.00843459
vn 0.28209220 -0.95933287 -0.01021925
vn 0.28112276 -0.95961437 -0.01050006
vn 0.28161488 -0.95947161 -0.01035752
vn 0.35657166 -0.93344469 -0.03921310
vn 0.35657166 -0.93344469 -0.03921310
vn 0.35657166 -0.93344469 -0.03921310
vn 0.28244146 -0.95923117 -0.01011806
vn 0.31720083 -0.94802041 -0.02531675
vn 0.31720083 -0.94802041 -0.02531675
vn 0.31720083 -0.94802041 -0.02531675
vn 0.40781314 -0.91291224 0.01672395
vn 0.40781314 -0.91291224 0.01672395
vn 0.40781314 -0.91291224 0.01672395
vn 0.44713157 -0.89437549 -0.01287791
vn 0.44713157 -0.89437549 -0.01287791
vn 0.44713157 -0.89437549 -0.01287791
vn 0.63859820 -0.76954033 -0.00009412
vn 0.63815983 -0.76990290 -0.00124679
vn 0.63910156 -0.76912136 0.00123285
vn 0.60861289 -0.79299085 0.02749307
vn 0.60861289 -0.79299085 0.02749307
vn 0.60861289 -0.79299085 0.02749307
vn 0.39605110 -0.91696231 -0.04820415
vn 0.39605110 -0.91696231 -0.04820415
vn 0.39605110 -0.91696231 -0.04820415
vn 0.40263480 -0.91375628 -0.05417257
vn 0.40263480 -0.91375628 -0.05417257
vn 0.40263480 -0.91375628 -0.05417257
vn 0.63769743 -0.77028302 -0.00245961
vn 0.37904686 -0.92346854 0.05940817
vn 0.37904686 -0.92346854 0.05940817
vn 0.37904686 -0.92346854 0.05940817
vn 0.65796443 -0.75304641 0.00197875
vn 0.65796443 -0.75304641 0.00197875
vn 0.65796443 -0.75304641 0.00197875
vn 0.56363099 -0.82570157 -0.02317365
vn 0.56363099 -0.82570157 -0.02317365
vn 0.56363099 -0.82570157 -0.02317365
vn 0.67466190 -0.73811473 -0.00423732
vn 0.67466190 -0.73811473 -0.00423732
vn 0.67466190 -0.73811473 -0.00423732
vn 0.69377767 -0.72016025 -0.00646299
vn 0.69377767 -0.72016025 -0.00646299
vn 0.69377767 -0.72016025 -0.00646299
vn 0.32679687 -0.94417822 0.04160882
vn 0.32679687 -0.94417822 0.04160882
vn 0.32679687 -0.94417822 0.04160882
vn 0.56934591 -0.82202967 0.01060439
vn 0.27933356 -0.96000272 0.01917137
vn 0.27933356 -0.96000272 0.01917137
vn 0.27933356 -0.96000272 0.01917137
vn 0.35199055 -0.93550063 -0.03067937
vn 0.35199055 -0.93550063 -0.03067937
vn 0.35199055 -0.93550063 -0.03067937
vn 0.41647020 -0.90907091 0.01194330
vn 0.41647020 -0.90907091 0.01194330
vn 0.41647020 -0.90907091 0.01194330
vn 0.31037631 -0.95047024 -0.01651893
vn 0.31037631 -0.95047024 -0.01651893
vn 0.31037631 -0.95047024 -0.01651893
vn 0.59092562 -0.80670245 -0.00616992
vn 0.59092562 -0.80670245 -0.00616992
vn 0.59092562 -0.80670245 -0.00616992
vn -0.93187997 0.05537509 0.35851544
vn -0.93187997 0.05537509 0.35851544
vn -0.93187997 0.05537509 0.35851544
vn -0.88597607 0.21640126 0.41014253
vn -0.88597607 0.21640126 0.41014253
vn -0.88597607 0.21640126 0.41014253
vn 0.00914731 -0.00611830 -0.99993944
vn 0.00914731 -0.00611830 -0.99993944
vn 0.00914731 -0.00611830 -0.99993944
vn 0.00307642 0.00045171 -0.99999517
vn 0.00307642 0.00045171 -0.99999517
vn 0.00307642 0.00045171 -0.99999517
vn 0.00845560 -0.00711126 -0.99993896
vn 0.00785450 -0.00771034 -0.99993943
vn 0.00839835 -0.00716832 -0.99993904
vn 0.01311049 0.00441454 -0.99990431
vn 0.01311049 0.00441454 -0.99990431
vn 0.01311049 0.00441454 -0.99990431
vn 0.00899680 -0.00657187 -0.99993793
vn 0.03122894 0.01741802 -0.99936048
vn 0.03122894 0.01741802 -0.99936048
vn 0.03122894 0.01741802 -0.99936048
vn 0.00838332 -0.00223353 -0.99996236
vn 0.00838332 -0.00223353 -0.99996236
vn 0.00838332 -0.00223353 -0.99996236
vn -0.01236955 -0.01038529 -0.99986956
vn -0.01236955 -0.01038529 -0.99986956
vn -0.01236955 -0.01038529 -0.99986956
vn 0.00124462 -0.00059432 -0.99999905
vn 0.00055849 -0.00215979 -0.99999751
vn 0.00166676 -0.00012767 -0.99999860
vn -0.00054291 0.00211960 -0.99999761
vn -0.00379126 -0.00048936 -0.99999269
vn -0.00379126 -0.00048936 -0.99999269
vn 0.00631745 -0.00080186 -0.99997972
vn 0.00519245 0.00431644 -0.99997720
vn 0.00519245 0.00431644 -0.99997720
vn 0.00682232 -0.00309906 -0.99997193
vn 0.00682232 -0.00309906 -0.99997193
vn 0.00104832 0.00291497 -0.99999520
vn 0.00278716 -0.00008188 -0.99999611
vn 0.00467993 0.00623279 -0.99996962
vn 0.00467993 0.00623279 -0.99996962
vn 0.00467993 0.00623279 -0.99996962
vn 0.00684766 0.00086151 -0.99997618
vn 0.00526521 0.00172220 -0.99998466
vn 0.00653384 -0.00014862 -0.99997864
vn 0.00785137 -0.00013947 -0.99996917
vn 0.00930290 0.00241421 -0.99995381
vn 0.80172118 0.58506033 0.12226024
vn 0.80172118 0.58506033 0.12226024
vn 0.80172118 0.58506033 0.12226024
vn 0.53692604 0.83959711 0.08238396
vn 0.53692604 0.83959711 0.08238396
vn 0.53692604 0.83959711 0.08238396
vn 0.56138541 0.82610646 0.04893401
vn 0.56138541 0.82610646 0.04893401
vn 0.56138541 0.82610646 0.04893401
vn 0.95931584 0.09776064 -0.26486974
vn 0.95931584 0.09776064 -0.26486974
vn 0.95931584 0.09776064 -0.26486974
vn 0.92863773 0.27521253 -0.24877707
vn 0.92863773 0.27521253 -0.24877707
vn 0.92863773 0.27521253 -0.24877707
vn 0.93082841 0.33138592 -0.15408388
vn 0.93082841 0.33138592 -0.15408388
vn 0.93082841 0.33138592 -0.15408388
vn 0.92810731 0.33669851 -0.15890541
vn 0.92810731 0.33669851 -0.15890541
vn 0.92810731 0.33669851 -0.15890541
vn 0.92549798 0.22196797 -0.30689365
vn 0.92549798 0.22196797 -0.30689365
vn 0.92549798 0.22196797 -0.30689365
vn 0.88712449 0.46144062 0.00909350
vn 0.88712449 0.46144062 0.00909350
vn 0.88712449 0.46144062 0.00909350
vn 0.97217063 0.20349814 -0.11607225
vn 0.97217063 0.20349814 -0.11607225
vn 0.97217063 0.20349814 -0.11607225
vn 0.97589115 0.19264515 -0.10258806
vn 0.97589115 0.19264515 -0.10258806
vn 0.97589115 0.19264515 -0.10258806
vn 0.92288311 0.38353326 -0.03448200
vn 0.92288311 0.38353326 -0.03448200
vn 0.92288311 0.38353326 -0.03448200
vn 0.92834349 0.27059466 -0.25486645
vn 0.92834349 0.27059466 -0.25486645
vn 0.92834349 0.27059466 -0.25486645
vn 0.95405263 0.11092806 -0.27834969
vn 0.95405263 0.11092806 -0.27834969
vn 0.95405263 0.11092806 -0.27834969
vn 0.89430440 0.44722210 -0.01456124
vn 0.89430440 0.44722210 -0.01456124
vn 0.89430440 0.44722210 -0.01456124
vn 0.96997208 0.15365074 -0.18853545
vn 0.97036152 0.15248936 -0.18747138
vn 0.97000293 0.15355903 -0.18845142
vn 0.96965059 0.15460348 -0.18940826
vn 0.95223108 0.30179896 0.04661930
vn 0.95216531 0.30205279 0.04631780
vn 0.95237781 0.30123039 0.04729444
vn 0.95194211 0.30290949 0.04529970
vn 0.82426172 0.56328849 0.05743422
vn 0.82426172 0.56328849 0.05743422
vn 0.82426172 0.56328849 0.05743422
vn 0.80541273 0.49306061 -0.32894007
vn 0.80541273 0.49306061 -0.32894007
vn 0.80541273 0.49306061 -0.32894007
vn 0.81352294 0.43937796 -0.38095594
vn 0.81352294 0.43937796 -0.38095594
vn 0.81352294 0.43937796 -0.38095594
vn 0.86903761 0.49465167 0.00966242
vn 0.86903761 0.49465167 0.00966242
vn 0.86903761 0.49465167 0.00966242
vn 0.90617522 0.41223283 -0.09439584
vn 0.90617522 0.41223283 -0.09439584
vn 0.90617522 0.41223283 -0.09439584
vn 0.95245573 0.15709610 -0.26105342
vn 0.95245573 0.15709610 -0.26105342
vn 0.95245573 0.15709610 -0.26105342
vn 0.90475926 0.26887637 -0.33032737
vn 0.90475926 0.26887637 -0.33032737
vn 0.90475926 0.26887637 -0.33032737
vn 0.87892649 0.47079590 -0.07641620
vn 0.87892649 0.47079590 -0.07641620
vn 0.87892649 0.47079590 -0.07641620
vn 0.96637265 0.25484513 -0.03431991
vn 0.96637265 0.25484513 -0.03431991
vn 0.96637265 0.25484513 -0.03431991
vn 0.96889223 0.24621976 -0.02497345
vn 0.96889223 0.24621976 -0.02497345
vn 0.96889223 0.24621976 -0.02497345
vn 0.70670548 0.59999654 -0.37492869
vn 0.70670548 0.59999654 -0.37492869
vn 0.70670548 0.59999654 -0.37492869
vn 0.66303533 0.55604976 -0.50119139
vn 0.66303533 0.55604976 -0.50119139
vn 0.66303533 0.55604976 -0.50119139
vn 0.72083927 0.53819083 -0.43673950
vn 0.72083927 0.53819083 -0.43673950
vn 0.72083927 0.53819083 -0.43673950
vn 0.85374121 0.52067124 -0.00523563
vn 0.85374121 0.52067124 -0.00523563
vn 0.85374121 0.52067124 -0.00523563
vn 0.92979883 0.10745557 -0.35203328
vn 0.92979883 0.10745557 -0.35203328
vn 0.92979883 0.10745557 -0.35203328
vn 0.72705576 0.68134895 0.08457855
vn 0.72705576 0.68134895 0.08457855
vn 0.72705576 0.68134895 0.08457855
vn 0.76180886 0.64504812 0.05966730
vn 0.76180886 0.64504812 0.05966730
vn 0.76180886 0.64504812 0.05966730
vn 0.77833884 0.62139970 0.08972769
vn 0.77833884 0.62139970 0.08972769
vn 0.77833884 0.62139970 0.08972769
vn 0.89959534 0.25428895 -0.35505683
vn 0.89959534 0.25428895 -0.35505683
vn 0.89959534 0.25428895 -0.35505683
vn 0.76458935 0.64437839 -0.01340195
vn 0.76458935 0.64437839 -0.01340195
vn 0.76458935 0.64437839 -0.01340195
vn 0.63398068 0.77123311 0.05716628
vn 0.63398068 0.77123311 0.05716628
vn 0.63398068 0.77123311 0.05716628
vn 0.68999562 0.72233869 0.04618296
vn 0.68999562 0.72233869 0.04618296
vn 0.68999562 0.72233869 0.04618296
vn 0.80977649 0.58633608 0.02172641
vn 0.80977649 0.58633608 0.02172641
vn 0.80977649 0.58633608 0.02172641
vn 0.92833442 0.36073204 0.08981984
vn 0.92833442 0.36073204 0.08981984
vn 0.92833442 0.36073204 0.08981984
vn 0.89993398 0.41024181 -0.14771762
vn 0.89993398 0.41024181 -0.14771762
vn 0.89993398 0.41024181 -0.14771762
vn 0.90348428 0.40582986 -0.13790682
vn 0.90348428 0.40582986 -0.13790682
vn 0.90348428 0.40582986 -0.13790682
vn 0.81205107 0.58071008 -0.05786932
vn 0.81205107 0.58071008 -0.05786932
vn 0.81205107 0.58071008 -0.05786932
vn 0.78010778 0.61482346 -0.11586187
vn 0.78010778 0.61482346 -0.11586187
vn 0.78010778 0.61482346 -0.11586187
vn 0.75719059 0.65091045 -0.05457098
vn 0.75719059 0.65091045 -0.05457098
vn 0.75719059 0.65091045 -0.05457098
vn 0.65238099 0.75682244 0.04023490
vn 0.65238099 0.75682244 0.04023490
vn 0.65238099 0.75682244 0.04023490
vn 0.90909571 0.32811990 -0.25667551
vn 0.90909571 0.32811990 -0.25667551
vn 0.90909571 0.32811990 -0.25667551
vn 0.92803742 0.10244141 -0.35812332
vn 0.92803742 0.10244141 -0.35812332
vn 0.92803742 0.10244141 -0.35812332
vn 0.96306046 0.20172974 -0.17838068
vn 0.96306046 0.20172974 -0.17838068
vn 0.96306046 0.20172974 -0.17838068
vn 0.95956367 0.21060685 -0.18676808
vn 0.95956367 0.21060685 -0.18676808
vn 0.95956367 0.21060685 -0.18676808
vn 0.82317554 0.56778694 0.00013907
vn 0.82317554 0.56778694 0.00013907
vn 0.82317554 0.56778694 0.00013907
vn 0.69025330 0.72320044 -0.02305435
vn 0.69029600 0.72315874 -0.02308393
vn 0.69015349 0.72329790 -0.02298518
vn 0.81873690 0.55826851 -0.13418706
vn 0.81879196 0.55821207 -0.13408585
vn 0.81843189 0.55858074 -0.13474720
vn 0.81910591 0.55788982 -0.13350826
vn 0.94977075 0.16609957 -0.26522905
vn 0.94977075 0.16609957 -0.26522905
vn 0.94977075 0.16609957 -0.26522905
vn 0.55991127 0.82812259 0.02668990
vn 0.55991127 0.82812259 0.02668990
vn 0.55991127 0.82812259 0.02668990
vn 0.59619708 0.80272789 -0.01330301
vn 0.59619708 0.80272789 -0.01330301
vn 0.59619708 0.80272789 -0.01330301
vn 0.90733841 0.34368735 -0.24210745
vn 0.90733841 0.34368735 -0.24210745
vn 0.90733841 0.34368735 -0.24210745
vn 0.99445548 0.10185680 -0.02614369
vn 0.99445548 0.10185680 -0.02614369
vn 0.99445548 0.10185680 -0.02614369
vn 0.99511004 0.09685496 -0.01936805
vn 0.99511004 0.09685496 -0.01936805
vn 0.99511004 0.09685496 -0.01936805
vn 0.69036690 0.72308948 -0.02313308
vn 0.89268344 0.31843370 -0.31892984
vn 0.89268344 0.31843370 -0.31892984
vn 0.89268344 0.31843370 -0.31892984
vn 0.60004854 0.79866598 -0.04554559
vn 0.60004854 0.79866598 -0.04554559
vn 0.60004854 0.79866598 -0.04554559
vn 0.85888841 0.50633845 -0.07701995
vn 0.85888841 0.50633845 -0.07701995
vn 0.85888841 0.50633845 -0.07701995
vn 0.86962690 0.48990548 -0.06116924
vn 0.86962690 0.48990548 -0.06116924
vn 0.86962690 0.48990548 -0.06116924
vn 0.89817799 0.39567614 -0.19161602
vn 0.89817799 0.39567614 -0.19161602
vn 0.89817799 0.39567614 -0.19161602
vn 0.68665612 0.71781874 -0.11506358
vn 0.68665612 0.71781874 -0.11506358
vn 0.68665612 0.71781874 -0.11506358
vn 0.95754941 0.26837191 -0.10524087
vn 0.95754941 0.26837191 -0.10524087
vn 0.95754941 0.26837191 -0.10524087
vn 0.96319121 0.25427339 -0.08722231
vn 0.96319121 0.25427339 -0.08722231
vn 0.96319121 0.25427339 -0.08722231
vn 0.77523190 0.61900566 -0.12588682
vn 0.77523190 0.61900566 -0.12588682
vn 0.77523190 0.61900566 -0.12588682
vn 0.64827499 0.75941607 -0.05501602
vn 0.64827499 0.75941607 -0.05501602
vn 0.64827499 0.75941607 -0.05501602
vn 0.99342456 0.09350730 -0.06606078
vn 0.99342456 0.09350730 -0.06606078
vn 0.99342456 0.09350730 -0.06606078
vn 0.60312184 0.79648644 -0.04305101
vn 0.60312184 0.79648644 -0.04305101
vn 0.60312184 0.79648644 -0.04305101
vn 0.81736651 0.53868947 -0.20426856
vn 0.81736651 0.53868947 -0.20426856
vn 0.81736651 0.53868947 -0.20426856
vn 0.78482806 0.59106480 -0.18624533
vn 0.78482806 0.59106480 -0.18624533
vn 0.78482806 0.59106480 -0.18624533
vn 0.95328496 0.30187948 -0.01079635
vn 0.95328496 0.30187948 -0.01079635
vn 0.95328496 0.30187948 -0.01079635
vn 0.72594285 0.68186922 -0.08978497
vn 0.72594285 0.68186922 -0.08978497
vn 0.72594285 0.68186922 -0.08978497
vn 0.94950900 0.31311351 -0.01981380
vn 0.94950900 0.31311351 -0.01981380
vn 0.94950900 0.31311351 -0.01981380
vn 0.99159266 0.10360926 -0.07751847
vn 0.99159266 0.10360926 -0.07751847
vn 0.99159266 0.10360926 -0.07751847
vn 0.79479430 0.58265860 -0.16973794
vn 0.79479430 0.58265860 -0.16973794
vn 0.79479430 0.58265860 -0.16973794
vn 0.91070826 0.40869585 0.05981779
vn 0.91070826 0.40869585 0.05981779
vn 0.91070826 0.40869585 0.05981779
vn 0.82355369 0.51230325 -0.24352556
vn 0.82355369 0.51230325 -0.24352556
vn 0.82355369 0.51230325 -0.24352556
vn 0.66457324 0.74128078 -0.09404897
vn 0.66457324 0.74128078 -0.09404897
vn 0.66457324 0.74128078 -0.09404897
vn 0.87930655 0.33188338 -0.34157491
vn 0.87930655 0.33188338 -0.34157491
vn 0.87930655 0.33188338 -0.34157491
vn 0.60205634 0.79098689 -0.10893986
vn 0.60205634 0.79098689 -0.10893986
vn 0.60205634 0.79098689 -0.10893986
vn 0.98975250 0.14279302 0.00037287
vn 0.98975250 0.14279302 0.00037287
vn 0.98975250 0.14279302 0.00037287
vn 0.99084071 0.13487076 0.00667611
vn 0.99084071 0.13487076 0.00667611
vn 0.99084071 0.13487076 0.00667611
vn 0.73702500 0.65280891 -0.17502766
vn 0.73702500 0.65280891 -0.17502766
vn 0.73702500 0.65280891 -0.17502766
vn 0.82839114 0.55437283 -0.08024267
vn 0.82839114 0.55437283 -0.08024267
vn 0.82839114 0.55437283 -0.08024267
vn 0.72905315 0.65793868 -0.18867485
vn 0.72905315 0.65793868 -0.18867485
vn 0.72905315 0.65793868 -0.18867485
vn 0.64086891 0.74851024 -0.17035100
vn 0.64086891 0.74851024 -0.17035100
vn 0.64086891 0.74851024 -0.17035100
vn 0.85584146 0.49705402 -0.14308284
vn 0.85584146 0.49705402 -0.14308284
vn 0.85584146 0.49705402 -0.14308284
vn 0.86323342 0.48799113 -0.12920035
vn 0.86323342 0.48799113 -0.12920035
vn 0.86323342 0.48799113 -0.12920035
vn 0.68356117 0.71067623 -0.16638337
vn 0.68360348 0.71065227 -0.16631187
vn 0.68316570 0.71089980 -0.16705118
vn 0.68399874 0.71042802 -0.16564345
vn 0.64479799 0.74718155 -0.16110644
vn 0.64479799 0.74718155 -0.16110644
vn 0.64479799 0.74718155 -0.16110644
vn 0.74629129 0.62255362 -0.23553407
vn 0.74629129 0.62255362 -0.23553407
vn 0.74629129 0.62255362 -0.23553407
vn 0.87981062 0.40257549 -0.25271773
vn 0.87981062 0.40257549 -0.25271773
vn 0.87981062 0.40257549 -0.25271773
vn 0.88693405 0.39225528 -0.24389299
vn 0.88693405 0.39225528 -0.24389299
vn 0.88693405 0.39225528 -0.24389299
vn 0.79487632 0.53389723 -0.28831474
vn 0.79487632 0.53389723 -0.28831474
vn 0.79487632 0.53389723 -0.28831474
vn 0.66493836 0.71342933 -0.22107821
vn 0.66493836 0.71342933 -0.22107821
vn 0.66493836 0.71342933 -0.22107821
vn 0.98423448 0.11228512 -0.13665481
vn 0.98423448 0.11228512 -0.13665481
vn 0.98423448 0.11228512 -0.13665481
vn 0.98649367 0.10275586 -0.12755967
vn 0.98649367 0.10275586 -0.12755967
vn 0.98649367 0.10275586 -0.12755967
vn 0.69606352 0.67964590 -0.23146711
vn 0.69606352 0.67964590 -0.23146711
vn 0.69606352 0.67964590 -0.23146711
vn 0.69075435 0.68187548 -0.24063303
vn 0.69075435 0.68187548 -0.24063303
vn 0.69075435 0.68187548 -0.24063303
vn 0.66055070 0.71534975 -0.22791996
vn 0.66055070 0.71534975 -0.22791996
vn 0.66055070 0.71534975 -0.22791996
vn 0.73054179 0.62749192 -0.26937442
vn 0.73054179 0.62749192 -0.26937442
vn 0.73054179 0.62749192 -0.26937442
vn 0.95011940 0.18413075 -0.25173197
vn 0.95011940 0.18413075 -0.25173197
vn 0.95011940 0.18413075 -0.25173197
vn 0.98340342 0.17868127 0.03147554
vn 0.98340342 0.17868127 0.03147554
vn 0.98340342 0.17868127 0.03147554
vn 0.77069652 0.52857513 -0.35585840
vn 0.77069652 0.52857513 -0.35585840
vn 0.77069652 0.52857513 -0.35585840
vn 0.77135990 0.48537996 -0.41159471
vn 0.77135990 0.48537996 -0.41159471
vn 0.77135990 0.48537996 -0.41159471
vn 0.67015670 0.68261969 -0.29141097
vn 0.67015670 0.68261969 -0.29141097
vn 0.67015670 0.68261969 -0.29141097
vn 0.75407709 0.56944552 -0.32726067
vn 0.75407709 0.56944552 -0.32726067
vn 0.75407709 0.56944552 -0.32726067
vn 0.67637364 0.64981141 -0.34679076
vn 0.67637364 0.64981141 -0.34679076
vn 0.67637364 0.64981141 -0.34679076
vn 0.94537185 0.13925689 -0.29475344
vn 0.94537185 0.13925689 -0.29475344
vn 0.94537185 0.13925689 -0.29475344
vn 0.93146423 0.36382036 0.00302352
vn 0.93146423 0.36382036 0.00302352
vn 0.93146423 0.36382036 0.00302352
vn 0.92144800 0.38781862 -0.02302812
vn 0.92144800 0.38781862 -0.02302812
vn 0.92144800 0.38781862 -0.02302812
vn 0.85574403 0.48419530 -0.18236518
vn 0.85623742 0.48377642 -0.18115701
vn 0.85525958 0.48460440 -0.18354733
vn 0.85658436 0.48348050 -0.18030487
vn 0.68439985 0.61362155 -0.39378350
vn 0.68439985 0.61362155 -0.39378350
vn 0.68439985 0.61362155 -0.39378350
vn 0.72209148 0.55621156 -0.41135458
vn 0.72209148 0.55621156 -0.41135458
vn 0.72209148 0.55621156 -0.41135458
vn 0.86620289 0.44099380 -0.23498304
vn 0.86620289 0.44099380 -0.23498304
vn 0.86620289 0.44099380 -0.23498304
vn 0.76154882 0.64806670 -0.00727638
vn 0.76154882 0.64806670 -0.00727638
vn 0.76154882 0.64806670 -0.00727638
vn 0.98730346 0.14456331 -0.06582800
vn 0.98730346 0.14456331 -0.06582800
vn 0.98730346 0.14456331 -0.06582800
vn 0.98909360 0.13603257 -0.05647118
vn 0.98909360 0.13603257 -0.05647118
vn 0.98909360 0.13603257 -0.05647118
vn 0.64273873 0.76237008 0.07535771
vn 0.64273873 0.76237008 0.07535771
vn 0.64273873 0.76237008 0.07535771
vn 0.94038831 0.33024324 -0.08129722
vn 0.94038831 0.33024324 -0.08129722
vn 0.94038831 0.33024324 -0.08129722
vn 0.97836832 0.20662041 0.01017061
vn 0.97836832 0.20662041 0.01017061
vn 0.97836832 0.20662041 0.01017061
vn 0.92762139 0.16143258 -0.33683538
vn 0.92762139 0.16143258 -0.33683538
vn 0.92762139 0.16143258 -0.33683538
vn 0.78693278 0.55631749 -0.26692255
vn 0.78693278 0.55631749 -0.26692255
vn 0.78693278 0.55631749 -0.26692255
vn 0.86845537 0.38536264 -0.31189887
vn 0.86845537 0.38536264 -0.31189887
vn 0.86845537 0.38536264 -0.31189887
vn 0.86707392 0.37625494 -0.32651957
vn 0.86707392 0.37625494 -0.32651957
vn 0.86707392 0.37625494 -0.32651957
vn 0.97540744 0.10225751 -0.19525298
vn 0.97540744 0.10225751 -0.19525298
vn 0.97540744 0.10225751 -0.19525298
vn 0.94549969 0.27587339 -0.17298614
vn 0.94549969 0.27587339 -0.17298614
vn 0.94549969 0.27587339 -0.17298614
vn 0.66511913 0.68514062 -0.29698294
vn 0.66511913 0.68514062 -0.29698294
vn 0.66511913 0.68514062 -0.29698294
vn 0.95006719 0.26538381 -0.16414555
vn 0.95006719 0.26538381 -0.16414555
vn 0.95006719 0.26538381 -0.16414555
vn 0.71087800 0.63489902 -0.30258175
vn 0.71087800 0.63489902 -0.30258175
vn 0.71087800 0.63489902 -0.30258175
vn 0.93964321 0.20948069 -0.27053369
vn 0.93964321 0.20948069 -0.27053369
vn 0.93964321 0.20948069 -0.27053369
vn 0.89525177 0.43638242 0.08997027
vn 0.89525177 0.43638242 0.08997027
vn 0.89525177 0.43638242 0.08997027
vn 0.83793451 0.47324779 -0.27184975
vn 0.83793451 0.47324779 -0.27184975
vn 0.83793451 0.47324779 -0.27184975
vn 0.92171236 0.19729684 -0.33394653
vn 0.92171236 0.19729684 -0.33394653
vn 0.92171236 0.19729684 -0.33394653
vn 0.96895754 0.12090992 -0.21564342
vn 0.96895754 0.12090992 -0.21564342
vn 0.96895754 0.12090992 -0.21564342
vn 0.83716168 0.42424318 -0.34522173
vn 0.83716168 0.42424318 -0.34522173
vn 0.83716168 0.42424318 -0.34522173
vn 0.94173261 0.32226533 -0.09635742
vn 0.94173261 0.32226533 -0.09635742
vn 0.94173261 0.32226533 -0.09635742
vn 0.84942339 0.52112522 0.08311687
vn 0.84942339 0.52112522 0.08311687
vn 0.84942339 0.52112522 0.08311687
vn 0.98269568 0.14216605 -0.11873509
vn 0.98269568 0.14216605 -0.11873509
vn 0.98269568 0.14216605 -0.11873509
vn 0.83715674 0.45086855 -0.30965489
vn 0.83715674 0.45086855 -0.30965489
vn 0.83715674 0.45086855 -0.30965489
vn 0.97946788 0.19307223 -0.05801536
vn 0.97946788 0.19307223 -0.05801536
vn 0.97946788 0.19307223 -0.05801536
vn 0.98266504 0.18018249 -0.04363125
vn 0.98266504 0.18018249 -0.04363125
vn 0.98266504 0.18018249 -0.04363125
vn 0.96858899 0.24227253 0.05603020
vn 0.96858899 0.24227253 0.05603020
vn 0.96858899 0.24227253 0.05603020
vn 0.77144895 0.62871789 0.09787918
vn 0.77144895 0.62871789 0.09787918
vn 0.77144895 0.62871789 0.09787918
vn 0.84702802 0.52573096 0.07842503
vn 0.84702802 0.52573096 0.07842503
vn 0.84702802 0.52573096 0.07842503
vn 0.97718279 0.15950324 -0.14025872
vn 0.97718279 0.15950324 -0.14025872
vn 0.97718279 0.15950324 -0.14025872
vn 0.00507232 0.23571641 -0.97180865
vn 0.00507232 0.23571641 -0.97180865
vn 0.00507232 0.23571641 -0.97180865
vn -0.05256648 0.92054556 -0.38708221
vn -0.05256648 0.92054556 -0.38708221
vn -0.05256648 0.92054556 -0.38708221
vn 0.03505206 0.94223470 -0.33311427
vn 0.03505206 0.94223470 -0.33311427
vn 0.03505206 0.94223470 -0.33311427
vn 0.04692901 0.74519056 -0.66519824
vn 0.04692901 0.74519056 -0.66519824
vn 0.04692901 0.74519056 -0.66519824
vn -0.00444527 0.68372473 -0.72972648
vn -0.00444527 0.68372473 -0.72972648
vn -0.00444527 0.68372473 -0.72972648
vn -0.01809188 0.47487563 -0.87986693
vn -0.01809188 0.47487563 -0.87986693
vn -0.01809188 0.47487563 -0.87986693
vn 0.03209149 0.54271427 -0.83930409
vn 0.03209149 0.54271427 -0.83930409
vn 0.03209149 0.54271427 -0.83930409
vn -0.00253165 0.21390124 -0.97685201
vn -0.00253165 0.21390124 -0.97685201
vn -0.00253165 0.21390124 -0.97685201
vn 0.99901758 0.01721888 -0.04083374
vn 0.99901758 0.01721888 -0.04083374
vn 0.99901758 0.01721888 -0.04083374
vn 0.87849985 0.01788315 -0.47740779
vn 0.87849985 0.01788315 -0.47740779
vn 0.87849985 0.01788315 -0.47740779
vn 0.87577621 0.13267113 -0.46412758
vn 0.87577621 0.13267113 -0.46412758
vn 0.87577621 0.13267113 -0.46412758
vn 0.96349703 -0.26147481 -0.05748383
vn 0.96349703 -0.26147481 -0.05748383
vn 0.96349703 -0.26147481 -0.05748383
vn 0.82281601 -0.45590732 -0.33929683
vn 0.82281601 -0.45590732 -0.33929683
vn 0.82281601 -0.45590732 -0.33929683
vn 0.86629287 -0.35148998 -0.35495274
vn 0.86629287 -0.35148998 -0.35495274
vn 0.86629287 -0.35148998 -0.35495274
vn 0.83453717 0.38336282 -0.39570274
vn 0.83453717 0.38336282 -0.39570274
vn 0.83453717 0.38336282 -0.39570274
vn 0.92382418 -0.30216114 -0.23504792
vn 0.92382418 -0.30216114 -0.23504792
vn 0.92382418 -0.30216114 -0.23504792
vn 0.89785158 0.13100802 -0.42035633
vn 0.89785158 0.13100802 -0.42035633
vn 0.89785158 0.13100802 -0.42035633
vn 0.91889048 -0.22495452 -0.32409220
vn 0.91889048 -0.22495452 -0.32409220
vn 0.91889048 -0.22495452 -0.32409220
vn 0.88698489 -0.34207547 -0.31022924
vn 0.88698489 -0.34207547 -0.31022924
vn 0.88698489 -0.34207547 -0.31022924
vn 0.72230185 -0.66523470 -0.18905776
vn 0.72230185 -0.66523470 -0.18905776
vn 0.72230185 -0.66523470 -0.18905776
vn 0.77729855 -0.61980808 -0.10791160
vn 0.77729855 -0.61980808 -0.10791160
vn 0.77729855 -0.61980808 -0.10791160
vn 0.87474822 0.35126049 -0.33381375
vn 0.87474822 0.35126049 -0.33381375
vn 0.87474822 0.35126049 -0.33381375
vn 0.92164786 0.23452207 -0.30913528
vn 0.92138295 0.23447194 -0.30996187
vn 0.92166400 0.23452512 -0.30908484
vn 0.88521274 0.46501380 -0.01267154
vn 0.88521274 0.46501380 -0.01267154
vn 0.88521274 0.46501380 -0.01267154
vn 0.93562138 -0.18140442 -0.30282846
vn 0.93562138 -0.18140442 -0.30282846
vn 0.93562138 -0.18140442 -0.30282846
vn 0.65211127 -0.74588042 -0.13569558
vn 0.65211127 -0.74588042 -0.13569558
vn 0.65211127 -0.74588042 -0.13569558
vn 0.52324163 -0.84904802 -0.07304560
vn 0.52316656 -0.84911027 -0.07285946
vn 0.52337741 -0.84893528 -0.07338242
vn -0.77853193 -0.53858762 0.32219778
vn -0.77853193 -0.53858762 0.32219778
vn -0.77853193 -0.53858762 0.32219778
vn 0.97302459 -0.06894772 -0.22015756
vn 0.97302459 -0.06894772 -0.22015756
vn 0.97302459 -0.06894772 -0.22015756
vn 0.96944739 -0.17417504 -0.17272759
vn 0.96944739 -0.17417504 -0.17272759
vn 0.96944739 -0.17417504 -0.17272759
vn 0.98738793 -0.04088221 -0.15295004
vn 0.98738793 -0.04088221 -0.15295004
vn 0.98738793 -0.04088221 -0.15295004
vn 0.86529072 0.49145802 -0.09869644
vn 0.86529072 0.49145802 -0.09869644
vn 0.86529072 0.49145802 -0.09869644
vn 0.85836493 -0.49956697 -0.11680103
vn 0.85836493 -0.49956697 -0.11680103
vn 0.85836493 -0.49956697 -0.11680103
vn 0.68472792 -0.72616737 -0.06187593
vn 0.68472792 -0.72616737 -0.06187593
vn 0.68472792 -0.72616737 -0.06187593
vn 0.99015573 -0.08247423 -0.11309127
vn 0.99015573 -0.08247423 -0.11309127
vn 0.99015573 -0.08247423 -0.11309127
vn 0.95689607 -0.27334322 -0.09814982
vn 0.95689607 -0.27334322 -0.09814982
vn 0.95689607 -0.27334322 -0.09814982
vn 0.93657530 0.34395757 -0.06723017
vn 0.93657530 0.34395757 -0.06723017
vn 0.93657530 0.34395757 -0.06723017
vn 0.98954215 0.12432420 -0.07314257
vn 0.98954215 0.12432420 -0.07314257
vn 0.98954215 0.12432420 -0.07314257
vn 0.96852109 -0.09148430 -0.23151139
vn 0.96852109 -0.09148430 -0.23151139
vn 0.96852109 -0.09148430 -0.23151139
vn 0.95371313 0.21244665 -0.21283255
vn 0.95371313 0.21244665 -0.21283255
vn 0.95371313 0.21244665 -0.21283255
vn 0.77728842 0.62536362 0.06886991
vn 0.77728842 0.62536362 0.06886991
vn 0.77728842 0.62536362 0.06886991
vn 0.89847928 0.43875043 0.01526587
vn 0.89847928 0.43875043 0.01526587
vn 0.89847928 0.43875043 0.01526587
vn 0.94991338 0.25310985 -0.18330297
vn 0.94991338 0.25310985 -0.18330297
vn 0.94991338 0.25310985 -0.18330297
vn 0.99012518 0.13855417 0.02132746
vn 0.99012518 0.13855417 0.02132746
vn 0.99012518 0.13855417 0.02132746
vn 0.99554974 0.08461723 0.04148069
vn 0.99554974 0.08461723 0.04148069
vn 0.99554974 0.08461723 0.04148069
vn 0.91808512 -0.39508419 -0.03206537
vn 0.91808512 -0.39508419 -0.03206537
vn 0.91808512 -0.39508419 -0.03206537
vn 0.86211724 -0.50602461 -0.02632402
vn 0.86211724 -0.50602461 -0.02632402
vn 0.86211724 -0.50602461 -0.02632402
vn 0.50901968 -0.85839682 -0.06367000
vn 0.50901968 -0.85839682 -0.06367000
vn 0.50901968 -0.85839682 -0.06367000
vn 0.89231374 0.36783972 -0.26166797
vn 0.89231374 0.36783972 -0.26166797
vn 0.89231374 0.36783972 -0.26166797
vn 0.52344719 -0.84887727 -0.07355558
vn 0.92195845 0.23458079 -0.30816305
vn 0.88387787 0.44173241 -0.15372831
vn 0.88387787 0.44173241 -0.15372831
vn 0.88387787 0.44173241 -0.15372831
vn 0.51917143 -0.85312327 -0.05139749
vn 0.51917143 -0.85312327 -0.05139749
vn 0.51917143 -0.85312327 -0.05139749
vn 0.78908912 -0.59278207 -0.16108315
vn 0.78908912 -0.59278207 -0.16108315
vn 0.78908912 -0.59278207 -0.16108315
vn 0.76278928 -0.63724647 -0.10986104
vn 0.76278928 -0.63724647 -0.10986104
vn 0.76278928 -0.63724647 -0.10986104
vn 0.33510802 -0.68936141 -0.64224875
vn 0.33510802 -0.68936141 -0.64224875
vn 0.33510802 -0.68936141 -0.64224875
vn 0.46678157 -0.80950911 -0.35610388
vn 0.46678157 -0.80950911 -0.35610388
vn 0.46678157 -0.80950911 -0.35610388
vn 0.22414851 -0.41241610 -0.88298947
vn 0.22414851 -0.41241610 -0.88298947
vn 0.22414851 -0.41241610 -0.88298947
vn 0.40614398 -0.67073672 -0.62061205
vn 0.40614398 -0.67073672 -0.62061205
vn 0.40614398 -0.67073672 -0.62061205
vn 0.24525203 -0.34362212 -0.90651822
vn 0.24525203 -0.34362212 -0.90651822
vn 0.24525203 -0.34362212 -0.90651822
vn 0.49673522 -0.76702485 -0.40611206
vn 0.49673522 -0.76702485 -0.40611206
vn 0.49673522 -0.76702485 -0.40611206
vn 0.27913647 -0.72176163 -0.63335849
vn 0.27913647 -0.72176163 -0.63335849
vn 0.27913647 -0.72176163 -0.63335849
vn 0.17925693 -0.52513122 -0.83192797
vn 0.17925693 -0.52513122 -0.83192797
vn 0.17925693 -0.52513122 -0.83192797
vn 0.28450408 -0.61259225 -0.73741993
vn 0.28450408 -0.61259225 -0.73741993
vn 0.28450408 -0.61259225 -0.73741993
vn 0.47959139 -0.53839021 -0.69291275
vn 0.47959139 -0.53839021 -0.69291275
vn 0.47959139 -0.53839021 -0.69291275
vn 0.53412044 -0.58566697 -0.60967988
vn 0.53412044 -0.58566697 -0.60967988
vn 0.53412044 -0.58566697 -0.60967988
vn 0.51358338 -0.55539196 -0.65404272
vn 0.51358338 -0.55539196 -0.65404272
vn 0.51358338 -0.55539196 -0.65404272
vn 0.48407039 -0.62107573 -0.61639337
vn 0.48407039 -0.62107573 -0.61639337
vn 0.48407039 -0.62107573 -0.61639337
vn 0.48921082 -0.62891479 -0.60426730
vn 0.48921082 -0.62891479 -0.60426730
vn 0.48921082 -0.62891479 -0.60426730
vn 0.25494798 -0.63463775 -0.72954537
vn 0.25494798 -0.63463775 -0.72954537
vn 0.25494798 -0.63463775 -0.72954537
vn 0.36876956 -0.78153129 -0.50320756
vn 0.36876956 -0.78153129 -0.50320756
vn 0.36876956 -0.78153129 -0.50320756
vn 0.64927607 -0.40769754 -0.64204619
vn 0.64927607 -0.40769754 -0.64204619
vn 0.64927607 -0.40769754 -0.64204619
vn 0.26026408 -0.07677783 -0.96248001
vn 0.26026408 -0.07677783 -0.96248001
vn 0.26026408 -0.07677783 -0.96248001
vn 0.37706334 -0.65430413 -0.65552220
vn 0.37706334 -0.65430413 -0.65552220
vn 0.37706334 -0.65430413 -0.65552220
vn 0.46527833 0.11360667 -0.87784372
vn 0.46527833 0.11360667 -0.87784372
vn 0.46527833 0.11360667 -0.87784372
vn 0.52428709 0.08237354 -0.84754802
vn 0.52428709 0.08237354 -0.84754802
vn 0.52428709 0.08237354 -0.84754802
vn 0.74228236 0.14602582 -0.65398268
vn 0.74228236 0.14602582 -0.65398268
vn 0.74228236 0.14602582 -0.65398268
vn 0.82463106 0.44266237 -0.35218409
vn 0.82463106 0.44266237 -0.35218409
vn 0.82463106 0.44266237 -0.35218409
vn 0.63053058 0.19134674 -0.75220849
vn 0.63053058 0.19134674 -0.75220849
vn 0.63053058 0.19134674 -0.75220849
vn 0.59270920 0.31353275 -0.74188477
vn 0.59270920 0.31353275 -0.74188477
vn 0.59270920 0.31353275 -0.74188477
vn 0.78747139 0.40358944 -0.46583727
vn 0.78747139 0.40358944 -0.46583727
vn 0.78747139 0.40358944 -0.46583727
vn 0.51085481 0.75295234 -0.41483749
vn 0.51085481 0.75295234 -0.41483749
vn 0.51085481 0.75295234 -0.41483749
vn 0.56186566 0.81312002 -0.15212760
vn 0.56186566 0.81312002 -0.15212760
vn 0.56186566 0.81312002 -0.15212760
vn 0.72565262 0.67500050 -0.13342635
vn 0.72565262 0.67500050 -0.13342635
vn 0.72565262 0.67500050 -0.13342635
vn 0.81436118 0.56888327 -0.11483767
vn 0.81436118 0.56888327 -0.11483767
vn 0.81436118 0.56888327 -0.11483767
vn 0.46746393 0.88284721 -0.04536828
vn 0.46746393 0.88284721 -0.04536828
vn 0.46746393 0.88284721 -0.04536828
vn 0.64892880 0.75948740 -0.04550059
vn 0.64892880 0.75948740 -0.04550059
vn 0.64892880 0.75948740 -0.04550059
vn 0.71494841 0.69892737 -0.01868986
vn 0.71494841 0.69892737 -0.01868986
vn 0.71494841 0.69892737 -0.01868986
vn 0.54902342 0.83580655 0.00083160
vn 0.54902342 0.83580655 0.00083160
vn 0.54902342 0.83580655 0.00083160
vn 0.78309894 0.57424934 -0.23873364
vn 0.78309894 0.57424934 -0.23873364
vn 0.78309894 0.57424934 -0.23873364
vn 0.86906792 0.45708569 -0.18919203
vn 0.86906792 0.45708569 -0.18919203
vn 0.86906792 0.45708569 -0.18919203
vn -0.99844032 0.00000000 0.05582950
vn -0.99844032 0.00000000 0.05582950
vn -0.99844032 0.00000000 0.05582950
f 1//1 2//2 3//3
f 4//4 5//5 6//6
f 7//7 8//8 9//9
f 10//10 11//11 12//12
f 13//13 14//14 15//15
f 16//16 17//17 18//18
f 19//19 20//20 13//13
f 21//21 22//22 23//23
f 21//21 23//23 24//24
f 25//25 22//22 21//21
f 25//25 26//26 22//22
f 12//12 11//11 27//27
f 28//28 29//29 30//30
f 31//31 32//32 33//33
f 34//34 35//35 36//36
f 37//37 38//38 39//39
f 40//40 41//41 42//42
f 43//43 44//44 45//45
f 46//46 47//47 48//48
f 49//49 50//50 51//51
f 52//52 53//53 54//54
f 55//55 56//56 57//57
f 58//58 59//59 60//60
f 34//34 61//61 35//35
f 62//62 63//63 64//64
f 65//65 66//66 67//67
f 68//68 69//69 70//70
f 71//71 72//72 73//73
f 74//74 75//75 76//76
f 77//77 78//78 79//79
f 80//80 81//81 82//82
f 83//83 84//84 85//85
f 86//86 87//87 88//88
f 89//89 90//90 91//91
f 92//92 93//93 94//94
f 95//95 96//96 97//97
f 98//98 99//99 100//100
f 101//101 102//102 103//103
f 104//104 105//105 106//106
f 107//107 108//108 109//109
f 110//110 111//111 112//112
f 113//113 114//114 115//115
f 116//116 117//117 118//118
f 119//119 113//113 115//115
f 120//120 121//121 122//122
f 123//123 124//124 125//125
f 126//126 127//127 128//128
f 129//129 130//130 131//131
f 132//132 133//133 134//134
f 135//135 136//136 137//137
f 138//138 139//139 140//140
f 129//129 141//141 130//130
f 142//142 143//143 144//144
f 145//145 146//146 147//147
f 148//148 149//149 150//150
f 151//151 152//152 153//153
f 154//154 155//155 156//156
f 157//157 158//158 159//159
f 160//160 111//111 110//110
f 161//161 162//162 163//163
f 164//164 165//165 166//166
f 167//167 168//168 169//169
f 170//170 171//171 172//172
f 173//173 174//174 175//175
f 176//176 177//177 178//178
f 179//179 180//180 181//181
f 182//182 183//183 184//184
f 185//185 186//186 187//187
f 188//188 189//189 190//190
f 191//191 192//192 193//193
f 194//194 188//188 190//190
f 195//195 196//196 197//197
f 198//198 199//199 200//200
f 201//201 202//202 203//203
f 204//204 205//205 206//206
f 207//207 208//208 209//209
f 210//210 211//211 212//212
f 210//210 213//213 214//214
f 207//207 204//204 206//206
f 215//215 207//207 206//206
f 215//215 206//206 216//216
f 217//217 218//218 219//219
f 220//220 221//221 222//222
f 220//220 222//222 223//223
f 224//224 220//220 223//223
f 225//225 226//226 227//227
f 228//228 229//229 230//230
f 231//231 232//232 233//233
f 234//234 235//235 236//236
f 237//237 238//238 239//239
f 240//240 241//241 242//242
f 243//243 244//244 245//245
f 246//246 247//247 248//248
f 249//249 250//250 251//251
f 252//252 253//253 254//254
f 255//255 256//256 257//257
f 258//258 259//259 260//260
f 261//261 262//262 263//263
f 264//264 265//265 266//266
f 267//267 268//268 269//269
f 270//270 271//271 272//272
f 270//270 272//272 273//273
f 274//274 275//275 276//276
f 274//274 277//277 275//275
f 278//278 279//279 280//280
f 281//281 282//282 283//283
f 284//284 285//285 286//286
f 287//287 288//288 289//289
f 290//290 291//291 292//292
f 293//293 294//294 295//295
f 296//296 297//297 298//298
f 299//299 300//300 301//301
f 302//302 303//303 304//304
f 305//305 306//306 307//307
f 308//308 309//309 310//310
f 311//311 312//312 313//313
f 314//314 315//315 316//316
f 317//317 318//318 319//319
f 320//320 321//321 322//322
f 323//323 324//324 325//325
f 326//326 327//327 328//328
f 329//329 330//330 331//331
f 332//332 333//333 334//334
f 335//335 336//336 337//337
f 338//338 339//339 340//340
f 341//341 342//342 343//343
f 344//344 345//345 346//346
f 347//347 348//348 349//349
f 350//350 351//351 352//352
f 353//353 354//354 355//355
f 356//356 357//357 358//358
f 359//359 360//360 361//361
f 362//362 363//363 364//364
f 365//365 366//366 367//367
f 368//368 369//369 370//370
f 371//371 372//372 373//373
f 374//374 375//375 376//376
f 377//377 378//378 379//379
f 380//380 381//381 382//382
f 383//383 384//384 385//385
f 386//386 387//387 388//388
f 386//386 389//389 387//387
f 390//390 391//391 392//392
f 393//393 394//394 395//395
f 396//396 397//397 398//398
f 399//399 400//400 401//401
f 402//402 403//403 404//404
f 405//405 406//406 407//407
f 384//384 383//383 408//408
f 409//409 410//410 411//411
f 412//412 413//413 414//414
f 415//415 416//416 417//417
f 418//418 419//419 420//420
f 421//421 422//422 423//423
f 424//424 425//425 426//426
f 427//427 428//428 429//429
f 430//430 431//431 432//432
f 433//433 434//434 435//435
f 436//436 437//437 438//438
f 439//439 440//440 441//441
f 442//442 443//443 444//444
f 445//445 446//446 447//447
f 448//448 449//449 450//450
f 451//451 452//452 453//453
f 454//454 455//455 456//456
f 457//457 458//458 459//459
f 460//460 461//461 462//462
f 463//463 464//464 465//465
f 466//466 467//467 468//468
f 469//469 470//470 471//471
f 472//472 473//473 474//474
f 475//475 476//476 477//477
f 478//478 479//479 480//480
f 481//481 482//482 483//483
f 484//484 485//485 486//486
f 487//487 488//488 489//489
f 490//490 491//491 492//492
f 493//493 494//494 495//495
f 496//496 497//497 498//498
f 499//499 500//500 501//501
f 502//502 503//503 504//504
f 505//505 506//506 507//507
f 505//505 508//508 506//506
f 509//509 510//510 511//511
f 512//512 513//513 514//514
f 515//515 516//516 517//517
f 518//518 519//519 520//520
f 521//521 522//522 523//523
f 524//524 525//525 526//526
f 527//527 528//528 529//529
f 530//530 531//531 532//532
f 533//533 534//534 535//535
f 536//536 537//537 538//538
f 539//539 540//540 541//541
f 542//542 543//543 544//544
f 545//545 546//546 547//547
f 548//548 549//549 550//550
f 551//551 552//552 553//553
f 554//554 555//555 556//556
f 557//557 558//558 559//559
f 560//560 561//561 562//562
f 563//563 564//564 565//565
f 566//566 567//567 568//568
f 569//569 570//570 571//571
f 572//572 573//573 574//574
f 575//575 576//576 577//577
f 575//575 578//578 576//576
f 579//579 580//580 581//581
f 582//582 583//583 584//584
f 585//585 586//586 587//587
f 588//588 589//589 590//590
f 591//591 592//592 593//593
f 594//594 595//595 596//596
f 597//597 598//598 599//599
f 600//600 601//601 602//602
f 603//603 604//604 605//605
f 606//606 607//607 608//608
f 609//609 610//610 611//611
f 612//612 613//613 614//614
f 615//615 616//616 617//617
f 618//618 619//619 620//620
f 621//621 622//622 623//623
f 624//624 625//625 626//626
f 627//627 628//628 629//629
f 630//630 631//631 632//632
f 633//633 634//634 635//635
f 636//636 637//637 638//638
f 639//639 640//640 641//641
f 642//642 643//643 644//644
f 645//645 646//646 647//647
f 648//648 649//649 650//650
f 651//651 652//652 653//653
f 654//654 655//655 656//656
f 657//657 658//658 659//659
f 660//660 661//661 662//662
f 663//663 664//664 665//665
f 666//666 667//667 668//668
f 669//669 670//670 671//671
f 672//672 673//673 674//674
f 675//675 676//676 677//677
f 678//678 679//679 680//680
f 681//681 682//682 683//683
f 684//684 685//685 686//686
f 687//687 688//688 689//689
f 690//690 691//691 692//692
f 693//693 694//694 695//695
f 696//696 697//697 698//698
f 699//699 700//700 701//701
f 702//702 703//703 704//704
f 705//705 706//706 707//707
f 708//708 709//709 710//710
f 711//711 712//712 713//713
f 714//714 715//715 716//716
f 717//717 718//718 719//719
f 720//720 721//721 722//722
f 723//723 724//724 725//725
f 726//726 727//727 728//728
f 729//729 730//730 731//731
f 732//732 733//733 734//734
f 735//735 736//736 737//737
f 738//738 739//739 740//740
f 741//741 742//742 743//743
f 744//744 745//745 746//746
f 747//747 748//748 749//749
f 750//750 751//751 752//752
f 753//753 754//754 755//755
f 756//756 757//757 758//758
f 759//759 760//760 761//761
f 762//762 763//763 764//764
f 765//765 766//766 767//767
f 768//768 769//769 770//770
f 771//771 772//772 773//773
f 774//774 775//775 776//776
f 777//777 778//778 779//779
f 780//780 781//781 782//782
f 783//783 784//784 785//785
f 786//786 787//787 788//788
f 789//789 790//790 791//791
f 792//792 793//793 794//794
f 795//795 796//796 797//797
f 798//798 799//799 800//800
f 801//801 802//802 803//803
f 804//804 805//805 806//806
f 807//807 808//808 809//809
f 810//810 811//811 812//812
f 813//813 814//814 815//815
f 816//816 817//817 818//818
f 819//819 820//820 821//821
f 822//822 823//823 824//824
f 825//825 826//826 827//827
f 761//761 828//828 759//759
f 749//749 829//829 747//747
f 830//830 831//831 832//832
f 833//833 834//834 835//835
f 836//836 837//837 838//838
f 839//839 840//840 841//841
f 842//842 843//843 844//844
f 845//845 846//846 847//847
f 848//848 849//849 850//850
f 851//851 852//852 853//853
f 854//854 855//855 856//856
f 857//857 858//858 859//859
f 860//860 861//861 862//862
f 863//863 864//864 865//865
f 866//866 867//867 868//868
f 869//869 870//870 871//871
f 872//872 873//873 874//874
f 875//875 876//876 877//877
f 878//878 879//879 880//880
f 881//881 882//882 883//883
f 884//884 885//885 886//886
f 887//887 888//888 889//889
f 890//890 891//891 892//892
f 893//893 894//894 895//895
f 896//896 897//897 898//898
f 899//899 900//900 901//901
f 902//902 903//903 904//904
f 905//905 906//906 907//907
f 908//908 909//909 910//910
f 911//911 912//912 913//913
f 914//914 915//915 916//916
f 917//917 918//918 919//919
f 920//920 921//921 922//922
f 923//923 924//924 925//925
f 926//926 927//927 928//928
f 929//929 930//930 931//931
f 932//932 933//933 934//934
f 935//935 936//936 937//937
f 938//938 939//939 940//940
f 941//941 942//942 943//943
f 944//944 945//945 946//946
f 947//947 948//948 949//949
f 950//950 951//951 952//952
