# https://github.com/mikedh/trimesh
v 0.11331850 0.07165694 -0.00112592
v 0.11388530 0.07131022 -0.00060850
v 0.11375010 0.07138609 -0.00148772
v 0.11331850 0.07165694 -0.00112592
v 0.11308070 0.07180482 -0.00075351
v 0.11373810 0.07140356 -0.00039982
v 0.11373810 0.07140356 -0.00039982
v 0.11517950 0.07045876 -0.00020324
v 0.11519830 0.07044607 0.00008602
v 0.11591450 0.06994175 -0.00024109
v 0.11575310 0.07005405 -0.00077080
v 0.11506750 0.07053440 -0.00048213
v 0.11517950 0.07045876 -0.00020324
v 0.11575310 0.07005405 -0.00077080
v 0.11549740 0.07023191 -0.00115930
v 0.11506750 0.07053440 -0.00048213
v 0.11575310 0.07005405 -0.00077080
v 0.11485370 0.07067811 -0.00071412
v 0.11549740 0.07023191 -0.00115930
v 0.11522820 0.07041615 -0.00139415
v 0.11485370 0.07067811 -0.00071412
v 0.11482930 0.07068496 -0.00160103
v 0.11485370 0.07067811 -0.00071412
v 0.11522820 0.07041615 -0.00139415
v 0.11482930 0.07068496 -0.00160103
v 0.11456070 0.07087224 -0.00084221
v 0.11485370 0.07067811 -0.00071412
v 0.11427950 0.07104712 -0.00164729
v 0.11431720 0.07103192 -0.00084149
v 0.11456070 0.07087224 -0.00084221
v 0.11427950 0.07104712 -0.00164729
v 0.11427950 0.07104712 -0.00164729
v 0.11407940 0.07118594 -0.00076544
v 0.11431720 0.07103192 -0.00084149
v 0.11375010 0.07138609 -0.00148772
v 0.11292240 0.07190161 -0.00022333
v 0.11365240 0.07145792 -0.00008755
v 0.11373810 0.07140356 -0.00039982
v 0.11292240 0.07190161 -0.00022333
v 0.11407940 0.07118594 -0.00076544
v 0.11414600 0.07114303 0.00079656
v 0.11351990 0.07153213 0.00132371
v 0.11400770 0.07122230 0.00159699
v 0.11382650 0.07134741 0.00055445
v 0.11328320 0.07167959 0.00107605
v 0.11351990 0.07153213 0.00132371
v 0.11382650 0.07134741 0.00055445
v 0.11309420 0.07179629 0.00078256
v 0.11328320 0.07167959 0.00107605
v 0.11382650 0.07134741 0.00055445
v 0.11309420 0.07179629 0.00078256
v 0.11382650 0.07134741 0.00055445
v 0.11367120 0.07144606 0.00020344
v 0.11294610 0.07188689 0.00033952
v 0.11367120 0.07144606 0.00020344
v 0.11365240 0.07145792 -0.00008755
v 0.11491250 0.07063853 0.00066669
v 0.11531870 0.07035499 0.00133003
v 0.11561580 0.07015007 0.00100739
v 0.11511450 0.07050257 0.00039614
v 0.11491250 0.07063853 0.00066669
v 0.11561580 0.07015007 0.00100739
v 0.11491250 0.07063853 0.00066669
v 0.11496040 0.07059699 0.00154538
v 0.11531870 0.07035499 0.00133003
v 0.11511450 0.07050257 0.00039614
v 0.11581720 0.07000941 0.00061656
v 0.11462470 0.07083010 0.00082637
v 0.11455760 0.07086527 0.00164796
v 0.11581720 0.07000941 0.00061656
v 0.11590850 0.06994563 0.00023336
v 0.11519830 0.07044607 0.00008602
v 0.11581720 0.07000941 0.00061656
v 0.11438360 0.07098859 0.00084872
v 0.11400770 0.07122230 0.00159699
v 0.11455760 0.07086527 0.00164796
v 0.11438360 0.07098859 0.00084872
v 0.11455760 0.07086527 0.00164796
v 0.11462470 0.07083010 0.00082637
v 0.11414600 0.07114303 0.00079656
vn 0.52697059 0.84984792 -0.00777916
vn 0.52941663 0.84832048 -0.00839047
vn 0.52845230 0.84892525 -0.00800538
vn 0.52281089 0.85243599 -0.00465338
vn 0.52191235 0.85299589 -0.00234809
vn 0.52189943 0.85300388 -0.00231502
vn 0.52722171 0.84968857 -0.00816102
vn 0.57528017 0.81795487 -0.00160138
vn 0.57554175 0.81777225 -0.00048755
vn 0.57555286 0.81776422 -0.00076676
vn 0.57527024 0.81796125 -0.00188149
vn 0.56839298 0.82271366 -0.00846483
vn 0.57177753 0.82037769 -0.00713446
vn 0.57177753 0.82037769 -0.00713446
vn 0.57059512 0.82122499 -0.00327512
vn 0.57320635 0.81940829 -0.00212785
vn 0.57320635 0.81940829 -0.00212785
vn 0.56510225 0.82496321 -0.00975419
vn 0.56510225 0.82496321 -0.00975419
vn 0.56752914 0.82334036 -0.00461849
vn 0.56752914 0.82334036 -0.00461849
vn 0.56204415 0.82705749 -0.00907099
vn 0.56204415 0.82705749 -0.00907099
vn 0.56204415 0.82705749 -0.00907099
vn 0.55182296 0.83389547 -0.01047675
vn 0.55351411 0.83278442 -0.00960392
vn 0.55499152 0.83180903 -0.00884024
vn 0.54833088 0.83620309 -0.00988141
vn 0.54833088 0.83620309 -0.00988141
vn 0.54833088 0.83620309 -0.00988141
vn 0.55070491 0.83462682 -0.01105301
vn 0.53791921 0.84292933 -0.01063336
vn 0.53951295 0.84191657 -0.01011230
vn 0.54145772 0.84067458 -0.00947550
vn 0.53684588 0.84360883 -0.01098387
vn 0.52017858 0.85403703 -0.00591619
vn 0.52017858 0.85403703 -0.00591619
vn 0.52017858 0.85403703 -0.00591619
vn 0.52008739 0.85411303 0.00017386
vn 0.53395102 0.84546590 -0.00914943
vn 0.53333055 0.84585798 0.00909946
vn 0.53309804 0.84600862 0.00871211
vn 0.53283248 0.84618033 0.00826996
vn 0.53364594 0.84565322 0.00962517
vn 0.52506421 0.85104846 0.00490926
vn 0.52506421 0.85104846 0.00490926
vn 0.52506421 0.85104846 0.00490926
vn 0.52131216 0.85336471 0.00151892
vn 0.52307193 0.85228609 0.00204591
vn 0.52307193 0.85228609 0.00204591
vn 0.52426370 0.85152407 0.00737136
vn 0.52426370 0.85152407 0.00737136
vn 0.52426370 0.85152407 0.00737136
vn 0.51950440 0.85446738 0.00082720
vn 0.51964993 0.85437844 0.00119588
vn 0.51953869 0.85444636 0.00098533
vn 0.56962092 0.82190372 0.00250702
vn 0.56962092 0.82190372 0.00250702
vn 0.57213596 0.82015680 0.00180783
vn 0.57024940 0.82143589 0.00766165
vn 0.56724340 0.82349314 0.00969361
vn 0.56724340 0.82349314 0.00969361
vn 0.55929572 0.82892260 0.00869568
vn 0.55916961 0.82900355 0.00908060
vn 0.56313992 0.82631924 0.00836306
vn 0.57419952 0.81871447 0.00123296
vn 0.57419952 0.81871447 0.00123296
vn 0.55706369 0.83041951 0.00913660
vn 0.55604415 0.83109461 0.00983149
vn 0.57584275 0.81755968 0.00114018
vn 0.57588041 0.81753348 0.00086969
vn 0.57326981 0.81934744 0.00561303
vn 0.57326981 0.81934744 0.00561303
vn 0.54349680 0.83934074 0.01087915
vn 0.54367614 0.83922293 0.01100604
vn 0.54378805 0.83914937 0.01108523
vn 0.54987078 0.83519960 0.00915156
vn 0.54987078 0.83519960 0.00915156
vn 0.54987078 0.83519960 0.00915156
vn 0.54330686 0.83946543 0.01074479
f 1//1 2//2 3//3
f 4//4 5//5 6//6
f 1//1 7//7 2//2
f 8//8 9//9 10//10
f 8//8 10//10 11//11
f 12//12 13//13 14//14
f 15//15 16//16 17//17
f 18//18 12//12 19//19
f 20//20 21//21 15//15
f 22//22 23//23 24//24
f 25//25 26//26 27//27
f 28//28 29//29 30//30
f 31//31 26//26 25//25
f 32//32 33//33 34//34
f 35//35 33//33 32//32
f 36//36 37//37 38//38
f 5//5 39//39 6//6
f 3//3 2//2 40//40
f 41//41 42//42 43//43
f 44//44 42//42 41//41
f 45//45 46//46 47//47
f 48//48 49//49 50//50
f 51//51 52//52 53//53
f 54//54 48//48 55//55
f 54//54 55//55 56//56
f 39//39 54//54 56//56
f 57//57 58//58 59//59
f 60//60 61//61 62//62
f 63//63 64//64 65//65
f 66//66 59//59 67//67
f 68//68 69//69 64//64
f 68//68 64//64 63//63
f 9//9 70//70 71//71
f 72//72 60//60 73//73
f 9//9 71//71 10//10
f 74//74 75//75 76//76
f 77//77 78//78 79//79
f 80//80 75//75 74//74
