# https://github.com/mikedh/trimesh
v 0.06278795 0.08158916 -0.00050025
v 0.06196749 0.08154320 -0.00050025
v 0.06196767 0.08154422 -0.00000005
v 0.06382268 0.08162683 -0.00073754
v 0.06365603 0.08161741 -0.00135046
v 0.06322455 0.08160585 -0.00092714
v 0.06319743 0.08160793 -0.00012504
v 0.06322455 0.08160585 -0.00092714
v 0.06278795 0.08158916 -0.00050025
v 0.06319743 0.08160793 -0.00012504
v 0.06382268 0.08162683 -0.00073754
v 0.06322455 0.08160585 -0.00092714
v 0.06319743 0.08160799 -0.00000005
v 0.06278795 0.08158916 -0.00050025
v 0.06196767 0.08154422 -0.00000005
v 0.06319743 0.08160793 -0.00012504
v 0.06422239 0.08163577 -0.00079571
v 0.06365603 0.08161741 -0.00135046
v 0.06382268 0.08162683 -0.00073754
v 0.06431996 0.08163952 -0.00025003
v 0.06422239 0.08163577 -0.00079571
v 0.06382268 0.08162683 -0.00073754
v 0.06477791 0.08164525 -0.00025003
v 0.06422239 0.08163577 -0.00079571
v 0.06431996 0.08163952 -0.00025003
v 0.06278795 0.08158916 0.00049955
v 0.06278795 0.08158916 0.00049955
v 0.06196749 0.08154320 0.00049955
v 0.06319743 0.08160793 0.00012500
v 0.06322455 0.08160585 0.00092710
v 0.06319743 0.08160793 0.00012500
v 0.06278795 0.08158916 0.00049955
v 0.06382268 0.08162683 0.00073750
v 0.06319743 0.08160793 0.00012500
v 0.06322455 0.08160585 0.00092710
v 0.06365603 0.08161741 0.00134964
v 0.06382268 0.08162683 0.00073750
v 0.06322455 0.08160585 0.00092710
v 0.06422239 0.08163577 0.00079495
v 0.06431996 0.08163952 0.00024999
v 0.06382268 0.08162683 0.00073750
v 0.06422239 0.08163577 0.00079495
v 0.06382268 0.08162683 0.00073750
v 0.06365603 0.08161741 0.00134964
v 0.06477791 0.08164525 0.00024999
v 0.06431996 0.08163952 0.00024999
v 0.06422239 0.08163577 0.00079495
vn -0.05593264 0.99843251 -0.00201703
vn -0.05593264 0.99843251 -0.00201703
vn -0.05593275 0.99843454 0.00000173
vn -0.03303272 0.99943386 -0.00638721
vn -0.03303272 0.99943386 -0.00638721
vn -0.03303272 0.99943386 -0.00638721
vn -0.04211572 0.99910468 -0.00401326
vn -0.04211572 0.99910468 -0.00401326
vn -0.04211572 0.99910468 -0.00401326
vn -0.03387280 0.99941917 -0.00373537
vn -0.03387280 0.99941917 -0.00373537
vn -0.03387280 0.99941917 -0.00373537
vn -0.04897261 0.99880012 -0.00000068
vn -0.05128875 0.99867419 0.00439600
vn -0.05178586 0.99865821 -0.00000054
vn -0.04535049 0.99897102 -0.00047638
vn -0.02366174 0.99968006 -0.00893887
vn -0.02366174 0.99968006 -0.00893887
vn -0.02366174 0.99968006 -0.00893887
vn -0.02276886 0.99973685 -0.00279474
vn -0.02276886 0.99973685 -0.00279474
vn -0.02276886 0.99973685 -0.00279474
vn -0.01251007 0.99991103 -0.00463031
vn -0.01251007 0.99991103 -0.00463031
vn -0.01251007 0.99991103 -0.00463031
vn -0.05128820 0.99867420 -0.00440082
vn -0.05593264 0.99843250 0.00201945
vn -0.05593264 0.99843250 0.00201945
vn -0.04535146 0.99897098 0.00047615
vn -0.04212198 0.99910441 0.00401347
vn -0.04212198 0.99910441 0.00401347
vn -0.04212198 0.99910441 0.00401347
vn -0.03387279 0.99941917 0.00373536
vn -0.03387279 0.99941917 0.00373536
vn -0.03387279 0.99941917 0.00373536
vn -0.03302989 0.99943390 0.00639611
vn -0.03302989 0.99943390 0.00639611
vn -0.03302989 0.99943390 0.00639611
vn -0.02276447 0.99973694 0.00279922
vn -0.02276447 0.99973694 0.00279922
vn -0.02276447 0.99973694 0.00279922
vn -0.02364783 0.99968025 0.00895405
vn -0.02364783 0.99968025 0.00895405
vn -0.02364783 0.99968025 0.00895405
vn -0.01251007 0.99991100 0.00463643
vn -0.01251007 0.99991100 0.00463643
vn -0.01251007 0.99991100 0.00463643
f 1//1 2//2 3//3
f 4//4 5//5 6//6
f 7//7 8//8 9//9
f 10//10 11//11 12//12
f 13//13 14//14 15//15
f 13//13 16//16 14//14
f 17//17 18//18 19//19
f 20//20 21//21 22//22
f 23//23 24//24 25//25
f 26//26 13//13 15//15
f 27//27 3//3 28//28
f 29//29 13//13 26//26
f 30//30 31//31 32//32
f 33//33 34//34 35//35
f 36//36 37//37 38//38
f 39//39 40//40 41//41
f 42//42 43//43 44//44
f 45//45 46//46 47//47
