# https://github.com/mikedh/trimesh
v 0.00851262 -0.06976872 0.08385467
v 0.00504535 -0.06921941 0.08469134
v 0.00698495 -0.06952124 0.08467298
v 0.00997507 -0.07000583 0.08260095
v 0.00199771 -0.06871587 0.08143609
v 0.00851262 -0.06976872 0.08385467
v 0.01150012 -0.07025289 0.08050322
v 0.01269811 -0.07044750 0.07722634
v 0.01514703 -0.07084399 0.05995994
v 0.00962049 -0.06998443 0.01321995
v 0.01883560 -0.07144063 0.03064531
v 0.02077800 -0.07182747 0.01317638
v 0.00851262 -0.06976872 0.08385467
v 0.00397718 -0.06903547 0.08429932
v 0.00504535 -0.06921941 0.08469134
v 0.00851262 -0.06976872 0.08385467
v 0.00199771 -0.06871587 0.08143609
v 0.00264132 -0.06882834 0.08303332
v 0.00851262 -0.06976872 0.08385467
v 0.00264132 -0.06882834 0.08303332
v 0.00397718 -0.06903547 0.08429932
v 0.01707684 -0.07513368 0.01548856
v 0.01220303 -0.07439285 0.01004463
v 0.01758706 -0.07525587 0.01009953
v 0.01474452 -0.07478463 0.03462100
v 0.01220303 -0.07439285 0.01004463
v 0.01707684 -0.07513368 0.01548856
v 0.01372349 -0.07460314 0.04318130
v 0.01220303 -0.07439285 0.01004463
v 0.01474452 -0.07478463 0.03462100
v 0.00448495 -0.07314735 0.08143258
v 0.01185518 -0.07429707 0.05801850
v 0.01092690 -0.07412713 0.06547534
v 0.00448495 -0.07314735 0.08143258
v 0.01092690 -0.07412713 0.06547534
v 0.00989956 -0.07396638 0.07250583
v 0.00448495 -0.07314735 0.08143258
v 0.00989956 -0.07396638 0.07250583
v 0.00910777 -0.07388782 0.07665115
v 0.00714761 -0.07356572 0.08069747
v 0.00910777 -0.07388782 0.07665115
v 0.00714761 -0.07356572 0.08069747
v 0.00537658 -0.07329213 0.08172398
v 0.00448495 -0.07314735 0.08143258
v 0.01185518 -0.07429707 0.05801850
v 0.01185518 -0.07429707 0.05801850
v 0.01282399 -0.07446104 0.05036085
v 0.01282399 -0.07446104 0.05036085
v 0.01372349 -0.07460314 0.04318130
v 0.00910777 -0.07388782 0.07665115
v 0.00989956 -0.07396638 0.07250583
v 0.01037544 -0.07370847 0.07395976
v 0.01590198 -0.07447409 0.03328830
v 0.01535671 -0.07453674 0.03596973
v 0.01474452 -0.07478463 0.03462100
v 0.01474452 -0.07478463 0.03462100
v 0.01444405 -0.07462364 0.04009240
v 0.01372349 -0.07460314 0.04318130
v 0.01372349 -0.07460314 0.04318130
v 0.01444405 -0.07462364 0.04009240
v 0.01429224 -0.07442402 0.04389107
v 0.01777583 -0.07492834 0.01526618
v 0.01590198 -0.07447409 0.03328830
v 0.01707684 -0.07513368 0.01548856
v 0.01816982 -0.07475686 0.01470792
v 0.01590198 -0.07447409 0.03328830
v 0.01777583 -0.07492834 0.01526618
v 0.01590198 -0.07447409 0.03328830
v 0.01474452 -0.07478463 0.03462100
v 0.01707684 -0.07513368 0.01548856
v 0.01305258 -0.07377481 0.05768120
v 0.01327633 -0.07404530 0.05404853
v 0.01412940 -0.07398837 0.04914921
v 0.01412940 -0.07398837 0.04914921
v 0.01327633 -0.07404530 0.05404853
v 0.01355159 -0.07428228 0.04993957
v 0.01060897 -0.07326012 0.07592684
v 0.00994015 -0.07349181 0.07767629
v 0.01037544 -0.07370847 0.07395976
v 0.00994015 -0.07349181 0.07767629
v 0.00910777 -0.07388782 0.07665115
v 0.01037544 -0.07370847 0.07395976
v 0.01160669 -0.07391268 0.06519895
v 0.01217705 -0.07369750 0.06378978
v 0.01138865 -0.07358831 0.06939750
v 0.01138865 -0.07358831 0.06939750
v 0.01037544 -0.07370847 0.07395976
v 0.01058959 -0.07388257 0.07086330
v 0.01060897 -0.07326012 0.07592684
v 0.01037544 -0.07370847 0.07395976
v 0.01138865 -0.07358831 0.06939750
v 0.00924438 -0.07315665 0.07978653
v 0.00858879 -0.07364135 0.07938295
v 0.00994015 -0.07349181 0.07767629
v 0.01474452 -0.07478463 0.03462100
v 0.01535671 -0.07453674 0.03596973
v 0.01444405 -0.07462364 0.04009240
v 0.00994015 -0.07349181 0.07767629
v 0.00858879 -0.07364135 0.07938295
v 0.00910777 -0.07388782 0.07665115
v 0.01535671 -0.07453674 0.03596973
v 0.01510995 -0.07416999 0.04119247
v 0.01444405 -0.07462364 0.04009240
v 0.00858879 -0.07364135 0.07938295
v 0.00714761 -0.07356572 0.08069747
v 0.00910777 -0.07388782 0.07665115
v 0.01444405 -0.07462364 0.04009240
v 0.01510995 -0.07416999 0.04119247
v 0.01429224 -0.07442402 0.04389107
v 0.01355159 -0.07428228 0.04993957
v 0.01429224 -0.07442402 0.04389107
v 0.01412940 -0.07398837 0.04914921
v 0.01372349 -0.07460314 0.04318130
v 0.01429224 -0.07442402 0.04389107
v 0.01355159 -0.07428228 0.04993957
v 0.00924438 -0.07315665 0.07978653
v 0.00786901 -0.07302778 0.08148020
v 0.00858879 -0.07364135 0.07938295
v 0.00786901 -0.07302778 0.08148020
v 0.00714761 -0.07356572 0.08069747
v 0.00858879 -0.07364135 0.07938295
v 0.01355159 -0.07428228 0.04993957
v 0.01282399 -0.07446104 0.05036085
v 0.01372349 -0.07460314 0.04318130
v 0.01327633 -0.07404530 0.05404853
v 0.01266962 -0.07434439 0.05373764
v 0.01355159 -0.07428228 0.04993957
v 0.01355159 -0.07428228 0.04993957
v 0.01266962 -0.07434439 0.05373764
v 0.01282399 -0.07446104 0.05036085
v 0.01266962 -0.07434439 0.05373764
v 0.01327633 -0.07404530 0.05404853
v 0.01235061 -0.07414394 0.05838495
v 0.01305258 -0.07377481 0.05768120
v 0.01235061 -0.07414394 0.05838495
v 0.01327633 -0.07404530 0.05404853
v 0.00532037 -0.07313156 0.08223700
v 0.00714761 -0.07356572 0.08069747
v 0.00608158 -0.07273119 0.08276891
v 0.00608158 -0.07273119 0.08276891
v 0.00714761 -0.07356572 0.08069747
v 0.00786901 -0.07302778 0.08148020
v 0.00537658 -0.07329213 0.08172398
v 0.00714761 -0.07356572 0.08069747
v 0.00532037 -0.07313156 0.08223700
v 0.01510995 -0.07416999 0.04119247
v 0.01535671 -0.07453674 0.03596973
v 0.01590198 -0.07447409 0.03328830
v 0.01217705 -0.07369750 0.06378978
v 0.01235061 -0.07414394 0.05838495
v 0.01305258 -0.07377481 0.05768120
v 0.01160562 -0.07418102 0.06158810
v 0.01185518 -0.07429707 0.05801850
v 0.01235061 -0.07414394 0.05838495
v 0.01510995 -0.07416999 0.04119247
v 0.01160562 -0.07418102 0.06158810
v 0.01235061 -0.07414394 0.05838495
v 0.01217705 -0.07369750 0.06378978
v 0.01160562 -0.07418102 0.06158810
v 0.01217705 -0.07369750 0.06378978
v 0.01160669 -0.07391268 0.06519895
v 0.01282399 -0.07446104 0.05036085
v 0.01266962 -0.07434439 0.05373764
v 0.01185518 -0.07429707 0.05801850
v 0.01160669 -0.07391268 0.06519895
v 0.01070863 -0.07403004 0.06819522
v 0.01092690 -0.07412713 0.06547534
v 0.01138865 -0.07358831 0.06939750
v 0.01070863 -0.07403004 0.06819522
v 0.01160669 -0.07391268 0.06519895
v 0.01070863 -0.07403004 0.06819522
v 0.01138865 -0.07358831 0.06939750
v 0.01058959 -0.07388257 0.07086330
v 0.01185518 -0.07429707 0.05801850
v 0.01160562 -0.07418102 0.06158810
v 0.01092690 -0.07412713 0.06547534
v 0.01058959 -0.07388257 0.07086330
v 0.01266962 -0.07434439 0.05373764
v 0.01235061 -0.07414394 0.05838495
v 0.01185518 -0.07429707 0.05801850
v 0.01160669 -0.07391268 0.06519895
v 0.01092690 -0.07412713 0.06547534
v 0.01160562 -0.07418102 0.06158810
v 0.01058959 -0.07388257 0.07086330
v 0.00989956 -0.07396638 0.07250583
v 0.01070863 -0.07403004 0.06819522
v 0.01092690 -0.07412713 0.06547534
v 0.01070863 -0.07403004 0.06819522
v 0.00989956 -0.07396638 0.07250583
v 0.01816982 -0.07475686 0.01470792
v 0.01758706 -0.07525587 0.01009953
v 0.01843833 -0.07500213 0.01011735
v 0.01816982 -0.07475686 0.01470792
v 0.01707684 -0.07513368 0.01548856
v 0.01758706 -0.07525587 0.01009953
v 0.01777583 -0.07492834 0.01526618
v 0.01707684 -0.07513368 0.01548856
v 0.01816982 -0.07475686 0.01470792
v 0.00393575 -0.07247561 0.08216196
v 0.00336707 -0.07232964 0.08104532
v 0.00391525 -0.07287514 0.08107870
v 0.00473374 -0.07243603 0.08280187
v 0.00393575 -0.07247561 0.08216196
v 0.00532037 -0.07313156 0.08223700
v 0.00532037 -0.07313156 0.08223700
v 0.00448495 -0.07314735 0.08143258
v 0.00537658 -0.07329213 0.08172398
v 0.00393575 -0.07247561 0.08216196
v 0.00391525 -0.07287514 0.08107870
v 0.00448495 -0.07314735 0.08143258
v 0.00608158 -0.07273119 0.08276891
v 0.00473374 -0.07243603 0.08280187
v 0.00532037 -0.07313156 0.08223700
v 0.00393575 -0.07247561 0.08216196
v 0.00448495 -0.07314735 0.08143258
v 0.00532037 -0.07313156 0.08223700
v 0.00336707 -0.07232964 0.08104532
v 0.01111567 -0.07311099 0.01015639
v 0.01220303 -0.07439285 0.01004463
v 0.00391525 -0.07287514 0.08107870
v 0.00336707 -0.07232964 0.08104532
v 0.01220303 -0.07439285 0.01004463
v 0.00448495 -0.07314735 0.08143258
v 0.00391525 -0.07287514 0.08107870
v 0.01220303 -0.07439285 0.01004463
v 0.02077800 -0.07182747 0.01317638
v 0.02039319 -0.07252991 0.01165241
v 0.01019859 -0.07098770 0.01139605
v 0.02077800 -0.07182747 0.01317638
v 0.01019859 -0.07098770 0.01139605
v 0.00962049 -0.06998443 0.01321995
v 0.01843833 -0.07500213 0.01011735
v 0.01758706 -0.07525587 0.01009953
v 0.01220303 -0.07439285 0.01004463
v 0.01843833 -0.07500213 0.01011735
v 0.01220303 -0.07439285 0.01004463
v 0.01111567 -0.07311099 0.01015639
v 0.01959967 -0.07366377 0.01056474
v 0.01843833 -0.07500213 0.01011735
v 0.01111567 -0.07311099 0.01015639
v 0.01959967 -0.07366377 0.01056474
v 0.01111567 -0.07311099 0.01015639
v 0.01019859 -0.07098770 0.01139605
v 0.02039319 -0.07252991 0.01165241
v 0.01959967 -0.07366377 0.01056474
v 0.01019859 -0.07098770 0.01139605
v 0.01150012 -0.07025289 0.08050322
v 0.00994015 -0.07349181 0.07767629
v 0.01269811 -0.07044750 0.07722634
v 0.01510995 -0.07416999 0.04119247
v 0.01514703 -0.07084399 0.05995994
v 0.01412940 -0.07398837 0.04914921
v 0.01883560 -0.07144063 0.03064531
v 0.01883560 -0.07144063 0.03064531
v 0.01510995 -0.07416999 0.04119247
v 0.01590198 -0.07447409 0.03328830
v 0.01816982 -0.07475686 0.01470792
v 0.00994015 -0.07349181 0.07767629
v 0.01060897 -0.07326012 0.07592684
v 0.01269811 -0.07044750 0.07722634
v 0.01883560 -0.07144063 0.03064531
v 0.01816982 -0.07475686 0.01470792
v 0.02077800 -0.07182747 0.01317638
v 0.01959967 -0.07366377 0.01056474
v 0.02039319 -0.07252991 0.01165241
v 0.01843833 -0.07500213 0.01011735
v 0.01959967 -0.07366377 0.01056474
v 0.01816982 -0.07475686 0.01470792
v 0.01269811 -0.07044750 0.07722634
v 0.01138865 -0.07358831 0.06939750
v 0.01514703 -0.07084399 0.05995994
v 0.01060897 -0.07326012 0.07592684
v 0.01138865 -0.07358831 0.06939750
v 0.01217705 -0.07369750 0.06378978
v 0.01514703 -0.07084399 0.05995994
v 0.00608158 -0.07273119 0.08276891
v 0.00786901 -0.07302778 0.08148020
v 0.00851262 -0.06976872 0.08385467
v 0.00851262 -0.06976872 0.08385467
v 0.00786901 -0.07302778 0.08148020
v 0.00997507 -0.07000583 0.08260095
v 0.01217705 -0.07369750 0.06378978
v 0.01305258 -0.07377481 0.05768120
v 0.01514703 -0.07084399 0.05995994
v 0.00997507 -0.07000583 0.08260095
v 0.00924438 -0.07315665 0.07978653
v 0.01150012 -0.07025289 0.08050322
v 0.00786901 -0.07302778 0.08148020
v 0.00924438 -0.07315665 0.07978653
v 0.00997507 -0.07000583 0.08260095
v 0.00924438 -0.07315665 0.07978653
v 0.00994015 -0.07349181 0.07767629
v 0.01150012 -0.07025289 0.08050322
v 0.01305258 -0.07377481 0.05768120
v 0.00396091 -0.07082760 0.08323442
v 0.00264132 -0.06882834 0.08303332
v 0.00393575 -0.07247561 0.08216196
v 0.00396091 -0.07082760 0.08323442
v 0.00393575 -0.07247561 0.08216196
v 0.00473374 -0.07243603 0.08280187
v 0.00574219 -0.07099747 0.08383935
v 0.00698495 -0.06952124 0.08467298
v 0.00504535 -0.06921941 0.08469134
v 0.00608158 -0.07273119 0.08276891
v 0.00698495 -0.06952124 0.08467298
v 0.00574219 -0.07099747 0.08383935
v 0.00504535 -0.06921941 0.08469134
v 0.00396091 -0.07082760 0.08323442
v 0.00473374 -0.07243603 0.08280187
v 0.00396091 -0.07082760 0.08323442
v 0.00397718 -0.06903547 0.08429932
v 0.00264132 -0.06882834 0.08303332
v 0.00504535 -0.06921941 0.08469134
v 0.00397718 -0.06903547 0.08429932
v 0.00396091 -0.07082760 0.08323442
v 0.00574219 -0.07099747 0.08383935
v 0.00473374 -0.07243603 0.08280187
v 0.00608158 -0.07273119 0.08276891
v 0.00574219 -0.07099747 0.08383935
v 0.00504535 -0.06921941 0.08469134
v 0.00473374 -0.07243603 0.08280187
v 0.00264132 -0.06882834 0.08303332
v 0.00336707 -0.07232964 0.08104532
v 0.00393575 -0.07247561 0.08216196
v 0.00264132 -0.06882834 0.08303332
v 0.00199771 -0.06871587 0.08143609
v 0.00336707 -0.07232964 0.08104532
v 0.00608158 -0.07273119 0.08276891
v 0.00851262 -0.06976872 0.08385467
v 0.00698495 -0.06952124 0.08467298
v 0.00962049 -0.06998443 0.01321995
v 0.00336707 -0.07232964 0.08104532
v 0.00199771 -0.06871587 0.08143609
v 0.01111567 -0.07311099 0.01015639
v 0.00336707 -0.07232964 0.08104532
v 0.00962049 -0.06998443 0.01321995
v 0.01019859 -0.07098770 0.01139605
v 0.01111567 -0.07311099 0.01015639
v 0.00962049 -0.06998443 0.01321995
vn 0.15364274 0.98805378 -0.01198455
vn 0.15364274 0.98805378 -0.01198455
vn 0.15364274 0.98805378 -0.01198455
vn 0.15966562 0.98717112 -0.00026050
vn 0.15947685 0.98720163 -0.00026858
vn 0.15968835 0.98716739 -0.00042032
vn 0.15965186 0.98717335 -0.00024134
vn 0.15971802 0.98716267 -0.00008322
vn 0.15875059 0.98731858 -0.00051828
vn 0.16102192 0.98694751 -0.00256071
vn 0.15797269 0.98744295 -0.00102269
vn 0.16296020 0.98662560 -0.00372856
vn 0.16169275 0.98658830 0.02233780
vn 0.16169275 0.98658830 0.02233780
vn 0.16169275 0.98658830 0.02233780
vn 0.15730893 0.98753031 0.00614709
vn 0.15730893 0.98753031 0.00614709
vn 0.15730893 0.98753031 0.00614709
vn 0.15899898 0.98725900 -0.00624467
vn 0.15899898 0.98725900 -0.00624467
vn 0.15899898 0.98725900 -0.00624467
vn -0.15834192 -0.98735664 0.00739567
vn -0.15834192 -0.98735664 0.00739567
vn -0.15834192 -0.98735664 0.00739567
vn -0.15000531 -0.98868516 -0.00024867
vn -0.15023103 -0.98865092 -0.00006282
vn -0.15000531 -0.98868516 -0.00024867
vn -0.16451991 -0.98637292 0.00128917
vn -0.16343292 -0.98655378 0.00115198
vn -0.16451991 -0.98637292 0.00128917
vn -0.13697761 -0.99055875 0.00552275
vn -0.13697761 -0.99055875 0.00552275
vn -0.13697761 -0.99055875 0.00552275
vn -0.15241007 -0.98831355 0.00273868
vn -0.14796162 -0.98899261 0.00099234
vn -0.14796162 -0.98899261 0.00099234
vn -0.17253982 -0.98489886 -0.01429140
vn -0.17253982 -0.98489886 -0.01429140
vn -0.17253982 -0.98489886 -0.01429140
vn -0.15414885 -0.98803964 0.00397587
vn -0.15414885 -0.98803964 0.00397587
vn -0.15753261 -0.98747633 -0.00860109
vn -0.15753261 -0.98747633 -0.00860109
vn -0.15753261 -0.98747633 -0.00860109
vn -0.15141523 -0.98846986 0.00087554
vn -0.16068607 -0.98700524 0.00080540
vn -0.16068607 -0.98700524 0.00080540
vn -0.15095246 -0.98854081 0.00065288
vn -0.15095246 -0.98854081 0.00065288
vn 0.29152678 -0.95371479 0.07375799
vn 0.29147228 -0.95372986 0.07377851
vn 0.29151717 -0.95371744 0.07376161
vn 0.30038457 -0.95302804 0.03881580
vn 0.30038457 -0.95302804 0.03881580
vn 0.30038457 -0.95302804 0.03881580
vn 0.12665679 -0.99128863 0.03612351
vn 0.12665679 -0.99128863 0.03612351
vn 0.12665679 -0.99128863 0.03612351
vn 0.23066322 -0.97116640 0.06025201
vn 0.23066322 -0.97116640 0.06025201
vn 0.23066322 -0.97116640 0.06025201
vn 0.29748332 -0.95314406 0.05495517
vn 0.29748332 -0.95314406 0.05495517
vn 0.29748332 -0.95314406 0.05495517
vn 0.48222597 -0.87307110 0.07214551
vn 0.48222597 -0.87307110 0.07214551
vn 0.48222597 -0.87307110 0.07214551
vn 0.31845704 -0.94627669 0.05608505
vn 0.31845704 -0.94627669 0.05608505
vn 0.31845704 -0.94627669 0.05608505
vn 0.60477872 -0.79057200 0.09611773
vn 0.60477872 -0.79057200 0.09611773
vn 0.60477872 -0.79057200 0.09611773
vn 0.54116839 -0.83665730 0.08450638
vn 0.54116839 -0.83665730 0.08450638
vn 0.54116839 -0.83665730 0.08450638
vn 0.58003286 -0.80644221 0.11494710
vn 0.58003286 -0.80644221 0.11494710
vn 0.58003286 -0.80644221 0.11494710
vn 0.33143696 -0.93882814 0.09354814
vn 0.33143696 -0.93882814 0.09354814
vn 0.33143696 -0.93882814 0.09354814
vn 0.54368315 -0.83415777 0.09267931
vn 0.54368315 -0.83415777 0.09267931
vn 0.54368315 -0.83415777 0.09267931
vn 0.47347647 -0.87697603 0.08205532
vn 0.47347647 -0.87697603 0.08205532
vn 0.47347647 -0.87697603 0.08205532
vn 0.59428319 -0.79655879 0.11100264
vn 0.59428319 -0.79655879 0.11100264
vn 0.59428319 -0.79655879 0.11100264
vn 0.45131165 -0.84623396 0.28320642
vn 0.45131165 -0.84623396 0.28320642
vn 0.45131165 -0.84623396 0.28320642
vn 0.29003968 -0.95599995 0.04405757
vn 0.29003968 -0.95599995 0.04405757
vn 0.29003968 -0.95599995 0.04405757
vn 0.28063472 -0.94969688 0.13899640
vn 0.28063472 -0.94969688 0.13899640
vn 0.28063472 -0.94969688 0.13899640
vn 0.46272640 -0.88252819 0.08383486
vn 0.46272640 -0.88252819 0.08383486
vn 0.46272640 -0.88252819 0.08383486
vn 0.03587031 -0.99468104 0.09655544
vn 0.03587031 -0.99468104 0.09655544
vn 0.03587031 -0.99468104 0.09655544
vn 0.48598567 -0.87152986 0.06521994
vn 0.48598567 -0.87152986 0.06521994
vn 0.48598567 -0.87152986 0.06521994
vn 0.54267773 -0.83552347 0.08603145
vn 0.54328473 -0.83513033 0.08601768
vn 0.54270478 -0.83550596 0.08603084
vn 0.24021713 -0.96931842 0.05212993
vn 0.24021713 -0.96931842 0.05212993
vn 0.24021713 -0.96931842 0.05212993
vn 0.38791293 -0.84019504 0.37894044
vn 0.38791293 -0.84019504 0.37894044
vn 0.38791293 -0.84019504 0.37894044
vn 0.27832122 -0.89189579 0.35645364
vn 0.27832122 -0.89189579 0.35645364
vn 0.27832122 -0.89189579 0.35645364
vn 0.26681162 -0.96231909 0.05247407
vn 0.26681162 -0.96231909 0.05247407
vn 0.26681162 -0.96231909 0.05247407
vn 0.40756990 -0.90968335 0.07976831
vn 0.40756990 -0.90968335 0.07976831
vn 0.40756990 -0.90968335 0.07976831
vn 0.26301327 -0.96372738 0.04531631
vn 0.26301327 -0.96372738 0.04531631
vn 0.26301327 -0.96372738 0.04531631
vn 0.41309984 -0.90817860 0.06752886
vn 0.41309984 -0.90817860 0.06752886
vn 0.41309984 -0.90817860 0.06752886
vn 0.53660479 -0.83841438 0.09548104
vn 0.53660479 -0.83841438 0.09548104
vn 0.53660479 -0.83841438 0.09548104
vn 0.15905677 -0.88466136 0.43826388
vn 0.15905677 -0.88466136 0.43826388
vn 0.15905677 -0.88466136 0.43826388
vn 0.17406228 -0.87908833 0.44374096
vn 0.17406228 -0.87908833 0.44374096
vn 0.17406228 -0.87908833 0.44374096
vn 0.02740682 -0.95312933 0.30131935
vn 0.02740682 -0.95312933 0.30131935
vn 0.02740682 -0.95312933 0.30131935
vn 0.51236339 -0.85462892 0.08422095
vn 0.51236339 -0.85462892 0.08422095
vn 0.51236339 -0.85462892 0.08422095
vn 0.53037150 -0.84332139 0.08668971
vn 0.53037150 -0.84332139 0.08668971
vn 0.53037150 -0.84332139 0.08668971
vn 0.26126716 -0.96399104 0.04960591
vn 0.26126716 -0.96399104 0.04960591
vn 0.26126716 -0.96399104 0.04960591
vn 0.54330801 -0.83511524 0.08601715
vn 0.42354794 -0.90158223 0.08807173
vn 0.42354794 -0.90158223 0.08807173
vn 0.42354794 -0.90158223 0.08807173
vn 0.48789472 -0.87051269 0.06454765
vn 0.48789472 -0.87051269 0.06454765
vn 0.48789472 -0.87051269 0.06454765
vn 0.16029211 -0.98620117 0.04139680
vn 0.16029211 -0.98620117 0.04139680
vn 0.16029211 -0.98620117 0.04139680
vn 0.32226921 -0.94477087 0.05958655
vn 0.32226921 -0.94477087 0.05958655
vn 0.32226921 -0.94477087 0.05958655
vn 0.42346257 -0.90126859 0.09162080
vn 0.42346257 -0.90126859 0.09162080
vn 0.42346257 -0.90126859 0.09162080
vn 0.45429836 -0.88814549 0.06935835
vn 0.45429836 -0.88814549 0.06935835
vn 0.45429836 -0.88814549 0.06935835
vn 0.17518907 -0.98354108 0.04422355
vn 0.17518907 -0.98354108 0.04422355
vn 0.17518907 -0.98354108 0.04422355
vn 0.29146037 -0.95373315 0.07378299
vn 0.25462037 -0.96523279 0.05911110
vn 0.25462037 -0.96523279 0.05911110
vn 0.25462037 -0.96523279 0.05911110
vn 0.32587514 -0.94282009 0.06996914
vn 0.32587514 -0.94282009 0.06996914
vn 0.32587514 -0.94282009 0.06996914
vn 0.27179710 -0.96014369 0.06519529
vn 0.27179710 -0.96014369 0.06519529
vn 0.27179710 -0.96014369 0.06519529
vn 0.19093302 -0.98031267 0.05031551
vn 0.19093302 -0.98031267 0.05031551
vn 0.19093302 -0.98031267 0.05031551
vn 0.28370006 -0.95652031 0.06769917
vn 0.28370006 -0.95652031 0.06769917
vn 0.28370006 -0.95652031 0.06769917
vn 0.36047596 -0.93113130 0.05524117
vn 0.36047596 -0.93113130 0.05524117
vn 0.36047596 -0.93113130 0.05524117
vn 0.24320163 -0.96203360 -0.12387219
vn 0.24320163 -0.96203360 -0.12387219
vn 0.24320163 -0.96203360 -0.12387219
vn -0.68864301 -0.67597622 0.26234891
vn -0.68864301 -0.67597622 0.26234891
vn -0.68864301 -0.67597622 0.26234891
vn -0.38659805 -0.75555949 0.52884005
vn -0.38659805 -0.75555949 0.52884005
vn -0.38659805 -0.75555949 0.52884005
vn -0.23863388 -0.93392319 0.26616039
vn -0.23863388 -0.93392319 0.26616039
vn -0.23863388 -0.93392319 0.26616039
vn -0.55554873 -0.77664716 0.29695926
vn -0.55554873 -0.77664716 0.29695926
vn -0.55554873 -0.77664716 0.29695926
vn -0.13378026 -0.69030325 0.71104448
vn -0.13378026 -0.69030325 0.71104448
vn -0.13378026 -0.69030325 0.71104448
vn -0.40450190 -0.80398686 0.43587079
vn -0.40450190 -0.80398686 0.43587079
vn -0.40450190 -0.80398686 0.43587079
vn -0.76363744 -0.64110865 -0.07640395
vn -0.76363744 -0.64110865 -0.07640395
vn -0.76363744 -0.64110865 -0.07640395
vn -0.70175449 -0.70928759 -0.06672147
vn -0.70175449 -0.70928759 -0.06672147
vn -0.70175449 -0.70928759 -0.06672147
vn -0.41614718 -0.90883038 -0.02913531
vn -0.41614718 -0.90883038 -0.02913531
vn -0.41614718 -0.90883038 -0.02913531
vn 0.14492223 0.88416416 -0.44412981
vn 0.14492223 0.88416416 -0.44412981
vn 0.14492223 0.88416416 -0.44412981
vn 0.14456716 0.88562191 -0.44133226
vn 0.14456716 0.88562191 -0.44133226
vn 0.14456716 0.88562191 -0.44133226
vn 0.01394629 0.02341432 -0.99962857
vn 0.01394629 0.02341432 -0.99962857
vn 0.01394629 0.02341432 -0.99962857
vn 0.02187862 0.10524024 -0.99420612
vn 0.02187862 0.10524024 -0.99420612
vn 0.02187862 0.10524024 -0.99420612
vn 0.06364266 0.26628542 -0.96179087
vn 0.06364266 0.26628542 -0.96179087
vn 0.06364266 0.26628542 -0.96179087
vn 0.07507412 0.52675863 -0.84669311
vn 0.07507412 0.52675863 -0.84669311
vn 0.07507412 0.52675863 -0.84669311
vn 0.11642444 0.64390919 -0.75619198
vn 0.11642444 0.64390919 -0.75619198
vn 0.11642444 0.64390919 -0.75619198
vn 0.72816221 -0.61492741 0.30272773
vn 0.72816221 -0.61492741 0.30272773
vn 0.72816221 -0.61492741 0.30272773
vn 0.77069303 -0.62768966 0.10971760
vn 0.76698684 -0.63189530 0.11153258
vn 0.77128426 -0.62695683 0.10975306
vn 0.77059207 -0.62780984 0.10973909
vn 0.75800704 -0.64422883 0.10195365
vn 0.75759785 -0.64490296 0.10072574
vn 0.75776037 -0.64463568 0.10121291
vn 0.75813404 -0.64401876 0.10233573
vn 0.74079622 -0.64182077 0.19820960
vn 0.74079622 -0.64182077 0.19820960
vn 0.74079622 -0.64182077 0.19820960
vn 0.76842001 -0.63217257 0.09944109
vn 0.76835332 -0.63231388 0.09905723
vn 0.76840826 -0.63231532 0.09862095
vn 0.76841929 -0.63240481 0.09795896
vn 0.76952095 -0.63126411 0.09665986
vn 0.73971158 -0.66827411 0.07897154
vn 0.73971158 -0.66827411 0.07897154
vn 0.73971158 -0.66827411 0.07897154
vn 0.76848106 -0.62786972 0.12335509
vn 0.76842120 -0.62793580 0.12339161
vn 0.76840179 -0.62795723 0.12340346
vn 0.76852579 -0.62782033 0.12332779
vn 0.76378842 -0.63426450 0.11973217
vn 0.76378842 -0.63426450 0.11973217
vn 0.76378842 -0.63426450 0.11973217
vn 0.40594239 -0.58917240 0.69863199
vn 0.40594239 -0.58917240 0.69863199
vn 0.40594239 -0.58917240 0.69863199
vn 0.47537846 -0.57746362 0.66374022
vn 0.47537846 -0.57746362 0.66374022
vn 0.47537846 -0.57746362 0.66374022
vn 0.76255939 -0.63618613 0.11734732
vn 0.76255939 -0.63618613 0.11734732
vn 0.76255939 -0.63618613 0.11734732
vn 0.61077242 -0.60154696 0.51487698
vn 0.61077242 -0.60154696 0.51487698
vn 0.61077242 -0.60154696 0.51487698
vn 0.59262159 -0.60866870 0.52756238
vn 0.59262159 -0.60866870 0.52756238
vn 0.59262159 -0.60866870 0.52756238
vn 0.70355646 -0.62843423 0.33178112
vn 0.70355646 -0.62843423 0.33178112
vn 0.70355646 -0.62843423 0.33178112
vn 0.76501980 -0.63411767 0.11242553
vn -0.68482045 -0.39009449 0.61550568
vn -0.68482045 -0.39009449 0.61550568
vn -0.68482045 -0.39009449 0.61550568
vn -0.54440687 -0.45167066 0.70683433
vn -0.54440687 -0.45167066 0.70683433
vn -0.54440687 -0.45167066 0.70683433
vn -0.06173416 -0.45087030 0.89045206
vn -0.06173416 -0.45087030 0.89045206
vn -0.06173416 -0.45087030 0.89045206
vn 0.04338434 -0.51869804 0.85385604
vn 0.04338434 -0.51869804 0.85385604
vn 0.04338434 -0.51869804 0.85385604
vn -0.43753595 -0.42354696 0.79320254
vn -0.43753595 -0.42354696 0.79320254
vn -0.43753595 -0.42354696 0.79320254
vn -0.66746672 -0.37589504 0.64279942
vn -0.66746672 -0.37589504 0.64279942
vn -0.66746672 -0.37589504 0.64279942
vn -0.37425896 -0.47119008 0.79869276
vn -0.37425896 -0.47119008 0.79869276
vn -0.37425896 -0.47119008 0.79869276
vn -0.09700014 -0.53655669 0.83827077
vn -0.09700014 -0.53655669 0.83827077
vn -0.09700014 -0.53655669 0.83827077
vn -0.18924059 -0.48364399 0.85456217
vn -0.18924059 -0.48364399 0.85456217
vn -0.18924059 -0.48364399 0.85456217
vn -0.84064441 -0.38849788 0.37734119
vn -0.84064441 -0.38849788 0.37734119
vn -0.84064441 -0.38849788 0.37734119
vn -0.87195263 -0.36561629 0.32561225
vn -0.87195263 -0.36561629 0.32561225
vn -0.87195263 -0.36561629 0.32561225
vn 0.32406186 -0.54844448 0.77083887
vn 0.32406186 -0.54844448 0.77083887
vn 0.32406186 -0.54844448 0.77083887
vn -0.93408050 -0.34335248 -0.09799331
vn -0.93408050 -0.34335248 -0.09799331
vn -0.93408050 -0.34335248 -0.09799331
vn -0.93177106 -0.34957058 -0.09799539
vn -0.93177106 -0.34957058 -0.09799539
vn -0.93177106 -0.34957058 -0.09799539
vn -0.93416683 -0.33970711 -0.10923096
vn -0.93416683 -0.33970711 -0.10923096
vn -0.93416683 -0.33970711 -0.10923096
f 1//1 2//2 3//3
f 4//4 5//5 6//6
f 7//7 5//5 4//4
f 8//8 5//5 7//7
f 9//9 5//5 8//8
f 10//10 9//9 11//11
f 10//10 5//5 9//9
f 12//12 10//10 11//11
f 13//13 14//14 15//15
f 16//16 17//17 18//18
f 19//19 20//20 21//21
f 22//22 23//23 24//24
f 25//25 26//26 27//27
f 28//28 29//29 30//30
f 31//31 32//32 33//33
f 34//34 35//35 36//36
f 37//37 38//38 39//39
f 40//40 34//34 41//41
f 42//42 43//43 44//44
f 34//34 26//26 45//45
f 46//46 29//29 47//47
f 48//48 26//26 49//49
f 50//50 51//51 52//52
f 53//53 54//54 55//55
f 56//56 57//57 58//58
f 59//59 60//60 61//61
f 62//62 63//63 64//64
f 65//65 66//66 67//67
f 68//68 69//69 70//70
f 71//71 72//72 73//73
f 74//74 75//75 76//76
f 77//77 78//78 79//79
f 80//80 81//81 82//82
f 83//83 84//84 85//85
f 86//86 87//87 88//88
f 89//89 90//90 91//91
f 92//92 93//93 94//94
f 95//95 96//96 97//97
f 98//98 99//99 100//100
f 101//101 102//102 103//103
f 104//104 105//105 106//106
f 107//107 108//108 109//109
f 110//110 111//111 112//112
f 113//113 114//114 115//115
f 116//116 117//117 118//118
f 119//119 120//120 121//121
f 122//122 123//123 124//124
f 125//125 126//126 127//127
f 128//128 129//129 130//130
f 131//131 132//132 133//133
f 134//134 135//135 136//136
f 137//137 138//138 139//139
f 140//140 141//141 142//142
f 143//143 144//144 145//145
f 146//146 147//147 148//148
f 149//149 150//150 151//151
f 152//152 153//153 154//154
f 112//112 111//111 155//155
f 156//156 157//157 158//158
f 159//159 160//160 161//161
f 162//162 163//163 164//164
f 165//165 166//166 167//167
f 168//168 169//169 170//170
f 171//171 172//172 173//173
f 174//174 175//175 176//176
f 177//177 52//52 51//51
f 178//178 179//179 180//180
f 181//181 182//182 183//183
f 184//184 185//185 186//186
f 187//187 188//188 189//189
f 190//190 191//191 192//192
f 193//193 194//194 195//195
f 196//196 197//197 198//198
f 199//199 200//200 201//201
f 202//202 203//203 204//204
f 205//205 206//206 207//207
f 208//208 209//209 210//210
f 211//211 212//212 213//213
f 214//214 215//215 216//216
f 217//217 218//218 219//219
f 220//220 221//221 222//222
f 223//223 224//224 225//225
f 226//226 227//227 228//228
f 229//229 230//230 231//231
f 232//232 233//233 234//234
f 235//235 236//236 237//237
f 238//238 239//239 240//240
f 241//241 242//242 243//243
f 244//244 245//245 246//246
f 247//247 248//248 249//249
f 250//250 251//251 252//252
f 251//251 250//250 253//253
f 254//254 255//255 256//256
f 257//257 254//254 256//256
f 258//258 259//259 260//260
f 261//261 262//262 263//263
f 263//263 264//264 265//265
f 262//262 264//264 263//263
f 266//266 267//267 268//268
f 269//269 270//270 271//271
f 272//272 270//270 269//269
f 273//273 274//274 275//275
f 276//276 277//277 278//278
f 279//279 280//280 281//281
f 282//282 283//283 284//284
f 285//285 286//286 287//287
f 288//288 289//289 290//290
f 291//291 292//292 293//293
f 294//294 252//252 251//251
f 295//295 296//296 297//297
f 298//298 299//299 300//300
f 301//301 302//302 303//303
f 304//304 305//305 306//306
f 307//307 308//308 309//309
f 310//310 311//311 312//312
f 313//313 314//314 315//315
f 316//316 317//317 318//318
f 319//319 320//320 321//321
f 322//322 323//323 324//324
f 325//325 326//326 327//327
f 328//328 329//329 330//330
f 331//331 332//332 333//333
f 334//334 335//335 336//336
f 337//337 338//338 339//339

