# https://github.com/mikedh/trimesh
v -0.06125724 0.05766332 0.04569995
v -0.06065952 0.05773919 0.04775089
v -0.06029701 0.05782383 0.04592394
v -0.05920284 0.05800122 0.04684329
v -0.06065952 0.05773919 0.04775089
v -0.05912768 0.05804908 0.04870063
v -0.05968451 0.05792707 0.04784679
v -0.05920284 0.05800122 0.04684329
v -0.05920284 0.05800122 0.04684329
v -0.05912768 0.05804908 0.04870063
v -0.05878680 0.05804795 0.04569995
v -0.06029701 0.05782383 0.04592394
v -0.05878680 0.05804795 0.04569995
v -0.06125724 0.05766332 0.04569995
v -0.05920284 0.05800122 0.04684329
v -0.05878680 0.05804795 0.04569995
v -0.06029701 0.05782383 0.04592394
v -0.06735098 0.05676424 0.04523676
v -0.07137674 0.05605870 0.03469645
v -0.07160872 0.05601567 0.03762418
v -0.06735098 0.05676424 0.04523676
v -0.07160872 0.05601567 0.03762418
v -0.07094275 0.05612564 0.04099160
v -0.05279189 0.05905759 0.02879768
v -0.05021303 0.05949723 0.03071999
v -0.05340725 0.05899381 0.02742379
v -0.05673027 0.05849248 0.02730000
v -0.05340725 0.05899381 0.02742379
v -0.05674535 0.05841821 0.02569699
v -0.05670166 0.05831563 0.02885562
v -0.05340725 0.05899381 0.02742379
v -0.05673027 0.05849248 0.02730000
v -0.05670166 0.05831563 0.02885562
v -0.05279189 0.05905759 0.02879768
v -0.05340725 0.05899381 0.02742379
v -0.06334662 0.05742079 0.02730000
v -0.06071949 0.05780237 0.02528983
v -0.06417751 0.05721563 0.02601116
v -0.06417751 0.05721563 0.02601116
v -0.06331795 0.05724406 0.02885562
v -0.06334662 0.05742079 0.02730000
v -0.06789791 0.05662149 0.02831262
v -0.06331795 0.05724406 0.02885562
v -0.06417751 0.05721563 0.02601116
v -0.06726866 0.05671525 0.02879863
v -0.06331795 0.05724406 0.02885562
v -0.06789791 0.05662149 0.02831262
v -0.05272746 0.05913347 0.04523885
v -0.05213660 0.05916440 0.04569929
v -0.04948049 0.05960273 0.04189956
v -0.07042545 0.05622726 0.03184801
v -0.06726866 0.05671525 0.02879863
v -0.06789791 0.05662149 0.02831262
v -0.05878680 0.05804795 0.04569995
v -0.05213660 0.05916440 0.04569929
v -0.05272746 0.05913347 0.04523885
v -0.05878680 0.05804795 0.04569995
v -0.05587404 0.05836546 0.04817986
v -0.05213660 0.05916440 0.04569929
v -0.05912768 0.05804908 0.04870063
v -0.05587404 0.05836546 0.04817986
v -0.05878680 0.05804795 0.04569995
v -0.06361991 0.05732131 0.04816710
v -0.05912768 0.05804908 0.04870063
v -0.06065952 0.05773919 0.04775089
v -0.06361991 0.05732131 0.04816710
v -0.06065952 0.05773919 0.04775089
v -0.06125724 0.05766332 0.04569995
v -0.06667488 0.05684477 0.04656350
v -0.06361991 0.05732131 0.04816710
v -0.06125724 0.05766332 0.04569995
v -0.06667488 0.05684477 0.04656350
v -0.06125724 0.05766332 0.04569995
v -0.06735098 0.05676424 0.04523676
v -0.06937378 0.05639016 0.04392457
v -0.06735098 0.05676424 0.04523676
v -0.07094275 0.05612564 0.04099160
v -0.06937378 0.05639016 0.04392457
v -0.06667488 0.05684477 0.04656350
v -0.06735098 0.05676424 0.04523676
v -0.06334662 0.05742079 0.02730000
v -0.05673027 0.05849248 0.02730000
v -0.05674535 0.05841821 0.02569699
v -0.06334662 0.05742079 0.02730000
v -0.05674535 0.05841821 0.02569699
v -0.06071949 0.05780237 0.02528983
v -0.05279189 0.05905759 0.02879768
v -0.05272746 0.05913347 0.04523885
v -0.05021303 0.05949723 0.03071999
v -0.05021303 0.05949723 0.03071999
v -0.05272746 0.05913347 0.04523885
v -0.04886162 0.05949527 0.03314316
v -0.04886162 0.05949527 0.03314316
v -0.05272746 0.05913347 0.04523885
v -0.04847437 0.05977505 0.03626090
v -0.04847437 0.05977505 0.03626090
v -0.05272746 0.05913347 0.04523885
v -0.04857558 0.05973881 0.03881663
v -0.04857558 0.05973881 0.03881663
v -0.05272746 0.05913347 0.04523885
v -0.04948049 0.05960273 0.04189956
v -0.05272746 0.05913347 0.04523885
v -0.06735098 0.05676424 0.04523676
v -0.06125724 0.05766332 0.04569995
v -0.05272746 0.05913347 0.04523885
v -0.06125724 0.05766332 0.04569995
v -0.05878680 0.05804795 0.04569995
v -0.06735098 0.05676424 0.04523676
v -0.06726866 0.05671525 0.02879863
v -0.07042545 0.05622726 0.03184801
v -0.07042545 0.05622726 0.03184801
v -0.05340725 0.05899381 0.02742379
v -0.05265146 0.05885434 0.02763551
v -0.05674535 0.05841821 0.02569699
v -0.06497454 0.05686593 0.02609163
v -0.06417751 0.05721563 0.02601116
v -0.06071949 0.05780237 0.02528983
v -0.06789791 0.05662149 0.02831262
v -0.06417751 0.05721563 0.02601116
v -0.06497454 0.05686593 0.02609163
v -0.06953501 0.05611819 0.03016126
v -0.07042545 0.05622726 0.03184801
v -0.06789791 0.05662149 0.02831262
v -0.05021303 0.05949723 0.03071999
v -0.04886162 0.05949527 0.03314316
v -0.05265146 0.05885434 0.02763551
v -0.07042545 0.05622726 0.03184801
v -0.07141375 0.05581545 0.03408694
v -0.07137674 0.05605870 0.03469645
v -0.07160872 0.05601567 0.03762418
v -0.07141375 0.05581545 0.03408694
v -0.07128268 0.05583751 0.04061758
v -0.05674535 0.05841821 0.02569699
v -0.05265146 0.05885434 0.02763551
v -0.05845654 0.05791175 0.02522009
v -0.05845654 0.05791175 0.02522009
v -0.06071949 0.05780237 0.02528983
v -0.05674535 0.05841821 0.02569699
v -0.06071949 0.05780237 0.02528983
v -0.05845654 0.05791175 0.02522009
v -0.06497454 0.05686593 0.02609163
v -0.05265146 0.05885434 0.02763551
v -0.05340725 0.05899381 0.02742379
v -0.05021303 0.05949723 0.03071999
v -0.06789791 0.05662149 0.02831262
v -0.06497454 0.05686593 0.02609163
v -0.06953501 0.05611819 0.03016126
v -0.07042545 0.05622726 0.03184801
v -0.06953501 0.05611819 0.03016126
v -0.07141375 0.05581545 0.03408694
v -0.07141375 0.05581545 0.03408694
v -0.07160872 0.05601567 0.03762418
v -0.07137674 0.05605870 0.03469645
v -0.04886162 0.05949527 0.03314316
v -0.04847437 0.05977505 0.03626090
v -0.04828810 0.05956029 0.03591614
v -0.06667488 0.05684477 0.04656350
v -0.06732857 0.05647689 0.04636693
v -0.06361991 0.05732131 0.04816710
v -0.05213660 0.05916440 0.04569929
v -0.05587404 0.05836546 0.04817986
v -0.05283087 0.05882090 0.04642122
v -0.04947757 0.05936127 0.04247272
v -0.04948049 0.05960273 0.04189956
v -0.05213660 0.05916440 0.04569929
v -0.06937378 0.05639016 0.04392457
v -0.07128268 0.05583751 0.04061758
v -0.06732857 0.05647689 0.04636693
v -0.04857558 0.05973881 0.03881663
v -0.04947757 0.05936127 0.04247272
v -0.04828810 0.05956029 0.03591614
v -0.04847437 0.05977505 0.03626090
v -0.04857558 0.05973881 0.03881663
v -0.04828810 0.05956029 0.03591614
v -0.06361991 0.05732131 0.04816710
v -0.06732857 0.05647689 0.04636693
v -0.06135749 0.05744224 0.04878014
v -0.05912768 0.05804908 0.04870063
v -0.06135749 0.05744224 0.04878014
v -0.05587404 0.05836546 0.04817986
v -0.06937378 0.05639016 0.04392457
v -0.07094275 0.05612564 0.04099160
v -0.07128268 0.05583751 0.04061758
v -0.06732857 0.05647689 0.04636693
v -0.06667488 0.05684477 0.04656350
v -0.06937378 0.05639016 0.04392457
v -0.05213660 0.05916440 0.04569929
v -0.05283087 0.05882090 0.04642122
v -0.04947757 0.05936127 0.04247272
v -0.06135749 0.05744224 0.04878014
v -0.05912768 0.05804908 0.04870063
v -0.06361991 0.05732131 0.04816710
v -0.04948049 0.05960273 0.04189956
v -0.04947757 0.05936127 0.04247272
v -0.04857558 0.05973881 0.03881663
v -0.07094275 0.05612564 0.04099160
v -0.07160872 0.05601567 0.03762418
v -0.07128268 0.05583751 0.04061758
vn -0.16766836 0.98576548 0.01239884
vn -0.16900994 0.98553980 0.01212219
vn -0.16853023 0.98562072 0.01222112
vn -0.16980508 0.98540511 0.01195817
vn -0.18750335 0.98210439 -0.01770508
vn -0.18778468 0.98204769 -0.01786766
vn -0.18767747 0.98207020 -0.01775667
vn -0.18776729 0.98205657 -0.01755953
vn -0.16258384 0.98651483 -0.01884091
vn -0.16258384 0.98651483 -0.01884091
vn -0.16258384 0.98651483 -0.01884091
vn -0.15365793 0.98693315 -0.04849955
vn -0.15365793 0.98693315 -0.04849955
vn -0.15365793 0.98693315 -0.04849955
vn -0.14877349 0.98877607 -0.01372316
vn -0.14877349 0.98877607 -0.01372316
vn -0.14877349 0.98877607 -0.01372316
vn -0.17390417 0.98476245 0.00050345
vn -0.17361414 0.98481368 0.00038925
vn -0.17430537 0.98469142 0.00066144
vn -0.17873353 0.98389226 0.00321671
vn -0.17873353 0.98389226 0.00321671
vn -0.17873353 0.98389226 0.00321671
vn -0.19966587 0.97887623 0.04398705
vn -0.19966587 0.97887623 0.04398705
vn -0.19966587 0.97887623 0.04398705
vn -0.14741270 0.98807831 -0.04439314
vn -0.14741270 0.98807831 -0.04439314
vn -0.14741270 0.98807831 -0.04439314
vn -0.15236309 0.98168074 0.11440461
vn -0.15236309 0.98168074 0.11440461
vn -0.15236309 0.98168074 0.11440461
vn -0.18577267 0.98187212 0.03762524
vn -0.18577267 0.98187212 0.03762524
vn -0.18577267 0.98187212 0.03762524
vn -0.17587398 0.98346583 -0.04316595
vn -0.17587398 0.98346583 -0.04316595
vn -0.17587398 0.98346583 -0.04316595
vn -0.39688729 0.91115169 0.11082907
vn -0.39688729 0.91115169 0.11082907
vn -0.39688729 0.91115169 0.11082907
vn -0.13834014 0.98987051 0.03191212
vn -0.13834014 0.98987051 0.03191212
vn -0.13834014 0.98987051 0.03191212
vn -0.13236135 0.99100345 -0.01981524
vn -0.13236135 0.99100345 -0.01981524
vn -0.13236135 0.99100345 -0.01981524
vn -0.09157768 0.99450598 0.05070890
vn -0.09157768 0.99450598 0.05070890
vn -0.09157768 0.99450598 0.05070890
vn -0.14977542 0.98871495 0.00317256
vn -0.14977542 0.98871495 0.00317256
vn -0.14977542 0.98871495 0.00317256
vn -0.16381002 0.97582840 0.14465551
vn -0.16381002 0.97582840 0.14465551
vn -0.16381002 0.97582840 0.14465551
vn -0.16517522 0.98391505 0.06803174
vn -0.16517522 0.98391505 0.06803174
vn -0.16517522 0.98391505 0.06803174
vn -0.09861161 0.99505866 -0.01157677
vn -0.09861161 0.99505866 -0.01157677
vn -0.09861161 0.99505866 -0.01157677
vn -0.15024368 0.98547012 -0.07921791
vn -0.15024368 0.98547012 -0.07921791
vn -0.15024368 0.98547012 -0.07921791
vn -0.13922686 0.99025266 0.00394395
vn -0.13922686 0.99025266 0.00394395
vn -0.13922686 0.99025266 0.00394395
vn -0.15049321 0.98858572 -0.00707639
vn -0.15049321 0.98858572 -0.00707639
vn -0.15049321 0.98858572 -0.00707639
vn -0.14705407 0.98901611 0.01490768
vn -0.14705407 0.98901611 0.01490768
vn -0.14705407 0.98901611 0.01490768
vn -0.19007070 0.98168245 0.01314134
vn -0.19007070 0.98168245 0.01314134
vn -0.19007070 0.98168245 0.01314134
vn -0.21222009 0.97599734 0.04890631
vn -0.21222009 0.97599734 0.04890631
vn -0.21222009 0.97599734 0.04890631
vn -0.15973623 0.98617021 -0.04418880
vn -0.15973623 0.98617021 -0.04418880
vn -0.15973623 0.98617021 -0.04418880
vn -0.15201720 0.98831589 -0.01106644
vn -0.15201720 0.98831589 -0.01106644
vn -0.15201720 0.98831589 -0.01106644
vn -0.16522390 0.98624836 -0.00390433
vn -0.16522390 0.98624836 -0.00390433
vn -0.16522390 0.98624836 -0.00390433
vn -0.03314843 0.99926417 0.01929509
vn -0.03314843 0.99926417 0.01929509
vn -0.03314843 0.99926417 0.01929509
vn -0.25991836 0.96410642 -0.05423331
vn -0.25991836 0.96410642 -0.05423331
vn -0.25991836 0.96410642 -0.05423331
vn -0.13080921 0.99136782 0.00887721
vn -0.13080921 0.99136782 0.00887721
vn -0.13080921 0.99136782 0.00887721
vn -0.14057878 0.99006649 0.00243865
vn -0.14057878 0.99006649 0.00243865
vn -0.14057878 0.99006649 0.00243865
vn -0.15719282 0.97007350 0.18506166
vn -0.15719282 0.97007350 0.18506166
vn -0.15719282 0.97007350 0.18506166
vn -0.14716481 0.94522833 0.29135189
vn -0.14716481 0.94522833 0.29135189
vn -0.14716481 0.94522833 0.29135189
vn -0.15628352 0.98770521 -0.00372636
vn -0.15628352 0.98770521 -0.00372636
vn -0.15628352 0.98770521 -0.00372636
vn -0.17348681 0.98483614 0.00033911
vn 0.31802846 0.52466636 -0.78967279
vn 0.31802846 0.52466636 -0.78967279
vn 0.31802846 0.52466636 -0.78967279
vn -0.24863182 0.35972989 -0.89932009
vn -0.24863182 0.35972989 -0.89932009
vn -0.24863182 0.35972989 -0.89932009
vn -0.39821545 0.80743617 -0.43528300
vn -0.39821545 0.80743617 -0.43528300
vn -0.39821545 0.80743617 -0.43528300
vn -0.63463598 0.67372539 -0.37859116
vn -0.63463598 0.67372539 -0.37859116
vn -0.63463598 0.67372539 -0.37859116
vn 0.62617164 -0.69682240 -0.34978225
vn 0.62617164 -0.69682240 -0.34978225
vn 0.62617164 -0.69682240 -0.34978225
vn -0.74087268 0.63808017 -0.20966966
vn -0.74087268 0.63808017 -0.20966966
vn -0.74087268 0.63808017 -0.20966966
vn -0.57771057 -0.81611552 0.01435116
vn -0.57771057 -0.81611552 0.01435116
vn -0.57771057 -0.81611552 0.01435116
vn 0.37656003 -0.66417062 -0.64581726
vn 0.37656003 -0.66417062 -0.64581726
vn 0.37656003 -0.66417062 -0.64581726
vn -0.05690191 0.77957180 -0.62372268
vn -0.05690191 0.77957180 -0.62372268
vn -0.05690191 0.77957180 -0.62372268
vn 0.00997586 -0.67612380 -0.73672050
vn 0.00997586 -0.67612380 -0.73672050
vn 0.00997586 -0.67612380 -0.73672050
vn 0.27318793 0.87555690 -0.39845761
vn 0.27318793 0.87555690 -0.39845761
vn 0.27318793 0.87555690 -0.39845761
vn -0.30659839 -0.81411899 -0.49316092
vn -0.30659839 -0.81411899 -0.49316092
vn -0.30659839 -0.81411899 -0.49316092
vn -0.85234478 -0.29654046 -0.43078083
vn -0.85234478 -0.29654046 -0.43078083
vn -0.85234478 -0.29654046 -0.43078083
vn -0.94494995 0.31960109 -0.07017651
vn -0.94494995 0.31960109 -0.07017651
vn -0.94494995 0.31960109 -0.07017651
vn 0.61910879 0.77158777 -0.14613906
vn 0.61910879 0.77158777 -0.14613906
vn 0.61910879 0.77158777 -0.14613906
vn -0.47173716 0.42562333 0.77221035
vn -0.47173716 0.42562333 0.77221035
vn -0.47173716 0.42562333 0.77221035
vn 0.22042181 0.78141555 0.58378417
vn 0.22042181 0.78141555 0.58378417
vn 0.22042181 0.78141555 0.58378417
vn 0.37195394 0.85611790 0.35876512
vn 0.37195394 0.85611790 0.35876512
vn 0.37195394 0.85611790 0.35876512
vn -0.41770007 -0.82571765 0.37910027
vn -0.41770007 -0.82571765 0.37910027
vn -0.41770007 -0.82571765 0.37910027
vn 0.74007656 -0.66276527 0.11414417
vn 0.74007656 -0.66276527 0.11414417
vn 0.74007656 -0.66276527 0.11414417
vn 0.78562593 0.61741606 0.03986612
vn 0.78562593 0.61741606 0.03986612
vn 0.78562593 0.61741606 0.03986612
vn -0.12832431 -0.76967416 0.62540752
vn -0.12832431 -0.76967416 0.62540752
vn -0.12832431 -0.76967416 0.62540752
vn 0.18361519 -0.56973292 0.80105547
vn 0.18361519 -0.56973292 0.80105547
vn 0.18361519 -0.56973292 0.80105547
vn -0.80640965 0.44329017 0.39140428
vn -0.80640965 0.44329017 0.39140428
vn -0.80640965 0.44329017 0.39140428
vn -0.53764397 0.72860942 0.42434334
vn -0.53764397 0.72860942 0.42434334
vn -0.53764397 0.72860942 0.42434334
vn 0.75458858 -0.25029462 0.60658773
vn 0.75458858 -0.25029462 0.60658773
vn 0.75458858 -0.25029462 0.60658773
vn -0.19692721 0.79819389 0.56930325
vn -0.19692721 0.79819389 0.56930325
vn -0.19692721 0.79819389 0.56930325
vn 0.75922051 0.60115875 0.24938401
vn 0.75922051 0.60115875 0.24938401
vn 0.75922051 0.60115875 0.24938401
vn -0.71487949 0.68906851 0.11887769
vn -0.71487949 0.68906851 0.11887769
vn -0.71487949 0.68906851 0.11887769
f 1//1 2//2 3//3
f 2//2 4//4 3//3
f 5//5 6//6 7//7
f 7//7 6//6 8//8
f 9//9 10//10 11//11
f 12//12 13//13 14//14
f 15//15 16//16 17//17
f 5//5 7//7 8//8
f 18//18 19//19 20//20
f 21//21 22//22 23//23
f 24//24 25//25 26//26
f 27//27 28//28 29//29
f 30//30 31//31 32//32
f 33//33 34//34 35//35
f 36//36 37//37 38//38
f 39//39 40//40 41//41
f 42//42 43//43 44//44
f 45//45 46//46 47//47
f 48//48 49//49 50//50
f 51//51 52//52 53//53
f 54//54 55//55 56//56
f 57//57 58//58 59//59
f 60//60 61//61 62//62
f 63//63 64//64 65//65
f 66//66 67//67 68//68
f 69//69 70//70 71//71
f 72//72 73//73 74//74
f 75//75 76//76 77//77
f 78//78 79//79 80//80
f 81//81 82//82 83//83
f 84//84 85//85 86//86
f 87//87 88//88 89//89
f 90//90 91//91 92//92
f 93//93 94//94 95//95
f 96//96 97//97 98//98
f 99//99 100//100 101//101
f 102//102 103//103 104//104
f 105//105 106//106 107//107
f 108//108 109//109 110//110
f 18//18 111//111 19//19
f 112//112 113//113 114//114
f 115//115 116//116 117//117
f 118//118 119//119 120//120
f 121//121 122//122 123//123
f 124//124 125//125 126//126
f 127//127 128//128 129//129
f 130//130 131//131 132//132
f 133//133 134//134 135//135
f 136//136 137//137 138//138
f 139//139 140//140 141//141
f 142//142 143//143 144//144
f 145//145 146//146 147//147
f 148//148 149//149 150//150
f 151//151 152//152 153//153
f 154//154 155//155 156//156
f 157//157 158//158 159//159
f 160//160 161//161 162//162
f 163//163 164//164 165//165
f 166//166 167//167 168//168
f 169//169 170//170 171//171
f 172//172 173//173 174//174
f 175//175 176//176 177//177
f 178//178 179//179 180//180
f 181//181 182//182 183//183
f 184//184 185//185 186//186
f 187//187 188//188 189//189
f 190//190 191//191 192//192
f 193//193 194//194 195//195
f 196//196 197//197 198//198

