# https://github.com/mikedh/trimesh
v 0.00235415 0.00942010 0.04753571
v -0.00000200 0.01280522 0.04499369
v 0.00336742 0.00942016 0.04579615
v 0.00120956 0.00942183 0.04820466
v -0.00000200 0.01280522 0.04499369
v 0.00235415 0.00942010 0.04753571
v 0.00120956 0.00942183 0.04820466
v -0.00090007 0.00942343 0.04836726
v -0.00000200 0.01280522 0.04499369
v -0.00090007 0.00942343 0.04836726
v -0.00256878 0.00941420 0.04729557
v -0.00000200 0.01280522 0.04499369
v -0.00346100 0.00942600 0.04545503
v -0.00000200 0.01280522 0.04499369
v -0.00256878 0.00941420 0.04729557
v -0.01040536 0.01838719 0.00396413
v 0.01030278 0.01967525 0.00399995
v -0.01030671 0.01970410 0.00399995
v -0.01040536 0.01838719 0.00396413
v 0.01040154 0.01821213 0.00399756
v 0.01030278 0.01967525 0.00399995
v -0.01032835 0.01741087 0.00631148
v 0.01020628 0.01744180 0.00510973
v -0.01040232 0.01741403 0.00476950
v -0.01032835 0.01741087 0.00631148
v 0.01033771 0.01741045 0.00634837
v 0.01020628 0.01744180 0.00510973
v -0.01034963 0.00256312 0.00179994
v -0.01046431 0.00807202 0.00174111
v -0.01036626 0.00252432 0.00013333
v -0.01033800 0.00802857 0.00383836
v -0.01049762 0.01066803 0.00380838
v -0.01046431 0.00807202 0.00174111
v -0.01037901 0.01279217 0.01885205
v -0.01050084 0.01703566 0.01771438
v -0.01037496 0.01157689 0.01777273
v -0.01037496 0.01157689 0.01777273
v -0.01050084 0.01703566 0.01771438
v -0.01040309 0.01144492 0.00479889
v -0.01040309 0.01144492 0.00479889
v -0.01050084 0.01703566 0.01771438
v -0.01040232 0.01741403 0.00476950
v -0.01037901 0.01279217 0.01885205
v -0.01033318 0.01621472 0.01882743
v -0.01050084 0.01703566 0.01771438
v -0.01040232 0.01741403 0.00476950
v -0.01040536 0.01838719 0.00396413
v -0.01049762 0.01066803 0.00380838
v -0.01040309 0.01144492 0.00479889
v -0.01040232 0.01741403 0.00476950
v -0.01049762 0.01066803 0.00380838
v -0.01049762 0.01066803 0.00380838
v -0.01046431 0.02075427 0.00174111
v -0.01046431 0.00807202 0.00174111
v -0.01040536 0.01838719 0.00396413
v -0.01046431 0.02075427 0.00174111
v -0.01049762 0.01066803 0.00380838
v -0.01040536 0.01838719 0.00396413
v -0.01025623 0.02079772 0.00392026
v -0.01046431 0.02075427 0.00174111
v -0.01046431 0.02075427 0.00174111
v -0.01039052 0.02630412 0.00016363
v -0.01046431 0.00807202 0.00174111
v -0.01046431 0.00807202 0.00174111
v -0.01039052 0.02630412 0.00016363
v -0.01036626 0.00252432 0.00013333
v -0.01046431 0.02075427 0.00174111
v -0.01034963 0.02626311 0.00179994
v -0.01039052 0.02630412 0.00016363
v 0.01021260 0.01028144 0.00401747
v 0.00678396 0.00787026 0.00392205
v 0.01033878 0.00802857 0.00383836
v 0.01021260 0.01028144 0.00401747
v -0.01020991 0.01025784 0.00401509
v 0.00678396 0.00787026 0.00392205
v -0.00668824 0.00782579 0.00391287
v -0.01020991 0.01025784 0.00401509
v -0.01033800 0.00802857 0.00383836
v -0.00668824 0.00782579 0.00391287
v -0.00503320 0.00596505 0.00387490
v -0.00487459 0.00258821 0.00387490
v 0.00488239 0.00631434 0.00399816
v 0.00488239 0.00631434 0.00399816
v -0.00487459 0.00258821 0.00387490
v 0.00487530 0.00253820 0.00382495
v 0.00678396 0.00787026 0.00392205
v -0.00668824 0.00782579 0.00391287
v 0.00488239 0.00631434 0.00399816
v -0.00668824 0.00782579 0.00391287
v -0.00503320 0.00596505 0.00387490
v 0.00488239 0.00631434 0.00399816
v 0.01035028 0.00256312 0.00179994
v 0.00486189 0.00248241 0.00176150
v 0.01037830 0.00253516 0.00015254
v 0.00487530 0.00253820 0.00382495
v -0.00486112 0.00248241 0.00176150
v 0.00486189 0.00248241 0.00176150
v -0.00487459 0.00258821 0.00387490
v -0.00486112 0.00248241 0.00176150
v 0.00487530 0.00253820 0.00382495
v -0.01034963 0.00256312 0.00179994
v -0.01036626 0.00252432 0.00013333
v -0.00486112 0.00248241 0.00176150
v -0.01036626 0.00252432 0.00013333
v 0.01037830 0.00253516 0.00015254
v 0.00486189 0.00248241 0.00176150
v -0.00486112 0.00248241 0.00176150
v 0.01038914 0.02627980 0.00013333
v 0.00490075 0.02634549 0.00176054
v 0.01035028 0.02626311 0.00179994
v 0.00490075 0.02634549 0.00176054
v -0.00483805 0.02629774 0.00383836
v 0.00483882 0.02625167 0.00388455
v -0.00491303 0.02631509 0.00177884
v -0.00483805 0.02629774 0.00383836
v 0.00490075 0.02634549 0.00176054
v -0.01039052 0.02630412 0.00016363
v -0.01034963 0.02626311 0.00179994
v -0.00491303 0.02631509 0.00177884
v 0.01038914 0.02627980 0.00013333
v -0.01039052 0.02630412 0.00016363
v 0.00490075 0.02634549 0.00176054
v 0.00490075 0.02634549 0.00176054
v -0.01039052 0.02630412 0.00016363
v -0.00491303 0.02631509 0.00177884
v -0.00474036 0.02308666 0.00399154
v 0.00483882 0.02625167 0.00388455
v -0.00483805 0.02629774 0.00383836
v -0.00474036 0.02308666 0.00399154
v 0.00473672 0.02311271 0.00398987
v 0.00483882 0.02625167 0.00388455
v -0.01036626 0.00252432 0.00013333
v 0.01038914 0.02627980 0.00013333
v 0.01037830 0.00253516 0.00015254
v -0.01039052 0.02630412 0.00016363
v 0.01040899 0.01161688 0.01771855
v -0.01037496 0.01157689 0.01777273
v 0.01039779 0.01140660 0.00475180
v -0.01037496 0.01157689 0.01777273
v -0.01040309 0.01144492 0.00479889
v 0.01039779 0.01140660 0.00475180
v -0.01033318 0.01621472 0.01882743
v -0.01037901 0.01279217 0.01885205
v 0.01032781 0.01605618 0.01887345
v 0.01032781 0.01605618 0.01887345
v -0.01037901 0.01279217 0.01885205
v 0.01038271 0.01261186 0.01879990
v 0.01026844 0.02076309 0.00393170
v 0.01040154 0.01821213 0.00399756
v 0.01045846 0.02080249 0.00174504
v 0.01038914 0.02627980 0.00013333
v 0.01045846 0.02080249 0.00174504
v 0.01046496 0.00807202 0.00174111
v 0.01038914 0.02627980 0.00013333
v 0.01046496 0.00807202 0.00174111
v 0.01037830 0.00253516 0.00015254
v 0.01046496 0.00807202 0.00174111
v 0.01035028 0.00256312 0.00179994
v 0.01037830 0.00253516 0.00015254
v 0.01035028 0.02626311 0.00179994
v 0.01045846 0.02080249 0.00174504
v 0.01038914 0.02627980 0.00013333
v 0.01049804 0.01065367 0.00379902
v 0.01033878 0.00802857 0.00383836
v 0.01046496 0.00807202 0.00174111
v 0.01050156 0.01703572 0.01771444
v 0.01039779 0.01140660 0.00475180
v 0.01049864 0.01723223 0.00473028
v 0.01040899 0.01161688 0.01771855
v 0.01050156 0.01703572 0.01771444
v 0.01038271 0.01261186 0.01879990
v 0.01040899 0.01161688 0.01771855
v 0.01032781 0.01605618 0.01887345
v 0.01038271 0.01261186 0.01879990
v 0.01050156 0.01703572 0.01771444
v 0.01049864 0.01723223 0.00473028
v 0.01039779 0.01140660 0.00475180
v 0.01049804 0.01065367 0.00379902
v 0.01040154 0.01821213 0.00399756
v 0.01049864 0.01723223 0.00473028
v 0.01049804 0.01065367 0.00379902
v 0.01045846 0.02080249 0.00174504
v 0.01049804 0.01065367 0.00379902
v 0.01046496 0.00807202 0.00174111
v 0.01045846 0.02080249 0.00174504
v 0.01040154 0.01821213 0.00399756
v 0.01049804 0.01065367 0.00379902
v 0.01035028 0.02626311 0.00179994
v 0.00707281 0.02100586 0.00189990
v 0.01045846 0.02080249 0.00174504
v 0.00520652 0.02254140 0.00189990
v 0.00707281 0.02100586 0.00189990
v 0.01035028 0.02626311 0.00179994
v 0.00490075 0.02634549 0.00176054
v 0.00520652 0.02254140 0.00189990
v 0.01035028 0.02626311 0.00179994
v 0.00503063 0.02334856 0.00370055
v 0.00555646 0.02213406 0.00370014
v 0.00520652 0.02254140 0.00189990
v 0.00520652 0.02254140 0.00189990
v 0.00697410 0.02102053 0.00369895
v 0.00707281 0.02100586 0.00189990
v 0.00555646 0.02213406 0.00370014
v 0.00697410 0.02102053 0.00369895
v 0.00520652 0.02254140 0.00189990
v 0.00483882 0.02625167 0.00388455
v 0.00503063 0.02334856 0.00370055
v 0.00490075 0.02634549 0.00176054
v 0.00490075 0.02634549 0.00176054
v 0.00503063 0.02334856 0.00370055
v 0.00520652 0.02254140 0.00189990
v 0.00697410 0.02102053 0.00369895
v 0.01045846 0.02080249 0.00174504
v 0.00707281 0.02100586 0.00189990
v 0.00697410 0.02102053 0.00369895
v 0.01026844 0.02076309 0.00393170
v 0.01045846 0.02080249 0.00174504
v 0.00515145 0.00613874 0.00189990
v 0.00486189 0.00248241 0.00176150
v 0.01035028 0.00256312 0.00179994
v 0.00699276 0.00781292 0.00189990
v 0.01035028 0.00256312 0.00179994
v 0.01046496 0.00807202 0.00174111
v 0.00699276 0.00781292 0.00189990
v 0.00515145 0.00613874 0.00189990
v 0.01035028 0.00256312 0.00179994
v 0.00699276 0.00781292 0.00189990
v 0.00678396 0.00787026 0.00392205
v 0.00515145 0.00613874 0.00189990
v 0.00678396 0.00787026 0.00392205
v 0.00512123 0.00596201 0.00369394
v 0.00515145 0.00613874 0.00189990
v 0.01033878 0.00802857 0.00383836
v 0.00699276 0.00781292 0.00189990
v 0.01046496 0.00807202 0.00174111
v 0.01033878 0.00802857 0.00383836
v 0.00678396 0.00787026 0.00392205
v 0.00699276 0.00781292 0.00189990
v 0.00512123 0.00596201 0.00369394
v 0.00487530 0.00253820 0.00382495
v 0.00515145 0.00613874 0.00189990
v 0.00515145 0.00613874 0.00189990
v 0.00487530 0.00253820 0.00382495
v 0.00486189 0.00248241 0.00176150
v -0.01034963 0.02626311 0.00179994
v -0.01046431 0.02075427 0.00174111
v -0.00710452 0.02099138 0.00189990
v -0.01034963 0.02626311 0.00179994
v -0.00520581 0.02254140 0.00189990
v -0.00491303 0.02631509 0.00177884
v -0.01034963 0.02626311 0.00179994
v -0.00710452 0.02099138 0.00189990
v -0.00520581 0.02254140 0.00189990
v -0.00710452 0.02099138 0.00189990
v -0.00696325 0.02102977 0.00368881
v -0.00520581 0.02254140 0.00189990
v -0.00696325 0.02102977 0.00368881
v -0.00555569 0.02213406 0.00370014
v -0.00520581 0.02254140 0.00189990
v -0.00555569 0.02213406 0.00370014
v -0.00503147 0.02334022 0.00370300
v -0.00520581 0.02254140 0.00189990
v -0.01025623 0.02079772 0.00392026
v -0.00696325 0.02102977 0.00368881
v -0.00710452 0.02099138 0.00189990
v -0.01025623 0.02079772 0.00392026
v -0.00710452 0.02099138 0.00189990
v -0.01046431 0.02075427 0.00174111
v -0.00503147 0.02334022 0.00370300
v -0.00483805 0.02629774 0.00383836
v -0.00491303 0.02631509 0.00177884
v -0.00503147 0.02334022 0.00370300
v -0.00491303 0.02631509 0.00177884
v -0.00520581 0.02254140 0.00189990
v -0.01034963 0.00256312 0.00179994
v -0.00486112 0.00248241 0.00176150
v -0.00505114 0.00564480 0.00189990
v -0.00715518 0.00784361 0.00189990
v -0.00505114 0.00564480 0.00189990
v -0.00577796 0.00696319 0.00189990
v -0.00715518 0.00784361 0.00189990
v -0.01034963 0.00256312 0.00179994
v -0.00505114 0.00564480 0.00189990
v -0.01046431 0.00807202 0.00174111
v -0.01034963 0.00256312 0.00179994
v -0.00715518 0.00784361 0.00189990
v -0.00505114 0.00564480 0.00189990
v -0.00503320 0.00596505 0.00387490
v -0.00577796 0.00696319 0.00189990
v -0.00503320 0.00596505 0.00387490
v -0.00668824 0.00782579 0.00391287
v -0.00577796 0.00696319 0.00189990
v -0.00577796 0.00696319 0.00189990
v -0.00668824 0.00782579 0.00391287
v -0.00715518 0.00784361 0.00189990
v -0.00487459 0.00258821 0.00387490
v -0.00503320 0.00596505 0.00387490
v -0.00505114 0.00564480 0.00189990
v -0.00487459 0.00258821 0.00387490
v -0.00505114 0.00564480 0.00189990
v -0.00486112 0.00248241 0.00176150
v -0.00715518 0.00784361 0.00189990
v -0.01033800 0.00802857 0.00383836
v -0.01046431 0.00807202 0.00174111
v -0.00668824 0.00782579 0.00391287
v -0.01033800 0.00802857 0.00383836
v -0.00715518 0.00784361 0.00189990
v 0.01039779 0.01140660 0.00475180
v -0.01040309 0.01144492 0.00479889
v 0.01021260 0.01028144 0.00401747
v -0.01040309 0.01144492 0.00479889
v -0.01020991 0.01025784 0.00401509
v 0.01021260 0.01028144 0.00401747
v -0.01040536 0.01838719 0.00396413
v -0.01040232 0.01741403 0.00476950
v 0.01040154 0.01821213 0.00399756
v 0.01040154 0.01821213 0.00399756
v -0.01040232 0.01741403 0.00476950
v 0.01020628 0.01744180 0.00510973
v 0.01019811 0.01733398 0.01777034
v -0.01019352 0.01735031 0.01768088
v -0.01033318 0.01621472 0.01882743
v 0.01032781 0.01605618 0.01887345
v 0.01019811 0.01733398 0.01777034
v -0.01033318 0.01621472 0.01882743
v 0.01038271 0.01261186 0.01879990
v -0.01037901 0.01279217 0.01885205
v -0.01037496 0.01157689 0.01777273
v 0.01040899 0.01161688 0.01771855
v 0.01038271 0.01261186 0.01879990
v -0.01037496 0.01157689 0.01777273
v -0.00696325 0.02102977 0.00368881
v -0.01025623 0.02079772 0.00392026
v -0.00656623 0.02081871 0.00399745
v -0.00696325 0.02102977 0.00368881
v -0.00656623 0.02081871 0.00399745
v -0.00555569 0.02213406 0.00370014
v -0.00656623 0.02081871 0.00399745
v -0.00474036 0.02308666 0.00399154
v -0.00555569 0.02213406 0.00370014
v -0.00555569 0.02213406 0.00370014
v -0.00474036 0.02308666 0.00399154
v -0.00503147 0.02334022 0.00370300
v -0.00483805 0.02629774 0.00383836
v -0.00503147 0.02334022 0.00370300
v -0.00474036 0.02308666 0.00399154
v -0.01030671 0.01970410 0.00399995
v -0.01025623 0.02079772 0.00392026
v -0.01040536 0.01838719 0.00396413
v -0.01019352 0.01735031 0.01768088
v -0.01032835 0.01741087 0.00631148
v -0.01050084 0.01703566 0.01771438
v -0.01032835 0.01741087 0.00631148
v -0.01040232 0.01741403 0.00476950
v -0.01050084 0.01703566 0.01771438
v -0.01033318 0.01621472 0.01882743
v -0.01019352 0.01735031 0.01768088
v -0.01050084 0.01703566 0.01771438
v 0.00483882 0.02625167 0.00388455
v 0.00473672 0.02311271 0.00398987
v 0.00503063 0.02334856 0.00370055
v 0.00503063 0.02334856 0.00370055
v 0.00473672 0.02311271 0.00398987
v 0.00555646 0.02213406 0.00370014
v 0.00473672 0.02311271 0.00398987
v 0.00660258 0.02079534 0.00399715
v 0.00555646 0.02213406 0.00370014
v 0.00555646 0.02213406 0.00370014
v 0.00660258 0.02079534 0.00399715
v 0.00697410 0.02102053 0.00369895
v 0.00660258 0.02079534 0.00399715
v 0.01026844 0.02076309 0.00393170
v 0.00697410 0.02102053 0.00369895
v -0.01040309 0.01144492 0.00479889
v -0.01049762 0.01066803 0.00380838
v -0.01020991 0.01025784 0.00401509
v 0.01040154 0.01821213 0.00399756
v 0.01026844 0.02076309 0.00393170
v 0.01030278 0.01967525 0.00399995
v -0.01033800 0.00802857 0.00383836
v -0.01020991 0.01025784 0.00401509
v -0.01049762 0.01066803 0.00380838
v 0.01020628 0.01744180 0.00510973
v 0.01049864 0.01723223 0.00473028
v 0.01040154 0.01821213 0.00399756
v 0.01033771 0.01741045 0.00634837
v 0.01049864 0.01723223 0.00473028
v 0.01020628 0.01744180 0.00510973
v 0.01050156 0.01703572 0.01771444
v 0.01033771 0.01741045 0.00634837
v 0.01019811 0.01733398 0.01777034
v 0.01050156 0.01703572 0.01771444
v 0.01049864 0.01723223 0.00473028
v 0.01033771 0.01741045 0.00634837
v 0.01019811 0.01733398 0.01777034
v 0.01032781 0.01605618 0.01887345
v 0.01050156 0.01703572 0.01771444
v 0.01021260 0.01028144 0.00401747
v 0.01049804 0.01065367 0.00379902
v 0.01039779 0.01140660 0.00475180
v 0.01033878 0.00802857 0.00383836
v 0.01049804 0.01065367 0.00379902
v 0.01021260 0.01028144 0.00401747
v 0.00488239 0.00631434 0.00399816
v 0.00487530 0.00253820 0.00382495
v 0.00512123 0.00596201 0.00369394
v 0.00678396 0.00787026 0.00392205
v 0.00488239 0.00631434 0.00399816
v 0.00512123 0.00596201 0.00369394
v -0.00656623 0.02081871 0.00399745
v -0.01029294 0.02316558 0.00400901
v -0.00474036 0.02308666 0.00399154
v -0.00656623 0.02081871 0.00399745
v -0.01025623 0.02079772 0.00392026
v -0.01029294 0.02316558 0.00400901
v -0.00880229 0.01565176 0.03592544
v 0.00880373 0.01566779 0.03590935
v -0.01038885 0.02522027 0.01918756
v 0.00880373 0.01566779 0.03590935
v 0.01040047 0.02525341 0.01903659
v -0.01038885 0.02522027 0.01918756
v -0.00880229 0.01565176 0.03592544
v 0.00874662 0.01441156 0.03600430
v 0.00880373 0.01566779 0.03590935
v -0.00874871 0.01441198 0.03600460
v 0.00874662 0.01441156 0.03600430
v -0.00880229 0.01565176 0.03592544
v -0.00533032 0.01430165 0.05381000
v -0.00865680 0.01441323 0.04983228
v -0.00780165 0.01423841 0.05229121
v 0.00480038 0.01433104 0.05383151
v -0.00865680 0.01441323 0.04983228
v -0.00533032 0.01430165 0.05381000
v 0.00853771 0.01441401 0.05053359
v -0.00865680 0.01441323 0.04983228
v 0.00480038 0.01433104 0.05383151
v 0.00874662 0.01441156 0.03600430
v -0.00874871 0.01441198 0.03600460
v 0.00853771 0.01441401 0.05053359
v -0.00865680 0.01441323 0.04983228
v 0.00853771 0.01441401 0.05053359
v 0.00480038 0.01433104 0.05383151
v 0.00654656 0.01429051 0.05324614
v -0.00533032 0.01430165 0.05381000
v 0.00553221 0.00971705 0.05385756
v 0.00480038 0.01433104 0.05383151
v -0.00546765 0.00949097 0.05374717
v 0.00553221 0.00971705 0.05385756
v -0.00533032 0.01430165 0.05381000
v -0.00877935 0.00946134 0.05011790
v -0.00256878 0.00941420 0.04729557
v -0.00708413 0.00950426 0.05282133
v -0.00708413 0.00950426 0.05282133
v -0.00256878 0.00941420 0.04729557
v -0.00546765 0.00949097 0.05374717
v -0.00256878 0.00941420 0.04729557
v -0.00090007 0.00942343 0.04836726
v -0.00546765 0.00949097 0.05374717
v -0.00877935 0.00946134 0.05011790
v -0.00346100 0.00942600 0.04545503
v -0.00256878 0.00941420 0.04729557
v -0.00090007 0.00942343 0.04836726
v 0.00549102 0.00941229 0.05355769
v -0.00877935 0.00946134 0.05011790
v -0.00874519 0.00941396 0.03600448
v -0.00346100 0.00942600 0.04545503
v -0.00306207 0.00942636 0.04349082
v -0.00090007 0.00942343 0.04836726
v 0.00120956 0.00942183 0.04820466
v 0.00549102 0.00941229 0.05355769
v 0.00235415 0.00942010 0.04753571
v -0.00195372 0.00941777 0.04215568
v 0.00549102 0.00941229 0.05355769
v 0.00235415 0.00942010 0.04753571
v 0.00773781 0.00953346 0.05224508
v 0.00235415 0.00942010 0.04753571
v 0.00880241 0.00950849 0.05020248
v 0.00773781 0.00953346 0.05224508
v -0.00874519 0.00941396 0.03600448
v 0.00014448 0.00943315 0.04151052
v -0.00195372 0.00941777 0.04215568
v 0.00336742 0.00942016 0.04579615
v 0.00880241 0.00950849 0.05020248
v 0.00235415 0.00942010 0.04753571
v 0.00316781 0.00942504 0.04377222
v 0.00874895 0.00941378 0.03600472
v 0.00336742 0.00942016 0.04579615
v 0.00194329 0.00942236 0.04219353
v 0.00874895 0.00941378 0.03600472
v 0.00014448 0.00943315 0.04151052
v -0.00874519 0.00941396 0.03600448
v 0.00900978 0.00812459 0.03584498
v 0.00874895 0.00941378 0.03600472
v -0.00901520 0.00804359 0.03574204
v 0.00900978 0.00812459 0.03584498
v -0.00874519 0.00941396 0.03600448
v -0.01019251 0.01739943 0.01925081
v 0.00896245 0.00802070 0.03557926
v -0.00901520 0.00804359 0.03574204
v 0.01018828 0.01739251 0.01925343
v 0.00896245 0.00802070 0.03557926
v -0.01019251 0.01739943 0.01925081
v -0.01019352 0.01735031 0.01768088
v 0.01019811 0.01733398 0.01777034
v -0.01019251 0.01739943 0.01925081
v 0.01019811 0.01733398 0.01777034
v 0.01018828 0.01739251 0.01925343
v -0.01019251 0.01739943 0.01925081
v 0.01033771 0.01741045 0.00634837
v 0.01018828 0.01739251 0.01925343
v 0.01019811 0.01733398 0.01777034
v -0.01019251 0.01739943 0.01925081
v -0.01032835 0.01741087 0.00631148
v -0.01019352 0.01735031 0.01768088
v -0.01038885 0.02522027 0.01918756
v 0.01040047 0.02525341 0.01903659
v -0.01036179 0.02530467 0.00614440
v 0.01040047 0.02525341 0.01903659
v 0.01038169 0.02526175 0.00611848
v -0.01036179 0.02530467 0.00614440
v 0.01026844 0.02076309 0.00393170
v 0.00660258 0.02079534 0.00399715
v 0.01029372 0.02316558 0.00400901
v 0.01029372 0.02316558 0.00400901
v 0.00660258 0.02079534 0.00399715
v 0.00473672 0.02311271 0.00398987
v 0.01033771 0.01741045 0.00634837
v 0.01038169 0.02526175 0.00611848
v 0.01040047 0.02525341 0.01903659
v 0.01033771 0.01741045 0.00634837
v 0.01040047 0.02525341 0.01903659
v 0.01047968 0.01767796 0.01932418
v 0.01030278 0.01967525 0.00399995
v 0.01029372 0.02316558 0.00400901
v 0.01038169 0.02526175 0.00611848
v 0.01030278 0.01967525 0.00399995
v 0.01038169 0.02526175 0.00611848
v 0.01033771 0.01741045 0.00634837
v -0.01036179 0.02530467 0.00614440
v -0.01032835 0.01741087 0.00631148
v -0.01038885 0.02522027 0.01918756
v -0.01038885 0.02522027 0.01918756
v -0.01032835 0.01741087 0.00631148
v -0.01047909 0.01767802 0.01932352
v -0.01029294 0.02316558 0.00400901
v -0.01030671 0.01970410 0.00399995
v -0.01036179 0.02530467 0.00614440
v -0.01036179 0.02530467 0.00614440
v -0.01030671 0.01970410 0.00399995
v -0.01032835 0.01741087 0.00631148
v -0.01047909 0.01767802 0.01932352
v -0.00905543 0.01546800 0.03570801
v -0.01038885 0.02522027 0.01918756
v -0.01047909 0.01767802 0.01932352
v -0.00901520 0.00804359 0.03574204
v -0.00905543 0.01546800 0.03570801
v -0.00905550 0.01410448 0.03572815
v -0.00901520 0.00804359 0.03574204
v -0.00904930 0.00971162 0.03573459
v -0.00905550 0.01410448 0.03572815
v -0.00905543 0.01546800 0.03570801
v -0.00901520 0.00804359 0.03574204
v -0.00904930 0.00971162 0.03573459
v -0.00877935 0.00946134 0.05011790
v -0.00894540 0.01410990 0.04996031
v -0.00904930 0.00971162 0.03573459
v -0.00894540 0.01410990 0.04996031
v -0.00905550 0.01410448 0.03572815
v 0.00897312 0.01411324 0.04968106
v 0.00904995 0.00971586 0.03573572
v 0.00905627 0.01410871 0.03572702
v 0.00880241 0.00950849 0.05020248
v 0.00904995 0.00971586 0.03573572
v 0.00897312 0.01411324 0.04968106
v 0.00896245 0.00802070 0.03557926
v 0.00904995 0.00971586 0.03573572
v 0.00900978 0.00812459 0.03584498
v 0.00905615 0.01546800 0.03570801
v 0.00905627 0.01410871 0.03572702
v 0.00896245 0.00802070 0.03557926
v 0.00896245 0.00802070 0.03557926
v 0.00905627 0.01410871 0.03572702
v 0.00904995 0.00971586 0.03573572
v 0.00905615 0.01546800 0.03570801
v 0.01047968 0.01767796 0.01932418
v 0.01040047 0.02525341 0.01903659
v 0.00896245 0.00802070 0.03557926
v 0.01047968 0.01767796 0.01932418
v 0.00905615 0.01546800 0.03570801
v 0.01030278 0.01967525 0.00399995
v -0.01032835 0.01741087 0.00631148
v -0.01030671 0.01970410 0.00399995
v 0.01033771 0.01741045 0.00634837
v -0.01032835 0.01741087 0.00631148
v 0.01030278 0.01967525 0.00399995
v 0.01029372 0.02316558 0.00400901
v 0.00473672 0.02311271 0.00398987
v 0.01038169 0.02526175 0.00611848
v -0.00474036 0.02308666 0.00399154
v -0.01036179 0.02530467 0.00614440
v 0.00473672 0.02311271 0.00398987
v 0.00473672 0.02311271 0.00398987
v -0.01036179 0.02530467 0.00614440
v 0.01038169 0.02526175 0.00611848
v -0.00474036 0.02308666 0.00399154
v -0.01029294 0.02316558 0.00400901
v -0.01036179 0.02530467 0.00614440
v -0.00546765 0.00949097 0.05374717
v -0.00533032 0.01430165 0.05381000
v -0.00780165 0.01423841 0.05229121
v -0.00708413 0.00950426 0.05282133
v -0.00546765 0.00949097 0.05374717
v -0.00780165 0.01423841 0.05229121
v -0.00839466 0.00971270 0.05146110
v -0.00708413 0.00950426 0.05282133
v -0.00780165 0.01423841 0.05229121
v -0.00839466 0.00971270 0.05146110
v -0.00780165 0.01423841 0.05229121
v -0.00894540 0.01410990 0.04996031
v -0.00877935 0.00946134 0.05011790
v -0.00839466 0.00971270 0.05146110
v -0.00894540 0.01410990 0.04996031
v 0.00880241 0.00950849 0.05020248
v 0.00897312 0.01411324 0.04968106
v 0.00819713 0.01411485 0.05185294
v 0.00773781 0.00953346 0.05224508
v 0.00880241 0.00950849 0.05020248
v 0.00819713 0.01411485 0.05185294
v 0.00773781 0.00953346 0.05224508
v 0.00819713 0.01411485 0.05185294
v 0.00654656 0.01429051 0.05324614
v 0.00553221 0.00971705 0.05385756
v 0.00773781 0.00953346 0.05224508
v 0.00654656 0.01429051 0.05324614
v 0.00553221 0.00971705 0.05385756
v 0.00654656 0.01429051 0.05324614
v 0.00480038 0.01433104 0.05383151
v 0.00874895 0.00941378 0.03600472
v 0.00900978 0.00812459 0.03584498
v 0.00904995 0.00971586 0.03573572
v 0.00896245 0.00802070 0.03557926
v 0.01018828 0.01739251 0.01925343
v 0.01047968 0.01767796 0.01932418
v 0.00880241 0.00950849 0.05020248
v 0.00874895 0.00941378 0.03600472
v 0.00904995 0.00971586 0.03573572
v 0.00773781 0.00953346 0.05224508
v 0.00553221 0.00971705 0.05385756
v 0.00549102 0.00941229 0.05355769
v 0.00553221 0.00971705 0.05385756
v -0.00546765 0.00949097 0.05374717
v 0.00549102 0.00941229 0.05355769
v -0.00839466 0.00971270 0.05146110
v -0.00877935 0.00946134 0.05011790
v -0.00708413 0.00950426 0.05282133
v 0.01018828 0.01739251 0.01925343
v 0.01033771 0.01741045 0.00634837
v 0.01047968 0.01767796 0.01932418
v -0.00874519 0.00941396 0.03600448
v -0.00877935 0.00946134 0.05011790
v -0.00904930 0.00971162 0.03573459
v 0.01030278 0.01967525 0.00399995
v 0.01026844 0.02076309 0.00393170
v 0.01029372 0.02316558 0.00400901
v -0.00901520 0.00804359 0.03574204
v -0.00874519 0.00941396 0.03600448
v -0.00904930 0.00971162 0.03573459
v -0.01019251 0.01739943 0.01925081
v -0.00901520 0.00804359 0.03574204
v -0.01047909 0.01767802 0.01932352
v 0.01040047 0.02525341 0.01903659
v 0.00880373 0.01566779 0.03590935
v 0.00905615 0.01546800 0.03570801
v -0.01047909 0.01767802 0.01932352
v -0.01032835 0.01741087 0.00631148
v -0.01019251 0.01739943 0.01925081
v 0.00905615 0.01546800 0.03570801
v 0.00874662 0.01441156 0.03600430
v 0.00905627 0.01410871 0.03572702
v 0.00880373 0.01566779 0.03590935
v 0.00874662 0.01441156 0.03600430
v 0.00905615 0.01546800 0.03570801
v -0.01030671 0.01970410 0.00399995
v -0.01029294 0.02316558 0.00400901
v -0.01025623 0.02079772 0.00392026
v 0.00874662 0.01441156 0.03600430
v 0.00853771 0.01441401 0.05053359
v 0.00897312 0.01411324 0.04968106
v 0.00874662 0.01441156 0.03600430
v 0.00897312 0.01411324 0.04968106
v 0.00905627 0.01410871 0.03572702
v 0.00819713 0.01411485 0.05185294
v 0.00897312 0.01411324 0.04968106
v 0.00853771 0.01441401 0.05053359
v 0.00819713 0.01411485 0.05185294
v 0.00853771 0.01441401 0.05053359
v 0.00654656 0.01429051 0.05324614
v -0.00894540 0.01410990 0.04996031
v -0.00780165 0.01423841 0.05229121
v -0.00865680 0.01441323 0.04983228
v -0.00865680 0.01441323 0.04983228
v -0.00874871 0.01441198 0.03600460
v -0.00905550 0.01410448 0.03572815
v -0.00865680 0.01441323 0.04983228
v -0.00905550 0.01410448 0.03572815
v -0.00894540 0.01410990 0.04996031
v -0.00880229 0.01565176 0.03592544
v -0.01038885 0.02522027 0.01918756
v -0.00905543 0.01546800 0.03570801
v -0.00874871 0.01441198 0.03600460
v -0.00905543 0.01546800 0.03570801
v -0.00905550 0.01410448 0.03572815
v -0.00874871 0.01441198 0.03600460
v -0.00880229 0.01565176 0.03592544
v -0.00905543 0.01546800 0.03570801
v 0.00336742 0.00942016 0.04579615
v -0.00000200 0.01280522 0.04499369
v 0.00316781 0.00942504 0.04377222
v 0.00194329 0.00942236 0.04219353
v 0.00316781 0.00942504 0.04377222
v -0.00000200 0.01280522 0.04499369
v -0.00306207 0.00942636 0.04349082
v -0.00000200 0.01280522 0.04499369
v -0.00346100 0.00942600 0.04545503
v -0.00306207 0.00942636 0.04349082
v -0.00195372 0.00941777 0.04215568
v -0.00000200 0.01280522 0.04499369
v -0.00195372 0.00941777 0.04215568
v 0.00014448 0.00943315 0.04151052
v -0.00000200 0.01280522 0.04499369
v 0.00014448 0.00943315 0.04151052
v 0.00194329 0.00942236 0.04219353
v -0.00000200 0.01280522 0.04499369
v 0.00900978 0.00812459 0.03584498
v -0.00901520 0.00804359 0.03574204
v 0.00896245 0.00802070 0.03557926
v -0.00982320 0.01750206 0.01110798
v -0.00897002 0.01753538 0.00949794
v -0.00982863 0.02041316 0.01161444
v -0.00982863 0.02041316 0.01161444
v -0.00897002 0.01753538 0.00949794
v -0.00838220 0.02041316 0.00897807
v -0.00524485 0.02041316 0.01571643
v -0.00541884 0.01771908 0.01575207
v -0.00698703 0.02041316 0.01564157
v -0.00541884 0.01771908 0.01575207
v -0.00758094 0.01771301 0.01545852
v -0.00698703 0.02041316 0.01564157
v -0.00897002 0.01753538 0.00949794
v -0.00790250 0.01771277 0.00874233
v -0.00838220 0.02041316 0.00897807
v -0.00698703 0.02041316 0.01564157
v -0.00758094 0.01771301 0.01545852
v -0.00893688 0.02041316 0.01448625
v -0.00838220 0.02041316 0.00897807
v -0.00616568 0.01771920 0.00820678
v -0.00599957 0.02041316 0.00820780
v -0.00790250 0.01771277 0.00874233
v -0.00616568 0.01771920 0.00820678
v -0.00838220 0.02041316 0.00897807
v -0.00758094 0.01771301 0.01545852
v -0.00901008 0.01771265 0.01427406
v -0.00893688 0.02041316 0.01448625
v -0.00901008 0.01771265 0.01427406
v -0.00971246 0.01771754 0.01274335
v -0.00893688 0.02041316 0.01448625
v -0.00893688 0.02041316 0.01448625
v -0.00971246 0.01771754 0.01274335
v -0.00982863 0.02041316 0.01161444
v -0.00971246 0.01771754 0.01274335
v -0.00982320 0.01750206 0.01110798
v -0.00982863 0.02041316 0.01161444
v -0.00758094 0.01771301 0.01545852
v -0.00816381 0.01741361 0.01548886
v -0.00901008 0.01771265 0.01427406
v -0.00816381 0.01741361 0.01548886
v -0.00980520 0.01741385 0.01357626
v -0.00901008 0.01771265 0.01427406
v -0.00216007 0.01771426 0.01179009
v -0.00191706 0.01741540 0.01287966
v -0.00276118 0.01771289 0.01393586
v -0.00901008 0.01771265 0.01427406
v -0.00980520 0.01741385 0.01357626
v -0.00971246 0.01771754 0.01274335
v -0.00276118 0.01771289 0.01393586
v -0.00345302 0.01741331 0.01519817
v -0.00375634 0.01771306 0.01503348
v -0.00191706 0.01741540 0.01287966
v -0.00345302 0.01741331 0.01519817
v -0.00276118 0.01771289 0.01393586
v -0.00980520 0.01741385 0.01357626
v -0.00982320 0.01750206 0.01110798
v -0.00971246 0.01771754 0.01274335
v -0.00375634 0.01771306 0.01503348
v -0.00345302 0.01741331 0.01519817
v -0.00541884 0.01771908 0.01575207
v -0.00345302 0.01741331 0.01519817
v -0.00565910 0.01741391 0.01611220
v -0.00541884 0.01771908 0.01575207
v -0.00541884 0.01771908 0.01575207
v -0.00565910 0.01741391 0.01611220
v -0.00758094 0.01771301 0.01545852
v -0.00565910 0.01741391 0.01611220
v -0.00816381 0.01741361 0.01548886
v -0.00758094 0.01771301 0.01545852
v -0.00744158 0.01741349 0.00815576
v -0.00345302 0.01741331 0.01519817
v -0.00479966 0.01741427 0.00804436
v -0.00253356 0.01741403 0.00976121
v -0.00565910 0.01741391 0.01611220
v -0.00191706 0.01741540 0.01287966
v -0.00980520 0.01741385 0.01357626
v -0.00816381 0.01741361 0.01548886
v -0.00982320 0.01750206 0.01110798
v -0.00816381 0.01741361 0.01548886
v -0.00565910 0.01741391 0.01611220
v -0.00982320 0.01750206 0.01110798
v -0.00982320 0.01750206 0.01110798
v -0.00565910 0.01741391 0.01611220
v -0.00897002 0.01753538 0.00949794
v -0.00897002 0.01753538 0.00949794
v -0.00565910 0.01741391 0.01611220
v -0.00744158 0.01741349 0.00815576
v -0.00424075 0.01770812 0.00864684
v -0.00253356 0.01741403 0.00976121
v -0.00298911 0.01771265 0.00972587
v -0.00479966 0.01741427 0.00804436
v -0.00253356 0.01741403 0.00976121
v -0.00424075 0.01770812 0.00864684
v -0.00298911 0.01771265 0.00972587
v -0.00253356 0.01741403 0.00976121
v -0.00216007 0.01771426 0.01179009
v -0.00253356 0.01741403 0.00976121
v -0.00191706 0.01741540 0.01287966
v -0.00216007 0.01771426 0.01179009
v -0.00897002 0.01753538 0.00949794
v -0.00744158 0.01741349 0.00815576
v -0.00790250 0.01771277 0.00874233
v -0.00790250 0.01771277 0.00874233
v -0.00744158 0.01741349 0.00815576
v -0.00616568 0.01771920 0.00820678
v -0.00744158 0.01741349 0.00815576
v -0.00479966 0.01741427 0.00804436
v -0.00616568 0.01771920 0.00820678
v -0.00616568 0.01771920 0.00820678
v -0.00479966 0.01741427 0.00804436
v -0.00424075 0.01770812 0.00864684
v -0.00216007 0.01771426 0.01179009
v -0.00276118 0.01771289 0.01393586
v -0.00306237 0.02041316 0.01448625
v -0.00276118 0.01771289 0.01393586
v -0.00375634 0.01771306 0.01503348
v -0.00306237 0.02041316 0.01448625
v -0.00599957 0.02041316 0.00820780
v -0.00424075 0.01770812 0.00864684
v -0.00361705 0.02041316 0.00897807
v -0.00616568 0.01771920 0.00820678
v -0.00424075 0.01770812 0.00864684
v -0.00599957 0.02041316 0.00820780
v -0.00306237 0.02041316 0.01448625
v -0.00375634 0.01771306 0.01503348
v -0.00524485 0.02041316 0.01571643
v -0.00375634 0.01771306 0.01503348
v -0.00541884 0.01771908 0.01575207
v -0.00524485 0.02041316 0.01571643
v -0.00424075 0.01770812 0.00864684
v -0.00298911 0.01771265 0.00972587
v -0.00361705 0.02041316 0.00897807
v -0.00361705 0.02041316 0.00897807
v -0.00298911 0.01771265 0.00972587
v -0.00217050 0.02041316 0.01161444
v -0.00298911 0.01771265 0.00972587
v -0.00216007 0.01771426 0.01179009
v -0.00217050 0.02041316 0.01161444
v -0.00217050 0.02041316 0.01161444
v -0.00216007 0.01771426 0.01179009
v -0.00306237 0.02041316 0.01448625
v -0.00306237 0.02041316 0.01448625
v -0.00524485 0.02041316 0.01571643
v -0.00698703 0.02041316 0.01564157
v -0.00893688 0.02041316 0.01448625
v -0.00982863 0.02041316 0.01161444
v -0.00361705 0.02041316 0.00897807
v -0.00838220 0.02041316 0.00897807
v -0.00217050 0.02041316 0.01161444
v -0.00599957 0.02041316 0.00820780
v 0.00217128 0.02041316 0.01161444
v 0.00247198 0.01753765 0.01027405
v 0.00361770 0.02041316 0.00897807
v 0.00675499 0.02041316 0.01571643
v 0.00658101 0.01771908 0.01575207
v 0.00501293 0.02041316 0.01564157
v 0.00658101 0.01771908 0.01575207
v 0.00441891 0.01771301 0.01545852
v 0.00501293 0.02041316 0.01564157
v 0.00247198 0.01753765 0.01027405
v 0.00409740 0.01771277 0.00874233
v 0.00361770 0.02041316 0.00897807
v 0.00501293 0.02041316 0.01564157
v 0.00441891 0.01771301 0.01545852
v 0.00306302 0.02041316 0.01448625
v 0.00361770 0.02041316 0.00897807
v 0.00583416 0.01771920 0.00820678
v 0.00600028 0.02041316 0.00820780
v 0.00409740 0.01771277 0.00874233
v 0.00583416 0.01771920 0.00820678
v 0.00361770 0.02041316 0.00897807
v 0.00441891 0.01771301 0.01545852
v 0.00298989 0.01771265 0.01427406
v 0.00306302 0.02041316 0.01448625
v 0.00298989 0.01771265 0.01427406
v 0.00215810 0.01760274 0.01248180
v 0.00306302 0.02041316 0.01448625
v 0.00306302 0.02041316 0.01448625
v 0.00215810 0.01760274 0.01248180
v 0.00217128 0.02041316 0.01161444
v 0.00215810 0.01760274 0.01248180
v 0.00247198 0.01753765 0.01027405
v 0.00217128 0.02041316 0.01161444
v 0.00441891 0.01771301 0.01545852
v 0.00277871 0.01741468 0.01464378
v 0.00298989 0.01771265 0.01427406
v 0.00996715 0.01741391 0.01086372
v 0.00984442 0.01741361 0.01344192
v 0.00983983 0.01771426 0.01179009
v 0.00983983 0.01771426 0.01179009
v 0.00984442 0.01741361 0.01344192
v 0.00923872 0.01771289 0.01393586
v 0.00298989 0.01771265 0.01427406
v 0.00277871 0.01741468 0.01464378
v 0.00215810 0.01760274 0.01248180
v 0.00984442 0.01741361 0.01344192
v 0.00836307 0.01759368 0.01505017
v 0.00923872 0.01771289 0.01393586
v 0.00836307 0.01759368 0.01505017
v 0.00593394 0.01741498 0.01617604
v 0.00658101 0.01771908 0.01575207
v 0.00658101 0.01771908 0.01575207
v 0.00593394 0.01741498 0.01617604
v 0.00441891 0.01771301 0.01545852
v 0.00593394 0.01741498 0.01617604
v 0.00277871 0.01741468 0.01464378
v 0.00441891 0.01771301 0.01545852
v 0.00849610 0.01741367 0.00874001
v 0.00984442 0.01741361 0.01344192
v 0.00996715 0.01741391 0.01086372
v 0.00593394 0.01741498 0.01617604
v 0.00593394 0.01741498 0.01617604
v 0.00836307 0.01759368 0.01505017
v 0.00984442 0.01741361 0.01344192
v 0.00247198 0.01753765 0.01027405
v 0.00277871 0.01741468 0.01464378
v 0.00416732 0.01741480 0.00827724
v 0.00416732 0.01741480 0.00827724
v 0.00277871 0.01741468 0.01464378
v 0.00659871 0.01741319 0.00796616
v 0.00215810 0.01760274 0.01248180
v 0.00277871 0.01741468 0.01464378
v 0.00247198 0.01753765 0.01027405
v 0.00659871 0.01741319 0.00796616
v 0.00849610 0.01741367 0.00874001
v 0.00775909 0.01770812 0.00864684
v 0.00775909 0.01770812 0.00864684
v 0.00849610 0.01741367 0.00874001
v 0.00901079 0.01771265 0.00972587
v 0.00849610 0.01741367 0.00874001
v 0.00996715 0.01741391 0.01086372
v 0.00901079 0.01771265 0.00972587
v 0.00901079 0.01771265 0.00972587
v 0.00996715 0.01741391 0.01086372
v 0.00983983 0.01771426 0.01179009
v 0.00247198 0.01753765 0.01027405
v 0.00416732 0.01741480 0.00827724
v 0.00409740 0.01771277 0.00874233
v 0.00409740 0.01771277 0.00874233
v 0.00416732 0.01741480 0.00827724
v 0.00583416 0.01771920 0.00820678
v 0.00416732 0.01741480 0.00827724
v 0.00659871 0.01741319 0.00796616
v 0.00583416 0.01771920 0.00820678
v 0.00583416 0.01771920 0.00820678
v 0.00659871 0.01741319 0.00796616
v 0.00775909 0.01770812 0.00864684
v 0.00983983 0.01771426 0.01179009
v 0.00923872 0.01771289 0.01393586
v 0.00893760 0.02041316 0.01448625
v 0.00923872 0.01771289 0.01393586
v 0.00836307 0.01759368 0.01505017
v 0.00893760 0.02041316 0.01448625
v 0.00600028 0.02041316 0.00820780
v 0.00775909 0.01770812 0.00864684
v 0.00838292 0.02041316 0.00897807
v 0.00583416 0.01771920 0.00820678
v 0.00775909 0.01770812 0.00864684
v 0.00600028 0.02041316 0.00820780
v 0.00893760 0.02041316 0.01448625
v 0.00836307 0.01759368 0.01505017
v 0.00675499 0.02041316 0.01571643
v 0.00836307 0.01759368 0.01505017
v 0.00658101 0.01771908 0.01575207
v 0.00675499 0.02041316 0.01571643
v 0.00775909 0.01770812 0.00864684
v 0.00901079 0.01771265 0.00972587
v 0.00838292 0.02041316 0.00897807
v 0.00838292 0.02041316 0.00897807
v 0.00901079 0.01771265 0.00972587
v 0.00982934 0.02041316 0.01161444
v 0.00901079 0.01771265 0.00972587
v 0.00983983 0.01771426 0.01179009
v 0.00982934 0.02041316 0.01161444
v 0.00982934 0.02041316 0.01161444
v 0.00983983 0.01771426 0.01179009
v 0.00893760 0.02041316 0.01448625
v 0.00361770 0.02041316 0.00897807
v 0.00306302 0.02041316 0.01448625
v 0.00217128 0.02041316 0.01161444
v 0.00838292 0.02041316 0.00897807
v 0.00675499 0.02041316 0.01571643
v 0.00501293 0.02041316 0.01564157
v 0.00893760 0.02041316 0.01448625
v 0.00982934 0.02041316 0.01161444
v 0.00600028 0.02041316 0.00820780
vn -0.61731874 -0.69971471 -0.35960659
vn -0.61731874 -0.69971471 -0.35960659
vn -0.61731874 -0.69971471 -0.35960659
vn -0.35762435 -0.70704572 -0.61007473
vn -0.35762435 -0.70704572 -0.61007473
vn -0.35762435 -0.70704572 -0.61007473
vn -0.05557924 -0.69771787 -0.71421335
vn -0.05557924 -0.69771787 -0.71421335
vn -0.05557924 -0.69771787 -0.71421335
vn 0.38841400 -0.70044763 -0.59875511
vn 0.38841400 -0.70044763 -0.59875511
vn 0.38841400 -0.70044763 -0.59875511
vn 0.64129650 -0.69949018 -0.31536055
vn 0.64129650 -0.69949018 -0.31536055
vn 0.64129650 -0.69949018 -0.31536055
vn -0.00003806 -0.02718858 0.99963032
vn -0.00003806 -0.02718858 0.99963032
vn -0.00003806 -0.02718858 0.99963032
vn -0.00162168 -0.00173898 0.99999717
vn -0.00162168 -0.00173898 0.99999717
vn -0.00162168 -0.00173898 0.99999717
vn -0.00138242 0.99999681 0.00211501
vn -0.00138242 0.99999681 0.00211501
vn -0.00138242 0.99999681 0.00211501
vn -0.00002481 0.99967979 0.02530461
vn -0.00002481 0.99967979 0.02530461
vn -0.00002481 0.99967979 0.02530461
vn -0.99973104 -0.02069983 0.01045741
vn -0.99973104 -0.02069983 0.01045741
vn -0.99973104 -0.02069983 0.01045741
vn -0.99649052 -0.05959461 0.05878030
vn -0.99649052 -0.05959461 0.05878030
vn -0.99649052 -0.05959461 0.05878030
vn -0.99949901 -0.02281416 0.02193726
vn -0.99949901 -0.02281416 0.02193726
vn -0.99949901 -0.02281416 0.02193726
vn -0.99973193 -0.02302835 0.00240192
vn -0.99973193 -0.02302835 0.00240192
vn -0.99973193 -0.02302835 0.00240192
vn -0.99997106 0.00009158 -0.00760783
vn -0.99997106 0.00009158 -0.00760783
vn -0.99997106 0.00009158 -0.00760783
vn -0.98712803 0.01436383 0.15928570
vn -0.98712803 0.01436383 0.15928570
vn -0.98712803 0.01436383 0.15928570
vn -0.99977476 0.01159074 0.01777896
vn -0.99977476 0.01159074 0.01777896
vn -0.99977476 0.01159074 0.01777896
vn -0.99552064 0.00059387 0.09454255
vn -0.99552064 0.00059387 0.09454255
vn -0.99552064 0.00059387 0.09454255
vn -0.99987021 0.00000000 -0.01611126
vn -0.99987021 0.00000000 -0.01611126
vn -0.99987021 0.00000000 -0.01611126
vn -0.99920048 0.01116804 0.03838860
vn -0.99920048 0.01116804 0.03838860
vn -0.99920048 0.01116804 0.03838860
vn -0.99360206 0.06317389 0.09361632
vn -0.99360206 0.06317389 0.09361632
vn -0.99360206 0.06317389 0.09361632
vn -0.99890775 0.00000000 -0.04672586
vn -0.99890775 0.00000000 -0.04672586
vn -0.99890775 0.00000000 -0.04672586
vn -0.99833802 -0.00094507 -0.05762215
vn -0.99833802 -0.00094507 -0.05762215
vn -0.99833802 -0.00094507 -0.05762215
vn -0.99946416 0.02053396 0.02549025
vn -0.99946416 0.02053396 0.02549025
vn -0.99946416 0.02053396 0.02549025
vn 0.02692301 -0.07772632 0.99661114
vn 0.02692301 -0.07772632 0.99661114
vn 0.02692301 -0.07772632 0.99661114
vn -0.00007105 -0.03944482 0.99922175
vn -0.00043064 -0.04200022 0.99911751
vn -0.00009751 -0.03963289 0.99921430
vn -0.00053954 -0.04277400 0.99908463
vn -0.02465728 -0.07759606 0.99667992
vn -0.02465728 -0.07759606 0.99667992
vn -0.02465728 -0.07759606 0.99667992
vn -0.01240973 -0.00058288 0.99992283
vn -0.01240973 -0.00058288 0.99992283
vn -0.01240973 -0.00058288 0.99992283
vn 0.00488242 -0.04583033 0.99893731
vn 0.00488242 -0.04583033 0.99893731
vn 0.00488242 -0.04583033 0.99893731
vn -0.00084516 0.04989139 0.99875429
vn -0.00084516 0.04989139 0.99875429
vn -0.00084516 0.04989139 0.99875429
vn -0.01135059 -0.03049045 0.99947061
vn -0.01135059 -0.03049045 0.99947061
vn -0.01135059 -0.03049045 0.99947061
vn 0.01458018 -0.99974555 0.01721230
vn 0.01458018 -0.99974555 0.01721230
vn 0.01458018 -0.99974555 0.01721230
vn 0.00000000 -0.99963470 0.02702730
vn 0.00000000 -0.99963470 0.02702730
vn 0.00000000 -0.99963470 0.02702730
vn -0.00486665 -0.99873904 0.04996640
vn -0.00486665 -0.99873904 0.04996640
vn -0.00486665 -0.99873904 0.04996640
vn -0.01453454 -0.99962010 0.02341814
vn -0.01453454 -0.99962010 0.02341814
vn -0.01453454 -0.99962010 0.02341814
vn 0.00020310 -0.99961832 -0.02762551
vn 0.00055127 -0.99952296 -0.03087950
vn 0.00053072 -0.99952889 -0.03068741
vn 0.00000000 -0.99966900 -0.02572726
vn 0.01503932 0.99983320 0.01036293
vn 0.01503932 0.99983320 0.01036293
vn 0.01503932 0.99983320 0.01036293
vn 0.00454491 0.99900972 0.04425972
vn 0.00454491 0.99900972 0.04425972
vn 0.00454491 0.99900972 0.04425972
vn -0.00308166 0.99995882 0.00853551
vn -0.00308166 0.99995882 0.00853551
vn -0.00308166 0.99995882 0.00853551
vn -0.00945930 0.99963541 0.02528967
vn -0.00945930 0.99963541 0.02528967
vn -0.00945930 0.99963541 0.02528967
vn 0.00111628 0.99933019 -0.03657755
vn 0.00111628 0.99933019 -0.03657755
vn 0.00111628 0.99933019 -0.03657755
vn -0.00309079 0.99998841 0.00369041
vn -0.00309079 0.99998841 0.00369041
vn -0.00309079 0.99998841 0.00369041
vn -0.00454189 0.04751217 0.99886033
vn -0.00454189 0.04751217 0.99886033
vn -0.00454189 0.04751217 0.99886033
vn 0.00008383 0.03353152 0.99943766
vn 0.00008383 0.03353152 0.99943766
vn 0.00008383 0.03353152 0.99943766
vn -0.00016421 0.00014351 -0.99999998
vn -0.00036840 0.00032192 -0.99999988
vn 0.00092645 -0.00080940 -0.99999924
vn -0.00145666 0.00127274 -0.99999813
vn 0.00196609 -0.99986663 0.01621304
vn 0.00196609 -0.99986663 0.01621304
vn 0.00196609 -0.99986663 0.01621304
vn -0.00181911 -0.99994657 0.01017543
vn -0.00181911 -0.99994657 0.01017543
vn -0.00181911 -0.99994657 0.01017543
vn -0.00217183 0.00722193 0.99997156
vn -0.00217183 0.00722193 0.99997156
vn -0.00217183 0.00722193 0.99997156
vn 0.00232618 -0.02131209 0.99977017
vn 0.00232618 -0.02131209 0.99977017
vn 0.00232618 -0.02131209 0.99977017
vn 0.99469874 0.05415715 0.08741521
vn 0.99469874 0.05415715 0.08741521
vn 0.99469874 0.05415715 0.08741521
vn 0.99915091 0.00052286 -0.04119687
vn 0.99915091 0.00052286 -0.04119687
vn 0.99915091 0.00052286 -0.04119687
vn 0.99860824 -0.00049854 -0.05273842
vn 0.99860824 -0.00049854 -0.05273842
vn 0.99860824 -0.00049854 -0.05273842
vn 0.99963670 -0.02062423 0.01735228
vn 0.99963670 -0.02062423 0.01735228
vn 0.99963670 -0.02062423 0.01735228
vn 0.99953233 0.01956534 0.02350150
vn 0.99953233 0.01956534 0.02350150
vn 0.99953233 0.01956534 0.02350150
vn 0.99649523 -0.05957580 0.05871946
vn 0.99649523 -0.05957580 0.05871946
vn 0.99649523 -0.05957580 0.05871946
vn 0.99985290 -0.01714242 -0.00055990
vn 0.99985103 -0.01725263 -0.00051203
vn 0.99985004 -0.01731066 -0.00048682
vn 0.99985394 -0.01708089 -0.00058663
vn 0.99905620 -0.01703652 0.03995588
vn 0.99905620 -0.01703652 0.03995588
vn 0.99905620 -0.01703652 0.03995588
vn 0.98729020 0.01235310 0.15844701
vn 0.98729020 0.01235310 0.15844701
vn 0.98729020 0.01235310 0.15844701
vn 0.99290643 -0.01675389 0.11771208
vn 0.99290643 -0.01675389 0.11771208
vn 0.99290643 -0.01675389 0.11771208
vn 0.99371732 0.01559809 -0.11082683
vn 0.99371732 0.01559809 -0.11082683
vn 0.99371732 0.01559809 -0.11082683
vn 0.99986009 0.00051566 -0.01671949
vn 0.99986009 0.00051566 -0.01671949
vn 0.99986009 0.00051566 -0.01671949
vn 0.99918006 0.01173885 0.03874810
vn 0.99918006 0.01173885 0.03874810
vn 0.99918006 0.01173885 0.03874810
vn 0.04513997 -0.00914814 0.99893878
vn 0.04513997 -0.00914814 0.99893878
vn 0.04513997 -0.00914814 0.99893878
vn 0.01033857 0.01256540 0.99986760
vn 0.01033857 0.01256540 0.99986760
vn 0.01033857 0.01256540 0.99986760
vn -0.00667963 0.03607164 0.99932688
vn -0.00667963 0.03607164 0.99932688
vn -0.00667963 0.03607164 0.99932688
vn 0.91409832 0.39579980 -0.08812934
vn 0.91409832 0.39579980 -0.08812934
vn 0.91409832 0.39579980 -0.08812934
vn 0.63510377 0.77189899 0.02855062
vn 0.63510377 0.77189899 0.02855062
vn 0.63510377 0.77189899 0.02855062
vn 0.61670809 0.78507008 0.05775902
vn 0.61670809 0.78507008 0.05775902
vn 0.61670809 0.78507008 0.05775902
vn 0.99744754 0.06387921 0.03190392
vn 0.99744754 0.06387921 0.03190392
vn 0.99744754 0.06387921 0.03190392
vn 0.99478992 0.08217142 0.06033963
vn 0.99478992 0.08217142 0.06033963
vn 0.99478992 0.08217142 0.06033963
vn 0.05973754 0.99820228 -0.00486226
vn 0.05973754 0.99820228 -0.00486226
vn 0.05973754 0.99820228 -0.00486226
vn 0.07615893 0.99679270 0.02457905
vn 0.07615893 0.99679270 0.02457905
vn 0.07615893 0.99679270 0.02457905
vn -0.00645107 -0.03731473 0.99928274
vn -0.00645107 -0.03731473 0.99928274
vn -0.00645107 -0.03731473 0.99928274
vn 0.04495630 0.00973190 0.99894155
vn 0.04495630 0.00973190 0.99894155
vn 0.04495630 0.00973190 0.99894155
vn 0.01094507 -0.01203770 0.99986764
vn 0.01094507 -0.01203770 0.99986764
vn 0.01094507 -0.01203770 0.99986764
vn 0.66999560 -0.73688025 0.09007433
vn 0.66999560 -0.73688025 0.09007433
vn 0.66999560 -0.73688025 0.09007433
vn 0.75598341 -0.65255795 -0.05154811
vn 0.75598341 -0.65255795 -0.05154811
vn 0.75598341 -0.65255795 -0.05154811
vn 0.07366665 -0.99715089 -0.01622731
vn 0.07366665 -0.99715089 -0.01622731
vn 0.07366665 -0.99715089 -0.01622731
vn 0.04524050 -0.99843151 0.03298217
vn 0.04524050 -0.99843151 0.03298217
vn 0.04524050 -0.99843151 0.03298217
vn 0.99740920 -0.07126878 0.00977999
vn 0.99740920 -0.07126878 0.00977999
vn 0.99740920 -0.07126878 0.00977999
vn 0.99688234 -0.07878253 -0.00434900
vn 0.99688234 -0.07878253 -0.00434900
vn 0.99688234 -0.07878253 -0.00434900
vn -0.04652308 -0.00969863 0.99887013
vn -0.04652308 -0.00969863 0.99887013
vn -0.04652308 -0.00969863 0.99887013
vn 0.00357521 0.03178543 0.99948832
vn 0.00357521 0.03178543 0.99948832
vn 0.00357521 0.03178543 0.99948832
vn -0.01030057 0.01261774 0.99986734
vn -0.01030057 0.01261774 0.99986734
vn -0.01030057 0.01261774 0.99986734
vn -0.63203974 0.77422041 0.03329437
vn -0.63203974 0.77422041 0.03329437
vn -0.63203974 0.77422041 0.03329437
vn -0.61650413 0.78522326 0.05785406
vn -0.61650413 0.78522326 0.05785406
vn -0.61650413 0.78522326 0.05785406
vn -0.91351760 0.39724229 -0.08765935
vn -0.91351760 0.39724229 -0.08765935
vn -0.91351760 0.39724229 -0.08765935
vn -0.07138774 0.99732403 -0.01576588
vn -0.07138774 0.99732403 -0.01576588
vn -0.07138774 0.99732403 -0.01576588
vn -0.06976927 0.99747547 -0.01322658
vn -0.06976927 0.99747547 -0.01322658
vn -0.06976927 0.99747547 -0.01322658
vn -0.99729920 0.06353540 0.03684494
vn -0.99729920 0.06353540 0.03684494
vn -0.99729920 0.06353540 0.03684494
vn -0.99498563 0.07915626 0.06113819
vn -0.99498563 0.07915626 0.06113819
vn -0.99498563 0.07915626 0.06113819
vn 0.00636061 -0.04334091 0.99904009
vn 0.00636061 -0.04334091 0.99904009
vn 0.00636061 -0.04334091 0.99904009
vn 0.00000000 0.00000000 1.00000000
vn 0.00000000 0.00000000 1.00000000
vn 0.00000000 0.00000000 1.00000000
vn -0.01211820 -0.01159589 0.99985933
vn -0.01211820 -0.01159589 0.99985933
vn -0.01211820 -0.01159589 0.99985933
vn -0.04726031 0.00968281 0.99883568
vn -0.04726031 0.00968281 0.99883568
vn -0.04726031 0.00968281 0.99883568
vn -0.87249953 -0.48100092 0.08592260
vn -0.87249953 -0.48100092 0.08592260
vn -0.87249953 -0.48100092 0.08592260
vn -0.74667015 -0.66303746 -0.05352580
vn -0.74667015 -0.66303746 -0.05352580
vn -0.74667015 -0.66303746 -0.05352580
vn -0.53493908 -0.83679511 0.11667958
vn -0.53493908 -0.83679511 0.11667958
vn -0.53493908 -0.83679511 0.11667958
vn -0.99875980 -0.04691106 0.01667966
vn -0.99875980 -0.04691106 0.01667966
vn -0.99875980 -0.04691106 0.01667966
vn -0.99820277 -0.05983224 -0.00336745
vn -0.99820277 -0.05983224 -0.00336745
vn -0.99820277 -0.05983224 -0.00336745
vn -0.06805808 -0.99754377 -0.01656869
vn -0.06805808 -0.99754377 -0.01656869
vn -0.06805808 -0.99754377 -0.01656869
vn -0.05555476 -0.99844744 0.00404712
vn -0.05555476 -0.99844744 0.00404712
vn -0.05555476 -0.99844744 0.00404712
vn 0.00088853 -0.54664655 0.83736298
vn 0.00088853 -0.54664655 0.83736298
vn 0.00088853 -0.54664655 0.83736298
vn 0.00053925 -0.55094189 0.83454343
vn 0.00053925 -0.55094189 0.83454343
vn 0.00053925 -0.55094189 0.83454343
vn 0.00412617 0.63757211 0.77037963
vn 0.00412617 0.63757211 0.77037963
vn 0.00412617 0.63757211 0.77037963
vn -0.01048779 0.82287943 0.56811922
vn -0.01048779 0.82287943 0.56811922
vn -0.01048779 0.82287943 0.56811922
vn -0.00251746 0.71064604 0.70354522
vn -0.00251746 0.71064604 0.70354522
vn -0.00251746 0.71064604 0.70354522
vn 0.00333022 0.65365844 0.75678237
vn 0.00333022 0.65365844 0.75678237
vn 0.00333022 0.65365844 0.75678237
vn -0.00388899 -0.66404642 0.74768124
vn -0.00388899 -0.66404642 0.74768124
vn -0.00388899 -0.66404642 0.74768124
vn 0.00318104 -0.73584165 0.67714618
vn 0.00318104 -0.73584165 0.67714618
vn 0.00318104 -0.73584165 0.67714618
vn -0.01674844 0.81515893 0.57899517
vn -0.01674844 0.81515893 0.57899517
vn -0.01674844 0.81515893 0.57899517
vn -0.37367165 0.46808184 0.80079267
vn -0.37367165 0.46808184 0.80079267
vn -0.37367165 0.46808184 0.80079267
vn -0.77244172 0.62220460 0.12726047
vn -0.77244172 0.62220460 0.12726047
vn -0.77244172 0.62220460 0.12726047
vn -0.56683372 0.24449200 0.78671671
vn -0.56683372 0.24449200 0.78671671
vn -0.56683372 0.24449200 0.78671671
vn -0.69822300 0.01290300 0.71576404
vn -0.69822300 0.01290300 0.71576404
vn -0.69822300 0.01290300 0.71576404
vn -0.95912702 0.06435226 0.27556150
vn -0.95912702 0.06435226 0.27556150
vn -0.95912702 0.06435226 0.27556150
vn -0.71468913 0.69933582 0.01220056
vn -0.71468913 0.69933582 0.01220056
vn -0.71468913 0.69933582 0.01220056
vn -0.43918933 0.89810241 0.02290840
vn -0.43918933 0.89810241 0.02290840
vn -0.43918933 0.89810241 0.02290840
vn -0.57221376 0.61646562 0.54087111
vn -0.57221376 0.61646562 0.54087111
vn -0.57221376 0.61646562 0.54087111
vn 0.70106194 0.00112286 0.71309950
vn 0.70106194 0.00112286 0.71309950
vn 0.70106194 0.00112286 0.71309950
vn 0.57169581 0.24725376 0.78232313
vn 0.57169581 0.24725376 0.78232313
vn 0.57169581 0.24725376 0.78232313
vn 0.77600815 0.62507811 0.08419449
vn 0.77600815 0.62507811 0.08419449
vn 0.77600815 0.62507811 0.08419449
vn 0.36566403 0.46466419 0.80645955
vn 0.36566403 0.46466419 0.80645955
vn 0.36566403 0.46466419 0.80645955
vn 0.01793295 0.78701970 0.61666717
vn 0.01793295 0.78701970 0.61666717
vn 0.01793295 0.78701970 0.61666717
vn -0.83526869 -0.39110731 0.38647289
vn -0.83526869 -0.39110731 0.38647289
vn -0.83526869 -0.39110731 0.38647289
vn 0.87168457 0.05804558 0.48661764
vn 0.87168457 0.05804558 0.48661764
vn 0.87168457 0.05804558 0.48661764
vn -0.60912508 -0.02783372 0.79258559
vn -0.60912508 -0.02783372 0.79258559
vn -0.60912508 -0.02783372 0.79258559
vn 0.82061817 0.39215220 0.41569516
vn 0.82061817 0.39215220 0.41569516
vn 0.82061817 0.39215220 0.41569516
vn 0.54983697 0.83444221 -0.03722233
vn 0.54983697 0.83444221 -0.03722233
vn 0.54983697 0.83444221 -0.03722233
vn 0.70216843 0.71188575 0.01334799
vn 0.70216843 0.71188575 0.01334799
vn 0.70216843 0.71188575 0.01334799
vn 0.78247728 0.62261047 0.00924696
vn 0.78247728 0.62261047 0.00924696
vn 0.78247728 0.62261047 0.00924696
vn 0.63382341 0.54130311 0.55250234
vn 0.63382341 0.54130311 0.55250234
vn 0.63382341 0.54130311 0.55250234
vn 0.82531920 -0.39755031 0.40100121
vn 0.82531920 -0.39755031 0.40100121
vn 0.82531920 -0.39755031 0.40100121
vn 0.62912541 -0.02652635 0.77685106
vn 0.62912541 -0.02652635 0.77685106
vn 0.62912541 -0.02652635 0.77685106
vn 0.76858257 -0.03075505 0.63901092
vn 0.76858257 -0.03075505 0.63901092
vn 0.76858257 -0.03075505 0.63901092
vn 0.38949357 -0.43634055 0.81111139
vn 0.38949357 -0.43634055 0.81111139
vn 0.38949357 -0.43634055 0.81111139
vn -0.00314620 -0.00006912 -0.99999505
vn -0.00314620 -0.00006912 -0.99999505
vn -0.00314620 -0.00006912 -0.99999505
vn 0.02068390 0.03776737 -0.99907247
vn 0.02068390 0.03776737 -0.99907247
vn 0.02068390 0.03776737 -0.99907247
vn -0.00033685 0.86813982 0.49631959
vn -0.00033685 0.86813982 0.49631959
vn -0.00033685 0.86813982 0.49631959
vn 0.00220238 0.86939098 0.49411990
vn 0.00220238 0.86939098 0.49411990
vn 0.00220238 0.86939098 0.49411990
vn 0.00084268 0.07533034 0.99715828
vn 0.00084268 0.07533034 0.99715828
vn 0.00084268 0.07533034 0.99715828
vn 0.00001853 0.06372001 0.99796781
vn 0.00001853 0.06372001 0.99796781
vn 0.00001853 0.06372001 0.99796781
vn -0.08732826 0.99106350 0.10083114
vn -0.08732826 0.99106350 0.10083114
vn -0.08732826 0.99106350 0.10083114
vn -0.00296449 0.99952985 0.03051717
vn -0.00296449 0.99952985 0.03051717
vn -0.00296449 0.99952985 0.03051717
vn -0.00102382 0.99971166 0.02399068
vn -0.00102382 0.99971166 0.02399068
vn -0.00102382 0.99971166 0.02399068
vn 0.00002401 0.99999999 -0.00016824
vn -0.00001232 0.99999999 -0.00012502
vn -0.00000398 0.99999999 -0.00013494
vn -0.00004166 1.00000000 -0.00009011
vn 0.05079052 0.99528790 0.08259738
vn 0.05079052 0.99528790 0.08259738
vn 0.05079052 0.99528790 0.08259738
vn -0.00213859 0.00530678 0.99998363
vn -0.00213859 0.00530678 0.99998363
vn -0.00213859 0.00530678 0.99998363
vn -0.00977175 -0.01278003 0.99987058
vn -0.00977175 -0.01278003 0.99987058
vn -0.00977175 -0.01278003 0.99987058
vn -0.00029387 -0.99987105 0.01605628
vn -0.00029387 -0.99987105 0.01605628
vn -0.00029387 -0.99987105 0.01605628
vn -0.01195901 -0.99990720 0.00652475
vn -0.01195901 -0.99990720 0.00652475
vn -0.01016923 -0.99992694 0.00653513
vn -0.00163441 -0.99993634 0.01116421
vn -0.00163441 -0.99993634 0.01116421
vn -0.00163441 -0.99993634 0.01116421
vn -0.00860835 -0.99996044 -0.00223834
vn -0.00860835 -0.99996044 -0.00223834
vn -0.00860835 -0.99996044 -0.00223834
vn -0.00706589 -0.99995356 0.00655306
vn -0.00706589 -0.99995356 0.00655306
vn -0.00371023 -0.99998751 0.00334854
vn -0.00157841 -0.99999372 0.00317315
vn -0.00210759 -0.99999477 0.00245245
vn 0.00009609 -0.99999874 0.00158323
vn -0.00084749 -0.99999903 -0.00110390
vn -0.00120114 -0.99999894 -0.00082104
vn -0.00127192 -0.99999890 -0.00076443
vn -0.00173929 -0.99999841 -0.00039062
vn -0.00300286 -0.99998775 0.00393573
vn 0.04072453 -0.99891685 -0.02250878
vn 0.04072453 -0.99891685 -0.02250878
vn 0.04072453 -0.99891685 -0.02250878
vn 0.00711635 -0.99984772 0.01593391
vn 0.00711635 -0.99984772 0.01593391
vn 0.00711635 -0.99984772 0.01593391
vn 0.00561381 -0.99996869 -0.00557786
vn 0.00561381 -0.99996869 -0.00557786
vn 0.00561381 -0.99996869 -0.00557786
vn 0.01095768 -0.99991864 0.00652970
vn 0.01092130 -0.99991875 0.00657458
vn 0.01105747 -0.99991834 0.00640661
vn -0.00303419 -0.99999513 -0.00072972
vn -0.00123340 -0.99999829 0.00137446
vn -0.00473074 -0.99998691 -0.00194874
vn -0.00247114 -0.99999606 -0.00133058
vn 0.01087686 -0.99991887 0.00662939
vn -0.00146139 -0.99999817 0.00123469
vn -0.00001478 -0.12296747 0.99241070
vn -0.00001478 -0.12296747 0.99241070
vn -0.00001478 -0.12296747 0.99241070
vn -0.00476883 -0.18718309 0.98231347
vn -0.00476883 -0.18718309 0.98231347
vn -0.00476883 -0.18718309 0.98231347
vn -0.00557269 -0.86993466 -0.49313551
vn -0.00557269 -0.86993466 -0.49313551
vn -0.00557269 -0.86993466 -0.49313551
vn -0.00023043 -0.86725533 -0.49786358
vn -0.00023043 -0.86725533 -0.49786358
vn -0.00023043 -0.86725533 -0.49786358
vn -0.00093762 -0.99951043 0.03127318
vn -0.00093762 -0.99951043 0.03127318
vn -0.00093762 -0.99951043 0.03127318
vn -0.00034433 -0.99922220 0.03943185
vn -0.00034433 -0.99922220 0.03943185
vn -0.00034433 -0.99922220 0.03943185
vn 0.99267301 -0.12029962 0.01132717
vn 0.99267301 -0.12029962 0.01132717
vn 0.99267301 -0.12029962 0.01132717
vn -0.95610448 -0.29286277 0.00977846
vn -0.95610448 -0.29286277 0.00977846
vn -0.95610448 -0.29286277 0.00977846
vn -0.00154709 0.99997789 0.00646749
vn -0.00154709 0.99997789 0.00646749
vn -0.00154709 0.99997789 0.00646749
vn 0.00206984 0.99999765 0.00064267
vn 0.00206984 0.99999765 0.00064267
vn 0.00206984 0.99999765 0.00064267
vn -0.01755623 0.03234071 -0.99932270
vn -0.01755623 0.03234071 -0.99932270
vn -0.01755623 0.03234071 -0.99932270
vn 0.00344650 -0.00036313 -0.99999399
vn 0.00344650 -0.00036313 -0.99999399
vn 0.00344650 -0.00036313 -0.99999399
vn 0.99998301 -0.00564418 -0.00145740
vn 0.99998301 -0.00564418 -0.00145740
vn 0.99998301 -0.00564418 -0.00145740
vn 0.99988755 0.01003179 -0.01114671
vn 0.99988755 0.01003179 -0.01114671
vn 0.99988755 0.01003179 -0.01114671
vn 0.99901228 0.00270828 -0.04435244
vn 0.99901228 0.00270828 -0.04435244
vn 0.99901228 0.00270828 -0.04435244
vn 0.99976311 -0.00621109 -0.02086029
vn 0.99976311 -0.00621109 -0.02086029
vn 0.99976311 -0.00621109 -0.02086029
vn -0.99998863 -0.00428069 -0.00210237
vn -0.99998863 -0.00428069 -0.00210237
vn -0.99998863 -0.00428069 -0.00210237
vn -0.99986106 0.01174973 -0.01182429
vn -0.99986106 0.01174973 -0.01182429
vn -0.99986106 0.01174973 -0.01182429
vn -0.99933271 0.00407057 -0.03629831
vn -0.99933271 0.00407057 -0.03629831
vn -0.99933271 0.00407057 -0.03629831
vn -0.99989378 -0.00452901 -0.01385362
vn -0.99989378 -0.00452901 -0.01385362
vn -0.99989378 -0.00452901 -0.01385362
vn -0.99599656 0.01350955 0.08836479
vn -0.99599656 0.01350955 0.08836479
vn -0.99599656 0.01350955 0.08836479
vn -0.99629179 -0.00500524 0.08589307
vn -0.99629179 -0.00500524 0.08589307
vn -0.99629179 -0.00500524 0.08589307
vn 0.15575263 -0.00122857 -0.98779533
vn 0.15575263 -0.00122857 -0.98779533
vn 0.15575263 -0.00122857 -0.98779533
vn -0.88122320 -0.00694181 -0.47264943
vn -0.88122320 -0.00694181 -0.47264943
vn -0.88122320 -0.00694181 -0.47264943
vn -0.99921982 -0.03507967 0.01814325
vn -0.99921982 -0.03507967 0.01814325
vn -0.99921982 -0.03507967 0.01814325
vn -0.99996910 -0.00139974 0.00773564
vn -0.99996910 -0.00139974 0.00773564
vn -0.99996910 -0.00139974 0.00773564
vn 0.99998123 -0.00142644 0.00595916
vn 0.99998123 -0.00142644 0.00595916
vn 0.99998123 -0.00142644 0.00595916
vn 0.99924375 -0.03516503 0.01659389
vn 0.99924375 -0.03516503 0.01659389
vn 0.99924375 -0.03516503 0.01659389
vn 0.98620442 -0.03599271 -0.16157157
vn 0.98620442 -0.03599271 -0.16157157
vn 0.98620442 -0.03599271 -0.16157157
vn 0.92681594 -0.00516931 -0.37548034
vn 0.92681594 -0.00516931 -0.37548034
vn 0.92681594 -0.00516931 -0.37548034
vn 0.88274775 -0.00219999 -0.46984206
vn 0.88274775 -0.00219999 -0.46984206
vn 0.88274775 -0.00219999 -0.46984206
vn 0.99599029 0.01377000 0.08839529
vn 0.99599029 0.01377000 0.08839529
vn 0.99599029 0.01377000 0.08839529
vn 0.99631007 -0.01399890 0.08467742
vn 0.99631007 -0.01399890 0.08467742
vn 0.99631007 -0.01399890 0.08467742
vn -0.00099377 -0.70990618 -0.70429555
vn -0.00099377 -0.70990618 -0.70429555
vn -0.00099377 -0.70990618 -0.70429555
vn 0.00122465 -0.71979655 -0.69418400
vn 0.00122465 -0.71979655 -0.69418400
vn 0.00122465 -0.71979655 -0.69418400
vn -0.00432288 0.70942247 -0.70477022
vn -0.00432288 0.70942247 -0.70477022
vn -0.00432288 0.70942247 -0.70477022
vn -0.00203404 0.69382906 -0.72013686
vn -0.00203404 0.69382906 -0.72013686
vn -0.00203404 0.69382906 -0.72013686
vn 0.00056549 0.70296985 -0.71121943
vn 0.00056549 0.70296985 -0.71121943
vn 0.00056549 0.70296985 -0.71121943
vn 0.00781761 0.70659993 -0.70757009
vn 0.00781761 0.70659993 -0.70757009
vn 0.00781761 0.70659993 -0.70757009
vn -0.52365769 0.00382200 0.85192019
vn -0.52365769 0.00382200 0.85192019
vn -0.52365769 0.00382200 0.85192019
vn -0.49674938 0.02186542 0.86761856
vn -0.49674938 0.02186542 0.86761856
vn -0.49674938 0.02186542 0.86761856
vn -0.72222333 -0.03209489 0.69091489
vn -0.72222333 -0.03209489 0.69091489
vn -0.72222333 -0.03209489 0.69091489
vn -0.89793270 0.03721619 0.43855652
vn -0.89793270 0.03721619 0.43855652
vn -0.89793270 0.03721619 0.43855652
vn -0.95981608 -0.02481096 0.27953088
vn -0.95981608 -0.02481096 0.27953088
vn -0.95981608 -0.02481096 0.27953088
vn 0.94169379 0.00318822 0.33645599
vn 0.94169379 0.00318822 0.33645599
vn 0.94169379 0.00318822 0.33645599
vn 0.88546005 -0.04921986 0.46210162
vn 0.88546005 -0.04921986 0.46210162
vn 0.88546005 -0.04921986 0.46210162
vn 0.64505942 0.00073380 0.76413206
vn 0.64505942 0.00073380 0.76413206
vn 0.64505942 0.00073380 0.76413206
vn 0.58880525 -0.02257631 0.80795959
vn 0.58880525 -0.02257631 0.80795959
vn 0.58880525 -0.02257631 0.80795959
vn 0.31851425 0.05586232 0.94627061
vn 0.31851425 0.05586232 0.94627061
vn 0.31851425 0.05586232 0.94627061
vn 0.64554403 0.03608379 0.76287015
vn 0.64554403 0.03608379 0.76287015
vn 0.64554403 0.03608379 0.76287015
vn 0.70218426 -0.63897667 -0.31407974
vn 0.70218426 -0.63897667 -0.31407974
vn 0.70218426 -0.63897667 -0.31407974
vn 0.70926614 -0.70493788 0.00203164
vn 0.70926614 -0.70493788 0.00203164
vn 0.70926614 -0.70493788 0.00203164
vn 0.40133900 -0.66938841 0.62517691
vn 0.40133900 -0.66938841 0.62517691
vn 0.40133900 -0.66938841 0.62517691
vn 0.00727681 -0.70184774 0.71228983
vn 0.00727681 -0.70184774 0.71228983
vn 0.00727681 -0.70184774 0.71228983
vn -0.43069951 -0.85675350 0.28367477
vn -0.43069951 -0.85675350 0.28367477
vn -0.43069951 -0.85675350 0.28367477
vn 0.69887812 -0.71520556 0.00709828
vn 0.69887812 -0.71520556 0.00709828
vn 0.69887812 -0.71520556 0.00709828
vn -0.69982186 -0.71431706 0.00070484
vn -0.69982186 -0.71431706 0.00070484
vn -0.69982186 -0.71431706 0.00070484
vn 0.91413999 0.00342511 -0.40538419
vn 0.91413999 0.00342511 -0.40538419
vn 0.91413999 0.00342511 -0.40538419
vn -0.66940060 -0.01036462 0.74282933
vn -0.66940060 -0.01036462 0.74282933
vn -0.66940060 -0.01036462 0.74282933
vn -0.70165092 -0.64007328 -0.31303703
vn -0.70165092 -0.64007328 -0.31303703
vn -0.70165092 -0.64007328 -0.31303703
vn 0.74151992 0.55080653 0.38309317
vn 0.74151992 0.55080653 0.38309317
vn 0.74151992 0.55080653 0.38309317
vn -0.69615418 -0.71786128 0.00667368
vn -0.69615418 -0.71786128 0.00667368
vn -0.69615418 -0.71786128 0.00667368
vn 0.67269299 0.01040650 0.73984853
vn 0.67269299 0.01040650 0.73984853
vn 0.67269299 0.01040650 0.73984853
vn 0.63733482 0.02923152 0.77003237
vn 0.63733482 0.02923152 0.77003237
vn 0.63733482 0.02923152 0.77003237
vn -0.87294684 0.00474950 -0.48779223
vn -0.87294684 0.00474950 -0.48779223
vn -0.87294684 0.00474950 -0.48779223
vn 0.57914192 0.81518560 0.00818996
vn 0.57914192 0.81518560 0.00818996
vn 0.57914192 0.81518560 0.00818996
vn 0.70101524 0.71313538 0.00394571
vn 0.70101524 0.71313538 0.00394571
vn 0.70101524 0.71313538 0.00394571
vn 0.87125323 0.37972514 0.31100907
vn 0.87125323 0.37972514 0.31100907
vn 0.87125323 0.37972514 0.31100907
vn 0.34049431 0.89419511 0.29065225
vn 0.34049431 0.89419511 0.29065225
vn 0.34049431 0.89419511 0.29065225
vn -0.63688519 0.72109653 0.27275823
vn -0.63688519 0.72109653 0.27275823
vn -0.63688519 0.72109653 0.27275823
vn -0.71001166 0.70417453 0.00465573
vn -0.71001166 0.70417453 0.00465573
vn -0.71001166 0.70417453 0.00465573
vn -0.72333653 0.69047508 0.00533229
vn -0.72333653 0.69047508 0.00533229
vn -0.72333653 0.69047508 0.00533229
vn -0.73585978 0.55544799 0.38728273
vn -0.73585978 0.55544799 0.38728273
vn -0.73585978 0.55544799 0.38728273
vn -0.67540297 0.01092076 0.73736800
vn -0.67540297 0.01092076 0.73736800
vn -0.67540297 0.01092076 0.73736800
vn -0.65954526 0.01947119 0.75141262
vn -0.65954526 0.01947119 0.75141262
vn -0.65954526 0.01947119 0.75141262
vn -0.71517362 -0.69554692 0.06885615
vn -0.71517362 -0.69554692 0.06885615
vn -0.71517362 -0.69554692 0.06885615
vn -0.56884844 -0.69331594 0.44240757
vn -0.56884844 -0.69331594 0.44240757
vn -0.56884844 -0.69331594 0.44240757
vn 0.70134378 -0.69847187 0.14231641
vn 0.70134378 -0.69847187 0.14231641
vn 0.70134378 -0.69847187 0.14231641
vn 0.54738068 -0.69984695 0.45889938
vn 0.54738068 -0.69984695 0.45889938
vn 0.54738068 -0.69984695 0.45889938
vn 0.21539327 -0.69706581 0.68388961
vn 0.21539327 -0.69706581 0.68388961
vn 0.21539327 -0.69706581 0.68388961
vn -0.25727999 -0.69967104 0.66653390
vn -0.25727999 -0.69967104 0.66653390
vn -0.25727999 -0.69967104 0.66653390
vn 0.00210821 -0.93147251 0.36380561
vn 0.00210821 -0.93147251 0.36380561
vn 0.00210821 -0.93147251 0.36380561
vn 0.88149783 -0.07933875 0.46547496
vn 0.88149783 -0.07933875 0.46547496
vn 0.88149783 -0.07933875 0.46547496
vn 0.87301622 -0.09179722 0.47897385
vn 0.87301622 -0.09179722 0.47897385
vn 0.87301622 -0.09179722 0.47897385
vn 0.04292380 -0.01598712 -0.99895043
vn 0.04292380 -0.01598712 -0.99895043
vn 0.04292380 -0.01598712 -0.99895043
vn 0.13433795 0.03758215 -0.99022265
vn 0.13433795 0.03758215 -0.99022265
vn 0.13433795 0.03758215 -0.99022265
vn 0.57407930 0.03055080 0.81822956
vn 0.57407930 0.03055080 0.81822956
vn 0.57407930 0.03055080 0.81822956
vn 0.50901915 -0.05372000 -0.85907722
vn 0.50901915 -0.05372000 -0.85907722
vn 0.50901915 -0.05372000 -0.85907722
vn 0.30755210 -0.01932274 0.95133503
vn 0.30755210 -0.01932274 0.95133503
vn 0.30755210 -0.01932274 0.95133503
vn 0.29462295 -0.03104107 0.95510930
vn 0.29462295 -0.03104107 0.95510930
vn 0.29462295 -0.03104107 0.95510930
vn 0.63751729 0.04316212 -0.76922607
vn 0.63751729 0.04316212 -0.76922607
vn 0.63751729 0.04316212 -0.76922607
vn 0.90886329 0.00813303 -0.41701485
vn 0.90886329 0.00813303 -0.41701485
vn 0.90886329 0.00813303 -0.41701485
vn 0.95174218 -0.08275081 -0.29553193
vn 0.95174218 -0.08275081 -0.29553193
vn 0.95174218 -0.08275081 -0.29553193
vn 0.99749269 0.01392985 -0.06938509
vn 0.99749269 0.01392985 -0.06938509
vn 0.99749269 0.01392985 -0.06938509
vn 0.38532454 -0.79724292 -0.46468131
vn 0.38532454 -0.79724292 -0.46468131
vn 0.38532454 -0.79724292 -0.46468131
vn 0.67917601 -0.44600325 -0.58292456
vn 0.67917601 -0.44600325 -0.58292456
vn 0.67917601 -0.44600325 -0.58292456
vn -0.47351246 -0.87065624 -0.13320533
vn -0.47351246 -0.87065624 -0.13320533
vn -0.47351246 -0.87065624 -0.13320533
vn 0.51957037 -0.81972676 -0.24102835
vn 0.51957037 -0.81972676 -0.24102835
vn 0.51957037 -0.81972676 -0.24102835
vn -0.49377282 -0.74557028 -0.44756380
vn -0.49377282 -0.74557028 -0.44756380
vn -0.49377282 -0.74557028 -0.44756380
vn -0.77298791 -0.37405077 -0.51242142
vn -0.77298791 -0.37405077 -0.51242142
vn -0.77298791 -0.37405077 -0.51242142
vn 0.94049127 -0.33928715 -0.01898430
vn 0.94049127 -0.33928715 -0.01898430
vn 0.94049127 -0.33928715 -0.01898430
vn -0.29579208 -0.67221735 -0.67869793
vn -0.29579208 -0.67221735 -0.67869793
vn -0.29579208 -0.67221735 -0.67869793
vn -0.30069527 -0.61923791 -0.72534596
vn -0.30069527 -0.61923791 -0.72534596
vn -0.30069527 -0.61923791 -0.72534596
vn 0.08509771 -0.78743867 -0.61049056
vn 0.08509771 -0.78743867 -0.61049056
vn 0.08509771 -0.78743867 -0.61049056
vn 0.20999133 -0.49429656 -0.84354878
vn 0.20999133 -0.49429656 -0.84354878
vn 0.20999133 -0.49429656 -0.84354878
vn -0.00017815 0.99999998 0.00012629
vn -0.00016187 0.99999999 -0.00003793
vn -0.00019955 0.99999997 0.00017166
vn -0.00022981 0.99999997 0.00009338
vn 0.00022872 0.99999997 -0.00010415
vn -0.00155901 0.99999878 -0.00013141
vn -0.04178759 0.99847819 0.03598753
vn -0.04178759 0.99847819 0.03598753
vn -0.04178759 0.99847819 0.03598753
vn -0.00567825 0.99973441 0.02233536
vn -0.00567825 0.99973441 0.02233536
vn -0.00567825 0.99973441 0.02233536
vn -0.00226048 0.99980744 0.01949266
vn -0.00226048 0.99980744 0.01949266
vn -0.00226048 0.99980744 0.01949266
vn 0.06644461 0.99767828 -0.01493834
vn 0.06644461 0.99767828 -0.01493834
vn 0.06644461 0.99767828 -0.01493834
vn -0.48312134 -0.67035410 0.56322212
vn -0.48312134 -0.67035410 0.56322212
vn -0.48312134 -0.67035410 0.56322212
vn -0.54326417 -0.43677052 0.71700457
vn -0.54326417 -0.43677052 0.71700457
vn -0.54326417 -0.43677052 0.71700457
vn -0.54665953 -0.80788831 0.22018137
vn -0.54665953 -0.80788831 0.22018137
vn -0.54665953 -0.80788831 0.22018137
vn -0.97701491 -0.09011374 0.19318741
vn -0.97701491 -0.09011374 0.19318741
vn -0.97701491 -0.09011374 0.19318741
vn 0.56032533 -0.47158471 0.68091364
vn 0.56032533 -0.47158471 0.68091364
vn 0.56032533 -0.47158471 0.68091364
vn 0.17330557 -0.81546552 0.55225100
vn 0.17330557 -0.81546552 0.55225100
vn 0.17330557 -0.81546552 0.55225100
vn 0.03994608 -0.32444033 0.94506232
vn 0.03994608 -0.32444033 0.94506232
vn 0.03994608 -0.32444033 0.94506232
vn -0.12516062 -0.84103162 0.52630849
vn -0.12516062 -0.84103162 0.52630849
vn -0.12516062 -0.84103162 0.52630849
vn -0.96160080 -0.05234061 -0.26941487
vn -0.96160080 -0.05234061 -0.26941487
vn -0.96160080 -0.05234061 -0.26941487
vn -0.73974560 0.05419761 -0.67070043
vn -0.73974560 0.05419761 -0.67070043
vn -0.73974560 0.05419761 -0.67070043
vn -0.30730439 -0.04553277 0.95052132
vn -0.30730439 -0.04553277 0.95052132
vn -0.30730439 -0.04553277 0.95052132
vn -0.22276864 0.01336960 0.97477966
vn -0.22276864 0.01336960 0.97477966
vn -0.22276864 0.01336960 0.97477966
vn -0.49040781 -0.05028738 -0.87004101
vn -0.49040781 -0.05028738 -0.87004101
vn -0.49040781 -0.05028738 -0.87004101
vn -0.39668236 0.01347580 -0.91785702
vn -0.39668236 0.01347580 -0.91785702
vn -0.39668236 0.01347580 -0.91785702
vn -0.65197831 0.05775313 0.75603496
vn -0.65197831 0.05775313 0.75603496
vn -0.65197831 0.05775313 0.75603496
vn -0.87452137 -0.07047516 0.47983917
vn -0.87452137 -0.07047516 0.47983917
vn -0.87452137 -0.07047516 0.47983917
vn -0.92776361 0.02066369 0.37259589
vn -0.92776361 0.02066369 0.37259589
vn -0.92776361 0.02066369 0.37259589
vn -0.95475408 -0.02298727 -0.29650673
vn -0.95475408 -0.02298727 -0.29650673
vn -0.95475408 -0.02298727 -0.29650673
vn 0.00000000 -1.00000000 0.00000000
vn 0.00000000 -1.00000000 0.00000000
vn 0.00000000 -1.00000000 0.00000000
vn 0.00000000 -1.00000000 0.00000000
vn 0.00000000 -1.00000000 0.00000000
vn 0.00000000 -1.00000000 0.00000000
vn 0.00000000 -1.00000000 0.00000000
vn 0.00000000 -1.00000000 0.00000000
vn 0.00000000 -1.00000000 0.00000000
vn 0.86911818 -0.13138407 0.47683521
vn 0.86911818 -0.13138407 0.47683521
vn 0.86911818 -0.13138407 0.47683521
vn 0.04292672 -0.01598731 -0.99895030
vn 0.04292672 -0.01598731 -0.99895030
vn 0.04292672 -0.01598731 -0.99895030
vn 0.13433794 0.03757621 -0.99022288
vn 0.13433794 0.03757621 -0.99022288
vn 0.13433794 0.03757621 -0.99022288
vn 0.68141000 0.05734987 0.72965156
vn 0.68141000 0.05734987 0.72965156
vn 0.68141000 0.05734987 0.72965156
vn 0.50900728 -0.05373955 -0.85908303
vn 0.50900728 -0.05373955 -0.85908303
vn 0.50900728 -0.05373955 -0.85908303
vn 0.30755901 -0.01932322 0.95133279
vn 0.30755901 -0.01932322 0.95133279
vn 0.30755901 -0.01932322 0.95133279
vn 0.29463234 -0.03103906 0.95510647
vn 0.29463234 -0.03103906 0.95510647
vn 0.29463234 -0.03103906 0.95510647
vn 0.63754857 0.04317298 -0.76919953
vn 0.63754857 0.04317298 -0.76919953
vn 0.63754857 0.04317298 -0.76919953
vn 0.90684068 0.00855100 -0.42138683
vn 0.90684068 0.00855100 -0.42138683
vn 0.90684068 0.00855100 -0.42138683
vn 0.95064719 -0.09555869 -0.29519223
vn 0.95064719 -0.09555869 -0.29519223
vn 0.95064719 -0.09555869 -0.29519223
vn 0.98947036 0.03842801 0.13954102
vn 0.98947036 0.03842801 0.13954102
vn 0.98947036 0.03842801 0.13954102
vn 0.36972514 -0.81519984 -0.44581672
vn 0.36972514 -0.81519984 -0.44581672
vn 0.36972514 -0.81519984 -0.44581672
vn -0.96270272 -0.26664697 -0.04585703
vn -0.96270272 -0.26664697 -0.04585703
vn -0.96270272 -0.26664697 -0.04585703
vn -0.53358802 -0.83233450 -0.15001033
vn -0.53358802 -0.83233450 -0.15001033
vn -0.53358802 -0.83233450 -0.15001033
vn 0.62283691 -0.74350575 -0.24346125
vn 0.62283691 -0.74350575 -0.24346125
vn 0.62283691 -0.74350575 -0.24346125
vn -0.68883781 -0.42559057 -0.58683485
vn -0.68883781 -0.42559057 -0.58683485
vn -0.68883781 -0.42559057 -0.58683485
vn -0.35946441 -0.40631382 -0.84005620
vn -0.35946441 -0.40631382 -0.84005620
vn -0.35946441 -0.40631382 -0.84005620
vn 0.07127986 -0.85885154 -0.50724078
vn 0.07127986 -0.85885154 -0.50724078
vn 0.07127986 -0.85885154 -0.50724078
vn 0.43617652 0.05487483 -0.89818639
vn 0.43617652 0.05487483 -0.89818639
vn 0.43617652 0.05487483 -0.89818639
vn -0.00006912 0.99999999 -0.00015095
vn 0.00020970 0.99999998 -0.00004746
vn -0.00030996 0.99999995 0.00010156
vn 0.00007723 0.99999998 -0.00017526
vn -0.20447651 0.93401645 -0.29292085
vn -0.20447651 0.93401645 -0.29292085
vn -0.20447651 0.93401645 -0.29292085
vn 0.09706147 0.99505281 0.02118905
vn 0.09706147 0.99505281 0.02118905
vn 0.09706147 0.99505281 0.02118905
vn 0.00068419 0.99999975 0.00016825
vn 0.00012403 0.99999998 -0.00015220
vn 0.00016579 0.99999998 -0.00008824
vn 0.26186516 0.96506456 0.00877705
vn 0.26186516 0.96506456 0.00877705
vn 0.26186516 0.96506456 0.00877705
vn -0.31623964 -0.54611464 0.77572630
vn -0.31623964 -0.54611464 0.77572630
vn -0.31623964 -0.54611464 0.77572630
vn -0.38023002 -0.81108586 0.44448269
vn -0.38023002 -0.81108586 0.44448269
vn -0.38023002 -0.81108586 0.44448269
vn -0.74606103 -0.41986235 0.51682544
vn -0.74606103 -0.41986235 0.51682544
vn -0.74606103 -0.41986235 0.51682544
vn -0.50379214 -0.83963607 0.20298955
vn -0.50379214 -0.83963607 0.20298955
vn -0.50379214 -0.83963607 0.20298955
vn 0.54982736 -0.66333041 0.50762451
vn 0.54982736 -0.66333041 0.50762451
vn 0.54982736 -0.66333041 0.50762451
vn 0.17250679 -0.81741166 0.54961767
vn 0.17250679 -0.81741166 0.54961767
vn 0.17250679 -0.81741166 0.54961767
vn 0.11485860 -0.42066128 0.89991755
vn 0.11485860 -0.42066128 0.89991755
vn 0.11485860 -0.42066128 0.89991755
vn -0.13764992 -0.80150129 0.58193486
vn -0.13764992 -0.80150129 0.58193486
vn -0.13764992 -0.80150129 0.58193486
vn -0.96160188 -0.05231919 -0.26941516
vn -0.96160188 -0.05231919 -0.26941516
vn -0.96160188 -0.05231919 -0.26941516
vn -0.78766879 0.03750774 -0.61495613
vn -0.78766879 0.03750774 -0.61495613
vn -0.78766879 0.03750774 -0.61495613
vn -0.30729058 -0.04552294 0.95052626
vn -0.30729058 -0.04552294 0.95052626
vn -0.30729058 -0.04552294 0.95052626
vn -0.22276864 0.01336964 0.97477966
vn -0.22276864 0.01336964 0.97477966
vn -0.22276864 0.01336964 0.97477966
vn -0.48966316 -0.07398169 -0.86876735
vn -0.48966316 -0.07398169 -0.86876735
vn -0.48966316 -0.07398169 -0.86876735
vn -0.36575597 0.01130941 -0.93064207
vn -0.36575597 0.01130941 -0.93064207
vn -0.36575597 0.01130941 -0.93064207
vn -0.65195976 0.05777601 0.75604921
vn -0.65195976 0.05777601 0.75604921
vn -0.65195976 0.05777601 0.75604921
vn -0.87453849 -0.07046789 0.47980903
vn -0.87453849 -0.07046789 0.47980903
vn -0.87453849 -0.07046789 0.47980903
vn -0.92776399 0.02064353 0.37259606
vn -0.92776399 0.02064353 0.37259606
vn -0.92776399 0.02064353 0.37259606
vn -0.95476487 -0.02300571 -0.29647053
vn -0.95476487 -0.02300571 -0.29647053
vn -0.95476487 -0.02300571 -0.29647053
vn 0.00000000 -1.00000000 0.00000000
vn 0.00000000 -1.00000000 0.00000000
vn 0.00000000 -1.00000000 0.00000000
vn 0.00000000 -1.00000000 0.00000000
vn 0.00000000 -1.00000000 0.00000000
vn 0.00000000 -1.00000000 0.00000000
vn 0.00000000 -1.00000000 0.00000000
vn 0.00000000 -1.00000000 0.00000000
vn 0.00000000 -1.00000000 0.00000000
f 1//1 2//2 3//3
f 4//4 5//5 6//6
f 7//7 8//8 9//9
f 10//10 11//11 12//12
f 13//13 14//14 15//15
f 16//16 17//17 18//18
f 19//19 20//20 21//21
f 22//22 23//23 24//24
f 25//25 26//26 27//27
f 28//28 29//29 30//30
f 31//31 32//32 33//33
f 34//34 35//35 36//36
f 37//37 38//38 39//39
f 40//40 41//41 42//42
f 43//43 44//44 45//45
f 46//46 47//47 48//48
f 49//49 50//50 51//51
f 52//52 53//53 54//54
f 55//55 56//56 57//57
f 58//58 59//59 60//60
f 61//61 62//62 63//63
f 64//64 65//65 66//66
f 67//67 68//68 69//69
f 70//70 71//71 72//72
f 73//73 74//74 75//75
f 75//75 74//74 76//76
f 77//77 78//78 79//79
f 80//80 81//81 82//82
f 83//83 84//84 85//85
f 86//86 87//87 88//88
f 89//89 90//90 91//91
f 92//92 93//93 94//94
f 95//95 96//96 97//97
f 98//98 99//99 100//100
f 101//101 102//102 103//103
f 104//104 105//105 106//106
f 104//104 106//106 107//107
f 108//108 109//109 110//110
f 111//111 112//112 113//113
f 114//114 115//115 116//116
f 117//117 118//118 119//119
f 120//120 121//121 122//122
f 123//123 124//124 125//125
f 126//126 127//127 128//128
f 129//129 130//130 131//131
f 132//132 133//133 134//134
f 132//132 135//135 133//133
f 136//136 137//137 138//138
f 139//139 140//140 141//141
f 142//142 143//143 144//144
f 145//145 146//146 147//147
f 148//148 149//149 150//150
f 151//151 152//152 153//153
f 154//154 155//155 156//156
f 157//157 158//158 159//159
f 160//160 161//161 162//162
f 163//163 164//164 165//165
f 166//166 167//167 168//168
f 166//166 169//169 167//167
f 170//170 171//171 172//172
f 173//173 174//174 175//175
f 176//176 177//177 178//178
f 179//179 180//180 181//181
f 182//182 183//183 184//184
f 185//185 186//186 187//187
f 188//188 189//189 190//190
f 191//191 192//192 193//193
f 194//194 195//195 196//196
f 197//197 198//198 199//199
f 200//200 201//201 202//202
f 203//203 204//204 205//205
f 206//206 207//207 208//208
f 209//209 210//210 211//211
f 212//212 213//213 214//214
f 215//215 216//216 217//217
f 218//218 219//219 220//220
f 221//221 222//222 223//223
f 224//224 225//225 226//226
f 227//227 228//228 229//229
f 230//230 231//231 232//232
f 233//233 234//234 235//235
f 236//236 237//237 238//238
f 239//239 240//240 241//241
f 242//242 243//243 244//244
f 245//245 246//246 247//247
f 248//248 249//249 250//250
f 251//251 252//252 253//253
f 254//254 255//255 256//256
f 257//257 258//258 259//259
f 260//260 261//261 262//262
f 263//263 264//264 265//265
f 266//266 267//267 268//268
f 269//269 270//270 271//271
f 272//272 273//273 274//274
f 275//275 276//276 277//277
f 278//278 279//279 280//280
f 281//281 282//282 283//283
f 284//284 285//285 286//286
f 287//287 288//288 289//289
f 290//290 291//291 292//292
f 293//293 294//294 295//295
f 296//296 297//297 298//298
f 299//299 300//300 301//301
f 302//302 303//303 304//304
f 305//305 306//306 307//307
f 308//308 309//309 310//310
f 311//311 312//312 313//313
f 314//314 315//315 316//316
f 317//317 318//318 319//319
f 320//320 321//321 322//322
f 323//323 324//324 325//325
f 326//326 327//327 328//328
f 329//329 330//330 331//331
f 332//332 333//333 334//334
f 335//335 336//336 337//337
f 338//338 339//339 340//340
f 341//341 342//342 343//343
f 344//344 345//345 346//346
f 347//347 348//348 349//349
f 350//350 351//351 352//352
f 353//353 354//354 355//355
f 356//356 357//357 358//358
f 359//359 360//360 361//361
f 362//362 363//363 364//364
f 365//365 366//366 367//367
f 368//368 369//369 370//370
f 371//371 372//372 373//373
f 374//374 375//375 376//376
f 377//377 378//378 379//379
f 380//380 381//381 382//382
f 383//383 384//384 385//385
f 386//386 387//387 388//388
f 389//389 390//390 391//391
f 392//392 393//393 394//394
f 395//395 396//396 397//397
f 398//398 399//399 400//400
f 401//401 402//402 403//403
f 404//404 405//405 406//406
f 407//407 408//408 409//409
f 410//410 411//411 412//412
f 413//413 414//414 415//415
f 416//416 417//417 418//418
f 419//419 420//420 421//421
f 422//422 423//423 424//424
f 425//425 426//426 427//427
f 428//428 429//429 430//430
f 431//431 432//432 433//433
f 434//434 435//435 436//436
f 437//437 438//438 439//439
f 439//439 438//438 440//440
f 441//441 442//442 443//443
f 444//444 445//445 446//446
f 447//447 448//448 449//449
f 450//450 451//451 452//452
f 453//453 454//454 455//455
f 456//456 457//457 458//458
f 459//459 460//460 461//461
f 455//455 462//462 463//463
f 464//464 465//465 466//466
f 465//465 467//467 466//466
f 468//468 469//469 470//470
f 469//469 471//471 470//470
f 465//465 472//472 467//467
f 473//473 474//474 475//475
f 476//476 477//477 478//478
f 479//479 480//480 481//481
f 482//482 483//483 484//484
f 485//485 486//486 487//487
f 488//488 486//486 485//485
f 482//482 489//489 483//483
f 490//490 486//486 488//488
f 465//465 486//486 490//490
f 491//491 492//492 493//493
f 494//494 495//495 496//496
f 497//497 498//498 499//499
f 500//500 501//501 502//502
f 503//503 504//504 505//505
f 506//506 507//507 508//508
f 509//509 510//510 511//511
f 512//512 513//513 514//514
f 515//515 516//516 517//517
f 518//518 519//519 520//520
f 521//521 522//522 523//523
f 524//524 525//525 526//526
f 527//527 528//528 529//529
f 530//530 531//531 532//532
f 533//533 534//534 535//535
f 536//536 537//537 538//538
f 539//539 540//540 541//541
f 542//542 543//543 544//544
f 545//545 546//546 547//547
f 548//548 549//549 550//550
f 551//551 552//552 553//553
f 554//554 555//555 556//556
f 557//557 558//558 559//559
f 560//560 561//561 562//562
f 563//563 564//564 565//565
f 566//566 567//567 568//568
f 569//569 570//570 571//571
f 572//572 573//573 574//574
f 575//575 576//576 577//577
f 578//578 579//579 580//580
f 581//581 582//582 583//583
f 584//584 585//585 586//586
f 587//587 588//588 589//589
f 590//590 591//591 592//592
f 593//593 594//594 595//595
f 596//596 597//597 598//598
f 599//599 600//600 601//601
f 602//602 603//603 604//604
f 605//605 606//606 607//607
f 608//608 609//609 610//610
f 611//611 612//612 613//613
f 614//614 615//615 616//616
f 617//617 618//618 619//619
f 620//620 621//621 622//622
f 623//623 624//624 625//625
f 626//626 627//627 628//628
f 629//629 630//630 631//631
f 632//632 633//633 634//634
f 635//635 636//636 637//637
f 638//638 639//639 640//640
f 641//641 642//642 643//643
f 644//644 645//645 646//646
f 647//647 648//648 649//649
f 650//650 651//651 652//652
f 653//653 654//654 655//655
f 656//656 657//657 658//658
f 659//659 660//660 661//661
f 662//662 663//663 664//664
f 665//665 666//666 667//667
f 668//668 669//669 670//670
f 671//671 672//672 673//673
f 674//674 675//675 676//676
f 677//677 678//678 679//679
f 680//680 681//681 682//682
f 683//683 684//684 685//685
f 686//686 687//687 688//688
f 689//689 690//690 691//691
f 692//692 693//693 694//694
f 695//695 696//696 697//697
f 698//698 699//699 700//700
f 701//701 702//702 703//703
f 704//704 705//705 706//706
f 707//707 708//708 709//709
f 710//710 711//711 712//712
f 713//713 714//714 715//715
f 716//716 717//717 718//718
f 719//719 720//720 721//721
f 722//722 723//723 724//724
f 725//725 726//726 727//727
f 728//728 729//729 730//730
f 731//731 732//732 733//733
f 734//734 735//735 736//736
f 737//737 738//738 739//739
f 740//740 741//741 742//742
f 743//743 744//744 745//745
f 746//746 747//747 748//748
f 749//749 750//750 751//751
f 752//752 753//753 754//754
f 755//755 756//756 757//757
f 758//758 759//759 760//760
f 761//761 762//762 763//763
f 764//764 765//765 766//766
f 767//767 768//768 769//769
f 770//770 771//771 772//772
f 773//773 774//774 775//775
f 776//776 777//777 778//778
f 779//779 780//780 781//781
f 782//782 783//783 784//784
f 785//785 786//786 787//787
f 788//788 789//789 790//790
f 791//791 792//792 793//793
f 794//794 795//795 796//796
f 797//797 798//798 799//799
f 800//800 801//801 802//802
f 803//803 804//804 805//805
f 806//806 807//807 808//808
f 808//808 807//807 809//809
f 810//810 807//807 806//806
f 809//809 807//807 811//811
f 812//812 813//813 814//814
f 815//815 816//816 817//817
f 818//818 819//819 820//820
f 821//821 822//822 823//823
f 824//824 825//825 826//826
f 827//827 828//828 829//829
f 830//830 831//831 832//832
f 833//833 834//834 835//835
f 836//836 837//837 838//838
f 839//839 840//840 841//841
f 842//842 843//843 844//844
f 845//845 846//846 847//847
f 848//848 849//849 850//850
f 851//851 852//852 853//853
f 854//854 855//855 856//856
f 857//857 858//858 859//859
f 860//860 861//861 862//862
f 863//863 864//864 865//865
f 866//866 867//867 868//868
f 869//869 870//870 871//871
f 872//872 873//873 874//874
f 875//875 876//876 877//877
f 878//878 879//879 880//880
f 878//878 880//880 881//881
f 878//878 881//881 882//882
f 883//883 878//878 882//882
f 883//883 882//882 884//884
f 883//883 885//885 878//878
f 883//883 884//884 886//886
f 887//887 888//888 889//889
f 890//890 891//891 892//892
f 893//893 894//894 895//895
f 896//896 897//897 898//898
f 899//899 900//900 901//901
f 902//902 903//903 904//904
f 905//905 906//906 907//907
f 908//908 909//909 910//910
f 911//911 912//912 913//913
f 914//914 915//915 916//916
f 917//917 918//918 919//919
f 920//920 921//921 922//922
f 923//923 924//924 925//925
f 926//926 927//927 928//928
f 929//929 930//930 931//931
f 932//932 933//933 934//934
f 935//935 936//936 937//937
f 938//938 939//939 940//940
f 941//941 942//942 943//943
f 944//944 945//945 946//946
f 947//947 945//945 944//944
f 948//948 949//949 950//950
f 951//951 952//952 953//953
f 954//954 955//955 956//956
f 956//956 947//947 944//944
f 955//955 947//947 956//956
f 957//957 958//958 959//959
f 960//960 961//961 962//962
f 963//963 964//964 965//965
f 966//966 967//967 968//968
f 969//969 970//970 971//971
f 972//972 973//973 974//974
f 975//975 976//976 977//977
f 978//978 979//979 980//980
f 981//981 982//982 983//983
f 984//984 985//985 986//986
f 987//987 988//988 989//989
f 990//990 991//991 992//992
f 993//993 994//994 995//995
f 996//996 997//997 998//998
f 999//999 1000//1000 1001//1001
f 1002//1002 1003//1003 1004//1004
f 1005//1005 1006//1006 1007//1007
f 1008//1008 1009//1009 1010//1010
f 1011//1011 1012//1012 1013//1013
f 1014//1014 1015//1015 1016//1016
f 1017//1017 1018//1018 1019//1019
f 1017//1017 1020//1020 1018//1018
f 1017//1017 1021//1021 1020//1020
f 1017//1017 1019//1019 1022//1022
f 1022//1022 1019//1019 1015//1015
f 1022//1022 1015//1015 1014//1014

