# https://github.com/mikedh/trimesh
v 0.08738523 0.07734596 -0.02619742
v 0.08815622 0.07722586 -0.02612363
v 0.08771610 0.07718873 -0.02655040
v 0.08941632 0.07743287 -0.02422278
v 0.08974540 0.07729572 -0.02457069
v 0.08916914 0.07728153 -0.02513580
v 0.08739113 0.07752108 -0.02551411
v 0.08738523 0.07734596 -0.02619742
v 0.08705252 0.07749742 -0.02584331
v 0.08815622 0.07722586 -0.02612363
v 0.08773332 0.07753998 -0.02518002
v 0.08860248 0.07725536 -0.02568923
v 0.08815622 0.07722586 -0.02612363
v 0.08773332 0.07753998 -0.02518002
v 0.08815622 0.07722586 -0.02612363
v 0.08739113 0.07752108 -0.02551411
v 0.08807909 0.07755410 -0.02484225
v 0.08916914 0.07728153 -0.02513580
v 0.08860248 0.07725536 -0.02568923
v 0.08773332 0.07753998 -0.02518002
v 0.08842843 0.07756346 -0.02450000
v 0.08908265 0.07756567 -0.02387111
v 0.08941632 0.07743287 -0.02422278
v 0.08842843 0.07756346 -0.02450000
v 0.08941632 0.07743287 -0.02422278
v 0.08916914 0.07728153 -0.02513580
v 0.08842843 0.07756346 -0.02450000
v 0.08807909 0.07755410 -0.02484225
v 0.08874440 0.07769411 -0.02351563
v 0.08908265 0.07756567 -0.02387111
v 0.08842843 0.07756346 -0.02450000
v 0.08809328 0.07769709 -0.02414672
v 0.08874440 0.07769411 -0.02351563
v 0.08842843 0.07756346 -0.02450000
v 0.08807593 0.07782381 -0.02347808
v 0.08840155 0.07781827 -0.02315645
v 0.08874440 0.07769411 -0.02351563
v 0.08807593 0.07782381 -0.02347808
v 0.08874440 0.07769411 -0.02351563
v 0.08809328 0.07769709 -0.02414672
v 0.08775657 0.07782518 -0.02379285
vn 0.17292303 0.94973727 -0.26095352
vn 0.17292303 0.94973727 -0.26095352
vn 0.17292303 0.94973727 -0.26095352
vn 0.18050398 0.96128373 -0.20821121
vn 0.18050398 0.96128373 -0.20821121
vn 0.18148634 0.96066102 -0.21022158
vn 0.17229058 0.95384982 -0.24593999
vn 0.17223993 0.95385851 -0.24594178
vn 0.17246275 0.95382027 -0.24593390
vn 0.17213154 0.95387709 -0.24594560
vn 0.17154442 0.95521742 -0.24110619
vn 0.17154442 0.95521742 -0.24110619
vn 0.17154442 0.95521742 -0.24110619
vn 0.17916416 0.95471589 -0.23752426
vn 0.17916416 0.95471589 -0.23752426
vn 0.17916416 0.95471589 -0.23752426
vn 0.18016691 0.95725103 -0.22629705
vn 0.17808978 0.95732888 -0.22760808
vn 0.17891238 0.95729875 -0.22708912
vn 0.18128643 0.95720665 -0.22558958
vn 0.18139646 0.96446579 -0.19209651
vn 0.18139646 0.96446579 -0.19209651
vn 0.18139646 0.96446579 -0.19209651
vn 0.18566809 0.96004045 -0.20940319
vn 0.18566809 0.96004045 -0.20940319
vn 0.18566809 0.96004045 -0.20940319
vn 0.18272429 0.95986802 -0.21275625
vn 0.18272429 0.95986802 -0.21275625
vn 0.17377928 0.96740758 -0.18418288
vn 0.17377928 0.96740758 -0.18418288
vn 0.17377928 0.96740758 -0.18418288
vn 0.18649024 0.96432987 -0.18785445
vn 0.18649024 0.96432987 -0.18785445
vn 0.18649024 0.96432987 -0.18785445
vn 0.17896609 0.97001068 -0.16447012
vn 0.17896609 0.97001068 -0.16447012
vn 0.17896609 0.97001068 -0.16447012
vn 0.17862892 0.96754692 -0.17873074
vn 0.17771470 0.96770532 -0.17878448
vn 0.17886823 0.96750531 -0.17871664
vn 0.18022166 0.96726888 -0.17863671
f 1//1 2//2 3//3
f 4//4 5//5 6//6
f 7//7 8//8 9//9
f 7//7 10//10 8//8
f 11//11 12//12 13//13
f 14//14 15//15 16//16
f 17//17 18//18 19//19
f 17//17 19//19 20//20
f 21//21 22//22 23//23
f 24//24 25//25 26//26
f 27//27 6//6 28//28
f 29//29 30//30 31//31
f 32//32 33//33 34//34
f 35//35 36//36 37//37
f 38//38 39//39 40//40
f 41//41 38//38 40//40

