# https://github.com/mikedh/trimesh
v -0.07350182 0.01472208 -0.01370275
v -0.07349455 0.01268224 -0.00884295
v -0.07350325 0.01378099 -0.00853860
v -0.07348889 0.01214591 -0.00303662
v -0.07349878 0.01202367 0.00049999
v -0.07350015 0.01265422 0.00050000
v -0.07350122 0.01270018 -0.00100779
v -0.07348889 0.01214591 -0.00303662
v -0.07350015 0.01265422 0.00050000
v -0.07350182 0.01472208 -0.01370275
v -0.07350152 0.01413951 -0.01564621
v -0.07349455 0.01268224 -0.00884295
v -0.07345938 0.01537899 -0.01602751
v -0.07350152 0.01413951 -0.01564621
v -0.07350182 0.01472208 -0.01370275
v -0.07350111 0.01325027 -0.00373739
v -0.07350122 0.01270018 -0.00100779
v -0.07349860 0.01316891 -0.00110006
v -0.07350111 0.01325027 -0.00373739
v -0.07348889 0.01214591 -0.00303662
v -0.07350122 0.01270018 -0.00100779
v -0.05838406 0.00255889 -0.00537014
v -0.05836468 0.00221050 -0.00166982
v -0.05881327 0.00251356 -0.00511891
v -0.05771476 0.00241040 0.00049869
v -0.05792284 0.00235093 -0.00094431
v -0.05766022 0.00262698 -0.00166094
v -0.05922508 0.00263732 -0.00504309
v -0.05885720 0.00223497 -0.00173014
v -0.05927026 0.00243899 -0.00229651
v -0.05922508 0.00263732 -0.00504309
v -0.05881327 0.00251356 -0.00511891
v -0.05885720 0.00223497 -0.00173014
v -0.05741131 0.00537918 -0.01532769
v -0.05704557 0.00683156 -0.01821506
v -0.05720204 0.00608353 -0.01630550
v -0.05731058 0.00639425 -0.01825106
v -0.05704557 0.00683156 -0.01821506
v -0.05741131 0.00537918 -0.01532769
v -0.05770432 0.00516991 -0.01572704
v -0.05777686 0.00612197 -0.01834601
v -0.05731058 0.00639425 -0.01825106
v -0.05809009 0.00502107 -0.01588988
v -0.05833292 0.00598297 -0.01829338
v -0.05777686 0.00612197 -0.01834601
v -0.05809009 0.00502107 -0.01588988
v -0.05777686 0.00612197 -0.01834601
v -0.05770432 0.00516991 -0.01572704
v -0.05901861 0.00559006 -0.01687783
v -0.05833292 0.00598297 -0.01829338
v -0.05844098 0.00537751 -0.01686793
v -0.05844098 0.00537751 -0.01686793
v -0.05833292 0.00598297 -0.01829338
v -0.05809009 0.00502107 -0.01588988
v -0.05901861 0.00559006 -0.01687783
v -0.05892384 0.00627450 -0.01831573
v -0.05833292 0.00598297 -0.01829338
v -0.05849218 0.00455962 -0.01463747
v -0.05844098 0.00537751 -0.01686793
v -0.05809009 0.00502107 -0.01588988
v -0.05893272 0.00471441 -0.01485157
v -0.05844098 0.00537751 -0.01686793
v -0.05849218 0.00455962 -0.01463747
v -0.05930078 0.00511376 -0.01512908
v -0.05901861 0.00559006 -0.01687783
v -0.05893272 0.00471441 -0.01485157
v -0.05770432 0.00516991 -0.01572704
v -0.05741131 0.00537918 -0.01532769
v -0.05768162 0.00391449 -0.01061213
v -0.05751127 0.00397674 -0.00941128
v -0.05741131 0.00537918 -0.01532769
v -0.05720204 0.00608353 -0.01630550
v -0.05809009 0.00502107 -0.01588988
v -0.05770432 0.00516991 -0.01572704
v -0.05793601 0.00370464 -0.01076316
v -0.05768162 0.00391449 -0.01061213
v -0.05741131 0.00537918 -0.01532769
v -0.05751127 0.00397674 -0.00941128
v -0.05849218 0.00455962 -0.01463747
v -0.05809009 0.00502107 -0.01588988
v -0.05849874 0.00381550 -0.01207327
v -0.05793601 0.00370464 -0.01076316
v -0.05770432 0.00516991 -0.01572704
v -0.05768162 0.00391449 -0.01061213
v -0.05910670 0.00365349 -0.01108402
v -0.05893272 0.00471441 -0.01485157
v -0.05849218 0.00455962 -0.01463747
v -0.05825150 0.00360870 -0.01103496
v -0.05809009 0.00502107 -0.01588988
v -0.05793601 0.00370464 -0.01076316
v -0.05849874 0.00381550 -0.01207327
v -0.05809009 0.00502107 -0.01588988
v -0.05825150 0.00360870 -0.01103496
v -0.05944222 0.00390419 -0.01113528
v -0.05930078 0.00511376 -0.01512908
v -0.05893272 0.00471441 -0.01485157
v -0.05910670 0.00365349 -0.01108402
v -0.05849218 0.00455962 -0.01463747
v -0.05849874 0.00381550 -0.01207327
v -0.05944222 0.00390419 -0.01113528
v -0.05893272 0.00471441 -0.01485157
v -0.05910670 0.00365349 -0.01108402
v -0.05772596 0.00318715 -0.00686359
v -0.05768162 0.00391449 -0.01061213
v -0.05751127 0.00397674 -0.00941128
v -0.05797392 0.00291515 -0.00666618
v -0.05768162 0.00391449 -0.01061213
v -0.05772596 0.00318715 -0.00686359
v -0.05793601 0.00370464 -0.01076316
v -0.05831515 0.00301751 -0.00820738
v -0.05825150 0.00360870 -0.01103496
v -0.05793601 0.00370464 -0.01076316
v -0.05831515 0.00301751 -0.00820738
v -0.05793601 0.00370464 -0.01076316
v -0.05797392 0.00291515 -0.00666618
v -0.05836468 0.00221050 -0.00166982
v -0.05885720 0.00223497 -0.00173014
v -0.05881327 0.00251356 -0.00511891
v -0.05888879 0.00296505 -0.00815648
v -0.05875957 0.00332954 -0.01001030
v -0.05825150 0.00360870 -0.01103496
v -0.05888879 0.00296505 -0.00815648
v -0.05825150 0.00360870 -0.01103496
v -0.05831515 0.00301751 -0.00820738
v -0.05888879 0.00296505 -0.00815648
v -0.05910670 0.00365349 -0.01108402
v -0.05875957 0.00332954 -0.01001030
v -0.05954176 0.00320190 -0.00737876
v -0.05910670 0.00365349 -0.01108402
v -0.05888879 0.00296505 -0.00815648
v -0.05792284 0.00235093 -0.00094431
v -0.05836468 0.00221050 -0.00166982
v -0.05789500 0.00249634 -0.00263906
v -0.05772596 0.00318715 -0.00686359
v -0.05751127 0.00397674 -0.00941128
v -0.05748993 0.00328831 -0.00450635
v -0.05954176 0.00320190 -0.00737876
v -0.05944222 0.00390419 -0.01113528
v -0.05910670 0.00365349 -0.01108402
v -0.05838406 0.00255889 -0.00537014
v -0.05831515 0.00301751 -0.00820738
v -0.05797392 0.00291515 -0.00666618
v -0.05885720 0.00223497 -0.00173014
v -0.05838745 0.00211887 0.00049905
v -0.05927306 0.00235797 0.00049906
v -0.05838406 0.00255889 -0.00537014
v -0.05888879 0.00296505 -0.00815648
v -0.05831515 0.00301751 -0.00820738
v -0.05954176 0.00320190 -0.00737876
v -0.05888879 0.00296505 -0.00815648
v -0.05922508 0.00263732 -0.00504309
v -0.05881327 0.00251356 -0.00511891
v -0.05888879 0.00296505 -0.00815648
v -0.05838406 0.00255889 -0.00537014
v -0.05922508 0.00263732 -0.00504309
v -0.05888879 0.00296505 -0.00815648
v -0.05881327 0.00251356 -0.00511891
v -0.05825150 0.00360870 -0.01103496
v -0.05875957 0.00332954 -0.01001030
v -0.05849874 0.00381550 -0.01207327
v -0.05748993 0.00328831 -0.00450635
v -0.05739545 0.00284707 0.00049886
v -0.05766022 0.00262698 -0.00166094
v -0.05771476 0.00241040 0.00049869
v -0.05838745 0.00211887 0.00049905
v -0.05792284 0.00235093 -0.00094431
v -0.05927026 0.00243899 -0.00229651
v -0.05885720 0.00223497 -0.00173014
v -0.05927306 0.00235797 0.00049906
v -0.05910670 0.00365349 -0.01108402
v -0.05849874 0.00381550 -0.01207327
v -0.05875957 0.00332954 -0.01001030
v -0.05838406 0.00255889 -0.00537014
v -0.05797392 0.00291515 -0.00666618
v -0.05789500 0.00249634 -0.00263906
v -0.05838406 0.00255889 -0.00537014
v -0.05789500 0.00249634 -0.00263906
v -0.05836468 0.00221050 -0.00166982
v -0.05766022 0.00262698 -0.00166094
v -0.05792284 0.00235093 -0.00094431
v -0.05789500 0.00249634 -0.00263906
v -0.05922508 0.00263732 -0.00504309
v -0.05955636 0.00276797 -0.00341004
v -0.05954176 0.00320190 -0.00737876
v -0.05922508 0.00263732 -0.00504309
v -0.05927026 0.00243899 -0.00229651
v -0.05955636 0.00276797 -0.00341004
v -0.05836468 0.00221050 -0.00166982
v -0.05838745 0.00211887 0.00049905
v -0.05885720 0.00223497 -0.00173014
v -0.05772596 0.00318715 -0.00686359
v -0.05789500 0.00249634 -0.00263906
v -0.05797392 0.00291515 -0.00666618
v -0.05772596 0.00318715 -0.00686359
v -0.05766022 0.00262698 -0.00166094
v -0.05789500 0.00249634 -0.00263906
v -0.05955636 0.00276797 -0.00341004
v -0.05927026 0.00243899 -0.00229651
v -0.05927306 0.00235797 0.00049906
v -0.05771476 0.00241040 0.00049869
v -0.05766022 0.00262698 -0.00166094
v -0.05739545 0.00284707 0.00049886
v -0.05770432 0.00516991 -0.01572704
v -0.05731058 0.00639425 -0.01825106
v -0.05741131 0.00537918 -0.01532769
v -0.05838745 0.00211887 0.00049905
v -0.05836468 0.00221050 -0.00166982
v -0.05792284 0.00235093 -0.00094431
v -0.05844098 0.00537751 -0.01686793
v -0.05893272 0.00471441 -0.01485157
v -0.05901861 0.00559006 -0.01687783
v -0.05748993 0.00328831 -0.00450635
v -0.05766022 0.00262698 -0.00166094
v -0.05772596 0.00318715 -0.00686359
v -0.06529831 0.01067124 -0.01445955
v -0.06372398 0.00924967 -0.01325690
v -0.06389963 0.00871615 -0.01046013
v -0.07033389 0.01416836 -0.01828002
v -0.06873917 0.01283274 -0.01589953
v -0.07040369 0.01300046 -0.01450937
v -0.06543874 0.00981370 -0.01039052
v -0.06183069 0.00949404 -0.01828050
v -0.05988299 0.00746641 -0.01829195
v -0.06059950 0.00718359 -0.01614058
v -0.07191127 0.01380542 -0.01604270
v -0.07195562 0.01291738 -0.01239591
v -0.07338356 0.01323036 -0.01251024
v -0.07195836 0.01220892 -0.00849086
v -0.07048004 0.01187173 -0.00901437
v -0.07033866 0.01124231 -0.00351828
v -0.07191127 0.01380542 -0.01604270
v -0.07033389 0.01416836 -0.01828002
v -0.07040369 0.01300046 -0.01450937
v -0.07338076 0.01215944 -0.00533509
v -0.07177972 0.01163940 -0.00335866
v -0.07338529 0.01198331 -0.00246161
v -0.06584388 0.00957725 -0.00734830
v -0.06423377 0.00847111 -0.00728542
v -0.06408220 0.00807760 -0.00451708
v -0.06584388 0.00957725 -0.00734830
v -0.06408220 0.00807760 -0.00451708
v -0.06563621 0.00907538 -0.00325781
v -0.07033866 0.01124231 -0.00351828
v -0.06882506 0.01070062 -0.00348049
v -0.06801205 0.01029984 0.00049987
v -0.07033866 0.01124231 -0.00351828
v -0.06801205 0.01029984 0.00049987
v -0.07024902 0.01112232 0.00049962
v -0.07338106 0.01393292 -0.01542419
v -0.07191127 0.01380542 -0.01604270
v -0.07338356 0.01323036 -0.01251024
v -0.06166464 0.00715123 -0.01248461
v -0.06092816 0.00537060 -0.00853741
v -0.06247872 0.00741641 -0.01018792
v -0.06389963 0.00871615 -0.01046013
v -0.06244570 0.00689451 -0.00727201
v -0.06423377 0.00847111 -0.00728542
v -0.06247872 0.00741641 -0.01018792
v -0.06183069 0.00949404 -0.01828050
v -0.06059950 0.00718359 -0.01614058
v -0.06192874 0.00861285 -0.01618427
v -0.07195836 0.01220892 -0.00849086
v -0.07033866 0.01124231 -0.00351828
v -0.07177972 0.01163940 -0.00335866
v -0.07177972 0.01163940 -0.00335866
v -0.07024902 0.01112232 0.00049962
v -0.07349878 0.01202367 0.00049999
v -0.06674331 0.01101462 -0.01248902
v -0.06543874 0.00981370 -0.01039052
v -0.06741362 0.01060353 -0.00862801
v -0.06536644 0.01202855 -0.01824307
v -0.06343942 0.00992451 -0.01620090
v -0.06372398 0.00924967 -0.01325690
v -0.07191127 0.01380542 -0.01604270
v -0.07223057 0.01442323 -0.01776176
v -0.07033389 0.01416836 -0.01828002
v -0.07191127 0.01380542 -0.01604270
v -0.07302761 0.01425580 -0.01681149
v -0.07223057 0.01442323 -0.01776176
v -0.07302761 0.01425580 -0.01681149
v -0.07191127 0.01380542 -0.01604270
v -0.07338106 0.01393292 -0.01542419
v -0.06059950 0.00718359 -0.01614058
v -0.05930078 0.00511376 -0.01512908
v -0.06010437 0.00529758 -0.01263493
v -0.06674331 0.01101462 -0.01248902
v -0.06529831 0.01067124 -0.01445955
v -0.06543874 0.00981370 -0.01039052
v -0.07329177 0.01247952 -0.00838840
v -0.07195836 0.01220892 -0.00849086
v -0.07177972 0.01163940 -0.00335866
v -0.06039363 0.00401441 -0.00313675
v -0.05927306 0.00235797 0.00049906
v -0.06126689 0.00523368 0.00050002
v -0.06039363 0.00401441 -0.00313675
v -0.05955636 0.00276797 -0.00341004
v -0.05927306 0.00235797 0.00049906
v -0.06859534 0.01187090 -0.01241976
v -0.06674331 0.01101462 -0.01248902
v -0.06741362 0.01060353 -0.00862801
v -0.06151801 0.00547520 -0.00145167
v -0.06039363 0.00401441 -0.00313675
v -0.06126689 0.00523368 0.00050002
v -0.07329177 0.01247952 -0.00838840
v -0.07177972 0.01163940 -0.00335866
v -0.07338076 0.01215944 -0.00533509
v -0.06529831 0.01067124 -0.01445955
v -0.06536644 0.01202855 -0.01824307
v -0.06372398 0.00924967 -0.01325690
v -0.06255012 0.00660924 -0.00315797
v -0.06151801 0.00547520 -0.00145167
v -0.06126689 0.00523368 0.00050002
v -0.06255012 0.00660924 -0.00315797
v -0.06126689 0.00523368 0.00050002
v -0.06328928 0.00733510 0.00050002
v -0.06183069 0.00949404 -0.01828050
v -0.06192874 0.00861285 -0.01618427
v -0.06343942 0.00992451 -0.01620090
v -0.07033866 0.01124231 -0.00351828
v -0.06859534 0.01187090 -0.01241976
v -0.06741362 0.01060353 -0.00862801
v -0.06891047 0.01122800 -0.00834119
v -0.06399160 0.00788365 -0.00152463
v -0.06255012 0.00660924 -0.00315797
v -0.06328928 0.00733510 0.00050002
v -0.06039363 0.00401441 -0.00313675
v -0.05954176 0.00320190 -0.00737876
v -0.05955636 0.00276797 -0.00341004
v -0.06741362 0.01060353 -0.00862801
v -0.06563621 0.00907538 -0.00325781
v -0.06719344 0.00994829 -0.00317216
v -0.06741362 0.01060353 -0.00862801
v -0.06584388 0.00957725 -0.00734830
v -0.06563621 0.00907538 -0.00325781
v -0.06059950 0.00718359 -0.01614058
v -0.06010437 0.00529758 -0.01263493
v -0.06166464 0.00715123 -0.01248461
v -0.06160885 0.00570826 -0.00461751
v -0.06039363 0.00401441 -0.00313675
v -0.06151801 0.00547520 -0.00145167
v -0.06401640 0.01121501 -0.01827985
v -0.06183069 0.00949404 -0.01828050
v -0.06343942 0.00992451 -0.01620090
v -0.06543874 0.00981370 -0.01039052
v -0.06389963 0.00871615 -0.01046013
v -0.06423377 0.00847111 -0.00728542
v -0.06698703 0.01180408 -0.01497554
v -0.06529831 0.01067124 -0.01445955
v -0.06674331 0.01101462 -0.01248902
v -0.06092816 0.00537060 -0.00853741
v -0.05954176 0.00320190 -0.00737876
v -0.06039363 0.00401441 -0.00313675
v -0.06399160 0.00788365 -0.00152463
v -0.06328928 0.00733510 0.00050002
v -0.06545263 0.00893728 0.00049991
v -0.07338529 0.01198331 -0.00246161
v -0.07177972 0.01163940 -0.00335866
v -0.07349878 0.01202367 0.00049999
v -0.06255012 0.00660924 -0.00315797
v -0.06160885 0.00570826 -0.00461751
v -0.06151801 0.00547520 -0.00145167
v -0.07048004 0.01187173 -0.00901437
v -0.06859534 0.01187090 -0.01241976
v -0.06891047 0.01122800 -0.00834119
v -0.06563621 0.00907538 -0.00325781
v -0.06399160 0.00788365 -0.00152463
v -0.06545263 0.00893728 0.00049991
v -0.06092816 0.00537060 -0.00853741
v -0.06039363 0.00401441 -0.00313675
v -0.06160885 0.00570826 -0.00461751
v -0.06714069 0.01293830 -0.01820915
v -0.06529831 0.01067124 -0.01445955
v -0.06698703 0.01180408 -0.01497554
v -0.06408220 0.00807760 -0.00451708
v -0.06255012 0.00660924 -0.00315797
v -0.06399160 0.00788365 -0.00152463
v -0.06698703 0.01180408 -0.01497554
v -0.06674331 0.01101462 -0.01248902
v -0.06859534 0.01187090 -0.01241976
v -0.06192874 0.00861285 -0.01618427
v -0.06059950 0.00718359 -0.01614058
v -0.06166464 0.00715123 -0.01248461
v -0.06401640 0.01121501 -0.01827985
v -0.06343942 0.00992451 -0.01620090
v -0.06536644 0.01202855 -0.01824307
v -0.06372398 0.00924967 -0.01325690
v -0.06166464 0.00715123 -0.01248461
v -0.06247872 0.00741641 -0.01018792
v -0.06543874 0.00981370 -0.01039052
v -0.06423377 0.00847111 -0.00728542
v -0.06584388 0.00957725 -0.00734830
v -0.06244570 0.00689451 -0.00727201
v -0.06092816 0.00537060 -0.00853741
v -0.06160885 0.00570826 -0.00461751
v -0.07040369 0.01300046 -0.01450937
v -0.06859534 0.01187090 -0.01241976
v -0.07048004 0.01187173 -0.00901437
v -0.07195562 0.01291738 -0.01239591
v -0.07048004 0.01187173 -0.00901437
v -0.07195836 0.01220892 -0.00849086
v -0.06092816 0.00537060 -0.00853741
v -0.05944222 0.00390419 -0.01113528
v -0.05954176 0.00320190 -0.00737876
v -0.06714069 0.01293830 -0.01820915
v -0.06536644 0.01202855 -0.01824307
v -0.06529831 0.01067124 -0.01445955
v -0.05901861 0.00559006 -0.01687783
v -0.05988299 0.00746641 -0.01829195
v -0.05892384 0.00627450 -0.01831573
v -0.06719344 0.00994829 -0.00317216
v -0.06545263 0.00893728 0.00049991
v -0.06801205 0.01029984 0.00049987
v -0.06873917 0.01283274 -0.01589953
v -0.06698703 0.01180408 -0.01497554
v -0.06859534 0.01187090 -0.01241976
v -0.07195836 0.01220892 -0.00849086
v -0.07329177 0.01247952 -0.00838840
v -0.07338356 0.01323036 -0.01251024
v -0.06255012 0.00660924 -0.00315797
v -0.06873917 0.01283274 -0.01589953
v -0.06714069 0.01293830 -0.01820915
v -0.06698703 0.01180408 -0.01497554
v -0.06719344 0.00994829 -0.00317216
v -0.06563621 0.00907538 -0.00325781
v -0.06545263 0.00893728 0.00049991
v -0.06891047 0.01122800 -0.00834119
v -0.06741362 0.01060353 -0.00862801
v -0.06719344 0.00994829 -0.00317216
v -0.06882506 0.01070062 -0.00348049
v -0.07195562 0.01291738 -0.01239591
v -0.07195836 0.01220892 -0.00849086
v -0.07338356 0.01323036 -0.01251024
v -0.06059950 0.00718359 -0.01614058
v -0.05901861 0.00559006 -0.01687783
v -0.05930078 0.00511376 -0.01512908
v -0.07195562 0.01291738 -0.01239591
v -0.07040369 0.01300046 -0.01450937
v -0.07048004 0.01187173 -0.00901437
v -0.06563621 0.00907538 -0.00325781
v -0.06408220 0.00807760 -0.00451708
v -0.06399160 0.00788365 -0.00152463
v -0.07040369 0.01300046 -0.01450937
v -0.06873917 0.01283274 -0.01589953
v -0.06859534 0.01187090 -0.01241976
v -0.06423377 0.00847111 -0.00728542
v -0.06255012 0.00660924 -0.00315797
v -0.06408220 0.00807760 -0.00451708
v -0.06244570 0.00689451 -0.00727201
v -0.06372398 0.00924967 -0.01325690
v -0.06247872 0.00741641 -0.01018792
v -0.06389963 0.00871615 -0.01046013
v -0.06010437 0.00529758 -0.01263493
v -0.05944222 0.00390419 -0.01113528
v -0.06092816 0.00537060 -0.00853741
v -0.06247872 0.00741641 -0.01018792
v -0.06092816 0.00537060 -0.00853741
v -0.06244570 0.00689451 -0.00727201
v -0.06741362 0.01060353 -0.00862801
v -0.06543874 0.00981370 -0.01039052
v -0.06584388 0.00957725 -0.00734830
v -0.06343942 0.00992451 -0.01620090
v -0.06192874 0.00861285 -0.01618427
v -0.06166464 0.00715123 -0.01248461
v -0.06343942 0.00992451 -0.01620090
v -0.06166464 0.00715123 -0.01248461
v -0.06372398 0.00924967 -0.01325690
v -0.06882506 0.01070062 -0.00348049
v -0.06719344 0.00994829 -0.00317216
v -0.06801205 0.01029984 0.00049987
v -0.05944222 0.00390419 -0.01113528
v -0.05988299 0.00746641 -0.01829195
v -0.05901861 0.00559006 -0.01687783
v -0.06059950 0.00718359 -0.01614058
v -0.07191127 0.01380542 -0.01604270
v -0.07040369 0.01300046 -0.01450937
v -0.07195562 0.01291738 -0.01239591
v -0.06166464 0.00715123 -0.01248461
v -0.06010437 0.00529758 -0.01263493
v -0.06092816 0.00537060 -0.00853741
v -0.07033389 0.01416836 -0.01828002
v -0.06714069 0.01293830 -0.01820915
v -0.06873917 0.01283274 -0.01589953
v -0.07048004 0.01187173 -0.00901437
v -0.06891047 0.01122800 -0.00834119
v -0.06882506 0.01070062 -0.00348049
v -0.07048004 0.01187173 -0.00901437
v -0.06882506 0.01070062 -0.00348049
v -0.07033866 0.01124231 -0.00351828
v -0.05572056 0.01426194 -0.01470726
v -0.05542886 0.01510474 -0.01825273
v -0.05461645 0.01777402 -0.01821959
v -0.05640709 0.01087473 -0.01816254
v -0.05572056 0.01426194 -0.01470726
v -0.05656147 0.01072023 -0.00976199
v -0.05215305 0.02416048 -0.01832360
v -0.05298024 0.02211574 -0.01407480
v -0.05285060 0.02247224 -0.01823163
v -0.05572056 0.01426194 -0.01470726
v -0.05500406 0.01667896 -0.00730276
v -0.05585891 0.01370863 -0.00677419
v -0.05707633 0.00737838 -0.00395221
v -0.05578732 0.01366941 0.00050000
v -0.05699884 0.00700317 0.00050008
v -0.05640709 0.01087473 -0.01816254
v -0.05656147 0.01072023 -0.00976199
v -0.05711925 0.00745545 -0.01052105
v -0.05640709 0.01087473 -0.01816254
v -0.05542886 0.01510474 -0.01825273
v -0.05572056 0.01426194 -0.01470726
v -0.05720204 0.00608353 -0.01630550
v -0.05640709 0.01087473 -0.01816254
v -0.05711925 0.00745545 -0.01052105
v -0.05711925 0.00745545 -0.01052105
v -0.05751127 0.00397674 -0.00941128
v -0.05720204 0.00608353 -0.01630550
v -0.05748993 0.00328831 -0.00450635
v -0.05707633 0.00737838 -0.00395221
v -0.05699884 0.00700317 0.00050008
v -0.05748993 0.00328831 -0.00450635
v -0.05699884 0.00700317 0.00050008
v -0.05739545 0.00284707 0.00049886
v -0.05656147 0.01072023 -0.00976199
v -0.05585891 0.01370863 -0.00677419
v -0.05578732 0.01366941 0.00050000
v -0.05461645 0.01777402 -0.01821959
v -0.05382663 0.02006141 -0.01824229
v -0.05500406 0.01667896 -0.00730276
v -0.05711925 0.00745545 -0.01052105
v -0.05656147 0.01072023 -0.00976199
v -0.05707633 0.00737838 -0.00395221
v -0.05385756 0.01988104 -0.00423896
v -0.05390197 0.01973758 -0.00109994
v -0.05411911 0.01914940 -0.00106537
v -0.05500406 0.01667896 -0.00730276
v -0.05411911 0.01914940 -0.00106537
v -0.05417716 0.01898805 0.00050003
v -0.05707633 0.00737838 -0.00395221
v -0.05656147 0.01072023 -0.00976199
v -0.05578732 0.01366941 0.00050000
v -0.05671972 0.00901429 -0.01820129
v -0.05640709 0.01087473 -0.01816254
v -0.05720204 0.00608353 -0.01630550
v -0.05382663 0.02006141 -0.01824229
v -0.05656147 0.01072023 -0.00976199
v -0.05572056 0.01426194 -0.01470726
v -0.05585891 0.01370863 -0.00677419
v -0.05461645 0.01777402 -0.01821959
v -0.05500406 0.01667896 -0.00730276
v -0.05572056 0.01426194 -0.01470726
v -0.05382663 0.02006141 -0.01824229
v -0.05298024 0.02211574 -0.01407480
v -0.05361825 0.02051947 -0.00827014
v -0.05704557 0.00683156 -0.01821506
v -0.05671972 0.00901429 -0.01820129
v -0.05720204 0.00608353 -0.01630550
v -0.05382663 0.02006141 -0.01824229
v -0.05411911 0.01914940 -0.00106537
v -0.05500406 0.01667896 -0.00730276
v -0.05751127 0.00397674 -0.00941128
v -0.05707633 0.00737838 -0.00395221
v -0.05748993 0.00328831 -0.00450635
v -0.05751127 0.00397674 -0.00941128
v -0.05711925 0.00745545 -0.01052105
v -0.05707633 0.00737838 -0.00395221
v -0.05382663 0.02006141 -0.01824229
v -0.05361825 0.02051947 -0.00827014
v -0.05385756 0.01988104 -0.00423896
v -0.05500406 0.01667896 -0.00730276
v -0.05417716 0.01898805 0.00050003
v -0.05578732 0.01366941 0.00050000
v -0.05285060 0.02247224 -0.01823163
v -0.05585891 0.01370863 -0.00677419
v -0.05500406 0.01667896 -0.00730276
v -0.05578732 0.01366941 0.00050000
v -0.06062179 0.00848154 -0.01837283
v -0.06240439 0.01017735 -0.01837939
v -0.05632936 0.01220290 -0.01838606
v -0.05337262 0.02162967 -0.01837766
v -0.05413204 0.02288774 -0.01839703
v -0.05215305 0.02416048 -0.01832360
v -0.05728751 0.00668309 -0.01838690
v -0.06062179 0.00848154 -0.01837283
v -0.05691421 0.00876270 -0.01837617
v -0.05337262 0.02162967 -0.01837766
v -0.05892014 0.02043489 -0.01839751
v -0.05413204 0.02288774 -0.01839703
v -0.05337262 0.02162967 -0.01837766
v -0.05507022 0.01692221 -0.01838350
v -0.05892014 0.02043489 -0.01839751
v -0.06481629 0.01813242 -0.01839751
v -0.05859166 0.00619958 -0.01839238
v -0.05777686 0.00612197 -0.01834601
v -0.05859166 0.00619958 -0.01839238
v -0.05728751 0.00668309 -0.01838690
v -0.06507867 0.01207046 -0.01838409
v -0.06811356 0.01355878 -0.01838332
v -0.07101094 0.01652226 -0.01837170
v -0.07101094 0.01652226 -0.01837170
v -0.06811356 0.01355878 -0.01838332
v -0.07104963 0.01445458 -0.01834344
v -0.05691421 0.00876270 -0.01837617
v -0.07191455 0.01459060 -0.01806360
v -0.07101094 0.01652226 -0.01837170
v -0.07104963 0.01445458 -0.01834344
v -0.07191455 0.01459060 -0.01806360
v -0.07224863 0.01613090 -0.01785933
v -0.07101094 0.01652226 -0.01837170
v -0.07269138 0.01456181 -0.01746690
v -0.07303780 0.01572594 -0.01700592
v -0.07224863 0.01613090 -0.01785933
v -0.07269138 0.01456181 -0.01746690
v -0.07224863 0.01613090 -0.01785933
v -0.07191455 0.01459060 -0.01806360
v -0.07332879 0.01433018 -0.01644873
v -0.07303780 0.01572594 -0.01700592
v -0.07269138 0.01456181 -0.01746690
v -0.07332879 0.01433018 -0.01644873
v -0.07345938 0.01537899 -0.01602751
v -0.07303780 0.01572594 -0.01700592
v -0.07350152 0.01413951 -0.01564621
v -0.07345938 0.01537899 -0.01602751
v -0.07332879 0.01433018 -0.01644873
v -0.07338076 0.01215944 -0.00533509
v -0.07349455 0.01268224 -0.00884295
v -0.07329177 0.01247952 -0.00838840
v -0.07348889 0.01214591 -0.00303662
v -0.07338529 0.01198331 -0.00246161
v -0.07349878 0.01202367 0.00049999
v -0.07350152 0.01413951 -0.01564621
v -0.07338106 0.01393292 -0.01542419
v -0.07338356 0.01323036 -0.01251024
v -0.07338076 0.01215944 -0.00533509
v -0.07348889 0.01214591 -0.00303662
v -0.07349455 0.01268224 -0.00884295
v -0.07348889 0.01214591 -0.00303662
v -0.07338076 0.01215944 -0.00533509
v -0.07338529 0.01198331 -0.00246161
v -0.07349455 0.01268224 -0.00884295
v -0.07350152 0.01413951 -0.01564621
v -0.07338356 0.01323036 -0.01251024
v -0.07349455 0.01268224 -0.00884295
v -0.07338356 0.01323036 -0.01251024
v -0.07329177 0.01247952 -0.00838840
v -0.07332879 0.01433018 -0.01644873
v -0.07338106 0.01393292 -0.01542419
v -0.07350152 0.01413951 -0.01564621
v -0.07302761 0.01425580 -0.01681149
v -0.07338106 0.01393292 -0.01542419
v -0.07332879 0.01433018 -0.01644873
v -0.07302761 0.01425580 -0.01681149
v -0.07332879 0.01433018 -0.01644873
v -0.07269138 0.01456181 -0.01746690
v -0.07223057 0.01442323 -0.01776176
v -0.07302761 0.01425580 -0.01681149
v -0.07269138 0.01456181 -0.01746690
v -0.07191455 0.01459060 -0.01806360
v -0.07223057 0.01442323 -0.01776176
v -0.07269138 0.01456181 -0.01746690
v -0.07104963 0.01445458 -0.01834344
v -0.07223057 0.01442323 -0.01776176
v -0.07191455 0.01459060 -0.01806360
v -0.07033389 0.01416836 -0.01828002
v -0.07223057 0.01442323 -0.01776176
v -0.07104963 0.01445458 -0.01834344
v -0.06401640 0.01121501 -0.01827985
v -0.06240439 0.01017735 -0.01837939
v -0.06183069 0.00949404 -0.01828050
v -0.05988299 0.00746641 -0.01829195
v -0.06062179 0.00848154 -0.01837283
v -0.05859166 0.00619958 -0.01839238
v -0.05988299 0.00746641 -0.01829195
v -0.05859166 0.00619958 -0.01839238
v -0.05892384 0.00627450 -0.01831573
v -0.06714069 0.01293830 -0.01820915
v -0.06811356 0.01355878 -0.01838332
v -0.06507867 0.01207046 -0.01838409
v -0.06811356 0.01355878 -0.01838332
v -0.06714069 0.01293830 -0.01820915
v -0.07033389 0.01416836 -0.01828002
v -0.06183069 0.00949404 -0.01828050
v -0.06062179 0.00848154 -0.01837283
v -0.05988299 0.00746641 -0.01829195
v -0.06507867 0.01207046 -0.01838409
v -0.06536644 0.01202855 -0.01824307
v -0.06714069 0.01293830 -0.01820915
v -0.07033389 0.01416836 -0.01828002
v -0.07104963 0.01445458 -0.01834344
v -0.06811356 0.01355878 -0.01838332
v -0.06183069 0.00949404 -0.01828050
v -0.06240439 0.01017735 -0.01837939
v -0.06062179 0.00848154 -0.01837283
v -0.06401640 0.01121501 -0.01827985
v -0.06536644 0.01202855 -0.01824307
v -0.06507867 0.01207046 -0.01838409
v -0.06240439 0.01017735 -0.01837939
v -0.06401640 0.01121501 -0.01827985
v -0.06507867 0.01207046 -0.01838409
v -0.05704557 0.00683156 -0.01821506
v -0.05731058 0.00639425 -0.01825106
v -0.05728751 0.00668309 -0.01838690
v -0.05731058 0.00639425 -0.01825106
v -0.05777686 0.00612197 -0.01834601
v -0.05728751 0.00668309 -0.01838690
v -0.05833292 0.00598297 -0.01829338
v -0.05892384 0.00627450 -0.01831573
v -0.05859166 0.00619958 -0.01839238
v -0.05833292 0.00598297 -0.01829338
v -0.05859166 0.00619958 -0.01839238
v -0.05777686 0.00612197 -0.01834601
v -0.05382663 0.02006141 -0.01824229
v -0.05337262 0.02162967 -0.01837766
v -0.05285060 0.02247224 -0.01823163
v -0.05629420 0.01170776 -0.01830196
v -0.05542886 0.01510474 -0.01825273
v -0.05640709 0.01087473 -0.01816254
v -0.05542886 0.01510474 -0.01825273
v -0.05629420 0.01170776 -0.01830196
v -0.05632936 0.01220290 -0.01838606
v -0.05542886 0.01510474 -0.01825273
v -0.05632936 0.01220290 -0.01838606
v -0.05507022 0.01692221 -0.01838350
v -0.05382663 0.02006141 -0.01824229
v -0.05461645 0.01777402 -0.01821959
v -0.05507022 0.01692221 -0.01838350
v -0.05382663 0.02006141 -0.01824229
v -0.05507022 0.01692221 -0.01838350
v -0.05337262 0.02162967 -0.01837766
v -0.05215305 0.02416048 -0.01832360
v -0.05285060 0.02247224 -0.01823163
v -0.05337262 0.02162967 -0.01837766
v -0.05704557 0.00683156 -0.01821506
v -0.05728751 0.00668309 -0.01838690
v -0.05691421 0.00876270 -0.01837617
v -0.05671972 0.00901429 -0.01820129
v -0.05704557 0.00683156 -0.01821506
v -0.05691421 0.00876270 -0.01837617
v -0.05671972 0.00901429 -0.01820129
v -0.05691421 0.00876270 -0.01837617
v -0.05629420 0.01170776 -0.01830196
v -0.05632936 0.01220290 -0.01838606
v -0.05629420 0.01170776 -0.01830196
v -0.05691421 0.00876270 -0.01837617
v -0.05629420 0.01170776 -0.01830196
v -0.05640709 0.01087473 -0.01816254
v -0.05671972 0.00901429 -0.01820129
v -0.05461645 0.01777402 -0.01821959
v -0.05542886 0.01510474 -0.01825273
v -0.05507022 0.01692221 -0.01838350
v -0.07350122 0.01270018 -0.00100779
v -0.07350015 0.01265422 0.00050000
v -0.07350003 0.01265422 0.00050000
vn -0.99997084 -0.00745986 -0.00163645
vn -0.99996859 -0.00786168 -0.00101122
vn -0.99997032 -0.00764195 -0.00097903
vn -0.99999352 -0.00217404 -0.00287073
vn -0.99999352 -0.00217404 -0.00287073
vn -0.99999352 -0.00217404 -0.00287073
vn -0.99975017 -0.02235168 0.00003012
vn -0.99975017 -0.02235168 0.00003012
vn -0.99975017 -0.02235168 0.00003012
vn -0.99999723 -0.00229065 0.00053330
vn -0.99999723 -0.00229065 0.00053330
vn -0.99999723 -0.00229065 0.00053330
vn -0.99947243 0.03106847 -0.00946633
vn -0.99947243 0.03106847 -0.00946633
vn -0.99947243 0.03106847 -0.00946633
vn -0.99998244 0.00581775 0.00113150
vn -0.99998244 0.00581775 0.00113150
vn -0.99998244 0.00581775 0.00113150
vn -0.99993604 -0.01128465 -0.00075093
vn -0.99992422 -0.01218369 -0.00176534
vn -0.99991577 -0.01271543 -0.00260346
vn 0.05005918 -0.99432420 -0.09388006
vn 0.05005918 -0.99432420 -0.09388006
vn 0.05005918 -0.99432420 -0.09388006
vn 0.63977157 -0.76616590 -0.06068068
vn 0.63977157 -0.76616590 -0.06068068
vn 0.63977157 -0.76616590 -0.06068068
vn -0.35929556 -0.93035713 -0.07309115
vn -0.35929556 -0.93035713 -0.07309115
vn -0.35929556 -0.93035713 -0.07309115
vn -0.30065007 -0.95020174 -0.08201339
vn -0.30065007 -0.95020174 -0.08201339
vn -0.30065007 -0.95020174 -0.08201339
vn 0.92558560 -0.37202979 -0.06989376
vn 0.92558560 -0.37202979 -0.06989376
vn 0.92558560 -0.37202979 -0.06989376
vn 0.85137490 -0.50393338 -0.14564317
vn 0.85137490 -0.50393338 -0.14564317
vn 0.85137490 -0.50393338 -0.14564317
vn 0.52580413 -0.79464186 -0.30343753
vn 0.52580413 -0.79464186 -0.30343753
vn 0.52580413 -0.79464186 -0.30343753
vn 0.19006445 -0.90471241 -0.38127545
vn 0.19006445 -0.90471241 -0.38127545
vn 0.19006445 -0.90471241 -0.38127545
vn 0.45452412 -0.83301954 -0.31541445
vn 0.45452412 -0.83301954 -0.31541445
vn 0.45452412 -0.83301954 -0.31541445
vn -0.31186965 -0.86577060 -0.39138036
vn -0.31186965 -0.86577060 -0.39138036
vn -0.31186965 -0.86577060 -0.39138036
vn 0.12719050 -0.91637049 -0.37958885
vn 0.12719050 -0.91637049 -0.37958885
vn 0.12719050 -0.91637049 -0.37958885
vn -0.38947465 -0.82140496 -0.41665741
vn -0.38947465 -0.82140496 -0.41665741
vn -0.38947465 -0.82140496 -0.41665741
vn 0.00555484 -0.93889491 -0.34415912
vn 0.00555484 -0.93889491 -0.34415912
vn 0.00555484 -0.93889491 -0.34415912
vn -0.15854436 -0.92581132 -0.34312837
vn -0.15854436 -0.92581132 -0.34312837
vn -0.15854436 -0.92581132 -0.34312837
vn -0.58878332 -0.75076110 -0.29948618
vn -0.58878332 -0.75076110 -0.29948618
vn -0.58878332 -0.75076110 -0.29948618
vn 0.71529926 -0.67793349 -0.16956754
vn 0.71529926 -0.67793349 -0.16956754
vn 0.71529926 -0.67793349 -0.16956754
vn 0.92342456 -0.37664124 -0.07367804
vn 0.92342456 -0.37664124 -0.07367804
vn 0.92342456 -0.37664124 -0.07367804
vn 0.43493899 -0.86893045 -0.23619473
vn 0.43493899 -0.86893045 -0.23619473
vn 0.43493899 -0.86893045 -0.23619473
vn 0.87208815 -0.47925678 -0.09886957
vn 0.87208815 -0.47925678 -0.09886957
vn 0.87208815 -0.47925678 -0.09886957
vn 0.22972499 -0.93485209 -0.27069910
vn 0.22972499 -0.93485209 -0.27069910
vn 0.22972499 -0.93485209 -0.27069910
vn 0.68653096 -0.70543087 -0.17618889
vn 0.68653096 -0.70543087 -0.17618889
vn 0.68653096 -0.70543087 -0.17618889
vn -0.19747025 -0.94119347 -0.27415389
vn -0.19747025 -0.94119347 -0.27415389
vn -0.19747025 -0.94119347 -0.27415389
vn 0.46151989 -0.85581448 -0.23362570
vn 0.46151989 -0.85581448 -0.23362570
vn 0.46151989 -0.85581448 -0.23362570
vn 0.30959597 -0.91572904 -0.25610672
vn 0.30959597 -0.91572904 -0.25610672
vn 0.30959597 -0.91572904 -0.25610672
vn -0.62076165 -0.74397267 -0.24730474
vn -0.62076165 -0.74397267 -0.24730474
vn -0.62076165 -0.74397267 -0.24730474
vn -0.19455360 -0.94189536 -0.27382848
vn -0.19455360 -0.94189536 -0.27382848
vn -0.19455360 -0.94189536 -0.27382848
vn -0.55498733 -0.79367894 -0.24912406
vn -0.55498733 -0.79367894 -0.24912406
vn -0.55498733 -0.79367894 -0.24912406
vn 0.84434184 -0.52777424 -0.09241862
vn 0.84434184 -0.52777424 -0.09241862
vn 0.84434184 -0.52777424 -0.09241862
vn 0.68272167 -0.71875587 -0.13145769
vn 0.67686469 -0.72395428 -0.13320809
vn 0.68333436 -0.71820712 -0.13127333
vn 0.67656459 -0.72421835 -0.13329720
vn 0.42233471 -0.88911224 -0.17638828
vn 0.42233471 -0.88911224 -0.17638828
vn 0.42233471 -0.88911224 -0.17638828
vn 0.47384900 -0.86550206 -0.16239865
vn 0.47384900 -0.86550206 -0.16239865
vn 0.47384900 -0.86550206 -0.16239865
vn -0.03939481 -0.99582230 -0.08237719
vn -0.03939481 -0.99582230 -0.08237719
vn -0.03939481 -0.99582230 -0.08237719
vn 0.17239203 -0.96872961 -0.17844867
vn 0.17239203 -0.96872961 -0.17844867
vn 0.17239203 -0.96872961 -0.17844867
vn 0.07134425 -0.97666050 -0.20259382
vn 0.07134425 -0.97666050 -0.20259382
vn 0.07134425 -0.97666050 -0.20259382
vn -0.25292595 -0.94582192 -0.20359115
vn -0.25292595 -0.94582192 -0.20359115
vn -0.25292595 -0.94582192 -0.20359115
vn -0.50169270 -0.84965366 -0.16245952
vn -0.50169270 -0.84965366 -0.16245952
vn -0.50169270 -0.84965366 -0.16245952
vn 0.40679093 -0.91072209 -0.07145913
vn 0.40679093 -0.91072209 -0.07145913
vn 0.40679093 -0.91072209 -0.07145913
vn 0.88417444 -0.46207761 -0.06870105
vn 0.88417444 -0.46207761 -0.06870105
vn 0.88417444 -0.46207761 -0.06870105
vn -0.57403693 -0.80200267 -0.16514638
vn -0.57403693 -0.80200267 -0.16514638
vn -0.57403693 -0.80200267 -0.16514638
vn 0.35779383 -0.92316518 -0.14053336
vn 0.35779383 -0.92316518 -0.14053336
vn 0.35779383 -0.92316518 -0.14053336
vn -0.26064613 -0.96542325 0.00464183
vn -0.26064613 -0.96542325 0.00464183
vn -0.26064613 -0.96542325 0.00464183
vn 0.07609003 -0.98461387 -0.15730810
vn 0.07609003 -0.98461387 -0.15730810
vn 0.07609003 -0.98461387 -0.15730810
vn -0.48368577 -0.86345809 -0.14313700
vn -0.48368577 -0.86345809 -0.14313700
vn -0.48368577 -0.86345809 -0.14313700
vn 0.01813834 -0.98890526 -0.14743605
vn 0.01813834 -0.98890526 -0.14743605
vn 0.01813834 -0.98890526 -0.14743605
vn -0.30754623 -0.94227564 -0.13240824
vn -0.30754623 -0.94227564 -0.13240824
vn -0.30754623 -0.94227564 -0.13240824
vn 0.09698581 -0.97143641 -0.21657575
vn 0.09698581 -0.97143641 -0.21657575
vn 0.09698581 -0.97143641 -0.21657575
vn 0.87629558 -0.47818480 -0.05869704
vn 0.87629558 -0.47818480 -0.05869704
vn 0.87629558 -0.47818480 -0.05869704
vn 0.39755348 -0.91737132 -0.01952157
vn 0.39755348 -0.91737132 -0.01952157
vn 0.39755348 -0.91737132 -0.01952157
vn -0.41290248 -0.91038089 -0.02679869
vn -0.41290248 -0.91038089 -0.02679869
vn -0.41290248 -0.91038089 -0.02679869
vn -0.14110892 -0.95948859 -0.24386455
vn -0.14110892 -0.95948859 -0.24386455
vn -0.14110892 -0.95948859 -0.24386455
vn 0.45094385 -0.88681223 -0.10106287
vn 0.45094385 -0.88681223 -0.10106287
vn 0.45094385 -0.88681223 -0.10106287
vn 0.37774912 -0.92164440 -0.08875357
vn 0.37774912 -0.92164440 -0.08875357
vn 0.37774912 -0.92164440 -0.08875357
vn 0.64904520 -0.75879914 -0.05444447
vn 0.64904520 -0.75879914 -0.05444447
vn 0.64904520 -0.75879914 -0.05444447
vn -0.68668437 -0.72237159 -0.08150985
vn -0.68668437 -0.72237159 -0.08150985
vn -0.68668437 -0.72237159 -0.08150985
vn -0.63108905 -0.77288123 -0.06619076
vn -0.63108905 -0.77288123 -0.06619076
vn -0.63108905 -0.77288123 -0.06619076
vn -0.04437566 -0.99810478 -0.04263400
vn -0.04437566 -0.99810478 -0.04263400
vn -0.04437566 -0.99810478 -0.04263400
vn 0.70392067 -0.70491743 -0.08710402
vn 0.70392067 -0.70491743 -0.08710402
vn 0.70392067 -0.70491743 -0.08710402
vn 0.72516986 -0.68357791 -0.08276422
vn 0.72516986 -0.68357791 -0.08276422
vn 0.72516986 -0.68357791 -0.08276422
vn -0.71834506 -0.69537377 -0.02087337
vn -0.71834506 -0.69537377 -0.02087337
vn -0.71834506 -0.69537377 -0.02087337
vn 0.80661182 -0.58980799 -0.03878028
vn 0.80661182 -0.58980799 -0.03878028
vn 0.80661182 -0.58980799 -0.03878028
vn 0.73498082 -0.64801966 -0.19968404
vn 0.73498082 -0.64801966 -0.19968404
vn 0.73498082 -0.64801966 -0.19968404
vn 0.35551126 -0.93398895 -0.03572650
vn 0.35551126 -0.93398895 -0.03572650
vn 0.35551126 -0.93398895 -0.03572650
vn -0.31598325 -0.87572348 -0.36505201
vn -0.31598325 -0.87572348 -0.36505201
vn -0.31598325 -0.87572348 -0.36505201
vn 0.86282741 -0.50131776 -0.06487964
vn 0.86282741 -0.50131776 -0.06487964
vn 0.86282741 -0.50131776 -0.06487964
vn -0.57553141 -0.79592243 -0.18780597
vn -0.57523614 -0.79609193 -0.18799209
vn -0.57571400 -0.79581753 -0.18769083
vn -0.32872715 -0.90040533 -0.28497140
vn -0.32872715 -0.90040533 -0.28497140
vn -0.32872715 -0.90040533 -0.28497140
vn -0.57591002 -0.79570484 -0.18756719
vn -0.68544532 -0.65664705 -0.31460986
vn -0.68544532 -0.65664705 -0.31460986
vn -0.68544532 -0.65664705 -0.31460986
vn -0.19018375 -0.95333984 -0.23446383
vn -0.19018375 -0.95333984 -0.23446383
vn -0.19018375 -0.95333984 -0.23446383
vn -0.25587340 -0.96115466 -0.10349164
vn -0.25587340 -0.96115466 -0.10349164
vn -0.25587340 -0.96115466 -0.10349164
vn -0.20084213 -0.93470811 -0.29322892
vn -0.20084213 -0.93470811 -0.29322892
vn -0.20084213 -0.93470811 -0.29322892
vn -0.24088840 -0.96871144 -0.05975720
vn -0.24088840 -0.96871144 -0.05975720
vn -0.24088840 -0.96871144 -0.05975720
vn -0.56185270 -0.82273539 -0.08618596
vn -0.56185270 -0.82273539 -0.08618596
vn -0.56185270 -0.82273539 -0.08618596
vn -0.57867183 -0.81252396 -0.07031169
vn -0.57867183 -0.81252396 -0.07031169
vn -0.57867183 -0.81252396 -0.07031169
vn -0.33625897 -0.94140761 -0.02610776
vn -0.33625897 -0.94140761 -0.02610776
vn -0.33625897 -0.94140761 -0.02610776
vn -0.34501774 -0.93837607 -0.02032516
vn -0.34501774 -0.93837607 -0.02032516
vn -0.34501774 -0.93837607 -0.02032516
vn -0.18003260 -0.95622415 -0.23070248
vn -0.18003260 -0.95622415 -0.23070248
vn -0.18003260 -0.95622415 -0.23070248
vn -0.71219343 -0.68009808 -0.17391702
vn -0.71219343 -0.68009808 -0.17391702
vn -0.71219343 -0.68009808 -0.17391702
vn -0.65599178 -0.74416925 -0.12604331
vn -0.65581096 -0.74430180 -0.12620151
vn -0.65551703 -0.74451706 -0.12645855
vn -0.65637173 -0.74389043 -0.12571072
vn -0.69221712 -0.65315995 -0.30694876
vn -0.69221712 -0.65315995 -0.30694876
vn -0.69221712 -0.65315995 -0.30694876
vn -0.27434057 -0.95676601 -0.09662328
vn -0.27434057 -0.95676601 -0.09662328
vn -0.27434057 -0.95676601 -0.09662328
vn -0.26764158 -0.96324617 -0.02290868
vn -0.26737150 -0.96331838 -0.02302551
vn -0.26719839 -0.96336462 -0.02310038
vn -0.49743848 -0.84929445 -0.17678770
vn -0.49743848 -0.84929445 -0.17678770
vn -0.49743848 -0.84929445 -0.17678770
vn -0.59319664 -0.77032524 -0.23391618
vn -0.59319664 -0.77032524 -0.23391618
vn -0.59319664 -0.77032524 -0.23391618
vn -0.20637879 -0.93238609 -0.29675575
vn -0.20637879 -0.93238609 -0.29675575
vn -0.20637879 -0.93238609 -0.29675575
vn -0.16759683 -0.93725804 -0.30571012
vn -0.16759683 -0.93725804 -0.30571012
vn -0.16759683 -0.93725804 -0.30571012
vn -0.19509840 -0.94311426 -0.26920645
vn -0.19509840 -0.94311426 -0.26920645
vn -0.19509840 -0.94311426 -0.26920645
vn -0.77969920 -0.59071156 -0.20767524
vn -0.77941210 -0.59113374 -0.20755163
vn -0.77866498 -0.59223013 -0.20723011
vn -0.47307951 -0.85864726 -0.19728322
vn -0.47307951 -0.85864726 -0.19728322
vn -0.47307951 -0.85864726 -0.19728322
vn -0.20531287 -0.97348324 -0.10088113
vn -0.20531287 -0.97348324 -0.10088113
vn -0.20531287 -0.97348324 -0.10088113
vn -0.82178208 -0.56976703 -0.00630449
vn -0.82178208 -0.56976703 -0.00630449
vn -0.82178208 -0.56976703 -0.00630449
vn -0.82993886 -0.55785195 0.00163786
vn -0.82993886 -0.55785195 0.00163786
vn -0.82993886 -0.55785195 0.00163786
vn -0.41887679 -0.89241560 -0.16773977
vn -0.41887679 -0.89241560 -0.16773977
vn -0.41887679 -0.89241560 -0.16773977
vn -0.77935719 -0.62616527 0.02279077
vn -0.77935719 -0.62616527 0.02279077
vn -0.77935719 -0.62616527 0.02279077
vn -0.18427630 -0.97694673 -0.10778370
vn -0.18427630 -0.97694673 -0.10778370
vn -0.18427630 -0.97694673 -0.10778370
vn -0.51600782 -0.80918228 -0.28099815
vn -0.51600782 -0.80918228 -0.28099815
vn -0.51600782 -0.80918228 -0.28099815
vn -0.75045970 -0.66075064 0.01479274
vn -0.75045970 -0.66075064 0.01479274
vn -0.75045970 -0.66075064 0.01479274
vn -0.72050357 -0.69340514 -0.00799536
vn -0.72050357 -0.69340514 -0.00799536
vn -0.72050357 -0.69340514 -0.00799536
vn -0.61697423 -0.71476387 -0.32932570
vn -0.61697423 -0.71476387 -0.32932570
vn -0.61697423 -0.71476387 -0.32932570
vn -0.26792643 -0.96316990 -0.02278545
vn -0.40726008 -0.89681063 -0.17282920
vn -0.40726008 -0.89681063 -0.17282920
vn -0.40726008 -0.89681063 -0.17282920
vn -0.64973647 -0.75990936 0.01950091
vn -0.64973647 -0.75990936 0.01950091
vn -0.64973647 -0.75990936 0.01950091
vn -0.83479033 -0.54696589 -0.06287619
vn -0.83479033 -0.54696589 -0.06287619
vn -0.83479033 -0.54696589 -0.06287619
vn -0.49075376 -0.86720632 -0.08434420
vn -0.49075376 -0.86720632 -0.08434420
vn -0.49075376 -0.86720632 -0.08434420
vn -0.49858175 -0.86308912 -0.08058173
vn -0.49858175 -0.86308912 -0.08058173
vn -0.49858175 -0.86308912 -0.08058173
vn -0.75431731 -0.61666794 -0.22522442
vn -0.75431731 -0.61666794 -0.22522442
vn -0.75431731 -0.61666794 -0.22522442
vn -0.80368157 -0.59469884 -0.02071787
vn -0.80368157 -0.59469884 -0.02071787
vn -0.80368157 -0.59469884 -0.02071787
vn -0.58993417 -0.74913257 -0.30129398
vn -0.58993417 -0.74913257 -0.30129398
vn -0.58993417 -0.74913257 -0.30129398
vn -0.57987026 -0.80534117 -0.12319122
vn -0.57987026 -0.80534117 -0.12319122
vn -0.57987026 -0.80534117 -0.12319122
vn -0.49688516 -0.83999111 -0.21799098
vn -0.49688516 -0.83999111 -0.21799098
vn -0.49688516 -0.83999111 -0.21799098
vn -0.82654779 -0.55979057 -0.05876450
vn -0.82654779 -0.55979057 -0.05876450
vn -0.82654779 -0.55979057 -0.05876450
vn -0.59511522 -0.80356132 -0.01127317
vn -0.59511522 -0.80356132 -0.01127317
vn -0.59511522 -0.80356132 -0.01127317
vn -0.20655499 -0.97842000 0.00541606
vn -0.20655499 -0.97842000 0.00541606
vn -0.20655499 -0.97842000 0.00541606
vn -0.71568400 -0.69774351 -0.03082854
vn -0.71568400 -0.69774351 -0.03082854
vn -0.71568400 -0.69774351 -0.03082854
vn -0.31004085 -0.93515238 -0.17136130
vn -0.31004085 -0.93515238 -0.17136130
vn -0.31004085 -0.93515238 -0.17136130
vn -0.58597368 -0.81032926 -0.00115380
vn -0.58597368 -0.81032926 -0.00115380
vn -0.58597368 -0.81032926 -0.00115380
vn -0.77515342 -0.62660675 -0.08062975
vn -0.77515342 -0.62660675 -0.08062975
vn -0.77515342 -0.62660675 -0.08062975
vn -0.47799030 -0.83570350 -0.27041624
vn -0.47799030 -0.83570350 -0.27041624
vn -0.47799030 -0.83570350 -0.27041624
vn -0.67910233 -0.73354747 -0.02698404
vn -0.67910233 -0.73354747 -0.02698404
vn -0.67910233 -0.73354747 -0.02698404
vn -0.41491141 -0.87814469 -0.23813951
vn -0.41491141 -0.87814469 -0.23813951
vn -0.41491141 -0.87814469 -0.23813951
vn -0.71213490 -0.66882418 -0.21339658
vn -0.71213490 -0.66882418 -0.21339658
vn -0.71213490 -0.66882418 -0.21339658
vn -0.48906300 -0.79539283 -0.35800508
vn -0.48906300 -0.79539283 -0.35800508
vn -0.48906300 -0.79539283 -0.35800508
vn -0.67559435 -0.72052051 -0.15627691
vn -0.67559435 -0.72052051 -0.15627691
vn -0.67559435 -0.72052051 -0.15627691
vn -0.55717993 -0.81887052 -0.13784629
vn -0.55717993 -0.81887052 -0.13784629
vn -0.55717993 -0.81887052 -0.13784629
vn -0.73644365 -0.67301282 -0.06858930
vn -0.73515997 -0.67431379 -0.06957537
vn -0.73940238 -0.66999077 -0.06630603
vn -0.34945555 -0.91682192 -0.19317968
vn -0.34945555 -0.91682192 -0.19317968
vn -0.34945555 -0.91682192 -0.19317968
vn -0.27648159 -0.94554965 -0.17173759
vn -0.27648159 -0.94554965 -0.17173759
vn -0.27648159 -0.94554965 -0.17173759
vn -0.80236338 -0.58247124 -0.13015479
vn -0.80236338 -0.58247124 -0.13015479
vn -0.80236338 -0.58247124 -0.13015479
vn -0.44027601 -0.84761574 -0.29614961
vn -0.44027601 -0.84761574 -0.29614961
vn -0.44027601 -0.84761574 -0.29614961
vn -0.73898994 -0.58811887 -0.32864885
vn -0.73898994 -0.58811887 -0.32864885
vn -0.73898994 -0.58811887 -0.32864885
vn -0.46983000 -0.88252463 -0.02024977
vn -0.46983000 -0.88252463 -0.02024977
vn -0.46983000 -0.88252463 -0.02024977
vn -0.40033891 -0.88736246 -0.22872828
vn -0.40033891 -0.88736246 -0.22872828
vn -0.40033891 -0.88736246 -0.22872828
vn -0.20855315 -0.96298590 -0.17077396
vn -0.20855315 -0.96298590 -0.17077396
vn -0.20855315 -0.96298590 -0.17077396
vn -0.74088547 -0.66846348 -0.06515595
vn -0.36458891 -0.88395896 -0.29273108
vn -0.36458891 -0.88395896 -0.29273108
vn -0.36458891 -0.88395896 -0.29273108
vn -0.48929484 -0.87208038 -0.00814651
vn -0.48929484 -0.87208038 -0.00814651
vn -0.48929484 -0.87208038 -0.00814651
vn -0.39932644 -0.91206387 -0.09315522
vn -0.39854870 -0.91236982 -0.09348931
vn -0.40169266 -0.91112771 -0.09213745
vn -0.40261077 -0.91076230 -0.09174201
vn -0.19739250 -0.96455466 -0.17512999
vn -0.19739250 -0.96455466 -0.17512999
vn -0.19739250 -0.96455466 -0.17512999
vn -0.74314854 -0.60547951 -0.28482417
vn -0.74314854 -0.60547951 -0.28482417
vn -0.74314854 -0.60547951 -0.28482417
vn -0.22016328 -0.95490582 -0.19920595
vn -0.22016328 -0.95490582 -0.19920595
vn -0.22016328 -0.95490582 -0.19920595
vn -0.56077647 -0.82715641 -0.03663367
vn -0.56077647 -0.82715641 -0.03663367
vn -0.56077647 -0.82715641 -0.03663367
vn -0.29609199 -0.92370981 -0.24308376
vn -0.29609199 -0.92370981 -0.24308376
vn -0.29609199 -0.92370981 -0.24308376
vn -0.65872939 -0.74918645 -0.06924779
vn -0.65822418 -0.74959422 -0.06963782
vn -0.65677029 -0.75076364 -0.07075841
vn -0.65951057 -0.74855447 -0.06864405
vn -0.64442935 -0.74265369 -0.18214362
vn -0.64442935 -0.74265369 -0.18214362
vn -0.64442935 -0.74265369 -0.18214362
vn -0.81754246 -0.55476203 -0.15447785
vn -0.81754246 -0.55476203 -0.15447785
vn -0.81754246 -0.55476203 -0.15447785
vn -0.74805921 -0.65466864 -0.10870323
vn -0.74805921 -0.65466864 -0.10870323
vn -0.74805921 -0.65466864 -0.10870323
vn -0.46608944 -0.87512163 -0.13008756
vn -0.46608944 -0.87512163 -0.13008756
vn -0.46608944 -0.87512163 -0.13008756
vn -0.63417955 -0.73350451 -0.24451470
vn -0.63417955 -0.73350451 -0.24451470
vn -0.63417955 -0.73350451 -0.24451470
vn -0.65137462 -0.72343988 -0.22879214
vn -0.65137462 -0.72343988 -0.22879214
vn -0.65137462 -0.72343988 -0.22879214
vn -0.41775920 -0.90853696 -0.00615121
vn -0.41775920 -0.90853696 -0.00615121
vn -0.41775920 -0.90853696 -0.00615121
vn -0.77831862 -0.59273732 -0.20708113
vn -0.74229440 -0.58636669 -0.32430407
vn -0.74229440 -0.58636669 -0.32430407
vn -0.74229440 -0.58636669 -0.32430407
vn -0.26472985 -0.93619786 -0.23119618
vn -0.26472985 -0.93619786 -0.23119618
vn -0.26472985 -0.93619786 -0.23119618
vn -0.76293267 -0.63065692 -0.14214640
vn -0.76293267 -0.63065692 -0.14214640
vn -0.76293267 -0.63065692 -0.14214640
vn -0.34010488 -0.89883008 -0.27646548
vn -0.34010488 -0.89883008 -0.27646548
vn -0.34010488 -0.89883008 -0.27646548
vn -0.34243130 -0.93468740 -0.09539535
vn -0.34243130 -0.93468740 -0.09539535
vn -0.34243130 -0.93468740 -0.09539535
vn -0.33311458 -0.93769382 -0.09881788
vn -0.33311458 -0.93769382 -0.09881788
vn -0.33311458 -0.93769382 -0.09881788
vn 0.95659645 -0.29126210 0.00946693
vn 0.95659645 -0.29126210 0.00946693
vn 0.95659645 -0.29126210 0.00946693
vn 0.97708791 -0.21237186 0.01405053
vn 0.97708791 -0.21237186 0.01405053
vn 0.97708791 -0.21237186 0.01405053
vn 0.92413340 -0.38204962 -0.00394425
vn 0.92413340 -0.38204962 -0.00394425
vn 0.92413340 -0.38204962 -0.00394425
vn 0.96086923 -0.27699054 -0.00256212
vn 0.96086923 -0.27699054 -0.00256212
vn 0.96086923 -0.27699054 -0.00256212
vn 0.98337400 -0.17871835 -0.03217642
vn 0.98337400 -0.17871835 -0.03217642
vn 0.98337400 -0.17871835 -0.03217642
vn 0.98502491 -0.17176332 0.01494322
vn 0.98502491 -0.17176332 0.01494322
vn 0.98502491 -0.17176332 0.01494322
vn 0.97406327 -0.22469165 0.02672859
vn 0.97406327 -0.22469165 0.02672859
vn 0.97406327 -0.22469165 0.02672859
vn 0.98764068 -0.15509024 0.02264758
vn 0.98764068 -0.15509024 0.02264758
vn 0.98764068 -0.15509024 0.02264758
vn 0.99404549 -0.10836019 0.01147277
vn 0.99404549 -0.10836019 0.01147277
vn 0.99404549 -0.10836019 0.01147277
vn 0.99494230 -0.09715630 -0.02550421
vn 0.99494230 -0.09715630 -0.02550421
vn 0.99494230 -0.09715630 -0.02550421
vn 0.99511124 -0.09495377 -0.02715510
vn 0.99511124 -0.09495377 -0.02715510
vn 0.99511124 -0.09495377 -0.02715510
vn 0.97575147 -0.21861571 -0.01078155
vn 0.97575147 -0.21861571 -0.01078155
vn 0.97575147 -0.21861571 -0.01078155
vn 0.94523937 -0.32637686 0.00082267
vn 0.94523937 -0.32637686 0.00082267
vn 0.94523937 -0.32637686 0.00082267
vn 0.98600496 -0.16650444 -0.00839581
vn 0.98600496 -0.16650444 -0.00839581
vn 0.98600496 -0.16650444 -0.00839581
vn 0.93830352 -0.34580455 -0.00239225
vn 0.93806239 -0.34645690 -0.00256252
vn 0.93809489 -0.34636907 -0.00253959
vn 0.94132473 -0.33750221 0.00012081
vn 0.94132473 -0.33750221 0.00012081
vn 0.94132473 -0.33750221 0.00012081
vn 0.98218552 -0.18680217 -0.02040977
vn 0.98218552 -0.18680217 -0.02040977
vn 0.98218552 -0.18680217 -0.02040977
vn 0.98617776 -0.16561150 -0.00512373
vn 0.98617776 -0.16561150 -0.00512373
vn 0.98617776 -0.16561150 -0.00512373
vn 0.93831941 -0.34576149 -0.00238102
vn 0.97324810 -0.22975472 0.00094833
vn 0.97324810 -0.22975472 0.00094833
vn 0.97324810 -0.22975472 0.00094833
vn 0.95515946 -0.29606189 0.00421577
vn 0.95515946 -0.29606189 0.00421577
vn 0.95515946 -0.29606189 0.00421577
vn 0.92666132 -0.37588606 -0.00290885
vn 0.92620608 -0.37701084 -0.00226194
vn 0.92603060 -0.37744309 -0.00201323
vn 0.98875349 -0.14775362 0.02313864
vn 0.98875349 -0.14775362 0.02313864
vn 0.98875349 -0.14775362 0.02313864
vn 0.94274039 -0.33352333 -0.00165595
vn 0.94274039 -0.33352333 -0.00165595
vn 0.94274039 -0.33352333 -0.00165595
vn 0.99500542 -0.09816496 -0.01810655
vn 0.99500542 -0.09816496 -0.01810655
vn 0.99500542 -0.09816496 -0.01810655
vn 0.99339855 -0.11444631 -0.00783335
vn 0.99339855 -0.11444631 -0.00783335
vn 0.99339855 -0.11444631 -0.00783335
vn 0.93075093 -0.36564418 -0.00265383
vn 0.93075093 -0.36564418 -0.00265383
vn 0.93075093 -0.36564418 -0.00265383
vn 0.95698410 -0.28971636 -0.01568001
vn 0.95698410 -0.28971636 -0.01568001
vn 0.95698410 -0.28971636 -0.01568001
vn 0.92691773 -0.37525033 -0.00327430
vn 0.96041630 -0.27835330 -0.01095272
vn 0.96041630 -0.27835330 -0.01095272
vn 0.96041630 -0.27835330 -0.01095272
vn -0.00008886 -0.00345274 -0.99999404
vn -0.00006052 -0.00278502 -0.99999612
vn 0.00046119 -0.00203263 -0.99999783
vn 0.03384103 0.00504043 -0.99941452
vn 0.03384103 0.00504043 -0.99941452
vn 0.03384103 0.00504043 -0.99941452
vn -0.00046922 0.00695353 -0.99997571
vn -0.00051977 0.00685982 -0.99997634
vn -0.00130989 0.00539502 -0.99998459
vn 0.00610045 -0.01171252 -0.99991280
vn 0.00610045 -0.01171252 -0.99991280
vn 0.00610045 -0.01171252 -0.99991280
vn 0.00358985 -0.00005412 -0.99999356
vn 0.00342160 -0.00023852 -0.99999412
vn 0.00197679 -0.00070267 -0.99999780
vn -0.00100959 -0.00149873 -0.99999837
vn 0.00077116 0.00925301 -0.99995689
vn 0.04579689 -0.11227525 -0.99262123
vn 0.04579689 -0.11227525 -0.99262123
vn 0.04579689 -0.11227525 -0.99262123
vn -0.00034022 -0.00219913 -0.99999752
vn -0.00272149 -0.00114047 -0.99999565
vn -0.00413502 -0.00012140 -0.99999144
vn -0.01764803 -0.01333394 -0.99975535
vn -0.01764803 -0.01333394 -0.99975535
vn -0.01764803 -0.01333394 -0.99975535
vn -0.00069168 -0.00275742 -0.99999596
vn -0.30885187 -0.00721964 -0.95108275
vn -0.30885187 -0.00721964 -0.95108275
vn -0.30885187 -0.00721964 -0.95108275
vn -0.39215578 0.03684077 -0.91916081
vn -0.39215578 0.03684077 -0.91916081
vn -0.39215578 0.03684077 -0.91916081
vn -0.74359645 0.04294204 -0.66724831
vn -0.74359645 0.04294204 -0.66724831
vn -0.74359645 0.04294204 -0.66724831
vn -0.60831699 -0.02674122 -0.79324356
vn -0.60831699 -0.02674122 -0.79324356
vn -0.60831699 -0.02674122 -0.79324356
vn -0.84302308 -0.03841860 -0.53650358
vn -0.84302308 -0.03841860 -0.53650358
vn -0.84302308 -0.03841860 -0.53650358
vn -0.92264704 0.03920179 -0.38364783
vn -0.92264704 0.03920179 -0.38364783
vn -0.92264704 0.03920179 -0.38364783
vn -0.97536411 -0.03389652 -0.21798139
vn -0.97536411 -0.03389652 -0.21798139
vn -0.97536411 -0.03389652 -0.21798139
vn -0.58010791 -0.80817483 -0.10162806
vn -0.58010791 -0.80817483 -0.10162806
vn -0.58010791 -0.80817483 -0.10162806
vn -0.80473336 -0.59320017 -0.02275460
vn -0.80473336 -0.59320017 -0.02275460
vn -0.80473336 -0.59320017 -0.02275460
vn -0.77666585 -0.61221336 -0.14827327
vn -0.77666585 -0.61221336 -0.14827327
vn -0.77666585 -0.61221336 -0.14827327
vn -0.87342454 -0.48497262 -0.04394456
vn -0.87342454 -0.48497262 -0.04394456
vn -0.87342454 -0.48497262 -0.04394456
vn -0.77242253 -0.63384373 -0.04006934
vn -0.77242253 -0.63384373 -0.04006934
vn -0.77242253 -0.63384373 -0.04006934
vn -0.89654874 -0.43330734 -0.09189721
vn -0.89654874 -0.43330734 -0.09189721
vn -0.89654874 -0.43330734 -0.09189721
vn -0.52311199 -0.84044435 -0.14144663
vn -0.52311199 -0.84044435 -0.14144663
vn -0.52311199 -0.84044435 -0.14144663
vn -0.64259498 -0.70276521 -0.30527487
vn -0.64259498 -0.70276521 -0.30527487
vn -0.64259498 -0.70276521 -0.30527487
vn -0.57331071 -0.75364037 -0.32146699
vn -0.57331071 -0.75364037 -0.32146699
vn -0.57331071 -0.75364037 -0.32146699
vn -0.75359478 -0.35580042 -0.55272142
vn -0.75359478 -0.35580042 -0.55272142
vn -0.75359478 -0.35580042 -0.55272142
vn -0.54805637 -0.61411666 -0.56788638
vn -0.54805637 -0.61411666 -0.56788638
vn -0.54805637 -0.61411666 -0.56788638
vn -0.57617378 -0.29011698 -0.76410465
vn -0.57617378 -0.29011698 -0.76410465
vn -0.57617378 -0.29011698 -0.76410465
vn -0.32580561 -0.63992817 -0.69594730
vn -0.32580561 -0.63992817 -0.69594730
vn -0.32580561 -0.63992817 -0.69594730
vn -0.26065727 -0.77836595 -0.57114293
vn -0.26065727 -0.77836595 -0.57114293
vn -0.26065727 -0.77836595 -0.57114293
vn -0.29603231 -0.37564435 -0.87821193
vn -0.29603231 -0.37564435 -0.87821193
vn -0.29603231 -0.37564435 -0.87821193
vn -0.44159810 -0.38592482 -0.80997108
vn -0.44159810 -0.38592482 -0.80997108
vn -0.44159810 -0.38592482 -0.80997108
vn -0.26149295 -0.19155297 -0.94600682
vn -0.26149295 -0.19155297 -0.94600682
vn -0.26149295 -0.19155297 -0.94600682
vn -0.35439262 -0.72234642 -0.59381943
vn -0.35439262 -0.72234642 -0.59381943
vn -0.35439262 -0.72234642 -0.59381943
vn -0.18129684 -0.51877618 -0.83546558
vn -0.18129684 -0.51877618 -0.83546558
vn -0.18129684 -0.51877618 -0.83546558
vn -0.32725699 -0.30931391 -0.89287612
vn -0.32725699 -0.30931391 -0.89287612
vn -0.32725699 -0.30931391 -0.89287612
vn -0.29945415 -0.55508238 -0.77602240
vn -0.29945415 -0.55508238 -0.77602240
vn -0.29945415 -0.55508238 -0.77602240
vn -0.22684803 -0.71402897 -0.66234629
vn -0.22684803 -0.71402897 -0.66234629
vn -0.22684803 -0.71402897 -0.66234629
vn -0.47816481 -0.50541519 -0.71827147
vn -0.47816481 -0.50541519 -0.71827147
vn -0.47816481 -0.50541519 -0.71827147
vn -0.32204055 -0.49801121 -0.80515509
vn -0.32204055 -0.49801121 -0.80515509
vn -0.32204055 -0.49801121 -0.80515509
vn -0.44479082 -0.62991061 -0.63668968
vn -0.44479082 -0.62991061 -0.63668968
vn -0.44479082 -0.62991061 -0.63668968
vn 0.67654315 -0.35695493 -0.64410600
vn 0.67654315 -0.35695493 -0.64410600
vn 0.67654315 -0.35695493 -0.64410600
vn 0.40794876 -0.41503388 -0.81321872
vn 0.40794876 -0.41503388 -0.81321872
vn 0.40794876 -0.41503388 -0.81321872
vn -0.30705754 -0.67391997 -0.67197287
vn -0.30705754 -0.67391997 -0.67197287
vn -0.30705754 -0.67391997 -0.67197287
vn 0.01382123 -0.40195038 -0.91555714
vn 0.01382123 -0.40195038 -0.91555714
vn 0.01382123 -0.40195038 -0.91555714
vn 0.60024807 -0.23963778 -0.76307011
vn 0.60024807 -0.23963778 -0.76307011
vn 0.60024807 -0.23963778 -0.76307011
vn 0.81925634 -0.20091238 -0.53707844
vn 0.81925634 -0.20091238 -0.53707844
vn 0.81925634 -0.20091238 -0.53707844
vn 0.48941036 -0.11213843 -0.86481355
vn 0.48941036 -0.11213843 -0.86481355
vn 0.48941036 -0.11213843 -0.86481355
vn 0.70898499 -0.18879208 -0.67948351
vn 0.70898499 -0.18879208 -0.67948351
vn 0.70898499 -0.18879208 -0.67948351
vn 0.71003364 -0.25169651 -0.65764816
vn 0.71003364 -0.25169651 -0.65764816
vn 0.71003364 -0.25169651 -0.65764816
vn 0.74762510 -0.26885457 -0.60726759
vn 0.74762510 -0.26885457 -0.60726759
vn 0.74762510 -0.26885457 -0.60726759
vn 0.70104044 -0.32425716 -0.63513747
vn 0.70104044 -0.32425716 -0.63513747
vn 0.70104044 -0.32425716 -0.63513747
vn 0.61855664 -0.10701755 -0.77841822
vn 0.61855664 -0.10701755 -0.77841822
vn 0.61855664 -0.10701755 -0.77841822
vn 0.73707128 -0.10582382 -0.66747827
vn 0.73707128 -0.10582382 -0.66747827
vn 0.73707128 -0.10582382 -0.66747827
vn 0.75788950 -0.14351905 -0.63640065
vn 0.75788950 -0.14351905 -0.63640065
vn 0.75788950 -0.14351905 -0.63640065
vn 0.56671016 -0.09869538 -0.81798460
vn 0.56671016 -0.09869538 -0.81798460
vn 0.56671016 -0.09869538 -0.81798460
vn 0.97270649 -0.15995323 -0.16809833
vn 0.97270649 -0.15995323 -0.16809833
vn 0.97270649 -0.15995323 -0.16809833
vn 0.60941385 -0.17587960 -0.77309839
vn 0.60941385 -0.17587960 -0.77309839
vn 0.60941385 -0.17587960 -0.77309839
vn 0.00000000 0.99953584 0.03046487
vn 0.00000000 0.99953584 0.03046487
vn 0.00000000 0.99953584 0.03046487
f 1//1 2//2 3//3
f 4//4 5//5 6//6
f 7//7 8//8 9//9
f 10//10 11//11 12//12
f 13//13 14//14 15//15
f 16//16 17//17 18//18
f 19//19 20//20 21//21
f 19//19 2//2 20//20
f 3//3 2//2 19//19
f 22//22 23//23 24//24
f 25//25 26//26 27//27
f 28//28 29//29 30//30
f 31//31 32//32 33//33
f 34//34 35//35 36//36
f 37//37 38//38 39//39
f 40//40 41//41 42//42
f 43//43 44//44 45//45
f 46//46 47//47 48//48
f 49//49 50//50 51//51
f 52//52 53//53 54//54
f 55//55 56//56 57//57
f 58//58 59//59 60//60
f 61//61 62//62 63//63
f 64//64 65//65 66//66
f 67//67 68//68 69//69
f 70//70 71//71 72//72
f 73//73 74//74 75//75
f 76//76 77//77 78//78
f 79//79 80//80 81//81
f 82//82 83//83 84//84
f 85//85 86//86 87//87
f 88//88 89//89 90//90
f 91//91 92//92 93//93
f 94//94 95//95 96//96
f 97//97 98//98 99//99
f 100//100 101//101 102//102
f 103//103 104//104 105//105
f 106//106 107//107 108//108
f 106//106 109//109 107//107
f 110//110 111//111 112//112
f 113//113 114//114 115//115
f 116//116 117//117 118//118
f 119//119 120//120 121//121
f 122//122 123//123 124//124
f 125//125 126//126 127//127
f 128//128 129//129 130//130
f 131//131 132//132 133//133
f 134//134 135//135 136//136
f 137//137 138//138 139//139
f 140//140 141//141 142//142
f 143//143 144//144 145//145
f 146//146 147//147 148//148
f 149//149 150//150 151//151
f 152//152 153//153 154//154
f 155//155 156//156 157//157
f 158//158 159//159 160//160
f 161//161 162//162 163//163
f 164//164 165//165 166//166
f 167//167 168//168 169//169
f 170//170 171//171 172//172
f 173//173 174//174 175//175
f 176//176 177//177 178//178
f 179//179 180//180 181//181
f 182//182 183//183 184//184
f 185//185 186//186 187//187
f 188//188 189//189 190//190
f 191//191 192//192 193//193
f 194//194 195//195 196//196
f 197//197 198//198 199//199
f 200//200 201//201 202//202
f 203//203 204//204 205//205
f 206//206 207//207 208//208
f 209//209 210//210 211//211
f 212//212 213//213 214//214
f 215//215 216//216 217//217
f 218//218 219//219 220//220
f 215//215 217//217 221//221
f 222//222 223//223 224//224
f 225//225 226//226 227//227
f 228//228 229//229 230//230
f 231//231 232//232 233//233
f 234//234 235//235 236//236
f 237//237 238//238 239//239
f 240//240 241//241 242//242
f 243//243 244//244 245//245
f 246//246 247//247 248//248
f 249//249 250//250 251//251
f 252//252 253//253 254//254
f 255//255 256//256 257//257
f 255//255 258//258 256//256
f 259//259 260//260 261//261
f 262//262 263//263 264//264
f 265//265 266//266 267//267
f 268//268 269//269 270//270
f 271//271 272//272 273//273
f 274//274 275//275 276//276
f 277//277 278//278 279//279
f 280//280 281//281 282//282
f 283//283 284//284 285//285
f 286//286 287//287 288//288
f 289//289 290//290 291//291
f 292//292 293//293 294//294
f 295//295 296//296 297//297
f 298//298 299//299 300//300
f 301//301 302//302 303//303
f 304//304 305//305 306//306
f 307//307 308//308 309//309
f 310//310 311//311 312//312
f 313//313 314//314 315//315
f 316//316 317//317 318//318
f 265//265 319//319 266//266
f 320//320 321//321 322//322
f 323//323 324//324 325//325
f 326//326 327//327 328//328
f 329//329 330//330 331//331
f 332//332 333//333 334//334
f 335//335 336//336 337//337
f 338//338 339//339 340//340
f 341//341 342//342 343//343
f 344//344 345//345 346//346
f 347//347 348//348 349//349
f 350//350 351//351 352//352
f 353//353 354//354 355//355
f 356//356 357//357 358//358
f 359//359 360//360 361//361
f 362//362 363//363 364//364
f 365//365 366//366 367//367
f 368//368 369//369 370//370
f 371//371 372//372 373//373
f 374//374 375//375 376//376
f 377//377 378//378 379//379
f 380//380 381//381 382//382
f 383//383 384//384 385//385
f 386//386 387//387 388//388
f 389//389 390//390 391//391
f 392//392 393//393 394//394
f 395//395 396//396 397//397
f 398//398 399//399 400//400
f 401//401 402//402 403//403
f 404//404 405//405 406//406
f 407//407 408//408 409//409
f 410//410 411//411 412//412
f 413//413 414//414 415//415
f 416//416 417//417 418//418
f 392//392 394//394 419//419
f 420//420 421//421 422//422
f 423//423 424//424 425//425
f 426//426 427//427 428//428
f 426//426 428//428 429//429
f 430//430 431//431 432//432
f 433//433 434//434 435//435
f 436//436 437//437 438//438
f 439//439 440//440 441//441
f 442//442 443//443 444//444
f 445//445 446//446 447//447
f 445//445 448//448 446//446
f 449//449 450//450 451//451
f 452//452 453//453 454//454
f 455//455 456//456 457//457
f 458//458 459//459 460//460
f 461//461 462//462 463//463
f 464//464 465//465 466//466
f 467//467 468//468 469//469
f 285//285 284//284 470//470
f 471//471 472//472 473//473
f 474//474 475//475 476//476
f 477//477 478//478 479//479
f 480//480 481//481 482//482
f 483//483 484//484 485//485
f 486//486 487//487 488//488
f 489//489 490//490 491//491
f 492//492 493//493 494//494
f 495//495 496//496 497//497
f 498//498 499//499 500//500
f 501//501 502//502 503//503
f 504//504 505//505 506//506
f 507//507 508//508 509//509
f 510//510 511//511 512//512
f 513//513 514//514 515//515
f 516//516 517//517 518//518
f 519//519 520//520 521//521
f 522//522 523//523 524//524
f 525//525 526//526 527//527
f 528//528 529//529 530//530
f 531//531 532//532 533//533
f 534//534 535//535 536//536
f 537//537 538//538 539//539
f 540//540 541//541 542//542
f 543//543 531//531 533//533
f 544//544 545//545 546//546
f 547//547 548//548 549//549
f 550//550 551//551 552//552
f 553//553 554//554 555//555
f 556//556 557//557 558//558
f 559//559 560//560 561//561
f 562//562 563//563 564//564
f 565//565 566//566 567//567
f 568//568 569//569 570//570
f 550//550 571//571 551//551
f 572//572 573//573 574//574
f 575//575 576//576 577//577
f 578//578 579//579 580//580
f 581//581 582//582 583//583
f 584//584 585//585 586//586
f 587//587 588//588 589//589
f 588//588 577//577 589//589
f 577//577 576//576 590//590
f 581//581 591//591 582//582
f 577//577 590//590 589//589
f 592//592 593//593 594//594
f 576//576 595//595 590//590
f 595//595 596//596 590//590
f 590//590 596//596 597//597
f 598//598 599//599 600//600
f 601//601 575//575 577//577
f 602//602 603//603 604//604
f 605//605 606//606 607//607
f 608//608 609//609 610//610
f 611//611 612//612 613//613
f 614//614 615//615 616//616
f 617//617 618//618 619//619
f 620//620 621//621 622//622
f 623//623 624//624 625//625
f 626//626 627//627 628//628
f 629//629 630//630 631//631
f 632//632 633//633 634//634
f 635//635 636//636 637//637
f 638//638 639//639 640//640
f 641//641 642//642 643//643
f 644//644 645//645 646//646
f 647//647 648//648 649//649
f 650//650 651//651 652//652
f 653//653 654//654 655//655
f 656//656 657//657 658//658
f 659//659 660//660 661//661
f 662//662 663//663 664//664
f 665//665 666//666 667//667
f 668//668 669//669 670//670
f 671//671 672//672 673//673
f 674//674 675//675 676//676
f 677//677 678//678 679//679
f 680//680 681//681 682//682
f 683//683 684//684 685//685
f 686//686 687//687 688//688
f 689//689 690//690 691//691
f 692//692 693//693 694//694
f 695//695 696//696 697//697
f 698//698 699//699 700//700
f 701//701 702//702 703//703
f 704//704 705//705 706//706
f 707//707 708//708 709//709
f 710//710 711//711 712//712
f 713//713 714//714 715//715
f 716//716 717//717 718//718
f 719//719 720//720 721//721
f 722//722 723//723 724//724
f 725//725 726//726 727//727
f 728//728 729//729 730//730
f 731//731 732//732 733//733
f 734//734 735//735 736//736
f 737//737 738//738 739//739
f 740//740 741//741 742//742
f 743//743 744//744 745//745
f 746//746 747//747 748//748
f 749//749 750//750 751//751

