# https://github.com/mikedh/trimesh
v 0.08813178 0.07732069 0.02570773
v 0.08746469 0.07760959 0.02499974
v 0.08696299 0.07758128 0.02548922
v 0.08818662 0.07763165 0.02429277
v 0.08734500 0.07794845 0.02340914
v 0.08662557 0.07794106 0.02411623
v 0.08885538 0.07735264 0.02499969
v 0.08813178 0.07732069 0.02570773
v 0.08937048 0.07712346 0.02554698
v 0.08885538 0.07735264 0.02499969
v 0.08746469 0.07760959 0.02499974
v 0.08813178 0.07732069 0.02570773
v 0.08937048 0.07712346 0.02554698
v 0.08813178 0.07732069 0.02570773
v 0.08856999 0.07711344 0.02617437
v 0.08925980 0.07736361 0.02460331
v 0.08746469 0.07760959 0.02499974
v 0.08885538 0.07735264 0.02499969
v 0.08818662 0.07763165 0.02429277
v 0.08975583 0.07736897 0.02411623
v 0.08818662 0.07763165 0.02429277
v 0.08925980 0.07736361 0.02460331
v 0.08864820 0.07763326 0.02383859
v 0.08818662 0.07763165 0.02429277
v 0.08975583 0.07736897 0.02411623
v 0.08818662 0.07763165 0.02429277
v 0.08704829 0.07777744 0.02456082
v 0.08746469 0.07760959 0.02499974
v 0.08968585 0.07697355 0.02588404
v 0.08856999 0.07711344 0.02617437
v 0.08895885 0.07692128 0.02659089
v 0.08908420 0.07763117 0.02340914
v 0.08864820 0.07763326 0.02383859
v 0.08975583 0.07736897 0.02411623
v 0.08813178 0.07732069 0.02570773
v 0.08655714 0.07755160 0.02588392
v 0.08722090 0.07724726 0.02659131
v 0.08662557 0.07794106 0.02411623
v 0.08704829 0.07777744 0.02456082
v 0.08818662 0.07763165 0.02429277
v 0.08968585 0.07697355 0.02588404
v 0.08696299 0.07758128 0.02548922
v 0.08655714 0.07755160 0.02588392
v 0.08813178 0.07732069 0.02570773
vn 0.17056565 0.95806949 0.23023948
vn 0.17056565 0.95806949 0.23023948
vn 0.17056565 0.95806949 0.23023948
vn 0.17102146 0.96791033 0.18412290
vn 0.17102146 0.96791033 0.18412290
vn 0.17102146 0.96791033 0.18412290
vn 0.18198567 0.95622963 0.22914210
vn 0.18198567 0.95622963 0.22914210
vn 0.18198567 0.95622963 0.22914210
vn 0.17706998 0.95831879 0.22421267
vn 0.17706998 0.95831879 0.22421267
vn 0.17706998 0.95831879 0.22421267
vn 0.18415525 0.95053324 0.25014675
vn 0.18377378 0.95073417 0.24966324
vn 0.18387914 0.95067872 0.24979678
vn 0.17810040 0.96135063 0.20996479
vn 0.17831024 0.96106476 0.21109238
vn 0.17772364 0.96185969 0.20794291
vn 0.17853354 0.96075870 0.21229343
vn 0.18341401 0.96301707 0.19737636
vn 0.18341401 0.96301707 0.19737636
vn 0.18341401 0.96301707 0.19737636
vn 0.18278721 0.96477899 0.18918331
vn 0.18278721 0.96477899 0.18918331
vn 0.18278721 0.96477899 0.18918331
vn 0.17177624 0.96346866 0.20547766
vn 0.17177624 0.96346866 0.20547766
vn 0.17177624 0.96346866 0.20547766
vn 0.18692542 0.94671813 0.26226643
vn 0.18692542 0.94671813 0.26226643
vn 0.18692542 0.94671813 0.26226643
vn 0.18461919 0.96567420 0.18272685
vn 0.18461919 0.96567420 0.18272685
vn 0.18461919 0.96567420 0.18272685
vn 0.16798370 0.95293986 0.25236303
vn 0.16798370 0.95293986 0.25236303
vn 0.16798370 0.95293986 0.25236303
vn 0.16951310 0.96616444 0.19440060
vn 0.16951310 0.96616444 0.19440060
vn 0.16951310 0.96616444 0.19440060
vn 0.18428439 0.95046512 0.25031044
vn 0.16737688 0.95524154 0.24392329
vn 0.16737688 0.95524154 0.24392329
vn 0.16737688 0.95524154 0.24392329
f 1//1 2//2 3//3
f 4//4 5//5 6//6
f 7//7 8//8 9//9
f 10//10 11//11 12//12
f 13//13 14//14 15//15
f 16//16 17//17 18//18
f 16//16 19//19 17//17
f 20//20 21//21 22//22
f 23//23 24//24 25//25
f 26//26 27//27 28//28
f 29//29 30//30 31//31
f 32//32 33//33 34//34
f 35//35 36//36 37//37
f 38//38 39//39 40//40
f 13//13 15//15 41//41
f 42//42 43//43 44//44

