# https://github.com/mikedh/trimesh
v -0.00086049 0.00191301 0.04356497
v -0.00174040 0.00938857 0.04441356
v -0.00152552 0.00191253 0.04591751
v -0.00174040 0.00938857 0.04441356
v -0.00129700 0.00939077 0.04621160
v -0.00152552 0.00191253 0.04591751
v -0.00129700 0.00939077 0.04621160
v 0.00015646 0.00938839 0.04676586
v -0.00152552 0.00191253 0.04591751
v -0.00152552 0.00191253 0.04591751
v 0.00015646 0.00938839 0.04676586
v 0.00086122 0.00191313 0.04643493
v -0.00015573 0.00938839 0.04323405
v -0.00174040 0.00938857 0.04441356
v -0.00086049 0.00191301 0.04356497
v -0.00208640 0.00943106 0.04526871
v -0.00215316 0.01088649 0.04542034
v -0.00146478 0.00942922 0.04655170
v -0.00215316 0.01088649 0.04542034
v -0.00107008 0.01088351 0.04698091
v -0.00146478 0.00942922 0.04655170
v 0.00072160 0.00943357 0.04298967
v -0.00072348 0.01089471 0.04287755
v -0.00069771 0.00943160 0.04301643
v -0.00146478 0.00942922 0.04655170
v -0.00107008 0.01088351 0.04698091
v -0.00001121 0.00943017 0.04711711
v -0.00069771 0.00943160 0.04301643
v -0.00072348 0.01089471 0.04287755
v -0.00181925 0.00943756 0.04387903
v -0.00072348 0.01089471 0.04287755
v -0.00196713 0.01088964 0.04407685
v -0.00181925 0.00943756 0.04387903
v -0.00181925 0.00943756 0.04387903
v -0.00196713 0.01088964 0.04407685
v -0.00208640 0.00943106 0.04526871
v -0.00196713 0.01088964 0.04407685
v -0.00215316 0.01088649 0.04542034
v -0.00208640 0.00943106 0.04526871
v -0.00288659 0.00943518 0.04399472
v -0.00297522 0.00943679 0.04570305
v -0.00300932 0.01089411 0.04527866
v -0.00288659 0.00943518 0.04399472
v -0.00300932 0.01089411 0.04527866
v -0.00245517 0.01089614 0.04326856
v -0.00179166 0.00943351 0.04755115
v 0.00035971 0.01089966 0.04796826
v -0.00187093 0.01090663 0.04741126
v -0.00179166 0.00943351 0.04755115
v 0.00052098 0.00943428 0.04803031
v 0.00035971 0.01089966 0.04796826
v -0.00178468 0.00943410 0.04249650
v -0.00288659 0.00943518 0.04399472
v -0.00245517 0.01089614 0.04326856
v -0.00178468 0.00943410 0.04249650
v -0.00245517 0.01089614 0.04326856
v -0.00097016 0.01088500 0.04216766
v 0.00001484 0.00943774 0.04194241
v -0.00178468 0.00943410 0.04249650
v -0.00097016 0.01088500 0.04216766
v 0.00001484 0.00943774 0.04194241
v -0.00097016 0.01088500 0.04216766
v 0.00102550 0.01089471 0.04214996
v -0.00297522 0.00943679 0.04570305
v -0.00179166 0.00943351 0.04755115
v -0.00187093 0.01090663 0.04741126
v -0.00297522 0.00943679 0.04570305
v -0.00187093 0.01090663 0.04741126
v -0.00300932 0.01089411 0.04527866
v 0.00226307 -0.00008376 0.04726260
v 0.00484306 -0.00001706 0.05371713
v 0.00226897 -0.00003648 0.05374616
v 0.00226307 -0.00008376 0.04726260
v 0.00707507 -0.00001888 0.05276924
v 0.00484306 -0.00001706 0.05371713
v 0.00867492 -0.00000700 0.05031847
v 0.00707507 -0.00001888 0.05276924
v 0.00226307 -0.00008376 0.04726260
v 0.00875700 -0.00002978 0.04727172
v 0.00867492 -0.00000700 0.05031847
v 0.00876260 0.00001084 0.03626585
v 0.00875890 -0.00002876 0.04272788
v 0.00224817 -0.00007642 0.04275202
v 0.00227016 -0.00003438 0.03624880
v -0.00226229 -0.00008376 0.04726260
v -0.00226819 -0.00003648 0.05374616
v -0.00569189 0.00001103 0.05360388
v -0.00226229 -0.00008376 0.04726260
v -0.00569189 0.00001103 0.05360388
v -0.00781816 -0.00003973 0.05191779
v -0.00226229 -0.00008376 0.04726260
v -0.00781816 -0.00003973 0.05191779
v -0.00870937 -0.00001031 0.04993945
v -0.00870937 -0.00001031 0.04993945
v -0.00875771 -0.00002898 0.04727184
v -0.00227374 -0.00003684 0.03624951
v -0.00224394 -0.00007469 0.04275560
v -0.00875878 -0.00003045 0.04272389
v -0.00877196 0.00002754 0.03626435
v 0.00880933 0.00156456 0.04499989
v 0.00867492 -0.00000700 0.05031847
v 0.00875700 -0.00002978 0.04727172
v 0.00880933 0.00156456 0.04499989
v 0.00878596 0.00934815 0.05057120
v 0.00867492 -0.00000700 0.05031847
v 0.00893134 0.00931364 0.03609037
v 0.00878596 0.00934815 0.05057120
v 0.00880933 0.00156456 0.04499989
v 0.00875890 -0.00002876 0.04272788
v 0.00893134 0.00931364 0.03609037
v 0.00880933 0.00156456 0.04499989
v 0.00876260 0.00001084 0.03626585
v 0.00893134 0.00931364 0.03609037
v 0.00875890 -0.00002876 0.04272788
v -0.00880402 0.00155884 0.04499989
v -0.00875771 -0.00002898 0.04727184
v -0.00870937 -0.00001031 0.04993945
v -0.00889307 0.00934207 0.04989957
v -0.00880402 0.00155884 0.04499989
v -0.00870937 -0.00001031 0.04993945
v -0.00893068 0.00931442 0.03609037
v -0.00875878 -0.00003045 0.04272389
v -0.00880402 0.00155884 0.04499989
v -0.00877196 0.00002754 0.03626435
v -0.00893068 0.00931442 0.03609037
v -0.00880402 0.00155884 0.04499989
v -0.00889307 0.00934207 0.04989957
v 0.00226307 -0.00008376 0.04726260
v 0.00226897 -0.00003648 0.05374616
v 0.00000037 0.00155884 0.05380398
v 0.00000037 0.00148863 0.04499989
v 0.00000037 0.00156111 0.03619641
v 0.00227016 -0.00003438 0.03624880
v 0.00224817 -0.00007642 0.04275202
v 0.00000037 0.00156111 0.03619641
v 0.00224817 -0.00007642 0.04275202
v 0.00000037 0.00148863 0.04499989
v -0.00226229 -0.00008376 0.04726260
v 0.00000037 0.00148863 0.04499989
v 0.00000037 0.00155884 0.05380398
v -0.00226819 -0.00003648 0.05374616
v 0.00000037 0.00156111 0.03619641
v 0.00000037 0.00148863 0.04499989
v -0.00224394 -0.00007469 0.04275560
v -0.00227374 -0.00003684 0.03624951
v 0.00000037 0.00156111 0.03619641
v -0.00224394 -0.00007469 0.04275560
v -0.00893068 0.00931442 0.03609037
v -0.00227374 -0.00003684 0.03624951
v -0.00877196 0.00002754 0.03626435
v 0.00000037 0.00156111 0.03619641
v -0.00227374 -0.00003684 0.03624951
v -0.00893068 0.00931442 0.03609037
v 0.00893134 0.00931364 0.03609037
v 0.00227016 -0.00003438 0.03624880
v 0.00000037 0.00156111 0.03619641
v 0.00893134 0.00931364 0.03609037
v 0.00876260 0.00001084 0.03626585
v 0.00227016 -0.00003438 0.03624880
v 0.00893134 0.00931364 0.03609037
v 0.00000037 0.00156111 0.03619641
v -0.00893068 0.00931442 0.03609037
v 0.00000037 0.00155884 0.05380398
v 0.00472999 0.00935137 0.05389988
v -0.00533980 0.00935519 0.05381941
v 0.00000037 0.00155884 0.05380398
v -0.00533980 0.00935519 0.05381941
v -0.00569189 0.00001103 0.05360388
v 0.00000037 0.00155884 0.05380398
v -0.00569189 0.00001103 0.05360388
v -0.00226819 -0.00003648 0.05374616
v 0.00484306 -0.00001706 0.05371713
v 0.00000037 0.00155884 0.05380398
v 0.00226897 -0.00003648 0.05374616
v 0.00472999 0.00935137 0.05389988
v -0.00288659 0.00943518 0.04399472
v -0.00270706 0.00938368 0.04193902
v -0.00394452 0.00940043 0.04425370
v -0.00178468 0.00943410 0.04249650
v 0.00878596 0.00934815 0.05057120
v 0.00749272 0.00939500 0.04425054
v 0.00749749 0.00939482 0.04575365
v 0.00218558 0.00939083 0.04837524
v 0.00254619 0.00943661 0.04679840
v 0.00052098 0.00943428 0.04803031
v -0.00533980 0.00935519 0.05381941
v -0.00725842 0.00938779 0.05068916
v -0.00786078 0.00935531 0.05219137
v 0.00749832 0.00939387 0.03750681
v 0.00893134 0.00931364 0.03609037
v 0.00075413 0.00939506 0.03750252
v -0.00533980 0.00935519 0.05381941
v -0.00497210 0.00939274 0.05243790
v -0.00725842 0.00938779 0.05068916
v 0.00749272 0.00939500 0.04425054
v 0.00893134 0.00931364 0.03609037
v 0.00749832 0.00939387 0.03750681
v 0.00878596 0.00934815 0.05057120
v 0.00893134 0.00931364 0.03609037
v 0.00749272 0.00939500 0.04425054
v -0.00893068 0.00931442 0.03609037
v 0.00075413 0.00939506 0.03750252
v -0.00893068 0.00931442 0.03609037
v -0.00075576 0.00939441 0.03750163
v -0.00749242 0.00939387 0.03750175
v -0.00893068 0.00931442 0.03609037
v -0.00749648 0.00939482 0.04424685
v -0.00889307 0.00934207 0.04989957
v -0.00786078 0.00935531 0.05219137
v -0.00725842 0.00938779 0.05068916
v -0.00889307 0.00934207 0.04989957
v 0.00218558 0.00939083 0.04837524
v 0.00344521 0.00938672 0.04705679
v 0.00254619 0.00943661 0.04679840
v 0.00686866 0.00935215 0.05310285
v 0.00736529 0.00939369 0.05032676
v 0.00534445 0.00938582 0.05235564
v -0.00725842 0.00938779 0.05068916
v -0.00749183 0.00939482 0.04574930
v -0.00889307 0.00934207 0.04989957
v -0.00533980 0.00935519 0.05381941
v -0.00075355 0.00939471 0.05249720
v -0.00497210 0.00939274 0.05243790
v 0.00686866 0.00935215 0.05310285
v 0.00878596 0.00934815 0.05057120
v 0.00736529 0.00939369 0.05032676
v 0.00001484 0.00943774 0.04194241
v -0.00270706 0.00938368 0.04193902
v -0.00178468 0.00943410 0.04249650
v 0.00344521 0.00938672 0.04705679
v 0.00392353 0.00938994 0.04573357
v 0.00254619 0.00943661 0.04679840
v 0.00001484 0.00943774 0.04194241
v -0.00073048 0.00939190 0.04108005
v -0.00270706 0.00938368 0.04193902
v 0.00254619 0.00943661 0.04679840
v 0.00392353 0.00938994 0.04573357
v 0.00303841 0.00943363 0.04465276
v 0.00074981 0.00939506 0.05249238
v -0.00749183 0.00939482 0.04574930
v -0.00749648 0.00939482 0.04424685
v -0.00889307 0.00934207 0.04989957
v 0.00392353 0.00938994 0.04573357
v 0.00392336 0.00939035 0.04426658
v 0.00303841 0.00943363 0.04465276
v 0.00001484 0.00943774 0.04194241
v 0.00073400 0.00938994 0.04107671
v -0.00073048 0.00939190 0.04108005
v 0.00207764 0.00943434 0.04267549
v 0.00205708 0.00938672 0.04155492
v 0.00001484 0.00943774 0.04194241
v 0.00073400 0.00938994 0.04107671
v 0.00392336 0.00939035 0.04426658
v 0.00337565 0.00939083 0.04281467
v 0.00303841 0.00943363 0.04465276
v 0.00472999 0.00935137 0.05389988
v 0.00074981 0.00939506 0.05249238
v -0.00073305 0.00939035 0.04892295
v -0.00075355 0.00939471 0.05249720
v -0.00749183 0.00939482 0.04574930
v -0.00392264 0.00939035 0.04573339
v -0.00749648 0.00939482 0.04424685
v 0.00207764 0.00943434 0.04267549
v -0.00205636 0.00938672 0.04844486
v -0.00179166 0.00943351 0.04755115
v -0.00337481 0.00939083 0.04718530
v 0.00207764 0.00943434 0.04267549
v 0.00337565 0.00939083 0.04281467
v 0.00205708 0.00938672 0.04155492
v -0.00749242 0.00939387 0.03750175
v -0.00075576 0.00939441 0.03750163
v 0.00392353 0.00938994 0.04573357
v 0.00749749 0.00939482 0.04575365
v 0.00392336 0.00939035 0.04426658
v -0.00179166 0.00943351 0.04755115
v -0.00297522 0.00943679 0.04570305
v -0.00337481 0.00939083 0.04718530
v 0.00878596 0.00934815 0.05057120
v 0.00749749 0.00939482 0.04575365
v 0.00736529 0.00939369 0.05032676
v -0.00073305 0.00939035 0.04892295
v -0.00179166 0.00943351 0.04755115
v -0.00205636 0.00938672 0.04844486
v -0.00337481 0.00939083 0.04718530
v -0.00297522 0.00943679 0.04570305
v -0.00392264 0.00939035 0.04573339
v 0.00472999 0.00935137 0.05389988
v 0.00534445 0.00938582 0.05235564
v 0.00074981 0.00939506 0.05249238
v -0.00073305 0.00939035 0.04892295
v 0.00052098 0.00943428 0.04803031
v -0.00179166 0.00943351 0.04755115
v 0.00073400 0.00938994 0.04107671
v 0.00075413 0.00939506 0.03750252
v -0.00073048 0.00939190 0.04108005
v 0.00073400 0.00938994 0.04892319
v -0.00075576 0.00939441 0.03750163
v -0.00392264 0.00939035 0.04573339
v -0.00394452 0.00940043 0.04425370
v -0.00749648 0.00939482 0.04424685
v -0.00392264 0.00939035 0.04573339
v -0.00297522 0.00943679 0.04570305
v -0.00394452 0.00940043 0.04425370
v 0.00073400 0.00938994 0.04892319
v 0.00052098 0.00943428 0.04803031
v -0.00073305 0.00939035 0.04892295
v 0.00749272 0.00939500 0.04425054
v -0.00297522 0.00943679 0.04570305
v -0.00288659 0.00943518 0.04399472
v -0.00394452 0.00940043 0.04425370
v 0.00686866 0.00935215 0.05310285
v 0.00534445 0.00938582 0.05235564
v 0.00472999 0.00935137 0.05389988
v 0.00218558 0.00939083 0.04837524
v 0.00052098 0.00943428 0.04803031
v 0.00073400 0.00938994 0.04892319
v 0.00878596 0.00934815 0.05057120
v 0.00686866 0.00935215 0.05310285
v 0.00707507 -0.00001888 0.05276924
v 0.00878596 0.00934815 0.05057120
v 0.00707507 -0.00001888 0.05276924
v 0.00867492 -0.00000700 0.05031847
v 0.00686866 0.00935215 0.05310285
v 0.00484306 -0.00001706 0.05371713
v 0.00707507 -0.00001888 0.05276924
v 0.00686866 0.00935215 0.05310285
v 0.00472999 0.00935137 0.05389988
v 0.00484306 -0.00001706 0.05371713
v -0.00786078 0.00935531 0.05219137
v -0.00781816 -0.00003973 0.05191779
v -0.00569189 0.00001103 0.05360388
v -0.00533980 0.00935519 0.05381941
v -0.00786078 0.00935531 0.05219137
v -0.00569189 0.00001103 0.05360388
v -0.00889307 0.00934207 0.04989957
v -0.00870937 -0.00001031 0.04993945
v -0.00781816 -0.00003973 0.05191779
v -0.00786078 0.00935531 0.05219137
v 0.00749272 0.00939500 0.04425054
v 0.00733322 0.00144213 0.03767269
v 0.00733107 0.00144160 0.04408025
v 0.00749832 0.00939387 0.03750681
v 0.00392336 0.00939035 0.04426658
v 0.00733107 0.00144160 0.04408025
v 0.00411546 0.00143355 0.04404097
v 0.00749272 0.00939500 0.04425054
v 0.00733107 0.00144160 0.04408025
v 0.00392336 0.00939035 0.04426658
v 0.00091362 0.00144046 0.04092454
v 0.00073400 0.00938994 0.04107671
v 0.00205708 0.00938672 0.04155492
v 0.00267535 0.00142783 0.04171335
v 0.00091362 0.00144046 0.04092454
v 0.00205708 0.00938672 0.04155492
v 0.00267535 0.00142783 0.04171335
v 0.00205708 0.00938672 0.04155492
v 0.00337565 0.00939083 0.04281467
v 0.00411546 0.00143355 0.04404097
v 0.00267535 0.00142783 0.04171335
v 0.00337565 0.00939083 0.04281467
v 0.00411546 0.00143355 0.04404097
v 0.00337565 0.00939083 0.04281467
v 0.00392336 0.00939035 0.04426658
v 0.00091639 0.00144249 0.03767251
v 0.00073400 0.00938994 0.04107671
v 0.00091362 0.00144046 0.04092454
v 0.00091639 0.00144249 0.03767251
v 0.00075413 0.00939506 0.03750252
v 0.00073400 0.00938994 0.04107671
v 0.00733322 0.00144213 0.03767269
v 0.00749832 0.00939387 0.03750681
v 0.00091639 0.00144249 0.03767251
v 0.00075413 0.00939506 0.03750252
v 0.00267535 0.00142783 0.04171335
v 0.00091639 0.00144249 0.03767251
v 0.00091362 0.00144046 0.04092454
v 0.00733322 0.00144213 0.03767269
v 0.00091639 0.00144249 0.03767251
v 0.00267535 0.00142783 0.04171335
v 0.00733107 0.00144160 0.04408025
v 0.00411546 0.00143355 0.04404097
v -0.00733286 0.00144309 0.03767186
v -0.00075576 0.00939441 0.03750163
v -0.00749242 0.00939387 0.03750175
v -0.00091610 0.00144213 0.03767269
v -0.00073048 0.00939190 0.04108005
v -0.00091610 0.00144213 0.03767269
v -0.00090949 0.00144202 0.04092669
v -0.00075576 0.00939441 0.03750163
v -0.00091610 0.00144213 0.03767269
v -0.00073048 0.00939190 0.04108005
v -0.00304520 0.00141972 0.04195654
v -0.00394452 0.00940043 0.04425370
v -0.00270706 0.00938368 0.04193902
v -0.00304520 0.00141972 0.04195654
v -0.00407314 0.00144213 0.04408985
v -0.00394452 0.00940043 0.04425370
v -0.00090949 0.00144202 0.04092669
v -0.00270706 0.00938368 0.04193902
v -0.00073048 0.00939190 0.04108005
v -0.00090949 0.00144202 0.04092669
v -0.00304520 0.00141972 0.04195654
v -0.00270706 0.00938368 0.04193902
v -0.00394452 0.00940043 0.04425370
v -0.00733197 0.00144273 0.04407978
v -0.00749648 0.00939482 0.04424685
v -0.00407314 0.00144213 0.04408985
v -0.00733286 0.00144309 0.03767186
v -0.00749648 0.00939482 0.04424685
v -0.00733197 0.00144273 0.04407978
v -0.00749242 0.00939387 0.03750175
v -0.00304520 0.00141972 0.04195654
v -0.00091610 0.00144213 0.03767269
v -0.00733286 0.00144309 0.03767186
v -0.00304520 0.00141972 0.04195654
v -0.00733286 0.00144309 0.03767186
v -0.00733197 0.00144273 0.04407978
v -0.00090949 0.00144202 0.04092669
v -0.00091610 0.00144213 0.03767269
v -0.00304520 0.00141972 0.04195654
v -0.00407314 0.00144213 0.04408985
v -0.00304520 0.00141972 0.04195654
v -0.00733197 0.00144273 0.04407978
v -0.00714052 0.00143117 0.05044221
v -0.00725842 0.00938779 0.05068916
v -0.00509042 0.00143224 0.05222845
v -0.00725842 0.00938779 0.05068916
v -0.00497210 0.00939274 0.05243790
v -0.00509042 0.00143224 0.05222845
v -0.00733215 0.00144351 0.04591977
v -0.00725842 0.00938779 0.05068916
v -0.00714052 0.00143117 0.05044221
v -0.00733215 0.00144351 0.04591977
v -0.00749183 0.00939482 0.04574930
v -0.00725842 0.00938779 0.05068916
v -0.00733215 0.00144351 0.04591977
v -0.00392264 0.00939035 0.04573339
v -0.00749183 0.00939482 0.04574930
v -0.00411475 0.00143343 0.04595899
v -0.00392264 0.00939035 0.04573339
v -0.00733215 0.00144351 0.04591977
v -0.00091310 0.00144005 0.04907548
v -0.00073305 0.00939035 0.04892295
v -0.00205636 0.00938672 0.04844486
v -0.00267524 0.00142646 0.04828691
v -0.00091310 0.00144005 0.04907548
v -0.00205636 0.00938672 0.04844486
v -0.00267524 0.00142646 0.04828691
v -0.00205636 0.00938672 0.04844486
v -0.00337481 0.00939083 0.04718530
v -0.00411475 0.00143343 0.04595899
v -0.00267524 0.00142646 0.04828691
v -0.00337481 0.00939083 0.04718530
v -0.00411475 0.00143343 0.04595899
v -0.00337481 0.00939083 0.04718530
v -0.00392264 0.00939035 0.04573339
v -0.00073305 0.00939035 0.04892295
v -0.00091634 0.00144303 0.05232816
v -0.00075355 0.00939471 0.05249720
v -0.00073305 0.00939035 0.04892295
v -0.00091310 0.00144005 0.04907548
v -0.00091634 0.00144303 0.05232816
v -0.00497210 0.00939274 0.05243790
v -0.00091634 0.00144303 0.05232816
v -0.00509042 0.00143224 0.05222845
v -0.00075355 0.00939471 0.05249720
v -0.00091634 0.00144303 0.05232816
v -0.00497210 0.00939274 0.05243790
v -0.00411475 0.00143343 0.04595899
v -0.00733215 0.00144351 0.04591977
v -0.00714052 0.00143117 0.05044221
v -0.00267524 0.00142646 0.04828691
v -0.00509042 0.00143224 0.05222845
v -0.00509042 0.00143224 0.05222845
v -0.00091310 0.00144005 0.04907548
v -0.00267524 0.00142646 0.04828691
v -0.00091634 0.00144303 0.05232816
v -0.00091310 0.00144005 0.04907548
v 0.00660819 0.00141263 0.05116903
v 0.00736529 0.00939369 0.05032676
v 0.00730997 0.00143552 0.04958134
v 0.00492477 0.00143731 0.05226343
v 0.00534445 0.00938582 0.05235564
v 0.00660819 0.00141263 0.05116903
v 0.00534445 0.00938582 0.05235564
v 0.00736529 0.00939369 0.05032676
v 0.00660819 0.00141263 0.05116903
v 0.00534445 0.00938582 0.05235564
v 0.00091556 0.00144351 0.05232691
v 0.00074981 0.00939506 0.05249238
v 0.00534445 0.00938582 0.05235564
v 0.00492477 0.00143731 0.05226343
v 0.00091556 0.00144351 0.05232691
v 0.00091556 0.00144351 0.05232691
v 0.00073400 0.00938994 0.04892319
v 0.00074981 0.00939506 0.05249238
v 0.00095939 0.00143343 0.04911512
v 0.00073400 0.00938994 0.04892319
v 0.00091556 0.00144351 0.05232691
v 0.00407583 0.00144005 0.04591339
v 0.00392353 0.00938994 0.04573357
v 0.00344521 0.00938672 0.04705679
v 0.00328731 0.00142646 0.04767560
v 0.00407583 0.00144005 0.04591339
v 0.00344521 0.00938672 0.04705679
v 0.00328731 0.00142646 0.04767560
v 0.00344521 0.00938672 0.04705679
v 0.00218558 0.00939083 0.04837524
v 0.00095939 0.00143343 0.04911512
v 0.00328731 0.00142646 0.04767560
v 0.00218558 0.00939083 0.04837524
v 0.00095939 0.00143343 0.04911512
v 0.00218558 0.00939083 0.04837524
v 0.00073400 0.00938994 0.04892319
v 0.00733226 0.00144279 0.04592007
v 0.00392353 0.00938994 0.04573357
v 0.00407583 0.00144005 0.04591339
v 0.00733226 0.00144279 0.04592007
v 0.00749749 0.00939482 0.04575365
v 0.00392353 0.00938994 0.04573357
v 0.00736529 0.00939369 0.05032676
v 0.00733226 0.00144279 0.04592007
v 0.00730997 0.00143552 0.04958134
v 0.00749749 0.00939482 0.04575365
v 0.00733226 0.00144279 0.04592007
v 0.00736529 0.00939369 0.05032676
v 0.00492477 0.00143731 0.05226343
v 0.00328731 0.00142646 0.04767560
v 0.00095939 0.00143343 0.04911512
v 0.00091556 0.00144351 0.05232691
v 0.00730997 0.00143552 0.04958134
v 0.00407583 0.00144005 0.04591339
v 0.00328731 0.00142646 0.04767560
v 0.00730997 0.00143552 0.04958134
v 0.00733226 0.00144279 0.04592007
v 0.00407583 0.00144005 0.04591339
v 0.00660819 0.00141263 0.05116903
v 0.00730997 0.00143552 0.04958134
v 0.00328731 0.00142646 0.04767560
v 0.00660819 0.00141263 0.05116903
v 0.00328731 0.00142646 0.04767560
v 0.00492477 0.00143731 0.05226343
v -0.00072348 0.01089471 0.04287755
v -0.00245517 0.01089614 0.04326856
v -0.00196713 0.01088964 0.04407685
v -0.00196713 0.01088964 0.04407685
v -0.00245517 0.01089614 0.04326856
v -0.00300932 0.01089411 0.04527866
v -0.00072348 0.01089471 0.04287755
v -0.00097016 0.01088500 0.04216766
v -0.00245517 0.01089614 0.04326856
v -0.00215316 0.01088649 0.04542034
v -0.00072348 0.01089471 0.04287755
v 0.00102550 0.01089471 0.04214996
v -0.00097016 0.01088500 0.04216766
v 0.00098478 0.01088809 0.04306632
v 0.00102550 0.01089471 0.04214996
v -0.00215316 0.01088649 0.04542034
v -0.00300932 0.01089411 0.04527866
v -0.00187093 0.01090663 0.04741126
v 0.00199956 0.01089692 0.04408591
v 0.00102550 0.01089471 0.04214996
v 0.00098478 0.01088809 0.04306632
v 0.00234568 0.01088666 0.04317915
v 0.00102550 0.01089471 0.04214996
v 0.00199956 0.01089692 0.04408591
v -0.00107008 0.01088351 0.04698091
v -0.00215316 0.01088649 0.04542034
v -0.00187093 0.01090663 0.04741126
v 0.00299925 0.01089715 0.04464477
v 0.00234568 0.01088666 0.04317915
v 0.00199956 0.01089692 0.04408591
v 0.00035971 0.01089966 0.04796826
v 0.00082694 0.01089143 0.04701918
v -0.00107008 0.01088351 0.04698091
v 0.00035971 0.01089966 0.04796826
v -0.00107008 0.01088351 0.04698091
v -0.00187093 0.01090663 0.04741126
v 0.00299925 0.01089715 0.04464477
v 0.00199956 0.01089692 0.04408591
v 0.00205123 0.01086962 0.04582434
v 0.00233877 0.01088500 0.04695522
v 0.00299925 0.01089715 0.04464477
v 0.00205123 0.01086962 0.04582434
v 0.00035971 0.01089966 0.04796826
v 0.00205123 0.01086962 0.04582434
v 0.00082694 0.01089143 0.04701918
v 0.00233877 0.01088500 0.04695522
v 0.00205123 0.01086962 0.04582434
v 0.00254619 0.00943661 0.04679840
v 0.00303841 0.00943363 0.04465276
v 0.00299925 0.01089715 0.04464477
v 0.00254619 0.00943661 0.04679840
v 0.00299925 0.01089715 0.04464477
v 0.00233877 0.01088500 0.04695522
v 0.00207764 0.00943434 0.04267549
v 0.00001484 0.00943774 0.04194241
v 0.00102550 0.01089471 0.04214996
v 0.00052098 0.00943428 0.04803031
v 0.00254619 0.00943661 0.04679840
v 0.00233877 0.01088500 0.04695522
v 0.00207764 0.00943434 0.04267549
v 0.00102550 0.01089471 0.04214996
v 0.00234568 0.01088666 0.04317915
v 0.00052098 0.00943428 0.04803031
v 0.00233877 0.01088500 0.04695522
v 0.00035971 0.01089966 0.04796826
v 0.00207764 0.00943434 0.04267549
v 0.00234568 0.01088666 0.04317915
v 0.00299925 0.01089715 0.04464477
v 0.00303841 0.00943363 0.04465276
v 0.00207764 0.00943434 0.04267549
v 0.00299925 0.01089715 0.04464477
v 0.00215483 0.00941843 0.04456412
v 0.00199956 0.01089692 0.04408591
v 0.00072160 0.00943357 0.04298967
v -0.00107008 0.01088351 0.04698091
v 0.00082694 0.01089143 0.04701918
v -0.00001121 0.00943017 0.04711711
v 0.00199956 0.01089692 0.04408591
v 0.00098478 0.01088809 0.04306632
v 0.00072160 0.00943357 0.04298967
v -0.00001121 0.00943017 0.04711711
v 0.00082694 0.01089143 0.04701918
v 0.00144845 0.00942922 0.04656755
v 0.00098478 0.01088809 0.04306632
v -0.00072348 0.01089471 0.04287755
v 0.00072160 0.00943357 0.04298967
v 0.00082694 0.01089143 0.04701918
v 0.00205123 0.01086962 0.04582434
v 0.00144845 0.00942922 0.04656755
v 0.00144845 0.00942922 0.04656755
v 0.00205123 0.01086962 0.04582434
v 0.00215483 0.00941843 0.04456412
v 0.00205123 0.01086962 0.04582434
v 0.00199956 0.01089692 0.04408591
v 0.00215483 0.00941843 0.04456412
v 0.00086122 0.00191313 0.04643493
v 0.00174111 0.00938857 0.04558628
v 0.00152630 0.00191242 0.04408240
v 0.00174111 0.00938857 0.04558628
v 0.00129771 0.00939077 0.04378831
v 0.00152630 0.00191242 0.04408240
v 0.00129771 0.00939077 0.04378831
v -0.00015573 0.00938839 0.04323405
v 0.00152630 0.00191242 0.04408240
v 0.00152630 0.00191242 0.04408240
v -0.00015573 0.00938839 0.04323405
v -0.00086049 0.00191301 0.04356497
v 0.00015646 0.00938839 0.04676586
v 0.00174111 0.00938857 0.04558628
v 0.00086122 0.00191313 0.04643493
v -0.00174040 0.00938857 0.04441356
v -0.00181925 0.00943756 0.04387903
v -0.00208640 0.00943106 0.04526871
v 0.00129771 0.00939077 0.04378831
v 0.00215483 0.00941843 0.04456412
v 0.00072160 0.00943357 0.04298967
v -0.00015573 0.00938839 0.04323405
v 0.00072160 0.00943357 0.04298967
v -0.00069771 0.00943160 0.04301643
v -0.00001121 0.00943017 0.04711711
v -0.00129700 0.00939077 0.04621160
v -0.00146478 0.00942922 0.04655170
v 0.00144845 0.00942922 0.04656755
v 0.00174111 0.00938857 0.04558628
v 0.00015646 0.00938839 0.04676586
v -0.00129700 0.00939077 0.04621160
v -0.00174040 0.00938857 0.04441356
v -0.00146478 0.00942922 0.04655170
v -0.00146478 0.00942922 0.04655170
v -0.00174040 0.00938857 0.04441356
v -0.00208640 0.00943106 0.04526871
v -0.00001121 0.00943017 0.04711711
v 0.00015646 0.00938839 0.04676586
v -0.00129700 0.00939077 0.04621160
v -0.00174040 0.00938857 0.04441356
v -0.00069771 0.00943160 0.04301643
v -0.00181925 0.00943756 0.04387903
v -0.00174040 0.00938857 0.04441356
v -0.00015573 0.00938839 0.04323405
v -0.00069771 0.00943160 0.04301643
v 0.00144845 0.00942922 0.04656755
v 0.00215483 0.00941843 0.04456412
v 0.00174111 0.00938857 0.04558628
v -0.00001121 0.00943017 0.04711711
v 0.00144845 0.00942922 0.04656755
v 0.00015646 0.00938839 0.04676586
v 0.00174111 0.00938857 0.04558628
v 0.00215483 0.00941843 0.04456412
v 0.00129771 0.00939077 0.04378831
v 0.00129771 0.00939077 0.04378831
v 0.00072160 0.00943357 0.04298967
v -0.00015573 0.00938839 0.04323405
v 0.00086122 0.00191313 0.04643493
v 0.00152630 0.00191242 0.04408240
v -0.00086049 0.00191301 0.04356497
v -0.00152552 0.00191253 0.04591751
v -0.00224394 -0.00007469 0.04275560
v 0.00000037 0.00148863 0.04499989
v -0.00880402 0.00155884 0.04499989
v -0.00224394 -0.00007469 0.04275560
v -0.00880402 0.00155884 0.04499989
v -0.00875878 -0.00003045 0.04272389
v -0.00226229 -0.00008376 0.04726260
v -0.00875771 -0.00002898 0.04727184
v -0.00880402 0.00155884 0.04499989
v 0.00000037 0.00148863 0.04499989
v -0.00226229 -0.00008376 0.04726260
v -0.00880402 0.00155884 0.04499989
v 0.00880933 0.00156456 0.04499989
v 0.00875700 -0.00002978 0.04727172
v 0.00226307 -0.00008376 0.04726260
v 0.00880933 0.00156456 0.04499989
v 0.00226307 -0.00008376 0.04726260
v 0.00000037 0.00148863 0.04499989
v 0.00880933 0.00156456 0.04499989
v 0.00000037 0.00148863 0.04499989
v 0.00224817 -0.00007642 0.04275202
v 0.00875890 -0.00002876 0.04272788
v 0.00880933 0.00156456 0.04499989
v 0.00224817 -0.00007642 0.04275202
vn 0.95903614 0.08210643 0.27112400
vn 0.95903614 0.08210643 0.27112400
vn 0.95903614 0.08210643 0.27112400
vn 0.97072066 -0.02025090 -0.23935602
vn 0.97072066 -0.02025090 -0.23935602
vn 0.97072066 -0.02025090 -0.23935602
vn 0.35622920 0.02584627 -0.93404107
vn 0.35622920 0.02584627 -0.93404107
vn 0.35622920 0.02584627 -0.93404107
vn 0.21143095 0.06311221 -0.97535317
vn 0.21143095 0.06311221 -0.97535317
vn 0.21143095 0.06311221 -0.97535317
vn 0.59695167 -0.02077593 0.80200815
vn 0.59695167 -0.02077593 0.80200815
vn 0.59695167 -0.02077593 0.80200815
vn 0.89662083 0.08637241 -0.43429356
vn 0.89662083 0.08637241 -0.43429356
vn 0.89662083 0.08637241 -0.43429356
vn 0.82025752 -0.05457780 -0.56938463
vn 0.82025752 -0.05457780 -0.56938463
vn 0.82025752 -0.05457780 -0.56938463
vn 0.01863381 0.09480441 0.99532151
vn 0.01863381 0.09480441 0.99532151
vn 0.01863381 0.09480441 0.99532151
vn 0.35688877 0.17401035 -0.91779671
vn 0.35688877 0.17401035 -0.91779671
vn 0.35688877 0.17401035 -0.91779671
vn 0.60769884 0.08564765 0.78953569
vn 0.60769884 0.08564765 0.78953569
vn 0.60769884 0.08564765 0.78953569
vn 0.69395162 -0.02734738 0.71950209
vn 0.69395162 -0.02734738 0.71950209
vn 0.69395162 -0.02734738 0.71950209
vn 0.97926012 0.07403518 0.18859591
vn 0.97926012 0.07403518 0.18859591
vn 0.97926012 0.07403518 0.18859591
vn 0.99005972 0.03112251 0.13716098
vn 0.99005972 0.03112251 0.13716098
vn 0.99005972 0.03112251 0.13716098
vn -0.99792164 -0.03841309 -0.05173817
vn -0.99792164 -0.03841309 -0.05173817
vn -0.99792164 -0.03841309 -0.05173817
vn -0.95303509 0.15091545 -0.26258074
vn -0.95303509 0.15091545 -0.26258074
vn -0.95303509 0.15091545 -0.26258074
vn -0.24127899 0.07886842 0.96724569
vn -0.24127899 0.07886842 0.96724569
vn -0.24127899 0.07886842 0.96724569
vn -0.20285136 0.01913089 0.97902264
vn -0.20285136 0.01913089 0.97902264
vn -0.20285136 0.01913089 0.97902264
vn -0.80431260 -0.05649571 -0.59151456
vn -0.80431260 -0.05649571 -0.59151456
vn -0.80431260 -0.05649571 -0.59151456
vn -0.58807234 0.15000908 -0.79477557
vn -0.58807234 0.15000908 -0.79477557
vn -0.58807234 0.15000908 -0.79477557
vn -0.29379099 -0.05139691 -0.95448688
vn -0.29379099 -0.05139691 -0.95448688
vn -0.29379099 -0.05139691 -0.95448688
vn -0.00948887 0.14747172 -0.98902075
vn -0.00948887 0.14747172 -0.98902075
vn -0.00948887 0.14747172 -0.98902075
vn -0.84208978 0.00589818 0.53930512
vn -0.84208978 0.00589818 0.53930512
vn -0.84208978 0.00589818 0.53930512
vn -0.87655253 0.11555518 0.46722870
vn -0.87655253 0.11555518 0.46722870
vn -0.87655253 0.11555518 0.46722870
vn 0.00798958 -0.99993989 0.00750876
vn 0.00762432 -0.99994439 0.00728617
vn 0.00762432 -0.99994439 0.00728617
vn 0.00305431 -0.99995381 0.00911297
vn 0.00305431 -0.99995381 0.00911297
vn 0.00305431 -0.99995381 0.00911297
vn 0.01089312 -0.99993811 0.00226280
vn 0.01089312 -0.99993811 0.00226280
vn 0.01089312 -0.99993811 0.00226280
vn 0.00830212 -0.99993590 0.00769923
vn 0.00830212 -0.99993590 0.00769923
vn 0.00714024 -0.99995478 -0.00628181
vn 0.00729790 -0.99995462 -0.00612345
vn 0.00713965 -0.99995478 -0.00628240
vn 0.00698234 -0.99995488 -0.00644040
vn -0.01163430 -0.99990624 0.00722244
vn -0.01417766 -0.99987299 0.00727973
vn -0.01417766 -0.99987299 0.00727973
vn 0.00841077 -0.99977458 0.01949489
vn 0.00841077 -0.99977458 0.01949489
vn 0.00841077 -0.99977458 0.01949489
vn -0.01479830 -0.99985684 -0.00820385
vn -0.01479830 -0.99985684 -0.00820385
vn -0.01479830 -0.99985684 -0.00820385
vn -0.00842423 -0.99993895 0.00715006
vn -0.00842423 -0.99993895 0.00715006
vn -0.00833650 -0.99993814 -0.00736348
vn -0.00676314 -0.99996038 -0.00578751
vn -0.00834389 -0.99993802 -0.00737088
vn -0.00992690 -0.99991061 -0.00895653
vn 0.99962332 0.00550156 0.02688779
vn 0.99962332 0.00550156 0.02688779
vn 0.99962332 0.00550156 0.02688779
vn 0.99968950 -0.01244931 0.02158525
vn 0.99968950 -0.01244931 0.02158525
vn 0.99968950 -0.01244931 0.02158525
vn 0.99994073 -0.00419083 0.01004851
vn 0.99994073 -0.00419083 0.01004851
vn 0.99994073 -0.00419083 0.01004851
vn 0.99972013 -0.02283777 -0.00617273
vn 0.99972013 -0.02283777 -0.00617273
vn 0.99972013 -0.02283777 -0.00617273
vn 0.99983559 -0.01812693 0.00046085
vn 0.99983559 -0.01812693 0.00046085
vn 0.99983559 -0.01812693 0.00046085
vn -0.99983031 -0.00320646 0.01814022
vn -0.99983031 -0.00320646 0.01814022
vn -0.99983031 -0.00320646 0.01814022
vn -0.99972457 -0.01958154 0.01293633
vn -0.99972457 -0.01958154 0.01293633
vn -0.99972457 -0.01958154 0.01293633
vn -0.99983106 -0.01838054 0.00001614
vn -0.99979793 -0.01997761 -0.00223456
vn -0.99975289 -0.02172715 -0.00470037
vn -0.99985279 -0.01705382 0.00188570
vn -0.99990948 -0.01317106 0.00274979
vn -0.99990948 -0.01317106 0.00274979
vn -0.99990948 -0.01317106 0.00274979
vn -0.57504859 -0.81809329 0.00651836
vn -0.57510310 -0.81805519 0.00648993
vn -0.57508598 -0.81806716 0.00649886
vn -0.57503682 -0.81810152 0.00652449
vn -0.57493840 -0.81816473 -0.00723341
vn -0.57493840 -0.81816473 -0.00723341
vn -0.57493840 -0.81816473 -0.00723341
vn -0.57591038 -0.81748513 -0.00673038
vn -0.57591038 -0.81748513 -0.00673038
vn -0.57591038 -0.81748513 -0.00673038
vn 0.57505614 -0.81808799 0.00651832
vn 0.57504437 -0.81809620 0.00652445
vn 0.57509349 -0.81806188 0.00649884
vn 0.57511060 -0.81804992 0.00648992
vn 0.57608296 -0.81736353 -0.00672932
vn 0.57608296 -0.81736353 -0.00672932
vn 0.57608296 -0.81736353 -0.00672932
vn 0.57479584 -0.81826345 -0.00739416
vn 0.57479584 -0.81826345 -0.00739416
vn 0.57479584 -0.81826345 -0.00739416
vn -0.00246895 -0.01877265 -0.99982073
vn -0.00246895 -0.01877265 -0.99982073
vn -0.00246895 -0.01877265 -0.99982073
vn -0.00759138 -0.02241747 -0.99971987
vn -0.00759138 -0.02241747 -0.99971987
vn -0.00759138 -0.02241747 -0.99971987
vn 0.00743876 -0.02224389 -0.99972490
vn 0.00743876 -0.02224389 -0.99972490
vn 0.00743876 -0.02224389 -0.99972490
vn 0.00275747 -0.01890969 -0.99981739
vn 0.00275747 -0.01890969 -0.99981739
vn 0.00275747 -0.01890969 -0.99981739
vn -0.00000059 -0.01367619 -0.99990648
vn -0.00000059 -0.01367619 -0.99990648
vn -0.00000059 -0.01367619 -0.99990648
vn -0.00799358 -0.00745429 0.99994027
vn -0.00799358 -0.00745429 0.99994027
vn -0.00799358 -0.00745429 0.99994027
vn -0.02916070 -0.02195167 0.99933367
vn -0.02916070 -0.02195167 0.99933367
vn -0.02916070 -0.02195167 0.99933367
vn -0.04120116 0.02238471 0.99890009
vn -0.04120116 0.02238471 0.99890009
vn -0.04120116 0.02238471 0.99890009
vn 0.01158745 -0.01949021 0.99974290
vn 0.01159226 -0.01947543 0.99974313
vn 0.01142601 -0.01998589 0.99973497
vn 0.01162926 -0.01936183 0.99974491
vn -0.03927201 0.99882342 -0.02845130
vn -0.03811072 0.99887126 -0.02835108
vn -0.03978231 0.99880197 -0.02849533
vn -0.03750398 0.99889571 -0.02829871
vn 0.03617931 0.99934531 0.00000474
vn 0.03617931 0.99934531 0.00000474
vn 0.03617931 0.99934531 0.00000474
vn 0.01916463 0.99925856 0.03339226
vn 0.01916463 0.99925856 0.03339226
vn 0.01916463 0.99925856 0.03339226
vn -0.01105332 0.99979117 0.01718840
vn -0.01105332 0.99979117 0.01718840
vn -0.01105332 0.99979117 0.01718840
vn 0.00021233 0.99841186 -0.05633568
vn 0.00017523 0.99839976 -0.05654980
vn 0.00005300 0.99835957 -0.05725524
vn -0.01906327 0.99957410 0.02209566
vn -0.01906327 0.99957410 0.02209566
vn -0.01906327 0.99957410 0.02209566
vn 0.05577813 0.99844318 -0.00012147
vn 0.05577813 0.99844318 -0.00012147
vn 0.05577813 0.99844318 -0.00012147
vn 0.04558777 0.99895849 -0.00192315
vn 0.04558777 0.99895849 -0.00192315
vn 0.04558777 0.99895849 -0.00192315
vn -0.00005669 0.99841090 -0.05635316
vn -0.00040098 0.99852601 -0.05427387
vn -0.00040098 0.99852601 -0.05427387
vn -0.00040098 0.99852601 -0.05427387
vn -0.05498790 0.99848701 -0.00017422
vn -0.05289885 0.99859973 -0.00054266
vn -0.04591207 0.99894391 -0.00177458
vn -0.04532934 0.99897033 -0.00187731
vn -0.03216206 0.99944466 0.00871661
vn -0.03216206 0.99944466 0.00871661
vn -0.03216206 0.99944466 0.00871661
vn 0.04416411 0.99825961 0.03908039
vn 0.04416411 0.99825961 0.03908039
vn 0.04416411 0.99825961 0.03908039
vn 0.01356535 0.99975678 0.01738855
vn 0.01356535 0.99975678 0.01738855
vn 0.01356535 0.99975678 0.01738855
vn -0.02931141 0.99956638 0.00280797
vn -0.02931141 0.99956638 0.00280797
vn -0.02931141 0.99956638 0.00280797
vn -0.00064442 0.99961626 0.02769337
vn -0.00020848 0.99957497 0.02915193
vn -0.00084487 0.99963652 0.02694634
vn 0.02858106 0.99938999 0.02006928
vn 0.02858106 0.99938999 0.02006928
vn 0.02858106 0.99938999 0.02006928
vn -0.01975268 0.99814424 -0.05760134
vn -0.01975268 0.99814424 -0.05760134
vn -0.01975268 0.99814424 -0.05760134
vn 0.04956562 0.99856362 0.02034558
vn 0.04956562 0.99856362 0.02034558
vn 0.04956562 0.99856362 0.02034558
vn -0.01979968 0.99915583 -0.03599458
vn -0.01979968 0.99915583 -0.03599458
vn -0.01979968 0.99915583 -0.03599458
vn 0.03985200 0.99917550 0.00775432
vn 0.03985200 0.99917550 0.00775432
vn 0.03985200 0.99917550 0.00775432
vn 0.00011291 0.99953317 0.03055209
vn -0.03727671 0.99930498 0.00011535
vn -0.03727671 0.99930498 0.00011535
vn -0.03727671 0.99930498 0.00011535
vn 0.04896176 0.99880062 0.00027874
vn 0.04896176 0.99880062 0.00027874
vn 0.04896176 0.99880062 0.00027874
vn 0.00121764 0.99853336 -0.05412620
vn 0.00121764 0.99853336 -0.05412620
vn 0.00121764 0.99853336 -0.05412620
vn 0.01684238 0.99894323 -0.04276403
vn 0.01694200 0.99896377 -0.04224172
vn 0.01704639 0.99898499 -0.04169433
vn 0.01720292 0.99901623 -0.04087345
vn 0.04206742 0.99899389 -0.01554170
vn 0.03709973 0.99917604 -0.01645738
vn 0.03940361 0.99909474 -0.01603278
vn 0.00013383 0.99953023 0.03064797
vn -0.00011060 0.99999918 -0.00127299
vn 0.00015186 0.99999903 -0.00138202
vn -0.00024117 0.99999923 -0.00121874
vn 0.00125220 0.99999922 -0.00000387
vn 0.00125220 0.99999922 -0.00000387
vn 0.00125220 0.99999922 -0.00000387
vn 0.03529695 0.99923583 -0.01678954
vn -0.03649741 0.99847319 0.04146349
vn -0.03649741 0.99847319 0.04146349
vn -0.03649741 0.99847319 0.04146349
vn 0.03809117 0.99834313 -0.04312847
vn 0.03809117 0.99834313 -0.04312847
vn 0.03809117 0.99834313 -0.04312847
vn -0.00008064 0.99842382 -0.05612370
vn -0.00008064 0.99842382 -0.05612370
vn -0.00136916 0.99999902 0.00028522
vn -0.00131868 0.99999912 0.00016390
vn -0.00135215 0.99999906 0.00024433
vn -0.03209597 0.99923536 0.02232803
vn -0.03209597 0.99923536 0.02232803
vn -0.03209597 0.99923536 0.02232803
vn 0.03183652 0.99949241 0.00116767
vn 0.03183652 0.99949241 0.00116767
vn 0.03183652 0.99949241 0.00116767
vn -0.01954312 0.99872717 0.04649841
vn -0.01954312 0.99872717 0.04649841
vn -0.01954312 0.99872717 0.04649841
vn -0.04836992 0.99866867 0.01792329
vn -0.04836992 0.99866867 0.01792329
vn -0.04836992 0.99866867 0.01792329
vn 0.00270583 0.99972297 0.02338075
vn 0.00270583 0.99972297 0.02338075
vn 0.00270583 0.99972297 0.02338075
vn -0.00815082 0.99925497 0.03772365
vn -0.00815082 0.99925497 0.03772365
vn -0.00815082 0.99925497 0.03772365
vn 0.00134640 0.99999805 0.00144175
vn 0.00000685 0.99999961 0.00088587
vn 0.00089392 0.99999881 0.00125398
vn 0.00028527 0.99999893 -0.00143744
vn -0.00043403 0.99999966 0.00070291
vn -0.00159079 0.99997540 0.00683099
vn -0.00159079 0.99997540 0.00683099
vn -0.00159079 0.99997540 0.00683099
vn -0.04870877 0.99878472 0.00751946
vn -0.04870877 0.99878472 0.00751946
vn -0.04870877 0.99878472 0.00751946
vn 0.00027651 0.99877215 0.04953906
vn 0.00027651 0.99877215 0.04953906
vn 0.00027651 0.99877215 0.04953906
vn -0.00130196 0.99999914 0.00012371
vn -0.03348338 0.99943568 -0.00267925
vn -0.03348338 0.99943568 -0.00267925
vn -0.03348338 0.99943568 -0.00267925
vn 0.00933313 0.99961797 0.02601545
vn 0.00933313 0.99961797 0.02601545
vn 0.00933313 0.99961797 0.02601545
vn 0.01661452 0.99881962 0.04564353
vn 0.01661452 0.99881962 0.04564353
vn 0.01661452 0.99881962 0.04564353
vn 0.79717614 -0.00393408 0.60373398
vn 0.79717614 -0.00393408 0.60373398
vn 0.79717614 -0.00393408 0.60373398
vn 0.83717250 -0.02469770 0.54638103
vn 0.83717250 -0.02469770 0.54638103
vn 0.83717250 -0.02469770 0.54638103
vn 0.39075937 -0.02415143 0.92017597
vn 0.39075937 -0.02415143 0.92017597
vn 0.39075937 -0.02415143 0.92017597
vn 0.34918237 -0.01406285 0.93694926
vn 0.34918237 -0.01406285 0.93694926
vn 0.34918237 -0.01406285 0.93694926
vn -0.62075384 -0.02563334 0.78358637
vn -0.62075384 -0.02563334 0.78358637
vn -0.62075384 -0.02563334 0.78358637
vn -0.54250384 0.00106485 0.84005264
vn -0.54250384 0.00106485 0.84005264
vn -0.54250384 0.00106485 0.84005264
vn -0.91163742 -0.01610405 0.41067977
vn -0.91172767 -0.01615796 0.41047725
vn -0.91171011 -0.01614747 0.41051666
vn -0.91162212 -0.01609492 0.41071408
vn -0.99978838 0.02056244 -0.00061755
vn -0.99978944 0.02051250 -0.00055714
vn -0.99979332 0.02032734 -0.00033318
vn -0.99978453 0.02074139 -0.00083399
vn 0.01213768 0.02863381 -0.99951627
vn 0.01213768 0.02863381 -0.99951627
vn 0.01213768 0.02863381 -0.99951627
vn -0.00452102 0.02149773 -0.99975867
vn -0.00452102 0.02149773 -0.99975867
vn -0.00452102 0.02149773 -0.99975867
vn 0.33986141 0.02567468 -0.94012501
vn 0.33986141 0.02567468 -0.94012501
vn 0.33986141 0.02567468 -0.94012501
vn 0.40869542 0.01358357 -0.91256975
vn 0.40869542 0.01358357 -0.91256975
vn 0.40869542 0.01358357 -0.91256975
vn 0.69019807 0.03923425 -0.72255609
vn 0.69019807 0.03923425 -0.72255609
vn 0.69019807 0.03923425 -0.72255609
vn 0.85039648 -0.00201961 -0.52613852
vn 0.85039648 -0.00201961 -0.52613852
vn 0.85039648 -0.00201961 -0.52613852
vn 0.93514786 0.03258005 -0.35275633
vn 0.93514786 0.03258005 -0.35275633
vn 0.93514786 0.03258005 -0.35275633
vn 0.99974484 0.02257223 0.00086716
vn 0.99974484 0.02257223 0.00086716
vn 0.99974484 0.02257223 0.00086716
vn 0.99977342 0.02051984 0.00566020
vn 0.99977342 0.02051984 0.00566020
vn 0.99977342 0.02051984 0.00566020
vn -0.00002728 0.02085685 0.99978247
vn -0.00037065 0.02114095 0.99977644
vn -0.00029794 0.02108080 0.99977773
vn -0.00063241 0.02135754 0.99977170
vn 0.00689056 0.99997606 0.00062917
vn 0.00689056 0.99997606 0.00062917
vn 0.00689056 0.99997606 0.00062917
vn -0.00160925 0.99999729 0.00168519
vn 0.00005568 0.99999350 0.00360443
vn -0.00161583 0.99999773 0.00138858
vn -0.00284992 0.99999592 -0.00021103
vn -0.00249097 0.99999648 -0.00091709
vn -0.00006268 0.02145605 0.99976979
vn -0.00004554 0.02144189 0.99977010
vn 0.00001599 0.02139101 0.99977119
vn -0.00012624 0.02150860 0.99976866
vn -0.99974538 0.02247354 0.00202981
vn -0.99974538 0.02247354 0.00202981
vn -0.99974538 0.02247354 0.00202981
vn -0.99976867 0.02031026 0.00707827
vn -0.99976867 0.02031026 0.00707827
vn -0.99976867 0.02031026 0.00707827
vn -0.88119162 0.03637708 -0.47135766
vn -0.88119162 0.03637708 -0.47135766
vn -0.88119162 0.03637708 -0.47135766
vn -0.90052559 0.02349372 -0.43416784
vn -0.90052559 0.02349372 -0.43416784
vn -0.90052559 0.02349372 -0.43416784
vn -0.39851522 0.02665917 -0.91677419
vn -0.39851522 0.02665917 -0.91677419
vn -0.39851522 0.02665917 -0.91677419
vn -0.43442530 0.01646387 -0.90055738
vn -0.43442530 0.01646387 -0.90055738
vn -0.43442530 0.01646387 -0.90055738
vn 0.00219300 0.02091707 -0.99977881
vn 0.00277460 0.02066958 -0.99978251
vn 0.00189511 0.02104384 -0.99977676
vn 0.00309299 0.02053408 -0.99978437
vn 0.99979160 0.02041383 0.00019099
vn 0.99979307 0.02034051 0.00027970
vn 0.99978601 0.02068602 -0.00013834
vn 0.99979825 0.02007748 0.00059794
vn 0.00014799 0.99998592 0.00530499
vn 0.00014799 0.99998592 0.00530499
vn 0.00014799 0.99998592 0.00530499
vn 0.00539419 0.99998545 0.00005513
vn 0.00539419 0.99998545 0.00005513
vn 0.00539419 0.99998545 0.00005513
vn -0.01040939 0.99994582 0.00005769
vn -0.01040939 0.99994582 0.00005769
vn -0.01040939 0.99994582 0.00005769
vn 0.00021500 0.99994588 -0.01040111
vn 0.00021500 0.99994588 -0.01040111
vn 0.00021500 0.99994588 -0.01040111
vn 0.65655003 0.03311659 -0.75355514
vn 0.65655003 0.03311659 -0.75355514
vn 0.65655003 0.03311659 -0.75355514
vn 0.60747481 0.01186895 -0.79425027
vn 0.60747481 0.01186895 -0.79425027
vn 0.60747481 0.01186895 -0.79425027
vn 0.99897559 0.01611489 -0.04228561
vn 0.99897559 0.01611489 -0.04228561
vn 0.99897559 0.01611489 -0.04228561
vn 0.99870566 0.01904520 -0.04716240
vn 0.99870566 0.01904520 -0.04716240
vn 0.99870566 0.01904520 -0.04716240
vn 0.00448367 0.02152398 0.99975828
vn 0.00448367 0.02152398 0.99975828
vn 0.00448367 0.02152398 0.99975828
vn -0.01209440 0.02863095 0.99951688
vn -0.01209440 0.02863095 0.99951688
vn -0.01209440 0.02863095 0.99951688
vn -0.33973692 0.02573194 0.94016844
vn -0.33973692 0.02573194 0.94016844
vn -0.33973692 0.02573194 0.94016844
vn -0.40852241 0.01365196 0.91264619
vn -0.40852241 0.01365196 0.91264619
vn -0.40852241 0.01365196 0.91264619
vn -0.69017396 0.03932055 0.72257442
vn -0.69017396 0.03932055 0.72257442
vn -0.69017396 0.03932055 0.72257442
vn -0.85052488 -0.00196358 0.52593115
vn -0.85052488 -0.00196358 0.52593115
vn -0.85052488 -0.00196358 0.52593115
vn -0.93512239 0.03258042 0.35282380
vn -0.93512239 0.03258042 0.35282380
vn -0.93512239 0.03258042 0.35282380
vn -0.99977140 0.02059019 -0.00576062
vn -0.99977140 0.02059019 -0.00576062
vn -0.99977140 0.02059019 -0.00576062
vn -0.99974357 0.02262211 -0.00101688
vn -0.99974357 0.02262211 -0.00101688
vn -0.99974357 0.02262211 -0.00101688
vn 0.02380547 0.02594113 -0.99937999
vn 0.02380547 0.02594113 -0.99937999
vn 0.02380547 0.02594113 -0.99937999
vn 0.01404253 0.02096447 -0.99968160
vn 0.01404253 0.02096447 -0.99968160
vn 0.01404253 0.02096447 -0.99968160
vn 0.00246902 0.99999459 0.00217158
vn 0.00309913 0.99999183 0.00259684
vn 0.00152832 0.99999869 0.00053404
vn 0.00152384 0.99999837 0.00097220
vn -0.00049526 0.99999929 -0.00108569
vn -0.00553721 0.99997286 -0.00485983
vn -0.00553721 0.99997286 -0.00485983
vn -0.00553721 0.99997286 -0.00485983
vn -0.00256257 0.99999629 -0.00091872
vn -0.00256257 0.99999629 -0.00091872
vn -0.91397776 0.04413388 -0.40335697
vn -0.91397776 0.04413388 -0.40335697
vn -0.91397776 0.04413388 -0.40335697
vn -0.54425246 0.03845797 -0.83803952
vn -0.54425246 0.03845797 -0.83803952
vn -0.54425246 0.03845797 -0.83803952
vn -0.70847693 -0.00726726 -0.70569656
vn -0.70847693 -0.00726726 -0.70569656
vn -0.70847693 -0.00726726 -0.70569656
vn -0.02970111 0.02017721 -0.99935515
vn -0.02970111 0.02017721 -0.99935515
vn -0.02970111 0.02017721 -0.99935515
vn -0.01581084 0.01243316 -0.99979770
vn -0.01581084 0.01243316 -0.99979770
vn -0.01581084 0.01243316 -0.99979770
vn 0.99977094 0.02093334 -0.00445780
vn 0.99977094 0.02093334 -0.00445780
vn 0.99977094 0.02093334 -0.00445780
vn 0.99949799 0.02863961 0.01354807
vn 0.99949799 0.02863961 0.01354807
vn 0.99949799 0.02863961 0.01354807
vn 0.94011033 0.02569728 0.33990030
vn 0.94011033 0.02569728 0.33990030
vn 0.94011033 0.02569728 0.33990030
vn 0.91266415 0.01365140 0.40848230
vn 0.91266415 0.01365140 0.40848230
vn 0.91266415 0.01365140 0.40848230
vn 0.72255525 0.03932170 0.69019397
vn 0.72255525 0.03932170 0.69019397
vn 0.72255525 0.03932170 0.69019397
vn 0.52593304 -0.00196197 0.85052371
vn 0.52593304 -0.00196197 0.85052371
vn 0.52593304 -0.00196197 0.85052371
vn 0.35295562 0.03255448 0.93507355
vn 0.35295562 0.03255448 0.93507355
vn 0.35295562 0.03255448 0.93507355
vn -0.00206963 0.02257370 0.99974304
vn -0.00206963 0.02257370 0.99974304
vn -0.00206963 0.02257370 0.99974304
vn -0.00564568 0.02104030 0.99976269
vn -0.00564568 0.02104030 0.99976269
vn -0.00564568 0.02104030 0.99976269
vn -0.99995329 0.00751903 -0.00607341
vn -0.99995329 0.00751903 -0.00607341
vn -0.99995329 0.00751903 -0.00607341
vn -0.99937939 0.02016017 -0.02888586
vn -0.99937939 0.02016017 -0.02888586
vn -0.99937939 0.02016017 -0.02888586
vn 0.00138916 0.99999459 -0.00298020
vn 0.00125634 0.99999525 -0.00281292
vn 0.00135908 0.99999475 -0.00294232
vn 0.00149685 0.99999403 -0.00311584
vn -0.00487269 0.99997283 0.00553138
vn -0.00487269 0.99997283 0.00553138
vn -0.00487269 0.99997283 0.00553138
vn -0.00084610 0.99999768 0.00198104
vn -0.00084610 0.99999768 0.00198104
vn -0.00084610 0.99999768 0.00198104
vn -0.00750867 0.99991025 0.01109572
vn -0.00750867 0.99991025 0.01109572
vn -0.00750867 0.99991025 0.01109572
vn 0.01064921 0.99992429 -0.00616519
vn 0.01064921 0.99992429 -0.00616519
vn 0.01064921 0.99992429 -0.00616519
vn 0.00267868 0.99997202 0.00698475
vn 0.00232429 0.99997527 0.00663772
vn 0.00232429 0.99997527 0.00663772
vn 0.00807154 0.99996205 0.00327994
vn 0.00799507 0.99996288 0.00321362
vn 0.00822218 0.99996038 0.00341058
vn -0.00209811 0.99991397 -0.01294787
vn -0.00209811 0.99991397 -0.01294787
vn -0.00209811 0.99991397 -0.01294787
vn 0.00832131 0.99995926 0.00349655
vn -0.00497113 0.99991624 -0.01194956
vn -0.00497113 0.99991624 -0.01194956
vn -0.00497113 0.99991624 -0.01194956
vn 0.00306179 0.99996823 0.00735991
vn 0.00306179 0.99996823 0.00735991
vn 0.01082694 0.99987353 -0.01164938
vn 0.01082694 0.99987353 -0.01164938
vn 0.01082694 0.99987353 -0.01164938
vn -0.01527531 0.99986191 0.00654426
vn -0.01527531 0.99986191 0.00654426
vn -0.01527531 0.99986191 0.00654426
vn 0.01149670 0.99990992 -0.00692596
vn 0.01149670 0.99990992 -0.00692596
vn 0.01149670 0.99990992 -0.00692596
vn 0.02176780 0.99967593 -0.01319834
vn 0.02176780 0.99967593 -0.01319834
vn 0.02176780 0.99967593 -0.01319834
vn 0.00502334 0.99994323 -0.00939733
vn 0.00502334 0.99994323 -0.00939733
vn 0.00502334 0.99994323 -0.00939733
vn -0.00295080 0.99993141 -0.01133442
vn -0.00396042 0.99993576 -0.01062077
vn -0.00396042 0.99993576 -0.01062077
vn 0.01128565 0.99940182 -0.03269010
vn 0.01128565 0.99940182 -0.03269010
vn 0.01128565 0.99940182 -0.03269010
vn -0.00915972 0.99983046 0.01597334
vn -0.00915972 0.99983046 0.01597334
vn -0.00915972 0.99983046 0.01597334
vn -0.03489388 0.99937988 -0.00471950
vn -0.03489388 0.99937988 -0.00471950
vn -0.03489388 0.99937988 -0.00471950
vn 0.01799540 0.99983805 0.00018873
vn 0.01799540 0.99983805 0.00018873
vn 0.01799540 0.99983805 0.00018873
vn 0.00039461 0.99990609 -0.01369897
vn 0.00039461 0.99990609 -0.01369897
vn 0.97432752 0.02729059 0.22347509
vn 0.97432752 0.02729059 0.22347509
vn 0.97432752 0.02729059 0.22347509
vn 0.95579211 0.10723480 0.27379214
vn 0.95579211 0.10723480 0.27379214
vn 0.95579211 0.10723480 0.27379214
vn 0.33312689 -0.09748293 -0.93782917
vn 0.33312689 -0.09748293 -0.93782917
vn 0.33312689 -0.09748293 -0.93782917
vn 0.51962224 -0.01807119 0.85420499
vn 0.51962224 -0.01807119 0.85420499
vn 0.51962224 -0.01807119 0.85420499
vn 0.60772542 0.15775645 -0.77832045
vn 0.60772542 0.15775645 -0.77832045
vn 0.60772542 0.15775645 -0.77832045
vn 0.45441917 0.08754485 0.88647567
vn 0.45441917 0.08754485 0.88647567
vn 0.45441917 0.08754485 0.88647567
vn 0.91303740 -0.02738051 -0.40695580
vn 0.91303740 -0.02738051 -0.40695580
vn 0.91303740 -0.02738051 -0.40695580
vn 0.89923213 0.02167544 -0.43693450
vn 0.89923213 0.02167544 -0.43693450
vn 0.89923213 0.02167544 -0.43693450
vn -0.73164773 0.13901676 0.66735743
vn -0.73164773 0.13901676 0.66735743
vn -0.73164773 0.13901676 0.66735743
vn 0.02043499 -0.07851791 -0.99670324
vn 0.02043499 -0.07851791 -0.99670324
vn 0.02043499 -0.07851791 -0.99670324
vn -0.70624201 0.09078395 0.70212570
vn -0.70624201 0.09078395 0.70212570
vn -0.70624201 0.09078395 0.70212570
vn -0.34890183 0.13800069 -0.92694300
vn -0.34890183 0.13800069 -0.92694300
vn -0.34890183 0.13800069 -0.92694300
vn -0.10990131 -0.03246413 0.99341219
vn -0.10990131 -0.03246413 0.99341219
vn -0.10990131 -0.03246413 0.99341219
vn -0.69711295 -0.07611384 -0.71290968
vn -0.69711295 -0.07611384 -0.71290968
vn -0.69711295 -0.07611384 -0.71290968
vn -0.92023860 0.21708654 -0.32562916
vn -0.92023860 0.21708654 -0.32562916
vn -0.92023860 0.21708654 -0.32562916
vn -0.99504137 -0.09541576 0.02808041
vn -0.99504137 -0.09541576 0.02808041
vn -0.99504137 -0.09541576 0.02808041
vn -0.95902924 0.08209997 -0.27115036
vn -0.95902924 0.08209997 -0.27115036
vn -0.95902924 0.08209997 -0.27115036
vn -0.97071833 -0.02025794 0.23936486
vn -0.97071833 -0.02025794 0.23936486
vn -0.97071833 -0.02025794 0.23936486
vn -0.35623308 0.02584283 0.93403969
vn -0.35623308 0.02584283 0.93403969
vn -0.35623308 0.02584283 0.93403969
vn -0.21142991 0.06311029 0.97535352
vn -0.21142991 0.06311029 0.97535352
vn -0.21142991 0.06311029 0.97535352
vn -0.59697904 -0.02077855 -0.80198770
vn -0.59697904 -0.02077855 -0.80198770
vn -0.59697904 -0.02077855 -0.80198770
vn 0.24768132 0.96743773 0.05213632
vn 0.24768132 0.96743773 0.05213632
vn 0.24768132 0.96743773 0.05213632
vn -0.22156656 0.95207750 0.21084755
vn -0.22156656 0.95207750 0.21084755
vn -0.22156656 0.95207750 0.21084755
vn 0.00221129 0.98188521 0.18946386
vn 0.00221129 0.98188521 0.18946386
vn 0.00221129 0.98188521 0.18946386
vn 0.03615341 0.99485652 -0.09462259
vn 0.03615341 0.99485652 -0.09462259
vn 0.03615341 0.99485652 -0.09462259
vn -0.03969362 0.99779608 -0.05317334
vn -0.03969362 0.99779608 -0.05317334
vn -0.03969362 0.99779608 -0.05317334
vn 0.14930595 0.98805940 -0.03803092
vn 0.14930595 0.98805940 -0.03803092
vn 0.14930595 0.98805940 -0.03803092
vn 0.05739924 0.99800290 -0.02637295
vn 0.05739924 0.99800290 -0.02637295
vn 0.05739924 0.99800290 -0.02637295
vn 0.03953609 0.99426181 -0.09939999
vn 0.03953609 0.99426181 -0.09939999
vn 0.03953609 0.99426181 -0.09939999
vn 0.06770561 0.99439896 0.08115829
vn 0.06770561 0.99439896 0.08115829
vn 0.06770561 0.99439896 0.08115829
vn 0.05163744 0.99626383 0.06922391
vn 0.05163744 0.99626383 0.06922391
vn 0.05163744 0.99626383 0.06922391
vn -0.54207222 0.81726806 -0.19552655
vn -0.54207222 0.81726806 -0.19552655
vn -0.54207222 0.81726806 -0.19552655
vn -0.05317255 0.98830136 -0.14294441
vn -0.05317255 0.98830136 -0.14294441
vn -0.05317255 0.98830136 -0.14294441
vn -0.04292463 0.99900850 0.01181105
vn -0.04292463 0.99900850 0.01181105
vn -0.04292463 0.99900850 0.01181105
vn -0.03035115 0.99669872 0.07530252
vn -0.03035115 0.99669872 0.07530252
vn -0.03035115 0.99669872 0.07530252
vn 0.00001012 1.00000000 -0.00004757
vn 0.00029735 0.99999993 -0.00021988
vn 0.00001051 1.00000000 -0.00004780
vn -0.00027673 0.99999995 0.00012451
vn -0.00651918 -0.81746261 0.57594477
vn -0.00651918 -0.81746261 0.57594477
vn -0.00651918 -0.81746261 0.57594477
vn -0.00835467 -0.81994264 0.57238471
vn -0.00835467 -0.81994264 0.57238471
vn -0.00835467 -0.81994264 0.57238471
vn -0.00772882 -0.81971323 -0.57272199
vn -0.00772882 -0.81971323 -0.57272199
vn -0.00772882 -0.81971323 -0.57272199
vn -0.00652428 -0.81810263 -0.57503524
vn -0.00652428 -0.81810263 -0.57503524
vn -0.00652428 -0.81810263 -0.57503524
vn 0.00761194 -0.81860324 -0.57430897
vn 0.00761194 -0.81860324 -0.57430897
vn 0.00761194 -0.81860324 -0.57430897
vn 0.00705013 -0.81785124 -0.57538652
vn 0.00705013 -0.81785124 -0.57538652
vn 0.00705013 -0.81785124 -0.57538652
vn 0.00704574 -0.81734261 0.57610885
vn 0.00704574 -0.81734261 0.57610885
vn 0.00704574 -0.81734261 0.57610885
vn 0.00812268 -0.81879631 0.57402668
vn 0.00812268 -0.81879631 0.57402668
vn 0.00812268 -0.81879631 0.57402668
f 1//1 2//2 3//3
f 4//4 5//5 6//6
f 7//7 8//8 9//9
f 10//10 11//11 12//12
f 13//13 14//14 15//15
f 16//16 17//17 18//18
f 19//19 20//20 21//21
f 22//22 23//23 24//24
f 25//25 26//26 27//27
f 28//28 29//29 30//30
f 31//31 32//32 33//33
f 34//34 35//35 36//36
f 37//37 38//38 39//39
f 40//40 41//41 42//42
f 43//43 44//44 45//45
f 46//46 47//47 48//48
f 49//49 50//50 51//51
f 52//52 53//53 54//54
f 55//55 56//56 57//57
f 58//58 59//59 60//60
f 61//61 62//62 63//63
f 64//64 65//65 66//66
f 67//67 68//68 69//69
f 70//70 71//71 72//72
f 73//73 74//74 75//75
f 76//76 77//77 78//78
f 79//79 80//80 70//70
f 81//81 82//82 83//83
f 81//81 83//83 84//84
f 85//85 86//86 87//87
f 88//88 89//89 90//90
f 91//91 92//92 93//93
f 85//85 94//94 95//95
f 96//96 97//97 98//98
f 96//96 98//98 99//99
f 100//100 101//101 102//102
f 103//103 104//104 105//105
f 106//106 107//107 108//108
f 109//109 110//110 111//111
f 112//112 113//113 114//114
f 115//115 116//116 117//117
f 118//118 119//119 120//120
f 121//121 122//122 123//123
f 121//121 124//124 122//122
f 125//125 126//126 127//127
f 128//128 129//129 130//130
f 131//131 128//128 130//130
f 132//132 133//133 134//134
f 135//135 136//136 137//137
f 138//138 139//139 140//140
f 138//138 140//140 141//141
f 142//142 143//143 144//144
f 145//145 146//146 147//147
f 148//148 149//149 150//150
f 151//151 152//152 153//153
f 154//154 155//155 156//156
f 157//157 158//158 159//159
f 160//160 161//161 162//162
f 163//163 164//164 165//165
f 166//166 167//167 168//168
f 169//169 170//170 171//171
f 172//172 173//173 174//174
f 172//172 175//175 173//173
f 176//176 177//177 178//178
f 176//176 179//179 177//177
f 180//180 181//181 182//182
f 183//183 184//184 185//185
f 186//186 187//187 188//188
f 189//189 190//190 191//191
f 192//192 193//193 194//194
f 195//195 196//196 197//197
f 198//198 199//199 200//200
f 190//190 201//201 191//191
f 202//202 203//203 204//204
f 205//205 206//206 207//207
f 207//207 206//206 208//208
f 209//209 210//210 211//211
f 212//212 213//213 214//214
f 215//215 216//216 217//217
f 218//218 219//219 220//220
f 221//221 222//222 223//223
f 224//224 225//225 226//226
f 227//227 228//228 229//229
f 230//230 231//231 232//232
f 233//233 234//234 235//235
f 236//236 237//237 238//238
f 221//221 239//239 222//222
f 240//240 241//241 242//242
f 243//243 244//244 245//245
f 246//246 247//247 248//248
f 249//249 250//250 251//251
f 251//251 250//250 252//252
f 253//253 254//254 255//255
f 221//221 256//256 239//239
f 257//257 258//258 259//259
f 260//260 261//261 262//262
f 255//255 254//254 263//263
f 264//264 265//265 266//266
f 267//267 268//268 269//269
f 270//270 271//271 201//201
f 272//272 273//273 274//274
f 275//275 276//276 277//277
f 278//278 279//279 280//280
f 281//281 282//282 283//283
f 284//284 285//285 286//286
f 287//287 288//288 289//289
f 290//290 291//291 292//292
f 293//293 294//294 295//295
f 257//257 296//296 258//258
f 295//295 294//294 297//297
f 298//298 299//299 300//300
f 301//301 302//302 303//303
f 304//304 305//305 306//306
f 273//273 307//307 274//274
f 308//308 309//309 310//310
f 311//311 312//312 313//313
f 314//314 315//315 316//316
f 317//317 318//318 319//319
f 320//320 321//321 322//322
f 323//323 324//324 325//325
f 326//326 327//327 328//328
f 329//329 330//330 331//331
f 332//332 333//333 334//334
f 335//335 336//336 337//337
f 338//338 335//335 337//337
f 339//339 340//340 341//341
f 342//342 340//340 339//339
f 343//343 344//344 345//345
f 346//346 347//347 348//348
f 349//349 350//350 351//351
f 352//352 353//353 354//354
f 355//355 356//356 357//357
f 358//358 359//359 360//360
f 361//361 362//362 363//363
f 364//364 365//365 366//366
f 367//367 368//368 369//369
f 370//370 371//371 372//372
f 372//372 371//371 373//373
f 374//374 375//375 376//376
f 377//377 378//378 379//379
f 380//380 379//379 381//381
f 380//380 377//377 379//379
f 382//382 383//383 384//384
f 385//385 383//383 382//382
f 386//386 387//387 388//388
f 389//389 390//390 391//391
f 392//392 393//393 394//394
f 395//395 396//396 397//397
f 398//398 399//399 400//400
f 401//401 402//402 403//403
f 404//404 405//405 406//406
f 404//404 407//407 405//405
f 408//408 409//409 410//410
f 408//408 411//411 409//409
f 412//412 413//413 414//414
f 415//415 416//416 417//417
f 418//418 419//419 420//420
f 421//421 422//422 423//423
f 424//424 425//425 426//426
f 427//427 428//428 429//429
f 430//430 431//431 432//432
f 433//433 434//434 435//435
f 436//436 437//437 438//438
f 439//439 440//440 441//441
f 442//442 443//443 444//444
f 445//445 446//446 447//447
f 448//448 449//449 450//450
f 451//451 452//452 453//453
f 454//454 455//455 456//456
f 457//457 458//458 459//459
f 460//460 461//461 462//462
f 463//463 464//464 465//465
f 466//466 467//467 468//468
f 469//469 470//470 471//471
f 472//472 469//469 471//471
f 473//473 472//472 471//471
f 474//474 475//475 476//476
f 477//477 478//478 473//473
f 479//479 480//480 481//481
f 482//482 483//483 484//484
f 485//485 486//486 487//487
f 488//488 489//489 490//490
f 491//491 492//492 493//493
f 494//494 495//495 496//496
f 497//497 498//498 499//499
f 500//500 501//501 502//502
f 503//503 504//504 505//505
f 506//506 507//507 508//508
f 509//509 510//510 511//511
f 512//512 513//513 514//514
f 515//515 516//516 517//517
f 518//518 519//519 520//520
f 521//521 522//522 523//523
f 524//524 525//525 526//526
f 527//527 528//528 529//529
f 527//527 529//529 530//530
f 531//531 532//532 533//533
f 534//534 535//535 536//536
f 537//537 538//538 539//539
f 540//540 541//541 542//542
f 543//543 544//544 545//545
f 546//546 547//547 548//548
f 549//549 550//550 551//551
f 552//552 546//546 548//548
f 553//553 554//554 555//555
f 556//556 557//557 543//543
f 558//558 559//559 560//560
f 561//561 562//562 563//563
f 564//564 565//565 566//566
f 567//567 568//568 569//569
f 570//570 571//571 572//572
f 573//573 574//574 575//575
f 576//576 577//577 578//578
f 579//579 580//580 581//581
f 582//582 583//583 584//584
f 585//585 586//586 587//587
f 588//588 589//589 573//573
f 590//590 591//591 592//592
f 593//593 594//594 595//595
f 596//596 597//597 598//598
f 599//599 600//600 601//601
f 602//602 603//603 604//604
f 605//605 606//606 607//607
f 608//608 609//609 610//610
f 611//611 612//612 613//613
f 614//614 615//615 616//616
f 617//617 618//618 619//619
f 620//620 621//621 622//622
f 623//623 624//624 625//625
f 626//626 627//627 628//628
f 629//629 630//630 631//631
f 632//632 633//633 634//634
f 635//635 636//636 637//637
f 638//638 639//639 640//640
f 641//641 642//642 643//643
f 644//644 645//645 646//646
f 647//647 648//648 649//649
f 650//650 651//651 652//652
f 653//653 654//654 655//655
f 656//656 657//657 658//658
f 659//659 660//660 661//661
f 662//662 663//663 664//664
f 665//665 666//666 667//667
f 668//668 669//669 670//670
f 671//671 672//672 673//673
f 674//674 675//675 676//676
f 677//677 678//678 679//679
f 680//680 681//681 682//682
f 683//683 684//684 685//685
f 686//686 687//687 688//688
f 689//689 690//690 691//691
f 692//692 693//693 694//694
f 695//695 696//696 697//697
f 695//695 697//697 698//698
f 699//699 700//700 701//701
f 702//702 703//703 704//704
f 705//705 706//706 707//707
f 708//708 709//709 710//710
f 711//711 712//712 713//713
f 714//714 715//715 716//716
f 717//717 718//718 719//719
f 720//720 721//721 722//722

