# https://github.com/mikedh/trimesh
v 0.07632845 0.07967185 -0.00098633
v 0.07899761 0.07911002 -0.00085907
v 0.07872545 0.07891976 -0.00100111
v 0.07639479 0.08001273 -0.00077742
v 0.07899761 0.07911002 -0.00085907
v 0.07632845 0.07967185 -0.00098633
v 0.07899761 0.07911002 -0.00085907
v 0.07639479 0.08001273 -0.00077742
v 0.07781928 0.07978677 -0.00049721
v 0.07781928 0.07978677 -0.00049721
v 0.07907110 0.07950097 -0.00018042
v 0.07908368 0.07934355 -0.00059205
v 0.07908368 0.07934355 -0.00059205
v 0.07899761 0.07911002 -0.00085907
v 0.07781928 0.07978677 -0.00049721
v 0.07656472 0.08026558 -0.00026798
v 0.07781928 0.07978677 -0.00049721
v 0.07639479 0.08001273 -0.00077742
v 0.07781928 0.07978677 -0.00049721
v 0.07656472 0.08026558 -0.00026798
v 0.07907110 0.07950097 -0.00018042
v 0.07951480 0.07898408 -0.00053488
v 0.07908368 0.07934355 -0.00059205
v 0.07935029 0.07930260 -0.00031304
v 0.07899761 0.07911002 -0.00085907
v 0.07908368 0.07934355 -0.00059205
v 0.07951480 0.07898408 -0.00053488
v 0.07902061 0.07938212 0.00056577
v 0.07912528 0.07916682 0.00077976
v 0.07923448 0.07942622 0.00023396
v 0.07922577 0.07877844 0.00088979
v 0.07912528 0.07916682 0.00077976
v 0.07878780 0.07890129 0.00100083
v 0.07923448 0.07942622 0.00023396
v 0.07963049 0.07905894 0.00011117
v 0.07935029 0.07930260 -0.00031304
v 0.07922577 0.07877844 0.00088979
v 0.07950264 0.07870566 0.00068427
v 0.07912528 0.07916682 0.00077976
v 0.07907110 0.07950097 -0.00018042
v 0.07923448 0.07942622 0.00023396
v 0.07935029 0.07930260 -0.00031304
v 0.07935029 0.07930260 -0.00031304
v 0.07908368 0.07934355 -0.00059205
v 0.07907110 0.07950097 -0.00018042
v 0.07969194 0.07864075 0.00031520
v 0.07963049 0.07905894 0.00011117
v 0.07950264 0.07870566 0.00068427
v 0.07950264 0.07870566 0.00068427
v 0.07963049 0.07905894 0.00011117
v 0.07912528 0.07916682 0.00077976
v 0.07972109 0.07863068 -0.00020521
v 0.07963049 0.07905894 0.00011117
v 0.07969194 0.07864075 0.00031520
v 0.07963049 0.07905894 0.00011117
v 0.07923448 0.07942622 0.00023396
v 0.07912528 0.07916682 0.00077976
v 0.07972109 0.07863068 -0.00020521
v 0.07951480 0.07898408 -0.00053488
v 0.07963049 0.07905894 0.00011117
v 0.07947653 0.07870191 -0.00068568
v 0.07951480 0.07898408 -0.00053488
v 0.07972109 0.07863068 -0.00020521
v 0.07911461 0.07881081 -0.00093781
v 0.07951480 0.07898408 -0.00053488
v 0.07947653 0.07870191 -0.00068568
v 0.07911461 0.07881081 -0.00093781
v 0.07899761 0.07911002 -0.00085907
v 0.07951480 0.07898408 -0.00053488
v 0.07951480 0.07898408 -0.00053488
v 0.07935029 0.07930260 -0.00031304
v 0.07963049 0.07905894 0.00011117
v 0.07872545 0.07891976 -0.00100111
v 0.07899761 0.07911002 -0.00085907
v 0.07911461 0.07881081 -0.00093781
v 0.07912528 0.07916682 0.00077976
v 0.07902061 0.07938212 0.00056577
v 0.07787930 0.07947015 0.00084687
v 0.07878780 0.07890129 0.00100083
v 0.07787930 0.07947015 0.00084687
v 0.07651311 0.07990401 0.00084764
v 0.07651311 0.07990401 0.00084764
v 0.07787930 0.07947015 0.00084687
v 0.07787936 0.07977932 0.00046921
v 0.07652330 0.08028191 0.00016917
v 0.07787936 0.07977932 0.00046921
v 0.07907110 0.07950097 -0.00018042
v 0.07787930 0.07947015 0.00084687
v 0.07902061 0.07938212 0.00056577
v 0.07787936 0.07977932 0.00046921
v 0.07878780 0.07890129 0.00100083
v 0.07651311 0.07990401 0.00084764
v 0.07640188 0.07964777 0.00099487
v 0.07787936 0.07977932 0.00046921
v 0.07923448 0.07942622 0.00023396
v 0.07907110 0.07950097 -0.00018042
v 0.07912528 0.07916682 0.00077976
v 0.07787930 0.07947015 0.00084687
v 0.07878780 0.07890129 0.00100083
v 0.07902061 0.07938212 0.00056577
v 0.07923448 0.07942622 0.00023396
v 0.07787936 0.07977932 0.00046921
v 0.07670551 0.08011454 0.00053430
v 0.07651311 0.07990401 0.00084764
v 0.07787936 0.07977932 0.00046921
v 0.07652330 0.08028191 0.00016917
v 0.07670551 0.08011454 0.00053430
v 0.07787936 0.07977932 0.00046921
v 0.07620370 0.08010452 0.00062395
v 0.07652330 0.08028191 0.00016917
v 0.07604998 0.08025538 0.00012089
v 0.07651311 0.07990401 0.00084764
v 0.07670551 0.08011454 0.00053430
v 0.07620370 0.08010452 0.00062395
v 0.07620370 0.08010452 0.00062395
v 0.07670551 0.08011454 0.00053430
v 0.07652330 0.08028191 0.00016917
v 0.07605254 0.08015400 -0.00046288
v 0.07656472 0.08026558 -0.00026798
v 0.07639479 0.08001273 -0.00077742
v 0.07558435 0.07991814 -0.00013589
v 0.07604998 0.08025538 0.00012089
v 0.07605254 0.08015400 -0.00046288
v 0.07562881 0.07990318 0.00035102
v 0.07604998 0.08025538 0.00012089
v 0.07558435 0.07991814 -0.00013589
v 0.07562881 0.07990318 0.00035102
v 0.07620370 0.08010452 0.00062395
v 0.07604998 0.08025538 0.00012089
v 0.07605254 0.08015400 -0.00046288
v 0.07604998 0.08025538 0.00012089
v 0.07656472 0.08026558 -0.00026798
v 0.07656472 0.08026558 -0.00026798
v 0.07604998 0.08025538 0.00012089
v 0.07652330 0.08028191 0.00016917
v 0.07579869 0.07984238 -0.00065761
v 0.07639479 0.08001273 -0.00077742
v 0.07632845 0.07967185 -0.00098633
v 0.07579869 0.07984238 -0.00065761
v 0.07605254 0.08015400 -0.00046288
v 0.07639479 0.08001273 -0.00077742
v 0.07579869 0.07984238 -0.00065761
v 0.07558435 0.07991814 -0.00013589
v 0.07605254 0.08015400 -0.00046288
v 0.07596909 0.07978838 0.00081361
v 0.07620370 0.08010452 0.00062395
v 0.07562881 0.07990318 0.00035102
v 0.07640188 0.07964777 0.00099487
v 0.07651311 0.07990401 0.00084764
v 0.07596909 0.07978838 0.00081361
v 0.07596909 0.07978838 0.00081361
v 0.07651311 0.07990401 0.00084764
v 0.07620370 0.08010452 0.00062395
v 0.07656472 0.08026558 -0.00026798
v 0.07652330 0.08028191 0.00016917
v 0.07907110 0.07950097 -0.00018042
vn 0.13824909 0.45787397 -0.87820192
vn 0.13824909 0.45787397 -0.87820192
vn 0.13824909 0.45787397 -0.87820192
vn 0.14527186 0.49628513 -0.85591890
vn 0.14527186 0.49628513 -0.85591890
vn 0.14527186 0.49628513 -0.85591890
vn 0.24029279 0.74872425 -0.61779557
vn 0.24029279 0.74872425 -0.61779557
vn 0.24029279 0.74872425 -0.61779557
vn 0.28935991 0.89698583 -0.33419644
vn 0.28935991 0.89698583 -0.33419644
vn 0.28935991 0.89698583 -0.33419644
vn 0.19637133 0.70583758 -0.68061120
vn 0.19637133 0.70583758 -0.68061120
vn 0.19637133 0.70583758 -0.68061120
vn 0.23008875 0.83896328 -0.49315290
vn 0.23008875 0.83896328 -0.49315290
vn 0.23008875 0.83896328 -0.49315290
vn 0.28678888 0.90367364 -0.31800330
vn 0.28678888 0.90367364 -0.31800330
vn 0.28678888 0.90367364 -0.31800330
vn 0.59899624 0.64235511 -0.47810398
vn 0.59899624 0.64235511 -0.47810398
vn 0.59899624 0.64235511 -0.47810398
vn 0.53721890 0.54144916 -0.64670601
vn 0.53721890 0.54144916 -0.64670601
vn 0.53721890 0.54144916 -0.64670601
vn 0.54609981 0.70898718 0.44621987
vn 0.54609981 0.70898718 0.44621987
vn 0.54609981 0.70898718 0.44621987
vn 0.31855946 0.33377146 0.88719585
vn 0.31855946 0.33377146 0.88719585
vn 0.31855946 0.33377146 0.88719585
vn 0.67592880 0.73659664 -0.02335932
vn 0.67592880 0.73659664 -0.02335932
vn 0.67592880 0.73659664 -0.02335932
vn 0.61536595 0.35815287 0.70217610
vn 0.61536595 0.35815287 0.70217610
vn 0.61536595 0.35815287 0.70217610
vn 0.55561113 0.82852336 -0.06960829
vn 0.55561113 0.82852336 -0.06960829
vn 0.55561113 0.82852336 -0.06960829
vn 0.45002989 0.83860076 -0.30695582
vn 0.45002989 0.83860076 -0.30695582
vn 0.45002989 0.83860076 -0.30695582
vn 0.86547684 0.31659329 0.38822485
vn 0.86547684 0.31659329 0.38822485
vn 0.86547684 0.31659329 0.38822485
vn 0.72834991 0.49870422 0.46989414
vn 0.72834991 0.49870422 0.46989414
vn 0.72834991 0.49870422 0.46989414
vn 0.98409575 0.16990584 0.05184173
vn 0.98409575 0.16990584 0.05184173
vn 0.98409575 0.16990584 0.05184173
vn 0.68366094 0.59659964 0.42032914
vn 0.68366094 0.59659964 0.42032914
vn 0.68366094 0.59659964 0.42032914
vn 0.91632278 0.34457765 -0.20400686
vn 0.91632278 0.34457765 -0.20400686
vn 0.91632278 0.34457765 -0.20400686
vn 0.89216667 0.11275039 -0.43740825
vn 0.89216667 0.11275039 -0.43740825
vn 0.89216667 0.11275039 -0.43740825
vn 0.60449060 0.31014904 -0.73375656
vn 0.60449060 0.31014904 -0.73375656
vn 0.60449060 0.31014904 -0.73375656
vn 0.55417942 0.40768069 -0.72572835
vn 0.55417942 0.40768069 -0.72572835
vn 0.55417942 0.40768069 -0.72572835
vn 0.80218135 0.55950417 -0.20847101
vn 0.80218135 0.55950417 -0.20847101
vn 0.80218135 0.55950417 -0.20847101
vn 0.24175372 0.33425878 -0.91094797
vn 0.24175372 0.33425878 -0.91094797
vn 0.24175372 0.33425878 -0.91094797
vn 0.21430903 0.73900457 0.63870485
vn 0.21430903 0.73900457 0.63870485
vn 0.21430903 0.73900457 0.63870485
vn 0.15196763 0.47699293 0.86566944
vn 0.15196763 0.47699293 0.86566944
vn 0.15196763 0.47699293 0.86566944
vn 0.23895319 0.75134744 0.61512470
vn 0.23895319 0.75134744 0.61512470
vn 0.23895319 0.75134744 0.61512470
vn 0.30984664 0.93593589 0.16738900
vn 0.30984664 0.93593589 0.16738900
vn 0.30984664 0.93593589 0.16738900
vn 0.21085207 0.75636906 0.61923118
vn 0.21085207 0.75636906 0.61923118
vn 0.21085207 0.75636906 0.61923118
vn 0.13788312 0.44775971 0.88345882
vn 0.13788312 0.44775971 0.88345882
vn 0.13788312 0.44775971 0.88345882
vn 0.26288172 0.96228970 0.06994088
vn 0.26288172 0.96228970 0.06994088
vn 0.26288172 0.96228970 0.06994088
vn 0.16684693 0.49694570 0.85159091
vn 0.16684693 0.49694570 0.85159091
vn 0.16684693 0.49694570 0.85159091
vn 0.28953340 0.90656209 0.30710843
vn 0.28953340 0.90656209 0.30710843
vn 0.28953340 0.90656209 0.30710843
vn 0.24368311 0.72912985 0.63952186
vn 0.24368311 0.72912985 0.63952186
vn 0.24368311 0.72912985 0.63952186
vn 0.27787163 0.91822238 0.28223222
vn 0.27787163 0.91822238 0.28223222
vn 0.27787163 0.91822238 0.28223222
vn -0.08469174 0.94700007 0.30986800
vn -0.08469174 0.94700007 0.30986800
vn -0.08469174 0.94700007 0.30986800
vn 0.08994266 0.80023777 0.59289951
vn 0.08994266 0.80023777 0.59289951
vn 0.08994266 0.80023777 0.59289951
vn 0.05215806 0.91741439 0.39450015
vn 0.05215806 0.91741439 0.39450015
vn 0.05215806 0.91741439 0.39450015
vn -0.02985330 0.89926897 -0.43637609
vn -0.02985330 0.89926897 -0.43637609
vn -0.02985330 0.89926897 -0.43637609
vn -0.52537312 0.83793356 -0.14781894
vn -0.52537312 0.83793356 -0.14781894
vn -0.52537312 0.83793356 -0.14781894
vn -0.61330521 0.78576971 0.08014166
vn -0.61330521 0.78576971 0.08014166
vn -0.61330521 0.78576971 0.08014166
vn -0.46153985 0.80102250 0.38123997
vn -0.46153985 0.80102250 0.38123997
vn -0.46153985 0.80102250 0.38123997
vn -0.14762840 0.97434845 -0.16985568
vn -0.14762840 0.97434845 -0.16985568
vn -0.14762840 0.97434845 -0.16985568
vn -0.05162884 0.99777565 -0.04216880
vn -0.05162884 0.99777565 -0.04216880
vn -0.05162884 0.99777565 -0.04216880
vn -0.31145744 0.53987253 -0.78200506
vn -0.31145744 0.53987253 -0.78200506
vn -0.31145744 0.53987253 -0.78200506
vn -0.32612581 0.67758348 -0.65918327
vn -0.32612581 0.67758348 -0.65918327
vn -0.32612581 0.67758348 -0.65918327
vn -0.60557192 0.71351284 -0.35239477
vn -0.60557192 0.71351284 -0.35239477
vn -0.60557192 0.71351284 -0.35239477
vn -0.49380675 0.68658026 0.53363136
vn -0.49380675 0.68658026 0.53363136
vn -0.49380675 0.68658026 0.53363136
vn -0.16719149 0.54474185 0.82176841
vn -0.16719149 0.54474185 0.82176841
vn -0.16719149 0.54474185 0.82176841
vn -0.17622410 0.59925985 0.78091785
vn -0.17622410 0.59925985 0.78091785
vn -0.17622410 0.59925985 0.78091785
vn 0.29203769 0.95637289 -0.00805546
vn 0.29203769 0.95637289 -0.00805546
vn 0.29203769 0.95637289 -0.00805546
f 1//1 2//2 3//3
f 4//4 5//5 6//6
f 7//7 8//8 9//9
f 10//10 11//11 12//12
f 13//13 14//14 15//15
f 16//16 17//17 18//18
f 19//19 20//20 21//21
f 22//22 23//23 24//24
f 25//25 26//26 27//27
f 28//28 29//29 30//30
f 31//31 32//32 33//33
f 34//34 35//35 36//36
f 37//37 38//38 39//39
f 40//40 41//41 42//42
f 43//43 44//44 45//45
f 46//46 47//47 48//48
f 49//49 50//50 51//51
f 52//52 53//53 54//54
f 55//55 56//56 57//57
f 58//58 59//59 60//60
f 61//61 62//62 63//63
f 64//64 65//65 66//66
f 67//67 68//68 69//69
f 70//70 71//71 72//72
f 73//73 74//74 75//75
f 76//76 77//77 78//78
f 79//79 80//80 81//81
f 82//82 83//83 84//84
f 85//85 86//86 87//87
f 88//88 89//89 90//90
f 91//91 92//92 93//93
f 94//94 95//95 96//96
f 97//97 98//98 99//99
f 100//100 101//101 102//102
f 103//103 104//104 105//105
f 106//106 107//107 108//108
f 109//109 110//110 111//111
f 112//112 113//113 114//114
f 115//115 116//116 117//117
f 118//118 119//119 120//120
f 121//121 122//122 123//123
f 124//124 125//125 126//126
f 127//127 128//128 129//129
f 130//130 131//131 132//132
f 133//133 134//134 135//135
f 136//136 137//137 138//138
f 139//139 140//140 141//141
f 142//142 143//143 144//144
f 145//145 146//146 147//147
f 148//148 149//149 150//150
f 151//151 152//152 153//153
f 154//154 155//155 156//156

