# https://github.com/mikedh/trimesh
v -0.02305221 -0.07629716 0.06508547
v -0.02339679 -0.07574391 0.06489849
v -0.02408146 -0.07612359 0.06442826
v -0.02339679 -0.07574391 0.06489849
v -0.02305221 -0.07629716 0.06508547
v -0.02331507 -0.07576447 0.06530714
v -0.02305221 -0.07629716 0.06508547
v -0.02362507 -0.07570111 0.06567037
v -0.02331507 -0.07576447 0.06530714
v -0.02351683 -0.07625377 0.06599456
v -0.02362507 -0.07570111 0.06567037
v -0.02305221 -0.07629716 0.06508547
v -0.02385795 -0.07567971 0.06475472
v -0.02408146 -0.07612359 0.06442826
v -0.02339679 -0.07574391 0.06489849
v -0.02454090 -0.07606053 0.06544870
v -0.02402192 -0.07564109 0.06556254
v -0.02351683 -0.07625377 0.06599456
v -0.02351683 -0.07625377 0.06599456
v -0.02402192 -0.07564109 0.06556254
v -0.02362507 -0.07570111 0.06567037
v -0.02402192 -0.07564109 0.06556254
v -0.02454090 -0.07606053 0.06544870
v -0.02420240 -0.07563090 0.06519550
v -0.02420240 -0.07563090 0.06519550
v -0.02408146 -0.07612359 0.06442826
v -0.02385795 -0.07567971 0.06475472
v -0.02408146 -0.07612359 0.06442826
v -0.02420240 -0.07563090 0.06519550
v -0.02454090 -0.07606053 0.06544870
v -0.02249485 -0.07637858 0.06396138
v -0.02189064 -0.07643151 0.06439507
v -0.02305221 -0.07629716 0.06508547
v -0.02829200 -0.07545769 0.06080776
v -0.02784729 -0.07552057 0.06209981
v -0.02918523 -0.07528990 0.06264072
v -0.02638268 -0.07576453 0.06046265
v -0.02735728 -0.07560676 0.06064230
v -0.02590465 -0.07585179 0.05945402
v -0.02599853 -0.07586067 0.06653678
v -0.02734243 -0.07559633 0.06613433
v -0.02677989 -0.07569605 0.06579089
v -0.02619308 -0.07579511 0.06321024
v -0.02635037 -0.07577031 0.06501448
v -0.02739566 -0.07560032 0.06378275
v -0.02546459 -0.07591301 0.06376361
v -0.02554655 -0.07589846 0.06503456
v -0.02677989 -0.07569605 0.06579089
v -0.02734243 -0.07559633 0.06613433
v -0.02711308 -0.07560843 0.06537377
v -0.02408146 -0.07612359 0.06442826
v -0.02454090 -0.07606053 0.06544870
v -0.02554655 -0.07589846 0.06503456
v -0.02619308 -0.07579511 0.06321024
v -0.02739566 -0.07560032 0.06378275
v -0.02782183 -0.07552295 0.06283181
v -0.02836573 -0.07544660 0.06434917
v -0.02767962 -0.07551705 0.06472885
v -0.02851742 -0.07539165 0.06497490
v -0.02546459 -0.07591301 0.06376361
v -0.02408146 -0.07612359 0.06442826
v -0.02554655 -0.07589846 0.06503456
v -0.02619308 -0.07579511 0.06321024
v -0.02782183 -0.07552295 0.06283181
v -0.02784729 -0.07552057 0.06209981
v -0.02379536 -0.07616984 0.06182277
v -0.02352732 -0.07622021 0.06325566
v -0.02468442 -0.07603263 0.06293314
v -0.02379536 -0.07616984 0.06182277
v -0.02571821 -0.07585895 0.06222915
v -0.02542155 -0.07591414 0.06102228
v -0.02571821 -0.07585895 0.06222915
v -0.02784729 -0.07552057 0.06209981
v -0.02784729 -0.07552057 0.06209981
v -0.02688449 -0.07567942 0.06143891
v -0.02427035 -0.07610642 0.06084203
v -0.02195113 -0.07651716 0.06288492
v -0.02189064 -0.07643151 0.06439507
v -0.02249485 -0.07637858 0.06396138
v -0.02379536 -0.07616984 0.06182277
v -0.02275240 -0.07635235 0.06242853
v -0.02352732 -0.07622021 0.06325566
v -0.02468442 -0.07603263 0.06293314
v -0.02635037 -0.07577031 0.06501448
v -0.02677989 -0.07569605 0.06579089
v -0.02711308 -0.07560843 0.06537377
v -0.02739566 -0.07560032 0.06378275
v -0.02739566 -0.07560032 0.06378275
v -0.02711308 -0.07560843 0.06537377
v -0.02767962 -0.07551705 0.06472885
v -0.02427035 -0.07610642 0.06084203
v -0.02542155 -0.07591414 0.06102228
v -0.02494066 -0.07599610 0.06000328
v -0.02635037 -0.07577031 0.06501448
v -0.02782183 -0.07552295 0.06283181
v -0.02890890 -0.07536238 0.06345701
v -0.02918523 -0.07528990 0.06264072
v -0.02275854 -0.07635438 0.06114310
v -0.02275240 -0.07635235 0.06242853
v -0.02379536 -0.07616984 0.06182277
v -0.02189064 -0.07643151 0.06439507
v -0.02351683 -0.07625377 0.06599456
v -0.02305221 -0.07629716 0.06508547
v -0.02349746 -0.07622402 0.05982851
v -0.02494066 -0.07599610 0.06000328
v -0.02590465 -0.07585179 0.05945402
v -0.02829200 -0.07545769 0.06080776
v -0.02349746 -0.07622402 0.05982851
v -0.02195113 -0.07651716 0.06288492
v -0.02275240 -0.07635235 0.06242853
v -0.02275854 -0.07635438 0.06114310
v -0.02349746 -0.07622402 0.05982851
v -0.02336096 -0.07627576 0.06026399
v -0.02427035 -0.07610642 0.06084203
v -0.02305221 -0.07629716 0.06508547
v -0.02408146 -0.07612359 0.06442826
v -0.02454090 -0.07606053 0.06544870
v -0.02599853 -0.07586067 0.06653678
v -0.02531015 -0.07593643 0.06586509
v -0.02918523 -0.07528990 0.06264072
v -0.02195614 -0.07638835 0.06134635
v -0.02195113 -0.07651716 0.06288492
v -0.02275854 -0.07635438 0.06114310
v -0.02352732 -0.07622021 0.06325566
v -0.02408146 -0.07612359 0.06442826
v -0.02468442 -0.07603263 0.06293314
v -0.02351683 -0.07625377 0.06599456
v -0.02599853 -0.07586067 0.06653678
v -0.02454090 -0.07606053 0.06544870
v -0.02249485 -0.07637858 0.06396138
v -0.02305221 -0.07629716 0.06508547
v -0.02352732 -0.07622021 0.06325566
v -0.02638268 -0.07576453 0.06046265
v -0.02688449 -0.07567942 0.06143891
v -0.02735728 -0.07560676 0.06064230
v -0.02454090 -0.07606053 0.06544870
v -0.02531015 -0.07593643 0.06586509
v -0.02554655 -0.07589846 0.06503456
v -0.02559852 -0.07538735 0.06539285
v -0.02595043 -0.07532501 0.06522583
v -0.02559852 -0.07538735 0.06539285
v -0.02531015 -0.07593643 0.06586509
v -0.02554476 -0.07540714 0.06591773
v -0.02554655 -0.07589846 0.06503456
v -0.02531015 -0.07593643 0.06586509
v -0.02559852 -0.07538735 0.06539285
v -0.02599853 -0.07586067 0.06653678
v -0.02554476 -0.07540714 0.06591773
v -0.02531015 -0.07593643 0.06586509
v -0.02554476 -0.07540714 0.06591773
v -0.02599853 -0.07586067 0.06653678
v -0.02608096 -0.07530832 0.06615370
v -0.02677989 -0.07569605 0.06579089
v -0.02608096 -0.07530832 0.06615370
v -0.02599853 -0.07586067 0.06653678
v -0.02608096 -0.07530832 0.06615370
v -0.02677989 -0.07569605 0.06579089
v -0.02638638 -0.07526701 0.06580156
v -0.02677989 -0.07569605 0.06579089
v -0.02630323 -0.07527345 0.06539446
v -0.02638638 -0.07526701 0.06580156
v -0.02635037 -0.07577031 0.06501448
v -0.02630323 -0.07527345 0.06539446
v -0.02677989 -0.07569605 0.06579089
v -0.02635037 -0.07577031 0.06501448
v -0.02595043 -0.07532501 0.06522583
v -0.02630323 -0.07527345 0.06539446
v -0.02595043 -0.07532501 0.06522583
v -0.02635037 -0.07577031 0.06501448
v -0.02554655 -0.07589846 0.06503456
v -0.02768713 -0.07504510 0.06326627
v -0.02739566 -0.07560032 0.06378275
v -0.02764028 -0.07506853 0.06379562
v -0.02739566 -0.07560032 0.06378275
v -0.02768713 -0.07504510 0.06326627
v -0.02782183 -0.07552295 0.06283181
v -0.02836573 -0.07544660 0.06434917
v -0.02764028 -0.07506853 0.06379562
v -0.02739566 -0.07560032 0.06378275
v -0.02836573 -0.07544660 0.06434917
v -0.02816599 -0.07496535 0.06404447
v -0.02764028 -0.07506853 0.06379562
v -0.02804338 -0.07498574 0.06310433
v -0.02782183 -0.07552295 0.06283181
v -0.02768713 -0.07504510 0.06326627
v -0.02816599 -0.07496535 0.06404447
v -0.02890890 -0.07536238 0.06345701
v -0.02848047 -0.07492786 0.06367999
v -0.02836573 -0.07544660 0.06434917
v -0.02890890 -0.07536238 0.06345701
v -0.02816599 -0.07496535 0.06404447
v -0.02890890 -0.07536238 0.06345701
v -0.02839624 -0.07493418 0.06327134
v -0.02848047 -0.07492786 0.06367999
v -0.02782183 -0.07552295 0.06283181
v -0.02839624 -0.07493418 0.06327134
v -0.02890890 -0.07536238 0.06345701
v -0.02782183 -0.07552295 0.06283181
v -0.02804338 -0.07498574 0.06310433
v -0.02839624 -0.07493418 0.06327134
v -0.02688449 -0.07567942 0.06143891
v -0.02720350 -0.07512760 0.06104254
v -0.02735728 -0.07560676 0.06064230
v -0.02720350 -0.07512760 0.06104254
v -0.02688449 -0.07567942 0.06143891
v -0.02712231 -0.07514780 0.06144952
v -0.02688449 -0.07567942 0.06143891
v -0.02742534 -0.07509052 0.06180197
v -0.02712231 -0.07514780 0.06144952
v -0.02784729 -0.07552057 0.06209981
v -0.02742534 -0.07509052 0.06180197
v -0.02688449 -0.07567942 0.06143891
v -0.02768594 -0.07504779 0.06088078
v -0.02735728 -0.07560676 0.06064230
v -0.02720350 -0.07512760 0.06104254
v -0.02790832 -0.07501327 0.06164354
v -0.02829200 -0.07545769 0.06080776
v -0.02799224 -0.07500690 0.06123489
v -0.02829200 -0.07545769 0.06080776
v -0.02790832 -0.07501327 0.06164354
v -0.02784729 -0.07552057 0.06209981
v -0.02829200 -0.07545769 0.06080776
v -0.02768594 -0.07504779 0.06088078
v -0.02799224 -0.07500690 0.06123489
v -0.02768594 -0.07504779 0.06088078
v -0.02829200 -0.07545769 0.06080776
v -0.02735728 -0.07560676 0.06064230
v -0.02742534 -0.07509052 0.06180197
v -0.02784729 -0.07552057 0.06209981
v -0.02790832 -0.07501327 0.06164354
v -0.02494066 -0.07599610 0.06000328
v -0.02544933 -0.07540220 0.05977565
v -0.02590465 -0.07585179 0.05945402
v -0.02544933 -0.07540220 0.05977565
v -0.02494066 -0.07599610 0.06000328
v -0.02514082 -0.07546877 0.06014496
v -0.02494066 -0.07599610 0.06000328
v -0.02522248 -0.07544821 0.06055361
v -0.02514082 -0.07546877 0.06014496
v -0.02542155 -0.07591414 0.06102228
v -0.02522248 -0.07544821 0.06055361
v -0.02494066 -0.07599610 0.06000328
v -0.02542155 -0.07591414 0.06102228
v -0.02569657 -0.07536560 0.06072282
v -0.02522248 -0.07544821 0.06055361
v -0.02638268 -0.07576453 0.06046265
v -0.02569657 -0.07536560 0.06072282
v -0.02542155 -0.07591414 0.06102228
v -0.02638268 -0.07576453 0.06046265
v -0.02601248 -0.07532614 0.06036186
v -0.02569657 -0.07536560 0.06072282
v -0.02638268 -0.07576453 0.06046265
v -0.02592653 -0.07533419 0.05995094
v -0.02601248 -0.07532614 0.06036186
v -0.02590465 -0.07585179 0.05945402
v -0.02592653 -0.07533419 0.05995094
v -0.02638268 -0.07576453 0.06046265
v -0.02590465 -0.07585179 0.05945402
v -0.02544933 -0.07540220 0.05977565
v -0.02592653 -0.07533419 0.05995094
v -0.02357143 -0.07572788 0.06149423
v -0.02379536 -0.07616984 0.06182277
v -0.02392351 -0.07567161 0.06105256
v -0.02427035 -0.07610642 0.06084203
v -0.02392351 -0.07567161 0.06105256
v -0.02379536 -0.07616984 0.06182277
v -0.02427035 -0.07610642 0.06084203
v -0.02358442 -0.07570767 0.06058180
v -0.02392351 -0.07567161 0.06105256
v -0.02336096 -0.07627576 0.06026399
v -0.02358442 -0.07570767 0.06058180
v -0.02427035 -0.07610642 0.06084203
v -0.02336096 -0.07627576 0.06026399
v -0.02305680 -0.07581007 0.06082856
v -0.02358442 -0.07570767 0.06058180
v -0.02275854 -0.07635438 0.06114310
v -0.02305680 -0.07581007 0.06082856
v -0.02336096 -0.07627576 0.06026399
v -0.02275854 -0.07635438 0.06114310
v -0.02311033 -0.07579034 0.06135368
v -0.02305680 -0.07581007 0.06082856
v -0.02311033 -0.07579034 0.06135368
v -0.02379536 -0.07616984 0.06182277
v -0.02357143 -0.07572788 0.06149423
v -0.02379536 -0.07616984 0.06182277
v -0.02311033 -0.07579034 0.06135368
v -0.02275854 -0.07635438 0.06114310
v -0.02468442 -0.07603263 0.06293314
v -0.02503311 -0.07547891 0.06269878
v -0.02571821 -0.07585895 0.06222915
v -0.02503311 -0.07547891 0.06269878
v -0.02468442 -0.07603263 0.06293314
v -0.02493536 -0.07549422 0.06305950
v -0.02546459 -0.07591301 0.06376361
v -0.02512592 -0.07546705 0.06337827
v -0.02468442 -0.07603263 0.06293314
v -0.02512592 -0.07546705 0.06337827
v -0.02493536 -0.07549422 0.06305950
v -0.02468442 -0.07603263 0.06293314
v -0.02512592 -0.07546705 0.06337827
v -0.02546459 -0.07591301 0.06376361
v -0.02556586 -0.07539111 0.06343197
v -0.02549386 -0.07541650 0.06255823
v -0.02571821 -0.07585895 0.06222915
v -0.02503311 -0.07547891 0.06269878
v -0.02619308 -0.07579511 0.06321024
v -0.02556586 -0.07539111 0.06343197
v -0.02546459 -0.07591301 0.06376361
v -0.02619308 -0.07579511 0.06321024
v -0.02584606 -0.07536023 0.06299990
v -0.02556586 -0.07539111 0.06343197
v -0.02584606 -0.07536023 0.06299990
v -0.02571821 -0.07585895 0.06222915
v -0.02549386 -0.07541650 0.06255823
v -0.02571821 -0.07585895 0.06222915
v -0.02584606 -0.07536023 0.06299990
v -0.02619308 -0.07579511 0.06321024
v -0.02195113 -0.07651716 0.06288492
v -0.02254903 -0.07587540 0.06272155
v -0.02275240 -0.07635235 0.06242853
v -0.02195113 -0.07651716 0.06288492
v -0.02223670 -0.07593768 0.06308275
v -0.02254903 -0.07587540 0.06272155
v -0.02195113 -0.07651716 0.06288492
v -0.02234804 -0.07591015 0.06354689
v -0.02223670 -0.07593768 0.06308275
v -0.02249485 -0.07637858 0.06396138
v -0.02234804 -0.07591015 0.06354689
v -0.02195113 -0.07651716 0.06288492
v -0.02234804 -0.07591015 0.06354689
v -0.02249485 -0.07637858 0.06396138
v -0.02285254 -0.07582819 0.06362879
v -0.02352732 -0.07622021 0.06325566
v -0.02285254 -0.07582819 0.06362879
v -0.02249485 -0.07637858 0.06396138
v -0.02352732 -0.07622021 0.06325566
v -0.02311056 -0.07579612 0.06330168
v -0.02285254 -0.07582819 0.06362879
v -0.02352732 -0.07622021 0.06325566
v -0.02302455 -0.07580417 0.06289106
v -0.02311056 -0.07579612 0.06330168
v -0.02275240 -0.07635235 0.06242853
v -0.02302455 -0.07580417 0.06289106
v -0.02352732 -0.07622021 0.06325566
v -0.02275240 -0.07635235 0.06242853
v -0.02254903 -0.07587540 0.06272155
v -0.02302455 -0.07580417 0.06289106
v -0.02824831 -0.07526403 0.06021171
v -0.02590465 -0.07585179 0.05945402
v -0.02829200 -0.07545769 0.06080776
v -0.02318501 -0.07602995 0.06629115
v -0.02351683 -0.07625377 0.06599456
v -0.02189064 -0.07643151 0.06439507
v -0.02318501 -0.07602995 0.06629115
v -0.02189064 -0.07643151 0.06439507
v -0.02208906 -0.07615709 0.06513386
v -0.02657592 -0.07561552 0.05923533
v -0.02590465 -0.07585179 0.05945402
v -0.02824831 -0.07526403 0.06021171
v -0.02467441 -0.07581853 0.06688886
v -0.02599853 -0.07586067 0.06653678
v -0.02351683 -0.07625377 0.06599456
v -0.02467441 -0.07581853 0.06688886
v -0.02351683 -0.07625377 0.06599456
v -0.02318501 -0.07602995 0.06629115
v -0.02657592 -0.07561552 0.05923533
v -0.02349746 -0.07622402 0.05982851
v -0.02590465 -0.07585179 0.05945402
v -0.02525818 -0.07570481 0.05902463
v -0.02349746 -0.07622402 0.05982851
v -0.02657592 -0.07561552 0.05923533
v -0.02627909 -0.07554638 0.06689631
v -0.02599853 -0.07586067 0.06653678
v -0.02467441 -0.07581853 0.06688886
v -0.02396893 -0.07593446 0.05932921
v -0.02349746 -0.07622402 0.05982851
v -0.02525818 -0.07570481 0.05902463
v -0.02925097 -0.07498812 0.06400686
v -0.02851742 -0.07539165 0.06497490
v -0.02863663 -0.07512062 0.06517416
v -0.02627909 -0.07554638 0.06689631
v -0.02734243 -0.07559633 0.06613433
v -0.02599853 -0.07586067 0.06653678
v -0.02627909 -0.07554638 0.06689631
v -0.02757126 -0.07532680 0.06625634
v -0.02734243 -0.07559633 0.06613433
v -0.02890890 -0.07536238 0.06345701
v -0.02836573 -0.07544660 0.06434917
v -0.02851742 -0.07539165 0.06497490
v -0.02918523 -0.07528990 0.06264072
v -0.02890890 -0.07536238 0.06345701
v -0.02851742 -0.07539165 0.06497490
v -0.02925097 -0.07498812 0.06400686
v -0.02918523 -0.07528990 0.06264072
v -0.02851742 -0.07539165 0.06497490
v -0.02261066 -0.07611906 0.06021875
v -0.02349746 -0.07622402 0.05982851
v -0.02396893 -0.07593446 0.05932921
v -0.02261066 -0.07611906 0.06021875
v -0.02195614 -0.07638835 0.06134635
v -0.02349746 -0.07622402 0.05982851
v -0.02195614 -0.07638835 0.06134635
v -0.02275854 -0.07635438 0.06114310
v -0.02336096 -0.07627576 0.06026399
v -0.02926814 -0.07498538 0.06206542
v -0.02918523 -0.07528990 0.06264072
v -0.02925097 -0.07498812 0.06400686
v -0.02349746 -0.07622402 0.05982851
v -0.02195614 -0.07638835 0.06134635
v -0.02336096 -0.07627576 0.06026399
v -0.02143615 -0.07621151 0.06299090
v -0.02195113 -0.07651716 0.06288492
v -0.02195614 -0.07638835 0.06134635
v -0.02824831 -0.07526403 0.06021171
v -0.02829200 -0.07545769 0.06080776
v -0.02918523 -0.07528990 0.06264072
v -0.02824831 -0.07526403 0.06021171
v -0.02918523 -0.07528990 0.06264072
v -0.02926814 -0.07498538 0.06206542
v -0.02143615 -0.07621151 0.06299090
v -0.02189064 -0.07643151 0.06439507
v -0.02195113 -0.07651716 0.06288492
v -0.02291280 -0.06843864 0.06687986
v -0.02627909 -0.07554638 0.06689631
v -0.02467441 -0.07581853 0.06688886
v -0.02075529 -0.06878811 0.06089615
v -0.02195614 -0.07638835 0.06134635
v -0.02261066 -0.07611906 0.06021875
v -0.02291280 -0.06843864 0.06687986
v -0.02467441 -0.07581853 0.06688886
v -0.02318501 -0.07602995 0.06629115
v -0.02354216 -0.06833672 0.05890154
v -0.02075529 -0.06878811 0.06089615
v -0.02261066 -0.07611906 0.06021875
v -0.02354216 -0.06833672 0.05890154
v -0.02261066 -0.07611906 0.06021875
v -0.02396893 -0.07593446 0.05932921
v -0.02034622 -0.06885433 0.06440401
v -0.02291280 -0.06843864 0.06687986
v -0.02318501 -0.07602995 0.06629115
v -0.02034622 -0.06885433 0.06440401
v -0.02318501 -0.07602995 0.06629115
v -0.02208906 -0.07615709 0.06513386
v -0.02354216 -0.06833672 0.05890154
v -0.02396893 -0.07593446 0.05932921
v -0.02525818 -0.07570481 0.05902463
v -0.02034622 -0.06885433 0.06440401
v -0.02208906 -0.07615709 0.06513386
v -0.02189064 -0.07643151 0.06439507
v -0.02034622 -0.06885433 0.06440401
v -0.02189064 -0.07643151 0.06439507
v -0.02143615 -0.07621151 0.06299090
v -0.02075529 -0.06878811 0.06089615
v -0.02034622 -0.06885433 0.06440401
v -0.02143615 -0.07621151 0.06299090
v -0.02075529 -0.06878811 0.06089615
v -0.02143615 -0.07621151 0.06299090
v -0.02195614 -0.07638835 0.06134635
v -0.02634537 -0.06788551 0.06642645
v -0.02757126 -0.07532680 0.06625634
v -0.02627909 -0.07554638 0.06689631
v -0.02291280 -0.06843864 0.06687986
v -0.02634537 -0.06788551 0.06642645
v -0.02627909 -0.07554638 0.06689631
v -0.02711308 -0.07560843 0.06537377
v -0.02757126 -0.07532680 0.06625634
v -0.02738428 -0.07537031 0.06597274
v -0.02711308 -0.07560843 0.06537377
v -0.02734243 -0.07559633 0.06613433
v -0.02757126 -0.07532680 0.06625634
v -0.02654844 -0.06682527 0.06472676
v -0.02767962 -0.07551705 0.06472885
v -0.02573871 -0.06695640 0.06538522
v -0.02767962 -0.07551705 0.06472885
v -0.02711308 -0.07560843 0.06537377
v -0.02573871 -0.06695640 0.06538522
v -0.02711308 -0.07560843 0.06537377
v -0.02738428 -0.07537031 0.06597274
v -0.02573871 -0.06695640 0.06538522
v -0.02573871 -0.06695640 0.06538522
v -0.02738428 -0.07537031 0.06597274
v -0.02600800 -0.06693434 0.06596165
v -0.02706855 -0.06730306 0.06497025
v -0.02654844 -0.06682527 0.06472676
v -0.02698945 -0.06675374 0.06497991
v -0.02851742 -0.07539165 0.06497490
v -0.02851742 -0.07539165 0.06497490
v -0.02767962 -0.07551705 0.06472885
v -0.02654844 -0.06682527 0.06472676
v -0.02812284 -0.06759476 0.06389069
v -0.02925097 -0.07498812 0.06400686
v -0.02863663 -0.07512062 0.06517416
v -0.02747941 -0.06768870 0.06511968
v -0.02354216 -0.06833672 0.05890154
v -0.02525818 -0.07570481 0.05902463
v -0.02657592 -0.07561552 0.05923533
v -0.02634268 -0.06788307 0.05958431
v -0.02354216 -0.06833672 0.05890154
v -0.02657592 -0.07561552 0.05923533
v -0.02634268 -0.06788307 0.05958431
v -0.02657592 -0.07561552 0.05923533
v -0.02824831 -0.07526403 0.06021171
v -0.02790087 -0.06763076 0.06134402
v -0.02634268 -0.06788307 0.05958431
v -0.02824831 -0.07526403 0.06021171
v -0.02790087 -0.06763076 0.06134402
v -0.02824831 -0.07526403 0.06021171
v -0.02926814 -0.07498538 0.06206542
v -0.02812284 -0.06759476 0.06389069
v -0.02790087 -0.06763076 0.06134402
v -0.02926814 -0.07498538 0.06206542
v -0.02812284 -0.06759476 0.06389069
v -0.02926814 -0.07498538 0.06206542
v -0.02925097 -0.07498812 0.06400686
v -0.02851742 -0.07539165 0.06497490
v -0.02706855 -0.06730306 0.06497025
v -0.02747941 -0.06768870 0.06511968
v -0.02851742 -0.07539165 0.06497490
v -0.02747941 -0.06768870 0.06511968
v -0.02863663 -0.07512062 0.06517416
v -0.02757126 -0.07532680 0.06625634
v -0.02747488 -0.07519578 0.06608438
v -0.02738428 -0.07537031 0.06597274
v -0.02633607 -0.06774353 0.06606900
v -0.02747488 -0.07519578 0.06608438
v -0.02757126 -0.07532680 0.06625634
v -0.02634537 -0.06788551 0.06642645
v -0.02633607 -0.06774353 0.06606900
v -0.02757126 -0.07532680 0.06625634
vn -0.54401128 -0.05587616 0.83721537
vn -0.54401128 -0.05587616 0.83721537
vn -0.54401128 -0.05587616 0.83721537
vn -0.86114358 -0.48642043 0.14773928
vn -0.86114358 -0.48642043 0.14773928
vn -0.86114358 -0.48642043 0.14773928
vn -0.76541438 -0.11415018 -0.63333290
vn -0.76541438 -0.11415018 -0.63333290
vn -0.76541438 -0.11415018 -0.63333290
vn -0.82459324 -0.39758123 -0.40246136
vn -0.82459324 -0.39758123 -0.40246136
vn -0.82459324 -0.39758123 -0.40246136
vn -0.32229509 -0.45016907 0.83275067
vn -0.32229509 -0.45016907 0.83275067
vn -0.32229509 -0.45016907 0.83275067
vn 0.41174110 -0.27352355 -0.86928369
vn 0.41174110 -0.27352355 -0.86928369
vn 0.41174110 -0.27352355 -0.86928369
vn 0.16305445 -0.47524473 -0.86461303
vn 0.16305445 -0.47524473 -0.86461303
vn 0.16305445 -0.47524473 -0.86461303
vn 0.63590611 -0.69669550 -0.33202228
vn 0.63590611 -0.69669550 -0.33202228
vn 0.63590611 -0.69669550 -0.33202228
vn 0.55825949 -0.65532450 0.50881838
vn 0.55825949 -0.65532450 0.50881838
vn 0.55825949 -0.65532450 0.50881838
vn 0.82035235 -0.41360322 0.39491061
vn 0.82035235 -0.41360322 0.39491061
vn 0.82035235 -0.41360322 0.39491061
vn -0.10239497 -0.99451652 0.02126401
vn -0.10239497 -0.99451652 0.02126401
vn -0.10239497 -0.99451652 0.02126401
vn -0.16626323 -0.98603809 0.00924219
vn -0.16626323 -0.98603809 0.00924219
vn -0.16626323 -0.98603809 0.00924219
vn -0.15748141 -0.98748550 0.00848513
vn -0.15548382 -0.98774478 0.01360276
vn -0.15709769 -0.98751515 0.01158251
vn -0.18690534 -0.98215405 -0.02097182
vn -0.18690534 -0.98215405 -0.02097182
vn -0.18690534 -0.98215405 -0.02097182
vn -0.15979897 -0.98714951 -0.00036456
vn -0.15884387 -0.98730368 0.00027276
vn -0.16007167 -0.98710532 -0.00038894
vn -0.15898694 -0.98728069 0.00004686
vn -0.15808185 -0.98742569 0.00080093
vn -0.20095785 -0.97856431 -0.04503137
vn -0.20095785 -0.97856431 -0.04503137
vn -0.20095785 -0.97856431 -0.04503137
vn -0.15549900 -0.98779528 -0.00897434
vn -0.15549900 -0.98779528 -0.00897434
vn -0.15549900 -0.98779528 -0.00897434
vn -0.15846423 -0.98731375 -0.01003248
vn -0.16319356 -0.98656831 -0.00712931
vn -0.16319356 -0.98656831 -0.00712931
vn -0.13051366 -0.99007502 0.05213093
vn -0.12984483 -0.99022730 0.05089406
vn -0.13201506 -0.98972574 0.05490887
vn -0.15103531 -0.98852774 0.00111593
vn -0.15105245 -0.98852508 0.00115243
vn -0.15124554 -0.98849499 0.00156377
vn -0.16538303 -0.98622614 0.00254014
vn -0.16688656 -0.98597269 0.00259327
vn -0.16733835 -0.98589607 0.00260923
vn -0.15970677 -0.98714691 -0.00589213
vn -0.15865240 -0.98732171 -0.00502630
vn -0.16006207 -0.98708758 -0.00618394
vn -0.16040252 -0.98699502 0.01057661
vn -0.15740626 -0.98751087 0.00674955
vn -0.15819744 -0.98737852 0.00756512
vn -0.15820526 -0.98735955 -0.00960312
vn -0.15627983 -0.98764735 -0.01137227
vn -0.15743316 -0.98749719 0.00800598
vn -0.15710538 -0.98755620 0.00711645
vn -0.16246132 -0.98660264 0.01488441
vn -0.13073320 -0.98951728 0.06135454
vn -0.13073320 -0.98951728 0.06135454
vn -0.13073320 -0.98951728 0.06135454
vn -0.17086692 -0.98529050 -0.00267003
vn -0.17086692 -0.98529050 -0.00267003
vn -0.16945765 -0.98553725 -0.00065864
vn -0.15083539 -0.98855865 0.00069009
vn -0.22045244 -0.97497524 -0.02870547
vn -0.22045244 -0.97497524 -0.02870547
vn -0.22045244 -0.97497524 -0.02870547
vn -0.12859323 -0.99050680 0.04858048
vn -0.19280536 -0.98080119 0.02924228
vn -0.19332439 -0.98069625 0.02933500
vn -0.19121703 -0.98112051 0.02895855
vn -0.16003372 -0.98710964 -0.00193914
vn -0.16448581 -0.98637796 0.00171511
vn -0.16074327 -0.98699532 -0.00135705
vn -0.19421259 -0.98051598 0.02949367
vn -0.16404503 -0.98593337 -0.03200972
vn -0.16404503 -0.98593337 -0.03200972
vn -0.16404503 -0.98593337 -0.03200972
vn -0.17371431 -0.98479321 0.00238225
vn -0.17371431 -0.98479321 0.00238225
vn -0.17371431 -0.98479321 0.00238225
vn -0.12440298 -0.99209896 -0.01623401
vn -0.12440298 -0.99209896 -0.01623401
vn -0.12440298 -0.99209896 -0.01623401
vn -0.15459321 -0.98790818 0.01176297
vn -0.15459321 -0.98790818 0.01176297
vn -0.15459321 -0.98790818 0.01176297
vn -0.15502921 -0.98780824 0.01417159
vn -0.15655800 -0.98765716 -0.00478887
vn -0.20283666 -0.97920936 0.00251254
vn -0.20283666 -0.97920936 0.00251254
vn -0.20283666 -0.97920936 0.00251254
vn -0.21296586 -0.97582125 -0.04917764
vn -0.21296586 -0.97582125 -0.04917764
vn -0.21296586 -0.97582125 -0.04917764
vn -0.16755952 -0.98585983 0.00204817
vn -0.16755952 -0.98585983 0.00204817
vn -0.21827659 -0.96915913 -0.11439368
vn -0.21827659 -0.96915913 -0.11439368
vn -0.21827659 -0.96915913 -0.11439368
vn -0.16885411 -0.98563746 0.00266279
vn -0.02107473 -0.99629837 -0.08333919
vn -0.02107473 -0.99629837 -0.08333919
vn -0.02107473 -0.99629837 -0.08333919
vn -0.16138858 -0.98687803 0.00504828
vn -0.16138858 -0.98687803 0.00504828
vn -0.16138858 -0.98687803 0.00504828
vn -0.16478787 -0.98552848 -0.03973115
vn -0.16478787 -0.98552848 -0.03973115
vn -0.16478787 -0.98552848 -0.03973115
vn -0.14982822 -0.98870842 -0.00267555
vn -0.14982822 -0.98870842 -0.00267555
vn -0.14982822 -0.98870842 -0.00267555
vn -0.15901810 -0.98726617 0.00432991
vn -0.15901810 -0.98726617 0.00432991
vn -0.15901810 -0.98726617 0.00432991
vn -0.15917929 -0.98724968 0.00017596
vn -0.15917929 -0.98724968 0.00017596
vn -0.43621970 -0.54584105 0.71538096
vn -0.43621970 -0.54584105 0.71538096
vn -0.43621970 -0.54584105 0.71538096
vn -0.90857693 -0.41044925 0.07758465
vn -0.90857693 -0.41044925 0.07758465
vn -0.90857693 -0.41044925 0.07758465
vn -0.92896371 -0.27112758 0.25202433
vn -0.92896371 -0.27112758 0.25202433
vn -0.92896371 -0.27112758 0.25202433
vn -0.69151402 -0.23871497 -0.68177967
vn -0.69151402 -0.23871497 -0.68177967
vn -0.69151402 -0.23871497 -0.68177967
vn -0.41812330 -0.55899639 -0.71602789
vn -0.41812330 -0.55899639 -0.71602789
vn -0.41812330 -0.55899639 -0.71602789
vn 0.58723785 -0.40028052 -0.70351063
vn 0.58723785 -0.40028052 -0.70351063
vn 0.58723785 -0.40028052 -0.70351063
vn 0.60385225 -0.53924576 -0.58700637
vn 0.60385225 -0.53924576 -0.58700637
vn 0.60385225 -0.53924576 -0.58700637
vn 0.72564274 -0.66949635 0.15879940
vn 0.72564274 -0.66949635 0.15879940
vn 0.72564274 -0.66949635 0.15879940
vn 0.77144293 -0.43109976 0.46800512
vn 0.77144293 -0.43109976 0.46800512
vn 0.77144293 -0.43109976 0.46800512
vn 0.27157020 -0.60077005 0.75188095
vn 0.27157020 -0.60077005 0.75188095
vn 0.27157020 -0.60077005 0.75188095
vn -0.08159643 -0.36659659 0.92679499
vn -0.08159643 -0.36659659 0.92679499
vn -0.08159643 -0.36659659 0.92679499
vn -0.90619400 -0.41833864 0.06168646
vn -0.90619400 -0.41833864 0.06168646
vn -0.90619400 -0.41833864 0.06168646
vn -0.91056727 -0.10646890 0.39941410
vn -0.91056727 -0.10646890 0.39941410
vn -0.91056727 -0.10646890 0.39941410
vn -0.51763576 -0.21809223 -0.82733851
vn -0.51763576 -0.21809223 -0.82733851
vn -0.51763576 -0.21809223 -0.82733851
vn -0.45603012 -0.33321614 -0.82522938
vn -0.45603012 -0.33321614 -0.82522938
vn -0.45603012 -0.33321614 -0.82522938
vn -0.42088229 -0.54241480 0.72707928
vn -0.42088229 -0.54241480 0.72707928
vn -0.42088229 -0.54241480 0.72707928
vn 0.68922681 -0.35562544 -0.63126616
vn 0.68922681 -0.35562544 -0.63126616
vn 0.68922681 -0.35562544 -0.63126616
vn 0.67421463 -0.57403299 -0.46467273
vn 0.67421463 -0.57403299 -0.46467273
vn 0.67421463 -0.57403299 -0.46467273
vn 0.66506038 -0.73189671 0.14839779
vn 0.66506038 -0.73189671 0.14839779
vn 0.66506038 -0.73189671 0.14839779
vn 0.46885032 -0.18702255 0.86325080
vn 0.46885032 -0.18702255 0.86325080
vn 0.46885032 -0.18702255 0.86325080
vn 0.37389055 -0.29231971 0.88020170
vn 0.37389055 -0.29231971 0.88020170
vn 0.37389055 -0.29231971 0.88020170
vn -0.85709548 -0.13922398 0.49598793
vn -0.85709548 -0.13922398 0.49598793
vn -0.85709548 -0.13922398 0.49598793
vn -0.89996474 -0.40577706 0.15940025
vn -0.89996474 -0.40577706 0.15940025
vn -0.89996474 -0.40577706 0.15940025
vn -0.74333518 -0.32081405 -0.58696776
vn -0.74333518 -0.32081405 -0.58696776
vn -0.74333518 -0.32081405 -0.58696776
vn -0.56739538 -0.01350953 -0.82333467
vn -0.56739538 -0.01350953 -0.82333467
vn -0.56739538 -0.01350953 -0.82333467
vn -0.34691821 -0.53317716 0.77160215
vn -0.34691821 -0.53317716 0.77160215
vn -0.34691821 -0.53317716 0.77160215
vn 0.89084864 -0.41294519 -0.18938050
vn 0.89084864 -0.41294519 -0.18938050
vn 0.89084864 -0.41294519 -0.18938050
vn 0.92673443 -0.18342786 -0.32789865
vn 0.92673443 -0.18342786 -0.32789865
vn 0.92673443 -0.18342786 -0.32789865
vn 0.45189879 -0.75328195 0.47786378
vn 0.45189879 -0.75328195 0.47786378
vn 0.45189879 -0.75328195 0.47786378
vn 0.11256978 -0.33319848 0.93611261
vn 0.11256978 -0.33319848 0.93611261
vn 0.11256978 -0.33319848 0.93611261
vn 0.13980810 -0.65280666 -0.74451135
vn 0.13980810 -0.65280666 -0.74451135
vn 0.13980810 -0.65280666 -0.74451135
vn -0.50402130 -0.10301678 0.85752555
vn -0.50402130 -0.10301678 0.85752555
vn -0.50402130 -0.10301678 0.85752555
vn -0.73185456 -0.42163106 0.53536544
vn -0.73185456 -0.42163106 0.53536544
vn -0.73185456 -0.42163106 0.53536544
vn -0.93548058 -0.30903564 -0.17138570
vn -0.93548058 -0.30903564 -0.17138570
vn -0.93548058 -0.30903564 -0.17138570
vn -0.90486869 -0.03971917 -0.42383375
vn -0.90486869 -0.03971917 -0.42383375
vn -0.90486869 -0.03971917 -0.42383375
vn -0.36160697 -0.57986477 -0.73006660
vn -0.36160697 -0.57986477 -0.73006660
vn -0.36160697 -0.57986477 -0.73006660
vn 0.46135836 -0.23564751 -0.85534713
vn 0.46135836 -0.23564751 -0.85534713
vn 0.46135836 -0.23564751 -0.85534713
vn 0.56473624 -0.60575081 -0.56048098
vn 0.56473624 -0.60575081 -0.56048098
vn 0.56473624 -0.60575081 -0.56048098
vn 0.77174657 -0.61182887 0.17341472
vn 0.77174657 -0.61182887 0.17341472
vn 0.77174657 -0.61182887 0.17341472
vn 0.82600845 -0.37180074 0.42364402
vn 0.82600845 -0.37180074 0.42364402
vn 0.82600845 -0.37180074 0.42364402
vn 0.16578349 -0.67931064 0.71487963
vn 0.16578349 -0.67931064 0.71487963
vn 0.16578349 -0.67931064 0.71487963
vn 0.54389640 -0.66042209 -0.51770587
vn 0.54389640 -0.66042209 -0.51770587
vn 0.54389640 -0.66042209 -0.51770587
vn 0.79853933 -0.43606801 -0.41494533
vn 0.79853933 -0.43606801 -0.41494533
vn 0.79853933 -0.43606801 -0.41494533
vn 0.57017010 -0.67884375 0.46268478
vn 0.57017010 -0.67884375 0.46268478
vn 0.57017010 -0.67884375 0.46268478
vn 0.47783444 -0.27818334 0.83323963
vn 0.47783444 -0.27818334 0.83323963
vn 0.47783444 -0.27818334 0.83323963
vn -0.43712999 -0.56391414 0.70065556
vn -0.43712999 -0.56391414 0.70065556
vn -0.43712999 -0.56391414 0.70065556
vn -0.82315582 -0.13190850 0.55228131
vn -0.82315582 -0.13190850 0.55228131
vn -0.82315582 -0.13190850 0.55228131
vn -0.85776333 -0.50948742 -0.06829822
vn -0.85776333 -0.50948742 -0.06829822
vn -0.85776333 -0.50948742 -0.06829822
vn -0.31537995 -0.45802321 -0.83111385
vn -0.31537995 -0.45802321 -0.83111385
vn -0.31537995 -0.45802321 -0.83111385
vn -0.55206850 -0.03328028 -0.83313432
vn -0.55206850 -0.03328028 -0.83313432
vn -0.55206850 -0.03328028 -0.83313432
vn -0.56344849 -0.00516143 0.82613507
vn -0.56344849 -0.00516143 0.82613507
vn -0.56344849 -0.00516143 0.82613507
vn -0.86486431 -0.45357931 0.21511751
vn -0.86486431 -0.45357931 0.21511751
vn -0.86486431 -0.45357931 0.21511751
vn -0.73085277 -0.03400817 -0.68168738
vn -0.73085277 -0.03400817 -0.68168738
vn -0.73085277 -0.03400817 -0.68168738
vn -0.83484019 -0.27752001 -0.47542033
vn -0.83484019 -0.27752001 -0.47542033
vn -0.83484019 -0.27752001 -0.47542033
vn -0.19433383 -0.55268129 -0.81041826
vn -0.19433383 -0.55268129 -0.81041826
vn -0.19433383 -0.55268129 -0.81041826
vn -0.31555962 -0.45806935 0.83102021
vn -0.31555962 -0.45806935 0.83102021
vn -0.31555962 -0.45806935 0.83102021
vn 0.51797328 -0.38490862 -0.76390381
vn 0.51797328 -0.38490862 -0.76390381
vn 0.51797328 -0.38490862 -0.76390381
vn 0.59132622 -0.68088027 -0.43212886
vn 0.59132622 -0.68088027 -0.43212886
vn 0.59132622 -0.68088027 -0.43212886
vn 0.54362717 -0.66067198 0.51766981
vn 0.54362717 -0.66067198 0.51766981
vn 0.54362717 -0.66067198 0.51766981
vn 0.79838990 -0.43644226 0.41483940
vn 0.79838990 -0.43644226 0.41483940
vn 0.79838990 -0.43644226 0.41483940
vn -0.51794401 -0.27647763 0.80950239
vn -0.51794401 -0.27647763 0.80950239
vn -0.51794401 -0.27647763 0.80950239
vn -0.69070583 -0.51402533 0.50862896
vn -0.69070583 -0.51402533 0.50862896
vn -0.69070583 -0.51402533 0.50862896
vn -0.90456854 -0.37937933 -0.19449187
vn -0.90456854 -0.37937933 -0.19449187
vn -0.90456854 -0.37937933 -0.19449187
vn -0.89294772 -0.10704319 -0.43724836
vn -0.89294772 -0.10704319 -0.43724836
vn -0.89294772 -0.10704319 -0.43724836
vn -0.22244528 -0.60604464 -0.76369365
vn -0.22244528 -0.60604464 -0.76369365
vn -0.22244528 -0.60604464 -0.76369365
vn 0.54269710 -0.14702153 -0.82696102
vn 0.54269710 -0.14702153 -0.82696102
vn 0.54269710 -0.14702153 -0.82696102
vn 0.62560943 -0.55534271 -0.54791178
vn 0.62560943 -0.55534271 -0.54791178
vn 0.62560943 -0.55534271 -0.54791178
vn 0.69541911 -0.70070381 0.15939394
vn 0.69541911 -0.70070381 0.15939394
vn 0.69541911 -0.70070381 0.15939394
vn 0.69040855 -0.23462968 0.68431349
vn 0.69040855 -0.23462968 0.68431349
vn 0.69040855 -0.23462968 0.68431349
vn 0.19769897 -0.57295484 0.79538536
vn 0.19769897 -0.57295484 0.79538536
vn 0.19769897 -0.57295484 0.79538536
vn -0.32514724 -0.89211916 -0.31369200
vn -0.32514724 -0.89211916 -0.31369200
vn -0.32514724 -0.89211916 -0.31369200
vn 0.26792010 -0.88906579 0.37118843
vn 0.26792010 -0.88906579 0.37118843
vn 0.26792010 -0.88906579 0.37118843
vn 0.32890204 -0.85302333 0.40518470
vn 0.32890204 -0.85302333 0.40518470
vn 0.32890204 -0.85302333 0.40518470
vn -0.28523198 -0.94701905 -0.14764023
vn -0.28523198 -0.94701905 -0.14764023
vn -0.28523198 -0.94701905 -0.14764023
vn -0.06741966 -0.92867937 0.36470430
vn -0.06741966 -0.92867937 0.36470430
vn -0.06741966 -0.92867937 0.36470430
vn 0.09352277 -0.84222531 0.53095199
vn 0.09352277 -0.84222531 0.53095199
vn 0.09352277 -0.84222531 0.53095199
vn 0.01680650 -0.65304132 -0.75713577
vn 0.01680650 -0.65304132 -0.75713577
vn 0.01680650 -0.65304132 -0.75713577
vn -0.11803275 -0.93178215 -0.34329332
vn -0.11803275 -0.93178215 -0.34329332
vn -0.11803275 -0.93178215 -0.34329332
vn -0.13209679 -0.79507489 0.59195131
vn -0.13209679 -0.79507489 0.59195131
vn -0.13209679 -0.79507489 0.59195131
vn -0.04671190 -0.88262303 -0.46775483
vn -0.04671190 -0.88262303 -0.46775483
vn -0.04671190 -0.88262303 -0.46775483
vn -0.75045402 -0.57266978 0.32995165
vn -0.75045402 -0.57266978 0.32995165
vn -0.75045402 -0.57266978 0.32995165
vn -0.30554471 -0.82217055 0.48028952
vn -0.30554471 -0.82217055 0.48028952
vn -0.30554471 -0.82217055 0.48028952
vn -0.42389765 -0.64684626 0.63395638
vn -0.42389765 -0.64684626 0.63395638
vn -0.42389765 -0.64684626 0.63395638
vn -0.20918628 -0.97724549 0.03510499
vn -0.20918628 -0.97724549 0.03510499
vn -0.20918628 -0.97724549 0.03510499
vn -0.64544849 -0.74851990 0.15203360
vn -0.64544849 -0.74851990 0.15203360
vn -0.64544849 -0.74851990 0.15203360
vn -0.61427677 -0.77622567 0.14190758
vn -0.61427677 -0.77622567 0.14190758
vn -0.61427677 -0.77622567 0.14190758
vn 0.38134852 -0.59664393 -0.70610858
vn 0.38134852 -0.59664393 -0.70610858
vn 0.38134852 -0.59664393 -0.70610858
vn 0.26729589 -0.89063720 -0.36785635
vn 0.26729589 -0.89063720 -0.36785635
vn 0.26729589 -0.89063720 -0.36785635
vn -0.02375390 -0.99705715 -0.07288895
vn -0.02375390 -0.99705715 -0.07288895
vn -0.02375390 -0.99705715 -0.07288895
vn -0.96867074 -0.24821258 0.00821627
vn -0.96867074 -0.24821258 0.00821627
vn -0.96867074 -0.24821258 0.00821627
vn 0.01489560 -0.99234890 -0.12256340
vn 0.01489560 -0.99234890 -0.12256340
vn 0.01489560 -0.99234890 -0.12256340
vn 0.52008280 -0.85099592 -0.07293713
vn 0.52008280 -0.85099592 -0.07293713
vn 0.52008280 -0.85099592 -0.07293713
vn -0.68272664 -0.67873116 -0.27057041
vn -0.68272664 -0.67873116 -0.27057041
vn -0.68272664 -0.67873116 -0.27057041
vn -0.67407728 -0.68858523 -0.26733911
vn -0.67407728 -0.68858523 -0.26733911
vn -0.67407728 -0.68858523 -0.26733911
vn 0.50581146 -0.86216865 0.02863536
vn 0.50581146 -0.86216865 0.02863536
vn 0.50581146 -0.86216865 0.02863536
vn 0.00466112 0.00010693 0.99998913
vn 0.00466112 0.00010693 0.99998913
vn 0.00466112 0.00010693 0.99998913
vn 0.83586593 -0.16311544 -0.52413882
vn 0.83586593 -0.16311544 -0.52413882
vn 0.83586593 -0.16311544 -0.52413882
vn 0.36067907 -0.08496281 0.92881211
vn 0.36067907 -0.08496281 0.92881211
vn 0.36067907 -0.08496281 0.92881211
vn 0.57311775 -0.06960107 -0.81651193
vn 0.57311775 -0.06960107 -0.81651193
vn 0.57311775 -0.06960107 -0.81651193
vn 0.53883280 -0.07748423 -0.83884171
vn 0.53883280 -0.07748423 -0.83884171
vn 0.53883280 -0.07748423 -0.83884171
vn 0.68520492 -0.08070596 0.72386515
vn 0.68520492 -0.08070596 0.72386515
vn 0.68520492 -0.08070596 0.72386515
vn 0.71667091 -0.10208723 0.68989927
vn 0.71667091 -0.10208723 0.68989927
vn 0.71667091 -0.10208723 0.68989927
vn 0.21807364 -0.06705392 -0.97362604
vn 0.21807364 -0.06705392 -0.97362604
vn 0.21807364 -0.06705392 -0.97362604
vn 0.92833847 -0.18959598 0.31975156
vn 0.92833847 -0.18959598 0.31975156
vn 0.92833847 -0.18959598 0.31975156
vn 0.94207072 -0.19234190 0.27478603
vn 0.94207072 -0.19234190 0.27478603
vn 0.94207072 -0.19234190 0.27478603
vn 0.98539895 -0.12346266 -0.11724285
vn 0.98539895 -0.12346266 -0.11724285
vn 0.98539895 -0.12346266 -0.11724285
vn 0.94523564 -0.16599529 -0.28102519
vn 0.94523564 -0.16599529 -0.28102519
vn 0.94523564 -0.16599529 -0.28102519
vn -0.43621805 0.05132596 0.89837601
vn -0.43621805 0.05132596 0.89837601
vn -0.43621805 0.05132596 0.89837601
vn -0.12125552 0.05972102 0.99082314
vn -0.12125552 0.05972102 0.99082314
vn -0.12125552 0.05972102 0.99082314
vn -0.65393231 0.55324866 -0.51603144
vn -0.65393231 0.55324866 -0.51603144
vn -0.65393231 0.55324866 -0.51603144
vn -0.79076145 -0.56750274 -0.22942749
vn -0.79076145 -0.56750274 -0.22942749
vn -0.79076145 -0.56750274 -0.22942749
vn -0.62091178 0.08099491 0.77968480
vn -0.62091178 0.08099491 0.77968480
vn -0.62091178 0.08099491 0.77968480
vn -0.73795215 0.11634337 0.66474871
vn -0.73795215 0.11634337 0.66474871
vn -0.73795215 0.11634337 0.66474871
vn -0.87979851 0.14035651 -0.45415265
vn -0.87979851 0.14035651 -0.45415265
vn -0.87979851 0.14035651 -0.45415265
vn -0.89424442 0.14533433 -0.42332594
vn -0.89424442 0.14533433 -0.42332594
vn -0.89424442 0.14533433 -0.42332594
vn 0.48634055 -0.08631724 0.86949537
vn 0.48602386 -0.08585917 0.86971778
vn 0.48558604 -0.08522625 0.87002453
vn 0.48657629 -0.08665838 0.86932953
vn 0.27666924 -0.03577628 0.96029901
vn 0.27666924 -0.03577628 0.96029901
vn 0.27666924 -0.03577628 0.96029901
vn -0.87250079 0.13942975 0.46829662
vn -0.86955372 0.14012309 0.47354182
vn -0.86994991 0.14003061 0.47284097
vn -0.87286843 0.13934237 0.46763705
vn -0.15654062 0.01996198 -0.98746977
vn -0.15654062 0.01996198 -0.98746977
vn -0.15654062 0.01996198 -0.98746977
vn -0.22878572 0.05077575 -0.97215170
vn -0.22878572 0.05077575 -0.97215170
vn -0.22878572 0.05077575 -0.97215170
vn -0.49494946 0.05406928 -0.86723788
vn -0.49494946 0.05406928 -0.86723788
vn -0.49494946 0.05406928 -0.86723788
vn -0.73258808 0.13238670 -0.66767393
vn -0.73258808 0.13238670 -0.66767393
vn -0.73258808 0.13238670 -0.66767393
vn -0.86339587 0.11226335 -0.49187855
vn -0.86339587 0.11226335 -0.49187855
vn -0.86339587 0.11226335 -0.49187855
vn -0.98085983 0.17372128 -0.08794833
vn -0.98085983 0.17372128 -0.08794833
vn -0.98085983 0.17372128 -0.08794833
vn -0.98849741 0.15097244 0.00895537
vn -0.98849741 0.15097244 0.00895537
vn -0.98849741 0.15097244 0.00895537
vn 0.39908421 -0.07096058 0.91416431
vn 0.39908421 -0.07096058 0.91416431
vn 0.39908421 -0.07096058 0.91416431
vn 0.77481691 -0.11609043 0.62143525
vn 0.77481691 -0.11609043 0.62143525
vn 0.77481691 -0.11609043 0.62143525
vn -0.83777029 -0.09045642 -0.53847802
vn -0.83777029 -0.09045642 -0.53847802
vn -0.83777029 -0.09045642 -0.53847802
vn -0.90503193 0.13747119 -0.40251569
vn -0.90503193 0.13747119 -0.40251569
vn -0.90503193 0.13747119 -0.40251569
vn -0.98610878 0.16157264 0.03851963
vn -0.98610878 0.16157264 0.03851963
vn -0.98610878 0.16157264 0.03851963
f 1//1 2//2 3//3
f 4//4 5//5 6//6
f 7//7 8//8 9//9
f 10//10 11//11 12//12
f 13//13 14//14 15//15
f 16//16 17//17 18//18
f 19//19 20//20 21//21
f 22//22 23//23 24//24
f 25//25 26//26 27//27
f 28//28 29//29 30//30
f 31//31 32//32 33//33
f 34//34 35//35 36//36
f 37//37 38//38 39//39
f 40//40 41//41 42//42
f 43//43 44//44 45//45
f 46//46 44//44 43//43
f 46//46 47//47 44//44
f 48//48 49//49 50//50
f 51//51 52//52 53//53
f 54//54 55//55 56//56
f 57//57 58//58 59//59
f 60//60 61//61 62//62
f 63//63 64//64 65//65
f 66//66 67//67 68//68
f 69//69 70//70 71//71
f 66//66 68//68 72//72
f 72//72 54//54 73//73
f 70//70 74//74 75//75
f 76//76 69//69 71//71
f 77//77 78//78 79//79
f 80//80 81//81 82//82
f 83//83 61//61 60//60
f 84//84 85//85 86//86
f 87//87 58//58 57//57
f 88//88 89//89 90//90
f 91//91 92//92 93//93
f 88//88 94//94 89//89
f 95//95 96//96 97//97
f 98//98 99//99 100//100
f 101//101 102//102 103//103
f 104//104 105//105 106//106
f 39//39 38//38 107//107
f 108//108 91//91 93//93
f 109//109 110//110 111//111
f 112//112 113//113 114//114
f 82//82 115//115 116//116
f 117//117 118//118 119//119
f 71//71 75//75 37//37
f 65//65 64//64 120//120
f 121//121 122//122 123//123
f 124//124 125//125 126//126
f 127//127 128//128 129//129
f 130//130 131//131 132//132
f 133//133 134//134 135//135
f 136//136 137//137 47//47
f 71//71 70//70 75//75
f 138//138 139//139 140//140
f 141//141 142//142 143//143
f 144//144 145//145 146//146
f 147//147 148//148 149//149
f 150//150 151//151 152//152
f 153//153 154//154 155//155
f 156//156 157//157 158//158
f 159//159 160//160 161//161
f 162//162 163//163 164//164
f 165//165 166//166 167//167
f 168//168 169//169 170//170
f 171//171 172//172 173//173
f 174//174 175//175 176//176
f 177//177 178//178 179//179
f 180//180 181//181 182//182
f 183//183 184//184 185//185
f 186//186 187//187 188//188
f 189//189 190//190 191//191
f 192//192 193//193 194//194
f 195//195 196//196 197//197
f 198//198 199//199 200//200
f 201//201 202//202 203//203
f 204//204 205//205 206//206
f 207//207 208//208 209//209
f 210//210 211//211 212//212
f 213//213 214//214 215//215
f 216//216 217//217 218//218
f 219//219 220//220 221//221
f 222//222 223//223 224//224
f 225//225 226//226 227//227
f 228//228 229//229 230//230
f 231//231 232//232 233//233
f 234//234 235//235 236//236
f 237//237 238//238 239//239
f 240//240 241//241 242//242
f 243//243 244//244 245//245
f 246//246 247//247 248//248
f 249//249 250//250 251//251
f 252//252 253//253 254//254
f 255//255 256//256 257//257
f 258//258 259//259 260//260
f 261//261 262//262 263//263
f 264//264 265//265 266//266
f 267//267 268//268 269//269
f 270//270 271//271 272//272
f 273//273 274//274 275//275
f 276//276 277//277 278//278
f 279//279 280//280 281//281
f 282//282 283//283 284//284
f 285//285 286//286 287//287
f 288//288 289//289 290//290
f 291//291 292//292 293//293
f 294//294 295//295 296//296
f 297//297 298//298 299//299
f 300//300 301//301 302//302
f 303//303 304//304 305//305
f 306//306 307//307 308//308
f 309//309 310//310 311//311
f 312//312 313//313 314//314
f 315//315 316//316 317//317
f 318//318 319//319 320//320
f 321//321 322//322 323//323
f 324//324 325//325 326//326
f 327//327 328//328 329//329
f 330//330 331//331 332//332
f 333//333 334//334 335//335
f 336//336 337//337 338//338
f 339//339 340//340 341//341
f 342//342 343//343 344//344
f 345//345 346//346 347//347
f 348//348 349//349 350//350
f 351//351 352//352 353//353
f 354//354 355//355 356//356
f 357//357 358//358 359//359
f 360//360 361//361 362//362
f 363//363 364//364 365//365
f 366//366 367//367 368//368
f 369//369 370//370 371//371
f 372//372 373//373 374//374
f 375//375 376//376 377//377
f 378//378 379//379 380//380
f 381//381 382//382 383//383
f 384//384 385//385 386//386
f 387//387 388//388 389//389
f 390//390 391//391 392//392
f 393//393 394//394 395//395
f 396//396 397//397 398//398
f 399//399 400//400 401//401
f 402//402 403//403 404//404
f 405//405 406//406 407//407
f 408//408 409//409 410//410
f 411//411 412//412 413//413
f 414//414 415//415 416//416
f 417//417 418//418 419//419
f 420//420 421//421 422//422
f 423//423 424//424 425//425
f 426//426 427//427 428//428
f 429//429 430//430 431//431
f 432//432 433//433 434//434
f 435//435 436//436 437//437
f 438//438 439//439 440//440
f 441//441 442//442 443//443
f 444//444 445//445 446//446
f 447//447 448//448 449//449
f 450//450 451//451 452//452
f 453//453 454//454 455//455
f 456//456 457//457 458//458
f 459//459 460//460 461//461
f 462//462 463//463 464//464
f 465//465 466//466 467//467
f 468//468 469//469 470//470
f 471//471 472//472 473//473
f 474//474 475//475 476//476
f 477//477 478//478 479//479
f 480//480 481//481 482//482
f 483//483 484//484 485//485
f 483//483 486//486 484//484
f 487//487 488//488 489//489
f 490//490 491//491 492//492
f 493//493 490//490 492//492
f 494//494 495//495 496//496
f 497//497 498//498 499//499
f 500//500 501//501 502//502
f 503//503 504//504 505//505
f 506//506 507//507 508//508
f 509//509 510//510 511//511
f 512//512 513//513 514//514
f 515//515 516//516 517//517
f 518//518 519//519 520//520
f 521//521 522//522 523//523
f 524//524 525//525 526//526
f 527//527 528//528 529//529

