# https://github.com/mikedh/trimesh
v 0.00452739 0.07266539 0.08251053
v 0.00571096 0.07315653 0.08222907
v 0.00443101 0.07314550 0.08153271
v 0.00540149 0.07244819 0.08298069
v 0.00616556 0.07259613 0.08282494
v 0.00571096 0.07315653 0.08222907
v 0.00331056 0.07220804 0.08108741
v 0.00363469 0.07218688 0.08199715
v 0.00393474 0.07290869 0.08132266
v 0.00540149 0.07244819 0.08298069
v 0.00571096 0.07315653 0.08222907
v 0.00452739 0.07266539 0.08251053
v 0.00363469 0.07218688 0.08199715
v 0.00452739 0.07266539 0.08251053
v 0.00393474 0.07290869 0.08132266
v 0.00452739 0.07266539 0.08251053
v 0.00443101 0.07314550 0.08153271
v 0.00393474 0.07290869 0.08132266
v 0.00698495 0.06952118 0.08467298
v 0.00471759 0.06916373 0.08462339
v 0.00197118 0.06870943 0.08133989
v 0.00898498 0.06984585 0.08352380
v 0.00698495 0.06952118 0.08467298
v 0.00197118 0.06870943 0.08133989
v 0.01766341 0.07125091 0.04043853
v 0.00962049 0.06998443 0.01321995
v 0.02077800 0.07182747 0.01317638
v 0.01290452 0.07047986 0.07609498
v 0.01094466 0.07016336 0.08142441
v 0.00471759 0.06916373 0.08462339
v 0.00360394 0.06898206 0.08403289
v 0.00265700 0.06882125 0.08305519
v 0.00471759 0.06916373 0.08462339
v 0.00265700 0.06882125 0.08305519
v 0.00197118 0.06870943 0.08133989
v 0.01210719 0.07035148 0.07909983
v 0.00962049 0.06998443 0.01321995
v 0.01111567 0.07311099 0.01015639
v 0.01019859 0.07098770 0.01139605
v 0.00331056 0.07220804 0.08108741
v 0.01111567 0.07311099 0.01015639
v 0.00962049 0.06998443 0.01321995
v 0.00197118 0.06870943 0.08133989
v 0.00616556 0.07259613 0.08282494
v 0.00698495 0.06952118 0.08467298
v 0.00898498 0.06984585 0.08352380
v 0.00471759 0.06916373 0.08462339
v 0.00540149 0.07244819 0.08298069
v 0.00452739 0.07266539 0.08251053
v 0.00540149 0.07244819 0.08298069
v 0.00698495 0.06952118 0.08467298
v 0.00616556 0.07259613 0.08282494
v 0.00471759 0.06916373 0.08462339
v 0.00698495 0.06952118 0.08467298
v 0.00540149 0.07244819 0.08298069
v 0.00360394 0.06898206 0.08403289
v 0.00452739 0.07266539 0.08251053
v 0.00363469 0.07218688 0.08199715
v 0.00360394 0.06898206 0.08403289
v 0.00471759 0.06916373 0.08462339
v 0.00452739 0.07266539 0.08251053
v 0.00363469 0.07218688 0.08199715
v 0.00265700 0.06882125 0.08305519
v 0.00360394 0.06898206 0.08403289
v 0.00331056 0.07220804 0.08108741
v 0.00265700 0.06882125 0.08305519
v 0.00363469 0.07218688 0.08199715
v 0.00331056 0.07220804 0.08108741
v 0.00197118 0.06870943 0.08133989
v 0.00265700 0.06882125 0.08305519
v 0.01024180 0.07354438 0.07645416
v 0.00980031 0.07323312 0.07873201
v 0.01290452 0.07047986 0.07609498
v 0.01766341 0.07125091 0.04043853
v 0.01870054 0.07484018 0.01014733
v 0.01414585 0.07385700 0.04993420
v 0.01870054 0.07484018 0.01014733
v 0.01766341 0.07125091 0.04043853
v 0.02077800 0.07182747 0.01317638
v 0.01104187 0.07318997 0.07362425
v 0.01024180 0.07354438 0.07645416
v 0.01290452 0.07047986 0.07609498
v 0.02001845 0.07310414 0.01088201
v 0.01870054 0.07484018 0.01014733
v 0.02077800 0.07182747 0.01317638
v 0.00757653 0.07314819 0.08159053
v 0.00616556 0.07259613 0.08282494
v 0.00898498 0.06984585 0.08352380
v 0.01190161 0.07370477 0.06555688
v 0.01104187 0.07318997 0.07362425
v 0.01290452 0.07047986 0.07609498
v 0.00843030 0.07301038 0.08098077
v 0.00757653 0.07314819 0.08159053
v 0.00898498 0.06984585 0.08352380
v 0.00843030 0.07301038 0.08098077
v 0.00898498 0.06984585 0.08352380
v 0.01094466 0.07016336 0.08142441
v 0.01291120 0.07377845 0.05860966
v 0.01190161 0.07370477 0.06555688
v 0.01290452 0.07047986 0.07609498
v 0.01291120 0.07377845 0.05860966
v 0.01290452 0.07047986 0.07609498
v 0.01766341 0.07125091 0.04043853
v 0.00980031 0.07323312 0.07873201
v 0.00843030 0.07301038 0.08098077
v 0.01094466 0.07016336 0.08142441
v 0.00980031 0.07323312 0.07873201
v 0.01094466 0.07016336 0.08142441
v 0.01210719 0.07035148 0.07909983
v 0.01414585 0.07385700 0.04993420
v 0.01291120 0.07377845 0.05860966
v 0.01766341 0.07125091 0.04043853
v 0.00980031 0.07323312 0.07873201
v 0.01210719 0.07035148 0.07909983
v 0.01290452 0.07047986 0.07609498
v 0.01870054 0.07484018 0.01014733
v 0.01111567 0.07311099 0.01015639
v 0.01220566 0.07439452 0.01004433
v 0.01762777 0.07525807 0.01009649
v 0.01870054 0.07484018 0.01014733
v 0.01220566 0.07439452 0.01004433
v 0.02077800 0.07182747 0.01317638
v 0.00962049 0.06998443 0.01321995
v 0.01019859 0.07098770 0.01139605
v 0.02001845 0.07310414 0.01088201
v 0.02077800 0.07182747 0.01317638
v 0.01019859 0.07098770 0.01139605
v 0.02001845 0.07310414 0.01088201
v 0.01019859 0.07098770 0.01139605
v 0.01111567 0.07311099 0.01015639
v 0.01870054 0.07484018 0.01014733
v 0.02001845 0.07310414 0.01088201
v 0.01111567 0.07311099 0.01015639
v 0.00393474 0.07290869 0.08132266
v 0.00443101 0.07314550 0.08153271
v 0.01220566 0.07439452 0.01004433
v 0.00393474 0.07290869 0.08132266
v 0.01220566 0.07439452 0.01004433
v 0.01111567 0.07311099 0.01015639
v 0.00331056 0.07220804 0.08108741
v 0.00393474 0.07290869 0.08132266
v 0.01111567 0.07311099 0.01015639
v 0.00730348 0.07361143 0.08035874
v 0.00891197 0.07370746 0.07868778
v 0.00940502 0.07393109 0.07469820
v 0.00757653 0.07314819 0.08159053
v 0.00980031 0.07323312 0.07873201
v 0.00891197 0.07370746 0.07868778
v 0.00757653 0.07314819 0.08159053
v 0.00843030 0.07301038 0.08098077
v 0.00980031 0.07323312 0.07873201
v 0.01120996 0.07394134 0.06702435
v 0.01190161 0.07370477 0.06555688
v 0.01102465 0.07415348 0.06468415
v 0.00730348 0.07361143 0.08035874
v 0.00757653 0.07314819 0.08159053
v 0.00891197 0.07370746 0.07868778
v 0.01067107 0.07372641 0.07217860
v 0.00988406 0.07399708 0.07153266
v 0.00940502 0.07393109 0.07469820
v 0.00757653 0.07314819 0.08159053
v 0.00571096 0.07315653 0.08222907
v 0.00616556 0.07259613 0.08282494
v 0.01365536 0.07428306 0.04941004
v 0.01870054 0.07484018 0.01014733
v 0.01762777 0.07525807 0.01009649
v 0.00730348 0.07361143 0.08035874
v 0.00571096 0.07315653 0.08222907
v 0.00757653 0.07314819 0.08159053
v 0.00730348 0.07361143 0.08035874
v 0.00443101 0.07314550 0.08153271
v 0.00571096 0.07315653 0.08222907
v 0.01489824 0.07481098 0.03299021
v 0.01365536 0.07428306 0.04941004
v 0.01762777 0.07525807 0.01009649
v 0.01489824 0.07481098 0.03299021
v 0.01762777 0.07525807 0.01009649
v 0.01569378 0.07496893 0.02486908
v 0.01365536 0.07428306 0.04941004
v 0.01414585 0.07385700 0.04993420
v 0.01870054 0.07484018 0.01014733
v 0.01393586 0.07465094 0.04103535
v 0.01365536 0.07428306 0.04941004
v 0.01489824 0.07481098 0.03299021
v 0.01295679 0.07446002 0.04981487
v 0.01291120 0.07377845 0.05860966
v 0.01365536 0.07428306 0.04941004
v 0.01295679 0.07446002 0.04981487
v 0.01193773 0.07431495 0.05720305
v 0.01193773 0.07431495 0.05720305
v 0.01230275 0.07411175 0.05899769
v 0.01291120 0.07377845 0.05860966
v 0.01365536 0.07428306 0.04941004
v 0.01230275 0.07411175 0.05899769
v 0.01024180 0.07354438 0.07645416
v 0.01104187 0.07318997 0.07362425
v 0.01067107 0.07372641 0.07217860
v 0.01102465 0.07415348 0.06468415
v 0.01230275 0.07411175 0.05899769
v 0.01190161 0.07370477 0.06555688
v 0.01291120 0.07377845 0.05860966
v 0.00940502 0.07393109 0.07469820
v 0.01024180 0.07354438 0.07645416
v 0.01067107 0.07372641 0.07217860
v 0.01230275 0.07411175 0.05899769
v 0.01102465 0.07415348 0.06468415
v 0.01190161 0.07370477 0.06555688
v 0.00891197 0.07370746 0.07868778
v 0.01024180 0.07354438 0.07645416
v 0.00940502 0.07393109 0.07469820
v 0.01120996 0.07394134 0.06702435
v 0.01102465 0.07415348 0.06468415
v 0.00988406 0.07399708 0.07153266
v 0.01120996 0.07394134 0.06702435
v 0.01104187 0.07318997 0.07362425
v 0.01190161 0.07370477 0.06555688
v 0.00891197 0.07370746 0.07868778
v 0.00980031 0.07323312 0.07873201
v 0.01024180 0.07354438 0.07645416
v 0.01067107 0.07372641 0.07217860
v 0.01120996 0.07394134 0.06702435
v 0.00940502 0.07393109 0.07469820
v 0.00443101 0.07314550 0.08153271
v 0.00730348 0.07361143 0.08035874
v 0.00988406 0.07399708 0.07153266
v 0.01102465 0.07415348 0.06468415
v 0.01220566 0.07439452 0.01004433
v 0.01489824 0.07481098 0.03299021
v 0.01569378 0.07496893 0.02486908
v 0.01220566 0.07439452 0.01004433
v 0.01393586 0.07465094 0.04103535
v 0.01489824 0.07481098 0.03299021
v 0.01762777 0.07525807 0.01009649
v 0.01569378 0.07496893 0.02486908
v 0.01220566 0.07439452 0.01004433
v 0.00443101 0.07314550 0.08153271
v 0.01102465 0.07415348 0.06468415
v 0.01102465 0.07415348 0.06468415
v 0.01193773 0.07431495 0.05720305
v 0.01220566 0.07439452 0.01004433
v 0.01193773 0.07431495 0.05720305
v 0.01295679 0.07446002 0.04981487
v 0.01220566 0.07439452 0.01004433
v 0.01295679 0.07446002 0.04981487
v 0.01393586 0.07465094 0.04103535
vn -0.25030706 0.85907312 0.44647481
vn -0.25030706 0.85907312 0.44647481
vn -0.25030706 0.85907312 0.44647481
vn -0.00120706 0.72799664 0.68557964
vn -0.00120706 0.72799664 0.68557964
vn -0.00120706 0.72799664 0.68557964
vn -0.76126542 0.58255902 0.28478054
vn -0.76126542 0.58255902 0.28478054
vn -0.76126542 0.58255902 0.28478054
vn -0.15873715 0.75030888 0.64174691
vn -0.15873715 0.75030888 0.64174691
vn -0.15873715 0.75030888 0.64174691
vn -0.60732248 0.66236574 0.43866961
vn -0.60732248 0.66236574 0.43866961
vn -0.60732248 0.66236574 0.43866961
vn -0.52895856 0.73999070 0.41547155
vn -0.52895856 0.73999070 0.41547155
vn -0.52895856 0.73999070 0.41547155
vn 0.15558370 -0.98780109 0.00653622
vn 0.15558370 -0.98780109 0.00653622
vn 0.15558370 -0.98780109 0.00653622
vn 0.15996900 -0.98712203 -0.00009621
vn 0.16004290 -0.98711000 -0.00033979
vn 0.15967554 -0.98716955 -0.00010344
vn 0.15878043 -0.98731353 -0.00088157
vn 0.16177664 -0.98682560 -0.00188705
vn 0.16296655 -0.98662903 -0.00224780
vn 0.15987994 -0.98713647 0.00006971
vn 0.15993871 -0.98712694 0.00007243
vn 0.15419937 -0.98795232 0.01314423
vn 0.15419937 -0.98795232 0.01314423
vn 0.15419937 -0.98795232 0.01314423
vn 0.16528180 -0.98624476 -0.00179086
vn 0.16528180 -0.98624476 -0.00179086
vn 0.16528180 -0.98624476 -0.00179086
vn 0.15996455 -0.98712273 0.00022241
vn -0.93416683 0.33970711 -0.10923096
vn -0.93416683 0.33970711 -0.10923096
vn -0.93416683 0.33970711 -0.10923096
vn -0.93174392 0.34961833 -0.09808309
vn -0.93179063 0.34949375 -0.09808335
vn -0.93178951 0.34949672 -0.09808334
vn -0.93174254 0.34962200 -0.09808308
vn 0.34747609 0.54931645 0.75994198
vn 0.34747609 0.54931645 0.75994198
vn 0.34747609 0.54931645 0.75994198
vn -0.32179628 0.47627200 0.81829832
vn -0.32179628 0.47627200 0.81829832
vn -0.32179628 0.47627200 0.81829832
vn 0.07042378 0.52756558 0.84659025
vn 0.07042378 0.52756558 0.84659025
vn 0.07042378 0.52756558 0.84659025
vn -0.09193255 0.46066807 0.88279858
vn -0.09193255 0.46066807 0.88279858
vn -0.09193255 0.46066807 0.88279858
vn -0.61194539 0.42824389 0.66492858
vn -0.61194539 0.42824389 0.66492858
vn -0.61194539 0.42824389 0.66492858
vn -0.47615694 0.43519676 0.76411933
vn -0.47615694 0.43519676 0.76411933
vn -0.47615694 0.43519676 0.76411933
vn -0.69229115 0.39164217 0.60609353
vn -0.69229115 0.39164217 0.60609353
vn -0.69229115 0.39164217 0.60609353
vn -0.87768191 0.35586869 0.32098590
vn -0.87768191 0.35586869 0.32098590
vn -0.87768191 0.35586869 0.32098590
vn -0.87466940 0.35840165 0.32634598
vn -0.87466940 0.35840165 0.32634598
vn -0.87466940 0.35840165 0.32634598
vn 0.74780324 0.62279358 0.23004015
vn 0.74780324 0.62279358 0.23004015
vn 0.74780324 0.62279358 0.23004015
vn 0.75583535 0.64668801 0.10250631
vn 0.75583535 0.64668801 0.10250631
vn 0.75583535 0.64668801 0.10250631
vn 0.76858108 0.63170274 0.10116707
vn 0.76858108 0.63170274 0.10116707
vn 0.76858108 0.63170274 0.10116707
vn 0.75580095 0.64107055 0.13339220
vn 0.75580095 0.64107055 0.13339220
vn 0.75580095 0.64107055 0.13339220
vn 0.77383751 0.62659593 0.09248272
vn 0.77383751 0.62659593 0.09248272
vn 0.77383751 0.62659593 0.09248272
vn 0.39321113 0.58362901 0.71046618
vn 0.39321113 0.58362901 0.71046618
vn 0.39321113 0.58362901 0.71046618
vn 0.76265884 0.63522692 0.12181233
vn 0.76265884 0.63522692 0.12181233
vn 0.76265884 0.63522692 0.12181233
vn 0.53171356 0.58519293 0.61223356
vn 0.53171356 0.58519293 0.61223356
vn 0.53171356 0.58519293 0.61223356
vn 0.55015863 0.57955747 0.60119765
vn 0.55015863 0.57955747 0.60119765
vn 0.55015863 0.57955747 0.60119765
vn 0.77004625 0.62687621 0.11855375
vn 0.77004625 0.62687621 0.11855375
vn 0.77004625 0.62687621 0.11855375
vn 0.77671744 0.61887795 0.11704744
vn 0.77671744 0.61887795 0.11704744
vn 0.77671744 0.61887795 0.11704744
vn 0.63402616 0.62985575 0.44865640
vn 0.63402616 0.62985575 0.44865640
vn 0.63402616 0.62985575 0.44865640
vn 0.69194325 0.60434182 0.39495001
vn 0.69194325 0.60434182 0.39495001
vn 0.69194325 0.60434182 0.39495001
vn 0.77385917 0.62268714 0.11577008
vn 0.77385917 0.62268714 0.11577008
vn 0.77385917 0.62268714 0.11577008
vn 0.74647296 0.62628140 0.22483266
vn 0.74647296 0.62628140 0.22483266
vn 0.74647296 0.62628140 0.22483266
vn 0.02306365 -0.10637399 -0.99405867
vn 0.02306365 -0.10637399 -0.99405867
vn 0.02306365 -0.10637399 -0.99405867
vn 0.02052841 -0.06864762 -0.99742974
vn 0.02052841 -0.06864762 -0.99742974
vn 0.02052841 -0.06864762 -0.99742974
vn 0.14456716 -0.88562191 -0.44133226
vn 0.14456716 -0.88562191 -0.44133226
vn 0.14456716 -0.88562191 -0.44133226
vn 0.15406336 -0.84084857 -0.51888165
vn 0.15406336 -0.84084857 -0.51888165
vn 0.15406336 -0.84084857 -0.51888165
vn 0.06873953 -0.52498055 -0.84833384
vn 0.06873953 -0.52498055 -0.84833384
vn 0.06873953 -0.52498055 -0.84833384
vn 0.07616602 -0.33900538 -0.93769616
vn 0.07616602 -0.33900538 -0.93769616
vn 0.07616602 -0.33900538 -0.93769616
vn -0.42015194 0.90696279 -0.02984715
vn -0.42015194 0.90696279 -0.02984715
vn -0.42015194 0.90696279 -0.02984715
vn -0.76330600 0.64164591 -0.07519633
vn -0.76330600 0.64164591 -0.07519633
vn -0.76330600 0.64164591 -0.07519633
vn -0.73261294 0.67682670 -0.07199929
vn -0.73261294 0.67682670 -0.07199929
vn -0.73261294 0.67682670 -0.07199929
vn -0.00168597 0.99844291 0.05575771
vn -0.00168597 0.99844291 0.05575771
vn -0.00168597 0.99844291 0.05575771
vn 0.42623944 0.83148774 0.35629773
vn 0.42623944 0.83148774 0.35629773
vn 0.42623944 0.83148774 0.35629773
vn 0.36170571 0.88010752 0.30753818
vn 0.36170571 0.88010752 0.30753818
vn 0.36170571 0.88010752 0.30753818
vn 0.41552527 0.90823761 0.04942870
vn 0.41552527 0.90823761 0.04942870
vn 0.41552527 0.90823761 0.04942870
vn 0.24844707 0.92351184 0.29223268
vn 0.24844707 0.92351184 0.29223268
vn 0.24844707 0.92351184 0.29223268
vn 0.27861144 0.95839142 0.06214132
vn 0.27861144 0.95839142 0.06214132
vn 0.27861144 0.95839142 0.06214132
vn 0.20338325 0.78590045 0.58394840
vn 0.20338325 0.78590045 0.58394840
vn 0.20338325 0.78590045 0.58394840
vn 0.35988436 0.93110053 0.05945625
vn 0.35988436 0.93110053 0.05945625
vn 0.35988436 0.93110053 0.05945625
vn 0.11610522 0.93787523 0.32697039
vn 0.11610522 0.93787523 0.32697039
vn 0.11610522 0.93787523 0.32697039
vn -0.09466576 0.98282033 0.15843796
vn -0.09466576 0.98282033 0.15843796
vn -0.09466576 0.98282033 0.15843796
vn 0.27811016 0.95914664 0.05188900
vn 0.27811016 0.95914664 0.05188900
vn 0.27811016 0.95914664 0.05188900
vn -0.00376913 0.99981094 0.01907573
vn -0.00376913 0.99981094 0.01907573
vn -0.00376913 0.99981094 0.01907573
vn 0.59708356 0.79719655 0.08926862
vn 0.59603277 0.79781486 0.09075451
vn 0.59788559 0.79672175 0.08813217
vn 0.26855659 0.96189963 0.05124890
vn 0.27276248 0.96070387 0.05146558
vn 0.26843662 0.96193326 0.05124636
vn 0.27309368 0.96061625 0.05134449
vn 0.59519703 0.79830361 0.09193384
vn 0.27602818 0.95946309 0.05691234
vn 0.27602818 0.95946309 0.05691234
vn 0.27602818 0.95946309 0.05691234
vn 0.26685678 0.96218448 0.05466700
vn 0.27016480 0.96130451 0.05389453
vn 0.52146549 0.84864630 0.08873104
vn 0.52146549 0.84864630 0.08873104
vn 0.52146549 0.84864630 0.08873104
vn 0.67391543 0.73216809 0.09883256
vn 0.67348726 0.73252904 0.09907632
vn 0.67102352 0.73459657 0.10047546
vn 0.27065651 0.96117262 0.05377959
vn 0.51963621 0.85019561 0.08453184
vn 0.51963621 0.85019561 0.08453184
vn 0.51963621 0.85019561 0.08453184
vn 0.29356275 0.95336888 0.07006210
vn 0.29356275 0.95336888 0.07006210
vn 0.29356275 0.95336888 0.07006210
vn 0.38916991 0.91762106 0.08073648
vn 0.38916991 0.91762106 0.08073648
vn 0.38916991 0.91762106 0.08073648
vn 0.26288305 0.96095560 0.08635297
vn 0.26288305 0.96095560 0.08635297
vn 0.26288305 0.96095560 0.08635297
vn 0.26596451 0.96169803 0.06633077
vn 0.26543762 0.96185440 0.06617387
vn 0.27314269 0.95953380 0.06846864
vn 0.52188403 0.84594620 0.10959966
vn 0.52188403 0.84594620 0.10959966
vn 0.52188403 0.84594620 0.10959966
vn 0.45287294 0.86737912 0.20629971
vn 0.45287294 0.86737912 0.20629971
vn 0.45287294 0.86737912 0.20629971
vn 0.27363792 0.95938215 0.06861616
vn 0.67052879 0.73500982 0.10075570
vn -0.16117442 0.98691840 -0.00385840
vn -0.16180738 0.98681302 -0.00429437
vn -0.16184766 0.98680612 -0.00436128
vn -0.16221419 0.98674564 -0.00442701
vn -0.16235378 0.98672233 -0.00450511
vn -0.17159837 0.98516473 0.00211112
vn -0.17202604 0.98508970 0.00230709
vn -0.17202604 0.98508970 0.00230709
vn -0.15732587 0.98754605 -0.00117387
vn -0.15850921 0.98735726 0.00067981
vn -0.15850921 0.98735726 0.00067981
vn -0.15727074 0.98755472 -0.00126020
vn -0.15727074 0.98755472 -0.00126020
vn -0.14822187 0.98895345 0.00115885
vn -0.14822187 0.98895345 0.00115885
vn -0.14822187 0.98895345 0.00115885
vn -0.16852979 0.98569631 0.00070554
vn -0.16852979 0.98569631 0.00070554
vn -0.13448229 0.99091558 0.00090779
vn -0.13448229 0.99091558 0.00090779
vn -0.13448229 0.99091558 0.00090779
vn -0.17657174 0.98428628 0.00171363
vn -0.17657174 0.98428628 0.00171363
vn -0.17657174 0.98428628 0.00171363
f 1//1 2//2 3//3
f 4//4 5//5 6//6
f 7//7 8//8 9//9
f 10//10 11//11 12//12
f 13//13 14//14 15//15
f 16//16 17//17 18//18
f 19//19 20//20 21//21
f 22//22 23//23 24//24
f 25//25 26//26 27//27
f 24//24 25//25 28//28
f 22//22 24//24 29//29
f 24//24 26//26 25//25
f 30//30 31//31 32//32
f 33//33 34//34 35//35
f 36//36 24//24 28//28
f 29//29 24//24 36//36
f 37//37 38//38 39//39
f 40//40 41//41 42//42
f 43//43 40//40 42//42
f 44//44 45//45 46//46
f 47//47 48//48 49//49
f 50//50 51//51 52//52
f 53//53 54//54 55//55
f 56//56 57//57 58//58
f 59//59 60//60 61//61
f 62//62 63//63 64//64
f 65//65 66//66 67//67
f 68//68 69//69 70//70
f 71//71 72//72 73//73
f 74//74 75//75 76//76
f 77//77 78//78 79//79
f 80//80 81//81 82//82
f 83//83 84//84 85//85
f 86//86 87//87 88//88
f 89//89 90//90 91//91
f 92//92 93//93 94//94
f 95//95 96//96 97//97
f 98//98 99//99 100//100
f 101//101 102//102 103//103
f 104//104 105//105 106//106
f 107//107 108//108 109//109
f 110//110 111//111 112//112
f 113//113 114//114 115//115
f 116//116 117//117 118//118
f 119//119 120//120 121//121
f 122//122 123//123 124//124
f 125//125 126//126 127//127
f 128//128 129//129 130//130
f 131//131 132//132 133//133
f 134//134 135//135 136//136
f 137//137 138//138 139//139
f 140//140 141//141 142//142
f 143//143 144//144 145//145
f 146//146 147//147 148//148
f 149//149 150//150 151//151
f 152//152 153//153 154//154
f 155//155 156//156 157//157
f 158//158 159//159 160//160
f 161//161 162//162 163//163
f 164//164 165//165 166//166
f 167//167 168//168 169//169
f 170//170 171//171 172//172
f 173//173 174//174 175//175
f 176//176 177//177 178//178
f 179//179 180//180 181//181
f 182//182 183//183 184//184
f 185//185 183//183 182//182
f 179//179 186//186 180//180
f 187//187 188//188 189//189
f 183//183 190//190 191//191
f 192//192 193//193 194//194
f 195//195 196//196 197//197
f 191//191 190//190 198//198
f 199//199 200//200 201//201
f 202//202 203//203 204//204
f 205//205 206//206 207//207
f 208//208 209//209 210//210
f 211//211 212//212 213//213
f 214//214 215//215 216//216
f 217//217 218//218 219//219
f 211//211 213//213 220//220
f 197//197 196//196 221//221
f 222//222 223//223 224//224
f 225//225 223//223 222//222
f 226//226 223//223 225//225
f 227//227 228//228 229//229
f 230//230 231//231 232//232
f 233//233 230//230 234//234
f 235//235 236//236 237//237
f 227//227 238//238 239//239
f 240//240 241//241 242//242
f 243//243 244//244 245//245

