# https://github.com/mikedh/trimesh
v -0.02556133 0.07589513 0.04064399
v -0.02707463 0.07565468 0.04000157
v -0.02716821 0.07564133 0.04000157
v -0.02832305 0.07545632 0.03916937
v -0.02736449 0.07560533 0.03765553
v -0.02825528 0.07545483 0.03782474
v -0.02848589 0.07542520 0.03633189
v -0.02826327 0.07546216 0.03604757
v -0.02846533 0.07542949 0.03583765
v -0.02911812 0.07529574 0.03763115
v -0.02832305 0.07545632 0.03916937
v -0.02825528 0.07545483 0.03782474
v -0.02832305 0.07545632 0.03916937
v -0.02716821 0.07564133 0.04000157
v -0.02717119 0.07563906 0.03947538
v -0.02240002 0.07641178 0.03818774
v -0.02320486 0.07628142 0.03822362
v -0.02313262 0.07625848 0.03864157
v -0.02240002 0.07641178 0.03818774
v -0.02313262 0.07625848 0.03864157
v -0.02276617 0.07630652 0.03873229
v -0.02619808 0.07579660 0.03845000
v -0.02706402 0.07565641 0.03949350
v -0.02832305 0.07545632 0.03916937
v -0.02689611 0.07568353 0.03774285
v -0.02736449 0.07560533 0.03765553
v -0.02689611 0.07568353 0.03625684
v -0.02819085 0.07547718 0.03494668
v -0.02773267 0.07554799 0.03560948
v -0.02773267 0.07554799 0.03560948
v -0.02819085 0.07547718 0.03494668
v -0.02786785 0.07552617 0.03552693
v -0.02779608 0.07553780 0.03587383
v -0.02773940 0.07554763 0.03576207
v -0.02786463 0.07552683 0.03562498
v -0.02375853 0.07619178 0.03439170
v -0.02375495 0.07619231 0.03447026
v -0.02338773 0.07624405 0.03396779
v -0.02689611 0.07568353 0.03625684
v -0.02773267 0.07554799 0.03560948
v -0.02765911 0.07555991 0.03581070
v -0.02848589 0.07542520 0.03633189
v -0.02846533 0.07542949 0.03583765
v -0.02897042 0.07533895 0.03612375
v -0.02748924 0.07558751 0.03424227
v -0.02619808 0.07579660 0.03554975
v -0.02578639 0.07585251 0.03532356
v -0.02748924 0.07558751 0.03424227
v -0.02578639 0.07585251 0.03532356
v -0.02630174 0.07577943 0.03450000
v -0.02473163 0.07603412 0.03554975
v -0.02375495 0.07619231 0.03447026
v -0.02426993 0.07610887 0.03458011
v -0.02375495 0.07619231 0.03447026
v -0.02256989 0.07639008 0.03487133
v -0.02338773 0.07624405 0.03396779
v -0.02256989 0.07639008 0.03487133
v -0.02403366 0.07614719 0.03625684
v -0.02331900 0.07625281 0.03617560
v -0.02434158 0.07609730 0.03401434
v -0.02375853 0.07619178 0.03439170
v -0.02338773 0.07624405 0.03396779
v -0.02876955 0.07537966 0.03700000
v -0.02848589 0.07542520 0.03633189
v -0.02897042 0.07533895 0.03612375
v -0.02489650 0.07600557 0.03384423
v -0.02434158 0.07609730 0.03401434
v -0.02338773 0.07624405 0.03396779
v -0.02479583 0.07598519 0.04072833
v -0.02489650 0.07600557 0.04015547
v -0.02578783 0.07585585 0.04032576
v -0.02426993 0.07610887 0.03447192
v -0.02242869 0.07640510 0.03634423
v -0.02194792 0.07648605 0.03733479
v -0.02256989 0.07639008 0.03487133
v -0.02489662 0.07600504 0.03884422
v -0.02383697 0.07614028 0.03936338
v -0.02473163 0.07603412 0.03845000
v -0.02454829 0.07606387 0.03437376
v -0.02435928 0.07609444 0.03437376
v -0.02434158 0.07609730 0.03401434
v -0.02489650 0.07600557 0.03384423
v -0.02826339 0.07546216 0.03551322
v -0.02456545 0.07610911 0.03447216
v -0.02454829 0.07606387 0.03437376
v -0.02489650 0.07600557 0.03384423
v -0.02216041 0.07645010 0.03699928
v -0.02194792 0.07648605 0.03733479
v -0.02242869 0.07640510 0.03634423
v -0.02456545 0.07610911 0.03447216
v -0.02435928 0.07609444 0.03458011
v -0.02435928 0.07609444 0.03447192
v -0.02578741 0.07585453 0.03367501
v -0.02489650 0.07600557 0.03384423
v -0.02338773 0.07624405 0.03396779
v -0.02760750 0.07556241 0.03617346
v -0.02689611 0.07568353 0.03625684
v -0.02765911 0.07555991 0.03581070
v -0.02578741 0.07585453 0.03367501
v -0.02338773 0.07624405 0.03396779
v -0.02497512 0.07597124 0.03328126
v -0.02331900 0.07625281 0.03617560
v -0.02242869 0.07640510 0.03634423
v -0.02256989 0.07639008 0.03487133
v -0.02660191 0.07573121 0.03948873
v -0.02646195 0.07575386 0.03955799
v -0.02630180 0.07577961 0.03949928
v -0.02800643 0.07550376 0.03574293
v -0.02779608 0.07553780 0.03587383
v -0.02786463 0.07552683 0.03562498
v -0.02637130 0.07576853 0.03973639
v -0.02808314 0.07549130 0.03571337
v -0.02786785 0.07552617 0.03552693
v -0.02826339 0.07546216 0.03551322
v -0.02660191 0.07573121 0.03948873
v -0.02630180 0.07577961 0.03949928
v -0.02578663 0.07585310 0.03867584
v -0.02789497 0.07552176 0.03590399
v -0.02637130 0.07576853 0.03973639
v -0.02578783 0.07585585 0.04032576
v -0.02630180 0.07577961 0.03949928
v -0.02489656 0.07600528 0.03515559
v -0.02435928 0.07609444 0.03458011
v -0.02489656 0.07600528 0.03515559
v -0.02435928 0.07609444 0.03458011
v -0.02456545 0.07610911 0.03447216
v -0.02242863 0.07640540 0.03765577
v -0.02825105 0.07546406 0.03561180
v -0.02760750 0.07556241 0.03617346
v -0.02765911 0.07555991 0.03581070
v -0.02786254 0.07552701 0.03601390
v -0.02825105 0.07546406 0.03561180
v -0.02807253 0.07549244 0.03582310
v -0.02808314 0.07549130 0.03571337
v -0.02706271 0.07563799 0.03364127
v -0.02578741 0.07585453 0.03367501
v -0.02497512 0.07597124 0.03328126
v -0.02642858 0.07575929 0.03990316
v -0.02473163 0.07603412 0.03554975
v -0.02426993 0.07610887 0.03458011
v -0.02489656 0.07600528 0.03515559
v -0.02911812 0.07529574 0.03763115
v -0.02876955 0.07537966 0.03700000
v -0.02897042 0.07533895 0.03612375
v -0.02911812 0.07529574 0.03763115
v -0.02825528 0.07545483 0.03782474
v -0.02876955 0.07537966 0.03700000
v -0.02709609 0.07565069 0.03700047
v -0.02689611 0.07568353 0.03625684
v -0.02760750 0.07556241 0.03617346
v -0.02462804 0.07605063 0.03949975
v -0.02383697 0.07614028 0.03936338
v -0.02489662 0.07600504 0.03884422
v -0.02556133 0.07589513 0.04064399
v -0.02479583 0.07598519 0.04072833
v -0.02578783 0.07585585 0.04032576
v -0.02261495 0.07637697 0.03793162
v -0.02194792 0.07648605 0.03733479
v -0.02242863 0.07640540 0.03765577
v -0.02240002 0.07641178 0.03818774
v -0.02194792 0.07648605 0.03733479
v -0.02261495 0.07637697 0.03793162
v -0.02272129 0.07641750 0.03791904
v -0.02261495 0.07637697 0.03793162
v -0.02242863 0.07640540 0.03765577
v -0.02383387 0.07617908 0.03700000
v -0.02331900 0.07625281 0.03617560
v -0.02403366 0.07614719 0.03625684
v -0.02578663 0.07585310 0.03867584
v -0.02489662 0.07600504 0.03884422
v -0.02473163 0.07603412 0.03845000
v -0.02706271 0.07563799 0.03364127
v -0.02630174 0.07577943 0.03450000
v -0.02578741 0.07585453 0.03367501
v -0.02809339 0.07548958 0.03599232
v -0.02786254 0.07552701 0.03601390
v -0.02802968 0.07549989 0.03590399
v -0.02578639 0.07585251 0.03532356
v -0.02479583 0.07598519 0.04072833
v -0.02356392 0.07620149 0.04013472
v -0.02383697 0.07614028 0.03936338
v -0.02670741 0.07571440 0.03984892
v -0.02645343 0.07575529 0.03977864
v -0.02648854 0.07574951 0.03965836
v -0.02670741 0.07571440 0.03984892
v -0.02657461 0.07573515 0.03990310
v -0.02645343 0.07575529 0.03977864
v -0.02897042 0.07533895 0.03612375
v -0.02844911 0.07543206 0.03567868
v -0.02826339 0.07546216 0.03551322
v -0.02897042 0.07533895 0.03612375
v -0.02826339 0.07546216 0.03551322
v -0.02819085 0.07547718 0.03494668
v -0.02660894 0.07573002 0.03958821
v -0.02276617 0.07630652 0.03873229
v -0.02232486 0.07638549 0.03897452
v -0.02194792 0.07648605 0.03733479
v -0.02760750 0.07556241 0.03617346
v -0.02786254 0.07552701 0.03601390
v -0.02809339 0.07548958 0.03599232
v -0.02276617 0.07630652 0.03873229
v -0.02194792 0.07648605 0.03733479
v -0.02240002 0.07641178 0.03818774
v -0.02320486 0.07628142 0.03812527
v -0.02259415 0.07638037 0.03812402
v -0.02272129 0.07641750 0.03791904
v -0.02320486 0.07628142 0.03812527
v -0.02272129 0.07641750 0.03791904
v -0.02354973 0.07622390 0.03766775
v -0.02706402 0.07565641 0.03949350
v -0.02578663 0.07585310 0.03867584
v -0.02619808 0.07579660 0.03845000
v -0.02833282 0.07545089 0.03589016
v -0.02820777 0.07547134 0.03594273
v -0.02807253 0.07549244 0.03582310
v -0.02706402 0.07565641 0.03949350
v -0.02748924 0.07558751 0.03424227
v -0.02630174 0.07577943 0.03450000
v -0.02706271 0.07563799 0.03364127
v -0.02833282 0.07545089 0.03589016
v -0.02839577 0.07544052 0.03576225
v -0.02619808 0.07579660 0.03554975
v -0.02473163 0.07603412 0.03554975
v -0.02578639 0.07585251 0.03532356
v -0.02807253 0.07549244 0.03582310
v -0.02403366 0.07614719 0.03774285
v -0.02354973 0.07622390 0.03766775
v -0.02383387 0.07617908 0.03700000
v -0.02320486 0.07628142 0.03822362
v -0.02320486 0.07628142 0.03812527
v -0.02403366 0.07614719 0.03774285
v -0.02320486 0.07628142 0.03812527
v -0.02354973 0.07622390 0.03766775
v -0.02403366 0.07614719 0.03625684
v -0.02313262 0.07625848 0.03864157
v -0.02320486 0.07628142 0.03822362
v -0.02403366 0.07614719 0.03774285
v -0.02819085 0.07547718 0.03494668
v -0.02748924 0.07558751 0.03424227
v -0.02706271 0.07563799 0.03364127
v -0.02844911 0.07543206 0.03567868
v -0.02462804 0.07605063 0.03949975
v -0.02479583 0.07598519 0.04072833
v -0.02383697 0.07614028 0.03936338
v -0.02848589 0.07542520 0.03633189
v -0.02809339 0.07548958 0.03599232
v -0.02556133 0.07589513 0.04064399
v -0.02642858 0.07575929 0.03990316
v -0.02659249 0.07573276 0.04000622
v -0.02556133 0.07589513 0.04064399
v -0.02578783 0.07585585 0.04032576
v -0.02642858 0.07575929 0.03990316
v -0.02489650 0.07600557 0.04015547
v -0.02479583 0.07598519 0.04072833
v -0.02462804 0.07605063 0.03949975
v -0.02689611 0.07568353 0.03774285
v -0.02709609 0.07565069 0.03700047
v -0.02736449 0.07560533 0.03765553
v -0.02556133 0.07589513 0.04064399
v -0.02659249 0.07573276 0.04000622
v -0.02675497 0.07570642 0.03992921
v -0.02619808 0.07579660 0.03845000
v -0.02578663 0.07585310 0.03867584
v -0.02473163 0.07603412 0.03845000
v -0.02707463 0.07565468 0.04000157
v -0.02675497 0.07570642 0.03992921
v -0.02707111 0.07565522 0.03960454
v -0.02194792 0.07648605 0.03733479
v -0.02183032 0.07630836 0.03549927
v -0.02256989 0.07639008 0.03487133
v -0.02194792 0.07648605 0.03733479
v -0.02152431 0.07632911 0.03698772
v -0.02183032 0.07630836 0.03549927
v -0.02180922 0.07641983 0.03806328
v -0.02152431 0.07632911 0.03698772
v -0.02194792 0.07648605 0.03733479
v -0.02232486 0.07638549 0.03897452
v -0.02208918 0.07610833 0.03912591
v -0.02162694 0.07614022 0.03821223
v -0.02232486 0.07638549 0.03897452
v -0.02162694 0.07614022 0.03821223
v -0.02180922 0.07641983 0.03806328
v -0.02194792 0.07648605 0.03733479
v -0.02232486 0.07638549 0.03897452
v -0.02180922 0.07641983 0.03806328
v -0.02497512 0.07597124 0.03328126
v -0.02473783 0.07574981 0.03308027
v -0.02613610 0.07547891 0.03304994
v -0.02497512 0.07597124 0.03328126
v -0.02370363 0.07584375 0.03338187
v -0.02473783 0.07574981 0.03308027
v -0.02180922 0.07641983 0.03806328
v -0.02162694 0.07614022 0.03821223
v -0.02152431 0.07632911 0.03698772
v -0.02338773 0.07624405 0.03396779
v -0.02370363 0.07584375 0.03338187
v -0.02497512 0.07597124 0.03328126
v -0.02338773 0.07624405 0.03396779
v -0.02256006 0.07609242 0.03423959
v -0.02370363 0.07584375 0.03338187
v -0.02256989 0.07639008 0.03487133
v -0.02256006 0.07609242 0.03423959
v -0.02338773 0.07624405 0.03396779
v -0.02183032 0.07630836 0.03549927
v -0.02256006 0.07609242 0.03423959
v -0.02256989 0.07639008 0.03487133
v -0.02152431 0.07632911 0.03698772
v -0.02152305 0.07616448 0.03624057
v -0.02183032 0.07630836 0.03549927
v -0.02933174 0.07500988 0.03656166
v -0.02927821 0.07495254 0.03779494
v -0.02911812 0.07529574 0.03763115
v -0.02897042 0.07533895 0.03612375
v -0.02933174 0.07500988 0.03656166
v -0.02911812 0.07529574 0.03763115
v -0.02897042 0.07533895 0.03612375
v -0.02910888 0.07505124 0.03564488
v -0.02933174 0.07500988 0.03656166
v -0.02870017 0.07518649 0.03485292
v -0.02910888 0.07505124 0.03564488
v -0.02897042 0.07533895 0.03612375
v -0.02706271 0.07563799 0.03364127
v -0.02870017 0.07518649 0.03485292
v -0.02897042 0.07533895 0.03612375
v -0.02706271 0.07563799 0.03364127
v -0.02897042 0.07533895 0.03612375
v -0.02819085 0.07547718 0.03494668
v -0.02590626 0.07561439 0.04094326
v -0.02479583 0.07598519 0.04072833
v -0.02556133 0.07589513 0.04064399
v -0.02706271 0.07563799 0.03364127
v -0.02819681 0.07518541 0.03419578
v -0.02870017 0.07518649 0.03485292
v -0.02706271 0.07563799 0.03364127
v -0.02755886 0.07529389 0.03366303
v -0.02819681 0.07518541 0.03419578
v -0.02735668 0.07556676 0.04021018
v -0.02725613 0.07528555 0.04055994
v -0.02590626 0.07561439 0.04094326
v -0.02735668 0.07556676 0.04021018
v -0.02590626 0.07561439 0.04094326
v -0.02556133 0.07589513 0.04064399
v -0.02706271 0.07563799 0.03364127
v -0.02613610 0.07547891 0.03304994
v -0.02755886 0.07529389 0.03366303
v -0.02735668 0.07556676 0.04021018
v -0.02556133 0.07589513 0.04064399
v -0.02716821 0.07564133 0.04000157
v -0.02735668 0.07556676 0.04021018
v -0.02840811 0.07514113 0.03959691
v -0.02725613 0.07528555 0.04055994
v -0.02497512 0.07597124 0.03328126
v -0.02613610 0.07547891 0.03304994
v -0.02706271 0.07563799 0.03364127
v -0.02735668 0.07556676 0.04021018
v -0.02716821 0.07564133 0.04000157
v -0.02832305 0.07545632 0.03916937
v -0.02832305 0.07545632 0.03916937
v -0.02840811 0.07514113 0.03959691
v -0.02735668 0.07556676 0.04021018
v -0.02892512 0.07509779 0.03878146
v -0.02840811 0.07514113 0.03959691
v -0.02832305 0.07545632 0.03916937
v -0.02911812 0.07529574 0.03763115
v -0.02892512 0.07509779 0.03878146
v -0.02832305 0.07545632 0.03916937
v -0.02911812 0.07529574 0.03763115
v -0.02927821 0.07495254 0.03779494
v -0.02892512 0.07509779 0.03878146
v -0.02479583 0.07598519 0.04072833
v -0.02430981 0.07576060 0.04086071
v -0.02333956 0.07595318 0.04036676
v -0.02356392 0.07620149 0.04013472
v -0.02479583 0.07598519 0.04072833
v -0.02590626 0.07561439 0.04094326
v -0.02430981 0.07576060 0.04086071
v -0.02329391 0.07598394 0.04016625
v -0.02356392 0.07620149 0.04013472
v -0.02333956 0.07595318 0.04036676
v -0.02329391 0.07598394 0.04016625
v -0.02367568 0.07611244 0.03979641
v -0.02356392 0.07620149 0.04013472
v -0.02367568 0.07611244 0.03979641
v -0.02383697 0.07614028 0.03936338
v -0.02356392 0.07620149 0.04013472
v -0.02355796 0.07460337 0.03957349
v -0.02383697 0.07614028 0.03936338
v -0.02355796 0.07460337 0.03957349
v -0.02362608 0.07509887 0.03935378
v -0.02362608 0.07509887 0.03935378
v -0.02327996 0.07464843 0.03883934
v -0.02310520 0.07518321 0.03867536
v -0.02355796 0.07460337 0.03957349
v -0.02327996 0.07464843 0.03883934
v -0.02362608 0.07509887 0.03935378
v -0.02327996 0.07464843 0.03883934
v -0.02259922 0.07475864 0.03870975
v -0.02310520 0.07518321 0.03867536
v -0.02313262 0.07625848 0.03864157
v -0.02310520 0.07518321 0.03867536
v -0.02276617 0.07630652 0.03873229
v -0.02310520 0.07518321 0.03867536
v -0.02259922 0.07475864 0.03870975
v -0.02276617 0.07630652 0.03873229
v -0.02489650 0.07600569 0.03634417
v -0.02441155 0.07608598 0.03672957
v -0.02523446 0.07595270 0.03592437
v -0.02653533 0.07574200 0.03703022
v -0.02578771 0.07585525 0.03617429
v -0.02618002 0.07579952 0.03620517
v -0.02630168 0.07577949 0.03700041
v -0.02578771 0.07585525 0.03617429
v -0.02653533 0.07574200 0.03703022
v -0.02546489 0.07591474 0.03784579
v -0.02482551 0.07601898 0.03791248
v -0.02489644 0.07600569 0.03765577
v -0.02462804 0.07605057 0.03700000
v -0.02441155 0.07608598 0.03672957
v -0.02489650 0.07600569 0.03634417
v -0.02578771 0.07585525 0.03617429
v -0.02489650 0.07600569 0.03634417
v -0.02523446 0.07595270 0.03592437
v -0.02603381 0.07582318 0.03793102
v -0.02482551 0.07601898 0.03791248
v -0.02618002 0.07579952 0.03620517
v -0.02578771 0.07585525 0.03617429
v -0.02523446 0.07595270 0.03592437
v -0.02603298 0.07582163 0.03765577
v -0.02489644 0.07600569 0.03765577
v -0.02482551 0.07601898 0.03791248
v -0.02462804 0.07605057 0.03700000
v -0.02653533 0.07574200 0.03703022
v -0.02603298 0.07582163 0.03765577
v -0.02630168 0.07577949 0.03700041
v -0.02603381 0.07582318 0.03793102
v -0.02603298 0.07582163 0.03765577
v -0.02653533 0.07574200 0.03703022
v -0.02489650 0.07600569 0.03634417
v -0.02578771 0.07585525 0.03617429
v -0.02525252 0.07540255 0.03643745
v -0.02525252 0.07540255 0.03643745
v -0.02578771 0.07585525 0.03617429
v -0.02587997 0.07535171 0.03671216
v -0.02630168 0.07577949 0.03700041
v -0.02587997 0.07535171 0.03671216
v -0.02578771 0.07585525 0.03617429
v -0.02489650 0.07600569 0.03634417
v -0.02482151 0.07549697 0.03691715
v -0.02462804 0.07605057 0.03700000
v -0.02489650 0.07600569 0.03634417
v -0.02525252 0.07540255 0.03643745
v -0.02482151 0.07549697 0.03691715
v -0.02603298 0.07582163 0.03765577
v -0.02546489 0.07591474 0.03784579
v -0.02578806 0.07535892 0.03742969
v -0.02578806 0.07535892 0.03742969
v -0.02546489 0.07591474 0.03784579
v -0.02504986 0.07549655 0.03746598
v -0.02546489 0.07591474 0.03784579
v -0.02489644 0.07600569 0.03765577
v -0.02504986 0.07549655 0.03746598
v -0.02489644 0.07600569 0.03765577
v -0.02482151 0.07549697 0.03691715
v -0.02504986 0.07549655 0.03746598
v -0.02462804 0.07605057 0.03700000
v -0.02482151 0.07549697 0.03691715
v -0.02489644 0.07600569 0.03765577
v -0.02587997 0.07535171 0.03671216
v -0.02630168 0.07577949 0.03700041
v -0.02578806 0.07535892 0.03742969
v -0.02603298 0.07582163 0.03765577
v -0.02578806 0.07535892 0.03742969
v -0.02630168 0.07577949 0.03700041
v -0.02440345 0.07497298 0.03763753
v -0.02430164 0.07498943 0.03657966
v -0.02441155 0.07608598 0.03672957
v -0.02440345 0.07497298 0.03763753
v -0.02441155 0.07608598 0.03672957
v -0.02482551 0.07601898 0.03791248
v -0.02552545 0.07479125 0.03809684
v -0.02440345 0.07497298 0.03763753
v -0.02482551 0.07601898 0.03791248
v -0.02552545 0.07479125 0.03809684
v -0.02482551 0.07601898 0.03791248
v -0.02603381 0.07582318 0.03793102
v -0.02600437 0.07471370 0.03779458
v -0.02552545 0.07479125 0.03809684
v -0.02603381 0.07582318 0.03793102
v -0.02600437 0.07471370 0.03779458
v -0.02603381 0.07582318 0.03793102
v -0.02653533 0.07574200 0.03703022
v -0.02635926 0.07465618 0.03696954
v -0.02600437 0.07471370 0.03779458
v -0.02653533 0.07574200 0.03703022
v -0.02672046 0.07459771 0.03625684
v -0.02602249 0.07471072 0.03554975
v -0.02801138 0.07438862 0.03494936
v -0.02731335 0.07450169 0.03424227
v -0.02585822 0.07473737 0.03606867
v -0.02635926 0.07465618 0.03696954
v -0.02493304 0.07488715 0.03599089
v -0.02455580 0.07494831 0.03554975
v -0.02672046 0.07459771 0.03774285
v -0.02467900 0.07492834 0.03586572
v -0.02447694 0.07496106 0.03570497
v -0.02465808 0.07493174 0.03611963
v -0.02600437 0.07471370 0.03779458
v -0.02446579 0.07496303 0.03581053
v -0.02430474 0.07498890 0.03572762
v -0.02431190 0.07498770 0.03581899
v -0.02460408 0.07494020 0.03591245
v -0.02458411 0.07494354 0.03605794
v -0.02430164 0.07498943 0.03657966
v -0.02443069 0.07496863 0.03625184
v -0.02437067 0.07497841 0.03613770
v -0.02423375 0.07500028 0.03597903
v -0.02415663 0.07501292 0.03603017
v -0.02399194 0.07503962 0.03588396
v -0.02418655 0.07500809 0.03585273
v -0.02389895 0.07505464 0.03580528
v -0.02326488 0.07515740 0.03424227
v -0.02424860 0.07499802 0.03616786
v -0.02399194 0.07503962 0.03620260
v -0.02801138 0.07438862 0.03905040
v -0.02552545 0.07479125 0.03809684
v -0.02731335 0.07450169 0.03975749
v -0.02389729 0.07505494 0.03620374
v -0.02256691 0.07527041 0.03494936
v -0.02455580 0.07494831 0.03845000
v -0.02440345 0.07497298 0.03763753
v -0.02385777 0.07506138 0.03774285
v -0.02310520 0.07518321 0.03867536
v -0.02362608 0.07509887 0.03935378
v -0.02276617 0.07630652 0.03873229
v -0.02234286 0.07624161 0.03912276
v -0.02232486 0.07638549 0.03897452
v -0.02234286 0.07624161 0.03912276
v -0.02208918 0.07610833 0.03912591
v -0.02232486 0.07638549 0.03897452
v -0.02910888 0.07505124 0.03564488
v -0.02924394 0.07414585 0.03656578
v -0.02933174 0.07500988 0.03656166
v -0.02791291 0.06793272 0.03540337
v -0.02924394 0.07414585 0.03656578
v -0.02910888 0.07505124 0.03564488
v -0.02791291 0.06793272 0.03540337
v -0.02830177 0.06789553 0.03657907
v -0.02924394 0.07414585 0.03656578
v -0.02791291 0.06793272 0.03540337
v -0.02910888 0.07505124 0.03564488
v -0.02870017 0.07518649 0.03485292
v -0.02666825 0.06813430 0.03373551
v -0.02870017 0.07518649 0.03485292
v -0.02819681 0.07518541 0.03419578
v -0.02791291 0.06793272 0.03540337
v -0.02666825 0.06813430 0.03373551
v -0.02819681 0.07518541 0.03419578
v -0.02755886 0.07529389 0.03366303
v -0.02666825 0.06813430 0.03373551
v -0.02755886 0.07529389 0.03366303
v -0.02613610 0.07547891 0.03304994
v -0.02499729 0.06840497 0.03306293
v -0.02666825 0.06813430 0.03373551
v -0.02613610 0.07547891 0.03304994
v -0.02499729 0.06840497 0.03306293
v -0.02613610 0.07547891 0.03304994
v -0.02569311 0.07467108 0.03297168
v -0.02473783 0.07574981 0.03308027
v -0.02569311 0.07467108 0.03297168
v -0.02613610 0.07547891 0.03304994
v -0.02473783 0.07574981 0.03308027
v -0.02498275 0.07471406 0.03292042
v -0.02569311 0.07467108 0.03297168
v -0.02370363 0.07584375 0.03338187
v -0.02498275 0.07471406 0.03292042
v -0.02473783 0.07574981 0.03308027
v -0.02341449 0.06866049 0.03303468
v -0.02498275 0.07471406 0.03292042
v -0.02370363 0.07584375 0.03338187
v -0.02104496 0.06904500 0.03456819
v -0.02370363 0.07584375 0.03338187
v -0.02256006 0.07609242 0.03423959
v -0.02104496 0.06904500 0.03456819
v -0.02341449 0.06866049 0.03303468
v -0.02370363 0.07584375 0.03338187
v -0.02104496 0.06904500 0.03456819
v -0.02256006 0.07609242 0.03423959
v -0.02183032 0.07630836 0.03549927
v -0.02104496 0.06904500 0.03456819
v -0.02183032 0.07630836 0.03549927
v -0.02152305 0.07616448 0.03624057
v -0.02038121 0.06915259 0.03626108
v -0.02152305 0.07616448 0.03624057
v -0.02131044 0.07538968 0.03654140
v -0.02038121 0.06915259 0.03626108
v -0.02104496 0.06904500 0.03456819
v -0.02152305 0.07616448 0.03624057
v -0.02152431 0.07632911 0.03698772
v -0.02131044 0.07538968 0.03654140
v -0.02152305 0.07616448 0.03624057
v -0.02448487 0.06852203 0.03286868
v -0.02499729 0.06840497 0.03306293
v -0.02569311 0.07467108 0.03297168
v -0.02448487 0.06852203 0.03286868
v -0.02569311 0.07467108 0.03297168
v -0.02498275 0.07471406 0.03292042
v -0.02341449 0.06866049 0.03303468
v -0.02448487 0.06852203 0.03286868
v -0.02498275 0.07471406 0.03292042
v -0.02019268 0.06921732 0.03679043
v -0.02038121 0.06915259 0.03626108
v -0.02131044 0.07538968 0.03654140
v -0.02019268 0.06921732 0.03679043
v -0.02131044 0.07538968 0.03654140
v -0.02117711 0.07524079 0.03704768
v -0.02117711 0.07524079 0.03704768
v -0.02131044 0.07538968 0.03654140
v -0.02135205 0.07535219 0.03758317
v -0.02036017 0.06915646 0.03780448
v -0.02117711 0.07524079 0.03704768
v -0.02135205 0.07535219 0.03758317
v -0.02036017 0.06915646 0.03780448
v -0.02019268 0.06921732 0.03679043
v -0.02117711 0.07524079 0.03704768
v -0.02152431 0.07632911 0.03698772
v -0.02135205 0.07535219 0.03758317
v -0.02131044 0.07538968 0.03654140
v -0.02162694 0.07614022 0.03821223
v -0.02135205 0.07535219 0.03758317
v -0.02152431 0.07632911 0.03698772
v -0.02036017 0.06915646 0.03780448
v -0.02135205 0.07535219 0.03758317
v -0.02162694 0.07614022 0.03821223
v -0.02196151 0.07486194 0.03920453
v -0.02162694 0.07614022 0.03821223
v -0.02208918 0.07610833 0.03912591
v -0.02036017 0.06915646 0.03780448
v -0.02162694 0.07614022 0.03821223
v -0.02196151 0.07486194 0.03920453
v -0.02121639 0.06902652 0.03959923
v -0.02196151 0.07486194 0.03920453
v -0.02233242 0.07480186 0.03988164
v -0.02121639 0.06902652 0.03959923
v -0.02036017 0.06915646 0.03780448
v -0.02196151 0.07486194 0.03920453
v -0.02233242 0.07480186 0.03988164
v -0.02174872 0.06893503 0.04014027
v -0.02121639 0.06902652 0.03959923
v -0.02355796 0.07460337 0.03957349
v -0.02303367 0.07468831 0.04029220
v -0.02233242 0.07480186 0.03988164
v -0.02327996 0.07464843 0.03883934
v -0.02196151 0.07486194 0.03920453
v -0.02259922 0.07475864 0.03870975
v -0.02355796 0.07460337 0.03957349
v -0.02329391 0.07598394 0.04016625
v -0.02303367 0.07468831 0.04029220
v -0.02355796 0.07460337 0.03957349
v -0.02367568 0.07611244 0.03979641
v -0.02329391 0.07598394 0.04016625
v -0.02329391 0.07598394 0.04016625
v -0.02333956 0.07595318 0.04036676
v -0.02303367 0.07468831 0.04029220
v -0.02196151 0.07486194 0.03920453
v -0.02234286 0.07624161 0.03912276
v -0.02259922 0.07475864 0.03870975
v -0.02234286 0.07624161 0.03912276
v -0.02276617 0.07630652 0.03873229
v -0.02259922 0.07475864 0.03870975
v -0.02196151 0.07486194 0.03920453
v -0.02208918 0.07610833 0.03912591
v -0.02234286 0.07624161 0.03912276
v -0.02933174 0.07500988 0.03656166
v -0.02921181 0.07409828 0.03753173
v -0.02927821 0.07495254 0.03779494
v -0.02924394 0.07414585 0.03656578
v -0.02921181 0.07409828 0.03753173
v -0.02933174 0.07500988 0.03656166
v -0.02725613 0.07528555 0.04055994
v -0.02554321 0.07462304 0.04107952
v -0.02590626 0.07561439 0.04094326
v -0.02174872 0.06893503 0.04014027
v -0.02233242 0.07480186 0.03988164
v -0.02303367 0.07468831 0.04029220
v -0.02430981 0.07576060 0.04086071
v -0.02303367 0.07468831 0.04029220
v -0.02333956 0.07595318 0.04036676
v -0.02174872 0.06893503 0.04014027
v -0.02303367 0.07468831 0.04029220
v -0.02430981 0.07576060 0.04086071
v -0.02512073 0.06838417 0.04096508
v -0.02554321 0.07462304 0.04107952
v -0.02725613 0.07528555 0.04055994
v -0.02352899 0.06864267 0.04094439
v -0.02174872 0.06893503 0.04014027
v -0.02430981 0.07576060 0.04086071
v -0.02748996 0.06800115 0.03943181
v -0.02512073 0.06838417 0.04096508
v -0.02725613 0.07528555 0.04055994
v -0.02748996 0.06800115 0.03943181
v -0.02725613 0.07528555 0.04055994
v -0.02840811 0.07514113 0.03959691
v -0.02352899 0.06864267 0.04094439
v -0.02430981 0.07576060 0.04086071
v -0.02485483 0.07480788 0.04102760
v -0.02748996 0.06800115 0.03943181
v -0.02840811 0.07514113 0.03959691
v -0.02892512 0.07509779 0.03878146
v -0.02748996 0.06800115 0.03943181
v -0.02892512 0.07509779 0.03878146
v -0.02927821 0.07495254 0.03779494
v -0.02590626 0.07561439 0.04094326
v -0.02485483 0.07480788 0.04102760
v -0.02430981 0.07576060 0.04086071
v -0.02819424 0.06789451 0.03768903
v -0.02748996 0.06800115 0.03943181
v -0.02927821 0.07495254 0.03779494
v -0.02819424 0.06789451 0.03768903
v -0.02927821 0.07495254 0.03779494
v -0.02921181 0.07409828 0.03753173
v -0.02590626 0.07561439 0.04094326
v -0.02554321 0.07462304 0.04107952
v -0.02485483 0.07480788 0.04102760
v -0.02406114 0.06859064 0.04113101
v -0.02352899 0.06864267 0.04094439
v -0.02485483 0.07480788 0.04102760
v -0.02406114 0.06859064 0.04113101
v -0.02485483 0.07480788 0.04102760
v -0.02554321 0.07462304 0.04107952
v -0.02512073 0.06838417 0.04096508
v -0.02406114 0.06859064 0.04113101
v -0.02554321 0.07462304 0.04107952
v -0.02819424 0.06789451 0.03768903
v -0.02921181 0.07409828 0.03753173
v -0.02931118 0.07390916 0.03713148
v -0.02830177 0.06789553 0.03657907
v -0.02819424 0.06789451 0.03768903
v -0.02931118 0.07390916 0.03713148
v -0.02830177 0.06789553 0.03657907
v -0.02931118 0.07390916 0.03713148
v -0.02924394 0.07414585 0.03656578
v -0.02921181 0.07409828 0.03753173
v -0.02924394 0.07414585 0.03656578
v -0.02931118 0.07390916 0.03713148
v -0.02313262 0.07625848 0.03864157
v -0.02385777 0.07506138 0.03774285
v -0.02310520 0.07518321 0.03867536
v -0.02313262 0.07625848 0.03864157
v -0.02403366 0.07614719 0.03774285
v -0.02385777 0.07506138 0.03774285
v -0.02389729 0.07505494 0.03620374
v -0.02403366 0.07614719 0.03774285
v -0.02403366 0.07614719 0.03625684
v -0.02385777 0.07506138 0.03774285
v -0.02403366 0.07614719 0.03774285
v -0.02389729 0.07505494 0.03620374
v -0.02389729 0.07505494 0.03620374
v -0.02256989 0.07639008 0.03487133
v -0.02256691 0.07527041 0.03494936
v -0.02403366 0.07614719 0.03625684
v -0.02455580 0.07494831 0.03845000
v -0.02383697 0.07614028 0.03936338
v -0.02362608 0.07509887 0.03935378
v -0.02473163 0.07603412 0.03845000
v -0.02383697 0.07614028 0.03936338
v -0.02455580 0.07494831 0.03845000
v -0.02619808 0.07579660 0.03845000
v -0.02455580 0.07494831 0.03845000
v -0.02552545 0.07479125 0.03809684
v -0.02619808 0.07579660 0.03845000
v -0.02473163 0.07603412 0.03845000
v -0.02455580 0.07494831 0.03845000
v -0.02801138 0.07438862 0.03905040
v -0.02832305 0.07545632 0.03916937
v -0.02731335 0.07450169 0.03975749
v -0.02832305 0.07545632 0.03916937
v -0.02717119 0.07563906 0.03947538
v -0.02731335 0.07450169 0.03975749
v -0.02717119 0.07563906 0.03947538
v -0.02552545 0.07479125 0.03809684
v -0.02731335 0.07450169 0.03975749
v -0.02717119 0.07563906 0.03947538
v -0.02619808 0.07579660 0.03845000
v -0.02552545 0.07479125 0.03809684
v -0.02689611 0.07568353 0.03774285
v -0.02801138 0.07438862 0.03905040
v -0.02672046 0.07459771 0.03774285
v -0.02689611 0.07568353 0.03774285
v -0.02832305 0.07545632 0.03916937
v -0.02801138 0.07438862 0.03905040
v -0.02689611 0.07568353 0.03625684
v -0.02689611 0.07568353 0.03774285
v -0.02672046 0.07459771 0.03625684
v -0.02672046 0.07459771 0.03774285
v -0.02819085 0.07547718 0.03494668
v -0.02672046 0.07459771 0.03625684
v -0.02801138 0.07438862 0.03494936
v -0.02689611 0.07568353 0.03625684
v -0.02731335 0.07450169 0.03424227
v -0.02819085 0.07547718 0.03494668
v -0.02801138 0.07438862 0.03494936
v -0.02748924 0.07558751 0.03424227
v -0.02819085 0.07547718 0.03494668
v -0.02731335 0.07450169 0.03424227
v -0.02619808 0.07579660 0.03554975
v -0.02731335 0.07450169 0.03424227
v -0.02602249 0.07471072 0.03554975
v -0.02748924 0.07558751 0.03424227
v -0.02455580 0.07494831 0.03554975
v -0.02619808 0.07579660 0.03554975
v -0.02602249 0.07471072 0.03554975
v -0.02473163 0.07603412 0.03554975
v -0.02375495 0.07619231 0.03447026
v -0.02455580 0.07494831 0.03554975
v -0.02326488 0.07515740 0.03424227
v -0.02375495 0.07619231 0.03447026
v -0.02473163 0.07603412 0.03554975
v -0.02455580 0.07494831 0.03554975
v -0.02256691 0.07527041 0.03494936
v -0.02256989 0.07639008 0.03487133
v -0.02326488 0.07515740 0.03424227
v -0.02256989 0.07639008 0.03487133
v -0.02375495 0.07619231 0.03447026
v -0.02326488 0.07515740 0.03424227
v -0.02241832 0.07589036 0.03672730
v -0.02242869 0.07640510 0.03634423
v -0.02313303 0.07575315 0.03644388
v -0.02242869 0.07640510 0.03634423
v -0.02331900 0.07625281 0.03617560
v -0.02313303 0.07575315 0.03644388
v -0.02383387 0.07617908 0.03700000
v -0.02346992 0.07570475 0.03706657
v -0.02331900 0.07625281 0.03617560
v -0.02331900 0.07625281 0.03617560
v -0.02346992 0.07570475 0.03706657
v -0.02313303 0.07575315 0.03644388
v -0.02242869 0.07640510 0.03634423
v -0.02241832 0.07589036 0.03672730
v -0.02216041 0.07645010 0.03699928
v -0.02489662 0.07600504 0.03884422
v -0.02578663 0.07585310 0.03867584
v -0.02497702 0.07548344 0.03908181
v -0.02497702 0.07548344 0.03908181
v -0.02578663 0.07585310 0.03867584
v -0.02572268 0.07537585 0.03903234
v -0.02630180 0.07577961 0.03949928
v -0.02593046 0.07530528 0.03967869
v -0.02578663 0.07585310 0.03867584
v -0.02578663 0.07585310 0.03867584
v -0.02593046 0.07530528 0.03967869
v -0.02572268 0.07537585 0.03903234
v -0.02489084 0.07549554 0.03978103
v -0.02462804 0.07605063 0.03949975
v -0.02497702 0.07548344 0.03908181
v -0.02489662 0.07600504 0.03884422
v -0.02497702 0.07548344 0.03908181
v -0.02462804 0.07605063 0.03949975
v -0.02593046 0.07530528 0.03967869
v -0.02578783 0.07585585 0.04032576
v -0.02537262 0.07542294 0.04006803
v -0.02537262 0.07542294 0.04006803
v -0.02489650 0.07600557 0.04015547
v -0.02489084 0.07549554 0.03978103
v -0.02578783 0.07585585 0.04032576
v -0.02489650 0.07600557 0.04015547
v -0.02537262 0.07542294 0.04006803
v -0.02462804 0.07605063 0.03949975
v -0.02489084 0.07549554 0.03978103
v -0.02489650 0.07600557 0.04015547
v -0.02578783 0.07585585 0.04032576
v -0.02593046 0.07530528 0.03967869
v -0.02630180 0.07577961 0.03949928
v -0.02354973 0.07622390 0.03766775
v -0.02317065 0.07577872 0.03750658
v -0.02346992 0.07570475 0.03706657
v -0.02354973 0.07622390 0.03766775
v -0.02272129 0.07641750 0.03791904
v -0.02317065 0.07577872 0.03750658
v -0.02317065 0.07577872 0.03750658
v -0.02272129 0.07641750 0.03791904
v -0.02249974 0.07589352 0.03740888
v -0.02272129 0.07641750 0.03791904
v -0.02242863 0.07640540 0.03765577
v -0.02249974 0.07589352 0.03740888
v -0.02216041 0.07645010 0.03699928
v -0.02249974 0.07589352 0.03740888
v -0.02242863 0.07640540 0.03765577
v -0.02249974 0.07589352 0.03740888
v -0.02216041 0.07645010 0.03699928
v -0.02241832 0.07589036 0.03672730
v -0.02354973 0.07622390 0.03766775
v -0.02346992 0.07570475 0.03706657
v -0.02383387 0.07617908 0.03700000
v -0.02488631 0.07549065 0.03422755
v -0.02489650 0.07600557 0.03384423
v -0.02560091 0.07535344 0.03394407
v -0.02489650 0.07600557 0.03384423
v -0.02578741 0.07585453 0.03367501
v -0.02560091 0.07535344 0.03394407
v -0.02630174 0.07577943 0.03450000
v -0.02593773 0.07530504 0.03456676
v -0.02578741 0.07585453 0.03367501
v -0.02578741 0.07585453 0.03367501
v -0.02593773 0.07530504 0.03456676
v -0.02560091 0.07535344 0.03394407
v -0.02489650 0.07600557 0.03384423
v -0.02488631 0.07549065 0.03422755
v -0.02456545 0.07610911 0.03447216
v -0.02578639 0.07585251 0.03532356
v -0.02563858 0.07537901 0.03500664
v -0.02593773 0.07530504 0.03456676
v -0.02563858 0.07537901 0.03500664
v -0.02578639 0.07585251 0.03532356
v -0.02496767 0.07549381 0.03490895
v -0.02578639 0.07585251 0.03532356
v -0.02489656 0.07600528 0.03515559
v -0.02496767 0.07549381 0.03490895
v -0.02456545 0.07610911 0.03447216
v -0.02496767 0.07549381 0.03490895
v -0.02489656 0.07600528 0.03515559
v -0.02496767 0.07549381 0.03490895
v -0.02456545 0.07610911 0.03447216
v -0.02488631 0.07549065 0.03422755
v -0.02578639 0.07585251 0.03532356
v -0.02593773 0.07530504 0.03456676
v -0.02630174 0.07577943 0.03450000
v -0.02738738 0.07510238 0.03668510
v -0.02760750 0.07556241 0.03617346
v -0.02784049 0.07502323 0.03643167
v -0.02784049 0.07502323 0.03643167
v -0.02848589 0.07542520 0.03633189
v -0.02831894 0.07495784 0.03667593
v -0.02760750 0.07556241 0.03617346
v -0.02848589 0.07542520 0.03633189
v -0.02784049 0.07502323 0.03643167
v -0.02876955 0.07537966 0.03700000
v -0.02831894 0.07495784 0.03667593
v -0.02848589 0.07542520 0.03633189
v -0.02735424 0.07509094 0.03727239
v -0.02709609 0.07565069 0.03700047
v -0.02738738 0.07510238 0.03668510
v -0.02831894 0.07495784 0.03667593
v -0.02876955 0.07537966 0.03700000
v -0.02834725 0.07495254 0.03728842
v -0.02760750 0.07556241 0.03617346
v -0.02738738 0.07510238 0.03668510
v -0.02709609 0.07565069 0.03700047
v -0.02834725 0.07495254 0.03728842
v -0.02825528 0.07545483 0.03782474
v -0.02784049 0.07502323 0.03756809
v -0.02784049 0.07502323 0.03756809
v -0.02736449 0.07560533 0.03765553
v -0.02735424 0.07509094 0.03727239
v -0.02825528 0.07545483 0.03782474
v -0.02736449 0.07560533 0.03765553
v -0.02784049 0.07502323 0.03756809
v -0.02709609 0.07565069 0.03700047
v -0.02735424 0.07509094 0.03727239
v -0.02736449 0.07560533 0.03765553
v -0.02825528 0.07545483 0.03782474
v -0.02834725 0.07495254 0.03728842
v -0.02876955 0.07537966 0.03700000
v -0.02635926 0.07465618 0.03696954
v -0.02653533 0.07574200 0.03703022
v -0.02618002 0.07579952 0.03620517
v -0.02585822 0.07473737 0.03606867
v -0.02635926 0.07465618 0.03696954
v -0.02618002 0.07579952 0.03620517
v -0.02585822 0.07473737 0.03606867
v -0.02618002 0.07579952 0.03620517
v -0.02523446 0.07595270 0.03592437
v -0.02493304 0.07488715 0.03599089
v -0.02585822 0.07473737 0.03606867
v -0.02523446 0.07595270 0.03592437
v -0.02430164 0.07498943 0.03657966
v -0.02523446 0.07595270 0.03592437
v -0.02441155 0.07608598 0.03672957
v -0.02430164 0.07498943 0.03657966
v -0.02493304 0.07488715 0.03599089
v -0.02523446 0.07595270 0.03592437
v -0.02579718 0.07454460 0.03723186
v -0.02542901 0.07460427 0.03639698
v -0.02587997 0.07535171 0.03671216
v -0.02587997 0.07535171 0.03671216
v -0.02542901 0.07460427 0.03639698
v -0.02525252 0.07540255 0.03643745
v -0.02525252 0.07540255 0.03643745
v -0.02469635 0.07472288 0.03685981
v -0.02482151 0.07549697 0.03691715
v -0.02542901 0.07460427 0.03639698
v -0.02469635 0.07472288 0.03685981
v -0.02525252 0.07540255 0.03643745
v -0.02326822 0.07495421 0.03733474
v -0.02323210 0.07496011 0.03663110
v -0.02346992 0.07570475 0.03706657
v -0.02346992 0.07570475 0.03706657
v -0.02323210 0.07496011 0.03663110
v -0.02313303 0.07575315 0.03644388
v -0.02323210 0.07496011 0.03663110
v -0.02253669 0.07507270 0.03646332
v -0.02313303 0.07575315 0.03644388
v -0.02313303 0.07575315 0.03644388
v -0.02253669 0.07507270 0.03646332
v -0.02241832 0.07589036 0.03672730
v -0.02253669 0.07507270 0.03646332
v -0.02222818 0.07512271 0.03706902
v -0.02241832 0.07589036 0.03672730
v -0.02593046 0.07530528 0.03967869
v -0.02583640 0.07453823 0.03935503
v -0.02572268 0.07537585 0.03903234
v -0.02583640 0.07453823 0.03935503
v -0.02527678 0.07462894 0.03893125
v -0.02572268 0.07537585 0.03903234
v -0.02572268 0.07537585 0.03903234
v -0.02527678 0.07462894 0.03893125
v -0.02497702 0.07548344 0.03908181
v -0.02527678 0.07462894 0.03893125
v -0.02470374 0.07472175 0.03928714
v -0.02497702 0.07548344 0.03908181
v -0.02497702 0.07548344 0.03908181
v -0.02470374 0.07472175 0.03928714
v -0.02489084 0.07549554 0.03978103
v -0.02834725 0.07495254 0.03728842
v -0.02830976 0.07413768 0.03695070
v -0.02831894 0.07495784 0.03667593
v -0.02830976 0.07413768 0.03695070
v -0.02774739 0.07422876 0.03640598
v -0.02831894 0.07495784 0.03667593
v -0.02831894 0.07495784 0.03667593
v -0.02774739 0.07422876 0.03640598
v -0.02784049 0.07502323 0.03643167
v -0.02784049 0.07502323 0.03643167
v -0.02774739 0.07422876 0.03640598
v -0.02738738 0.07510238 0.03668510
v -0.02774739 0.07422876 0.03640598
v -0.02710402 0.07433295 0.03707635
v -0.02738738 0.07510238 0.03668510
v -0.02738738 0.07510238 0.03668510
v -0.02710402 0.07433295 0.03707635
v -0.02735424 0.07509094 0.03727239
v -0.02593773 0.07530504 0.03456676
v -0.02576082 0.07455044 0.03423202
v -0.02560091 0.07535344 0.03394407
v -0.02576082 0.07455044 0.03423202
v -0.02506566 0.07466310 0.03392142
v -0.02560091 0.07535344 0.03394407
v -0.02560091 0.07535344 0.03394407
v -0.02506566 0.07466310 0.03392142
v -0.02488631 0.07549065 0.03422755
v -0.02506566 0.07466310 0.03392142
v -0.02474248 0.07471543 0.03485965
v -0.02488631 0.07549065 0.03422755
v -0.02482151 0.07549697 0.03691715
v -0.02469635 0.07472288 0.03685981
v -0.02504986 0.07549655 0.03746598
v -0.02469635 0.07472288 0.03685981
v -0.02504551 0.07466638 0.03756529
v -0.02504986 0.07549655 0.03746598
v -0.02504986 0.07549655 0.03746598
v -0.02504551 0.07466638 0.03756529
v -0.02578806 0.07535892 0.03742969
v -0.02504551 0.07466638 0.03756529
v -0.02579718 0.07454460 0.03723186
v -0.02578806 0.07535892 0.03742969
v -0.02578806 0.07535892 0.03742969
v -0.02579718 0.07454460 0.03723186
v -0.02587997 0.07535171 0.03671216
v -0.02488631 0.07549065 0.03422755
v -0.02474248 0.07471543 0.03485965
v -0.02496767 0.07549381 0.03490895
v -0.02496767 0.07549381 0.03490895
v -0.02474248 0.07471543 0.03485965
v -0.02563858 0.07537901 0.03500664
v -0.02474248 0.07471543 0.03485965
v -0.02566272 0.07456642 0.03492951
v -0.02563858 0.07537901 0.03500664
v -0.02563858 0.07537901 0.03500664
v -0.02566272 0.07456642 0.03492951
v -0.02593773 0.07530504 0.03456676
v -0.02566272 0.07456642 0.03492951
v -0.02576082 0.07455044 0.03423202
v -0.02593773 0.07530504 0.03456676
v -0.02735424 0.07509094 0.03727239
v -0.02710402 0.07433295 0.03707635
v -0.02784049 0.07502323 0.03756809
v -0.02710402 0.07433295 0.03707635
v -0.02786397 0.07420980 0.03757238
v -0.02784049 0.07502323 0.03756809
v -0.02784049 0.07502323 0.03756809
v -0.02786397 0.07420980 0.03757238
v -0.02834725 0.07495254 0.03728842
v -0.02786397 0.07420980 0.03757238
v -0.02830976 0.07413768 0.03695070
v -0.02834725 0.07495254 0.03728842
v -0.02470374 0.07472175 0.03928714
v -0.02494925 0.07468193 0.03998965
v -0.02489084 0.07549554 0.03978103
v -0.02489084 0.07549554 0.03978103
v -0.02494925 0.07468193 0.03998965
v -0.02537262 0.07542294 0.04006803
v -0.02494925 0.07468193 0.03998965
v -0.02553540 0.07458704 0.03999418
v -0.02537262 0.07542294 0.04006803
v -0.02537262 0.07542294 0.04006803
v -0.02553540 0.07458704 0.03999418
v -0.02593046 0.07530528 0.03967869
v -0.02553540 0.07458704 0.03999418
v -0.02583640 0.07453823 0.03935503
v -0.02593046 0.07530528 0.03967869
v -0.02241832 0.07589036 0.03672730
v -0.02222818 0.07512271 0.03706902
v -0.02249974 0.07589352 0.03740888
v -0.02222818 0.07512271 0.03706902
v -0.02260607 0.07506150 0.03755009
v -0.02249974 0.07589352 0.03740888
v -0.02249974 0.07589352 0.03740888
v -0.02260607 0.07506150 0.03755009
v -0.02317065 0.07577872 0.03750658
v -0.02260607 0.07506150 0.03755009
v -0.02326822 0.07495421 0.03733474
v -0.02317065 0.07577872 0.03750658
v -0.02317065 0.07577872 0.03750658
v -0.02326822 0.07495421 0.03733474
v -0.02346992 0.07570475 0.03706657
vn -0.14114110 0.98926759 -0.03779982
vn -0.14114110 0.98926759 -0.03779982
vn -0.14114110 0.98926759 -0.03779982
vn -0.16835310 0.98568023 -0.00957745
vn -0.16835310 0.98568023 -0.00957745
vn -0.16835310 0.98568023 -0.00957745
vn -0.16062404 0.98701238 0.00254720
vn -0.15927905 0.98722693 0.00362821
vn -0.16148959 0.98687268 0.00185132
vn -0.17912031 0.98377515 -0.01011801
vn -0.17912031 0.98377515 -0.01011801
vn -0.17912031 0.98377515 -0.01011801
vn -0.15581441 0.98778060 -0.00336939
vn -0.15581441 0.98778060 -0.00336939
vn -0.15718412 0.98756689 -0.00219090
vn -0.15584614 0.98445699 0.08097170
vn -0.15584614 0.98445699 0.08097170
vn -0.15584614 0.98445699 0.08097170
vn -0.15104342 0.98453500 0.08875091
vn -0.15104342 0.98453500 0.08875091
vn -0.15104342 0.98453500 0.08875091
vn -0.15977072 0.98715415 0.00003584
vn -0.15971000 0.98716396 -0.00015179
vn -0.16349812 0.98652275 -0.00642037
vn -0.16349812 0.98652275 -0.00642037
vn -0.16349812 0.98652275 -0.00642037
vn -0.16816016 0.98569900 0.01093815
vn -0.16816016 0.98569900 0.01093815
vn -0.16816016 0.98569900 0.01093815
vn -0.16420187 0.98639327 0.00812770
vn -0.16049846 0.98701777 0.00601345
vn -0.16300558 0.98659706 0.00744457
vn -0.16631886 0.98606921 0.00235697
vn -0.16631886 0.98606921 0.00235697
vn -0.16631886 0.98606921 0.00235697
vn -0.13990164 0.99016536 -0.00029201
vn -0.13990164 0.99016536 -0.00029201
vn -0.13990164 0.99016536 -0.00029201
vn -0.16134414 0.98689821 0.00000919
vn -0.15994873 0.98712532 0.00002815
vn -0.15994873 0.98712532 0.00002815
vn -0.17576320 0.98443170 0.00123635
vn -0.17705390 0.98420052 -0.00111547
vn -0.17609125 0.98437364 0.00063883
vn -0.14348677 0.98951397 -0.01654240
vn -0.14348677 0.98951397 -0.01654240
vn -0.14348677 0.98951397 -0.01654240
vn -0.16252206 0.98660347 0.01414822
vn -0.16252206 0.98660347 0.01414822
vn -0.16252206 0.98660347 0.01414822
vn -0.15995158 0.98712486 -0.00006251
vn -0.15994836 0.98712538 -0.00004704
vn -0.15986231 0.98713910 0.00066266
vn -0.15963681 0.98706132 -0.01503467
vn -0.15963681 0.98706132 -0.01503467
vn -0.15963681 0.98706132 -0.01503467
vn -0.14376972 0.98937643 0.02155355
vn -0.14376972 0.98937643 0.02155355
vn -0.14376972 0.98937643 0.02155355
vn -0.15260245 0.98821909 -0.01164152
vn -0.15260245 0.98821909 -0.01164152
vn -0.15260245 0.98821909 -0.01164152
vn -0.17267245 0.98495993 -0.00617752
vn -0.17267245 0.98495993 -0.00617752
vn -0.17267245 0.98495993 -0.00617752
vn -0.15349878 0.98763549 -0.03184743
vn -0.15349878 0.98763549 -0.03184743
vn -0.15349878 0.98763549 -0.03184743
vn -0.15378194 0.98615126 0.06210315
vn -0.15378194 0.98615126 0.06210315
vn -0.15378194 0.98615126 0.06210315
vn -0.15993858 0.98712697 0.00000000
vn -0.18061243 0.98352737 0.00728458
vn -0.18061243 0.98352737 0.00728458
vn -0.18061243 0.98352737 0.00728458
vn -0.13464074 0.99075319 0.01673280
vn -0.13464074 0.99075319 0.01673280
vn -0.13464074 0.99075319 0.01673280
vn -0.16116812 0.98692656 -0.00089446
vn -0.15966124 0.98717186 -0.00000500
vn -0.16180957 0.98682118 -0.00127317
vn -0.16257688 0.98669437 -0.00172627
vn -0.15993572 0.98711102 0.00569233
vn 0.36497399 0.86842277 -0.33561269
vn 0.36497399 0.86842277 -0.33561269
vn 0.36497399 0.86842277 -0.33561269
vn -0.16847988 0.98570449 0.00108863
vn -0.16609702 0.98610931 -0.00046391
vn -0.16932966 0.98555810 0.00164252
vn 0.07097615 0.99747801 0.00000000
vn 0.07097615 0.99747801 0.00000000
vn 0.07097615 0.99747801 0.00000000
vn -0.14691951 0.98361982 -0.10443514
vn -0.14691951 0.98361982 -0.10443514
vn -0.14691951 0.98361982 -0.10443514
vn -0.16978957 0.98532749 0.01735651
vn -0.16978957 0.98532749 0.01735651
vn -0.16978957 0.98532749 0.01735651
vn -0.15654210 0.98720529 -0.03033621
vn -0.15654210 0.98720529 -0.03033621
vn -0.15654210 0.98720529 -0.03033621
vn -0.16974545 0.98546829 0.00622303
vn -0.16974545 0.98546829 0.00622303
vn -0.16974545 0.98546829 0.00622303
vn -0.15965355 0.98717310 0.00015570
vn -0.15906886 0.98726707 -0.00091244
vn -0.15898022 0.98728154 -0.00066432
vn -0.16026199 0.98707444 0.00039254
vn -0.16005670 0.98710770 0.00049779
vn -0.16067129 0.98700782 -0.00055478
vn -0.15890197 0.98729427 -0.00044528
vn -0.16015777 0.98709142 0.00010398
vn -0.16046039 0.98704204 -0.00069002
vn -0.16020005 0.98708441 0.00056554
vn -0.15962899 0.98710312 -0.01208384
vn -0.15881748 0.98724388 -0.01124884
vn -0.15934447 0.98715263 -0.01179106
vn -0.15999932 0.98711704 0.00040316
vn -0.15042373 0.98861859 0.00244454
vn -0.15051876 0.98860389 0.00254080
vn -0.15016266 0.98865890 0.00218011
vn -0.15944980 0.98719759 0.00408431
vn -0.15944980 0.98719759 0.00408431
vn -0.00662222 0.98910496 0.14706302
vn -0.00662222 0.98910496 0.14706302
vn -0.00662222 0.98910496 0.14706302
vn -0.16586482 0.98614831 -0.00061515
vn -0.15996983 0.98712166 0.00070069
vn -0.14840135 0.98884249 0.01294456
vn -0.14601820 0.98918357 0.01394790
vn -0.14601820 0.98918357 0.01394790
vn -0.16340022 0.98654425 0.00555020
vn -0.16340022 0.98654425 0.00555020
vn -0.16340022 0.98654425 0.00555020
vn -0.16589557 0.98485826 -0.05032757
vn -0.16589557 0.98485826 -0.05032757
vn -0.16589557 0.98485826 -0.05032757
vn -0.15090523 0.98854389 0.00293229
vn -0.16765300 0.98584407 -0.00198385
vn -0.16564774 0.98618087 -0.00284757
vn -0.16747878 0.98587353 -0.00205891
vn -0.22376437 0.97462471 0.00601482
vn -0.22376437 0.97462471 0.00601482
vn -0.22376437 0.97462471 0.00601482
vn -0.18715839 0.98195294 0.02720591
vn -0.18715839 0.98195294 0.02720591
vn -0.18715839 0.98195294 0.02720591
vn -0.16766046 0.98584357 -0.00155860
vn -0.16766046 0.98584357 -0.00155860
vn -0.16766046 0.98584357 -0.00155860
vn -0.11622370 0.99299161 -0.02144100
vn -0.11622370 0.99299161 -0.02144100
vn -0.11622370 0.99299161 -0.02144100
vn -0.11209112 0.99277754 -0.04275906
vn -0.11209112 0.99277754 -0.04275906
vn -0.11209112 0.99277754 -0.04275906
vn -0.17736322 0.98397378 -0.01838177
vn -0.17736322 0.98397378 -0.01838177
vn -0.17736322 0.98397378 -0.01838177
vn -0.16075503 0.98699407 0.00073184
vn -0.16075503 0.98699407 0.00073184
vn -0.16075503 0.98699407 0.00073184
vn 0.30828691 0.90234052 0.30123208
vn 0.30828691 0.90234052 0.30123208
vn 0.30828691 0.90234052 0.30123208
vn -0.14654043 0.98919998 -0.00305034
vn -0.14654043 0.98919998 -0.00305034
vn -0.14654043 0.98919998 -0.00305034
vn -0.16867058 0.98567021 0.00211571
vn -0.16867058 0.98567021 0.00211571
vn -0.16867058 0.98567021 0.00211571
vn -0.16701497 0.98584952 -0.01437808
vn -0.16701497 0.98584952 -0.01437808
vn -0.16701497 0.98584952 -0.01437808
vn -0.15942037 0.98721007 0.00119214
vn -0.16003858 0.98711074 -0.00019642
vn -0.16003858 0.98711074 -0.00019642
vn -0.16942857 0.98554172 -0.00121877
vn -0.17967015 0.98362066 -0.01445829
vn -0.17967015 0.98362066 -0.01445829
vn -0.17967015 0.98362066 -0.01445829
vn -0.15935204 0.98722127 -0.00104967
vn -0.15920929 0.98724437 -0.00098045
vn -0.15922084 0.98724249 -0.00099406
vn -0.15709545 0.98755972 0.00684196
vn -0.15709545 0.98755972 0.00684196
vn -0.15709545 0.98755972 0.00684196
vn -0.45444585 0.81388985 -0.36202525
vn -0.45444585 0.81388985 -0.36202525
vn -0.45444585 0.81388985 -0.36202525
vn -0.16777330 0.98581462 0.00465442
vn -0.16777330 0.98581462 0.00465442
vn -0.16777330 0.98581462 0.00465442
vn -0.15949489 0.98719862 -0.00051393
vn -0.18547804 0.98249049 0.01761610
vn -0.18547804 0.98249049 0.01761610
vn -0.18547804 0.98249049 0.01761610
vn -0.16384512 0.98553746 0.04325152
vn -0.16384512 0.98553746 0.04325152
vn -0.16384512 0.98553746 0.04325152
vn 0.58060774 -0.77800540 0.24000467
vn 0.58060774 -0.77800540 0.24000467
vn 0.58060774 -0.77800540 0.24000467
vn -0.15357748 0.95122752 0.26754470
vn -0.15357748 0.95122752 0.26754470
vn -0.15357748 0.95122752 0.26754470
vn -0.24525300 0.96739368 0.06324898
vn -0.24525300 0.96739368 0.06324898
vn -0.24525300 0.96739368 0.06324898
vn -0.14350361 0.98955277 0.01385719
vn -0.14350361 0.98955277 0.01385719
vn -0.14350361 0.98955277 0.01385719
vn -0.15906917 0.98725101 -0.00569546
vn -0.15906917 0.98725101 -0.00569546
vn -0.15906917 0.98725101 -0.00569546
vn -0.15990699 0.98705458 -0.01236993
vn -0.15392915 0.98773223 -0.02628432
vn -0.15392915 0.98773223 -0.02628432
vn -0.15392915 0.98773223 -0.02628432
vn -0.15909440 0.98726337 -0.00001551
vn -0.16124716 0.98691383 -0.00066444
vn -0.15971257 0.98604729 -0.04693226
vn -0.15971257 0.98604729 -0.04693226
vn -0.15971257 0.98604729 -0.04693226
vn -0.15752618 0.98751471 0.00045707
vn -0.15691559 0.98761199 0.00023124
vn -0.15651634 0.98767532 0.00030315
vn -0.15739037 0.98753646 0.00006212
vn -0.15987334 0.98713754 0.00000000
vn -0.15987334 0.98713754 0.00000000
vn -0.15739368 0.98752057 -0.00550848
vn -0.15739368 0.98752057 -0.00550848
vn -0.15739368 0.98752057 -0.00550848
vn -0.15761562 0.98750054 0.00000000
vn -0.20971404 0.97364057 0.08968865
vn -0.20971404 0.97364057 0.08968865
vn -0.20971404 0.97364057 0.08968865
vn -0.24483530 0.96512304 -0.09269953
vn -0.24483530 0.96512304 -0.09269953
vn -0.24483530 0.96512304 -0.09269953
vn -0.17765656 0.98409006 -0.00221439
vn -0.10597107 0.99362551 0.03845111
vn -0.10597107 0.99362551 0.03845111
vn -0.10597107 0.99362551 0.03845111
vn -0.15233728 0.98826412 0.01128634
vn -0.15233728 0.98826412 0.01128634
vn -0.15819190 0.98740038 0.00397571
vn -0.15765024 0.98748886 0.00348609
vn -0.15765024 0.98748886 0.00348609
vn -0.12943556 0.99112752 -0.03021050
vn -0.12943556 0.99112752 -0.03021050
vn -0.12943556 0.99112752 -0.03021050
vn -0.05650117 0.99736946 0.04540676
vn -0.05650117 0.99736946 0.04540676
vn -0.05650117 0.99736946 0.04540676
vn -0.16427146 0.98641497 0.00062303
vn -0.16258261 0.98669492 0.00015571
vn -0.16480592 0.98632571 0.00077095
vn -0.17448503 0.98415412 0.03155390
vn -0.17448503 0.98415412 0.03155390
vn -0.17448503 0.98415412 0.03155390
vn -0.15973200 0.98616726 0.04426985
vn -0.15973200 0.98616726 0.04426985
vn -0.15973200 0.98616726 0.04426985
vn -0.15948855 0.98719882 0.00137966
vn -0.15909613 0.98725805 0.00315556
vn -0.15980714 0.98714825 -0.00006394
vn 0.17914356 0.98027996 -0.08341930
vn 0.17914356 0.98027996 -0.08341930
vn 0.17914356 0.98027996 -0.08341930
vn 0.29294499 0.95329880 -0.07351621
vn 0.29294499 0.95329880 -0.07351621
vn 0.29294499 0.95329880 -0.07351621
vn 0.35917257 0.93312639 0.01643821
vn 0.35917257 0.93312639 0.01643821
vn 0.35917257 0.93312639 0.01643821
vn 0.61811921 0.70994974 0.33749074
vn 0.61811921 0.70994974 0.33749074
vn 0.61811921 0.70994974 0.33749074
vn 0.65802159 0.64016700 0.39647673
vn 0.65802159 0.64016700 0.39647673
vn 0.65802159 0.64016700 0.39647673
vn 0.06998567 0.99456539 0.07708237
vn 0.06998567 0.99456539 0.07708237
vn 0.06998567 0.99456539 0.07708237
vn -0.10059199 0.60743747 -0.78797270
vn -0.10059199 0.60743747 -0.78797270
vn -0.10059199 0.60743747 -0.78797270
vn 0.12644010 0.73758008 -0.66331631
vn 0.12644010 0.73758008 -0.66331631
vn 0.12644010 0.73758008 -0.66331631
vn 0.78657244 0.59693948 0.15800966
vn 0.78657244 0.59693948 0.15800966
vn 0.78657244 0.59693948 0.15800966
vn 0.12668924 0.78590522 -0.60522956
vn 0.12668924 0.78590522 -0.60522956
vn 0.12668924 0.78590522 -0.60522956
vn 0.33789437 0.68228999 -0.64831147
vn 0.33789437 0.68228999 -0.64831147
vn 0.33789437 0.68228999 -0.64831147
vn 0.29151509 0.86706482 -0.40400193
vn 0.29151509 0.86706482 -0.40400193
vn 0.29151509 0.86706482 -0.40400193
vn 0.41580480 0.82518285 -0.38233445
vn 0.41580480 0.82518285 -0.38233445
vn 0.41580480 0.82518285 -0.38233445
vn 0.69730273 0.70023073 -0.15312030
vn 0.69730273 0.70023073 -0.15312030
vn 0.69730273 0.70023073 -0.15312030
vn -0.89347369 0.44515963 0.05947836
vn -0.89347369 0.44515963 0.05947836
vn -0.89347369 0.44515963 0.05947836
vn -0.70415645 0.70837358 -0.04868837
vn -0.70415645 0.70837358 -0.04868837
vn -0.70415645 0.70837358 -0.04868837
vn -0.76219635 0.62803130 -0.15695034
vn -0.76219635 0.62803130 -0.15695034
vn -0.76219635 0.62803130 -0.15695034
vn -0.67371290 0.70306590 -0.22761649
vn -0.67371290 0.70306590 -0.22761649
vn -0.67371290 0.70306590 -0.22761649
vn -0.38971245 0.90092124 -0.19095842
vn -0.38971245 0.90092124 -0.19095842
vn -0.38971245 0.90092124 -0.19095842
vn 0.02832012 -0.99477682 -0.09806655
vn 0.02832012 -0.99477682 -0.09806655
vn 0.02832012 -0.99477682 -0.09806655
vn -0.15774469 0.80439499 0.57276987
vn -0.15774469 0.80439499 0.57276987
vn -0.15774469 0.80439499 0.57276987
vn -0.49767702 0.77847006 -0.38249438
vn -0.49767702 0.77847006 -0.38249438
vn -0.49767702 0.77847006 -0.38249438
vn -0.51613421 0.71432050 -0.47260100
vn -0.51613421 0.71432050 -0.47260100
vn -0.51613421 0.71432050 -0.47260100
vn -0.34885298 0.67885763 0.64610674
vn -0.34885298 0.67885763 0.64610674
vn -0.34885298 0.67885763 0.64610674
vn -0.26824614 0.83735159 0.47632585
vn -0.26824614 0.83735159 0.47632585
vn -0.26824614 0.83735159 0.47632585
vn -0.39411431 0.52036216 -0.75755999
vn -0.39411431 0.52036216 -0.75755999
vn -0.39411431 0.52036216 -0.75755999
vn -0.21329522 0.96505252 0.15224578
vn -0.21329522 0.96505252 0.15224578
vn -0.21329522 0.96505252 0.15224578
vn -0.57572754 0.54841287 0.60644961
vn -0.57572754 0.54841287 0.60644961
vn -0.57572754 0.54841287 0.60644961
vn -0.22418880 0.79410057 -0.56492802
vn -0.22418880 0.79410057 -0.56492802
vn -0.22418880 0.79410057 -0.56492802
vn -0.24341565 0.96197177 0.12393197
vn -0.24341565 0.96197177 0.12393197
vn -0.24341565 0.96197177 0.12393197
vn -0.54184475 0.72438546 0.42622761
vn -0.54184475 0.72438546 0.42622761
vn -0.54184475 0.72438546 0.42622761
vn -0.63955486 0.67403039 0.36966556
vn -0.63955486 0.67403039 0.36966556
vn -0.63955486 0.67403039 0.36966556
vn -0.60383749 0.76244171 0.23251436
vn -0.60383749 0.76244171 0.23251436
vn -0.60383749 0.76244171 0.23251436
vn -0.83695084 0.49835254 0.22618144
vn -0.83695084 0.49835254 0.22618144
vn -0.83695084 0.49835254 0.22618144
vn 0.17437619 0.75194658 0.63574309
vn 0.17436134 0.75200495 0.63567812
vn 0.17440058 0.75185068 0.63584982
vn 0.17441083 0.75181038 0.63589465
vn -0.00163636 0.50514753 0.86303145
vn -0.00163636 0.50514753 0.86303145
vn -0.00163636 0.50514753 0.86303145
vn 0.58915899 0.76774082 0.25192401
vn 0.58915899 0.76774082 0.25192401
vn 0.58915899 0.76774082 0.25192401
vn 0.60615046 0.69671506 -0.38362709
vn 0.60615046 0.69671506 -0.38362709
vn 0.60615046 0.69671506 -0.38362709
vn 0.93273988 0.12099870 -0.33964043
vn 0.93258676 0.12262080 -0.33947913
vn 0.93283448 0.11998301 -0.33974095
vn 0.93256096 0.12289149 -0.33945212
vn 0.97077591 0.19530210 0.13946766
vn 0.97077591 0.19530210 0.13946766
vn 0.97077591 0.19530210 0.13946766
vn 0.79542648 -0.07555091 0.60132252
vn 0.79542648 -0.07555091 0.60132252
vn 0.79542648 -0.07555091 0.60132252
vn 0.89196710 0.28001327 0.35494685
vn 0.89196710 0.28001327 0.35494685
vn 0.89196710 0.28001327 0.35494685
vn 0.14240768 0.24733956 0.95840659
vn 0.14240768 0.24733956 0.95840659
vn 0.14240768 0.24733956 0.95840659
vn -0.24324027 0.02427050 0.96966237
vn -0.24324027 0.02427050 0.96966237
vn -0.24324027 0.02427050 0.96966237
vn -0.08779642 -0.02397194 0.99584996
vn -0.08779642 -0.02397194 0.99584996
vn -0.08779642 -0.02397194 0.99584996
vn -0.17819916 0.98380554 0.01928021
vn -0.17819916 0.98380554 0.01928021
vn -0.17819916 0.98380554 0.01928021
vn -0.13996424 0.99011790 0.00875010
vn -0.13996424 0.99011790 0.00875010
vn -0.13996424 0.99011790 0.00875010
vn -0.15951033 0.98715780 -0.00871429
vn -0.15951033 0.98715780 -0.00871429
vn -0.15951033 0.98715780 -0.00871429
vn -0.16005420 0.98707787 -0.00774112
vn -0.16019900 0.98706021 -0.00695808
vn -0.16021104 0.98705908 -0.00684093
vn -0.16264280 0.98668448 -0.00102342
vn -0.16259711 0.98669205 -0.00098585
vn -0.16258171 0.98669460 -0.00097319
vn -0.16852869 0.98563238 0.01126439
vn -0.16852869 0.98563238 0.01126439
vn -0.16852869 0.98563238 0.01126439
vn -0.15979740 0.98713025 -0.00621758
vn -0.16266734 0.98668042 -0.00104360
vn -0.13310840 0.98698809 0.09020348
vn -0.13310840 0.98698809 0.09020348
vn -0.13310840 0.98698809 0.09020348
vn -0.15977149 0.98713555 -0.00603892
vn -0.17271569 0.98496627 -0.00327751
vn -0.17271569 0.98496627 -0.00327751
vn -0.17271569 0.98496627 -0.00327751
vn -0.15825880 0.98739668 0.00139572
vn -0.15825880 0.98739668 0.00139572
vn -0.15825880 0.98739668 0.00139572
vn -0.14924825 0.98878145 -0.00601650
vn -0.14924825 0.98878145 -0.00601650
vn -0.14924825 0.98878145 -0.00601650
vn -0.22485557 0.27719906 0.93413096
vn -0.22485557 0.27719906 0.93413096
vn -0.22485557 0.27719906 0.93413096
vn 0.24414379 0.68668256 0.68473416
vn 0.24414379 0.68668256 0.68473416
vn 0.24414379 0.68668256 0.68473416
vn 0.75916918 0.40510066 0.50946600
vn 0.75916918 0.40510066 0.50946600
vn 0.75916918 0.40510066 0.50946600
vn -0.89931750 0.26187999 0.35020980
vn -0.89931750 0.26187999 0.35020980
vn -0.89931750 0.26187999 0.35020980
vn -0.69383970 0.49102579 0.52676384
vn -0.69383970 0.49102579 0.52676384
vn -0.69383970 0.49102579 0.52676384
vn 0.19576437 0.51221311 -0.83624999
vn 0.19576437 0.51221311 -0.83624999
vn 0.19576437 0.51221311 -0.83624999
vn -0.07864703 0.62633919 -0.77557325
vn -0.07864703 0.62633919 -0.77557325
vn -0.07864703 0.62633919 -0.77557325
vn -0.34746202 0.41765633 -0.83954353
vn -0.34746202 0.41765633 -0.83954353
vn -0.34746202 0.41765633 -0.83954353
vn -0.85094104 0.38828078 -0.35374763
vn -0.85094104 0.38828078 -0.35374763
vn -0.85094104 0.38828078 -0.35374763
vn -0.87343394 0.35510907 -0.33318269
vn -0.87343394 0.35510907 -0.33318269
vn -0.87343394 0.35510907 -0.33318269
vn 0.67659207 0.73033269 -0.09400711
vn 0.67659207 0.73033269 -0.09400711
vn 0.67659207 0.73033269 -0.09400711
vn 0.75002737 0.56500479 -0.34384377
vn 0.75002737 0.56500479 -0.34384377
vn 0.75002737 0.56500479 -0.34384377
vn 0.99157088 0.08615801 0.09676767
vn 0.99157088 0.08615801 0.09676767
vn 0.99157088 0.08615801 0.09676767
vn 0.90198199 0.27685651 0.33132908
vn 0.90198199 0.27685651 0.33132908
vn 0.90198199 0.27685651 0.33132908
vn 0.38914585 -0.08410622 0.91732854
vn 0.38914585 -0.08410622 0.91732854
vn 0.38914585 -0.08410622 0.91732854
vn -0.00978557 0.15394567 0.98803086
vn -0.00978557 0.15394567 0.98803086
vn -0.00978557 0.15394567 0.98803086
vn -0.51625722 -0.11801672 0.84826325
vn -0.51625722 -0.11801672 0.84826325
vn -0.51625722 -0.11801672 0.84826325
vn -0.86746402 -0.08333483 0.49047068
vn -0.86746402 -0.08333483 0.49047068
vn -0.86746402 -0.08333483 0.49047068
vn -0.90117586 -0.16844938 0.39938311
vn -0.90117586 -0.16844938 0.39938311
vn -0.90117586 -0.16844938 0.39938311
vn -0.15986612 0.98713870 -0.00000786
vn -0.15988915 0.98713497 -0.00004965
vn -0.15986799 0.98713840 0.00001066
vn -0.15987297 0.98713760 0.00002762
vn -0.15989391 0.98713420 -0.00003163
vn -0.15984032 0.98714288 0.00000117
vn -0.15992253 0.98712956 0.00015144
vn -0.15982161 0.98714591 0.00009525
vn -0.15987460 0.98713733 -0.00000609
vn -0.16003941 0.98711062 -0.00001622
vn -0.15961147 0.98717984 -0.00037291
vn -0.16022891 0.98707984 0.00029692
vn -0.15989676 0.98713374 0.00004315
vn -0.15972567 0.98716134 -0.00045469
vn -0.15954457 0.98719069 0.00026093
vn -0.15826008 0.98739746 0.00001977
vn -0.16313569 0.98660360 -0.00029397
vn -0.16191507 0.98680465 0.00030561
vn -0.15991488 0.98713081 0.00004801
vn -0.15998726 0.98711902 0.00034234
vn -0.15974840 0.98715776 0.00006194
vn -0.15813358 0.98741766 -0.00037516
vn -0.15998114 0.98712007 0.00000827
vn -0.15997644 0.98712083 0.00003540
vn -0.15994671 0.98712565 0.00006976
vn -0.15989928 0.98713333 0.00001009
vn -0.15985960 0.98713976 0.00004777
vn -0.15979851 0.98714965 0.00000587
vn -0.15991709 0.98713045 0.00004304
vn -0.15988350 0.98713589 -0.00000958
vn -0.15988553 0.98713556 0.00000597
vn -0.15988550 0.98713557 -0.00001493
vn -0.15991954 0.98713005 -0.00000591
vn -0.15988329 0.98713592 0.00002613
vn -0.15987782 0.98713681 0.00000335
vn -0.15990627 0.98713220 -0.00002279
vn -0.15989518 0.98713400 0.00000041
vn -0.15985371 0.98714072 0.00001142
vn -0.15985047 0.98714124 -0.00000997
vn -0.44614861 0.66867951 0.59482698
vn -0.44614861 0.66867951 0.59482698
vn -0.44614861 0.66867951 0.59482698
vn 0.33584332 0.65519967 0.67669983
vn 0.33584332 0.65519967 0.67669983
vn 0.33584332 0.65519967 0.67669983
vn -0.96586296 -0.09928849 -0.23927087
vn -0.96586296 -0.09928849 -0.23927087
vn -0.96586296 -0.09928849 -0.23927087
vn -0.94662051 -0.14934831 -0.28566533
vn -0.94662051 -0.14934831 -0.28566533
vn -0.94662051 -0.14934831 -0.28566533
vn -0.93842972 -0.14212789 -0.31487986
vn -0.93842972 -0.14212789 -0.31487986
vn -0.93842972 -0.14212789 -0.31487986
vn -0.87179292 -0.13044853 -0.47218671
vn -0.87179292 -0.13044853 -0.47218671
vn -0.87179292 -0.13044853 -0.47218671
vn -0.78686766 -0.13116928 -0.60302066
vn -0.78705374 -0.13126467 -0.60275700
vn -0.78709917 -0.13128796 -0.60269260
vn -0.78684919 -0.13115982 -0.60304681
vn -0.62992484 -0.08617260 -0.77186072
vn -0.62992484 -0.08617260 -0.77186072
vn -0.62992484 -0.08617260 -0.77186072
vn -0.38874493 -0.05766631 -0.91953900
vn -0.38874493 -0.05766631 -0.91953900
vn -0.38874493 -0.05766631 -0.91953900
vn -0.36428819 -0.06035211 -0.92932865
vn -0.36428819 -0.06035211 -0.92932865
vn -0.36428819 -0.06035211 -0.92932865
vn -0.24671831 -0.04149630 -0.96819840
vn -0.24671831 -0.04149630 -0.96819840
vn -0.24671831 -0.04149630 -0.96819840
vn 0.00262741 0.09785355 -0.99519736
vn 0.00262741 0.09785355 -0.99519736
vn 0.00262741 0.09785355 -0.99519736
vn -0.08118897 0.17074624 -0.98196439
vn -0.08118897 0.17074624 -0.98196439
vn -0.08118897 0.17074624 -0.98196439
vn 0.27197340 0.08363875 -0.95866315
vn 0.27197340 0.08363875 -0.95866315
vn 0.27197340 0.08363875 -0.95866315
vn 0.29311759 0.05792377 -0.95432013
vn 0.29311759 0.05792377 -0.95432013
vn 0.29311759 0.05792377 -0.95432013
vn 0.58532571 0.08825657 -0.80598051
vn 0.58532571 0.08825657 -0.80598051
vn 0.58532571 0.08825657 -0.80598051
vn 0.53512862 0.06225921 -0.84247324
vn 0.53512862 0.06225921 -0.84247324
vn 0.53512862 0.06225921 -0.84247324
vn 0.84262074 0.15713572 -0.51507150
vn 0.84262074 0.15713572 -0.51507150
vn 0.84262074 0.15713572 -0.51507150
vn 0.92363816 0.14533070 -0.35464283
vn 0.92363816 0.14533070 -0.35464283
vn 0.92363816 0.14533070 -0.35464283
vn 0.94913021 0.15375574 -0.27479268
vn 0.94913021 0.15375574 -0.27479268
vn 0.94913021 0.15375574 -0.27479268
vn 0.91745975 0.14832241 -0.36914505
vn 0.91745975 0.14832241 -0.36914505
vn 0.91745975 0.14832241 -0.36914505
vn 0.96803298 0.24528513 -0.05241523
vn 0.96803298 0.24528513 -0.05241523
vn 0.96803298 0.24528513 -0.05241523
vn -0.34362399 -0.05181270 -0.93767692
vn -0.34362399 -0.05181270 -0.93767692
vn -0.34362399 -0.05181270 -0.93767692
vn -0.07212588 0.00253479 -0.99739232
vn -0.07212588 0.00253479 -0.99739232
vn -0.07212588 0.00253479 -0.99739232
vn 0.15064666 0.02037190 -0.98837775
vn 0.15064666 0.02037190 -0.98837775
vn 0.15064666 0.02037190 -0.98837775
vn 0.92480483 0.15342777 -0.34813209
vn 0.92480483 0.15342777 -0.34813209
vn 0.92480483 0.15342777 -0.34813209
vn 0.96450063 0.16638836 -0.20506939
vn 0.96450063 0.16638836 -0.20506939
vn 0.96450063 0.16638836 -0.20506939
vn 0.64716956 0.76048626 0.05321840
vn 0.64716956 0.76048626 0.05321840
vn 0.64716956 0.76048626 0.05321840
vn 0.94750304 0.16154324 0.27593797
vn 0.94750304 0.16154324 0.27593797
vn 0.94750304 0.16154324 0.27593797
vn 0.97368185 0.15187317 0.16993588
vn 0.97368185 0.15187317 0.16993588
vn 0.97368185 0.15187317 0.16993588
vn 0.97854251 0.20077301 0.04631143
vn 0.97854251 0.20077301 0.04631143
vn 0.97854251 0.20077301 0.04631143
vn 0.96313193 0.24176180 0.11801746
vn 0.96313193 0.24176180 0.11801746
vn 0.96313193 0.24176180 0.11801746
vn 0.96247355 0.16186384 0.21781820
vn 0.96247355 0.16186384 0.21781820
vn 0.96247355 0.16186384 0.21781820
vn 0.88428085 0.11906053 0.45152184
vn 0.88428085 0.11906053 0.45152184
vn 0.88428085 0.11906053 0.45152184
vn 0.87555374 0.13167579 0.46483022
vn 0.87555374 0.13167579 0.46483022
vn 0.87555374 0.13167579 0.46483022
vn 0.86262530 0.14296726 0.48521949
vn 0.86262530 0.14296726 0.48521949
vn 0.86262530 0.14296726 0.48521949
vn 0.88922296 0.14293767 0.43457030
vn 0.88922296 0.14293767 0.43457030
vn 0.88922296 0.14293767 0.43457030
vn 0.70061110 0.10084488 0.70638120
vn 0.70061110 0.10084488 0.70638120
vn 0.70061110 0.10084488 0.70638120
vn -0.15988322 0.98713594 0.00001796
vn -0.15986997 0.98713808 -0.00003612
vn -0.15987370 0.98713748 -0.00000578
vn -0.15985603 0.98714034 0.00001251
vn -0.15990341 0.98713267 -0.00000213
vn -0.15984451 0.98714221 -0.00001589
vn 0.79782277 0.10249703 -0.59411546
vn 0.79782277 0.10249703 -0.59411546
vn 0.79782277 0.10249703 -0.59411546
vn 0.71389550 0.15651361 -0.68253696
vn 0.71389550 0.15651361 -0.68253696
vn 0.71389550 0.15651361 -0.68253696
vn 0.94487088 0.21388854 0.24793288
vn 0.94487088 0.21388854 0.24793288
vn 0.94487088 0.21388854 0.24793288
vn -0.59673498 -0.11789917 0.79372990
vn -0.59673498 -0.11789917 0.79372990
vn -0.59673498 -0.11789917 0.79372990
vn -0.68255815 -0.08419051 0.72596579
vn -0.68255815 -0.08419051 0.72596579
vn -0.68255815 -0.08419051 0.72596579
vn 0.02186088 0.06517026 0.99763467
vn 0.02186088 0.06517026 0.99763467
vn 0.02186088 0.06517026 0.99763467
vn -0.99523153 -0.08938631 0.03904217
vn -0.99523153 -0.08938631 0.03904217
vn -0.99523153 -0.08938631 0.03904217
vn -0.99449703 -0.10092316 0.02810987
vn -0.99449703 -0.10092316 0.02810987
vn -0.99449703 -0.10092316 0.02810987
vn -0.27968789 0.02947448 0.95963844
vn -0.27968789 0.02947448 0.95963844
vn -0.27968789 0.02947448 0.95963844
vn 0.49276960 0.08719330 0.86578025
vn 0.49276960 0.08719330 0.86578025
vn 0.49276960 0.08719330 0.86578025
vn 0.44435255 0.05475035 0.89417739
vn 0.44435255 0.05475035 0.89417739
vn 0.44435255 0.05475035 0.89417739
vn 0.46065173 0.07953863 0.88400995
vn 0.46065173 0.07953863 0.88400995
vn 0.46065173 0.07953863 0.88400995
vn -0.30349662 -0.03801607 0.95207383
vn -0.30349662 -0.03801607 0.95207383
vn -0.30349662 -0.03801607 0.95207383
vn 0.40350143 0.05500056 0.91332444
vn 0.40350143 0.05500056 0.91332444
vn 0.40350143 0.05500056 0.91332444
vn -0.52679404 -0.11354780 0.84237458
vn -0.52679404 -0.11354780 0.84237458
vn -0.52679404 -0.11354780 0.84237458
vn -0.63090531 -0.09892401 0.76952747
vn -0.63090531 -0.09892401 0.76952747
vn -0.63090531 -0.09892401 0.76952747
vn 0.23293766 0.03697744 0.97178841
vn 0.23293766 0.03697744 0.97178841
vn 0.23293766 0.03697744 0.97178841
vn -0.83557751 -0.11984667 0.53614084
vn -0.83557751 -0.11984667 0.53614084
vn -0.83557751 -0.11984667 0.53614084
vn -0.92281611 -0.15427220 0.35300214
vn -0.92281611 -0.15427220 0.35300214
vn -0.92281611 -0.15427220 0.35300214
vn 0.03717641 0.15175640 0.98771854
vn 0.03717641 0.15175640 0.98771854
vn 0.03717641 0.15175640 0.98771854
vn -0.91407608 -0.14606051 0.37832691
vn -0.91407608 -0.14606051 0.37832691
vn -0.91407608 -0.14606051 0.37832691
vn -0.95705212 -0.15070018 0.24767056
vn -0.95705212 -0.15070018 0.24767056
vn -0.95705212 -0.15070018 0.24767056
vn 0.03465672 0.14853236 0.98830008
vn 0.03465672 0.14853236 0.98830008
vn 0.03465672 0.14853236 0.98830008
vn 0.32539787 0.05723835 0.94384321
vn 0.32539787 0.05723835 0.94384321
vn 0.32539787 0.05723835 0.94384321
vn 0.06842204 0.02532263 0.99733504
vn 0.06842204 0.02532263 0.99733504
vn 0.06842204 0.02532263 0.99733504
vn -0.14927624 -0.02823887 0.98839221
vn -0.14927624 -0.02823887 0.98839221
vn -0.14927624 -0.02823887 0.98839221
vn -0.94158659 -0.14675770 0.30311197
vn -0.94158659 -0.14675770 0.30311197
vn -0.94158659 -0.14675770 0.30311197
vn -0.98030259 -0.17325666 0.09481013
vn -0.98030259 -0.17325666 0.09481013
vn -0.98030259 -0.17325666 0.09481013
vn -0.97312508 -0.14706515 -0.17719884
vn -0.97312508 -0.14706515 -0.17719884
vn -0.97312508 -0.14706515 -0.17719884
vn -0.92344077 0.38054048 0.04945787
vn -0.92344077 0.38054048 0.04945787
vn -0.92344077 0.38054048 0.04945787
vn -0.77818384 -0.00010706 0.62803654
vn -0.77818384 -0.00010706 0.62803654
vn -0.77818384 -0.00010706 0.62803654
vn -0.69470639 -0.11253495 0.71043573
vn -0.69470639 -0.11253495 0.71043573
vn -0.69470639 -0.11253495 0.71043573
vn -0.99229588 -0.12389061 0.00000000
vn -0.99229588 -0.12389061 0.00000000
vn -0.99229588 -0.12389061 0.00000000
vn -0.98679856 -0.15985074 0.02600659
vn -0.98679856 -0.15985074 0.02600659
vn -0.98679856 -0.15985074 0.02600659
vn -0.68167883 -0.05067452 -0.72989456
vn -0.68112705 -0.05166755 -0.73033992
vn -0.68052939 -0.05274103 -0.73082018
vn -0.68221228 -0.04971265 -0.72946217
vn 0.67770165 0.14388611 -0.72112223
vn 0.67770165 0.14388611 -0.72112223
vn 0.67770165 0.14388611 -0.72112223
vn 0.70309776 0.11385567 -0.70191911
vn 0.70309776 0.11385567 -0.70191911
vn 0.70309776 0.11385567 -0.70191911
vn 0.23731629 0.45944375 -0.85591613
vn 0.23731629 0.45944375 -0.85591613
vn 0.23731629 0.45944375 -0.85591613
vn 0.00000000 0.00000000 -1.00000000
vn 0.00000000 0.00000000 -1.00000000
vn 0.00000000 0.00000000 -1.00000000
vn 0.66292690 0.27126977 -0.69781132
vn 0.66292690 0.27126977 -0.69781132
vn 0.66292690 0.27126977 -0.69781132
vn 0.28657234 -0.26423514 -0.92089961
vn 0.28657234 -0.26423514 -0.92089961
vn 0.28657234 -0.26423514 -0.92089961
vn -0.66851348 -0.09925733 -0.73704661
vn -0.66851348 -0.09925733 -0.73704661
vn -0.66851348 -0.09925733 -0.73704661
vn -0.69050142 -0.21991920 -0.68908878
vn -0.69050142 -0.21991920 -0.68908878
vn -0.69050142 -0.21991920 -0.68908878
vn 0.69798149 0.11291025 0.70715848
vn 0.69798149 0.11291025 0.70715848
vn 0.69798149 0.11291025 0.70715848
vn 0.69182759 0.12266264 0.71156761
vn 0.69182759 0.12266264 0.71156761
vn 0.69182759 0.12266264 0.71156761
vn 0.98716707 0.15969088 0.00000000
vn 0.98716707 0.15969088 0.00000000
vn 0.98716707 0.15969088 0.00000000
vn 0.98716707 0.15969088 0.00000000
vn 0.69785888 0.11317000 -0.70723796
vn 0.69782497 0.11303014 -0.70729379
vn 0.69789552 0.11332117 -0.70717760
vn 0.69778830 0.11287900 -0.70735409
vn 0.69739259 0.11671825 0.70712123
vn 0.69739259 0.11671825 0.70712123
vn 0.69739259 0.11671825 0.70712123
vn 0.69513425 0.11260349 0.71000621
vn 0.69513425 0.11260349 0.71000621
vn 0.69513425 0.11260349 0.71000621
vn -0.69794928 -0.11292849 0.70718736
vn -0.69791350 -0.11298573 0.70721353
vn -0.69798786 -0.11286677 0.70715914
vn -0.69787492 -0.11304744 0.70724174
vn 0.00000000 0.00000000 1.00000000
vn 0.00000000 0.00000000 1.00000000
vn 0.00000000 0.00000000 1.00000000
vn 0.00000000 0.00000000 1.00000000
vn 0.68750741 0.17003101 0.70599080
vn 0.68750741 0.17003101 0.70599080
vn 0.68750741 0.17003101 0.70599080
vn 0.72771649 0.11784228 0.67567885
vn 0.72771649 0.11784228 0.67567885
vn 0.72771649 0.11784228 0.67567885
vn -0.71462903 0.04673847 0.69794044
vn -0.71462903 0.04673847 0.69794044
vn -0.71462903 0.04673847 0.69794044
vn -0.25494772 -0.32161871 0.91190080
vn -0.25494772 -0.32161871 0.91190080
vn -0.25494772 -0.32161871 0.91190080
vn -0.39758892 0.54263711 0.73991082
vn -0.39758892 0.54263711 0.73991082
vn -0.39758892 0.54263711 0.73991082
vn -0.23535211 0.39031775 0.89009069
vn -0.23535211 0.39031775 0.89009069
vn -0.23535211 0.39031775 0.89009069
vn 0.66779246 0.57819023 0.46877424
vn 0.66779246 0.57819023 0.46877424
vn 0.66779246 0.57819023 0.46877424
vn 0.73881964 0.51092721 0.43943023
vn 0.73881964 0.51092721 0.43943023
vn 0.73881964 0.51092721 0.43943023
vn -0.90307466 0.24455484 0.35305678
vn -0.90307466 0.24455484 0.35305678
vn -0.90307466 0.24455484 0.35305678
vn -0.23836450 0.43276317 0.86942418
vn -0.23836450 0.43276317 0.86942418
vn -0.23836450 0.43276317 0.86942418
vn -0.13705417 0.58094982 0.80231756
vn -0.13705417 0.58094982 0.80231756
vn -0.13705417 0.58094982 0.80231756
vn 0.61645915 0.65044804 0.44372904
vn 0.61645915 0.65044804 0.44372904
vn 0.61645915 0.65044804 0.44372904
vn 0.87711185 0.35728664 0.32096895
vn 0.87711185 0.35728664 0.32096895
vn 0.87711185 0.35728664 0.32096895
vn -0.87867486 0.46678278 0.10022139
vn -0.87867486 0.46678278 0.10022139
vn -0.87867486 0.46678278 0.10022139
vn -0.89134061 0.29441367 0.34472091
vn -0.89134061 0.29441367 0.34472091
vn -0.89134061 0.29441367 0.34472091
vn 0.31166543 0.68867693 -0.65466689
vn 0.31166543 0.68867693 -0.65466689
vn 0.31166543 0.68867693 -0.65466689
vn -0.49555784 0.51043669 -0.70276370
vn -0.49555784 0.51043669 -0.70276370
vn -0.49555784 0.51043669 -0.70276370
vn -0.22990405 0.32552208 -0.91715838
vn -0.22990405 0.32552208 -0.91715838
vn -0.22990405 0.32552208 -0.91715838
vn -0.90225268 0.24863460 -0.35230801
vn -0.90225268 0.24863460 -0.35230801
vn -0.90225268 0.24863460 -0.35230801
vn 0.76031371 0.40235207 -0.50993712
vn 0.76031371 0.40235207 -0.50993712
vn 0.76031371 0.40235207 -0.50993712
vn 0.56479766 0.66019113 -0.49512753
vn 0.56479766 0.66019113 -0.49512753
vn 0.56479766 0.66019113 -0.49512753
vn 0.15993841 0.45360077 -0.87673602
vn 0.15993841 0.45360077 -0.87673602
vn 0.15993841 0.45360077 -0.87673602
vn -0.21652333 0.63251035 -0.74367218
vn -0.21652333 0.63251035 -0.74367218
vn -0.21652333 0.63251035 -0.74367218
vn -0.59933673 0.41377730 -0.68526187
vn -0.59933673 0.41377730 -0.68526187
vn -0.59933673 0.41377730 -0.68526187
vn -0.89259588 0.29035870 -0.34491220
vn -0.89259588 0.29035870 -0.34491220
vn -0.89259588 0.29035870 -0.34491220
vn -0.88208202 0.45866722 -0.10749745
vn -0.88208202 0.45866722 -0.10749745
vn -0.88208202 0.45866722 -0.10749745
vn 0.76367172 0.53531652 -0.36089018
vn 0.76367172 0.53531652 -0.36089018
vn 0.76367172 0.53531652 -0.36089018
vn -0.39767584 0.54281290 0.73973514
vn -0.39767584 0.54281290 0.73973514
vn -0.39767584 0.54281290 0.73973514
vn -0.23524451 0.39037894 0.89009230
vn -0.23524451 0.39037894 0.89009230
vn -0.23524451 0.39037894 0.89009230
vn 0.66764344 0.57827784 0.46887842
vn 0.66764344 0.57827784 0.46887842
vn 0.66764344 0.57827784 0.46887842
vn 0.73885953 0.51091673 0.43937534
vn 0.73885953 0.51091673 0.43937534
vn 0.73885953 0.51091673 0.43937534
vn -0.86599987 0.28745516 0.40916227
vn -0.86599987 0.28745516 0.40916227
vn -0.86599987 0.28745516 0.40916227
vn 0.64162733 0.55478726 -0.52964655
vn 0.64162733 0.55478726 -0.52964655
vn 0.64162733 0.55478726 -0.52964655
vn -0.20784053 0.49843793 -0.84164241
vn -0.20784053 0.49843793 -0.84164241
vn -0.20784053 0.49843793 -0.84164241
vn -0.23954434 0.44852968 -0.86106889
vn -0.23954434 0.44852968 -0.86106889
vn -0.23954434 0.44852968 -0.86106889
vn -0.87472214 0.30372157 -0.37764320
vn -0.87472214 0.30372157 -0.37764320
vn -0.87472214 0.30372157 -0.37764320
vn -0.86501162 0.49052259 -0.10555796
vn -0.86501162 0.49052259 -0.10555796
vn -0.86501162 0.49052259 -0.10555796
vn 0.72174491 0.48420063 -0.49460493
vn 0.72174491 0.48420063 -0.49460493
vn 0.72174491 0.48420063 -0.49460493
vn -0.48093509 0.53898254 0.69151954
vn -0.48093509 0.53898254 0.69151954
vn -0.48093509 0.53898254 0.69151954
vn 0.28208634 0.63207056 0.72174379
vn 0.28208634 0.63207056 0.72174379
vn 0.28208634 0.63207056 0.72174379
vn 0.10343445 0.39289210 0.91374893
vn 0.10343445 0.39289210 0.91374893
vn 0.10343445 0.39289210 0.91374893
vn 0.76235807 0.53757180 0.36031477
vn 0.76235807 0.53757180 0.36031477
vn 0.76235807 0.53757180 0.36031477
vn -0.89526127 0.44160119 0.05912402
vn -0.89526127 0.44160119 0.05912402
vn -0.89526127 0.44160119 0.05912402
vn 0.69748657 0.71556676 0.03842790
vn 0.69748657 0.71556676 0.03842790
vn 0.69748657 0.71556676 0.03842790
vn -0.84724685 0.15848881 0.50700500
vn -0.84724685 0.15848881 0.50700500
vn -0.84724685 0.15848881 0.50700500
vn 0.28167240 0.67575908 -0.68118303
vn 0.28167240 0.67575908 -0.68118303
vn 0.28167240 0.67575908 -0.68118303
vn -0.49727475 0.51185701 -0.70051426
vn -0.49727475 0.51185701 -0.70051426
vn -0.49727475 0.51185701 -0.70051426
vn -0.22922164 0.32524815 -0.91742633
vn -0.22922164 0.32524815 -0.91742633
vn -0.22922164 0.32524815 -0.91742633
vn -0.90298203 0.24494826 -0.35302096
vn -0.90298203 0.24494826 -0.35302096
vn -0.90298203 0.24494826 -0.35302096
vn 0.75855009 0.40562756 -0.50996867
vn 0.75855009 0.40562756 -0.50996867
vn 0.75855009 0.40562756 -0.50996867
vn -0.90806570 -0.12490574 -0.39976898
vn -0.90806570 -0.12490574 -0.39976898
vn -0.90806570 -0.12490574 -0.39976898
vn -0.84969784 -0.19444962 -0.49010502
vn -0.84969784 -0.19444962 -0.49010502
vn -0.84969784 -0.19444962 -0.49010502
vn -0.28972827 0.03513751 -0.95646374
vn -0.28972827 0.03513751 -0.95646374
vn -0.28972827 0.03513751 -0.95646374
vn -0.07031174 -0.08195118 -0.99415304
vn -0.07031174 -0.08195118 -0.99415304
vn -0.07031174 -0.08195118 -0.99415304
vn 0.67582054 0.16591736 -0.71814903
vn 0.67582054 0.16591736 -0.71814903
vn 0.67582054 0.16591736 -0.71814903
vn 0.66275363 0.14157373 -0.73533292
vn 0.66275363 0.14157373 -0.73533292
vn 0.66275363 0.14157373 -0.73533292
vn 0.84971336 0.34428346 0.39931955
vn 0.84971336 0.34428346 0.39931955
vn 0.84971336 0.34428346 0.39931955
vn 0.40655692 -0.13569151 0.90349283
vn 0.40655692 -0.13569151 0.90349283
vn 0.40655692 -0.13569151 0.90349283
vn -0.71704333 -0.16608051 0.67695356
vn -0.71704333 -0.16608051 0.67695356
vn -0.71704333 -0.16608051 0.67695356
vn -0.54138579 0.07724922 0.83721800
vn -0.54138579 0.07724922 0.83721800
vn -0.54138579 0.07724922 0.83721800
vn 0.95967710 0.27633225 0.05157855
vn 0.95967710 0.27633225 0.05157855
vn 0.95967710 0.27633225 0.05157855
vn 0.87944480 0.00250664 0.47599429
vn 0.87944480 0.00250664 0.47599429
vn 0.87944480 0.00250664 0.47599429
vn 0.19876005 0.20158903 0.95909140
vn 0.19876005 0.20158903 0.95909140
vn 0.19876005 0.20158903 0.95909140
vn -0.31507575 -0.24997343 0.91555478
vn -0.31507575 -0.24997343 0.91555478
vn -0.31507575 -0.24997343 0.91555478
vn -0.89032529 -0.01799802 0.45496918
vn -0.89032529 -0.01799802 0.45496918
vn -0.89032529 -0.01799802 0.45496918
vn 0.95232730 -0.01185252 0.30484788
vn 0.95232730 -0.01185252 0.30484788
vn 0.95232730 -0.01185252 0.30484788
vn 0.56375242 0.22916048 0.79351665
vn 0.56375242 0.22916048 0.79351665
vn 0.56375242 0.22916048 0.79351665
vn -0.04251249 -0.15888106 0.98638202
vn -0.04251249 -0.15888106 0.98638202
vn -0.04251249 -0.15888106 0.98638202
vn -0.53157892 0.03738603 0.84618327
vn -0.53157892 0.03738603 0.84618327
vn -0.53157892 0.03738603 0.84618327
vn -0.94423212 -0.30597581 0.12167375
vn -0.94423212 -0.30597581 0.12167375
vn -0.94423212 -0.30597581 0.12167375
vn 0.99856624 0.02671623 0.04638653
vn 0.99856624 0.02671623 0.04638653
vn 0.99856624 0.02671623 0.04638653
vn 0.65322777 0.24708803 0.71571013
vn 0.65322777 0.24708803 0.71571013
vn 0.65322777 0.24708803 0.71571013
vn 0.45194587 0.02412659 0.89171904
vn 0.45194587 0.02412659 0.89171904
vn 0.45194587 0.02412659 0.89171904
vn -0.47520514 -0.08400817 0.87585541
vn -0.47520514 -0.08400817 0.87585541
vn -0.47520514 -0.08400817 0.87585541
vn -0.72536564 0.08049319 0.68364138
vn -0.72536564 0.08049319 0.68364138
vn -0.72536564 0.08049319 0.68364138
vn -0.94486527 -0.32406841 0.04700305
vn -0.94486527 -0.32406841 0.04700305
vn -0.94486527 -0.32406841 0.04700305
vn 0.87971247 -0.00468173 0.47548297
vn 0.87971247 -0.00468173 0.47548297
vn 0.87971247 -0.00468173 0.47548297
vn 0.36084701 0.25030314 0.89840847
vn 0.36084701 0.25030314 0.89840847
vn 0.36084701 0.25030314 0.89840847
vn -0.30978245 -0.27009743 0.91163710
vn -0.30978245 -0.27009743 0.91163710
vn -0.30978245 -0.27009743 0.91163710
vn -0.94344332 0.08602597 0.32017843
vn -0.94344332 0.08602597 0.32017843
vn -0.94344332 0.08602597 0.32017843
vn -0.91657532 -0.11994271 -0.38144912
vn -0.91657532 -0.11994271 -0.38144912
vn -0.91657532 -0.11994271 -0.38144912
vn -0.89286758 -0.05809910 -0.44655569
vn -0.89286758 -0.05809910 -0.44655569
vn -0.89286758 -0.05809910 -0.44655569
vn 0.07071131 -0.11812018 -0.99047844
vn 0.07071131 -0.11812018 -0.99047844
vn 0.07071131 -0.11812018 -0.99047844
vn 0.36651181 0.21576822 -0.90504871
vn 0.36651181 0.21576822 -0.90504871
vn 0.36651181 0.21576822 -0.90504871
vn 0.99167621 0.01980024 -0.12722518
vn 0.99167621 0.01980024 -0.12722518
vn 0.99167621 0.01980024 -0.12722518
vn -0.95634834 -0.26952252 -0.11294006
vn -0.95634834 -0.26952252 -0.11294006
vn -0.95634834 -0.26952252 -0.11294006
vn -0.14740587 0.01998709 -0.98887412
vn -0.14740587 0.01998709 -0.98887412
vn -0.14740587 0.01998709 -0.98887412
vn -0.09091400 0.09677709 -0.99114522
vn -0.09091400 0.09677709 -0.99114522
vn -0.09091400 0.09677709 -0.99114522
vn 0.82425669 0.02918550 -0.56546363
vn 0.82425669 0.02918550 -0.56546363
vn 0.82425669 0.02918550 -0.56546363
vn 0.94843628 0.28441905 -0.13990865
vn 0.94843628 0.28441905 -0.13990865
vn 0.94843628 0.28441905 -0.13990865
vn -0.52378999 0.04706938 -0.85054601
vn -0.52378999 0.04706938 -0.85054601
vn -0.52378999 0.04706938 -0.85054601
vn -0.54784437 0.01140091 -0.83650258
vn -0.54784437 0.01140091 -0.83650258
vn -0.54784437 0.01140091 -0.83650258
vn 0.48508423 -0.01861510 -0.87426928
vn 0.48508423 -0.01861510 -0.87426928
vn 0.48508423 -0.01861510 -0.87426928
vn 0.76563468 0.27603668 -0.58103984
vn 0.76563468 0.27603668 -0.58103984
vn 0.76563468 0.27603668 -0.58103984
vn -0.94357324 -0.01706087 -0.33072416
vn -0.94357324 -0.01706087 -0.33072416
vn -0.94357324 -0.01706087 -0.33072416
vn -0.48223368 -0.18494498 -0.85629786
vn -0.48223368 -0.18494498 -0.85629786
vn -0.48223368 -0.18494498 -0.85629786
vn -0.02264486 0.09235712 -0.99546842
vn -0.02264486 0.09235712 -0.99546842
vn -0.02264486 0.09235712 -0.99546842
vn 0.57758429 -0.04044263 -0.81532864
vn 0.57758429 -0.04044263 -0.81532864
vn 0.57758429 -0.04044263 -0.81532864
vn 0.85857985 0.28508185 -0.42610911
vn 0.85857985 0.28508185 -0.42610911
vn 0.85857985 0.28508185 -0.42610911
vn -0.95169598 -0.28574338 -0.11236312
vn -0.95169598 -0.28574338 -0.11236312
vn -0.95169598 -0.28574338 -0.11236312
vn -0.78611261 -0.00443640 -0.61806738
vn -0.78611261 -0.00443640 -0.61806738
vn -0.78611261 -0.00443640 -0.61806738
vn -0.11698191 -0.15162900 -0.98149064
vn -0.11698191 -0.15162900 -0.98149064
vn -0.11698191 -0.15162900 -0.98149064
vn 0.28099990 0.16382897 -0.94562103
vn 0.28099990 0.16382897 -0.94562103
vn 0.28099990 0.16382897 -0.94562103
vn 0.82513694 0.02002315 -0.56457781
vn 0.82513694 0.02002315 -0.56457781
vn 0.82513694 0.02002315 -0.56457781
f 1//1 2//2 3//3
f 4//4 5//5 6//6
f 7//7 8//8 9//9
f 10//10 11//11 12//12
f 13//13 14//14 15//15
f 16//16 17//17 18//18
f 19//19 20//20 21//21
f 22//22 15//15 23//23
f 24//24 25//25 26//26
f 27//27 28//28 29//29
f 30//30 31//31 32//32
f 33//33 34//34 35//35
f 36//36 37//37 38//38
f 39//39 40//40 41//41
f 42//42 43//43 44//44
f 45//45 46//46 47//47
f 48//48 49//49 50//50
f 51//51 52//52 53//53
f 54//54 55//55 56//56
f 57//57 58//58 59//59
f 60//60 61//61 62//62
f 63//63 64//64 65//65
f 66//66 67//67 68//68
f 69//69 70//70 71//71
f 53//53 52//52 72//72
f 73//73 74//74 75//75
f 76//76 77//77 78//78
f 79//79 80//80 81//81
f 79//79 81//81 82//82
f 83//83 32//32 31//31
f 84//84 85//85 86//86
f 87//87 88//88 89//89
f 90//90 91//91 92//92
f 93//93 94//94 95//95
f 96//96 97//97 98//98
f 99//99 100//100 101//101
f 102//102 103//103 104//104
f 105//105 106//106 107//107
f 108//108 109//109 110//110
f 111//111 107//107 106//106
f 112//112 110//110 113//113
f 112//112 113//113 114//114
f 112//112 108//108 110//110
f 115//115 116//116 117//117
f 118//118 109//109 108//108
f 119//119 120//120 121//121
f 122//122 53//53 123//123
f 124//124 125//125 126//126
f 127//127 88//88 87//87
f 128//128 112//112 114//114
f 129//129 130//130 131//131
f 132//132 133//133 134//134
f 135//135 136//136 137//137
f 138//138 120//120 119//119
f 139//139 140//140 141//141
f 142//142 143//143 144//144
f 145//145 146//146 147//147
f 148//148 149//149 150//150
f 151//151 152//152 153//153
f 154//154 155//155 156//156
f 157//157 158//158 159//159
f 160//160 161//161 162//162
f 163//163 164//164 165//165
f 166//166 167//167 168//168
f 169//169 170//170 171//171
f 172//172 173//173 174//174
f 175//175 176//176 177//177
f 178//178 139//139 141//141
f 179//179 180//180 181//181
f 182//182 183//183 184//184
f 185//185 186//186 187//187
f 188//188 189//189 190//190
f 191//191 192//192 193//193
f 182//182 184//184 194//194
f 23//23 194//194 105//105
f 195//195 196//196 197//197
f 198//198 199//199 200//200
f 182//182 194//194 23//23
f 201//201 202//202 203//203
f 204//204 205//205 206//206
f 207//207 208//208 209//209
f 210//210 211//211 212//212
f 213//213 214//214 215//215
f 216//216 115//115 117//117
f 217//217 218//218 219//219
f 220//220 128//128 221//221
f 222//222 223//223 224//224
f 220//220 225//225 128//128
f 226//226 227//227 228//228
f 226//226 229//229 230//230
f 231//231 232//232 233//233
f 226//226 228//228 234//234
f 235//235 236//236 237//237
f 238//238 239//239 240//240
f 43//43 241//241 44//44
f 242//242 243//243 244//244
f 7//7 175//175 8//8
f 245//245 129//129 246//246
f 247//247 248//248 249//249
f 250//250 251//251 252//252
f 253//253 254//254 255//255
f 256//256 257//257 258//258
f 256//256 39//39 257//257
f 259//259 260//260 261//261
f 262//262 263//263 264//264
f 265//265 247//247 266//266
f 265//265 266//266 267//267
f 268//268 269//269 270//270
f 271//271 272//272 273//273
f 274//274 275//275 276//276
f 277//277 278//278 279//279
f 280//280 281//281 282//282
f 283//283 284//284 285//285
f 286//286 287//287 288//288
f 289//289 290//290 291//291
f 292//292 293//293 294//294
f 295//295 296//296 297//297
f 298//298 299//299 300//300
f 301//301 302//302 303//303
f 304//304 305//305 306//306
f 307//307 308//308 309//309
f 310//310 311//311 312//312
f 313//313 314//314 315//315
f 316//316 317//317 318//318
f 319//319 320//320 321//321
f 322//322 323//323 324//324
f 325//325 326//326 327//327
f 328//328 329//329 330//330
f 331//331 332//332 333//333
f 334//334 335//335 336//336
f 337//337 338//338 339//339
f 340//340 341//341 342//342
f 343//343 344//344 345//345
f 346//346 347//347 348//348
f 349//349 350//350 351//351
f 352//352 353//353 354//354
f 355//355 356//356 357//357
f 358//358 359//359 360//360
f 361//361 362//362 363//363
f 364//364 365//365 366//366
f 367//367 368//368 369//369
f 370//370 371//371 372//372
f 370//370 372//372 373//373
f 374//374 375//375 376//376
f 377//377 378//378 379//379
f 380//380 381//381 382//382
f 383//383 384//384 385//385
f 383//383 386//386 384//384
f 387//387 388//388 389//389
f 390//390 391//391 392//392
f 393//393 394//394 395//395
f 396//396 397//397 398//398
f 399//399 400//400 401//401
f 402//402 403//403 404//404
f 405//405 406//406 407//407
f 408//408 409//409 410//410
f 411//411 412//412 413//413
f 414//414 415//415 416//416
f 417//417 418//418 419//419
f 420//420 421//421 422//422
f 423//423 415//415 414//414
f 424//424 418//418 417//417
f 425//425 426//426 427//427
f 423//423 414//414 428//428
f 429//429 430//430 431//431
f 432//432 433//433 434//434
f 435//435 436//436 437//437
f 438//438 439//439 440//440
f 441//441 442//442 443//443
f 444//444 445//445 446//446
f 447//447 448//448 449//449
f 450//450 451//451 452//452
f 453//453 454//454 455//455
f 456//456 457//457 458//458
f 459//459 460//460 461//461
f 462//462 463//463 464//464
f 465//465 466//466 467//467
f 468//468 469//469 470//470
f 471//471 472//472 473//473
f 474//474 475//475 476//476
f 477//477 478//478 479//479
f 480//480 481//481 482//482
f 483//483 484//484 485//485
f 486//486 487//487 488//488
f 489//489 490//490 491//491
f 492//492 493//493 494//494
f 495//495 496//496 497//497
f 497//497 496//496 498//498
f 495//495 499//499 496//496
f 495//495 500//500 499//499
f 501//501 502//502 499//499
f 499//499 502//502 496//496
f 495//495 503//503 500//500
f 501//501 504//504 502//502
f 504//504 505//505 502//502
f 501//501 506//506 504//504
f 503//503 507//507 500//500
f 508//508 509//509 505//505
f 505//505 509//509 502//502
f 508//508 510//510 509//509
f 511//511 512//512 508//508
f 501//501 513//513 506//506
f 506//506 513//513 514//514
f 512//512 515//515 508//508
f 508//508 515//515 510//510
f 510//510 515//515 516//516
f 517//517 518//518 519//519
f 502//502 520//520 521//521
f 509//509 520//520 502//502
f 514//514 513//513 522//522
f 522//522 523//523 517//517
f 513//513 523//523 522//522
f 517//517 523//523 518//518
f 524//524 525//525 503//503
f 503//503 525//525 507//507
f 524//524 526//526 525//525
f 513//513 527//527 523//523
f 527//527 528//528 520//520
f 520//520 528//528 521//521
f 525//525 529//529 530//530
f 530//530 531//531 513//513
f 529//529 531//531 530//530
f 513//513 531//531 527//527
f 529//529 532//532 531//531
f 529//529 533//533 532//532
f 534//534 535//535 536//536
f 537//537 538//538 539//539
f 540//540 541//541 542//542
f 543//543 544//544 545//545
f 546//546 547//547 548//548
f 549//549 550//550 551//551
f 552//552 553//553 554//554
f 552//552 555//555 553//553
f 556//556 557//557 558//558
f 559//559 560//560 561//561
f 562//562 563//563 564//564
f 565//565 566//566 567//567
f 568//568 569//569 570//570
f 571//571 572//572 573//573
f 574//574 575//575 576//576
f 577//577 578//578 579//579
f 580//580 581//581 582//582
f 583//583 584//584 585//585
f 586//586 587//587 588//588
f 589//589 590//590 591//591
f 592//592 593//593 594//594
f 595//595 596//596 597//597
f 598//598 599//599 600//600
f 601//601 602//602 603//603
f 604//604 605//605 606//606
f 607//607 608//608 609//609
f 610//610 611//611 612//612
f 613//613 614//614 615//615
f 616//616 617//617 618//618
f 619//619 620//620 621//621
f 622//622 623//623 624//624
f 625//625 626//626 627//627
f 628//628 629//629 630//630
f 631//631 632//632 633//633
f 634//634 635//635 636//636
f 637//637 638//638 639//639
f 640//640 641//641 642//642
f 643//643 644//644 645//645
f 646//646 647//647 648//648
f 649//649 650//650 651//651
f 649//649 651//651 652//652
f 651//651 653//653 654//654
f 651//651 654//654 652//652
f 655//655 656//656 657//657
f 658//658 659//659 660//660
f 661//661 662//662 663//663
f 664//664 665//665 666//666
f 667//667 668//668 669//669
f 670//670 671//671 672//672
f 673//673 674//674 675//675
f 676//676 677//677 678//678
f 679//679 680//680 681//681
f 682//682 683//683 684//684
f 685//685 686//686 687//687
f 688//688 689//689 690//690
f 691//691 692//692 693//693
f 694//694 695//695 696//696
f 697//697 698//698 699//699
f 700//700 701//701 702//702
f 703//703 704//704 705//705
f 706//706 707//707 708//708
f 709//709 710//710 711//711
f 712//712 713//713 714//714
f 715//715 716//716 717//717
f 718//718 719//719 720//720
f 721//721 722//722 723//723
f 724//724 725//725 726//726
f 727//727 728//728 729//729
f 730//730 731//731 732//732
f 733//733 734//734 735//735
f 736//736 737//737 738//738
f 739//739 740//740 741//741
f 742//742 743//743 744//744
f 745//745 746//746 747//747
f 748//748 749//749 750//750
f 751//751 752//752 753//753
f 754//754 755//755 756//756
f 757//757 758//758 759//759
f 760//760 758//758 757//757
f 761//761 762//762 763//763
f 764//764 765//765 766//766
f 767//767 768//768 769//769
f 770//770 771//771 772//772
f 773//773 774//774 775//775
f 776//776 777//777 778//778
f 779//779 780//780 781//781
f 782//782 783//783 784//784
f 785//785 786//786 787//787
f 788//788 789//789 790//790
f 791//791 792//792 793//793
f 792//792 794//794 793//793
f 795//795 796//796 797//797
f 795//795 798//798 796//796
f 799//799 800//800 801//801
f 802//802 803//803 804//804
f 805//805 806//806 807//807
f 805//805 808//808 806//806
f 809//809 810//810 811//811
f 812//812 810//810 809//809
f 813//813 814//814 815//815
f 816//816 817//817 818//818
f 819//819 820//820 821//821
f 822//822 823//823 824//824
f 825//825 826//826 827//827
f 828//828 829//829 830//830
f 831//831 832//832 833//833
f 834//834 835//835 836//836
f 837//837 838//838 839//839
f 840//840 841//841 842//842
f 843//843 844//844 845//845
f 846//846 847//847 848//848
f 849//849 850//850 851//851
f 852//852 853//853 854//854
f 855//855 856//856 857//857
f 858//858 859//859 860//860
f 861//861 862//862 863//863
f 864//864 865//865 866//866
f 867//867 868//868 869//869
f 870//870 871//871 872//872
f 873//873 874//874 875//875
f 876//876 877//877 878//878
f 879//879 880//880 881//881
f 882//882 883//883 884//884
f 885//885 886//886 887//887
f 888//888 889//889 890//890
f 891//891 892//892 893//893
f 894//894 895//895 896//896
f 897//897 898//898 899//899
f 900//900 901//901 902//902
f 903//903 904//904 905//905
f 906//906 907//907 908//908
f 909//909 910//910 911//911
f 912//912 913//913 914//914
f 915//915 916//916 917//917
f 918//918 919//919 920//920
f 921//921 922//922 923//923
f 924//924 925//925 926//926
f 927//927 928//928 929//929
f 930//930 931//931 932//932
f 933//933 934//934 935//935
f 936//936 937//937 938//938
f 939//939 940//940 941//941
f 942//942 943//943 944//944
f 945//945 946//946 947//947
f 948//948 949//949 950//950
f 951//951 952//952 953//953
f 954//954 955//955 956//956
f 957//957 958//958 959//959
f 960//960 961//961 962//962
f 963//963 964//964 965//965
f 966//966 967//967 968//968
f 969//969 970//970 971//971
f 972//972 973//973 974//974
f 975//975 976//976 977//977
f 978//978 979//979 980//980
f 981//981 982//982 983//983
f 984//984 985//985 986//986
f 987//987 988//988 989//989
f 990//990 991//991 992//992
f 993//993 994//994 995//995
f 996//996 997//997 998//998
f 999//999 1000//1000 1001//1001
f 1002//1002 1003//1003 1004//1004
f 1005//1005 1006//1006 1007//1007
f 1008//1008 1009//1009 1010//1010
f 1011//1011 1012//1012 1013//1013
f 1014//1014 1015//1015 1016//1016
f 1017//1017 1018//1018 1019//1019
f 1020//1020 1021//1021 1022//1022
f 1023//1023 1024//1024 1025//1025
f 1026//1026 1027//1027 1028//1028
f 1029//1029 1030//1030 1031//1031
f 1032//1032 1033//1033 1034//1034
f 1035//1035 1036//1036 1037//1037
f 1038//1038 1039//1039 1040//1040
f 1041//1041 1042//1042 1043//1043
f 1044//1044 1045//1045 1046//1046
f 1047//1047 1048//1048 1049//1049
f 1050//1050 1051//1051 1052//1052
f 1053//1053 1054//1054 1055//1055
f 1056//1056 1057//1057 1058//1058
f 1059//1059 1060//1060 1061//1061
f 1062//1062 1063//1063 1064//1064
f 1065//1065 1066//1066 1067//1067
f 1068//1068 1069//1069 1070//1070
f 1071//1071 1072//1072 1073//1073
f 1074//1074 1075//1075 1076//1076
f 1077//1077 1078//1078 1079//1079
f 1080//1080 1081//1081 1082//1082
f 1083//1083 1084//1084 1085//1085
f 1086//1086 1087//1087 1088//1088
f 1089//1089 1090//1090 1091//1091
f 1092//1092 1093//1093 1094//1094
f 1095//1095 1096//1096 1097//1097
f 1098//1098 1099//1099 1100//1100
f 1101//1101 1102//1102 1103//1103
f 1104//1104 1105//1105 1106//1106
f 1107//1107 1108//1108 1109//1109
f 1110//1110 1111//1111 1112//1112
f 1113//1113 1114//1114 1115//1115
f 1116//1116 1117//1117 1118//1118
f 1119//1119 1120//1120 1121//1121
f 1122//1122 1123//1123 1124//1124

