# https://github.com/mikedh/trimesh
v 0.05438441 0.00050000 -0.09104068
v 0.05508357 0.00049959 -0.09090508
v 0.05487746 0.00049996 -0.09104056
v 0.06994438 0.00049999 -0.05759026
v 0.06954801 0.00050000 -0.05808301
v 0.07001650 0.00050023 -0.05673767
v 0.06965899 0.00049760 -0.05612887
v 0.07001650 0.00050023 -0.05673767
v 0.06924068 0.00049964 -0.05587382
v 0.05247950 -0.01579207 -0.09102608
v 0.05261904 -0.01136088 -0.09104396
v 0.05376482 -0.01101797 -0.09103341
v 0.05432653 -0.00043290 -0.09104307
v 0.05438441 0.00050000 -0.09104086
v 0.05487746 0.00049996 -0.09104056
v 0.05247950 -0.01579207 -0.09102608
v 0.05156862 -0.01546812 -0.09104492
v 0.05261904 -0.01136088 -0.09104396
v 0.05371052 -0.00369442 -0.09104343
v 0.05382961 -0.00050047 -0.09104062
v 0.05488651 -0.00210190 -0.09103705
v 0.05371052 -0.00369442 -0.09104343
v 0.05432653 -0.00043290 -0.09104307
v 0.05487746 0.00049996 -0.09104056
v 0.05433648 -0.00793475 -0.09102852
v 0.05331206 -0.00752509 -0.09104241
v 0.04759496 0.00050000 -0.04556788
v 0.04749286 -0.00044734 -0.04549707
v 0.04946589 0.00049982 -0.04695637
v 0.05478066 -0.01277434 -0.05051865
v 0.05874913 -0.01508677 -0.05249347
v 0.05773830 -0.00909698 -0.05208106
v 0.06253939 -0.01259768 -0.05413617
v 0.06562077 -0.01232159 -0.05521209
v 0.06332236 -0.00530064 -0.05441405
v 0.06115967 -0.00904864 -0.05361135
v 0.06253939 -0.01259768 -0.05413617
v 0.06332236 -0.00530064 -0.05441405
v 0.05497843 -0.00343496 -0.05053045
v 0.05873841 -0.00422639 -0.05247672
v 0.05713427 0.00049979 -0.05151869
v 0.04749286 -0.00044734 -0.04549707
v 0.04872745 -0.00812220 -0.04651965
v 0.04946589 0.00049982 -0.04695637
v 0.05873841 -0.00422639 -0.05247672
v 0.06115967 -0.00904864 -0.05361135
v 0.06332236 -0.00530064 -0.05441405
v 0.04749286 -0.00044734 -0.04549707
v 0.04691672 -0.00050060 -0.04504140
v 0.04676425 -0.00383884 -0.04492821
v 0.05874913 -0.01508677 -0.05249347
v 0.05530184 -0.01819109 -0.05059279
v 0.05931603 -0.01821869 -0.05256899
v 0.04872745 -0.00812220 -0.04651965
v 0.05000931 -0.01328063 -0.04748197
v 0.05227977 -0.00592822 -0.04896708
v 0.04946589 0.00049982 -0.04695637
v 0.06517428 -0.01822227 -0.05479432
v 0.06628972 -0.01602602 -0.05530031
v 0.06562077 -0.01232159 -0.05521209
v 0.05213993 -0.01399981 -0.04889943
v 0.05478066 -0.01277434 -0.05051865
v 0.05227977 -0.00592822 -0.04896708
v 0.05530184 -0.01819109 -0.05059279
v 0.05874913 -0.01508677 -0.05249347
v 0.05478066 -0.01277434 -0.05051865
v 0.06692719 -0.00402981 -0.05552174
v 0.06924068 0.00049964 -0.05587382
v 0.06696510 0.00049991 -0.05527277
v 0.06692719 -0.00402981 -0.05552174
v 0.06920307 -0.00572819 -0.05623103
v 0.06924068 0.00049964 -0.05587382
v 0.04676425 -0.00383884 -0.04492821
v 0.04872745 -0.00812220 -0.04651965
v 0.04749286 -0.00044734 -0.04549707
v 0.06225121 -0.01820832 -0.05376358
v 0.06517428 -0.01822227 -0.05479432
v 0.06562077 -0.01232159 -0.05521209
v 0.05000931 -0.01328063 -0.04748197
v 0.05213993 -0.01399981 -0.04889943
v 0.05227977 -0.00592822 -0.04896708
v 0.05773830 -0.00909698 -0.05208106
v 0.06115967 -0.00904864 -0.05361135
v 0.05873841 -0.00422639 -0.05247672
v 0.06332236 -0.00530064 -0.05441405
v 0.06696510 0.00049991 -0.05527277
v 0.06243759 0.00049994 -0.05380644
v 0.06692719 -0.00402981 -0.05552174
v 0.05190920 -0.01813966 -0.04860915
v 0.05530184 -0.01819109 -0.05059279
v 0.05478066 -0.01277434 -0.05051865
v 0.05497843 -0.00343496 -0.05053045
v 0.05713427 0.00049979 -0.05151869
v 0.05303192 0.00049993 -0.04926921
v 0.05213993 -0.01399981 -0.04889943
v 0.05190920 -0.01813966 -0.04860915
v 0.05478066 -0.01277434 -0.05051865
v 0.04603397 -0.00830400 -0.04434700
v 0.05497843 -0.00343496 -0.05053045
v 0.05773830 -0.00909698 -0.05208106
v 0.05873841 -0.00422639 -0.05247672
v 0.06815552 -0.01012164 -0.05596275
v 0.06920307 -0.00572819 -0.05623103
v 0.06692719 -0.00402981 -0.05552174
v 0.05874913 -0.01508677 -0.05249347
v 0.06253939 -0.01259768 -0.05413617
v 0.06115967 -0.00904864 -0.05361135
v 0.05227977 -0.00592822 -0.04896708
v 0.05497843 -0.00343496 -0.05053045
v 0.05303192 0.00049993 -0.04926921
v 0.05000931 -0.01328063 -0.04748197
v 0.05190920 -0.01813966 -0.04860915
v 0.05213993 -0.01399981 -0.04889943
v 0.05773830 -0.00909698 -0.05208106
v 0.05874913 -0.01508677 -0.05249347
v 0.06115967 -0.00904864 -0.05361135
v 0.06562077 -0.01232159 -0.05521209
v 0.04849112 -0.01817977 -0.04627771
v 0.04605054 -0.01819932 -0.04439230
v 0.05000931 -0.01328063 -0.04748197
v 0.04872745 -0.00812220 -0.04651965
v 0.05478066 -0.01277434 -0.05051865
v 0.05773830 -0.00909698 -0.05208106
v 0.05497843 -0.00343496 -0.05053045
v 0.04505497 -0.01191145 -0.04353167
v 0.04605054 -0.01819932 -0.04439230
v 0.04872745 -0.00812220 -0.04651965
v 0.04505497 -0.01191145 -0.04353167
v 0.04872745 -0.00812220 -0.04651965
v 0.04603397 -0.00830400 -0.04434700
v 0.05874913 -0.01508677 -0.05249347
v 0.06225121 -0.01820832 -0.05376358
v 0.06253939 -0.01259768 -0.05413617
v 0.05873841 -0.00422639 -0.05247672
v 0.06243759 0.00049994 -0.05380644
v 0.05713427 0.00049979 -0.05151869
v 0.05873841 -0.00422639 -0.05247672
v 0.06332236 -0.00530064 -0.05441405
v 0.06243759 0.00049994 -0.05380644
v 0.04379671 -0.01517897 -0.04240115
v 0.04605054 -0.01819932 -0.04439230
v 0.04505497 -0.01191145 -0.04353167
v 0.06332236 -0.00530064 -0.05441405
v 0.06562077 -0.01232159 -0.05521209
v 0.06692719 -0.00402981 -0.05552174
v 0.04338467 -0.01824939 -0.04205967
v 0.04223942 -0.01832801 -0.04106952
v 0.04338467 -0.01824939 -0.04205967
v 0.04379671 -0.01517897 -0.04240115
v 0.04946589 0.00049982 -0.04695637
v 0.05227977 -0.00592822 -0.04896708
v 0.05303192 0.00049993 -0.04926921
v 0.06225121 -0.01820832 -0.05376358
v 0.06562077 -0.01232159 -0.05521209
v 0.06253939 -0.01259768 -0.05413617
v 0.04605054 -0.01819932 -0.04439230
v 0.04849112 -0.01817977 -0.04627771
v 0.05000931 -0.01328063 -0.04748197
v 0.05931603 -0.01821869 -0.05256899
v 0.06225121 -0.01820832 -0.05376358
v 0.05874913 -0.01508677 -0.05249347
v 0.05227977 -0.00592822 -0.04896708
v 0.05478066 -0.01277434 -0.05051865
v 0.05497843 -0.00343496 -0.05053045
v 0.06562077 -0.01232159 -0.05521209
v 0.06628972 -0.01602602 -0.05530031
v 0.06815552 -0.01012164 -0.05596275
v 0.05322390 -0.01838266 -0.08099980
v 0.05445647 -0.01834726 -0.07708145
v 0.04903090 -0.01839751 -0.07717581
v 0.05322390 -0.01838266 -0.08099980
v 0.04903090 -0.01839751 -0.07717581
v 0.05035156 -0.01838392 -0.08841260
v 0.04597640 -0.01835227 -0.04448230
v 0.04223942 -0.01832801 -0.04106952
v 0.04411298 -0.01839876 -0.04916890
v 0.05183374 -0.01838266 -0.08842189
v 0.05005306 -0.01838552 -0.04763914
v 0.05422848 -0.01836907 -0.05016954
v 0.05005306 -0.01838552 -0.04763914
v 0.04411298 -0.01839876 -0.04916890
v 0.04615086 -0.01839751 -0.05922951
v 0.05705475 -0.01836806 -0.05165137
v 0.06250947 -0.01836204 -0.06067468
v 0.06535094 -0.01837998 -0.05506821
v 0.06021010 -0.01837188 -0.05311437
v 0.06576228 -0.01837444 -0.05631800
v 0.05998837 -0.01837921 -0.06449582
v 0.05998837 -0.01837921 -0.06449582
v 0.06250947 -0.01836204 -0.06067468
v 0.06021010 -0.01837188 -0.05311437
v 0.04766130 -0.01839619 -0.06781448
v 0.05756825 -0.01834702 -0.06921471
v 0.05998837 -0.01837921 -0.06449582
v 0.04766130 -0.01839619 -0.06781448
v 0.05578690 -0.01834321 -0.07335360
v 0.05756825 -0.01834702 -0.06921471
v 0.05578690 -0.01834321 -0.07335360
v 0.04766130 -0.01839619 -0.06781448
v 0.04903090 -0.01839751 -0.07717581
v 0.05445647 -0.01834726 -0.07708145
v 0.06324464 -0.00121874 -0.06391008
v 0.06212496 -0.00171310 -0.06557204
v 0.06358355 0.00049921 -0.06317849
v 0.06770569 -0.00139666 -0.05944706
v 0.06769949 0.00050002 -0.05926503
v 0.06954801 0.00050000 -0.05808301
v 0.06770569 -0.00139666 -0.05944706
v 0.06954801 0.00050000 -0.05808301
v 0.06974267 -0.00165605 -0.05807806
v 0.05764490 -0.01280087 -0.07296116
v 0.05681300 -0.01039969 -0.07654299
v 0.05827283 -0.00889993 -0.07296081
v 0.05818897 -0.00277609 -0.07407291
v 0.05719465 -0.00198656 -0.07733817
v 0.05726933 0.00050002 -0.07653184
v 0.05372756 -0.01827681 -0.07975675
v 0.05389446 -0.01586383 -0.08249534
v 0.05453819 -0.01598191 -0.07970650
v 0.05651772 -0.00610447 -0.07948185
v 0.05580562 -0.00551683 -0.08303357
v 0.05602055 -0.00243735 -0.08280624
v 0.05596125 -0.00980240 -0.07992048
v 0.05546540 -0.00853330 -0.08297677
v 0.05580562 -0.00551683 -0.08303357
v 0.06018894 -0.00870180 -0.06878222
v 0.05906707 -0.00560969 -0.07164801
v 0.06047135 -0.00563848 -0.06859506
v 0.06018894 -0.00870180 -0.06878222
v 0.05827283 -0.00889993 -0.07296081
v 0.05906707 -0.00560969 -0.07164801
v 0.05290091 -0.01828444 -0.08312078
v 0.05670869 -0.00276995 -0.07932468
v 0.05389124 -0.01363188 -0.08580811
v 0.05345916 -0.01372838 -0.08881689
v 0.05427831 -0.01080238 -0.08771379
v 0.06190747 -0.00567240 -0.06616820
v 0.06059390 -0.00227952 -0.06824983
v 0.06212496 -0.00171310 -0.06557204
v 0.06047135 -0.00563848 -0.06859506
v 0.06059390 -0.00227952 -0.06824983
v 0.06190747 -0.00567240 -0.06616820
v 0.05546826 -0.01655000 -0.07603641
v 0.05508840 -0.01344978 -0.08029397
v 0.05609506 -0.01369172 -0.07661982
v 0.05546826 -0.01655000 -0.07603641
v 0.05453819 -0.01598191 -0.07970650
v 0.05508840 -0.01344978 -0.08029397
v 0.05485308 -0.01173937 -0.08308925
v 0.05427831 -0.01080238 -0.08771379
v 0.05477601 -0.00867611 -0.08690537
v 0.05818897 -0.00277609 -0.07407291
v 0.05726933 0.00050002 -0.07653184
v 0.05837291 0.00049980 -0.07294173
v 0.05485308 -0.01173937 -0.08308925
v 0.05477601 -0.00867611 -0.08690537
v 0.05546540 -0.00853330 -0.08297677
v 0.05764490 -0.01280087 -0.07296116
v 0.05609506 -0.01369172 -0.07661982
v 0.05681300 -0.01039969 -0.07654299
v 0.06134891 -0.01626342 -0.06398476
v 0.05939257 -0.01826882 -0.06583889
v 0.05993312 -0.01667732 -0.06604130
v 0.06134891 -0.01626342 -0.06398476
v 0.06085044 -0.01830881 -0.06330205
v 0.05939257 -0.01826882 -0.06583889
v 0.05596125 -0.00980240 -0.07992048
v 0.05580562 -0.00551683 -0.08303357
v 0.05651772 -0.00610447 -0.07948185
v 0.05205363 -0.01763486 -0.08999742
v 0.05246001 -0.01630866 -0.09075941
v 0.05314534 -0.01403737 -0.09089280
v 0.05205363 -0.01763486 -0.08999742
v 0.05314534 -0.01403737 -0.09089280
v 0.05345916 -0.01372838 -0.08881689
v 0.05735301 -0.00634223 -0.07635464
v 0.05651772 -0.00610447 -0.07948185
v 0.05670869 -0.00276995 -0.07932468
v 0.05735301 -0.00634223 -0.07635464
v 0.05670869 -0.00276995 -0.07932468
v 0.05719465 -0.00198656 -0.07733817
v 0.05546826 -0.01655000 -0.07603641
v 0.05372756 -0.01827681 -0.07975675
v 0.05453819 -0.01598191 -0.07970650
v 0.06481832 -0.01683181 -0.05883355
v 0.06606578 -0.01495856 -0.05853481
v 0.06654614 -0.01674056 -0.05685659
v 0.06481832 -0.01683181 -0.05883355
v 0.06654614 -0.01674056 -0.05685659
v 0.06576228 -0.01837444 -0.05631800
v 0.06481832 -0.01683181 -0.05883355
v 0.06576228 -0.01837444 -0.05631800
v 0.06250947 -0.01836204 -0.06067468
v 0.06347274 -0.00486821 -0.06388594
v 0.06212496 -0.00171310 -0.06557204
v 0.06324464 -0.00121874 -0.06391008
v 0.06358355 0.00049921 -0.06317849
v 0.06546705 0.00049869 -0.06114848
v 0.06638228 -0.00392294 -0.06072224
v 0.06519579 -0.00390893 -0.06185467
v 0.06324464 -0.00121874 -0.06391008
v 0.06358355 0.00049921 -0.06317849
v 0.06519579 -0.00390893 -0.06185467
v 0.06347274 -0.00486821 -0.06388594
v 0.06324464 -0.00121874 -0.06391008
v 0.06018894 -0.00870180 -0.06878222
v 0.06047135 -0.00563848 -0.06859506
v 0.06190747 -0.00567240 -0.06616820
v 0.05445647 -0.01834726 -0.07708145
v 0.05372756 -0.01827681 -0.07975675
v 0.05546826 -0.01655000 -0.07603641
v 0.06347274 -0.00486821 -0.06388594
v 0.06519579 -0.00390893 -0.06185467
v 0.06532227 -0.00672364 -0.06164683
v 0.06770569 -0.00139666 -0.05944706
v 0.06638228 -0.00392294 -0.06072224
v 0.06546705 0.00049869 -0.06114848
v 0.06519579 -0.00390893 -0.06185467
v 0.06358355 0.00049921 -0.06317849
v 0.06638228 -0.00392294 -0.06072224
v 0.05389124 -0.01363188 -0.08580811
v 0.05427831 -0.01080238 -0.08771379
v 0.05485308 -0.01173937 -0.08308925
v 0.06347274 -0.00486821 -0.06388594
v 0.06190747 -0.00567240 -0.06616820
v 0.06212496 -0.00171310 -0.06557204
v 0.05312073 -0.01633185 -0.08561946
v 0.05345916 -0.01372838 -0.08881689
v 0.05389124 -0.01363188 -0.08580811
v 0.05892670 -0.00236571 -0.07196493
v 0.05837291 0.00049980 -0.07294173
v 0.05965358 0.00050003 -0.06962175
v 0.05899047 -0.01265937 -0.06998659
v 0.05764490 -0.01280087 -0.07296116
v 0.05827283 -0.00889993 -0.07296081
v 0.05899047 -0.01265937 -0.06998659
v 0.05827283 -0.00889993 -0.07296081
v 0.06018894 -0.00870180 -0.06878222
v 0.06318026 -0.00838369 -0.06405414
v 0.06532227 -0.00672364 -0.06164683
v 0.06450849 -0.01018869 -0.06203116
v 0.06318026 -0.00838369 -0.06405414
v 0.06347274 -0.00486821 -0.06388594
v 0.06532227 -0.00672364 -0.06164683
v 0.06800282 -0.00402969 -0.05933107
v 0.06638228 -0.00392294 -0.06072224
v 0.06770569 -0.00139666 -0.05944706
v 0.05892670 -0.00236571 -0.07196493
v 0.05818897 -0.00277609 -0.07407291
v 0.05837291 0.00049980 -0.07294173
v 0.05546826 -0.01655000 -0.07603641
v 0.05609506 -0.01369172 -0.07661982
v 0.05764490 -0.01280087 -0.07296116
v 0.06638228 -0.00392294 -0.06072224
v 0.06532227 -0.00672364 -0.06164683
v 0.06519579 -0.00390893 -0.06185467
v 0.05312073 -0.01633185 -0.08561946
v 0.05205363 -0.01763486 -0.08999742
v 0.05345916 -0.01372838 -0.08881689
v 0.05735301 -0.00634223 -0.07635464
v 0.05719465 -0.00198656 -0.07733817
v 0.05818897 -0.00277609 -0.07407291
v 0.06257992 -0.01229405 -0.06396045
v 0.06177341 -0.00953025 -0.06587215
v 0.06318026 -0.00838369 -0.06405414
v 0.06115746 -0.01276016 -0.06594314
v 0.06800282 -0.00402969 -0.05933107
v 0.06770569 -0.00139666 -0.05944706
v 0.06974267 -0.00165605 -0.05807806
v 0.06800282 -0.00402969 -0.05933107
v 0.06974267 -0.00165605 -0.05807806
v 0.06972396 -0.00366270 -0.05805881
v 0.05536288 -0.00201112 -0.08753116
v 0.05500000 -0.00267357 -0.09090574
v 0.05508357 0.00049959 -0.09090508
v 0.06749260 -0.00670016 -0.05957348
v 0.05578690 -0.01834321 -0.07335360
v 0.05445647 -0.01834726 -0.07708145
v 0.05546826 -0.01655000 -0.07603641
v 0.05536288 -0.00201112 -0.08753116
v 0.05508357 0.00049959 -0.09090508
v 0.05557161 0.00050000 -0.08589335
v 0.06800282 -0.00402969 -0.05933107
v 0.06972396 -0.00366270 -0.05805881
v 0.06931793 -0.00645500 -0.05821200
v 0.06177341 -0.00953025 -0.06587215
v 0.06018894 -0.00870180 -0.06878222
v 0.06190747 -0.00567240 -0.06616820
v 0.06016314 -0.01168030 -0.06806786
v 0.06018894 -0.00870180 -0.06878222
v 0.06177341 -0.00953025 -0.06587215
v 0.06532227 -0.00672364 -0.06164683
v 0.06749260 -0.00670016 -0.05957348
v 0.06576180 -0.01041996 -0.06061072
v 0.06257992 -0.01229405 -0.06396045
v 0.06318026 -0.00838369 -0.06405414
v 0.06450849 -0.01018869 -0.06203116
v 0.06016314 -0.01168030 -0.06806786
v 0.05899047 -0.01265937 -0.06998659
v 0.06018894 -0.00870180 -0.06878222
v 0.06749260 -0.00670016 -0.05957348
v 0.06638228 -0.00392294 -0.06072224
v 0.06800282 -0.00402969 -0.05933107
v 0.06318026 -0.00838369 -0.06405414
v 0.06190747 -0.00567240 -0.06616820
v 0.06347274 -0.00486821 -0.06388594
v 0.06749260 -0.00670016 -0.05957348
v 0.05510890 -0.00569636 -0.08759011
v 0.05500000 -0.00267357 -0.09090574
v 0.05536288 -0.00201112 -0.08753116
v 0.05685842 -0.01645982 -0.07246060
v 0.05546826 -0.01655000 -0.07603641
v 0.05764490 -0.01280087 -0.07296116
v 0.05596125 -0.00980240 -0.07992048
v 0.05485308 -0.01173937 -0.08308925
v 0.05546540 -0.00853330 -0.08297677
v 0.05685842 -0.01645982 -0.07246060
v 0.05578690 -0.01834321 -0.07335360
v 0.05546826 -0.01655000 -0.07603641
v 0.06257992 -0.01229405 -0.06396045
v 0.06450849 -0.01018869 -0.06203116
v 0.06401622 -0.01299721 -0.06177927
v 0.06576180 -0.01041996 -0.06061072
v 0.06450849 -0.01018869 -0.06203116
v 0.06532227 -0.00672364 -0.06164683
v 0.05480504 -0.00513929 -0.09092445
v 0.05500000 -0.00267357 -0.09090574
v 0.05510890 -0.00569636 -0.08759011
v 0.06059390 -0.00227952 -0.06824983
v 0.05892670 -0.00236571 -0.07196493
v 0.05965358 0.00050003 -0.06962175
v 0.06257992 -0.01229405 -0.06396045
v 0.05993312 -0.01667732 -0.06604130
v 0.06115746 -0.01276016 -0.06594314
v 0.06257992 -0.01229405 -0.06396045
v 0.06134891 -0.01626342 -0.06398476
v 0.05993312 -0.01667732 -0.06604130
v 0.06762880 -0.00838655 -0.05923725
v 0.06576180 -0.01041996 -0.06061072
v 0.06749260 -0.00670016 -0.05957348
v 0.05225902 -0.01827317 -0.08667446
v 0.05190479 -0.01820361 -0.08907087
v 0.05205363 -0.01763486 -0.08999742
v 0.05225902 -0.01827317 -0.08667446
v 0.05205363 -0.01763486 -0.08999742
v 0.05312073 -0.01633185 -0.08561946
v 0.05389446 -0.01586383 -0.08249534
v 0.05389124 -0.01363188 -0.08580811
v 0.05485308 -0.01173937 -0.08308925
v 0.06762880 -0.00838655 -0.05923725
v 0.06749260 -0.00670016 -0.05957348
v 0.06931793 -0.00645500 -0.05821200
v 0.05602055 -0.00243735 -0.08280624
v 0.05557161 0.00050000 -0.08589335
v 0.05624568 0.00049995 -0.08129366
v 0.05602055 -0.00243735 -0.08280624
v 0.05536288 -0.00201112 -0.08753116
v 0.05557161 0.00050000 -0.08589335
v 0.06576180 -0.01041996 -0.06061072
v 0.06401622 -0.01299721 -0.06177927
v 0.06450849 -0.01018869 -0.06203116
v 0.06177341 -0.00953025 -0.06587215
v 0.06190747 -0.00567240 -0.06616820
v 0.06318026 -0.00838369 -0.06405414
v 0.06762880 -0.00838655 -0.05923725
v 0.06931793 -0.00645500 -0.05821200
v 0.06895917 -0.00895327 -0.05801923
v 0.05681300 -0.01039969 -0.07654299
v 0.05596125 -0.00980240 -0.07992048
v 0.05651772 -0.00610447 -0.07948185
v 0.05681300 -0.01039969 -0.07654299
v 0.05651772 -0.00610447 -0.07948185
v 0.05735301 -0.00634223 -0.07635464
v 0.06115746 -0.01276016 -0.06594314
v 0.06016314 -0.01168030 -0.06806786
v 0.06177341 -0.00953025 -0.06587215
v 0.06708824 -0.01153028 -0.05897511
v 0.06576180 -0.01041996 -0.06061072
v 0.06762880 -0.00838655 -0.05923725
v 0.05508840 -0.01344978 -0.08029397
v 0.05485308 -0.01173937 -0.08308925
v 0.05596125 -0.00980240 -0.07992048
v 0.06708824 -0.01153028 -0.05897511
v 0.06762880 -0.00838655 -0.05923725
v 0.06895917 -0.00895327 -0.05801923
v 0.06401622 -0.01299721 -0.06177927
v 0.06576180 -0.01041996 -0.06061072
v 0.06525206 -0.01383566 -0.05998178
v 0.05835103 -0.01622122 -0.06932075
v 0.05764490 -0.01280087 -0.07296116
v 0.05899047 -0.01265937 -0.06998659
v 0.05835103 -0.01622122 -0.06932075
v 0.05685842 -0.01645982 -0.07246060
v 0.05764490 -0.01280087 -0.07296116
v 0.05820482 -0.00686383 -0.07367606
v 0.05735301 -0.00634223 -0.07635464
v 0.05818897 -0.00277609 -0.07407291
v 0.06281620 -0.01651597 -0.06166608
v 0.06134891 -0.01626342 -0.06398476
v 0.06401622 -0.01299721 -0.06177927
v 0.06708824 -0.01153028 -0.05897511
v 0.06895917 -0.00895327 -0.05801923
v 0.06855291 -0.01110082 -0.05772336
v 0.05477601 -0.00867611 -0.08690537
v 0.05480504 -0.00513929 -0.09092445
v 0.05510890 -0.00569636 -0.08759011
v 0.05477601 -0.00867611 -0.08690537
v 0.05427241 -0.00922966 -0.09084607
v 0.05480504 -0.00513929 -0.09092445
v 0.06708824 -0.01153028 -0.05897511
v 0.06525206 -0.01383566 -0.05998178
v 0.06576180 -0.01041996 -0.06061072
v 0.05508840 -0.01344978 -0.08029397
v 0.05389446 -0.01586383 -0.08249534
v 0.05485308 -0.01173937 -0.08308925
v 0.06525206 -0.01383566 -0.05998178
v 0.06281620 -0.01651597 -0.06166608
v 0.06401622 -0.01299721 -0.06177927
v 0.05835103 -0.01622122 -0.06932075
v 0.05899047 -0.01265937 -0.06998659
v 0.06016314 -0.01168030 -0.06806786
v 0.05389446 -0.01586383 -0.08249534
v 0.05312073 -0.01633185 -0.08561946
v 0.05389124 -0.01363188 -0.08580811
v 0.06281620 -0.01651597 -0.06166608
v 0.06085044 -0.01830881 -0.06330205
v 0.06134891 -0.01626342 -0.06398476
v 0.06281620 -0.01651597 -0.06166608
v 0.06250947 -0.01836204 -0.06067468
v 0.06085044 -0.01830881 -0.06330205
v 0.06708824 -0.01153028 -0.05897511
v 0.06855291 -0.01110082 -0.05772336
v 0.06758743 -0.01390302 -0.05751623
v 0.06481832 -0.01683181 -0.05883355
v 0.06281620 -0.01651597 -0.06166608
v 0.06525206 -0.01383566 -0.05998178
v 0.06525206 -0.01383566 -0.05998178
v 0.06606578 -0.01495856 -0.05853481
v 0.06481832 -0.01683181 -0.05883355
v 0.05906707 -0.00560969 -0.07164801
v 0.05818897 -0.00277609 -0.07407291
v 0.05892670 -0.00236571 -0.07196493
v 0.06059390 -0.00227952 -0.06824983
v 0.05965358 0.00050003 -0.06962175
v 0.06149554 0.00050000 -0.06611074
v 0.06606578 -0.01495856 -0.05853481
v 0.06758743 -0.01390302 -0.05751623
v 0.06654614 -0.01674056 -0.05685659
v 0.06481832 -0.01683181 -0.05883355
v 0.06250947 -0.01836204 -0.06067468
v 0.06281620 -0.01651597 -0.06166608
v 0.06770569 -0.00139666 -0.05944706
v 0.06546705 0.00049869 -0.06114848
v 0.06769949 0.00050002 -0.05926503
v 0.05580562 -0.00551683 -0.08303357
v 0.05510890 -0.00569636 -0.08759011
v 0.05536288 -0.00201112 -0.08753116
v 0.05580562 -0.00551683 -0.08303357
v 0.05536288 -0.00201112 -0.08753116
v 0.05602055 -0.00243735 -0.08280624
v 0.05290091 -0.01828444 -0.08312078
v 0.05225902 -0.01827317 -0.08667446
v 0.05312073 -0.01633185 -0.08561946
v 0.06134891 -0.01626342 -0.06398476
v 0.06257992 -0.01229405 -0.06396045
v 0.06401622 -0.01299721 -0.06177927
v 0.05835103 -0.01622122 -0.06932075
v 0.05578690 -0.01834321 -0.07335360
v 0.05685842 -0.01645982 -0.07246060
v 0.06115746 -0.01276016 -0.06594314
v 0.05835103 -0.01622122 -0.06932075
v 0.06016314 -0.01168030 -0.06806786
v 0.05756825 -0.01834702 -0.06921471
v 0.05578690 -0.01834321 -0.07335360
v 0.05835103 -0.01622122 -0.06932075
v 0.06606578 -0.01495856 -0.05853481
v 0.06708824 -0.01153028 -0.05897511
v 0.06758743 -0.01390302 -0.05751623
v 0.05427831 -0.01080238 -0.08771379
v 0.05427241 -0.00922966 -0.09084607
v 0.05477601 -0.00867611 -0.08690537
v 0.06525206 -0.01383566 -0.05998178
v 0.06708824 -0.01153028 -0.05897511
v 0.06606578 -0.01495856 -0.05853481
v 0.05670869 -0.00276995 -0.07932468
v 0.05602055 -0.00243735 -0.08280624
v 0.05624568 0.00049995 -0.08129366
v 0.05906707 -0.00560969 -0.07164801
v 0.05820482 -0.00686383 -0.07367606
v 0.05818897 -0.00277609 -0.07407291
v 0.05993312 -0.01667732 -0.06604130
v 0.05835103 -0.01622122 -0.06932075
v 0.06115746 -0.01276016 -0.06594314
v 0.05719465 -0.00198656 -0.07733817
v 0.05624568 0.00049995 -0.08129366
v 0.05726933 0.00050002 -0.07653184
v 0.05290091 -0.01828444 -0.08312078
v 0.05312073 -0.01633185 -0.08561946
v 0.05389446 -0.01586383 -0.08249534
v 0.05827283 -0.00889993 -0.07296081
v 0.05735301 -0.00634223 -0.07635464
v 0.05820482 -0.00686383 -0.07367606
v 0.05345916 -0.01372838 -0.08881689
v 0.05314534 -0.01403737 -0.09089280
v 0.05427241 -0.00922966 -0.09084607
v 0.05827283 -0.00889993 -0.07296081
v 0.05681300 -0.01039969 -0.07654299
v 0.05735301 -0.00634223 -0.07635464
v 0.05345916 -0.01372838 -0.08881689
v 0.05427241 -0.00922966 -0.09084607
v 0.05427831 -0.01080238 -0.08771379
v 0.06212496 -0.00171310 -0.06557204
v 0.06059390 -0.00227952 -0.06824983
v 0.06149554 0.00050000 -0.06611074
v 0.05719465 -0.00198656 -0.07733817
v 0.05670869 -0.00276995 -0.07932468
v 0.05624568 0.00049995 -0.08129366
v 0.06047135 -0.00563848 -0.06859506
v 0.05892670 -0.00236571 -0.07196493
v 0.06059390 -0.00227952 -0.06824983
v 0.06047135 -0.00563848 -0.06859506
v 0.05906707 -0.00560969 -0.07164801
v 0.05892670 -0.00236571 -0.07196493
v 0.05939257 -0.01826882 -0.06583889
v 0.05756825 -0.01834702 -0.06921471
v 0.05835103 -0.01622122 -0.06932075
v 0.05939257 -0.01826882 -0.06583889
v 0.05835103 -0.01622122 -0.06932075
v 0.05993312 -0.01667732 -0.06604130
v 0.05546540 -0.00853330 -0.08297677
v 0.05510890 -0.00569636 -0.08759011
v 0.05580562 -0.00551683 -0.08303357
v 0.05453819 -0.01598191 -0.07970650
v 0.05389446 -0.01586383 -0.08249534
v 0.05508840 -0.01344978 -0.08029397
v 0.05827283 -0.00889993 -0.07296081
v 0.05820482 -0.00686383 -0.07367606
v 0.05906707 -0.00560969 -0.07164801
v 0.05609506 -0.01369172 -0.07661982
v 0.05596125 -0.00980240 -0.07992048
v 0.05681300 -0.01039969 -0.07654299
v 0.05508840 -0.01344978 -0.08029397
v 0.06212496 -0.00171310 -0.06557204
v 0.06149554 0.00050000 -0.06611074
v 0.06358355 0.00049921 -0.06317849
v 0.05477601 -0.00867611 -0.08690537
v 0.05510890 -0.00569636 -0.08759011
v 0.05546540 -0.00853330 -0.08297677
v 0.05123448 -0.01644277 -0.09087170
v 0.05156862 -0.01546812 -0.09104492
v 0.05247950 -0.01579207 -0.09102608
v 0.05214053 -0.01689547 -0.09065594
v 0.05089753 -0.01732003 -0.09035094
v 0.05123448 -0.01644277 -0.09087170
v 0.05214053 -0.01689547 -0.09065594
v 0.05123448 -0.01644277 -0.09087170
v 0.05247950 -0.01579207 -0.09102608
v 0.05205363 -0.01763486 -0.08999742
v 0.05089753 -0.01732003 -0.09035094
v 0.05214053 -0.01689547 -0.09065594
v 0.05205363 -0.01763486 -0.08999742
v 0.05056834 -0.01803177 -0.08950634
v 0.05089753 -0.01732003 -0.09035094
v 0.05190479 -0.01820361 -0.08907087
v 0.05056834 -0.01803177 -0.08950634
v 0.05205363 -0.01763486 -0.08999742
v 0.05190479 -0.01820361 -0.08907087
v 0.05035156 -0.01838392 -0.08841260
v 0.05056834 -0.01803177 -0.08950634
v 0.05183374 -0.01838266 -0.08842189
v 0.05035156 -0.01838392 -0.08841260
v 0.05190479 -0.01820361 -0.08907087
v 0.06661206 -0.01681721 -0.05615236
v 0.06580901 -0.01831144 -0.05568351
v 0.06576228 -0.01837444 -0.05631800
v 0.06661206 -0.01681721 -0.05615236
v 0.06576228 -0.01837444 -0.05631800
v 0.06654614 -0.01674056 -0.05685659
v 0.06993669 -0.00278199 -0.05678637
v 0.06996136 -0.00361931 -0.05714418
v 0.07005727 -0.00205260 -0.05740560
v 0.06572055 -0.01812541 -0.05526002
v 0.06580901 -0.01831144 -0.05568351
v 0.06661206 -0.01681721 -0.05615236
v 0.06628972 -0.01602602 -0.05530031
v 0.06517428 -0.01822227 -0.05479432
v 0.06572055 -0.01812541 -0.05526002
v 0.06767225 -0.01421505 -0.05706163
v 0.06654614 -0.01674056 -0.05685659
v 0.06758743 -0.01390302 -0.05751623
v 0.06884104 -0.00994694 -0.05651946
v 0.06856983 -0.01159834 -0.05698009
v 0.06907463 -0.00940317 -0.05682315
v 0.06767225 -0.01421505 -0.05706163
v 0.06661206 -0.01681721 -0.05615236
v 0.06654614 -0.01674056 -0.05685659
v 0.06773567 -0.01411437 -0.05667235
v 0.06661206 -0.01681721 -0.05615236
v 0.06767225 -0.01421505 -0.05706163
v 0.06761687 -0.01398772 -0.05612124
v 0.06661206 -0.01681721 -0.05615236
v 0.06773567 -0.01411437 -0.05667235
v 0.06761687 -0.01398772 -0.05612124
v 0.06572055 -0.01812541 -0.05526002
v 0.06661206 -0.01681721 -0.05615236
v 0.06761687 -0.01398772 -0.05612124
v 0.06628972 -0.01602602 -0.05530031
v 0.06572055 -0.01812541 -0.05526002
v 0.06956171 -0.00623518 -0.05672015
v 0.06907463 -0.00940317 -0.05682315
v 0.06953173 -0.00741595 -0.05721684
v 0.06884104 -0.00994694 -0.05651946
v 0.06956171 -0.00623518 -0.05672015
v 0.06920307 -0.00572819 -0.05623103
v 0.06855291 -0.01110082 -0.05772336
v 0.06767225 -0.01421505 -0.05706163
v 0.06758743 -0.01390302 -0.05751623
v 0.06856983 -0.01159834 -0.05698009
v 0.06767225 -0.01421505 -0.05706163
v 0.06855291 -0.01110082 -0.05772336
v 0.07005727 -0.00205260 -0.05740560
v 0.06972396 -0.00366270 -0.05805881
v 0.06974267 -0.00165605 -0.05807806
v 0.06856983 -0.01159834 -0.05698009
v 0.06773567 -0.01411437 -0.05667235
v 0.06767225 -0.01421505 -0.05706163
v 0.06856983 -0.01159834 -0.05698009
v 0.06761687 -0.01398772 -0.05612124
v 0.06773567 -0.01411437 -0.05667235
v 0.06884104 -0.00994694 -0.05651946
v 0.06761687 -0.01398772 -0.05612124
v 0.06856983 -0.01159834 -0.05698009
v 0.06857699 -0.00987244 -0.05620135
v 0.06761687 -0.01398772 -0.05612124
v 0.06884104 -0.00994694 -0.05651946
v 0.06857699 -0.00987244 -0.05620135
v 0.06628972 -0.01602602 -0.05530031
v 0.06761687 -0.01398772 -0.05612124
v 0.06815552 -0.01012164 -0.05596275
v 0.06628972 -0.01602602 -0.05530031
v 0.06857699 -0.00987244 -0.05620135
v 0.06885802 -0.01043593 -0.05738605
v 0.06907463 -0.00940317 -0.05682315
v 0.06856983 -0.01159834 -0.05698009
v 0.06907463 -0.00940317 -0.05682315
v 0.06956171 -0.00623518 -0.05672015
v 0.06884104 -0.00994694 -0.05651946
v 0.06977486 -0.00543118 -0.05761821
v 0.06931793 -0.00645500 -0.05821200
v 0.06972396 -0.00366270 -0.05805881
v 0.06920307 -0.00572819 -0.05623103
v 0.06978577 -0.00198579 -0.05642988
v 0.06965899 0.00049760 -0.05612887
v 0.06996136 -0.00361931 -0.05714418
v 0.06953173 -0.00741595 -0.05721684
v 0.06977486 -0.00543118 -0.05761821
v 0.06956171 -0.00623518 -0.05672015
v 0.06953173 -0.00741595 -0.05721684
v 0.06996136 -0.00361931 -0.05714418
v 0.07005727 -0.00205260 -0.05740560
v 0.06977486 -0.00543118 -0.05761821
v 0.06972396 -0.00366270 -0.05805881
v 0.06996136 -0.00361931 -0.05714418
v 0.06977486 -0.00543118 -0.05761821
v 0.07005727 -0.00205260 -0.05740560
v 0.06993669 -0.00278199 -0.05678637
v 0.06956171 -0.00623518 -0.05672015
v 0.06996136 -0.00361931 -0.05714418
v 0.06978577 -0.00198579 -0.05642988
v 0.06956171 -0.00623518 -0.05672015
v 0.06993669 -0.00278199 -0.05678637
v 0.06978577 -0.00198579 -0.05642988
v 0.06920307 -0.00572819 -0.05623103
v 0.06956171 -0.00623518 -0.05672015
v 0.06855291 -0.01110082 -0.05772336
v 0.06895917 -0.00895327 -0.05801923
v 0.06930917 -0.00821960 -0.05766590
v 0.06885802 -0.01043593 -0.05738605
v 0.06930917 -0.00821960 -0.05766590
v 0.06953173 -0.00741595 -0.05721684
v 0.06885802 -0.01043593 -0.05738605
v 0.06953173 -0.00741595 -0.05721684
v 0.06907463 -0.00940317 -0.05682315
v 0.06974267 -0.00165605 -0.05807806
v 0.06954801 0.00050000 -0.05808301
v 0.06994438 0.00049999 -0.05759026
v 0.07005727 -0.00205260 -0.05740560
v 0.06974267 -0.00165605 -0.05807806
v 0.06994438 0.00049999 -0.05759026
v 0.07005727 -0.00205260 -0.05740560
v 0.06994438 0.00049999 -0.05759026
v 0.07001650 0.00050023 -0.05673767
v 0.06993669 -0.00278199 -0.05678637
v 0.07005727 -0.00205260 -0.05740560
v 0.07001650 0.00050023 -0.05673767
v 0.06977486 -0.00543118 -0.05761821
v 0.06953173 -0.00741595 -0.05721684
v 0.06930917 -0.00821960 -0.05766590
v 0.07001650 0.00050023 -0.05673767
v 0.06978577 -0.00198579 -0.05642988
v 0.06993669 -0.00278199 -0.05678637
v 0.06965899 0.00049760 -0.05612887
v 0.06978577 -0.00198579 -0.05642988
v 0.07001650 0.00050023 -0.05673767
v 0.06855291 -0.01110082 -0.05772336
v 0.06930917 -0.00821960 -0.05766590
v 0.06885802 -0.01043593 -0.05738605
v 0.06931793 -0.00645500 -0.05821200
v 0.06977486 -0.00543118 -0.05761821
v 0.06930917 -0.00821960 -0.05766590
v 0.06920307 -0.00572819 -0.05623103
v 0.06885802 -0.01043593 -0.05738605
v 0.06895917 -0.00895327 -0.05801923
v 0.06931793 -0.00645500 -0.05821200
v 0.06930917 -0.00821960 -0.05766590
v 0.06920307 -0.00572819 -0.05623103
v 0.06965899 0.00049760 -0.05612887
v 0.06924068 0.00049964 -0.05587382
v 0.06884104 -0.00994694 -0.05651946
v 0.06920307 -0.00572819 -0.05623103
v 0.06857699 -0.00987244 -0.05620135
v 0.05931603 -0.01821869 -0.05256899
v 0.05530184 -0.01819109 -0.05059279
v 0.05705475 -0.01836806 -0.05165137
v 0.05422848 -0.01836907 -0.05016954
v 0.05530184 -0.01819109 -0.05059279
v 0.05190920 -0.01813966 -0.04860915
v 0.05190920 -0.01813966 -0.04860915
v 0.04958993 -0.01830059 -0.04715724
v 0.05422848 -0.01836907 -0.05016954
v 0.04597640 -0.01835227 -0.04448230
v 0.05005306 -0.01838552 -0.04763914
v 0.04958993 -0.01830059 -0.04715724
v 0.04597640 -0.01835227 -0.04448230
v 0.04849112 -0.01817977 -0.04627771
v 0.04605054 -0.01819932 -0.04439230
v 0.04338467 -0.01824939 -0.04205967
v 0.04597640 -0.01835227 -0.04448230
v 0.04605054 -0.01819932 -0.04439230
v 0.06021010 -0.01837188 -0.05311437
v 0.06535094 -0.01837998 -0.05506821
v 0.06225121 -0.01820832 -0.05376358
v 0.06517428 -0.01822227 -0.05479432
v 0.06225121 -0.01820832 -0.05376358
v 0.06535094 -0.01837998 -0.05506821
v 0.06021010 -0.01837188 -0.05311437
v 0.06225121 -0.01820832 -0.05376358
v 0.05931603 -0.01821869 -0.05256899
v 0.05422848 -0.01836907 -0.05016954
v 0.05705475 -0.01836806 -0.05165137
v 0.05530184 -0.01819109 -0.05059279
v 0.05005306 -0.01838552 -0.04763914
v 0.05422848 -0.01836907 -0.05016954
v 0.04958993 -0.01830059 -0.04715724
v 0.04597640 -0.01835227 -0.04448230
v 0.04958993 -0.01830059 -0.04715724
v 0.04849112 -0.01817977 -0.04627771
v 0.04223942 -0.01832801 -0.04106952
v 0.04597640 -0.01835227 -0.04448230
v 0.04338467 -0.01824939 -0.04205967
v 0.04958993 -0.01830059 -0.04715724
v 0.05190920 -0.01813966 -0.04860915
v 0.04849112 -0.01817977 -0.04627771
v 0.06021010 -0.01837188 -0.05311437
v 0.05931603 -0.01821869 -0.05256899
v 0.05705475 -0.01836806 -0.05165137
v 0.06535094 -0.01837998 -0.05506821
v 0.06580901 -0.01831144 -0.05568351
v 0.06572055 -0.01812541 -0.05526002
v 0.06535094 -0.01837998 -0.05506821
v 0.06576228 -0.01837444 -0.05631800
v 0.06580901 -0.01831144 -0.05568351
v 0.06517428 -0.01822227 -0.05479432
v 0.06535094 -0.01837998 -0.05506821
v 0.06572055 -0.01812541 -0.05526002
v 0.05998837 -0.01837921 -0.06449582
v 0.06085044 -0.01830881 -0.06330205
v 0.06250947 -0.01836204 -0.06067468
v 0.05290091 -0.01828444 -0.08312078
v 0.05322390 -0.01838266 -0.08099980
v 0.05183374 -0.01838266 -0.08842189
v 0.05290091 -0.01828444 -0.08312078
v 0.05372756 -0.01827681 -0.07975675
v 0.05322390 -0.01838266 -0.08099980
v 0.05225902 -0.01827317 -0.08667446
v 0.05183374 -0.01838266 -0.08842189
v 0.05190479 -0.01820361 -0.08907087
v 0.05183374 -0.01838266 -0.08842189
v 0.05225902 -0.01827317 -0.08667446
v 0.05290091 -0.01828444 -0.08312078
v 0.05322390 -0.01838266 -0.08099980
v 0.05372756 -0.01827681 -0.07975675
v 0.05445647 -0.01834726 -0.07708145
v 0.05939257 -0.01826882 -0.06583889
v 0.05998837 -0.01837921 -0.06449582
v 0.05756825 -0.01834702 -0.06921471
v 0.05998837 -0.01837921 -0.06449582
v 0.05939257 -0.01826882 -0.06583889
v 0.06085044 -0.01830881 -0.06330205
v 0.05246001 -0.01630866 -0.09075941
v 0.05205363 -0.01763486 -0.08999742
v 0.05214053 -0.01689547 -0.09065594
v 0.05247950 -0.01579207 -0.09102608
v 0.05246001 -0.01630866 -0.09075941
v 0.05214053 -0.01689547 -0.09065594
v 0.05314534 -0.01403737 -0.09089280
v 0.05246001 -0.01630866 -0.09075941
v 0.05247950 -0.01579207 -0.09102608
v 0.05376482 -0.01101797 -0.09103341
v 0.05314534 -0.01403737 -0.09089280
v 0.05247950 -0.01579207 -0.09102608
v 0.05433648 -0.00793475 -0.09102852
v 0.05427241 -0.00922966 -0.09084607
v 0.05376482 -0.01101797 -0.09103341
v 0.05480504 -0.00513929 -0.09092445
v 0.05427241 -0.00922966 -0.09084607
v 0.05433648 -0.00793475 -0.09102852
v 0.05480504 -0.00513929 -0.09092445
v 0.05433648 -0.00793475 -0.09102852
v 0.05488651 -0.00210190 -0.09103705
v 0.05500000 -0.00267357 -0.09090574
v 0.05480504 -0.00513929 -0.09092445
v 0.05488651 -0.00210190 -0.09103705
v 0.05500000 -0.00267357 -0.09090574
v 0.05488651 -0.00210190 -0.09103705
v 0.05508357 0.00049959 -0.09090508
v 0.05487746 0.00049996 -0.09104056
v 0.05508357 0.00049959 -0.09090508
v 0.05488651 -0.00210190 -0.09103705
v 0.05376482 -0.01101797 -0.09103341
v 0.05427241 -0.00922966 -0.09084607
v 0.05314534 -0.01403737 -0.09089280
v 0.05432653 -0.00043290 -0.09104307
v 0.05438441 0.00050000 -0.09104068
v 0.05438441 0.00050000 -0.09104086
vn 0.00007041 0.99999640 0.00268297
vn 0.00007041 0.99999640 0.00268297
vn 0.00007041 0.99999640 0.00268297
vn 0.00043527 0.99999985 -0.00032178
vn 0.00043527 0.99999985 -0.00032178
vn 0.00043527 0.99999985 -0.00032178
vn 0.01171417 0.99986862 0.01120336
vn 0.01171417 0.99986862 0.01120336
vn 0.01171417 0.99986862 0.01120336
vn 0.01051371 -0.00436574 -0.99993520
vn 0.01017979 -0.00324978 -0.99994290
vn 0.01027513 -0.00229166 -0.99994458
vn -0.00351980 0.00141545 -0.99999280
vn 0.00060839 0.00233223 -0.99999710
vn 0.00060839 0.00233223 -0.99999710
vn 0.01903213 -0.00463348 -0.99980814
vn 0.01903213 -0.00463348 -0.99980814
vn 0.01903213 -0.00463348 -0.99980814
vn -0.00507820 0.00106935 -0.99998653
vn -0.00507820 0.00106935 -0.99998653
vn 0.00730766 -0.00142295 -0.99997229
vn 0.00864539 -0.00205759 -0.99996051
vn 0.00685351 -0.00130744 -0.99997566
vn 0.00680101 -0.00132505 -0.99997599
vn 0.01273772 -0.00122927 -0.99991812
vn 0.01269577 -0.00133700 -0.99991851
vn 0.59594678 -0.00420545 0.80301292
vn 0.59594678 -0.00420545 0.80301292
vn 0.59594678 -0.00420545 0.80301292
vn 0.45243657 0.01495900 0.89167111
vn 0.45243657 0.01495900 0.89167111
vn 0.45243657 0.01495900 0.89167111
vn 0.32960262 0.00058669 0.94411957
vn 0.32960262 0.00058669 0.94411957
vn 0.32960262 0.00058669 0.94411957
vn 0.35101562 -0.00200611 0.93636746
vn 0.35101562 -0.00200611 0.93636746
vn 0.35101562 -0.00200611 0.93636746
vn 0.45523542 -0.02589465 0.88999448
vn 0.45523542 -0.02589465 0.88999448
vn 0.45523542 -0.02589465 0.88999448
vn 0.59790204 -0.01061105 0.80149894
vn 0.59790204 -0.01061105 0.80149894
vn 0.59790204 -0.01061105 0.80149894
vn 0.38437348 -0.02414687 0.92286183
vn 0.38437348 -0.02414687 0.92286183
vn 0.38437348 -0.02414687 0.92286183
vn 0.62043085 -0.00174541 0.78425922
vn 0.62043085 -0.00174541 0.78425922
vn 0.62043085 -0.00174541 0.78425922
vn 0.44125275 0.05827722 0.89548857
vn 0.44125275 0.05827722 0.89548857
vn 0.44125275 0.05827722 0.89548857
vn 0.57132482 -0.00957363 0.82066820
vn 0.57187583 -0.01091263 0.82026761
vn 0.57085729 -0.00843989 0.82100592
vn 0.57036418 -0.00724656 0.82135996
vn 0.34609608 0.04017540 0.93733849
vn 0.34609608 0.04017540 0.93733849
vn 0.34609608 0.04017540 0.93733849
vn 0.52337680 -0.00192569 0.85209918
vn 0.52337680 -0.00192569 0.85209918
vn 0.52337680 -0.00192569 0.85209918
vn 0.46023073 0.03213837 0.88721745
vn 0.46023073 0.03213837 0.88721745
vn 0.46023073 0.03213837 0.88721745
vn 0.25497563 -0.05519425 0.96537092
vn 0.25497563 -0.05519425 0.96537092
vn 0.25497563 -0.05519425 0.96537092
vn 0.25812621 -0.05687616 0.96443557
vn 0.25812621 -0.05687616 0.96443557
vn 0.25812621 -0.05687616 0.96443557
vn 0.62585795 -0.00292626 0.77993158
vn 0.62727740 -0.00185291 0.77879370
vn 0.62521390 -0.00341257 0.78044599
vn 0.33244270 0.04155325 0.94220761
vn 0.33244270 0.04155325 0.94220761
vn 0.33244270 0.04155325 0.94220761
vn 0.55328906 -0.00260412 0.83298526
vn 0.55328906 -0.00260412 0.83298526
vn 0.55328906 -0.00260412 0.83298526
vn 0.40839093 -0.00970975 0.91275548
vn 0.40839093 -0.00970975 0.91275548
vn 0.40839093 -0.00970975 0.91275548
vn 0.30920126 -0.05361497 0.94948408
vn 0.30885800 -0.05338091 0.94960898
vn 0.30768864 -0.05258378 0.95003297
vn 0.31087308 -0.05475535 0.94887290
vn 0.50481713 0.03676743 0.86244294
vn 0.50481713 0.03676743 0.86244294
vn 0.50481713 0.03676743 0.86244294
vn 0.48035109 -0.04316692 0.87601338
vn 0.48035109 -0.04316692 0.87601338
vn 0.48035109 -0.04316692 0.87601338
vn 0.51174119 0.03167821 0.85855544
vn 0.51174119 0.03167821 0.85855544
vn 0.51174119 0.03167821 0.85855544
vn 0.62789544 -0.00138491 0.77829648
vn 0.45603813 -0.02136606 0.88970372
vn 0.45603813 -0.02136606 0.88970372
vn 0.45603813 -0.02136606 0.88970372
vn 0.29181079 -0.01039874 0.95641954
vn 0.29019409 -0.01076003 0.95690732
vn 0.29085227 -0.01061297 0.95670911
vn 0.38923703 0.01512329 0.92101348
vn 0.38923703 0.01512329 0.92101348
vn 0.38923703 0.01512329 0.92101348
vn 0.51492431 -0.01997089 0.85700298
vn 0.51492431 -0.01997089 0.85700298
vn 0.51492431 -0.01997089 0.85700298
vn 0.56143796 0.02766532 0.82705625
vn 0.56209332 0.02802768 0.82659879
vn 0.55996816 0.02685340 0.82807884
vn 0.40821734 0.00603736 0.91286481
vn 0.40821734 0.00603736 0.91286481
vn 0.40821734 0.00603736 0.91286481
vn 0.29216633 -0.01031925 0.95631185
vn 0.56303256 0.02854740 0.82594151
vn 0.61179661 0.00446710 0.79100250
vn 0.61179661 0.00446710 0.79100250
vn 0.61179661 0.00446710 0.79100250
vn 0.47576496 -0.00896344 0.87952678
vn 0.47576496 -0.00896344 0.87952678
vn 0.47576496 -0.00896344 0.87952678
vn 0.63441881 -0.00534889 0.77297099
vn 0.63441881 -0.00534889 0.77297099
vn 0.63441881 -0.00534889 0.77297099
vn 0.62759908 0.00563343 0.77851632
vn 0.62759908 0.00563343 0.77851632
vn 0.62759908 0.00563343 0.77851632
vn 0.37376966 0.04233340 0.92655498
vn 0.37376966 0.04233340 0.92655498
vn 0.37376966 0.04233340 0.92655498
vn 0.39557107 -0.05161662 0.91698378
vn 0.39557107 -0.05161662 0.91698378
vn 0.39557107 -0.05161662 0.91698378
vn 0.38131734 -0.03858831 0.92363847
vn 0.38131734 -0.03858831 0.92363847
vn 0.38131734 -0.03858831 0.92363847
vn 0.66232174 0.00031469 0.74921947
vn 0.66093335 -0.00152799 0.75044305
vn 0.66422728 0.00285356 0.74752523
vn 0.29730979 -0.01118925 0.95471550
vn 0.29730979 -0.01118925 0.95471550
vn 0.29730979 -0.01118925 0.95471550
vn 0.65854704 -0.00468121 0.75252501
vn 0.65416217 -0.00366788 0.75634543
vn 0.65416217 -0.00366788 0.75634543
vn 0.65416217 -0.00366788 0.75634543
vn 0.54398854 -0.02422991 0.83874273
vn 0.54398854 -0.02422991 0.83874273
vn 0.54398854 -0.02422991 0.83874273
vn 0.32562535 0.04598997 0.94437972
vn 0.32562535 0.04598997 0.94437972
vn 0.32562535 0.04598997 0.94437972
vn 0.61131347 0.00508818 0.79137220
vn 0.61131347 0.00508818 0.79137220
vn 0.61131347 0.00508818 0.79137220
vn 0.37643050 0.04582484 0.92531085
vn 0.37643050 0.04582484 0.92531085
vn 0.37643050 0.04582484 0.92531085
vn 0.50792247 -0.00966738 0.86134854
vn 0.50792247 -0.00966738 0.86134854
vn 0.50792247 -0.00966738 0.86134854
vn 0.26408132 0.02472575 0.96418343
vn 0.26408132 0.02472575 0.96418343
vn 0.26408132 0.02472575 0.96418343
vn 0.00915419 -0.99993916 0.00615419
vn 0.00915419 -0.99993916 0.00615419
vn 0.00915419 -0.99993916 0.00615419
vn 0.00256824 -0.99999636 -0.00082504
vn 0.00273164 -0.99999587 -0.00088835
vn 0.00139040 -0.99999897 -0.00036864
vn 0.00098388 -0.99995412 0.00952807
vn 0.00188311 -0.99995618 0.00917055
vn 0.00051707 -0.99995269 0.00971366
vn 0.00084978 -0.99999963 -0.00015916
vn -0.00036292 -0.99994930 0.01006351
vn 0.00203170 -0.99999748 0.00095466
vn 0.00273913 -0.99999429 -0.00198140
vn 0.00293001 -0.99999571 -0.00005185
vn 0.00197209 -0.99999781 0.00070386
vn 0.00088211 -0.99999874 0.00132322
vn -0.00163904 -0.99999585 -0.00236934
vn -0.00100702 -0.99999588 -0.00268966
vn -0.00135642 -0.99999906 -0.00018065
vn 0.00147590 -0.99999112 -0.00394804
vn 0.00129882 -0.99999884 0.00079515
vn 0.00601180 -0.99998179 0.00052685
vn 0.00601180 -0.99998179 0.00052685
vn 0.00601180 -0.99998179 0.00052685
vn 0.00211035 -0.99999758 -0.00061554
vn 0.00372859 -0.99995491 -0.00873350
vn 0.00372859 -0.99995491 -0.00873350
vn 0.00372859 -0.99995491 -0.00873350
vn 0.00455591 -0.99998547 -0.00288114
vn 0.00455591 -0.99998547 -0.00288114
vn 0.00811091 -0.99996710 -0.00013062
vn 0.00734896 -0.99997226 0.00121625
vn 0.00792039 -0.99996861 0.00020616
vn 0.00930019 -0.99995426 -0.00223294
vn 0.81473864 0.08360957 -0.57376858
vn 0.81473864 0.08360957 -0.57376858
vn 0.81473864 0.08360957 -0.57376858
vn 0.53689013 0.08233557 -0.83962482
vn 0.53689013 0.08233557 -0.83962482
vn 0.53689013 0.08233557 -0.83962482
vn 0.56141079 0.04878902 -0.82609779
vn 0.56141079 0.04878902 -0.82609779
vn 0.56141079 0.04878902 -0.82609779
vn 0.93592936 -0.15062710 -0.31835154
vn 0.93592936 -0.15062710 -0.31835154
vn 0.93592936 -0.15062710 -0.31835154
vn 0.95886330 0.06109557 -0.27721561
vn 0.95886330 0.06109557 -0.27721561
vn 0.95886330 0.06109557 -0.27721561
vn 0.92020856 -0.31980546 -0.22570038
vn 0.92025198 -0.31972958 -0.22563088
vn 0.92006852 -0.32005009 -0.22592445
vn 0.97831821 -0.04964257 -0.20106987
vn 0.97737416 -0.05310113 -0.20474380
vn 0.97819352 -0.05010493 -0.20156125
vn 0.97218731 -0.11350785 -0.20486045
vn 0.97218731 -0.11350785 -0.20486045
vn 0.97218731 -0.11350785 -0.20486045
vn 0.90675785 -0.05807782 -0.41763282
vn 0.90675785 -0.05807782 -0.41763282
vn 0.90675785 -0.05807782 -0.41763282
vn 0.90862651 -0.05411509 -0.41408867
vn 0.90862651 -0.05411509 -0.41408867
vn 0.90862651 -0.05411509 -0.41408867
vn 0.92037121 -0.31952104 -0.22543986
vn 0.97909005 -0.04674108 -0.19798469
vn 0.96636635 -0.22089186 -0.13169228
vn 0.96636635 -0.22089186 -0.13169228
vn 0.96636635 -0.22089186 -0.13169228
vn 0.86523192 0.02784791 -0.50059786
vn 0.86523192 0.02784791 -0.50059786
vn 0.86523192 0.02784791 -0.50059786
vn 0.86054491 0.02091202 -0.50894512
vn 0.86054491 0.02091202 -0.50894512
vn 0.86054491 0.02091202 -0.50894512
vn 0.92716186 -0.25864590 -0.27105938
vn 0.92716186 -0.25864590 -0.27105938
vn 0.92716186 -0.25864590 -0.27105938
vn 0.92423933 -0.26467490 -0.27518877
vn 0.92423933 -0.26467490 -0.27518877
vn 0.92423933 -0.26467490 -0.27518877
vn 0.97335191 -0.16883230 -0.15518286
vn 0.97335191 -0.16883230 -0.15518286
vn 0.97335191 -0.16883230 -0.15518286
vn 0.95477025 0.04773294 -0.29348822
vn 0.95477025 0.04773294 -0.29348822
vn 0.95477025 0.04773294 -0.29348822
vn 0.97003884 -0.17952181 -0.16369659
vn 0.97003884 -0.17952181 -0.16369659
vn 0.97003884 -0.17952181 -0.16369659
vn 0.91952611 -0.19253809 -0.34263802
vn 0.91952611 -0.19253809 -0.34263802
vn 0.91952611 -0.19253809 -0.34263802
vn 0.80607187 -0.33576171 -0.48735225
vn 0.80607187 -0.33576171 -0.48735225
vn 0.80607187 -0.33576171 -0.48735225
vn 0.80847137 -0.35396851 -0.47019180
vn 0.80847137 -0.35396851 -0.47019180
vn 0.80847137 -0.35396851 -0.47019180
vn 0.96931927 -0.12044840 -0.21427163
vn 0.96931927 -0.12044840 -0.21427163
vn 0.96931927 -0.12044840 -0.21427163
vn 0.95747256 -0.28839305 0.00870308
vn 0.95747256 -0.28839305 0.00870308
vn 0.95747256 -0.28839305 0.00870308
vn 0.94549106 -0.31097688 -0.09664383
vn 0.94549106 -0.31097688 -0.09664383
vn 0.94549106 -0.31097688 -0.09664383
vn 0.96442012 -0.04293714 -0.26086441
vn 0.96442012 -0.04293714 -0.26086441
vn 0.96442012 -0.04293714 -0.26086441
vn 0.97273400 -0.01686536 -0.23130957
vn 0.97273400 -0.01686536 -0.23130957
vn 0.97273400 -0.01686536 -0.23130957
vn 0.90746104 -0.31444243 -0.27864030
vn 0.90746104 -0.31444243 -0.27864030
vn 0.90746104 -0.31444243 -0.27864030
vn 0.70657307 -0.37480671 -0.60022865
vn 0.70657307 -0.37480671 -0.60022865
vn 0.70657307 -0.37480671 -0.60022865
vn 0.66283529 -0.50133033 -0.55616300
vn 0.66283529 -0.50133033 -0.55616300
vn 0.66283529 -0.50133033 -0.55616300
vn 0.71977460 -0.43792871 -0.53864920
vn 0.71977460 -0.43792871 -0.53864920
vn 0.71977460 -0.43792871 -0.53864920
vn 0.82178438 0.04760738 -0.56780628
vn 0.82178438 0.04760738 -0.56780628
vn 0.82178438 0.04760738 -0.56780628
vn 0.73036992 0.08585550 -0.67763458
vn 0.73036992 0.08585550 -0.67763458
vn 0.73036992 0.08585550 -0.67763458
vn 0.78596434 0.10445312 -0.60938461
vn 0.78596434 0.10445312 -0.60938461
vn 0.78596434 0.10445312 -0.60938461
vn 0.75187496 0.04264180 -0.65792532
vn 0.75187496 0.04264180 -0.65792532
vn 0.75187496 0.04264180 -0.65792532
vn 0.85931366 -0.04811066 -0.50918110
vn 0.85931366 -0.04811066 -0.50918110
vn 0.85931366 -0.04811066 -0.50918110
vn 0.89845607 -0.35797953 -0.25421908
vn 0.89845607 -0.35797953 -0.25421908
vn 0.89845607 -0.35797953 -0.25421908
vn 0.76556924 -0.01309385 -0.64322025
vn 0.76556924 -0.01309385 -0.64322025
vn 0.76556924 -0.01309385 -0.64322025
vn 0.63423034 0.05695108 -0.77104374
vn 0.63423034 0.05695108 -0.77104374
vn 0.63423034 0.05695108 -0.77104374
vn 0.69022025 0.03539561 -0.72273312
vn 0.69022025 0.03539561 -0.72273312
vn 0.69022025 0.03539561 -0.72273312
vn 0.95511866 -0.24389039 -0.16812442
vn 0.95511866 -0.24389039 -0.16812442
vn 0.95511866 -0.24389039 -0.16812442
vn 0.81704692 0.04170686 -0.57506075
vn 0.81704692 0.04170686 -0.57506075
vn 0.81704692 0.04170686 -0.57506075
vn 0.95135647 -0.28041404 -0.12762772
vn 0.95135647 -0.28041404 -0.12762772
vn 0.95135647 -0.28041404 -0.12762772
vn 0.93144502 0.05753144 -0.35930531
vn 0.93144502 0.05753144 -0.35930531
vn 0.93144502 0.05753144 -0.35930531
vn 0.90400292 -0.14548042 -0.40201265
vn 0.90400292 -0.14548042 -0.40201265
vn 0.90400292 -0.14548042 -0.40201265
vn 0.90145822 -0.14934715 -0.40628624
vn 0.90145822 -0.14934715 -0.40628624
vn 0.90145822 -0.14934715 -0.40628624
vn 0.78018481 -0.11502940 -0.61488202
vn 0.78018481 -0.11502940 -0.61488202
vn 0.78018481 -0.11502940 -0.61488202
vn 0.75749210 -0.03182295 -0.65206826
vn 0.75749210 -0.03182295 -0.65206826
vn 0.75749210 -0.03182295 -0.65206826
vn 0.65236529 0.04027821 -0.75683366
vn 0.65236529 0.04027821 -0.75683366
vn 0.65236529 0.04027821 -0.75683366
vn 0.93785206 0.06504901 -0.34088436
vn 0.93785206 0.06504901 -0.34088436
vn 0.93785206 0.06504901 -0.34088436
vn 0.90938017 -0.26488380 -0.32072461
vn 0.90938017 -0.26488380 -0.32072461
vn 0.90938017 -0.26488380 -0.32072461
vn 0.69040200 -0.02259633 -0.72307294
vn 0.69051944 -0.02267866 -0.72295821
vn 0.69012262 -0.02240055 -0.72334569
vn 0.94431858 -0.29690808 -0.14180273
vn 0.94431858 -0.29690808 -0.14180273
vn 0.94431858 -0.29690808 -0.14180273
vn 0.95388747 -0.03269506 -0.29837848
vn 0.95388747 -0.03269506 -0.29837848
vn 0.95388747 -0.03269506 -0.29837848
vn 0.82130908 -0.14243319 -0.55241668
vn 0.82239857 -0.14121021 -0.55110822
vn 0.82379395 -0.13963699 -0.54942246
vn 0.81977340 -0.14414912 -0.55424958
vn 0.55994441 0.02670952 -0.82809955
vn 0.55994441 0.02670952 -0.82809955
vn 0.55994441 0.02670952 -0.82809955
vn 0.59620233 -0.01326227 -0.80272467
vn 0.59620233 -0.01326227 -0.80272467
vn 0.59620233 -0.01326227 -0.80272467
vn 0.99446054 -0.02616936 -0.10180074
vn 0.99446054 -0.02616936 -0.10180074
vn 0.99446054 -0.02616936 -0.10180074
vn 0.69071745 -0.02281750 -0.72276466
vn 0.89314334 -0.31766471 -0.31840870
vn 0.89314334 -0.31766471 -0.31840870
vn 0.89314334 -0.31766471 -0.31840870
vn 0.99510274 -0.01951337 -0.09690084
vn 0.99510274 -0.01951337 -0.09690084
vn 0.99510274 -0.01951337 -0.09690084
vn 0.60032623 -0.04296265 -0.79860042
vn 0.59983389 -0.04338963 -0.79894721
vn 0.60051078 -0.04280252 -0.79847026
vn 0.86798189 -0.06791360 -0.49193005
vn 0.86798189 -0.06791360 -0.49193005
vn 0.86798189 -0.06791360 -0.49193005
vn 0.85531552 -0.12782971 -0.50209055
vn 0.85531552 -0.12782971 -0.50209055
vn 0.85531552 -0.12782971 -0.50209055
vn 0.68650007 -0.11942239 -0.71725584
vn 0.68650007 -0.11942239 -0.71725584
vn 0.68650007 -0.11942239 -0.71725584
vn 0.76981075 -0.13314162 -0.62423131
vn 0.76981075 -0.13314162 -0.62423131
vn 0.76981075 -0.13314162 -0.62423131
vn 0.87324758 -0.12078487 -0.47206957
vn 0.87324758 -0.12078487 -0.47206957
vn 0.87324758 -0.12078487 -0.47206957
vn 0.64829842 -0.05493101 -0.75940222
vn 0.64829842 -0.05493101 -0.75940222
vn 0.64829842 -0.05493101 -0.75940222
vn 0.83086698 -0.04257954 -0.55483966
vn 0.83086698 -0.04257954 -0.55483966
vn 0.83086698 -0.04257954 -0.55483966
vn 0.60099884 -0.04237882 -0.79812557
vn 0.99334861 -0.06696121 -0.09367353
vn 0.99334861 -0.06696121 -0.09367353
vn 0.99334861 -0.06696121 -0.09367353
vn 0.90634340 -0.24218395 -0.34624929
vn 0.90634340 -0.24218395 -0.34624929
vn 0.90634340 -0.24218395 -0.34624929
vn 0.95781045 -0.17492919 -0.22803272
vn 0.95781045 -0.17492919 -0.22803272
vn 0.95781045 -0.17492919 -0.22803272
vn 0.87870801 -0.34204057 -0.33298721
vn 0.87870801 -0.34204057 -0.33298721
vn 0.87870801 -0.34204057 -0.33298721
vn 0.79048141 -0.19075385 -0.58202415
vn 0.79048141 -0.19075385 -0.58202415
vn 0.79048141 -0.19075385 -0.58202415
vn 0.73805995 -0.09931260 -0.66738634
vn 0.73805995 -0.09931260 -0.66738634
vn 0.73805995 -0.09931260 -0.66738634
vn 0.99161336 -0.07762054 -0.10333442
vn 0.99161336 -0.07762054 -0.10333442
vn 0.99161336 -0.07762054 -0.10333442
vn 0.90642256 0.10467208 -0.40919665
vn 0.90642256 0.10467208 -0.40919665
vn 0.90642256 0.10467208 -0.40919665
vn 0.81448374 -0.24135314 -0.52760297
vn 0.81448374 -0.24135314 -0.52760297
vn 0.81448374 -0.24135314 -0.52760297
vn 0.82014628 -0.25120152 -0.51406019
vn 0.82014628 -0.25120152 -0.51406019
vn 0.82014628 -0.25120152 -0.51406019
vn 0.65576709 -0.09632874 -0.74879256
vn 0.65576709 -0.09632874 -0.74879256
vn 0.65576709 -0.09632874 -0.74879256
vn 0.87543983 -0.46174779 -0.14280785
vn 0.87543983 -0.46174779 -0.14280785
vn 0.87543983 -0.46174779 -0.14280785
vn 0.93018167 -0.34556795 -0.12387434
vn 0.93018167 -0.34556795 -0.12387434
vn 0.93018167 -0.34556795 -0.12387434
vn 0.95486110 -0.24592466 -0.16661732
vn 0.95486110 -0.24592466 -0.16661732
vn 0.95486110 -0.24592466 -0.16661732
vn 0.60368174 -0.10870731 -0.78977914
vn 0.60368174 -0.10870731 -0.78977914
vn 0.60368174 -0.10870731 -0.78977914
vn 0.98943116 -0.00116741 -0.14499869
vn 0.98943116 -0.00116741 -0.14499869
vn 0.98943116 -0.00116741 -0.14499869
vn 0.99051399 0.00716832 -0.13722480
vn 0.99051399 0.00716832 -0.13722480
vn 0.99051399 0.00716832 -0.13722480
vn 0.72147717 -0.18627264 -0.66691319
vn 0.72147717 -0.18627264 -0.66691319
vn 0.72147717 -0.18627264 -0.66691319
vn 0.81045163 -0.07277023 -0.58126814
vn 0.81045163 -0.07277023 -0.58126814
vn 0.81045163 -0.07277023 -0.58126814
vn 0.63230507 -0.14945645 -0.76016648
vn 0.63230507 -0.14945645 -0.76016648
vn 0.63230507 -0.14945645 -0.76016648
vn 0.95848086 -0.11318807 -0.26173059
vn 0.95848086 -0.11318807 -0.26173059
vn 0.95848086 -0.11318807 -0.26173059
vn 0.95748527 -0.11515324 -0.26450271
vn 0.95748527 -0.11515324 -0.26450271
vn 0.95748527 -0.11515324 -0.26450271
vn 0.86260349 -0.15390708 -0.48190022
vn 0.86260349 -0.15390708 -0.48190022
vn 0.86260349 -0.15390708 -0.48190022
vn 0.70160338 -0.17817066 -0.68993326
vn 0.70160338 -0.17817066 -0.68993326
vn 0.70160338 -0.17817066 -0.68993326
vn 0.95597611 -0.20752945 -0.20746373
vn 0.95597611 -0.20752945 -0.20746373
vn 0.95597611 -0.20752945 -0.20746373
vn 0.62473132 -0.17095322 -0.76189617
vn 0.62473132 -0.17095322 -0.76189617
vn 0.62473132 -0.17095322 -0.76189617
vn 0.75014083 -0.22635378 -0.62133139
vn 0.75014083 -0.22635378 -0.62133139
vn 0.75014083 -0.22635378 -0.62133139
vn 0.89015198 -0.23300610 -0.39158346
vn 0.89015198 -0.23300610 -0.39158346
vn 0.89015198 -0.23300610 -0.39158346
vn 0.88278430 -0.24461906 -0.40106532
vn 0.88278430 -0.24461906 -0.40106532
vn 0.88278430 -0.24461906 -0.40106532
vn 0.95116391 -0.02617258 -0.30757472
vn 0.95116391 -0.02617258 -0.30757472
vn 0.95116391 -0.02617258 -0.30757472
vn 0.79467013 -0.28819630 -0.53426799
vn 0.79467013 -0.28819630 -0.53426799
vn 0.79467013 -0.28819630 -0.53426799
vn 0.67030763 -0.22426141 -0.70738568
vn 0.67030763 -0.22426141 -0.70738568
vn 0.67030763 -0.22426141 -0.70738568
vn 0.98434129 -0.13579577 -0.11239099
vn 0.98434129 -0.13579577 -0.11239099
vn 0.98434129 -0.13579577 -0.11239099
vn 0.98560100 -0.13040340 -0.10763657
vn 0.98560100 -0.13040340 -0.10763657
vn 0.98560100 -0.13040340 -0.10763657
vn 0.67367195 -0.22986447 -0.70237342
vn 0.67367195 -0.22986447 -0.70237342
vn 0.67367195 -0.22986447 -0.70237342
vn 0.93924254 -0.25188135 -0.23319357
vn 0.93924254 -0.25188135 -0.23319357
vn 0.93924254 -0.25188135 -0.23319357
vn 0.73035869 -0.26927090 -0.62774945
vn 0.73035869 -0.26927090 -0.62774945
vn 0.73035869 -0.26927090 -0.62774945
vn 0.87810362 -0.23550115 -0.41650119
vn 0.87810362 -0.23550115 -0.41650119
vn 0.87810362 -0.23550115 -0.41650119
vn 0.94036640 -0.28168433 -0.19069600
vn 0.94036640 -0.28168433 -0.19069600
vn 0.94036640 -0.28168433 -0.19069600
vn 0.76899392 -0.36303243 -0.52617089
vn 0.76899392 -0.36303243 -0.52617089
vn 0.76899392 -0.36303243 -0.52617089
vn 0.77316888 -0.39494773 -0.49621183
vn 0.77316888 -0.39494773 -0.49621183
vn 0.77316888 -0.39494773 -0.49621183
vn 0.66977966 -0.28155728 -0.68711040
vn 0.66977966 -0.28155728 -0.68711040
vn 0.66977966 -0.28155728 -0.68711040
vn 0.75400801 -0.32739094 -0.56946211
vn 0.75400801 -0.32739094 -0.56946211
vn 0.75400801 -0.32739094 -0.56946211
vn 0.67648996 -0.34689415 -0.64963511
vn 0.67648996 -0.34689415 -0.64963511
vn 0.67648996 -0.34689415 -0.64963511
vn 0.94332232 0.00840559 -0.33177153
vn 0.94332232 0.00840559 -0.33177153
vn 0.94332232 0.00840559 -0.33177153
vn 0.88335684 0.07010113 -0.46342909
vn 0.88335684 0.07010113 -0.46342909
vn 0.88335684 0.07010113 -0.46342909
vn 0.68411957 -0.39377292 -0.61394080
vn 0.68411957 -0.39377292 -0.61394080
vn 0.68411957 -0.39377292 -0.61394080
vn 0.71938804 -0.41761066 -0.55505152
vn 0.71938804 -0.41761066 -0.55505152
vn 0.71938804 -0.41761066 -0.55505152
vn 0.64298232 0.07524929 -0.76217536
vn 0.64298232 0.07524929 -0.76217536
vn 0.64298232 0.07524929 -0.76217536
vn 0.98676277 -0.06563360 -0.14829517
vn 0.98676277 -0.06563360 -0.14829517
vn 0.98676277 -0.06563360 -0.14829517
vn 0.98802679 -0.05841771 -0.14279508
vn 0.98802679 -0.05841771 -0.14279508
vn 0.98802679 -0.05841771 -0.14279508
vn 0.93164165 -0.32153015 -0.16929917
vn 0.93164165 -0.32153015 -0.16929917
vn 0.93164165 -0.32153015 -0.16929917
vn 0.77467170 -0.23665547 -0.58641107
vn 0.77467170 -0.23665547 -0.58641107
vn 0.77467170 -0.23665547 -0.58641107
vn 0.86777214 -0.30925238 -0.38901733
vn 0.86777214 -0.30925238 -0.38901733
vn 0.86777214 -0.30925238 -0.38901733
vn 0.84450775 -0.19993246 -0.49682358
vn 0.84450775 -0.19993246 -0.49682358
vn 0.84450775 -0.19993246 -0.49682358
vn 0.86469965 -0.33698698 -0.37247052
vn 0.86469965 -0.33698698 -0.37247052
vn 0.86469965 -0.33698698 -0.37247052
vn 0.66219407 -0.28642430 -0.69243060
vn 0.66219407 -0.28642430 -0.69243060
vn 0.66219407 -0.28642430 -0.69243060
vn 0.97662131 -0.19136722 -0.09792545
vn 0.97662131 -0.19136722 -0.09792545
vn 0.97662131 -0.19136722 -0.09792545
vn 0.71672469 -0.29491686 -0.63192544
vn 0.71672469 -0.29491686 -0.63192544
vn 0.71672469 -0.29491686 -0.63192544
vn 0.98117477 0.02350726 -0.19168590
vn 0.98117477 0.02350726 -0.19168590
vn 0.98117477 0.02350726 -0.19168590
vn 0.92690706 -0.03270208 -0.37386344
vn 0.92690706 -0.03270208 -0.37386344
vn 0.92690706 -0.03270208 -0.37386344
vn 0.85613917 -0.25635069 -0.44867588
vn 0.85613917 -0.25635069 -0.44867588
vn 0.85613917 -0.25635069 -0.44867588
vn 0.97693029 0.03876044 -0.21001152
vn 0.97693029 0.03876044 -0.21001152
vn 0.97693029 0.03876044 -0.21001152
vn 0.92552677 -0.33357238 -0.17924750
vn 0.92552677 -0.33357238 -0.17924750
vn 0.92552677 -0.33357238 -0.17924750
vn 0.94538655 -0.07946787 -0.31611567
vn 0.94538655 -0.07946787 -0.31611567
vn 0.94538655 -0.07946787 -0.31611567
vn 0.96764695 -0.22574956 -0.11267885
vn 0.96764695 -0.22574956 -0.11267885
vn 0.96764695 -0.22574956 -0.11267885
vn 0.93565135 -0.10894277 -0.33569036
vn 0.93565135 -0.10894277 -0.33569036
vn 0.93565135 -0.10894277 -0.33569036
vn 0.96697261 -0.22704500 -0.11582111
vn 0.96697261 -0.22704500 -0.11582111
vn 0.96697261 -0.22704500 -0.11582111
vn 0.85117861 0.11756511 -0.51154025
vn 0.85117861 0.11756511 -0.51154025
vn 0.85117861 0.11756511 -0.51154025
vn 0.97175411 -0.00448241 -0.23595310
vn 0.97175411 -0.00448241 -0.23595310
vn 0.97175411 -0.00448241 -0.23595310
vn 0.91223174 0.00881358 -0.40957974
vn 0.91223174 0.00881358 -0.40957974
vn 0.91223174 0.00881358 -0.40957974
vn 0.90849291 -0.00151560 -0.41789753
vn 0.90849291 -0.00151560 -0.41789753
vn 0.90849291 -0.00151560 -0.41789753
vn 0.83389701 -0.32916377 -0.44302030
vn 0.83389701 -0.32916377 -0.44302030
vn 0.83389701 -0.32916377 -0.44302030
vn 0.82834874 -0.33815083 -0.44664570
vn 0.82834874 -0.33815083 -0.44664570
vn 0.82834874 -0.33815083 -0.44664570
vn 0.98277215 -0.11358951 -0.14579551
vn 0.98277215 -0.11358951 -0.14579551
vn 0.98277215 -0.11358951 -0.14579551
vn 0.93923451 -0.25690973 -0.22767503
vn 0.93923451 -0.25690973 -0.22767503
vn 0.93923451 -0.25690973 -0.22767503
vn 0.93526697 -0.08909090 -0.34254710
vn 0.93526697 -0.08909090 -0.34254710
vn 0.93526697 -0.08909090 -0.34254710
vn 0.94170192 -0.19827706 -0.27181556
vn 0.94171477 -0.19825345 -0.27178826
vn 0.94134502 -0.19893167 -0.27257245
vn 0.94202978 -0.19767380 -0.27111799
vn 0.81127679 0.09011862 -0.57767517
vn 0.81127679 0.09011862 -0.57767517
vn 0.81127679 0.09011862 -0.57767517
vn 0.97514105 -0.14703499 -0.16577289
vn 0.97514105 -0.14703499 -0.16577289
vn 0.97514105 -0.14703499 -0.16577289
vn -0.03737183 -0.16242753 -0.98601250
vn -0.03737183 -0.16242753 -0.98601250
vn -0.03737183 -0.16242753 -0.98601250
vn -0.04248902 -0.49787858 -0.86620529
vn -0.04248902 -0.49787858 -0.86620529
vn -0.04248902 -0.49787858 -0.86620529
vn 0.05753654 -0.33335252 -0.94104498
vn 0.05753654 -0.33335252 -0.94104498
vn 0.05753654 -0.33335252 -0.94104498
vn 0.04555725 -0.66737795 -0.74332443
vn 0.04555725 -0.66737795 -0.74332443
vn 0.04555725 -0.66737795 -0.74332443
vn -0.00997465 -0.76273135 -0.64663854
vn -0.00997465 -0.76273135 -0.64663854
vn -0.00997465 -0.76273135 -0.64663854
vn 0.05803402 -0.85493992 -0.51547045
vn 0.05803402 -0.85493992 -0.51547045
vn 0.05803402 -0.85493992 -0.51547045
vn -0.02113107 -0.95043694 -0.31019849
vn -0.02113107 -0.95043694 -0.31019849
vn -0.02113107 -0.95043694 -0.31019849
vn -0.00084754 -0.96396090 -0.26604261
vn -0.00084754 -0.96396090 -0.26604261
vn -0.00084754 -0.96396090 -0.26604261
vn 0.87844665 -0.47752781 -0.01728231
vn 0.87844665 -0.47752781 -0.01728231
vn 0.87844665 -0.47752781 -0.01728231
vn 0.87592643 -0.46389927 -0.13247779
vn 0.87592643 -0.46389927 -0.13247779
vn 0.87592643 -0.46389927 -0.13247779
vn 0.98793753 -0.03532259 0.15077054
vn 0.98793753 -0.03532259 0.15077054
vn 0.98793753 -0.03532259 0.15077054
vn 0.86876784 -0.36030056 0.33974393
vn 0.86876784 -0.36030056 0.33974393
vn 0.86876784 -0.36030056 0.33974393
vn 0.65665173 -0.16389796 0.73616979
vn 0.65665173 -0.16389796 0.73616979
vn 0.65665173 -0.16389796 0.73616979
vn 0.81363345 -0.39725736 -0.42448464
vn 0.81363345 -0.39725736 -0.42448464
vn 0.81363345 -0.39725736 -0.42448464
vn 0.92679616 -0.23411972 0.29366109
vn 0.92679616 -0.23411972 0.29366109
vn 0.92679616 -0.23411972 0.29366109
vn 0.90170530 -0.41256303 -0.12930313
vn 0.90170530 -0.41256303 -0.12930313
vn 0.90170530 -0.41256303 -0.12930313
vn 0.91896050 -0.39135647 -0.04849454
vn 0.91896050 -0.39135647 -0.04849454
vn 0.91896050 -0.39135647 -0.04849454
vn 0.90639451 -0.32485102 0.27003854
vn 0.90639451 -0.32485102 0.27003854
vn 0.90639451 -0.32485102 0.27003854
vn 0.86017917 -0.30992353 0.40501754
vn 0.86017917 -0.30992353 0.40501754
vn 0.86017917 -0.30992353 0.40501754
vn 0.69927530 -0.17628664 0.69277491
vn 0.69927530 -0.17628664 0.69277491
vn 0.69927530 -0.17628664 0.69277491
vn 0.93805559 -0.15431307 0.31022440
vn 0.93805559 -0.15431307 0.31022440
vn 0.93805559 -0.15431307 0.31022440
vn 0.74443814 -0.10892076 0.65874739
vn 0.74443814 -0.10892076 0.65874739
vn 0.74443814 -0.10892076 0.65874739
vn 0.86350223 -0.32596196 -0.38485413
vn 0.86350223 -0.32596196 -0.38485413
vn 0.86350223 -0.32596196 -0.38485413
vn 0.92323496 -0.30925987 -0.22802529
vn 0.92310086 -0.30952929 -0.22820259
vn 0.92346539 -0.30879631 -0.22772025
vn 0.90284597 -0.01254420 -0.42978111
vn 0.90284597 -0.01254420 -0.42978111
vn 0.90284597 -0.01254420 -0.42978111
vn 0.94421041 -0.32168040 -0.07062876
vn 0.94421041 -0.32168040 -0.07062876
vn 0.94421041 -0.32168040 -0.07062876
vn 0.92503942 -0.27457850 0.26250471
vn 0.92503942 -0.27457850 0.26250471
vn 0.92503942 -0.27457850 0.26250471
vn 0.91052133 -0.24286958 0.33461214
vn 0.91052133 -0.24286958 0.33461214
vn 0.91052133 -0.24286958 0.33461214
vn 0.74077551 -0.16012763 0.65238852
vn 0.74077551 -0.16012763 0.65238852
vn 0.74077551 -0.16012763 0.65238852
vn 0.66917044 -0.14192205 0.72943064
vn 0.66917044 -0.14192205 0.72943064
vn 0.66917044 -0.14192205 0.72943064
vn 0.52269953 -0.07059874 0.84958873
vn 0.52233987 -0.06970833 0.84988341
vn 0.52334817 -0.07220772 0.84905402
vn 0.97306956 -0.22673641 0.04154794
vn 0.97306956 -0.22673641 0.04154794
vn 0.97306956 -0.22673641 0.04154794
vn 0.89573745 -0.15131195 0.41804199
vn 0.89573745 -0.15131195 0.41804199
vn 0.89573745 -0.15131195 0.41804199
vn 0.86344443 -0.09840991 -0.49475167
vn 0.86344443 -0.09840991 -0.49475167
vn 0.86344443 -0.09840991 -0.49475167
vn 0.64350053 -0.05964616 0.76311821
vn 0.64350053 -0.05964616 0.76311821
vn 0.64350053 -0.05964616 0.76311821
vn 0.99269718 -0.11313555 0.04186477
vn 0.99269718 -0.11313555 0.04186477
vn 0.99269718 -0.11313555 0.04186477
vn 0.97057406 -0.11389123 0.21216687
vn 0.97057406 -0.11389123 0.21216687
vn 0.97057406 -0.11389123 0.21216687
vn 0.93931816 -0.05723245 -0.33823931
vn 0.93931816 -0.05723245 -0.33823931
vn 0.93931816 -0.05723245 -0.33823931
vn 0.99234920 -0.07687062 -0.09661251
vn 0.99234920 -0.07687062 -0.09661251
vn 0.99234920 -0.07687062 -0.09661251
vn 0.95081584 -0.09761167 0.29397484
vn 0.95081584 -0.09761167 0.29397484
vn 0.95081584 -0.09761167 0.29397484
vn 0.84005953 -0.08093590 0.53642275
vn 0.84005953 -0.08093590 0.53642275
vn 0.84005953 -0.08093590 0.53642275
vn 0.76001862 -0.08409411 0.64443765
vn 0.76001862 -0.08409411 0.64443765
vn 0.76001862 -0.08409411 0.64443765
vn 0.88383171 -0.22379366 -0.41080154
vn 0.88383171 -0.22379366 -0.41080154
vn 0.88383171 -0.22379366 -0.41080154
vn 0.97192767 -0.21098840 -0.10411773
vn 0.97192767 -0.21098840 -0.10411773
vn 0.97192767 -0.21098840 -0.10411773
vn 0.97534471 -0.21907580 0.02661736
vn 0.97534471 -0.21907580 0.02661736
vn 0.97534471 -0.21907580 0.02661736
vn 0.77734993 0.06874668 -0.62530071
vn 0.77734993 0.06874668 -0.62530071
vn 0.77734993 0.06874668 -0.62530071
vn 0.90794896 0.00984577 -0.41896509
vn 0.90794896 0.00984577 -0.41896509
vn 0.90794896 0.00984577 -0.41896509
vn 0.99572284 0.03794272 -0.08423999
vn 0.99572284 0.03794272 -0.08423999
vn 0.99572284 0.03794272 -0.08423999
vn 0.98659478 -0.02637943 0.16104305
vn 0.98659478 -0.02637943 0.16104305
vn 0.98659478 -0.02637943 0.16104305
vn 0.96767153 -0.15825071 -0.19638870
vn 0.96767153 -0.15825071 -0.19638870
vn 0.96767153 -0.15825071 -0.19638870
vn 0.89619003 -0.02836091 0.44276301
vn 0.89619003 -0.02836091 0.44276301
vn 0.89619003 -0.02836091 0.44276301
vn 0.86221001 -0.01734637 0.50625389
vn 0.86221001 -0.01734637 0.50625389
vn 0.86221001 -0.01734637 0.50625389
vn 0.90271853 -0.22968857 -0.36378897
vn 0.90271853 -0.22968857 -0.36378897
vn 0.90271853 -0.22968857 -0.36378897
vn 0.88689246 -0.14059227 -0.44006316
vn 0.88689246 -0.14059227 -0.44006316
vn 0.88689246 -0.14059227 -0.44006316
vn 0.52368067 -0.07303407 0.84877829
vn 0.92364251 -0.30843946 -0.22748542
vn 0.84754804 -0.16073832 -0.50579197
vn 0.84754804 -0.16073832 -0.50579197
vn 0.84754804 -0.16073832 -0.50579197
vn 0.51969262 -0.05205075 0.85276626
vn 0.51969262 -0.05205075 0.85276626
vn 0.51969262 -0.05205075 0.85276626
vn 0.75218435 -0.10897917 0.64987864
vn 0.75218435 -0.10897917 0.64987864
vn 0.75218435 -0.10897917 0.64987864
vn 0.29789720 -0.72983584 0.61530228
vn 0.29789720 -0.72983584 0.61530228
vn 0.29789720 -0.72983584 0.61530228
vn 0.36484822 -0.67480541 0.64150092
vn 0.36484822 -0.67480541 0.64150092
vn 0.36484822 -0.67480541 0.64150092
vn 0.52800689 -0.22738825 0.81823182
vn 0.52800689 -0.22738825 0.81823182
vn 0.52800689 -0.22738825 0.81823182
vn 0.38646161 -0.77033498 0.50717989
vn 0.38646161 -0.77033498 0.50717989
vn 0.38646161 -0.77033498 0.50717989
vn 0.48927632 -0.60613656 0.62706231
vn 0.48927632 -0.60613656 0.62706231
vn 0.48927632 -0.60613656 0.62706231
vn 0.53025416 -0.60595681 0.59299820
vn 0.53025416 -0.60595681 0.59299820
vn 0.53025416 -0.60595681 0.59299820
vn 0.28894668 -0.57867001 0.76266037
vn 0.28894668 -0.57867001 0.76266037
vn 0.28894668 -0.57867001 0.76266037
vn 0.20192190 -0.78677548 0.58327685
vn 0.20192190 -0.78677548 0.58327685
vn 0.20192190 -0.78677548 0.58327685
vn 0.25913432 -0.73177926 0.63035586
vn 0.25913432 -0.73177926 0.63035586
vn 0.25913432 -0.73177926 0.63035586
vn 0.38133933 -0.57109024 0.72693621
vn 0.38133933 -0.57109024 0.72693621
vn 0.38133933 -0.57109024 0.72693621
vn 0.23662945 -0.89221169 0.38466193
vn 0.23662945 -0.89221169 0.38466193
vn 0.23662945 -0.89221169 0.38466193
vn 0.55802225 -0.36173644 0.74683192
vn 0.55802225 -0.36173644 0.74683192
vn 0.55802225 -0.36173644 0.74683192
vn 0.60655845 -0.43227360 0.66725286
vn 0.60655845 -0.43227360 0.66725286
vn 0.60655845 -0.43227360 0.66725286
vn 0.44517115 -0.62431333 0.64191550
vn 0.44517115 -0.62431333 0.64191550
vn 0.44517115 -0.62431333 0.64191550
vn 0.33095325 -0.61537049 0.71539438
vn 0.33095325 -0.61537049 0.71539438
vn 0.33095325 -0.61537049 0.71539438
vn 0.65224554 -0.63437104 0.41490860
vn 0.65224554 -0.63437104 0.41490860
vn 0.65224554 -0.63437104 0.41490860
vn 0.24864024 -0.96548616 0.07755329
vn 0.24864024 -0.96548616 0.07755329
vn 0.24864024 -0.96548616 0.07755329
vn 0.62985647 -0.42429914 0.65057748
vn 0.62985647 -0.42429914 0.65057748
vn 0.62985647 -0.42429914 0.65057748
vn 0.60422917 -0.69169977 -0.39554840
vn 0.60422917 -0.69169977 -0.39554840
vn 0.60422917 -0.69169977 -0.39554840
vn 0.78887877 -0.59652167 -0.14775718
vn 0.78887877 -0.59652167 -0.14775718
vn 0.78887877 -0.59652167 -0.14775718
vn 0.45839527 -0.88183447 -0.11064238
vn 0.45839527 -0.88183447 -0.11064238
vn 0.45839527 -0.88183447 -0.11064238
vn 0.68713043 -0.71615678 -0.12235701
vn 0.68713043 -0.71615678 -0.12235701
vn 0.68713043 -0.71615678 -0.12235701
vn 0.71753585 -0.68394266 -0.13177536
vn 0.71753585 -0.68394266 -0.13177536
vn 0.71753585 -0.68394266 -0.13177536
vn 0.63125233 -0.75149260 -0.19177947
vn 0.63125233 -0.75149260 -0.19177947
vn 0.63125233 -0.75149260 -0.19177947
vn 0.68783366 -0.63196868 -0.35707204
vn 0.68783366 -0.63196868 -0.35707204
vn 0.68783366 -0.63196868 -0.35707204
vn 0.43601382 -0.86030648 -0.26413009
vn 0.43601382 -0.86030648 -0.26413009
vn 0.43601382 -0.86030648 -0.26413009
vn 0.74964464 -0.48713423 -0.44803254
vn 0.74964464 -0.48713423 -0.44803254
vn 0.74964464 -0.48713423 -0.44803254
vn 0.50804675 -0.41015022 -0.75740695
vn 0.50804675 -0.41015022 -0.75740695
vn 0.50804675 -0.41015022 -0.75740695
vn 0.83169639 -0.27914032 -0.47996020
vn 0.83169639 -0.27914032 -0.47996020
vn 0.83169639 -0.27914032 -0.47996020
vn 0.56821357 -0.15421958 -0.80830047
vn 0.56821357 -0.15421958 -0.80830047
vn 0.56821357 -0.15421958 -0.80830047
vn 0.71722686 -0.13189612 -0.68424342
vn 0.71722686 -0.13189612 -0.68424342
vn 0.71722686 -0.13189612 -0.68424342
vn 0.82752687 -0.11827378 -0.54882656
vn 0.82752687 -0.11827378 -0.54882656
vn 0.82752687 -0.11827378 -0.54882656
vn 0.46624264 -0.04525806 -0.88349845
vn 0.46624264 -0.04525806 -0.88349845
vn 0.46624264 -0.04525806 -0.88349845
vn 0.64908752 -0.04555986 -0.75934820
vn 0.64908752 -0.04555986 -0.75934820
vn 0.64908752 -0.04555986 -0.75934820
vn 0.71477963 -0.01867945 -0.69910025
vn 0.71477963 -0.01867945 -0.69910025
vn 0.71477963 -0.01867945 -0.69910025
vn 0.54928164 0.00078323 -0.83563692
vn 0.54928164 0.00078323 -0.83563692
vn 0.54928164 0.00078323 -0.83563692
vn 0.86943771 -0.19942828 -0.45200269
vn 0.86943771 -0.19942828 -0.45200269
vn 0.86943771 -0.19942828 -0.45200269
vn -0.99808088 0.06192384 0.00000000
vn -0.99808088 0.06192384 0.00000000
vn -0.99808088 0.06192384 0.00000000
f 1//1 2//2 3//3
f 4//4 5//5 6//6
f 7//7 8//8 9//9
f 10//10 11//11 12//12
f 13//13 14//14 15//15
f 16//16 17//17 18//18
f 19//19 20//20 13//13
f 21//21 22//22 23//23
f 21//21 23//23 24//24
f 25//25 22//22 21//21
f 25//25 26//26 22//22
f 12//12 11//11 26//26
f 12//12 26//26 25//25
f 27//27 28//28 29//29
f 30//30 31//31 32//32
f 33//33 34//34 35//35
f 36//36 37//37 38//38
f 39//39 40//40 41//41
f 42//42 43//43 44//44
f 45//45 46//46 47//47
f 48//48 49//49 50//50
f 51//51 52//52 53//53
f 54//54 55//55 56//56
f 54//54 56//56 57//57
f 58//58 59//59 60//60
f 61//61 62//62 63//63
f 64//64 65//65 66//66
f 67//67 68//68 69//69
f 70//70 71//71 72//72
f 73//73 74//74 75//75
f 76//76 77//77 78//78
f 79//79 80//80 81//81
f 82//82 83//83 84//84
f 85//85 86//86 87//87
f 85//85 88//88 86//86
f 89//89 90//90 91//91
f 92//92 93//93 94//94
f 95//95 96//96 97//97
f 98//98 74//74 73//73
f 99//99 100//100 101//101
f 102//102 103//103 104//104
f 105//105 106//106 107//107
f 108//108 109//109 110//110
f 111//111 112//112 113//113
f 114//114 115//115 116//116
f 117//117 102//102 104//104
f 118//118 112//112 111//111
f 119//119 120//120 121//121
f 122//122 123//123 124//124
f 125//125 126//126 127//127
f 128//128 129//129 130//130
f 131//131 132//132 133//133
f 134//134 135//135 136//136
f 137//137 138//138 139//139
f 140//140 141//141 142//142
f 143//143 144//144 145//145
f 146//146 141//141 140//140
f 147//147 148//148 149//149
f 150//150 151//151 152//152
f 153//153 154//154 155//155
f 156//156 157//157 158//158
f 159//159 160//160 161//161
f 162//162 163//163 164//164
f 165//165 166//166 167//167
f 168//168 169//169 170//170
f 171//171 172//172 173//173
f 174//174 175//175 176//176
f 177//177 171//171 173//173
f 178//178 174//174 176//176
f 179//179 180//180 181//181
f 182//182 179//179 181//181
f 183//183 179//179 182//182
f 184//184 185//185 186//186
f 184//184 187//187 185//185
f 188//188 186//186 183//183
f 189//189 190//190 191//191
f 188//188 183//183 182//182
f 188//188 182//182 192//192
f 193//193 194//194 195//195
f 196//196 197//197 192//192
f 198//198 199//199 200//200
f 201//201 198//198 200//200
f 202//202 203//203 204//204
f 205//205 206//206 207//207
f 208//208 209//209 210//210
f 211//211 212//212 213//213
f 214//214 215//215 216//216
f 217//217 218//218 219//219
f 220//220 221//221 222//222
f 223//223 224//224 225//225
f 226//226 227//227 228//228
f 229//229 230//230 231//231
f 217//217 232//232 218//218
f 220//220 222//222 233//233
f 234//234 235//235 236//236
f 237//237 238//238 239//239
f 240//240 241//241 242//242
f 243//243 244//244 245//245
f 246//246 247//247 248//248
f 249//249 250//250 251//251
f 252//252 253//253 254//254
f 255//255 256//256 257//257
f 258//258 259//259 260//260
f 261//261 262//262 263//263
f 264//264 265//265 266//266
f 267//267 268//268 269//269
f 270//270 271//271 272//272
f 273//273 274//274 275//275
f 276//276 277//277 278//278
f 279//279 280//280 281//281
f 282//282 283//283 284//284
f 285//285 286//286 287//287
f 288//288 289//289 290//290
f 291//291 292//292 293//293
f 294//294 295//295 296//296
f 297//297 298//298 299//299
f 300//300 301//301 302//302
f 303//303 304//304 305//305
f 306//306 307//307 308//308
f 309//309 310//310 311//311
f 312//312 313//313 314//314
f 315//315 316//316 317//317
f 318//318 319//319 320//320
f 321//321 322//322 323//323
f 324//324 325//325 326//326
f 327//327 328//328 329//329
f 330//330 331//331 332//332
f 333//333 334//334 335//335
f 336//336 337//337 338//338
f 339//339 340//340 341//341
f 342//342 343//343 344//344
f 345//345 346//346 347//347
f 348//348 349//349 350//350
f 351//351 352//352 353//353
f 354//354 355//355 356//356
f 357//357 358//358 359//359
f 360//360 361//361 362//362
f 363//363 364//364 365//365
f 363//363 366//366 364//364
f 367//367 368//368 369//369
f 370//370 371//371 372//372
f 373//373 374//374 375//375
f 355//355 354//354 376//376
f 377//377 378//378 379//379
f 380//380 381//381 382//382
f 383//383 384//384 385//385
f 386//386 387//387 388//388
f 389//389 390//390 391//391
f 392//392 393//393 394//394
f 395//395 396//396 397//397
f 398//398 399//399 400//400
f 401//401 402//402 403//403
f 404//404 405//405 406//406
f 407//407 383//383 385//385
f 408//408 409//409 410//410
f 411//411 412//412 413//413
f 414//414 415//415 416//416
f 417//417 418//418 419//419
f 420//420 421//421 422//422
f 423//423 424//424 425//425
f 426//426 427//427 428//428
f 429//429 430//430 431//431
f 432//432 433//433 434//434
f 435//435 436//436 437//437
f 438//438 439//439 440//440
f 441//441 442//442 443//443
f 444//444 445//445 446//446
f 447//447 448//448 449//449
f 450//450 451//451 452//452
f 453//453 454//454 455//455
f 456//456 457//457 458//458
f 459//459 460//460 461//461
f 462//462 463//463 464//464
f 465//465 466//466 467//467
f 468//468 469//469 470//470
f 471//471 472//472 473//473
f 474//474 475//475 476//476
f 477//477 478//478 479//479
f 480//480 481//481 482//482
f 483//483 484//484 485//485
f 486//486 487//487 488//488
f 489//489 490//490 491//491
f 492//492 493//493 494//494
f 495//495 496//496 497//497
f 498//498 499//499 500//500
f 501//501 502//502 503//503
f 504//504 505//505 506//506
f 507//507 508//508 509//509
f 510//510 511//511 512//512
f 513//513 514//514 515//515
f 516//516 517//517 518//518
f 519//519 520//520 521//521
f 522//522 523//523 524//524
f 525//525 526//526 527//527
f 528//528 529//529 530//530
f 531//531 532//532 533//533
f 534//534 535//535 536//536
f 537//537 538//538 539//539
f 540//540 541//541 542//542
f 543//543 544//544 545//545
f 546//546 547//547 548//548
f 549//549 550//550 551//551
f 552//552 553//553 554//554
f 555//555 556//556 557//557
f 558//558 559//559 560//560
f 561//561 562//562 563//563
f 564//564 565//565 566//566
f 567//567 568//568 569//569
f 570//570 571//571 572//572
f 573//573 574//574 575//575
f 576//576 577//577 578//578
f 579//579 580//580 581//581
f 582//582 583//583 584//584
f 585//585 586//586 587//587
f 588//588 589//589 590//590
f 591//591 592//592 593//593
f 594//594 595//595 596//596
f 597//597 598//598 599//599
f 600//600 601//601 602//602
f 603//603 604//604 605//605
f 606//606 607//607 608//608
f 609//609 610//610 611//611
f 612//612 613//613 614//614
f 615//615 616//616 617//617
f 618//618 619//619 620//620
f 621//621 622//622 623//623
f 624//624 625//625 626//626
f 627//627 628//628 629//629
f 630//630 631//631 632//632
f 633//633 634//634 635//635
f 636//636 637//637 638//638
f 639//639 640//640 641//641
f 639//639 642//642 640//640
f 643//643 644//644 645//645
f 646//646 647//647 648//648
f 649//649 650//650 651//651
f 652//652 653//653 654//654
f 655//655 656//656 657//657
f 658//658 659//659 660//660
f 661//661 662//662 663//663
f 664//664 665//665 666//666
f 667//667 668//668 669//669
f 670//670 671//671 672//672
f 673//673 674//674 675//675
f 676//676 677//677 678//678
f 679//679 680//680 681//681
f 682//682 683//683 684//684
f 685//685 686//686 687//687
f 688//688 689//689 690//690
f 691//691 692//692 693//693
f 694//694 695//695 696//696
f 697//697 698//698 699//699
f 700//700 701//701 702//702
f 703//703 704//704 705//705
f 706//706 707//707 708//708
f 709//709 710//710 711//711
f 712//712 713//713 714//714
f 715//715 716//716 717//717
f 718//718 719//719 720//720
f 721//721 722//722 723//723
f 724//724 725//725 726//726
f 727//727 728//728 729//729
f 730//730 731//731 732//732
f 733//733 734//734 735//735
f 736//736 737//737 738//738
f 739//739 740//740 741//741
f 742//742 743//743 744//744
f 745//745 746//746 747//747
f 748//748 749//749 750//750
f 751//751 752//752 753//753
f 754//754 755//755 756//756
f 757//757 758//758 759//759
f 760//760 761//761 762//762
f 763//763 764//764 765//765
f 766//766 767//767 768//768
f 769//769 770//770 771//771
f 772//772 773//773 774//774
f 775//775 776//776 777//777
f 778//778 779//779 780//780
f 781//781 782//782 783//783
f 784//784 785//785 786//786
f 787//787 788//788 789//789
f 790//790 791//791 792//792
f 793//793 794//794 795//795
f 796//796 797//797 798//798
f 799//799 800//800 801//801
f 802//802 803//803 804//804
f 805//805 806//806 807//807
f 808//808 809//809 810//810
f 741//741 811//811 739//739
f 720//720 812//812 718//718
f 813//813 814//814 815//815
f 816//816 817//817 818//818
f 819//819 820//820 821//821
f 822//822 823//823 824//824
f 825//825 826//826 827//827
f 828//828 829//829 830//830
f 831//831 832//832 833//833
f 834//834 835//835 836//836
f 837//837 838//838 839//839
f 840//840 841//841 842//842
f 843//843 844//844 845//845
f 846//846 847//847 848//848
f 849//849 850//850 851//851
f 852//852 853//853 854//854
f 855//855 856//856 857//857
f 858//858 859//859 860//860
f 861//861 862//862 863//863
f 864//864 865//865 866//866
f 867//867 868//868 869//869
f 870//870 871//871 872//872
f 873//873 874//874 875//875
f 876//876 877//877 878//878
f 879//879 880//880 881//881
f 882//882 883//883 884//884
f 885//885 886//886 887//887
f 888//888 889//889 890//890
f 891//891 892//892 893//893
f 894//894 895//895 896//896
f 897//897 898//898 899//899
f 900//900 901//901 902//902
f 903//903 904//904 905//905
f 906//906 907//907 908//908
f 909//909 910//910 911//911
f 912//912 913//913 914//914
f 915//915 916//916 917//917
f 918//918 919//919 920//920
f 921//921 922//922 923//923
f 924//924 925//925 926//926
f 927//927 928//928 929//929
f 930//930 931//931 932//932
f 933//933 934//934 935//935

