# https://github.com/mikedh/trimesh
v 0.00273782 -0.00803554 0.05308599
v -0.00736821 -0.00463182 0.05201543
v 0.00139433 -0.00798815 0.05295915
v 0.00126368 0.01098388 0.05294652
v -0.00274098 0.00898814 0.05253274
v -0.00000070 0.00970489 0.05282135
v -0.00426638 -0.00312787 0.05236024
v -0.00705040 0.01473850 0.05202181
v -0.00592238 -0.00326353 0.05216838
v 0.01380628 0.00876987 0.05381072
v 0.01216804 0.01093930 0.05372269
v 0.01299566 -0.00994563 0.05377341
v 0.01086843 -0.01222980 0.05365521
v 0.00874150 0.00223231 0.05354518
v 0.00902331 -0.01362597 0.05356241
v 0.01145786 0.00364041 0.05370165
v 0.00874150 0.00223231 0.05354518
v 0.01086843 -0.01222980 0.05365521
v -0.00592238 -0.00326353 0.05216838
v -0.00942218 0.01332235 0.05170596
v -0.00977880 -0.00201011 0.05165542
v -0.00540250 0.00990152 0.05222429
v 0.00435716 0.01576638 0.05322654
v 0.00121784 0.01630491 0.05293591
v 0.00390202 0.01168584 0.05319173
v 0.01581871 -0.00416082 0.05389661
v 0.01574522 0.00452310 0.05389608
v 0.01481837 -0.00698149 0.05385638
v -0.00274098 0.00898814 0.05253274
v 0.00516957 -0.01550865 0.05329216
v 0.00384563 -0.01286911 0.05318410
v 0.00224692 -0.01620942 0.05304051
v 0.00717187 0.00341928 0.05346949
v 0.00273782 -0.00803554 0.05308599
v 0.01145786 0.00364041 0.05370165
v 0.01475811 0.00703925 0.05385590
v 0.00126368 0.01098388 0.05294652
v -0.01504302 -0.00626820 0.05079401
v -0.01581466 0.00404328 0.05064327
v -0.01578170 -0.00411683 0.05064435
v 0.01475811 0.00703925 0.05385590
v 0.01481837 -0.00698149 0.05385638
v -0.00736821 -0.00463182 0.05201543
v -0.01103729 -0.00577295 0.05147810
v -0.00683129 -0.01485627 0.05204947
v 0.00987017 0.01304954 0.05361415
v 0.00736082 0.00502092 0.05346013
v -0.01493477 0.00652164 0.05081547
v -0.01581466 0.00404328 0.05064327
v -0.01504302 -0.00626820 0.05079401
v -0.00058380 -0.00133920 0.05276210
v -0.00683129 -0.01485627 0.05204947
v -0.01103729 -0.00577295 0.05147810
v -0.00986499 -0.01300925 0.05164415
v -0.01622658 -0.00150424 0.05056066
v -0.01578170 -0.00411683 0.05064435
v 0.01216804 0.01093930 0.05372269
v 0.01145786 0.00364041 0.05370165
v 0.01299566 -0.00994563 0.05377341
v 0.00126368 0.01098388 0.05294652
v 0.00121784 0.01630491 0.05293591
v -0.00133252 0.01192677 0.05268652
v -0.00705040 0.01473850 0.05202181
v 0.00722122 0.01467967 0.05344600
v 0.00717187 0.00341928 0.05346949
v 0.00736082 0.00502092 0.05346013
v -0.00058380 -0.00133920 0.05276210
v 0.00717187 0.00341928 0.05346949
v -0.00234479 -0.00129729 0.05257530
v -0.00234479 -0.00129729 0.05257530
v -0.00426638 -0.00312787 0.05236024
v -0.00058380 -0.00133920 0.05276210
v 0.00987017 0.01304954 0.05361415
v -0.01581466 0.00404328 0.05064327
v -0.01627463 0.00090409 0.05055869
v -0.01622658 -0.00150424 0.05056066
v 0.00016197 -0.01164788 0.05283827
v -0.00079521 -0.01631474 0.05274040
v 0.00224692 -0.01620942 0.05304051
v 0.00732100 -0.01462101 0.05345208
v 0.00717187 0.00341928 0.05346949
v 0.00516957 -0.01550865 0.05329216
v 0.00722122 0.01467967 0.05344600
v 0.00588304 0.00779289 0.05334789
v -0.00151646 0.01626378 0.05266411
v 0.00016197 -0.01164788 0.05283827
v 0.01628541 0.00151950 0.05391360
v 0.01631653 -0.00133961 0.05391467
v 0.00199062 0.00580311 0.05301977
v -0.00151646 0.01626378 0.05266411
v -0.00414938 0.01580595 0.05237205
v -0.00133252 0.01192677 0.05268652
v -0.00986499 -0.01300925 0.05164415
v -0.01103729 -0.00577295 0.05147810
v -0.01215606 -0.01088649 0.05129827
v -0.00592238 -0.00326353 0.05216838
v -0.00736821 -0.00463182 0.05201543
v -0.00426638 -0.00312787 0.05236024
v 0.00902331 -0.01362597 0.05356241
v 0.00732100 -0.01462101 0.05345208
v -0.00540250 0.00990152 0.05222429
v -0.01103729 -0.00577295 0.05147810
v -0.00736821 -0.00463182 0.05201543
v -0.00592238 -0.00326353 0.05216838
v -0.01392412 0.00849873 0.05099971
v -0.01493477 0.00652164 0.05081547
v -0.01400244 -0.00837785 0.05098570
v 0.00736082 0.00502092 0.05346013
v 0.00717187 0.00341928 0.05346949
v 0.00732100 -0.01462101 0.05345208
v 0.00717187 0.00341928 0.05346949
v 0.00199062 0.00580311 0.05301977
v 0.00010535 0.00580555 0.05283404
v -0.00414938 0.01580595 0.05237205
v -0.00736821 -0.00463182 0.05201543
v -0.00349641 -0.01596367 0.05244697
v -0.00079521 -0.01631474 0.05274040
v 0.00717187 0.00341928 0.05346949
v 0.00384563 -0.01286911 0.05318410
v 0.00516957 -0.01550865 0.05329216
v -0.00942218 0.01332235 0.05170596
v -0.00977880 -0.00201011 0.05165542
v 0.01628541 0.00151950 0.05391360
v 0.01574522 0.00452310 0.05389608
v 0.01581871 -0.00416082 0.05389661
v 0.00722122 0.01467967 0.05344600
v 0.00010535 0.00580555 0.05283404
v -0.00274098 0.00898814 0.05253274
v -0.00234479 -0.00129729 0.05257530
v -0.01182383 0.01127219 0.05135090
v -0.01215606 -0.01088649 0.05129827
v -0.01103729 -0.00577295 0.05147810
v -0.00942218 0.01332235 0.05170596
v -0.01182383 0.01127219 0.05135090
v 0.00722122 0.01467967 0.05344600
v 0.00435716 0.01576638 0.05322654
v 0.00588304 0.00779289 0.05334789
v -0.00000070 0.00970489 0.05282135
v 0.00010535 0.00580555 0.05283404
v 0.00199062 0.00580311 0.05301977
v -0.00000070 0.00970489 0.05282135
v -0.00274098 0.00898814 0.05253274
v 0.00010535 0.00580555 0.05283404
v -0.00426638 -0.00312787 0.05236024
v 0.00390202 0.01168584 0.05319173
v 0.00139433 -0.00798815 0.05295915
v 0.00139433 -0.00798815 0.05295915
v 0.00016197 -0.01164788 0.05283827
v -0.00736821 -0.00463182 0.05201543
v -0.00683129 -0.01485627 0.05204947
v -0.00349641 -0.01596367 0.05244697
v -0.01182383 0.01127219 0.05135090
v -0.01392412 0.00849873 0.05099971
v -0.01215606 -0.01088649 0.05129827
v -0.01400244 -0.00837785 0.05098570
v 0.00126368 0.01098388 0.05294652
v -0.00000070 0.00970489 0.05282135
v 0.00390202 0.01168584 0.05319173
v -0.01504302 -0.00626820 0.05079401
vn -0.09259468 0.03802249 0.99497765
vn -0.09259468 0.03802249 0.99497765
vn -0.09259468 0.03802249 0.99497765
vn -0.10690817 0.00838473 0.99423354
vn -0.10690817 0.00838473 0.99423354
vn -0.10690817 0.00838473 0.99423354
vn -0.11544177 0.00075973 0.99331396
vn -0.12012310 0.00055924 0.99275885
vn -0.11515827 0.00087168 0.99334677
vn -0.05215856 0.00026817 0.99863878
vn -0.04735671 0.00130077 0.99887719
vn -0.05287613 -0.00072688 0.99860081
vn -0.05143747 -0.00008871 0.99867621
vn -0.05037679 0.00018963 0.99873027
vn -0.05037679 0.00018963 0.99873027
vn -0.05809607 -0.00074259 0.99831072
vn -0.05967833 -0.00033623 0.99821760
vn -0.05709347 -0.00080094 0.99836852
vn -0.13191497 -0.00019882 0.99126102
vn -0.13189447 -0.00019442 0.99126374
vn -0.13191824 -0.00019952 0.99126058
vn -0.12066957 -0.00007499 0.99269273
vn -0.09188542 0.00175443 0.99576804
vn -0.09224756 0.00154216 0.99573491
vn -0.09253621 0.00137295 0.99570837
vn -0.03931415 -0.00026455 0.99922686
vn -0.04098256 -0.00014656 0.99915985
vn -0.03981562 -0.00024073 0.99920701
vn -0.11500636 0.00033671 0.99336470
vn -0.08531017 -0.00199895 0.99635244
vn -0.08986226 0.00012790 0.99595419
vn -0.08909472 -0.00017346 0.99602314
vn -0.08781229 0.00229449 0.99613440
vn -0.09028645 0.00005327 0.99591584
vn -0.04891994 0.00067757 0.99880247
vn -0.04103430 -0.00014238 0.99915773
vn -0.09285612 0.00118542 0.99567883
vn -0.20047180 -0.00068002 0.97969924
vn -0.20047180 -0.00068002 0.97969924
vn -0.20047180 -0.00068002 0.97969924
vn -0.04722333 0.00004875 0.99888436
vn -0.04521264 -0.00016035 0.99897737
vn -0.14360758 -0.00424639 0.98962560
vn -0.14301107 -0.00363881 0.98971440
vn -0.14360758 -0.00424639 0.98962560
vn -0.06220455 0.00029559 0.99806338
vn -0.06019323 -0.00039833 0.99818666
vn -0.19200220 -0.00002143 0.98139449
vn -0.19190147 -0.00003877 0.98141420
vn -0.19200220 -0.00002143 0.98139449
vn -0.09228312 0.00238517 0.99572995
vn -0.13157195 0.00143235 0.99130559
vn -0.13157195 0.00143235 0.99130559
vn -0.13157195 0.00143235 0.99130559
vn -0.18845924 -0.00063119 0.98208081
vn -0.18845924 -0.00063119 0.98208081
vn -0.03875818 0.00089064 0.99924822
vn -0.03875818 0.00089064 0.99924822
vn -0.03875818 0.00089064 0.99924822
vn -0.09924297 0.00112917 0.99506259
vn -0.09903720 0.00100813 0.99508322
vn -0.09915140 0.00107530 0.99507178
vn -0.13189154 -0.00019379 0.99126413
vn 0.03305306 0.00194021 0.99945172
vn 0.03305306 0.00194021 0.99945172
vn 0.03305306 0.00194021 0.99945172
vn -0.10491136 0.02319326 0.99421108
vn -0.10491136 0.02319326 0.99421108
vn -0.10491136 0.02319326 0.99421108
vn -0.10562357 -0.00594815 0.99438839
vn -0.10562357 -0.00594815 0.99438839
vn -0.10562357 -0.00594815 0.99438839
vn -0.04574279 0.00157109 0.99895202
vn -0.16447739 -0.00247590 0.98637775
vn -0.16447739 -0.00247590 0.98637775
vn -0.16447739 -0.00247590 0.98637775
vn -0.09814922 -0.00073955 0.99517143
vn -0.09814922 -0.00073955 0.99517143
vn -0.09814922 -0.00073955 0.99517143
vn -0.07348280 -0.00157001 0.99729525
vn -0.07348280 -0.00157001 0.99729525
vn -0.07348280 -0.00157001 0.99729525
vn -0.08567488 0.00245404 0.99632013
vn -0.08554700 0.00249203 0.99633102
vn -0.09892927 0.00094464 0.99509402
vn -0.09292033 0.00167262 0.99567214
vn -0.03615026 -0.00001846 0.99934637
vn -0.03615026 -0.00001846 0.99934637
vn -0.08530168 0.00256490 0.99635187
vn -0.11032939 0.00045495 0.99389497
vn -0.11119653 -0.00018254 0.99379842
vn -0.11174559 -0.00058625 0.99373668
vn -0.15086714 -0.00175671 0.98855249
vn -0.14980922 -0.00114727 0.98871426
vn -0.15086714 -0.00175671 0.98855249
vn -0.11601521 0.01156800 0.99318007
vn -0.11601521 0.01156800 0.99318007
vn -0.11601521 0.01156800 0.99318007
vn -0.06440999 -0.00026918 0.99792348
vn -0.06451321 -0.00027842 0.99791681
vn -0.11234104 -0.00102411 0.99366918
vn -0.16376937 0.06300053 0.98448490
vn -0.16376937 0.06300053 0.98448490
vn -0.16376937 0.06300053 0.98448490
vn -0.17937731 0.00001550 0.98378035
vn -0.17943168 0.00001198 0.98377044
vn -0.18109725 -0.00009573 0.98346519
vn 0.05385089 -0.00051861 0.99854885
vn 0.05385089 -0.00051861 0.99854885
vn 0.05385089 -0.00051861 0.99854885
vn -0.09804188 -0.02540779 0.99485790
vn -0.09804188 -0.02540779 0.99485790
vn -0.09804188 -0.02540779 0.99485790
vn -0.12009201 0.00064361 0.99276256
vn -0.10692675 0.00188257 0.99426512
vn -0.10786363 0.00100609 0.99416519
vn -0.10771305 0.00109182 0.99418143
vn -0.08254883 -0.00060432 0.99658684
vn -0.08254883 -0.00060432 0.99658684
vn -0.08254883 -0.00060432 0.99658684
vn -0.13945680 -0.00002078 0.99022816
vn -0.13945680 -0.00002078 0.99022816
vn -0.03365288 -0.00022391 0.99943356
vn -0.03365288 -0.00022391 0.99943356
vn -0.03365288 -0.00022391 0.99943356
vn -0.06301438 0.00054967 0.99801247
vn -0.10519814 0.00006323 0.99445128
vn -0.10632490 0.00001933 0.99433144
vn -0.11024675 -0.00013351 0.99390424
vn -0.15886375 0.00003686 0.98730051
vn -0.15886375 0.00003686 0.98730051
vn -0.15886375 0.00003686 0.98730051
vn -0.14675857 0.00060941 0.98917215
vn -0.14675857 0.00060941 0.98917215
vn -0.07617513 0.00059710 0.99709427
vn -0.07662876 0.00050976 0.99705956
vn -0.07702055 0.00043433 0.99702941
vn -0.09804016 0.00057202 0.99518229
vn -0.09804016 0.00057202 0.99518229
vn -0.09804016 0.00057202 0.99518229
vn -0.10484259 0.00038476 0.99448875
vn -0.10484259 0.00038476 0.99448875
vn -0.10484259 0.00038476 0.99448875
vn -0.11106790 -0.00016552 0.99381281
vn -0.07816466 0.00021402 0.99694044
vn -0.09403891 -0.00134540 0.99556761
vn -0.10600024 0.00285091 0.99436202
vn -0.10698387 0.00178314 0.99425916
vn -0.11932665 -0.00296058 0.99285064
vn -0.11932665 -0.00296058 0.99285064
vn -0.11932665 -0.00296058 0.99285064
vn -0.16509129 0.00013266 0.98627828
vn -0.16516454 0.00012579 0.98626602
vn -0.16666542 -0.00001499 0.98601351
vn -0.16697335 -0.00004388 0.98596141
vn -0.09040663 -0.00808857 0.99587209
vn -0.09040663 -0.00808857 0.99587209
vn -0.09040663 -0.00808857 0.99587209
vn -0.18138961 -0.00011464 0.98341131
f 1//1 2//2 3//3
f 4//4 5//5 6//6
f 7//7 8//8 9//9
f 10//10 11//11 12//12
f 13//13 14//14 15//15
f 16//16 17//17 18//18
f 19//19 20//20 21//21
f 22//22 8//8 7//7
f 23//23 24//24 25//25
f 26//26 27//27 28//28
f 29//29 22//22 7//7
f 30//30 31//31 32//32
f 31//31 33//33 34//34
f 12//12 35//35 13//13
f 27//27 36//36 28//28
f 25//25 24//24 37//37
f 38//38 39//39 40//40
f 41//41 12//12 42//42
f 43//43 44//44 45//45
f 16//16 46//46 47//47
f 48//48 49//49 50//50
f 33//33 51//51 34//34
f 52//52 53//53 54//54
f 49//49 55//55 56//56
f 57//57 58//58 59//59
f 60//60 61//61 62//62
f 63//63 20//20 19//19
f 64//64 65//65 66//66
f 67//67 68//68 69//69
f 70//70 71//71 72//72
f 11//11 73//73 35//35
f 74//74 75//75 76//76
f 77//77 78//78 79//79
f 80//80 81//81 82//82
f 83//83 84//84 33//33
f 61//61 85//85 62//62
f 31//31 86//86 32//32
f 87//87 26//26 88//88
f 84//84 89//89 33//33
f 90//90 91//91 92//92
f 93//93 94//94 95//95
f 96//96 97//97 98//98
f 17//17 47//47 99//99
f 99//99 47//47 100//100
f 92//92 91//91 101//101
f 102//102 103//103 104//104
f 105//105 106//106 107//107
f 41//41 10//10 12//12
f 108//108 109//109 110//110
f 111//111 112//112 113//113
f 114//114 8//8 22//22
f 115//115 116//116 117//117
f 118//118 119//119 120//120
f 121//121 44//44 122//122
f 123//123 124//124 125//125
f 46//46 126//126 47//47
f 127//127 128//128 129//129
f 130//130 131//131 132//132
f 133//133 134//134 94//94
f 135//135 136//136 137//137
f 138//138 139//139 140//140
f 141//141 142//142 143//143
f 128//128 144//144 129//129
f 136//136 145//145 137//137
f 34//34 146//146 31//31
f 147//147 115//115 148//148
f 149//149 150//150 151//151
f 148//148 115//115 117//117
f 152//152 153//153 154//154
f 154//154 153//153 155//155
f 156//156 157//157 158//158
f 107//107 106//106 159//159

