# https://github.com/mikedh/trimesh
v 0.08743983 0.07801944 0.01208521
v 0.08714133 0.07758021 0.01061399
v 0.08720469 0.07775431 0.01203103
v 0.08776473 0.07819241 0.01188488
v 0.08740478 0.07771533 0.00924177
v 0.08743983 0.07801944 0.01208521
v 0.08743983 0.07801944 0.01208521
v 0.08740478 0.07771533 0.00924177
v 0.08714133 0.07758021 0.01061399
v 0.08820557 0.07822275 0.01186378
v 0.08773088 0.07787585 0.00931574
v 0.08776473 0.07819241 0.01188488
v 0.08776473 0.07819241 0.01188488
v 0.08773088 0.07787585 0.00931574
v 0.08740478 0.07771533 0.00924177
v 0.08820557 0.07822275 0.01186378
v 0.08802425 0.07790017 0.00921781
v 0.08773088 0.07787585 0.00931574
v 0.08713805 0.07742226 0.00936276
v 0.08714133 0.07758021 0.01061399
v 0.08740478 0.07771533 0.00924177
v 0.08770918 0.07763910 0.00881929
v 0.08802425 0.07790017 0.00921781
v 0.08814221 0.07769244 0.00881840
v 0.08740478 0.07771533 0.00924177
v 0.08773088 0.07787585 0.00931574
v 0.08770918 0.07763910 0.00881929
v 0.08770918 0.07763910 0.00881929
v 0.08773088 0.07787585 0.00931574
v 0.08802425 0.07790017 0.00921781
v 0.08909487 0.07706922 0.00925393
v 0.08868426 0.07747697 0.00885607
v 0.08890950 0.07751929 0.00925804
v 0.08818459 0.07714831 0.00847245
v 0.08868426 0.07747697 0.00885607
v 0.08853441 0.07708907 0.00858320
v 0.08868426 0.07747697 0.00885607
v 0.08837270 0.07784998 0.00921763
v 0.08890950 0.07751929 0.00925804
v 0.08887553 0.07705813 0.00886662
v 0.08868426 0.07747697 0.00885607
v 0.08909487 0.07706922 0.00925393
v 0.08853441 0.07708907 0.00858320
v 0.08868426 0.07747697 0.00885607
v 0.08887553 0.07705813 0.00886662
v 0.08814221 0.07769244 0.00881840
v 0.08802425 0.07790017 0.00921781
v 0.08837270 0.07784998 0.00921763
v 0.08868426 0.07747697 0.00885607
v 0.08818459 0.07714831 0.00847245
v 0.08814221 0.07769244 0.00881840
v 0.08818459 0.07714831 0.00847245
v 0.08770918 0.07763910 0.00881929
v 0.08814221 0.07769244 0.00881840
v 0.08733999 0.07732492 0.00885440
v 0.08770918 0.07763910 0.00881929
v 0.08780580 0.07721024 0.00853891
v 0.08780580 0.07721024 0.00853891
v 0.08770918 0.07763910 0.00881929
v 0.08818459 0.07714831 0.00847245
v 0.08868426 0.07747697 0.00885607
v 0.08814221 0.07769244 0.00881840
v 0.08837270 0.07784998 0.00921763
v 0.08713805 0.07742226 0.00936276
v 0.08740478 0.07771533 0.00924177
v 0.08733999 0.07732492 0.00885440
v 0.08733999 0.07732492 0.00885440
v 0.08740478 0.07771533 0.00924177
v 0.08770918 0.07763910 0.00881929
v 0.08820557 0.07822275 0.01186378
v 0.08865720 0.07809084 0.01194055
v 0.08802425 0.07790017 0.00921781
v 0.08909487 0.07706922 0.00925393
v 0.08890950 0.07751929 0.00925804
v 0.08915960 0.07737827 0.01186229
v 0.08915960 0.07737827 0.01186229
v 0.08890950 0.07751929 0.00925804
v 0.08906555 0.07767313 0.01193250
v 0.08890950 0.07751929 0.00925804
v 0.08888196 0.07792967 0.01190139
v 0.08906555 0.07767313 0.01193250
v 0.08837270 0.07784998 0.00921763
v 0.08865720 0.07809084 0.01194055
v 0.08890950 0.07751929 0.00925804
v 0.08890950 0.07751929 0.00925804
v 0.08865720 0.07809084 0.01194055
v 0.08888196 0.07792967 0.01190139
v 0.08802425 0.07790017 0.00921781
v 0.08865720 0.07809084 0.01194055
v 0.08837270 0.07784998 0.00921763
v 0.08743464 0.07776808 0.01244272
v 0.08743983 0.07801944 0.01208521
v 0.08720469 0.07775431 0.01203103
v 0.08784776 0.07809340 0.01239521
v 0.08820122 0.07785969 0.01269598
v 0.08827316 0.07816213 0.01227958
v 0.08743983 0.07801944 0.01208521
v 0.08784776 0.07809340 0.01239521
v 0.08776473 0.07819241 0.01188488
v 0.08877164 0.07756185 0.01261992
v 0.08873289 0.07784456 0.01247586
v 0.08835059 0.07766079 0.01280094
v 0.08827316 0.07816213 0.01227958
v 0.08820122 0.07785969 0.01269598
v 0.08873289 0.07784456 0.01247586
v 0.08776473 0.07819241 0.01188488
v 0.08827316 0.07816213 0.01227958
v 0.08820557 0.07822275 0.01186378
v 0.08784776 0.07809340 0.01239521
v 0.08827316 0.07816213 0.01227958
v 0.08776473 0.07819241 0.01188488
v 0.08873289 0.07784456 0.01247586
v 0.08865720 0.07809084 0.01194055
v 0.08827316 0.07816213 0.01227958
v 0.08779138 0.07774752 0.01272453
v 0.08784776 0.07809340 0.01239521
v 0.08743464 0.07776808 0.01244272
v 0.08888196 0.07792967 0.01190139
v 0.08865720 0.07809084 0.01194055
v 0.08873289 0.07784456 0.01247586
v 0.08743464 0.07776808 0.01244272
v 0.08784776 0.07809340 0.01239521
v 0.08743983 0.07801944 0.01208521
v 0.08865720 0.07809084 0.01194055
v 0.08820557 0.07822275 0.01186378
v 0.08827316 0.07816213 0.01227958
v 0.08820122 0.07785969 0.01269598
v 0.08835059 0.07766079 0.01280094
v 0.08873289 0.07784456 0.01247586
v 0.08820122 0.07785969 0.01269598
v 0.08779138 0.07774752 0.01272453
v 0.08835059 0.07766079 0.01280094
v 0.08784776 0.07809340 0.01239521
v 0.08779138 0.07774752 0.01272453
v 0.08820122 0.07785969 0.01269598
v 0.08903026 0.07746791 0.01230950
v 0.08873289 0.07784456 0.01247586
v 0.08877164 0.07756185 0.01261992
v 0.08915960 0.07737827 0.01186229
v 0.08906555 0.07767313 0.01193250
v 0.08903026 0.07746791 0.01230950
v 0.08903026 0.07746791 0.01230950
v 0.08906555 0.07767313 0.01193250
v 0.08873289 0.07784456 0.01247586
v 0.08906555 0.07767313 0.01193250
v 0.08888196 0.07792967 0.01190139
v 0.08873289 0.07784456 0.01247586
vn -0.74227198 0.66831068 -0.04891970
vn -0.74227198 0.66831068 -0.04891970
vn -0.74227198 0.66831068 -0.04891970
vn -0.50871398 0.85669405 -0.08535450
vn -0.50871398 0.85669405 -0.08535450
vn -0.50871398 0.85669405 -0.08535450
vn -0.70743365 0.70364096 -0.06653586
vn -0.70743365 0.70364096 -0.06653586
vn -0.70743365 0.70364096 -0.06653586
vn -0.07391707 0.98989690 -0.12099747
vn -0.07391707 0.98989690 -0.12099747
vn -0.07391707 0.98989690 -0.12099747
vn -0.41980578 0.90145658 -0.10554214
vn -0.41980578 0.90145658 -0.10554214
vn -0.41980578 0.90145658 -0.10554214
vn -0.11919588 0.98652184 -0.11210268
vn -0.11919588 0.98652184 -0.11210268
vn -0.11919588 0.98652184 -0.11210268
vn -0.75346258 0.65255613 -0.08040305
vn -0.75346258 0.65255613 -0.08040305
vn -0.75346258 0.65255613 -0.08040305
vn -0.10798331 0.86858438 -0.48363290
vn -0.10798331 0.86858438 -0.48363290
vn -0.10798331 0.86858438 -0.48363290
vn -0.33239719 0.85685509 -0.39409575
vn -0.33239719 0.85685509 -0.39409575
vn -0.33239719 0.85685509 -0.39409575
vn -0.21134597 0.88578418 -0.41318188
vn -0.21134597 0.88578418 -0.41318188
vn -0.21134597 0.88578418 -0.41318188
vn 0.80598784 0.33641304 -0.48704196
vn 0.80598784 0.33641304 -0.48704196
vn 0.80598784 0.33641304 -0.48704196
vn 0.33790891 0.45069140 -0.82625349
vn 0.33790891 0.45069140 -0.82625349
vn 0.33790891 0.45069140 -0.82625349
vn 0.50782794 0.77954902 -0.36662530
vn 0.50782794 0.77954902 -0.36662530
vn 0.50782794 0.77954902 -0.36662530
vn 0.80828059 0.35732760 -0.46797380
vn 0.80828059 0.35732760 -0.46797380
vn 0.80828059 0.35732760 -0.46797380
vn 0.62978370 0.26924880 -0.72861347
vn 0.62978370 0.26924880 -0.72861347
vn 0.62978370 0.26924880 -0.72861347
vn 0.12868378 0.89485639 -0.42740206
vn 0.12868378 0.89485639 -0.42740206
vn 0.12868378 0.89485639 -0.42740206
vn 0.26722567 0.53175278 -0.80363513
vn 0.26722567 0.53175278 -0.80363513
vn 0.26722567 0.53175278 -0.80363513
vn -0.06721430 0.53158218 -0.84433561
vn -0.06721430 0.53158218 -0.84433561
vn -0.06721430 0.53158218 -0.84433561
vn -0.43484290 0.42208573 -0.79545917
vn -0.43484290 0.42208573 -0.79545917
vn -0.43484290 0.42208573 -0.79545917
vn -0.05991637 0.53673347 -0.84162178
vn -0.05991637 0.53673347 -0.84162178
vn -0.05991637 0.53673347 -0.84162178
vn 0.34795137 0.78598612 -0.51103392
vn 0.34795137 0.78598612 -0.51103392
vn 0.34795137 0.78598612 -0.51103392
vn -0.75406587 0.52141675 -0.39938607
vn -0.75406587 0.52141675 -0.39938607
vn -0.75406587 0.52141675 -0.39938607
vn -0.57862849 0.62083007 -0.52892258
vn -0.57862849 0.62083007 -0.52892258
vn -0.57862849 0.62083007 -0.52892258
vn 0.29894932 0.94457941 -0.13564308
vn 0.29894932 0.94457941 -0.13564308
vn 0.29894932 0.94457941 -0.13564308
vn 0.92228580 0.38048526 -0.06796957
vn 0.92228580 0.38048526 -0.06796957
vn 0.92228580 0.38048526 -0.06796957
vn 0.94493655 0.31889755 -0.07347975
vn 0.94493655 0.31889755 -0.07347975
vn 0.94493655 0.31889755 -0.07347975
vn 0.81516593 0.57359814 -0.08055857
vn 0.81516593 0.57359814 -0.08055857
vn 0.81516593 0.57359814 -0.08055857
vn 0.52713215 0.83987801 -0.12937011
vn 0.52713215 0.83987801 -0.12937011
vn 0.52713215 0.83987801 -0.12937011
vn 0.56446900 0.81655411 -0.12088894
vn 0.56446900 0.81655411 -0.12088894
vn 0.56446900 0.81655411 -0.12088894
vn 0.14178563 0.98463731 -0.10191274
vn 0.14178563 0.98463731 -0.10191274
vn 0.14178563 0.98463731 -0.10191274
vn -0.72758779 0.56611153 0.38747096
vn -0.72758779 0.56611153 0.38747096
vn -0.72758779 0.56611153 0.38747096
vn 0.03033203 0.80622954 0.59082476
vn 0.03033203 0.80622954 0.59082476
vn 0.03033203 0.80622954 0.59082476
vn -0.34162006 0.91068560 0.23226596
vn -0.34162006 0.91068560 0.23226596
vn -0.34162006 0.91068560 0.23226596
vn 0.43981222 0.45487362 0.77437407
vn 0.43981222 0.45487362 0.77437407
vn 0.43981222 0.45487362 0.77437407
vn 0.26830793 0.75680101 0.59603950
vn 0.26830793 0.75680101 0.59603950
vn 0.26830793 0.75680101 0.59603950
vn -0.06052336 0.98627414 0.15362372
vn -0.06052336 0.98627414 0.15362372
vn -0.06052336 0.98627414 0.15362372
vn -0.10145420 0.97341340 0.20536163
vn -0.10145420 0.97341340 0.20536163
vn -0.10145420 0.97341340 0.20536163
vn 0.44064944 0.83754697 0.32302189
vn 0.44064944 0.83754697 0.32302189
vn 0.44064944 0.83754697 0.32302189
vn -0.44509219 0.65447288 0.61119407
vn -0.44509219 0.65447288 0.61119407
vn -0.44509219 0.65447288 0.61119407
vn 0.59190586 0.76074405 0.26630047
vn 0.59190586 0.76074405 0.26630047
vn 0.59190586 0.76074405 0.26630047
vn -0.50288712 0.71049368 0.49224310
vn -0.50288712 0.71049368 0.49224310
vn -0.50288712 0.71049368 0.49224310
vn 0.26381155 0.95968217 0.09702372
vn 0.26381155 0.95968217 0.09702372
vn 0.26381155 0.95968217 0.09702372
vn 0.31585366 0.61738754 0.72046450
vn 0.31585366 0.61738754 0.72046450
vn 0.31585366 0.61738754 0.72046450
vn -0.05580481 0.43287709 0.89972398
vn -0.05580481 0.43287709 0.89972398
vn -0.05580481 0.43287709 0.89972398
vn -0.14098276 0.69462189 0.70542490
vn -0.14098276 0.69462189 0.70542490
vn -0.14098276 0.69462189 0.70542490
vn 0.76535080 0.37239253 0.52493995
vn 0.76535080 0.37239253 0.52493995
vn 0.76535080 0.37239253 0.52493995
vn 0.94283238 0.24761646 0.22305424
vn 0.94283238 0.24761646 0.22305424
vn 0.94283238 0.24761646 0.22305424
vn 0.80534864 0.48574181 0.33980650
vn 0.80534864 0.48574181 0.33980650
vn 0.80534864 0.48574181 0.33980650
vn 0.76308763 0.58054089 0.28402386
vn 0.76308763 0.58054089 0.28402386
vn 0.76308763 0.58054089 0.28402386
f 1//1 2//2 3//3
f 4//4 5//5 6//6
f 7//7 8//8 9//9
f 10//10 11//11 12//12
f 13//13 14//14 15//15
f 16//16 17//17 18//18
f 19//19 20//20 21//21
f 22//22 23//23 24//24
f 25//25 26//26 27//27
f 28//28 29//29 30//30
f 31//31 32//32 33//33
f 34//34 35//35 36//36
f 37//37 38//38 39//39
f 40//40 41//41 42//42
f 43//43 44//44 45//45
f 46//46 47//47 48//48
f 49//49 50//50 51//51
f 52//52 53//53 54//54
f 55//55 56//56 57//57
f 58//58 59//59 60//60
f 61//61 62//62 63//63
f 64//64 65//65 66//66
f 67//67 68//68 69//69
f 70//70 71//71 72//72
f 73//73 74//74 75//75
f 76//76 77//77 78//78
f 79//79 80//80 81//81
f 82//82 83//83 84//84
f 85//85 86//86 87//87
f 88//88 89//89 90//90
f 91//91 92//92 93//93
f 94//94 95//95 96//96
f 97//97 98//98 99//99
f 100//100 101//101 102//102
f 103//103 104//104 105//105
f 106//106 107//107 108//108
f 109//109 110//110 111//111
f 112//112 113//113 114//114
f 115//115 116//116 117//117
f 118//118 119//119 120//120
f 121//121 122//122 123//123
f 124//124 125//125 126//126
f 127//127 128//128 129//129
f 130//130 131//131 132//132
f 133//133 134//134 135//135
f 136//136 137//137 138//138
f 139//139 140//140 141//141
f 142//142 143//143 144//144
f 145//145 146//146 147//147

