# https://github.com/mikedh/trimesh
v 0.00900990 -0.00429732 -0.01220220
v 0.00900113 0.00049999 -0.01202360
v 0.00899982 0.00050000 -0.01265420
v 0.00900137 -0.00101155 -0.01270570
v 0.00900990 -0.00429732 -0.01220220
v 0.00899982 0.00050000 -0.01265420
v 0.00899792 -0.01097571 -0.01414810
v 0.00901008 -0.01571422 -0.01414010
v 0.00900745 -0.00959957 -0.01281140
v 0.00904047 -0.01602751 -0.01537870
v 0.00901008 -0.01571422 -0.01414010
v 0.00899792 -0.01097571 -0.01414810
v 0.00899786 -0.00399411 -0.01329460
v 0.00900137 -0.00101155 -0.01270570
v 0.00900137 -0.00110006 -0.01316920
v 0.00899786 -0.00399411 -0.01329460
v 0.02452141 0.00050089 -0.00222490
v 0.02469182 -0.00098142 -0.00242070
v 0.02510464 0.00049865 -0.00282720
v 0.02334517 -0.00502741 -0.00260460
v 0.02366507 -0.00208318 -0.00224630
v 0.02321434 -0.00275022 -0.00246920
v 0.02338778 -0.00899071 -0.00319550
v 0.02300930 -0.00804150 -0.00327130
v 0.02307415 -0.01101964 -0.00386800
v 0.02488094 -0.00863606 -0.00361690
v 0.02477437 -0.01036006 -0.00381620
v 0.02502357 -0.01441735 -0.00504190
v 0.02451163 -0.01147598 -0.00382460
v 0.02502357 -0.01441735 -0.00504190
v 0.02477437 -0.01036006 -0.00381620
v 0.02502357 -0.01441735 -0.00504190
v 0.02545320 -0.01825660 -0.00688070
v 0.02526468 -0.01574194 -0.00588690
v 0.02518755 -0.01823920 -0.00637890
v 0.02545320 -0.01825660 -0.00688070
v 0.02502357 -0.01441735 -0.00504190
v 0.02479571 -0.01571542 -0.00516670
v 0.02472305 -0.01834601 -0.00612220
v 0.02518755 -0.01823920 -0.00637890
v 0.02441048 -0.01588749 -0.00502070
v 0.02416658 -0.01829338 -0.00598310
v 0.02472305 -0.01834601 -0.00612220
v 0.02321434 -0.00275022 -0.00246920
v 0.02296257 -0.00426656 -0.00279150
v 0.02334517 -0.00502741 -0.00260460
v 0.02441048 -0.01588749 -0.00502070
v 0.02472305 -0.01834601 -0.00612220
v 0.02479571 -0.01571542 -0.00516670
v 0.02348423 -0.01689571 -0.00559630
v 0.02416658 -0.01829338 -0.00598310
v 0.02405935 -0.01686275 -0.00537540
v 0.02405935 -0.01686275 -0.00537540
v 0.02416658 -0.01829338 -0.00598310
v 0.02441048 -0.01588749 -0.00502070
v 0.02348423 -0.01689571 -0.00559630
v 0.02371037 -0.01836800 -0.00621770
v 0.02416658 -0.01829338 -0.00598310
v 0.02469182 -0.00098142 -0.00242070
v 0.02408343 -0.00135458 -0.00219450
v 0.02410167 -0.00235999 -0.00225470
v 0.02400743 -0.01463449 -0.00455890
v 0.02405935 -0.01686275 -0.00537540
v 0.02441048 -0.01588749 -0.00502070
v 0.02356433 -0.01483744 -0.00471000
v 0.02405935 -0.01686275 -0.00537540
v 0.02400743 -0.01463449 -0.00455890
v 0.02314561 -0.01451712 -0.00489810
v 0.02348423 -0.01689571 -0.00559630
v 0.02356433 -0.01483744 -0.00471000
v 0.02488094 -0.00863606 -0.00361690
v 0.02526468 -0.01574194 -0.00588690
v 0.02505505 -0.01125526 -0.00456850
v 0.02488094 -0.00863606 -0.00361690
v 0.02502357 -0.01441735 -0.00504190
v 0.02526468 -0.01574194 -0.00588690
v 0.02441048 -0.01588749 -0.00502070
v 0.02479571 -0.01571542 -0.00516670
v 0.02451163 -0.01147598 -0.00382460
v 0.02400743 -0.01463449 -0.00455890
v 0.02441048 -0.01588749 -0.00502070
v 0.02400225 -0.01206779 -0.00381410
v 0.02451163 -0.01147598 -0.00382460
v 0.02479571 -0.01571542 -0.00516670
v 0.02502357 -0.01441735 -0.00504190
v 0.02354454 -0.01208454 -0.00387710
v 0.02356433 -0.01483744 -0.00471000
v 0.02400743 -0.01463449 -0.00455890
v 0.02400225 -0.01206779 -0.00381410
v 0.02441048 -0.01588749 -0.00502070
v 0.02451163 -0.01147598 -0.00382460
v 0.02431339 -0.01030999 -0.00346750
v 0.02451163 -0.01147598 -0.00382460
v 0.02477437 -0.01036006 -0.00381620
v 0.02354454 -0.01208454 -0.00387710
v 0.02400743 -0.01463449 -0.00455890
v 0.02400225 -0.01206779 -0.00381410
v 0.02307415 -0.01101964 -0.00386800
v 0.02356433 -0.01483744 -0.00471000
v 0.02354454 -0.01208454 -0.00387710
v 0.02314561 -0.01451712 -0.00489810
v 0.02356433 -0.01483744 -0.00471000
v 0.02307415 -0.01101964 -0.00386800
v 0.02376461 -0.00536954 -0.00253310
v 0.02418512 -0.00519311 -0.00255940
v 0.02410167 -0.00235999 -0.00225470
v 0.02376461 -0.00536954 -0.00253310
v 0.02410167 -0.00235999 -0.00225470
v 0.02366507 -0.00208318 -0.00224630
v 0.02376461 -0.00536954 -0.00253310
v 0.02366507 -0.00208318 -0.00224630
v 0.02334517 -0.00502741 -0.00260460
v 0.02439767 -0.00788051 -0.00302560
v 0.02477437 -0.01036006 -0.00381620
v 0.02488094 -0.00863606 -0.00361690
v 0.02439767 -0.00788051 -0.00302560
v 0.02431339 -0.01030999 -0.00346750
v 0.02477437 -0.01036006 -0.00381620
v 0.02457743 -0.00318033 -0.00252500
v 0.02486336 -0.00421059 -0.00293040
v 0.02469182 -0.00098142 -0.00242070
v 0.02373689 -0.00911111 -0.00313250
v 0.02431339 -0.01030999 -0.00346750
v 0.02439767 -0.00788051 -0.00302560
v 0.02500146 -0.00498027 -0.00333860
v 0.02488094 -0.00863606 -0.00361690
v 0.02505505 -0.01125526 -0.00456850
v 0.02469182 -0.00098142 -0.00242070
v 0.02410167 -0.00235999 -0.00225470
v 0.02457743 -0.00318033 -0.00252500
v 0.02486336 -0.00421059 -0.00293040
v 0.02488094 -0.00863606 -0.00361690
v 0.02500146 -0.00498027 -0.00333860
v 0.02366507 -0.00208318 -0.00224630
v 0.02394056 0.00049932 -0.00212100
v 0.02325201 0.00049879 -0.00234130
v 0.02376461 -0.00536954 -0.00253310
v 0.02373689 -0.00911111 -0.00313250
v 0.02439767 -0.00788051 -0.00302560
v 0.02376461 -0.00536954 -0.00253310
v 0.02439767 -0.00788051 -0.00302560
v 0.02418512 -0.00519311 -0.00255940
v 0.02439767 -0.00788051 -0.00302560
v 0.02488094 -0.00863606 -0.00361690
v 0.02486336 -0.00421059 -0.00293040
v 0.02300930 -0.00804150 -0.00327130
v 0.02338778 -0.00899071 -0.00319550
v 0.02334517 -0.00502741 -0.00260460
v 0.02376461 -0.00536954 -0.00253310
v 0.02338778 -0.00899071 -0.00319550
v 0.02373689 -0.00911111 -0.00313250
v 0.02334517 -0.00502741 -0.00260460
v 0.02338778 -0.00899071 -0.00319550
v 0.02376461 -0.00536954 -0.00253310
v 0.02296257 -0.00426656 -0.00279150
v 0.02300930 -0.00804150 -0.00327130
v 0.02334517 -0.00502741 -0.00260460
v 0.02431339 -0.01030999 -0.00346750
v 0.02400225 -0.01206779 -0.00381410
v 0.02451163 -0.01147598 -0.00382460
v 0.02431339 -0.01030999 -0.00346750
v 0.02373689 -0.00911111 -0.00313250
v 0.02400225 -0.01206779 -0.00381410
v 0.02469182 -0.00098142 -0.00242070
v 0.02486336 -0.00421059 -0.00293040
v 0.02510464 0.00049865 -0.00282720
v 0.02321434 -0.00275022 -0.00246920
v 0.02366507 -0.00208318 -0.00224630
v 0.02325201 0.00049879 -0.00234130
v 0.02354454 -0.01208454 -0.00387710
v 0.02400225 -0.01206779 -0.00381410
v 0.02373689 -0.00911111 -0.00313250
v 0.02354454 -0.01208454 -0.00387710
v 0.02373689 -0.00911111 -0.00313250
v 0.02338778 -0.00899071 -0.00319550
v 0.02457743 -0.00318033 -0.00252500
v 0.02418512 -0.00519311 -0.00255940
v 0.02439767 -0.00788051 -0.00302560
v 0.02418512 -0.00519311 -0.00255940
v 0.02457743 -0.00318033 -0.00252500
v 0.02410167 -0.00235999 -0.00225470
v 0.02338778 -0.00899071 -0.00319550
v 0.02307415 -0.01101964 -0.00386800
v 0.02354454 -0.01208454 -0.00387710
v 0.02408343 -0.00135458 -0.00219450
v 0.02366507 -0.00208318 -0.00224630
v 0.02410167 -0.00235999 -0.00225470
v 0.02457743 -0.00318033 -0.00252500
v 0.02439767 -0.00788051 -0.00302560
v 0.02486336 -0.00421059 -0.00293040
v 0.02408343 -0.00135458 -0.00219450
v 0.02394056 0.00049932 -0.00212100
v 0.02366507 -0.00208318 -0.00224630
v 0.02296257 -0.00426656 -0.00279150
v 0.02321434 -0.00275022 -0.00246920
v 0.02325201 0.00049879 -0.00234130
v 0.02479571 -0.01571542 -0.00516670
v 0.02518755 -0.01823920 -0.00637890
v 0.02502357 -0.01441735 -0.00504190
v 0.02452141 0.00050089 -0.00222490
v 0.02408343 -0.00135458 -0.00219450
v 0.02469182 -0.00098142 -0.00242070
v 0.02452141 0.00050089 -0.00222490
v 0.02394056 0.00049932 -0.00212100
v 0.02408343 -0.00135458 -0.00219450
v 0.02405935 -0.01686275 -0.00537540
v 0.02356433 -0.01483744 -0.00471000
v 0.02348423 -0.01689571 -0.00559630
v 0.02500146 -0.00498027 -0.00333860
v 0.02510464 0.00049865 -0.00282720
v 0.02486336 -0.00421059 -0.00293040
v 0.01033169 -0.01780605 -0.01442890
v 0.01363778 -0.01683408 -0.01319310
v 0.01196837 -0.01385349 -0.01287040
v 0.01819068 -0.01500833 -0.01019190
v 0.01989758 -0.01250088 -0.00807830
v 0.01813668 -0.01242464 -0.00951490
v 0.01819068 -0.01500833 -0.01019190
v 0.02011543 -0.01493555 -0.00861380
v 0.01989758 -0.01250088 -0.00807830
v 0.02212083 -0.01506066 -0.00651900
v 0.02314561 -0.01451712 -0.00489810
v 0.02186143 -0.01249140 -0.00597070
v 0.00911891 -0.00513148 -0.01214670
v 0.01068145 -0.00316340 -0.01164190
v 0.00911504 -0.00245893 -0.01198300
v 0.01033169 -0.01780605 -0.01442890
v 0.01196837 -0.01385349 -0.01287040
v 0.01051557 -0.01328164 -0.01311040
v 0.01665306 -0.00851333 -0.00972640
v 0.01826417 -0.00843429 -0.00862040
v 0.01720613 -0.00460094 -0.00896170
v 0.01216781 -0.00344700 -0.01123720
v 0.01368016 -0.00346386 -0.01069790
v 0.01448690 0.00049987 -0.01030020
v 0.01216781 -0.00344700 -0.01123720
v 0.01448690 0.00049987 -0.01030020
v 0.01224941 0.00049962 -0.01112280
v 0.00921899 -0.01621264 -0.01412690
v 0.01051557 -0.01328164 -0.01311040
v 0.00911933 -0.01253908 -0.01323550
v 0.01897919 -0.01697528 -0.01030030
v 0.02065515 -0.01699632 -0.00888660
v 0.02011543 -0.01493555 -0.00861380
v 0.01989758 -0.01250088 -0.00807830
v 0.02156031 -0.00854653 -0.00538710
v 0.02006900 -0.00849342 -0.00704350
v 0.01989758 -0.01250088 -0.00807830
v 0.02186143 -0.01249140 -0.00597070
v 0.02156031 -0.00854653 -0.00538710
v 0.01033169 -0.01780605 -0.01442890
v 0.01318240 -0.01828706 -0.01385470
v 0.01363778 -0.01683408 -0.01319310
v 0.01027542 -0.00831157 -0.01224510
v 0.01201200 -0.00870198 -0.01183020
v 0.01216781 -0.00344700 -0.01123720
v 0.01027542 -0.00831157 -0.01224510
v 0.01216781 -0.00344700 -0.01123720
v 0.01068145 -0.00316340 -0.01164190
v 0.01068145 -0.00316340 -0.01164190
v 0.01224941 0.00049962 -0.01112280
v 0.00900113 0.00049999 -0.01202360
v 0.01033169 -0.01780605 -0.01442890
v 0.01148492 -0.01832944 -0.01438570
v 0.01318240 -0.01828706 -0.01385470
v 0.01434397 -0.01241022 -0.01169510
v 0.01665306 -0.00851333 -0.00972640
v 0.01511216 -0.00847292 -0.01057030
v 0.01434397 -0.01241022 -0.01169510
v 0.01651060 -0.01247656 -0.01059020
v 0.01665306 -0.00851333 -0.00972640
v 0.00921899 -0.01621264 -0.01412690
v 0.01033169 -0.01780605 -0.01442890
v 0.01051557 -0.01328164 -0.01311040
v 0.01976907 -0.01828289 -0.01026210
v 0.02149415 -0.01824837 -0.00865300
v 0.02065515 -0.01699632 -0.00888660
v 0.00968045 -0.01712369 -0.01431880
v 0.01033169 -0.01780605 -0.01442890
v 0.00921899 -0.01621264 -0.01412690
v 0.01897919 -0.01697528 -0.01030030
v 0.02011543 -0.01493555 -0.00861380
v 0.01819068 -0.01500833 -0.01019190
v 0.02219426 -0.00328624 -0.00390450
v 0.02325201 0.00049879 -0.00234130
v 0.02123284 0.00050002 -0.00523350
v 0.02219426 -0.00328624 -0.00390450
v 0.02296257 -0.00426656 -0.00279150
v 0.02325201 0.00049879 -0.00234130
v 0.02058809 -0.00172573 -0.00595040
v 0.02219426 -0.00328624 -0.00390450
v 0.02123284 0.00050002 -0.00523350
v 0.01027542 -0.00831157 -0.01224510
v 0.01068145 -0.00316340 -0.01164190
v 0.00911891 -0.00513148 -0.01214670
v 0.02348423 -0.01689571 -0.00559630
v 0.02314561 -0.01451712 -0.00489810
v 0.02212083 -0.01506066 -0.00651900
v 0.02058809 -0.00172573 -0.00595040
v 0.02123284 0.00050002 -0.00523350
v 0.01921010 0.00050002 -0.00733540
v 0.01606303 -0.01596868 -0.01180960
v 0.01813668 -0.01242464 -0.00951490
v 0.01651060 -0.01247656 -0.01059020
v 0.01606303 -0.01596868 -0.01180960
v 0.01819068 -0.01500833 -0.01019190
v 0.01813668 -0.01242464 -0.00951490
v 0.01976907 -0.01828289 -0.01026210
v 0.02065515 -0.01699632 -0.00888660
v 0.01897919 -0.01697528 -0.01030030
v 0.01216781 -0.00344700 -0.01123720
v 0.01434397 -0.01241022 -0.01169510
v 0.01511216 -0.00847292 -0.01057030
v 0.01365143 -0.00850463 -0.01122390
v 0.01850813 -0.00152147 -0.00788390
v 0.02058809 -0.00172573 -0.00595040
v 0.01921010 0.00050002 -0.00733540
v 0.01511216 -0.00847292 -0.01057030
v 0.01665306 -0.00851333 -0.00972640
v 0.01720613 -0.00460094 -0.00896170
v 0.01511216 -0.00847292 -0.01057030
v 0.01720613 -0.00460094 -0.00896170
v 0.01530689 -0.00317258 -0.00994810
v 0.02089107 -0.00461775 -0.00570830
v 0.02219426 -0.00328624 -0.00390450
v 0.02058809 -0.00172573 -0.00595040
v 0.01027542 -0.00831157 -0.01224510
v 0.00911891 -0.00513148 -0.01214670
v 0.00911748 -0.00813121 -0.01247550
v 0.01717239 -0.01695305 -0.01151400
v 0.01897919 -0.01697528 -0.01030030
v 0.01819068 -0.01500833 -0.01019190
v 0.02156031 -0.00854653 -0.00538710
v 0.02296257 -0.00426656 -0.00279150
v 0.02219426 -0.00328624 -0.00390450
v 0.01850813 -0.00152147 -0.00788390
v 0.01921010 0.00050002 -0.00733540
v 0.01714164 0.00049672 -0.00884370
v 0.00911504 -0.00245893 -0.01198300
v 0.01068145 -0.00316340 -0.01164190
v 0.00900113 0.00049999 -0.01202360
v 0.01717239 -0.01695305 -0.01151400
v 0.01819068 -0.01500833 -0.01019190
v 0.01606303 -0.01596868 -0.01180960
v 0.02156031 -0.00854653 -0.00538710
v 0.02300930 -0.00804150 -0.00327130
v 0.02296257 -0.00426656 -0.00279150
v 0.01437211 -0.01493024 -0.01232420
v 0.01606303 -0.01596868 -0.01180960
v 0.01651060 -0.01247656 -0.01059020
v 0.01926511 -0.00456500 -0.00736810
v 0.02089107 -0.00461775 -0.00570830
v 0.02058809 -0.00172573 -0.00595040
v 0.01437211 -0.01493024 -0.01232420
v 0.01651060 -0.01247656 -0.01059020
v 0.01434397 -0.01241022 -0.01169510
v 0.01196837 -0.01385349 -0.01287040
v 0.01434397 -0.01241022 -0.01169510
v 0.01365143 -0.00850463 -0.01122390
v 0.01196837 -0.01385349 -0.01287040
v 0.01365143 -0.00850463 -0.01122390
v 0.01201200 -0.00870198 -0.01183020
v 0.01813668 -0.01242464 -0.00951490
v 0.01989758 -0.01250088 -0.00807830
v 0.02006900 -0.00849342 -0.00704350
v 0.01813668 -0.01242464 -0.00951490
v 0.02006900 -0.00849342 -0.00704350
v 0.01826417 -0.00843429 -0.00862040
v 0.01757121 -0.01829642 -0.01182880
v 0.01976907 -0.01828289 -0.01026210
v 0.01897919 -0.01697528 -0.01030030
v 0.02149415 -0.01824837 -0.00865300
v 0.02348423 -0.01689571 -0.00559630
v 0.02212083 -0.01506066 -0.00651900
v 0.02156031 -0.00854653 -0.00538710
v 0.02219426 -0.00328624 -0.00390450
v 0.02089107 -0.00461775 -0.00570830
v 0.01926511 -0.00456500 -0.00736810
v 0.02058809 -0.00172573 -0.00595040
v 0.01850813 -0.00152147 -0.00788390
v 0.02011543 -0.01493555 -0.00861380
v 0.02212083 -0.01506066 -0.00651900
v 0.02186143 -0.01249140 -0.00597070
v 0.01757121 -0.01829642 -0.01182880
v 0.01897919 -0.01697528 -0.01030030
v 0.01717239 -0.01695305 -0.01151400
v 0.02006900 -0.00849342 -0.00704350
v 0.02156031 -0.00854653 -0.00538710
v 0.02089107 -0.00461775 -0.00570830
v 0.02156031 -0.00854653 -0.00538710
v 0.02307415 -0.01101964 -0.00386800
v 0.02300930 -0.00804150 -0.00327130
v 0.02348423 -0.01689571 -0.00559630
v 0.02263253 -0.01829314 -0.00744910
v 0.02371037 -0.01836800 -0.00621770
v 0.01530689 -0.00317258 -0.00994810
v 0.01714164 0.00049672 -0.00884370
v 0.01448690 0.00049987 -0.01030020
v 0.01027542 -0.00831157 -0.01224510
v 0.00911748 -0.00813121 -0.01247550
v 0.00911933 -0.01253908 -0.01323550
v 0.01051557 -0.01328164 -0.01311040
v 0.01201200 -0.00870198 -0.01183020
v 0.01027542 -0.00831157 -0.01224510
v 0.01720613 -0.00460094 -0.00896170
v 0.01926511 -0.00456500 -0.00736810
v 0.01850813 -0.00152147 -0.00788390
v 0.02006900 -0.00849342 -0.00704350
v 0.02089107 -0.00461775 -0.00570830
v 0.01926511 -0.00456500 -0.00736810
v 0.01989758 -0.01250088 -0.00807830
v 0.01363778 -0.01683408 -0.01319310
v 0.01606303 -0.01596868 -0.01180960
v 0.01437211 -0.01493024 -0.01232420
v 0.01365143 -0.00850463 -0.01122390
v 0.01530689 -0.00317258 -0.00994810
v 0.01368016 -0.00346386 -0.01069790
v 0.01365143 -0.00850463 -0.01122390
v 0.01511216 -0.00847292 -0.01057030
v 0.01530689 -0.00317258 -0.00994810
v 0.01051557 -0.01328164 -0.01311040
v 0.01027542 -0.00831157 -0.01224510
v 0.00911933 -0.01253908 -0.01323550
v 0.01543498 -0.01823526 -0.01293050
v 0.01717239 -0.01695305 -0.01151400
v 0.01606303 -0.01596868 -0.01180960
v 0.01543498 -0.01823526 -0.01293050
v 0.01757121 -0.01829642 -0.01182880
v 0.01717239 -0.01695305 -0.01151400
v 0.01720613 -0.00460094 -0.00896170
v 0.01850813 -0.00152147 -0.00788390
v 0.01714164 0.00049672 -0.00884370
v 0.01051557 -0.01328164 -0.01311040
v 0.01196837 -0.01385349 -0.01287040
v 0.01201200 -0.00870198 -0.01183020
v 0.01196837 -0.01385349 -0.01287040
v 0.01437211 -0.01493024 -0.01232420
v 0.01434397 -0.01241022 -0.01169510
v 0.01826417 -0.00843429 -0.00862040
v 0.02006900 -0.00849342 -0.00704350
v 0.01926511 -0.00456500 -0.00736810
v 0.02186143 -0.01249140 -0.00597070
v 0.02307415 -0.01101964 -0.00386800
v 0.02156031 -0.00854653 -0.00538710
v 0.02186143 -0.01249140 -0.00597070
v 0.02314561 -0.01451712 -0.00489810
v 0.02307415 -0.01101964 -0.00386800
v 0.02065515 -0.01699632 -0.00888660
v 0.02212083 -0.01506066 -0.00651900
v 0.02011543 -0.01493555 -0.00861380
v 0.02065515 -0.01699632 -0.00888660
v 0.02149415 -0.01824837 -0.00865300
v 0.02212083 -0.01506066 -0.00651900
v 0.01543498 -0.01823526 -0.01293050
v 0.01606303 -0.01596868 -0.01180960
v 0.01363778 -0.01683408 -0.01319310
v 0.01368016 -0.00346386 -0.01069790
v 0.01530689 -0.00317258 -0.00994810
v 0.01448690 0.00049987 -0.01030020
v 0.02263253 -0.01829314 -0.00744910
v 0.02348423 -0.01689571 -0.00559630
v 0.02149415 -0.01824837 -0.00865300
v 0.01651060 -0.01247656 -0.01059020
v 0.01813668 -0.01242464 -0.00951490
v 0.01826417 -0.00843429 -0.00862040
v 0.01651060 -0.01247656 -0.01059020
v 0.01826417 -0.00843429 -0.00862040
v 0.01665306 -0.00851333 -0.00972640
v 0.01363778 -0.01683408 -0.01319310
v 0.01437211 -0.01493024 -0.01232420
v 0.01196837 -0.01385349 -0.01287040
v 0.01530689 -0.00317258 -0.00994810
v 0.01720613 -0.00460094 -0.00896170
v 0.01714164 0.00049672 -0.00884370
v 0.01201200 -0.00870198 -0.01183020
v 0.01368016 -0.00346386 -0.01069790
v 0.01216781 -0.00344700 -0.01123720
v 0.01365143 -0.00850463 -0.01122390
v 0.01318240 -0.01828706 -0.01385470
v 0.01543498 -0.01823526 -0.01293050
v 0.01363778 -0.01683408 -0.01319310
v 0.01826417 -0.00843429 -0.00862040
v 0.01926511 -0.00456500 -0.00736810
v 0.01720613 -0.00460094 -0.00896170
v 0.02654790 -0.01822513 -0.01302470
v 0.02712661 -0.01826417 -0.01534060
v 0.02707690 -0.01278603 -0.01537170
v 0.02654790 -0.01822513 -0.01302470
v 0.02707690 -0.01278603 -0.01537170
v 0.02620226 -0.01463097 -0.01186620
v 0.02580434 -0.00639182 -0.00990720
v 0.02694112 0.00049997 -0.01454590
v 0.02561748 0.00050003 -0.00791780
v 0.03040421 -0.01819491 -0.02414359
v 0.02951920 -0.01407897 -0.02211650
v 0.02949082 -0.01818943 -0.02207114
v 0.02526468 -0.01574194 -0.00588690
v 0.02556699 -0.01507729 -0.00836400
v 0.02505505 -0.01125526 -0.00456850
v 0.02586537 -0.01819831 -0.00959180
v 0.02620226 -0.01463097 -0.01186620
v 0.02556699 -0.01507729 -0.00836400
v 0.02510464 0.00049865 -0.00282720
v 0.02530843 -0.00534570 -0.00663800
v 0.02561748 0.00050003 -0.00791780
v 0.02620226 -0.01463097 -0.01186620
v 0.02653020 -0.00777209 -0.01332040
v 0.02580434 -0.00639182 -0.00990720
v 0.02586537 -0.01819831 -0.00959180
v 0.02654790 -0.01822513 -0.01302470
v 0.02620226 -0.01463097 -0.01186620
v 0.02580434 -0.00639182 -0.00990720
v 0.02653020 -0.00777209 -0.01332040
v 0.02694112 0.00049997 -0.01454590
v 0.02500146 -0.00498027 -0.00333860
v 0.02530843 -0.00534570 -0.00663800
v 0.02510464 0.00049865 -0.00282720
v 0.02863991 -0.00373900 -0.01986530
v 0.02859795 -0.00109994 -0.01973790
v 0.02842533 -0.00109148 -0.01926950
v 0.02832639 -0.00094131 -0.01900580
v 0.02779960 -0.01821386 -0.01749970
v 0.02857184 -0.01824486 -0.01978710
v 0.02707690 -0.01278603 -0.01537170
v 0.02857184 -0.01824486 -0.01978710
v 0.02951920 -0.01407897 -0.02211650
v 0.02888149 -0.00827181 -0.02051990
v 0.02586537 -0.01819831 -0.00959180
v 0.02556699 -0.01507729 -0.00836400
v 0.02526468 -0.01574194 -0.00588690
v 0.02545320 -0.01825660 -0.00688070
v 0.02586537 -0.01819831 -0.00959180
v 0.02526468 -0.01574194 -0.00588690
v 0.02694112 0.00049997 -0.01454590
v 0.02832639 -0.00094131 -0.01900580
v 0.02832150 0.00050007 -0.01898710
v 0.02530843 -0.00534570 -0.00663800
v 0.02580434 -0.00639182 -0.00990720
v 0.02561748 0.00050003 -0.00791780
v 0.02505505 -0.01125526 -0.00456850
v 0.02530843 -0.00534570 -0.00663800
v 0.02500146 -0.00498027 -0.00333860
v 0.02857184 -0.01824486 -0.01978710
v 0.02832639 -0.00094131 -0.01900580
v 0.02620226 -0.01463097 -0.01186620
v 0.02653020 -0.00777209 -0.01332040
v 0.02857184 -0.01824486 -0.01978710
v 0.02888149 -0.00827181 -0.02051990
v 0.02863991 -0.00373900 -0.01986530
v 0.02707690 -0.01278603 -0.01537170
v 0.02832639 -0.00094131 -0.01900580
v 0.02694112 0.00049997 -0.01454590
v 0.02949082 -0.01818943 -0.02207114
v 0.02556699 -0.01507729 -0.00836400
v 0.02620226 -0.01463097 -0.01186620
v 0.02580434 -0.00639182 -0.00990720
v 0.02556699 -0.01507729 -0.00836400
v 0.02580434 -0.00639182 -0.00990720
v 0.02530843 -0.00534570 -0.00663800
v 0.02653020 -0.00777209 -0.01332040
v 0.02707690 -0.01278603 -0.01537170
v 0.02694112 0.00049997 -0.01454590
v 0.02505505 -0.01125526 -0.00456850
v 0.02556699 -0.01507729 -0.00836400
v 0.02530843 -0.00534570 -0.00663800
v 0.02712661 -0.01826417 -0.01534060
v 0.02779960 -0.01821386 -0.01749970
v 0.02707690 -0.01278603 -0.01537170
v 0.02186620 -0.01837402 -0.00849600
v 0.02031010 -0.01838690 -0.01001480
v 0.02573519 -0.01837635 -0.00973220
v 0.02927345 -0.01836305 -0.02187504
v 0.02836716 -0.01839697 -0.02288754
v 0.03025126 -0.01836812 -0.02411665
v 0.02513867 -0.01839143 -0.00660060
v 0.02186620 -0.01837402 -0.00849600
v 0.02573519 -0.01837635 -0.00973220
v 0.02573519 -0.01837635 -0.00973220
v 0.02031010 -0.01838690 -0.01001480
v 0.02652215 -0.01838326 -0.01361190
v 0.02927345 -0.01836305 -0.02187504
v 0.02357929 -0.01839751 -0.02043490
v 0.02836716 -0.01839697 -0.02288754
v 0.02927345 -0.01836305 -0.02187504
v 0.02737319 -0.01837939 -0.01668000
v 0.02357929 -0.01839751 -0.02043490
v 0.01760375 -0.01837629 -0.01195700
v 0.02737319 -0.01837939 -0.01668000
v 0.02357929 -0.01839751 -0.02043490
v 0.01803880 -0.01840019 -0.01824980
v 0.02513867 -0.01839143 -0.00660060
v 0.02371037 -0.01836800 -0.00621770
v 0.02186620 -0.01837402 -0.00849600
v 0.02472305 -0.01834601 -0.00612220
v 0.02371037 -0.01836800 -0.00621770
v 0.02513867 -0.01839143 -0.00660060
v 0.01413244 -0.01837337 -0.01365660
v 0.01150006 -0.01837432 -0.01652320
v 0.01150006 -0.01837432 -0.01652320
v 0.01413244 -0.01837337 -0.01365660
v 0.01148492 -0.01832944 -0.01438570
v 0.03025126 -0.01836812 -0.02411665
v 0.02836716 -0.01839697 -0.02288754
v 0.03040421 -0.01819491 -0.02414359
v 0.01058495 -0.01806306 -0.01459080
v 0.01150006 -0.01837432 -0.01652320
v 0.01148492 -0.01832944 -0.01438570
v 0.01058495 -0.01806306 -0.01459080
v 0.01025146 -0.01785951 -0.01613120
v 0.01150006 -0.01837432 -0.01652320
v 0.00980836 -0.01746672 -0.01456190
v 0.00946218 -0.01700592 -0.01572640
v 0.01025146 -0.01785951 -0.01613120
v 0.00980836 -0.01746672 -0.01456190
v 0.01025146 -0.01785951 -0.01613120
v 0.01058495 -0.01806306 -0.01459080
v 0.00922990 -0.01660436 -0.01441760
v 0.00946218 -0.01700592 -0.01572640
v 0.00980836 -0.01746672 -0.01456190
v 0.00922990 -0.01660436 -0.01441760
v 0.00904047 -0.01602751 -0.01537870
v 0.00946218 -0.01700592 -0.01572640
v 0.00901008 -0.01571422 -0.01414010
v 0.00904047 -0.01602751 -0.01537870
v 0.00922990 -0.01660436 -0.01441760
v 0.00900990 -0.00429732 -0.01220220
v 0.00900745 -0.00959957 -0.01281140
v 0.00911748 -0.00813121 -0.01247550
v 0.00900990 -0.00429732 -0.01220220
v 0.00911504 -0.00245893 -0.01198300
v 0.00900113 0.00049999 -0.01202360
v 0.00911933 -0.01253908 -0.01323550
v 0.00901008 -0.01571422 -0.01414010
v 0.00921899 -0.01621264 -0.01412690
v 0.00900990 -0.00429732 -0.01220220
v 0.00911891 -0.00513148 -0.01214670
v 0.00911504 -0.00245893 -0.01198300
v 0.00900745 -0.00959957 -0.01281140
v 0.00901008 -0.01571422 -0.01414010
v 0.00911933 -0.01253908 -0.01323550
v 0.00900745 -0.00959957 -0.01281140
v 0.00911933 -0.01253908 -0.01323550
v 0.00911748 -0.00813121 -0.01247550
v 0.00900990 -0.00429732 -0.01220220
v 0.00911748 -0.00813121 -0.01247550
v 0.00911891 -0.00513148 -0.01214670
v 0.00921899 -0.01621264 -0.01412690
v 0.00901008 -0.01571422 -0.01414010
v 0.00922990 -0.01660436 -0.01441760
v 0.00968045 -0.01712369 -0.01431880
v 0.00921899 -0.01621264 -0.01412690
v 0.00922990 -0.01660436 -0.01441760
v 0.00968045 -0.01712369 -0.01431880
v 0.00922990 -0.01660436 -0.01441760
v 0.00980836 -0.01746672 -0.01456190
v 0.01033169 -0.01780605 -0.01442890
v 0.00968045 -0.01712369 -0.01431880
v 0.00980836 -0.01746672 -0.01456190
v 0.01058495 -0.01806306 -0.01459080
v 0.01033169 -0.01780605 -0.01442890
v 0.00980836 -0.01746672 -0.01456190
v 0.01148492 -0.01832944 -0.01438570
v 0.01033169 -0.01780605 -0.01442890
v 0.01058495 -0.01806306 -0.01459080
v 0.02263253 -0.01829314 -0.00744910
v 0.02186620 -0.01837402 -0.00849600
v 0.02371037 -0.01836800 -0.00621770
v 0.01543498 -0.01823526 -0.01293050
v 0.01413244 -0.01837337 -0.01365660
v 0.01760375 -0.01837629 -0.01195700
v 0.01413244 -0.01837337 -0.01365660
v 0.01318240 -0.01828706 -0.01385470
v 0.01148492 -0.01832944 -0.01438570
v 0.01413244 -0.01837337 -0.01365660
v 0.01543498 -0.01823526 -0.01293050
v 0.01318240 -0.01828706 -0.01385470
v 0.02149415 -0.01824837 -0.00865300
v 0.02186620 -0.01837402 -0.00849600
v 0.02263253 -0.01829314 -0.00744910
v 0.01760375 -0.01837629 -0.01195700
v 0.01757121 -0.01829642 -0.01182880
v 0.01543498 -0.01823526 -0.01293050
v 0.01760375 -0.01837629 -0.01195700
v 0.02031010 -0.01838690 -0.01001480
v 0.01976907 -0.01828289 -0.01026210
v 0.01976907 -0.01828289 -0.01026210
v 0.02031010 -0.01838690 -0.01001480
v 0.02186620 -0.01837402 -0.00849600
v 0.02186620 -0.01837402 -0.00849600
v 0.02149415 -0.01824837 -0.00865300
v 0.01976907 -0.01828289 -0.01026210
v 0.01976907 -0.01828289 -0.01026210
v 0.01757121 -0.01829642 -0.01182880
v 0.01760375 -0.01837629 -0.01195700
v 0.02545320 -0.01825660 -0.00688070
v 0.02518755 -0.01823920 -0.00637890
v 0.02513867 -0.01839143 -0.00660060
v 0.02518755 -0.01823920 -0.00637890
v 0.02472305 -0.01834601 -0.00612220
v 0.02513867 -0.01839143 -0.00660060
v 0.02416658 -0.01829338 -0.00598310
v 0.02371037 -0.01836800 -0.00621770
v 0.02472305 -0.01834601 -0.00612220
v 0.02712661 -0.01826417 -0.01534060
v 0.02654790 -0.01822513 -0.01302470
v 0.02652215 -0.01838326 -0.01361190
v 0.02712661 -0.01826417 -0.01534060
v 0.02652215 -0.01838326 -0.01361190
v 0.02737319 -0.01837939 -0.01668000
v 0.02779960 -0.01821386 -0.01749970
v 0.02712661 -0.01826417 -0.01534060
v 0.02737319 -0.01837939 -0.01668000
v 0.02857184 -0.01824486 -0.01978710
v 0.02779960 -0.01821386 -0.01749970
v 0.02737319 -0.01837939 -0.01668000
v 0.02857184 -0.01824486 -0.01978710
v 0.02737319 -0.01837939 -0.01668000
v 0.02927345 -0.01836305 -0.02187504
v 0.03025126 -0.01836812 -0.02411665
v 0.03040421 -0.01819491 -0.02414359
v 0.02927345 -0.01836305 -0.02187504
v 0.02573519 -0.01837635 -0.00973220
v 0.02545320 -0.01825660 -0.00688070
v 0.02513867 -0.01839143 -0.00660060
v 0.02586537 -0.01819831 -0.00959180
v 0.02545320 -0.01825660 -0.00688070
v 0.02573519 -0.01837635 -0.00973220
v 0.02652215 -0.01838326 -0.01361190
v 0.02654790 -0.01822513 -0.01302470
v 0.02573519 -0.01837635 -0.00973220
v 0.02654790 -0.01822513 -0.01302470
v 0.02586537 -0.01819831 -0.00959180
v 0.02573519 -0.01837635 -0.00973220
v 0.02927345 -0.01836305 -0.02187504
v 0.02949082 -0.01818943 -0.02207114
v 0.02857184 -0.01824486 -0.01978710
v 0.02927345 -0.01836305 -0.02187504
v 0.03040421 -0.01819491 -0.02414359
v 0.02949082 -0.01818943 -0.02207114
v 0.00900137 -0.00101155 -0.01270570
v 0.00899982 0.00050000 -0.01265420
v 0.00899994 0.00050000 -0.01265430
vn -0.99999603 -0.00190383 0.00207939
vn -0.99999603 -0.00190383 0.00207939
vn -0.99999603 -0.00190383 0.00207939
vn -0.99996203 -0.00127255 0.00862141
vn -0.99994454 -0.00111588 0.01047254
vn -0.99996411 -0.00131101 0.00837045
vn -0.99995306 -0.00213695 0.00945008
vn -0.99994914 -0.00254926 0.00975796
vn -0.99996803 -0.00079908 0.00795627
vn -0.99971152 -0.00260545 -0.02387644
vn -0.99971152 -0.00260545 -0.02387644
vn -0.99971152 -0.00260545 -0.02387644
vn -0.99999922 0.00122560 -0.00023405
vn -0.99999922 0.00122560 -0.00023405
vn -0.99999922 0.00122560 -0.00023405
vn -0.99994201 -0.00111480 0.01071162
vn 0.71833854 -0.00930555 0.69563147
vn 0.71833854 -0.00930555 0.69563147
vn 0.71833854 -0.00930555 0.69563147
vn -0.34985528 -0.07561951 0.93374674
vn -0.34985528 -0.07561951 0.93374674
vn -0.34985528 -0.07561951 0.93374674
vn -0.58776742 -0.17122470 0.79070320
vn -0.58776742 -0.17122470 0.79070320
vn -0.58776742 -0.17122470 0.79070320
vn 0.82880827 -0.11454754 0.54768213
vn 0.82880827 -0.11454754 0.54768213
vn 0.82880827 -0.11454754 0.54768213
vn 0.69425844 -0.16872637 0.69966895
vn 0.69425844 -0.16872637 0.69966895
vn 0.69425844 -0.16872637 0.69966895
vn 0.91120172 -0.09051825 0.40189287
vn 0.91120172 -0.09051825 0.40189287
vn 0.91120172 -0.09051825 0.40189287
vn 0.87493572 -0.12602420 0.46755254
vn 0.87493572 -0.12602420 0.46755254
vn 0.87493572 -0.12602420 0.46755254
vn 0.51341011 -0.30546528 0.80193580
vn 0.51341011 -0.30546528 0.80193580
vn 0.51341011 -0.30546528 0.80193580
vn 0.19010978 -0.38118499 0.90474100
vn 0.19010978 -0.38118499 0.90474100
vn 0.19010978 -0.38118499 0.90474100
vn -0.56327000 -0.08125231 0.82226819
vn -0.56327000 -0.08125231 0.82226819
vn -0.56327000 -0.08125231 0.82226819
vn 0.45612029 -0.31492374 0.83233246
vn 0.45612029 -0.31492374 0.83233246
vn 0.45612029 -0.31492374 0.83233246
vn -0.31034591 -0.39127394 0.86636604
vn -0.31034591 -0.39127394 0.86636604
vn -0.31034591 -0.39127394 0.86636604
vn 0.12864741 -0.37953391 0.91618986
vn 0.12864741 -0.37953391 0.91618986
vn 0.12864741 -0.37953391 0.91618986
vn -0.36348587 -0.40908359 0.83697589
vn -0.36348587 -0.40908359 0.83697589
vn -0.36348587 -0.40908359 0.83697589
vn 0.37416537 -0.04866250 0.92608436
vn 0.37416537 -0.04866250 0.92608436
vn 0.37416537 -0.04866250 0.92608436
vn 0.00669362 -0.34391368 0.93897741
vn 0.00669362 -0.34391368 0.93897741
vn 0.00669362 -0.34391368 0.93897741
vn -0.15863575 -0.34295876 0.92585851
vn -0.15863575 -0.34295876 0.92585851
vn -0.15863575 -0.34295876 0.92585851
vn -0.57443687 -0.30477504 0.75969366
vn -0.57443687 -0.30477504 0.75969366
vn -0.57443687 -0.30477504 0.75969366
vn 0.96127473 -0.03539764 0.27330917
vn 0.96127473 -0.03539764 0.27330917
vn 0.96127473 -0.03539764 0.27330917
vn 0.92563787 -0.06887776 0.37208923
vn 0.92563787 -0.06887776 0.37208923
vn 0.92563787 -0.06887776 0.37208923
vn 0.43727376 -0.24466571 0.86540762
vn 0.43727376 -0.24466571 0.86540762
vn 0.43727376 -0.24466571 0.86540762
vn 0.22925029 -0.27083252 0.93492997
vn 0.22925029 -0.27083252 0.93492997
vn 0.22925029 -0.27083252 0.93492997
vn 0.66083352 -0.18591367 0.72714178
vn 0.66083352 -0.18591367 0.72714178
vn 0.66083352 -0.18591367 0.72714178
vn -0.18953803 -0.28558831 0.93942251
vn -0.18953803 -0.28558831 0.93942251
vn -0.18953803 -0.28558831 0.93942251
vn 0.31518697 -0.25507105 0.91410937
vn 0.31518697 -0.25507105 0.91410937
vn 0.31518697 -0.25507105 0.91410937
vn 0.58696571 -0.14419440 0.79666758
vn 0.58696571 -0.14419440 0.79666758
vn 0.58696571 -0.14419440 0.79666758
vn -0.12106500 -0.27685678 0.95325421
vn -0.12106500 -0.27685678 0.95325421
vn -0.12106500 -0.27685678 0.95325421
vn -0.54306338 -0.24673996 0.80262168
vn -0.54306338 -0.24673996 0.80262168
vn -0.54306338 -0.24673996 0.80262168
vn -0.54781174 -0.24664311 0.79941821
vn -0.54781174 -0.24664311 0.79941821
vn -0.54781174 -0.24664311 0.79941821
vn 0.10519179 -0.10327524 0.98907478
vn 0.10519179 -0.10327524 0.98907478
vn 0.10519179 -0.10327524 0.98907478
vn -0.03661909 -0.08798251 0.99544870
vn -0.03661909 -0.08798251 0.99544870
vn -0.03661909 -0.08798251 0.99544870
vn -0.23947936 -0.09160665 0.96657015
vn -0.23947936 -0.09160665 0.96657015
vn -0.23947936 -0.09160665 0.96657015
vn 0.68365629 -0.12537484 0.71895426
vn 0.68365629 -0.12537484 0.71895426
vn 0.68365629 -0.12537484 0.71895426
vn 0.58357061 -0.16487475 0.79514883
vn 0.58357061 -0.16487475 0.79514883
vn 0.58357061 -0.16487475 0.79514883
vn 0.72237884 -0.07020966 0.68792399
vn 0.72237884 -0.07020966 0.68792399
vn 0.72237884 -0.07020966 0.68792399
vn 0.18278190 -0.18207437 0.96614683
vn 0.18278190 -0.18207437 0.96614683
vn 0.18278190 -0.18207437 0.96614683
vn 0.94347491 -0.05597275 0.32668357
vn 0.94347491 -0.05597275 0.32668357
vn 0.94347491 -0.05597275 0.32668357
vn 0.40672397 -0.06438320 0.91127955
vn 0.40672397 -0.06438320 0.91127955
vn 0.40672397 -0.06438320 0.91127955
vn 0.90411671 -0.06198954 0.42276502
vn 0.90411671 -0.06198954 0.42276502
vn 0.90411671 -0.06198954 0.42276502
vn -0.30469112 -0.01370273 0.95235264
vn -0.30469112 -0.01370273 0.95235264
vn -0.30469112 -0.01370273 0.95235264
vn 0.13545318 -0.15770377 0.97815232
vn 0.13545318 -0.15770377 0.97815232
vn 0.13545318 -0.15770377 0.97815232
vn 0.12820684 -0.15965996 0.97881137
vn 0.12820684 -0.15965996 0.97881137
vn 0.12820684 -0.15965996 0.97881137
vn 0.69848623 -0.10698817 0.70758075
vn 0.69848623 -0.10698817 0.70758075
vn 0.69848623 -0.10698817 0.70758075
vn -0.50371370 -0.13268564 0.85361996
vn -0.50371370 -0.13268564 0.85361996
vn -0.50371370 -0.13268564 0.85361996
vn -0.22619814 -0.15244927 0.96207776
vn -0.22619814 -0.15244927 0.96207776
vn -0.22619814 -0.15244927 0.96207776
vn -0.27967240 -0.14452085 0.94915598
vn -0.27967240 -0.14452085 0.94915598
vn -0.27967240 -0.14452085 0.94915598
vn -0.60152959 -0.10804726 0.79150991
vn -0.60152959 -0.10804726 0.79150991
vn -0.60152959 -0.10804726 0.79150991
vn 0.29151513 -0.23446081 0.92738722
vn 0.29151513 -0.23446081 0.92738722
vn 0.29151513 -0.23446081 0.92738722
vn 0.12121944 -0.21263768 0.96958293
vn 0.12121944 -0.21263768 0.96958293
vn 0.12121944 -0.21263768 0.96958293
vn 0.79204026 -0.05390694 0.60808410
vn 0.79204026 -0.05390694 0.60808410
vn 0.79204026 -0.05390694 0.60808410
vn -0.40551621 -0.03126021 0.91355317
vn -0.40551621 -0.03126021 0.91355317
vn -0.40551621 -0.03126021 0.91355317
vn -0.12418699 -0.23346822 0.96440146
vn -0.12418699 -0.23346822 0.96440146
vn -0.12418699 -0.23346822 0.96440146
vn -0.24633468 -0.22040527 0.94379062
vn -0.24633468 -0.22040527 0.94379062
vn -0.24633468 -0.22040527 0.94379062
vn 0.49264319 -0.11077212 0.86315249
vn 0.49264319 -0.11077212 0.86315249
vn 0.49264319 -0.11077212 0.86315249
vn 0.37246628 -0.08838553 0.92382729
vn 0.37246628 -0.08838553 0.92382729
vn 0.37246628 -0.08838553 0.92382729
vn -0.46527194 -0.21286099 0.85919277
vn -0.46527194 -0.21286099 0.85919277
vn -0.46527194 -0.21286099 0.85919277
vn -0.01889257 -0.06010052 0.99801353
vn -0.01889257 -0.06010052 0.99801353
vn -0.01889257 -0.06010052 0.99801353
vn 0.66891990 -0.10397426 0.73602685
vn 0.66891990 -0.10397426 0.73602685
vn 0.66891990 -0.10397426 0.73602685
vn -0.04817987 -0.04327600 0.99790074
vn -0.04817987 -0.04327600 0.99790074
vn -0.04817987 -0.04327600 0.99790074
vn -0.74622900 -0.01754363 0.66545811
vn -0.74622900 -0.01754363 0.66545811
vn -0.74622900 -0.01754363 0.66545811
vn 0.74366275 -0.19210953 0.64035899
vn 0.74366275 -0.19210953 0.64035899
vn 0.74366275 -0.19210953 0.64035899
vn 0.38842822 -0.07664385 0.91828603
vn 0.38842822 -0.07664385 0.91828603
vn 0.38842822 -0.07664385 0.91828603
vn 0.17608739 -0.02544354 0.98404566
vn 0.17608739 -0.02544354 0.98404566
vn 0.17608739 -0.02544354 0.98404566
vn -0.31553590 -0.36490884 0.87594442
vn -0.31553590 -0.36490884 0.87594442
vn -0.31553590 -0.36490884 0.87594442
vn 0.90925529 -0.05562628 0.41250519
vn 0.90925529 -0.05562628 0.41250519
vn 0.90925529 -0.05562628 0.41250519
vn -0.27254718 -0.25315003 0.92824194
vn -0.27254718 -0.25315003 0.92824194
vn -0.27254718 -0.25315003 0.92824194
vn -0.62345508 -0.21034752 0.75303233
vn -0.62345508 -0.21034752 0.75303233
vn -0.62345508 -0.21034752 0.75303233
vn -0.61323989 -0.22162949 0.75816700
vn -0.61323989 -0.22162949 0.75816700
vn -0.61323989 -0.22162949 0.75816700
vn -0.79574560 -0.20217201 0.57089003
vn -0.79574560 -0.20217201 0.57089003
vn -0.79574560 -0.20217201 0.57089003
vn -0.23796480 -0.05972386 0.96943582
vn -0.23796480 -0.05972386 0.96943582
vn -0.23796480 -0.05972386 0.96943582
vn -0.25641052 -0.26080760 0.93071641
vn -0.25641052 -0.26080760 0.93071641
vn -0.25641052 -0.26080760 0.93071641
vn -0.56134770 -0.08161241 0.82354610
vn -0.56134770 -0.08161241 0.82354610
vn -0.56134770 -0.08161241 0.82354610
vn -0.33602200 -0.02607489 0.94149313
vn -0.33602200 -0.02607489 0.94149313
vn -0.33602200 -0.02607489 0.94149313
vn -0.34499320 -0.02006707 0.93839065
vn -0.34499320 -0.02006707 0.93839065
vn -0.34499320 -0.02006707 0.93839065
vn -0.21047036 -0.23591515 0.94870768
vn -0.21047036 -0.23591515 0.94870768
vn -0.21047036 -0.23591515 0.94870768
vn -0.62433502 -0.26097901 0.73627151
vn -0.62433502 -0.26097901 0.73627151
vn -0.62433502 -0.26097901 0.73627151
vn -0.73817843 -0.13888888 0.66015338
vn -0.73817843 -0.13888888 0.66015338
vn -0.73817843 -0.13888888 0.66015338
vn -0.72244542 -0.15483791 0.67386781
vn -0.72244542 -0.15483791 0.67386781
vn -0.72244542 -0.15483791 0.67386781
vn -0.24039208 -0.33884020 0.90961474
vn -0.24039208 -0.33884020 0.90961474
vn -0.24039208 -0.33884020 0.90961474
vn -0.25263105 -0.10109655 0.96226662
vn -0.25263105 -0.10109655 0.96226662
vn -0.25263105 -0.10109655 0.96226662
vn -0.27762281 -0.09016907 0.95644922
vn -0.27762281 -0.09016907 0.95644922
vn -0.27762281 -0.09016907 0.95644922
vn -0.26683883 -0.02231721 0.96348273
vn -0.26702846 -0.02222888 0.96343224
vn -0.26716708 -0.02216431 0.96339529
vn -0.25047998 -0.48263629 0.83923894
vn -0.25047998 -0.48263629 0.83923894
vn -0.25047998 -0.48263629 0.83923894
vn -0.47772899 -0.15388227 0.86492500
vn -0.47772899 -0.15388227 0.86492500
vn -0.47772899 -0.15388227 0.86492500
vn -0.45156754 -0.17447943 0.87501068
vn -0.45156754 -0.17447943 0.87501068
vn -0.45156754 -0.17447943 0.87501068
vn -0.13142149 -0.27242749 0.95315878
vn -0.13142149 -0.27242749 0.95315878
vn -0.13142149 -0.27242749 0.95315878
vn -0.64681871 -0.30284553 0.69993581
vn -0.64681871 -0.30284553 0.69993581
vn -0.64681871 -0.30284553 0.69993581
vn -0.10575374 -0.25596739 0.96088337
vn -0.10575374 -0.25596739 0.96088337
vn -0.10575374 -0.25596739 0.96088337
vn -0.60181257 -0.28242332 0.74703326
vn -0.60181257 -0.28242332 0.74703326
vn -0.60181257 -0.28242332 0.74703326
vn -0.81992582 -0.00727488 0.57242356
vn -0.81992582 -0.00727488 0.57242356
vn -0.81992582 -0.00727488 0.57242356
vn -0.82435806 -0.00340750 0.56605845
vn -0.82435806 -0.00340750 0.56605845
vn -0.82435806 -0.00340750 0.56605845
vn -0.77776778 0.02298379 0.62813138
vn -0.77776778 0.02298379 0.62813138
vn -0.77776778 0.02298379 0.62813138
vn -0.19029733 -0.09942658 0.97667870
vn -0.19029733 -0.09942658 0.97667870
vn -0.19029733 -0.09942658 0.97667870
vn -0.76670734 -0.27888873 0.57825680
vn -0.76670734 -0.27888873 0.57825680
vn -0.76670734 -0.27888873 0.57825680
vn -0.72046893 -0.01461553 0.69333319
vn -0.72046893 -0.01461553 0.69333319
vn -0.72046893 -0.01461553 0.69333319
vn -0.53360779 -0.21703916 0.81740854
vn -0.53360779 -0.21703916 0.81740854
vn -0.53360779 -0.21703916 0.81740854
vn -0.52276621 -0.22628692 0.82189399
vn -0.52276621 -0.22628692 0.82189399
vn -0.52276621 -0.22628692 0.82189399
vn -0.60746359 -0.34605970 0.71500397
vn -0.60746359 -0.34605970 0.71500397
vn -0.60746359 -0.34605970 0.71500397
vn -0.26662599 -0.02241634 0.96353935
vn -0.39856897 -0.17919338 0.89946235
vn -0.39856897 -0.17919338 0.89946235
vn -0.39856897 -0.17919338 0.89946235
vn -0.67846939 0.03651841 0.73372044
vn -0.67846939 0.03651841 0.73372044
vn -0.67846939 0.03651841 0.73372044
vn -0.47988638 -0.10246699 0.87132633
vn -0.47988638 -0.10246699 0.87132633
vn -0.47988638 -0.10246699 0.87132633
vn -0.50726894 -0.08206855 0.85787119
vn -0.50726894 -0.08206855 0.85787119
vn -0.50726894 -0.08206855 0.85787119
vn -0.79830708 -0.03329492 0.60132957
vn -0.79830708 -0.03329492 0.60132957
vn -0.79830708 -0.03329492 0.60132957
vn -0.20996276 -0.10643045 0.97189927
vn -0.20996276 -0.10643045 0.97189927
vn -0.20996276 -0.10643045 0.97189927
vn -0.54052855 -0.26076889 0.79989279
vn -0.54052855 -0.26076889 0.79989279
vn -0.54052855 -0.26076889 0.79989279
vn -0.84196143 -0.04994415 0.53722112
vn -0.84196143 -0.04994415 0.53722112
vn -0.84196143 -0.04994415 0.53722112
vn -0.58910477 -0.01464770 0.80792389
vn -0.58910477 -0.01464770 0.80792389
vn -0.58910477 -0.01464770 0.80792389
vn -0.21049066 0.00531007 0.97758145
vn -0.21049066 0.00531007 0.97758145
vn -0.21049066 0.00531007 0.97758145
vn -0.48667833 -0.30235573 0.81958845
vn -0.48667833 -0.30235573 0.81958845
vn -0.48667833 -0.30235573 0.81958845
vn -0.81280847 -0.08333984 0.57653869
vn -0.81280847 -0.08333984 0.57653869
vn -0.81280847 -0.08333984 0.57653869
vn -0.41954801 -0.25085404 0.87238278
vn -0.41954801 -0.25085404 0.87238278
vn -0.41954801 -0.25085404 0.87238278
vn -0.71451591 -0.01630440 0.69942918
vn -0.71451591 -0.01630440 0.69942918
vn -0.71451591 -0.01630440 0.69942918
vn -0.44841438 -0.22120085 0.86602236
vn -0.44841438 -0.22120085 0.86602236
vn -0.44841438 -0.22120085 0.86602236
vn -0.35021607 -0.17316047 0.92052385
vn -0.35021607 -0.17316047 0.92052385
vn -0.35021607 -0.17316047 0.92052385
vn -0.32123838 -0.18482233 0.92878771
vn -0.32123838 -0.18482233 0.92878771
vn -0.32123838 -0.18482233 0.92878771
vn -0.62740176 -0.16942053 0.76004192
vn -0.62740176 -0.16942053 0.76004192
vn -0.62740176 -0.16942053 0.76004192
vn -0.65364467 -0.14559666 0.74266429
vn -0.65364467 -0.14559666 0.74266429
vn -0.65364467 -0.14559666 0.74266429
vn -0.55060044 -0.30995537 0.77509150
vn -0.55060044 -0.30995537 0.77509150
vn -0.55060044 -0.30995537 0.77509150
vn -0.75421100 -0.25640865 0.60450010
vn -0.75421100 -0.25640865 0.60450010
vn -0.75421100 -0.25640865 0.60450010
vn -0.77828462 -0.08167559 0.62257703
vn -0.77828462 -0.08167559 0.62257703
vn -0.77828462 -0.08167559 0.62257703
vn -0.68255190 -0.04615256 0.72937840
vn -0.68255190 -0.04615256 0.72937840
vn -0.68255190 -0.04615256 0.72937840
vn -0.71338866 -0.21250964 0.66776963
vn -0.71189744 -0.21457940 0.66869852
vn -0.71318231 -0.21279658 0.66789866
vn -0.52743994 -0.33912880 0.77897289
vn -0.52743994 -0.33912880 0.77897289
vn -0.52743994 -0.33912880 0.77897289
vn -0.74238892 -0.07200367 0.66608871
vn -0.74238892 -0.07200367 0.66608871
vn -0.74238892 -0.07200367 0.66608871
vn -0.80242509 -0.13398617 0.58151671
vn -0.80242509 -0.13398617 0.58151671
vn -0.80242509 -0.13398617 0.58151671
vn -0.71195180 -0.36305230 0.60109705
vn -0.71195180 -0.36305230 0.60109705
vn -0.71195180 -0.36305230 0.60109705
vn -0.48089386 -0.02334260 0.87646804
vn -0.48089386 -0.02334260 0.87646804
vn -0.48089386 -0.02334260 0.87646804
vn -0.21724461 -0.16594288 0.96190838
vn -0.21724461 -0.16594288 0.96190838
vn -0.21724461 -0.16594288 0.96190838
vn -0.26631118 -0.17780347 0.94734592
vn -0.26631118 -0.17780347 0.94734592
vn -0.26631118 -0.17780347 0.94734592
vn -0.61176626 -0.01813245 0.79083074
vn -0.61176626 -0.01813245 0.79083074
vn -0.61176626 -0.01813245 0.79083074
vn -0.71295741 -0.08841692 0.69561066
vn -0.71295741 -0.08841692 0.69561066
vn -0.71295741 -0.08841692 0.69561066
vn -0.71472836 -0.21064257 0.66692809
vn -0.41478002 -0.24052664 0.87755597
vn -0.41478002 -0.24052664 0.87755597
vn -0.41478002 -0.24052664 0.87755597
vn -0.40305807 -0.09270851 0.91046654
vn -0.40305807 -0.09270851 0.91046654
vn -0.40305807 -0.09270851 0.91046654
vn -0.40503192 -0.09190549 0.90967166
vn -0.40503192 -0.09190549 0.90967166
vn -0.40503192 -0.09190549 0.90967166
vn -0.18090391 -0.17717009 0.96741125
vn -0.18090391 -0.17717009 0.96741125
vn -0.18090391 -0.17717009 0.96741125
vn -0.47264770 -0.28193498 0.83493522
vn -0.47264770 -0.28193498 0.83493522
vn -0.47264770 -0.28193498 0.83493522
vn -0.44057097 -0.32673692 0.83614604
vn -0.44057097 -0.32673692 0.83614604
vn -0.44057097 -0.32673692 0.83614604
vn -0.60009986 -0.02609892 0.79949922
vn -0.60009986 -0.02609892 0.79949922
vn -0.60009986 -0.02609892 0.79949922
vn -0.23257786 -0.19060706 0.95371719
vn -0.23257786 -0.19060706 0.95371719
vn -0.23257786 -0.19060706 0.95371719
vn -0.31364827 -0.23328016 0.92043747
vn -0.31364827 -0.23328016 0.92043747
vn -0.31364827 -0.23328016 0.92043747
vn -0.65756670 -0.07259693 0.74989047
vn -0.65756670 -0.07259693 0.74989047
vn -0.65756670 -0.07259693 0.74989047
vn -0.80933227 -0.14594565 0.56892982
vn -0.80933227 -0.14594565 0.56892982
vn -0.80933227 -0.14594565 0.56892982
vn -0.78767314 -0.18881786 0.58644594
vn -0.78767314 -0.18881786 0.58644594
vn -0.78767314 -0.18881786 0.58644594
vn -0.70332366 -0.27118723 0.65710982
vn -0.70332366 -0.27118723 0.65710982
vn -0.70332366 -0.27118723 0.65710982
vn -0.66568345 -0.32032863 0.67398451
vn -0.66568345 -0.32032863 0.67398451
vn -0.66568345 -0.32032863 0.67398451
vn -0.37903802 -0.32369190 0.86692199
vn -0.37903802 -0.32369190 0.86692199
vn -0.37903802 -0.32369190 0.86692199
vn -0.41768393 -0.00615100 0.90857157
vn -0.41768393 -0.00615100 0.90857157
vn -0.41768393 -0.00615100 0.90857157
vn -0.66989106 -0.41128071 0.61813765
vn -0.66989106 -0.41128071 0.61813765
vn -0.66989106 -0.41128071 0.61813765
vn -0.54005243 -0.16763094 0.82476860
vn -0.54005243 -0.16763094 0.82476860
vn -0.54005243 -0.16763094 0.82476860
vn -0.55353247 -0.15831070 0.81764266
vn -0.55353247 -0.15831070 0.81764266
vn -0.55353247 -0.15831070 0.81764266
vn -0.33129817 -0.28300736 0.90008242
vn -0.33129817 -0.28300736 0.90008242
vn -0.33129817 -0.28300736 0.90008242
vn -0.47629606 -0.02637043 0.87888945
vn -0.47629606 -0.02637043 0.87888945
vn -0.47629606 -0.02637043 0.87888945
vn -0.33512884 -0.09587984 0.93728102
vn -0.33524150 -0.09583621 0.93724520
vn -0.33528068 -0.09582104 0.93723273
vn -0.33508894 -0.09589528 0.93729371
vn -0.35728251 -0.29199064 0.88718131
vn -0.35728251 -0.29199064 0.88718131
vn -0.35728251 -0.29199064 0.88718131
vn -0.60807051 -0.09768654 0.78784998
vn -0.60807051 -0.09768654 0.78784998
vn -0.60807051 -0.09768654 0.78784998
vn 0.97015847 0.01017910 0.24225800
vn 0.97015847 0.01017910 0.24225800
vn 0.96967476 0.00648129 0.24431304
vn 0.96853985 0.01303723 0.24851679
vn 0.96853985 0.01303723 0.24851679
vn 0.96853985 0.01303723 0.24851679
vn 0.98019766 -0.02992795 0.19574695
vn 0.98019766 -0.02992795 0.19574695
vn 0.98019766 -0.02992795 0.19574695
vn 0.91506545 -0.00186772 0.40330105
vn 0.91506545 -0.00186772 0.40330105
vn 0.91506545 -0.00186772 0.40330105
vn 0.99225975 0.00998950 0.12377720
vn 0.99225975 0.00998950 0.12377720
vn 0.99225975 0.00998950 0.12377720
vn 0.98317816 0.02269860 0.18123320
vn 0.98317816 0.02269860 0.18123320
vn 0.98317816 0.02269860 0.18123320
vn 0.99449731 -0.03064443 0.10017989
vn 0.99449731 -0.03064443 0.10017989
vn 0.99449731 -0.03064443 0.10017989
vn 0.97792122 -0.00245385 0.20895950
vn 0.97792122 -0.00245385 0.20895950
vn 0.97792122 -0.00245385 0.20895950
vn 0.98036203 0.03153082 0.19466922
vn 0.98036203 0.03153082 0.19466922
vn 0.98036203 0.03153082 0.19466922
vn 0.97659054 -0.01674150 0.21445430
vn 0.97659054 -0.01674150 0.21445430
vn 0.97659054 -0.01674150 0.21445430
vn 0.99503147 -0.02766551 0.09563990
vn 0.99503147 -0.02766551 0.09563990
vn 0.99503147 -0.02766551 0.09563990
vn 0.93684859 -0.00249570 0.34972631
vn 0.93829925 -0.00177487 0.34581985
vn 0.93657848 -0.00295529 0.35044547
vn 0.93589480 -0.00334140 0.35226375
vn 0.94746482 0.00075059 0.31985912
vn 0.94716112 -0.00005978 0.32075817
vn 0.94685746 -0.00086615 0.32165229
vn 0.92753715 -0.00195798 0.37372583
vn 0.92721614 -0.00143874 0.37452390
vn 0.92709553 -0.00124403 0.37482307
vn 0.99029315 0.04263085 0.13229545
vn 0.99029315 0.04263085 0.13229545
vn 0.99029315 0.04263085 0.13229545
vn 0.98848804 0.01459016 0.15059388
vn 0.98848804 0.01459016 0.15059388
vn 0.98848804 0.01459016 0.15059388
vn 0.95493736 -0.00061154 0.29680679
vn 0.95493736 -0.00061154 0.29680679
vn 0.95493736 -0.00061154 0.29680679
vn 0.98764970 -0.01814405 0.15562413
vn 0.98764970 -0.01814405 0.15562413
vn 0.98764970 -0.01814405 0.15562413
vn 0.99555001 -0.00986630 0.09371673
vn 0.99555001 -0.00986630 0.09371673
vn 0.99555001 -0.00986630 0.09371673
vn 0.93678975 -0.00250994 0.34988378
vn 0.94676699 -0.00110567 0.32191777
vn 0.96955035 0.00555138 0.24482913
vn 0.96955035 0.00555138 0.24482913
vn 0.93256623 -0.00243025 0.36099075
vn 0.93256623 -0.00243025 0.36099075
vn 0.93256623 -0.00243025 0.36099075
vn 0.95414268 -0.00884722 0.29922144
vn 0.95414268 -0.00884722 0.29922144
vn 0.95414268 -0.00884722 0.29922144
vn 0.92774019 -0.00228719 0.37321966
vn 0.98382107 0.00493404 0.17908590
vn 0.98382107 0.00493404 0.17908590
vn 0.98382107 0.00493404 0.17908590
vn 0.98867292 -0.00035119 0.15008576
vn 0.98867292 -0.00035119 0.15008576
vn 0.98867292 -0.00035119 0.15008576
vn 0.96173038 -0.00719600 0.27390307
vn 0.96173038 -0.00719600 0.27390307
vn 0.96173038 -0.00719600 0.27390307
vn 0.99144192 0.00319445 0.13050944
vn 0.99144192 0.00319445 0.13050944
vn 0.99144192 0.00319445 0.13050944
vn 0.95457771 0.01035300 0.29778215
vn 0.95457771 0.01035300 0.29778215
vn 0.95457771 0.01035300 0.29778215
vn 0.00158761 -0.99997525 0.00685370
vn 0.00158761 -0.99997525 0.00685370
vn 0.00158761 -0.99997525 0.00685370
vn 0.02345730 -0.99964677 0.01249330
vn 0.02345730 -0.99964677 0.01249330
vn 0.02345730 -0.99964677 0.01249330
vn -0.00227957 -0.99998362 -0.00524955
vn -0.00227957 -0.99998362 -0.00524955
vn -0.00227957 -0.99998362 -0.00524955
vn 0.00183252 -0.99999600 0.00215288
vn -0.00069514 -0.99999731 -0.00221229
vn 0.00154255 -0.99999790 0.00134710
vn 0.01183986 -0.99966781 0.02289276
vn 0.01183986 -0.99966781 0.02289276
vn 0.01183986 -0.99966781 0.02289276
vn 0.00579217 -0.99998270 -0.00102676
vn 0.00579217 -0.99998270 -0.00102676
vn 0.00579217 -0.99998270 -0.00102676
vn -0.00131367 -0.99999722 0.00195956
vn 0.00472688 -0.99998883 0.00004962
vn 0.00181420 -0.99999750 0.00130591
vn -0.00081725 -0.99999499 0.00305856
vn -0.01289505 -0.99983130 0.01307977
vn -0.01289505 -0.99983130 0.01307977
vn -0.01289505 -0.99983130 0.01307977
vn 0.01173011 -0.99444442 0.10460732
vn 0.01173011 -0.99444442 0.10460732
vn 0.01173011 -0.99444442 0.10460732
vn -0.00287458 -0.99999011 0.00339433
vn -0.00311386 -0.99999006 0.00319082
vn -0.02232138 -0.99953385 0.02082884
vn -0.02232138 -0.99953385 0.02082884
vn -0.02232138 -0.99953385 0.02082884
vn -0.51833494 0.33534365 -0.78668515
vn -0.51833494 0.33534365 -0.78668515
vn -0.51833494 0.33534365 -0.78668515
vn -0.28755469 -0.95759375 0.01806962
vn -0.28755469 -0.95759375 0.01806962
vn -0.28755469 -0.95759375 0.01806962
vn -0.39080774 -0.91973137 -0.03692574
vn -0.39080774 -0.91973137 -0.03692574
vn -0.39080774 -0.91973137 -0.03692574
vn -0.74361779 -0.66722332 -0.04296076
vn -0.74361779 -0.66722332 -0.04296076
vn -0.74361779 -0.66722332 -0.04296076
vn -0.60819660 -0.79333251 0.02684058
vn -0.60819660 -0.79333251 0.02684058
vn -0.60819660 -0.79333251 0.02684058
vn -0.82829239 -0.55974967 0.02473918
vn -0.82829239 -0.55974967 0.02473918
vn -0.82829239 -0.55974967 0.02473918
vn -0.92327076 -0.38127932 -0.04687418
vn -0.92327076 -0.38127932 -0.04687418
vn -0.92327076 -0.38127932 -0.04687418
vn -0.96710528 -0.25124146 0.03981342
vn -0.96710528 -0.25124146 0.03981342
vn -0.96710528 -0.25124146 0.03981342
vn -0.83525908 -0.06238312 0.54630634
vn -0.83525908 -0.06238312 0.54630634
vn -0.83525908 -0.06238312 0.54630634
vn -0.81142395 -0.02322350 0.58399645
vn -0.81142395 -0.02322350 0.58399645
vn -0.81142395 -0.02322350 0.58399645
vn -0.55330036 -0.21056985 0.80592745
vn -0.55330036 -0.21056985 0.80592745
vn -0.55330036 -0.21056985 0.80592745
vn -0.70239111 -0.04453055 0.71039690
vn -0.70239111 -0.04453055 0.71039690
vn -0.70239111 -0.04453055 0.71039690
vn -0.88450010 -0.09942834 0.45582188
vn -0.88450010 -0.09942834 0.45582188
vn -0.88450010 -0.09942834 0.45582188
vn -0.59316027 -0.13703522 0.79333615
vn -0.59316027 -0.13703522 0.79333615
vn -0.59316027 -0.13703522 0.79333615
vn -0.80035956 -0.06494566 0.59599214
vn -0.80035956 -0.06494566 0.59599214
vn -0.80035956 -0.06494566 0.59599214
vn -0.83807113 -0.33997835 0.42667493
vn -0.83807113 -0.33997835 0.42667493
vn -0.83807113 -0.33997835 0.42667493
vn -0.65996938 -0.45948862 0.59439939
vn -0.65996938 -0.45948862 0.59439939
vn -0.65996938 -0.45948862 0.59439939
vn -0.72839330 -0.55567279 0.40083780
vn -0.72839330 -0.55567279 0.40083780
vn -0.72839330 -0.55567279 0.40083780
vn -0.54262395 -0.61089687 0.57651042
vn -0.54262395 -0.61089687 0.57651042
vn -0.54262395 -0.61089687 0.57651042
vn -0.57144815 -0.75926651 0.31138622
vn -0.57144815 -0.75926651 0.31138622
vn -0.57144815 -0.75926651 0.31138622
vn -0.34974029 -0.72126586 0.59787732
vn -0.34974029 -0.72126586 0.59787732
vn -0.34974029 -0.72126586 0.59787732
vn -0.60443508 -0.62742264 0.49091655
vn -0.60443508 -0.62742264 0.49091655
vn -0.60443508 -0.62742264 0.49091655
vn -0.38237420 -0.49518162 0.78011867
vn -0.38237420 -0.49518162 0.78011867
vn -0.38237420 -0.49518162 0.78011867
vn -0.21088431 -0.65417181 0.72635187
vn -0.21088431 -0.65417181 0.72635187
vn -0.21088431 -0.65417181 0.72635187
vn -0.17866451 -0.85692054 0.48349373
vn -0.17866451 -0.85692054 0.48349373
vn -0.17866451 -0.85692054 0.48349373
vn -0.43641542 -0.81445090 0.38237587
vn -0.43641542 -0.81445090 0.38237587
vn -0.43641542 -0.81445090 0.38237587
vn -0.26225114 -0.84750996 0.46146638
vn -0.26225114 -0.84750996 0.46146638
vn -0.26225114 -0.84750996 0.46146638
vn -0.39002296 -0.74627679 0.53940064
vn -0.39002296 -0.74627679 0.53940064
vn -0.39002296 -0.74627679 0.53940064
vn -0.32535414 -0.88203367 0.34082443
vn -0.32535414 -0.88203367 0.34082443
vn -0.32535414 -0.88203367 0.34082443
vn -0.46044542 -0.72709951 0.50923110
vn -0.46044542 -0.72709951 0.50923110
vn -0.46044542 -0.72709951 0.50923110
vn -0.31152022 -0.83998603 0.44427313
vn -0.31152022 -0.83998603 0.44427313
vn -0.31152022 -0.83998603 0.44427313
vn 0.61465565 -0.70694069 0.34990469
vn 0.61465565 -0.70694069 0.34990469
vn 0.61465565 -0.70694069 0.34990469
vn 0.42726259 -0.78653763 0.44587581
vn 0.42726259 -0.78653763 0.44587581
vn 0.42726259 -0.78653763 0.44587581
vn -0.00960448 -0.94736505 0.32001127
vn -0.00960448 -0.94736505 0.32001127
vn -0.00960448 -0.94736505 0.32001127
vn 0.64195347 -0.74696989 0.17300789
vn 0.64195347 -0.74696989 0.17300789
vn 0.64195347 -0.74696989 0.17300789
vn 0.67138838 -0.71755963 0.18532623
vn 0.67138838 -0.71755963 0.18532623
vn 0.67138838 -0.71755963 0.18532623
vn 0.63975208 -0.74671913 0.18201051
vn 0.63975208 -0.74671913 0.18201051
vn 0.63975208 -0.74671913 0.18201051
vn 0.73723196 -0.62470390 0.25735982
vn 0.73723196 -0.62470390 0.25735982
vn 0.73723196 -0.62470390 0.25735982
vn 0.85106592 -0.42379640 0.30997325
vn 0.85106592 -0.42379640 0.30997325
vn 0.85106592 -0.42379640 0.30997325
vn 0.73403608 -0.59816326 0.32154588
vn 0.73403608 -0.59816326 0.32154588
vn 0.73403608 -0.59816326 0.32154588
vn 0.45355554 -0.88743643 0.08212152
vn 0.45355554 -0.88743643 0.08212152
vn 0.45355554 -0.88743643 0.08212152
vn 0.76286234 -0.63842431 0.10225189
vn 0.76286234 -0.63842431 0.10225189
vn 0.76286234 -0.63842431 0.10225189
vn 0.72697471 -0.67038028 0.14865409
vn 0.72697471 -0.67038028 0.14865409
vn 0.72697471 -0.67038028 0.14865409
vn 0.73708081 -0.65856022 0.15169153
vn 0.73708081 -0.65856022 0.15169153
vn 0.73708081 -0.65856022 0.15169153
vn 0.74151438 -0.60805651 0.28359073
vn 0.74151438 -0.60805651 0.28359073
vn 0.74151438 -0.60805651 0.28359073
vn 0.75347392 -0.56657218 0.33357611
vn 0.75347392 -0.56657218 0.33357611
vn 0.75347392 -0.56657218 0.33357611
vn -0.63038293 0.02578667 -0.77585592
vn -0.63038293 0.02578667 -0.77585592
vn -0.63038293 0.02578667 -0.77585592
f 1//1 2//2 3//3
f 4//4 5//5 6//6
f 7//7 8//8 9//9
f 10//10 11//11 12//12
f 13//13 14//14 15//15
f 16//16 5//5 4//4
f 7//7 5//5 16//16
f 7//7 9//9 5//5
f 17//17 18//18 19//19
f 20//20 21//21 22//22
f 23//23 24//24 25//25
f 26//26 27//27 28//28
f 29//29 30//30 31//31
f 32//32 33//33 34//34
f 35//35 36//36 37//37
f 38//38 39//39 40//40
f 41//41 42//42 43//43
f 44//44 45//45 46//46
f 47//47 48//48 49//49
f 50//50 51//51 52//52
f 53//53 54//54 55//55
f 56//56 57//57 58//58
f 59//59 60//60 61//61
f 62//62 63//63 64//64
f 65//65 66//66 67//67
f 68//68 69//69 70//70
f 71//71 72//72 73//73
f 74//74 75//75 76//76
f 77//77 78//78 79//79
f 80//80 81//81 82//82
f 83//83 84//84 85//85
f 86//86 87//87 88//88
f 89//89 90//90 91//91
f 92//92 93//93 94//94
f 95//95 96//96 97//97
f 98//98 99//99 100//100
f 101//101 102//102 103//103
f 104//104 105//105 106//106
f 107//107 108//108 109//109
f 110//110 111//111 112//112
f 113//113 114//114 115//115
f 116//116 117//117 118//118
f 119//119 120//120 121//121
f 122//122 123//123 124//124
f 125//125 126//126 127//127
f 128//128 129//129 130//130
f 131//131 132//132 133//133
f 134//134 135//135 136//136
f 137//137 138//138 139//139
f 140//140 141//141 142//142
f 143//143 144//144 145//145
f 146//146 147//147 148//148
f 149//149 150//150 151//151
f 152//152 153//153 154//154
f 155//155 156//156 157//157
f 158//158 159//159 160//160
f 161//161 162//162 163//163
f 164//164 165//165 166//166
f 167//167 168//168 169//169
f 170//170 171//171 172//172
f 173//173 174//174 175//175
f 176//176 177//177 178//178
f 179//179 180//180 181//181
f 182//182 183//183 184//184
f 185//185 186//186 187//187
f 188//188 189//189 190//190
f 191//191 192//192 193//193
f 194//194 195//195 196//196
f 197//197 198//198 199//199
f 200//200 201//201 202//202
f 203//203 204//204 205//205
f 206//206 207//207 208//208
f 209//209 210//210 211//211
f 212//212 213//213 214//214
f 215//215 216//216 217//217
f 218//218 219//219 220//220
f 221//221 222//222 223//223
f 224//224 225//225 226//226
f 227//227 228//228 229//229
f 230//230 231//231 232//232
f 233//233 234//234 235//235
f 236//236 237//237 238//238
f 239//239 240//240 241//241
f 242//242 243//243 244//244
f 245//245 246//246 247//247
f 248//248 249//249 250//250
f 251//251 252//252 253//253
f 254//254 255//255 256//256
f 257//257 258//258 259//259
f 260//260 261//261 262//262
f 263//263 264//264 265//265
f 266//266 267//267 268//268
f 269//269 270//270 271//271
f 272//272 273//273 274//274
f 275//275 276//276 277//277
f 278//278 279//279 280//280
f 281//281 282//282 283//283
f 284//284 285//285 286//286
f 287//287 288//288 289//289
f 290//290 291//291 292//292
f 293//293 294//294 295//295
f 296//296 297//297 298//298
f 299//299 300//300 301//301
f 302//302 303//303 304//304
f 305//305 306//306 307//307
f 308//308 309//309 310//310
f 260//260 311//311 261//261
f 312//312 313//313 314//314
f 315//315 316//316 317//317
f 318//318 319//319 320//320
f 321//321 322//322 323//323
f 324//324 325//325 326//326
f 327//327 328//328 329//329
f 330//330 331//331 332//332
f 333//333 334//334 335//335
f 336//336 337//337 338//338
f 339//339 340//340 341//341
f 342//342 343//343 344//344
f 345//345 346//346 347//347
f 348//348 349//349 350//350
f 351//351 352//352 353//353
f 354//354 355//355 356//356
f 357//357 358//358 359//359
f 360//360 361//361 362//362
f 363//363 364//364 365//365
f 366//366 367//367 368//368
f 369//369 370//370 371//371
f 372//372 373//373 374//374
f 375//375 376//376 377//377
f 378//378 379//379 380//380
f 381//381 382//382 383//383
f 384//384 385//385 386//386
f 387//387 388//388 389//389
f 390//390 391//391 392//392
f 393//393 394//394 395//395
f 396//396 397//397 398//398
f 399//399 400//400 401//401
f 402//402 403//403 404//404
f 405//405 406//406 407//407
f 408//408 409//409 410//410
f 381//381 383//383 411//411
f 412//412 413//413 414//414
f 415//415 416//416 417//417
f 418//418 419//419 420//420
f 421//421 422//422 423//423
f 424//424 425//425 426//426
f 427//427 428//428 429//429
f 430//430 431//431 432//432
f 433//433 434//434 435//435
f 436//436 437//437 438//438
f 439//439 440//440 441//441
f 442//442 443//443 444//444
f 445//445 446//446 447//447
f 448//448 449//449 450//450
f 451//451 452//452 453//453
f 454//454 455//455 456//456
f 457//457 458//458 459//459
f 460//460 461//461 462//462
f 463//463 464//464 465//465
f 466//466 467//467 468//468
f 469//469 470//470 471//471
f 472//472 473//473 474//474
f 475//475 476//476 477//477
f 475//475 478//478 476//476
f 479//479 480//480 481//481
f 482//482 483//483 484//484
f 485//485 486//486 487//487
f 488//488 489//489 490//490
f 491//491 492//492 493//493
f 494//494 495//495 496//496
f 497//497 498//498 499//499
f 500//500 501//501 502//502
f 503//503 504//504 505//505
f 506//506 507//507 508//508
f 509//509 510//510 511//511
f 512//512 513//513 514//514
f 515//515 516//516 517//517
f 518//518 519//519 520//520
f 521//521 518//518 520//520
f 522//522 523//523 524//524
f 525//525 526//526 527//527
f 528//528 529//529 530//530
f 531//531 532//532 533//533
f 534//534 535//535 536//536
f 537//537 538//538 539//539
f 540//540 541//541 542//542
f 543//543 518//518 521//521
f 523//523 544//544 524//524
f 545//545 487//487 546//546
f 547//547 548//548 549//549
f 550//550 551//551 552//552
f 525//525 553//553 526//526
f 554//554 555//555 556//556
f 557//557 558//558 559//559
f 560//560 561//561 562//562
f 563//563 564//564 565//565
f 566//566 567//567 568//568
f 569//569 570//570 571//571
f 572//572 573//573 574//574
f 575//575 576//576 577//577
f 578//578 579//579 580//580
f 581//581 582//582 583//583
f 584//584 585//585 586//586
f 579//579 587//587 580//580
f 588//588 580//580 589//589
f 580//580 587//587 590//590
f 591//591 592//592 593//593
f 580//580 590//590 589//589
f 594//594 595//595 596//596
f 587//587 597//597 590//590
f 590//590 597//597 598//598
f 599//599 600//600 601//601
f 602//602 603//603 604//604
f 605//605 606//606 607//607
f 608//608 609//609 610//610
f 611//611 612//612 613//613
f 614//614 615//615 616//616
f 617//617 618//618 619//619
f 620//620 621//621 622//622
f 623//623 624//624 625//625
f 626//626 627//627 628//628
f 629//629 630//630 631//631
f 632//632 633//633 634//634
f 635//635 636//636 637//637
f 638//638 639//639 640//640
f 641//641 642//642 643//643
f 644//644 645//645 646//646
f 647//647 648//648 649//649
f 650//650 651//651 652//652
f 653//653 654//654 655//655
f 656//656 657//657 658//658
f 659//659 660//660 661//661
f 662//662 663//663 664//664
f 665//665 666//666 667//667
f 668//668 669//669 670//670
f 671//671 672//672 673//673
f 674//674 675//675 676//676
f 677//677 678//678 679//679
f 680//680 681//681 682//682
f 683//683 684//684 685//685
f 686//686 687//687 688//688
f 689//689 690//690 691//691
f 692//692 693//693 694//694
f 695//695 696//696 697//697
f 698//698 699//699 700//700
f 701//701 702//702 703//703
f 704//704 705//705 706//706
f 707//707 708//708 709//709
f 710//710 711//711 712//712
f 713//713 714//714 715//715
f 716//716 717//717 718//718
f 719//719 720//720 721//721
f 722//722 723//723 724//724
f 725//725 726//726 727//727
f 728//728 729//729 730//730
f 731//731 732//732 733//733
f 734//734 735//735 736//736
f 737//737 738//738 739//739
f 740//740 741//741 742//742

