# https://github.com/mikedh/trimesh
v -0.03495015 -0.03989658 0.08375729
v -0.03531948 -0.04020708 0.08364541
v -0.03569126 -0.03915994 0.08257181
v -0.03735618 -0.03748725 0.08983249
v -0.03802647 -0.03747505 0.08987475
v -0.03650414 -0.03834048 0.08963651
v -0.03531948 -0.04020708 0.08364541
v -0.03609266 -0.03943322 0.08248175
v -0.03569126 -0.03915994 0.08257181
v -0.03802647 -0.03747505 0.08987475
v -0.03675930 -0.03875975 0.08961959
v -0.03650414 -0.03834048 0.08963651
v -0.03569126 -0.03915994 0.08257181
v -0.03609266 -0.03943322 0.08248175
v -0.03697670 -0.03787028 0.08176477
v -0.03650414 -0.03834048 0.08963651
v -0.03675930 -0.03875975 0.08961959
v -0.03567018 -0.03918446 0.08899082
v -0.03609266 -0.03943322 0.08248175
v -0.03718487 -0.03834869 0.08180822
v -0.03697670 -0.03787028 0.08176477
v -0.03675930 -0.03875975 0.08961959
v -0.03604251 -0.03947688 0.08904679
v -0.03567018 -0.03918446 0.08899082
v -0.03604251 -0.03947688 0.08904679
v -0.03542059 -0.04010049 0.08817715
v -0.03567018 -0.03918446 0.08899082
v -0.03567018 -0.03918446 0.08899082
v -0.03542059 -0.04010049 0.08817715
v -0.03497438 -0.03987344 0.08789630
v -0.03542059 -0.04010049 0.08817715
v -0.03495554 -0.04056612 0.08672673
v -0.03497438 -0.03987344 0.08789630
v -0.03497438 -0.03987344 0.08789630
v -0.03495554 -0.04056612 0.08672673
v -0.03462043 -0.04021567 0.08659841
v -0.03462043 -0.04021567 0.08659841
v -0.03495554 -0.04056612 0.08672673
v -0.03458389 -0.04025626 0.08530785
v -0.03495554 -0.04056612 0.08672673
v -0.03492739 -0.04060254 0.08511681
v -0.03458389 -0.04025626 0.08530785
v -0.03458389 -0.04025626 0.08530785
v -0.03492739 -0.04060254 0.08511681
v -0.03495015 -0.03989658 0.08375729
v -0.03492739 -0.04060254 0.08511681
v -0.03531948 -0.04020708 0.08364541
v -0.03495015 -0.03989658 0.08375729
v -0.03527291 -0.04067267 0.08623362
v -0.03542059 -0.04010049 0.08817715
v -0.03630509 -0.03964025 0.08883418
v -0.03495554 -0.04056612 0.08672673
v -0.03542059 -0.04010049 0.08817715
v -0.03527291 -0.04067267 0.08623362
v -0.03854530 -0.03739944 0.08209349
v -0.03718487 -0.03834869 0.08180822
v -0.03670097 -0.03924411 0.08240409
v -0.03542059 -0.04010049 0.08817715
v -0.03604251 -0.03947688 0.08904679
v -0.03630509 -0.03964025 0.08883418
v -0.03718487 -0.03834869 0.08180822
v -0.03609266 -0.03943322 0.08248175
v -0.03670097 -0.03924411 0.08240409
v -0.03604251 -0.03947688 0.08904679
v -0.03675930 -0.03875975 0.08961959
v -0.03630509 -0.03964025 0.08883418
v -0.03630509 -0.03964025 0.08883418
v -0.03675930 -0.03875975 0.08961959
v -0.03797339 -0.03797227 0.08958031
v -0.03670097 -0.03924411 0.08240409
v -0.03531948 -0.04020708 0.08364541
v -0.03563285 -0.04031038 0.08398385
v -0.03609266 -0.03943322 0.08248175
v -0.03531948 -0.04020708 0.08364541
v -0.03670097 -0.03924411 0.08240409
v -0.03675930 -0.03875975 0.08961959
v -0.03802647 -0.03747505 0.08987475
v -0.03797339 -0.03797227 0.08958031
v -0.03563285 -0.04031038 0.08398385
v -0.03492739 -0.04060254 0.08511681
v -0.03527291 -0.04067267 0.08623362
v -0.03531948 -0.04020708 0.08364541
v -0.03492739 -0.04060254 0.08511681
v -0.03563285 -0.04031038 0.08398385
v -0.03492739 -0.04060254 0.08511681
v -0.03495554 -0.04056612 0.08672673
v -0.03527291 -0.04067267 0.08623362
v -0.03714862 -0.03851104 0.08428646
v -0.03702993 -0.03890268 0.08438886
v -0.03769630 -0.03824448 0.08416660
v -0.03774650 -0.03820684 0.08352090
v -0.03739030 -0.03845490 0.08335871
v -0.03744742 -0.03817414 0.08383060
v -0.03769630 -0.03824448 0.08416660
v -0.03774650 -0.03820684 0.08352090
v -0.03744742 -0.03817414 0.08383060
v -0.03769630 -0.03824448 0.08416660
v -0.03744742 -0.03817414 0.08383060
v -0.03714862 -0.03851104 0.08428646
v -0.03739030 -0.03845490 0.08335871
v -0.03649243 -0.03817990 0.08341897
v -0.03691415 -0.03775624 0.08355148
v -0.03739030 -0.03845490 0.08335871
v -0.03700729 -0.03863761 0.08342267
v -0.03649243 -0.03817990 0.08341897
v -0.03744742 -0.03817414 0.08383060
v -0.03739030 -0.03845490 0.08335871
v -0.03691415 -0.03775624 0.08355148
v -0.03744742 -0.03817414 0.08383060
v -0.03691415 -0.03775624 0.08355148
v -0.03694012 -0.03773027 0.08401061
v -0.03714862 -0.03851104 0.08428646
v -0.03694012 -0.03773027 0.08401061
v -0.03666403 -0.03800637 0.08426566
v -0.03714862 -0.03851104 0.08428646
v -0.03744742 -0.03817414 0.08383060
v -0.03694012 -0.03773027 0.08401061
v -0.03629771 -0.03934484 0.08576019
v -0.03618716 -0.03974325 0.08587701
v -0.03685093 -0.03909002 0.08566190
v -0.03670173 -0.03922396 0.08476437
v -0.03610113 -0.03955228 0.08494640
v -0.03654039 -0.03908631 0.08503599
v -0.03685093 -0.03909002 0.08566190
v -0.03654039 -0.03908631 0.08503599
v -0.03659678 -0.03906633 0.08547820
v -0.03685093 -0.03909002 0.08566190
v -0.03670173 -0.03922396 0.08476437
v -0.03654039 -0.03908631 0.08503599
v -0.03685093 -0.03909002 0.08566190
v -0.03659678 -0.03906633 0.08547820
v -0.03629771 -0.03934484 0.08576019
v -0.03610113 -0.03955228 0.08494640
v -0.03562884 -0.03904188 0.08495308
v -0.03609292 -0.03857806 0.08503802
v -0.03654039 -0.03908631 0.08503599
v -0.03610113 -0.03955228 0.08494640
v -0.03609292 -0.03857806 0.08503802
v -0.03659678 -0.03906633 0.08547820
v -0.03609292 -0.03857806 0.08503802
v -0.03603750 -0.03863289 0.08563454
v -0.03659678 -0.03906633 0.08547820
v -0.03654039 -0.03908631 0.08503599
v -0.03609292 -0.03857806 0.08503802
v -0.03629771 -0.03934484 0.08576019
v -0.03659678 -0.03906633 0.08547820
v -0.03603750 -0.03863289 0.08563454
v -0.03629771 -0.03934484 0.08576019
v -0.03603750 -0.03863289 0.08563454
v -0.03570757 -0.03896282 0.08572371
v -0.03658017 -0.03906683 0.08761437
v -0.03687984 -0.03906068 0.08780534
v -0.03703549 -0.03881020 0.08738000
v -0.03649525 -0.03943457 0.08659489
v -0.03649854 -0.03916592 0.08676071
v -0.03685266 -0.03879385 0.08687229
v -0.03685266 -0.03879385 0.08687229
v -0.03713150 -0.03880945 0.08679993
v -0.03649525 -0.03943457 0.08659489
v -0.03703549 -0.03881020 0.08738000
v -0.03713150 -0.03880945 0.08679993
v -0.03685266 -0.03879385 0.08687229
v -0.03685266 -0.03879385 0.08687229
v -0.03649854 -0.03916592 0.08676071
v -0.03598688 -0.03868351 0.08674587
v -0.03685266 -0.03879385 0.08687229
v -0.03598688 -0.03868351 0.08674587
v -0.03643228 -0.03823962 0.08703257
v -0.03703549 -0.03881020 0.08738000
v -0.03685266 -0.03879385 0.08687229
v -0.03643228 -0.03823962 0.08703257
v -0.03703549 -0.03881020 0.08738000
v -0.03643228 -0.03823962 0.08703257
v -0.03628667 -0.03838372 0.08754040
v -0.03658017 -0.03906683 0.08761437
v -0.03703549 -0.03881020 0.08738000
v -0.03628667 -0.03838372 0.08754040
v -0.03658017 -0.03906683 0.08761437
v -0.03628667 -0.03838372 0.08754040
v -0.03596130 -0.03870910 0.08755899
v -0.03843669 -0.03750139 0.08572138
v -0.03805492 -0.03781699 0.08531089
v -0.03815072 -0.03750286 0.08582086
v -0.03808405 -0.03778069 0.08626909
v -0.03843669 -0.03750139 0.08572138
v -0.03815072 -0.03750286 0.08582086
v -0.03805492 -0.03781699 0.08531089
v -0.03759372 -0.03804309 0.08547104
v -0.03745892 -0.03721205 0.08537723
v -0.03815072 -0.03750286 0.08582086
v -0.03745892 -0.03721205 0.08537723
v -0.03762740 -0.03704417 0.08600021
v -0.03815072 -0.03750286 0.08582086
v -0.03805492 -0.03781699 0.08531089
v -0.03745892 -0.03721205 0.08537723
v -0.03808405 -0.03778069 0.08626909
v -0.03815072 -0.03750286 0.08582086
v -0.03762740 -0.03704417 0.08600021
v -0.03808405 -0.03778069 0.08626909
v -0.03762740 -0.03704417 0.08600021
v -0.03718499 -0.03748590 0.08620275
v -0.03900817 -0.03692814 0.08424843
v -0.03860955 -0.03705272 0.08423145
v -0.03834373 -0.03758888 0.08433414
v -0.03856100 -0.03706857 0.08339472
v -0.03901302 -0.03692700 0.08343781
v -0.03840619 -0.03753754 0.08314956
v -0.03901302 -0.03692700 0.08343781
v -0.03856100 -0.03706857 0.08339472
v -0.03880987 -0.03683326 0.08385451
v -0.03900817 -0.03692814 0.08424843
v -0.03901302 -0.03692700 0.08343781
v -0.03880987 -0.03683326 0.08385451
v -0.03900817 -0.03692814 0.08424843
v -0.03880987 -0.03683326 0.08385451
v -0.03860955 -0.03705272 0.08423145
v -0.03856100 -0.03706857 0.08339472
v -0.03782063 -0.03684983 0.08345283
v -0.03826466 -0.03640573 0.08355148
v -0.03880987 -0.03683326 0.08385451
v -0.03856100 -0.03706857 0.08339472
v -0.03826466 -0.03640573 0.08355148
v -0.03880987 -0.03683326 0.08385451
v -0.03826466 -0.03640573 0.08355148
v -0.03829067 -0.03637972 0.08401061
v -0.03860955 -0.03705272 0.08423145
v -0.03829067 -0.03637972 0.08401061
v -0.03801049 -0.03665991 0.08427204
v -0.03860955 -0.03705272 0.08423145
v -0.03880987 -0.03683326 0.08385451
v -0.03829067 -0.03637972 0.08401061
v -0.03942370 -0.03621303 0.08486647
v -0.03994981 -0.03598750 0.08524782
v -0.03957678 -0.03636417 0.08467300
v -0.03994981 -0.03598750 0.08524782
v -0.03942370 -0.03621303 0.08486647
v -0.03965500 -0.03599547 0.08537574
v -0.03966950 -0.03627186 0.08590526
v -0.03965500 -0.03599547 0.08537574
v -0.03934493 -0.03629517 0.08574958
v -0.03966950 -0.03627186 0.08590526
v -0.03994981 -0.03598750 0.08524782
v -0.03965500 -0.03599547 0.08537574
v -0.03942370 -0.03621303 0.08486647
v -0.03866227 -0.03600845 0.08495308
v -0.03901951 -0.03565088 0.08493955
v -0.03942370 -0.03621303 0.08486647
v -0.03901951 -0.03565088 0.08493955
v -0.03916804 -0.03550235 0.08534730
v -0.03965500 -0.03599547 0.08537574
v -0.03942370 -0.03621303 0.08486647
v -0.03916804 -0.03550235 0.08534730
v -0.03965500 -0.03599547 0.08537574
v -0.03916804 -0.03550235 0.08534730
v -0.03886585 -0.03580657 0.08578582
v -0.03934493 -0.03629517 0.08574958
v -0.03965500 -0.03599547 0.08537574
v -0.03886585 -0.03580657 0.08578582
v -0.03942964 -0.03649015 0.08662707
v -0.03907931 -0.03656795 0.08671380
v -0.03936567 -0.03628970 0.08719850
v -0.03958310 -0.03635709 0.08752132
v -0.03942964 -0.03649015 0.08662707
v -0.03936567 -0.03628970 0.08719850
v -0.03958310 -0.03635709 0.08752132
v -0.03936567 -0.03628970 0.08719850
v -0.03921212 -0.03665026 0.08767636
v -0.03936567 -0.03628970 0.08719850
v -0.03907931 -0.03656795 0.08671380
v -0.03869763 -0.03597325 0.08675886
v -0.03936567 -0.03628970 0.08719850
v -0.03869763 -0.03597325 0.08675886
v -0.03883508 -0.03583657 0.08739979
v -0.03921212 -0.03665026 0.08767636
v -0.03936567 -0.03628970 0.08719850
v -0.03883508 -0.03583657 0.08739979
v -0.03921212 -0.03665026 0.08767636
v -0.03883508 -0.03583657 0.08739979
v -0.03847776 -0.03619263 0.08759190
v -0.03784987 -0.03779597 0.08756001
v -0.03834685 -0.03759442 0.08762444
v -0.03784547 -0.03809497 0.08736427
v -0.03834685 -0.03759442 0.08762444
v -0.03784987 -0.03779597 0.08756001
v -0.03814482 -0.03749141 0.08802355
v -0.03836415 -0.03757502 0.08835478
v -0.03834685 -0.03759442 0.08762444
v -0.03814482 -0.03749141 0.08802355
v -0.03836415 -0.03757502 0.08835478
v -0.03814482 -0.03749141 0.08802355
v -0.03781329 -0.03783482 0.08844448
v -0.03781329 -0.03783482 0.08844448
v -0.03770548 -0.03822298 0.08857037
v -0.03836415 -0.03757502 0.08835478
v -0.03784987 -0.03779597 0.08756001
v -0.03719827 -0.03747212 0.08759505
v -0.03763447 -0.03703777 0.08781899
v -0.03814482 -0.03749141 0.08802355
v -0.03784987 -0.03779597 0.08756001
v -0.03763447 -0.03703777 0.08781899
v -0.03814482 -0.03749141 0.08802355
v -0.03763447 -0.03703777 0.08781899
v -0.03750279 -0.03716760 0.08837015
v -0.03781329 -0.03783482 0.08844448
v -0.03814482 -0.03749141 0.08802355
v -0.03750279 -0.03716760 0.08837015
v -0.03781329 -0.03783482 0.08844448
v -0.03750279 -0.03716760 0.08837015
v -0.03717747 -0.03749293 0.08838923
v -0.03754641 -0.03811383 0.08816207
v -0.03781329 -0.03783482 0.08844448
v -0.03717747 -0.03749293 0.08838923
v -0.03754641 -0.03811383 0.08816207
v -0.03717747 -0.03749293 0.08838923
v -0.03702444 -0.03764595 0.08798463
v -0.03759426 -0.03825152 0.08778829
v -0.03754641 -0.03811383 0.08816207
v -0.03702444 -0.03764595 0.08798463
v -0.03759426 -0.03825152 0.08778829
v -0.03702444 -0.03764595 0.08798463
v -0.03719827 -0.03747212 0.08759505
v -0.03784987 -0.03779597 0.08756001
v -0.03759426 -0.03825152 0.08778829
v -0.03719827 -0.03747212 0.08759505
v -0.03784987 -0.03779597 0.08756001
v -0.03784547 -0.03809497 0.08736427
v -0.03759426 -0.03825152 0.08778829
v -0.03770548 -0.03822298 0.08857037
v -0.03781329 -0.03783482 0.08844448
v -0.03754641 -0.03811383 0.08816207
v -0.03759426 -0.03825152 0.08778829
v -0.03770548 -0.03822298 0.08857037
v -0.03754641 -0.03811383 0.08816207
v -0.03879576 -0.03683407 0.08746226
v -0.03921212 -0.03665026 0.08767636
v -0.03847776 -0.03619263 0.08759190
v -0.03879576 -0.03683407 0.08746226
v -0.03847776 -0.03619263 0.08759190
v -0.03825080 -0.03641959 0.08731318
v -0.03876954 -0.03688312 0.08695991
v -0.03879576 -0.03683407 0.08746226
v -0.03825080 -0.03641959 0.08731318
v -0.03876954 -0.03688312 0.08695991
v -0.03825080 -0.03641959 0.08731318
v -0.03832594 -0.03634445 0.08686680
v -0.03907931 -0.03656795 0.08671380
v -0.03876954 -0.03688312 0.08695991
v -0.03832594 -0.03634445 0.08686680
v -0.03907931 -0.03656795 0.08671380
v -0.03832594 -0.03634445 0.08686680
v -0.03869763 -0.03597325 0.08675886
v -0.03879576 -0.03683407 0.08746226
v -0.03880970 -0.03713074 0.08754219
v -0.03921212 -0.03665026 0.08767636
v -0.03880161 -0.03713689 0.08678521
v -0.03879576 -0.03683407 0.08746226
v -0.03876954 -0.03688312 0.08695991
v -0.03880161 -0.03713689 0.08678521
v -0.03880970 -0.03713074 0.08754219
v -0.03879576 -0.03683407 0.08746226
v -0.03907931 -0.03656795 0.08671380
v -0.03942964 -0.03649015 0.08662707
v -0.03880161 -0.03713689 0.08678521
v -0.03907931 -0.03656795 0.08671380
v -0.03880161 -0.03713689 0.08678521
v -0.03876954 -0.03688312 0.08695991
v -0.03906309 -0.03659715 0.08547218
v -0.03886585 -0.03580657 0.08578582
v -0.03854759 -0.03612280 0.08539999
v -0.03906309 -0.03659715 0.08547218
v -0.03934493 -0.03629517 0.08574958
v -0.03886585 -0.03580657 0.08578582
v -0.03907004 -0.03658262 0.08509983
v -0.03906309 -0.03659715 0.08547218
v -0.03854759 -0.03612280 0.08539999
v -0.03907004 -0.03658262 0.08509983
v -0.03854759 -0.03612280 0.08539999
v -0.03866227 -0.03600845 0.08495308
v -0.03942370 -0.03621303 0.08486647
v -0.03907004 -0.03658262 0.08509983
v -0.03866227 -0.03600845 0.08495308
v -0.03915346 -0.03678320 0.08576770
v -0.03966950 -0.03627186 0.08590526
v -0.03934493 -0.03629517 0.08574958
v -0.03915346 -0.03678320 0.08576770
v -0.03934493 -0.03629517 0.08574958
v -0.03906309 -0.03659715 0.08547218
v -0.03910207 -0.03683566 0.08492483
v -0.03906309 -0.03659715 0.08547218
v -0.03907004 -0.03658262 0.08509983
v -0.03910207 -0.03683566 0.08492483
v -0.03915346 -0.03678320 0.08576770
v -0.03906309 -0.03659715 0.08547218
v -0.03942370 -0.03621303 0.08486647
v -0.03957678 -0.03636417 0.08467300
v -0.03910207 -0.03683566 0.08492483
v -0.03942370 -0.03621303 0.08486647
v -0.03910207 -0.03683566 0.08492483
v -0.03907004 -0.03658262 0.08509983
v -0.03826179 -0.03737772 0.08411927
v -0.03860955 -0.03705272 0.08423145
v -0.03801049 -0.03665991 0.08427204
v -0.03826179 -0.03737772 0.08411927
v -0.03801049 -0.03665991 0.08427204
v -0.03773028 -0.03694011 0.08401061
v -0.03823414 -0.03743404 0.08358456
v -0.03773028 -0.03694011 0.08401061
v -0.03782063 -0.03684983 0.08345283
v -0.03823414 -0.03743404 0.08358456
v -0.03826179 -0.03737772 0.08411927
v -0.03773028 -0.03694011 0.08401061
v -0.03856100 -0.03706857 0.08339472
v -0.03823414 -0.03743404 0.08358456
v -0.03782063 -0.03684983 0.08345283
v -0.03834373 -0.03758888 0.08433414
v -0.03860955 -0.03705272 0.08423145
v -0.03826179 -0.03737772 0.08411927
v -0.03825324 -0.03768543 0.08344848
v -0.03826179 -0.03737772 0.08411927
v -0.03823414 -0.03743404 0.08358456
v -0.03825324 -0.03768543 0.08344848
v -0.03834373 -0.03758888 0.08433414
v -0.03826179 -0.03737772 0.08411927
v -0.03856100 -0.03706857 0.08339472
v -0.03840619 -0.03753754 0.08314956
v -0.03825324 -0.03768543 0.08344848
v -0.03856100 -0.03706857 0.08339472
v -0.03825324 -0.03768543 0.08344848
v -0.03823414 -0.03743404 0.08358456
v -0.03759724 -0.03806191 0.08610631
v -0.03808405 -0.03778069 0.08626909
v -0.03718499 -0.03748590 0.08620275
v -0.03759724 -0.03806191 0.08610631
v -0.03718499 -0.03748590 0.08620275
v -0.03703670 -0.03763418 0.08561666
v -0.03759372 -0.03804309 0.08547104
v -0.03759724 -0.03806191 0.08610631
v -0.03703670 -0.03763418 0.08561666
v -0.03759372 -0.03804309 0.08547104
v -0.03703670 -0.03763418 0.08561666
v -0.03745892 -0.03721205 0.08537723
v -0.03762694 -0.03830347 0.08628715
v -0.03808405 -0.03778069 0.08626909
v -0.03759724 -0.03806191 0.08610631
v -0.03759372 -0.03804309 0.08547104
v -0.03762694 -0.03830347 0.08628715
v -0.03759724 -0.03806191 0.08610631
v -0.03759372 -0.03804309 0.08547104
v -0.03761038 -0.03833234 0.08539642
v -0.03762694 -0.03830347 0.08628715
v -0.03759372 -0.03804309 0.08547104
v -0.03805492 -0.03781699 0.08531089
v -0.03761038 -0.03833234 0.08539642
v -0.03628818 -0.03936557 0.08719111
v -0.03658017 -0.03906683 0.08761437
v -0.03596130 -0.03870910 0.08755899
v -0.03628818 -0.03936557 0.08719111
v -0.03596130 -0.03870910 0.08755899
v -0.03581429 -0.03885610 0.08720888
v -0.03628818 -0.03936557 0.08719111
v -0.03581429 -0.03885610 0.08720888
v -0.03598688 -0.03868351 0.08674587
v -0.03649854 -0.03916592 0.08676071
v -0.03628818 -0.03936557 0.08719111
v -0.03598688 -0.03868351 0.08674587
v -0.03658017 -0.03906683 0.08761437
v -0.03635760 -0.03958191 0.08751942
v -0.03687984 -0.03906068 0.08780534
v -0.03635760 -0.03958191 0.08751942
v -0.03658017 -0.03906683 0.08761437
v -0.03628818 -0.03936557 0.08719111
v -0.03628818 -0.03936557 0.08719111
v -0.03649525 -0.03943457 0.08659489
v -0.03635760 -0.03958191 0.08751942
v -0.03649854 -0.03916592 0.08676071
v -0.03649525 -0.03943457 0.08659489
v -0.03628818 -0.03936557 0.08719111
v -0.03602970 -0.03963055 0.08547218
v -0.03570757 -0.03896282 0.08572371
v -0.03551420 -0.03915619 0.08539999
v -0.03602970 -0.03963055 0.08547218
v -0.03629771 -0.03934484 0.08576019
v -0.03570757 -0.03896282 0.08572371
v -0.03610113 -0.03955228 0.08494640
v -0.03602970 -0.03963055 0.08547218
v -0.03551420 -0.03915619 0.08539999
v -0.03610113 -0.03955228 0.08494640
v -0.03551420 -0.03915619 0.08539999
v -0.03562884 -0.03904188 0.08495308
v -0.03618716 -0.03974325 0.08587701
v -0.03629771 -0.03934484 0.08576019
v -0.03602970 -0.03963055 0.08547218
v -0.03606855 -0.03986708 0.08492530
v -0.03602970 -0.03963055 0.08547218
v -0.03610113 -0.03955228 0.08494640
v -0.03606855 -0.03986708 0.08492530
v -0.03618716 -0.03974325 0.08587701
v -0.03602970 -0.03963055 0.08547218
v -0.03610113 -0.03955228 0.08494640
v -0.03670173 -0.03922396 0.08476437
v -0.03606855 -0.03986708 0.08492530
v -0.03714862 -0.03851104 0.08428646
v -0.03666403 -0.03800637 0.08426566
v -0.03637973 -0.03829066 0.08401061
v -0.03684128 -0.03880826 0.08388276
v -0.03714862 -0.03851104 0.08428646
v -0.03637973 -0.03829066 0.08401061
v -0.03684128 -0.03880826 0.08388276
v -0.03637973 -0.03829066 0.08401061
v -0.03649243 -0.03817990 0.08341897
v -0.03700729 -0.03863761 0.08342267
v -0.03684128 -0.03880826 0.08388276
v -0.03649243 -0.03817990 0.08341897
v -0.03692532 -0.03900509 0.08338399
v -0.03700729 -0.03863761 0.08342267
v -0.03739030 -0.03845490 0.08335871
v -0.03702993 -0.03890268 0.08438886
v -0.03714862 -0.03851104 0.08428646
v -0.03684128 -0.03880826 0.08388276
v -0.03692532 -0.03900509 0.08338399
v -0.03702993 -0.03890268 0.08438886
v -0.03684128 -0.03880826 0.08388276
v -0.03692532 -0.03900509 0.08338399
v -0.03684128 -0.03880826 0.08388276
v -0.03700729 -0.03863761 0.08342267
v -0.03806357 -0.03761101 0.08256997
v -0.03806383 -0.03761108 0.08287377
v -0.03824723 -0.03741284 0.08229996
v -0.03824723 -0.03741284 0.08313991
v -0.03824723 -0.03741284 0.08229996
v -0.03763929 -0.03819082 0.08230002
v -0.03806357 -0.03761101 0.08256997
v -0.03763929 -0.03819082 0.08230002
v -0.03766084 -0.03821249 0.08256633
v -0.03806357 -0.03761101 0.08256997
v -0.03777331 -0.03794307 0.08286555
v -0.03785594 -0.03799253 0.08313961
v -0.03806383 -0.03761108 0.08287377
v -0.03806383 -0.03761108 0.08287377
v -0.03785594 -0.03799253 0.08313961
v -0.03824723 -0.03741284 0.08313991
v -0.03785594 -0.03799253 0.08313961
v -0.03840619 -0.03753754 0.08314956
v -0.03824723 -0.03741284 0.08313991
v -0.03840619 -0.03753754 0.08314956
v -0.03824723 -0.03741284 0.08229996
v -0.03824723 -0.03741284 0.08313991
v -0.03840619 -0.03753754 0.08314956
v -0.03838881 -0.03755442 0.08229996
v -0.03824723 -0.03741284 0.08229996
v -0.03838881 -0.03755442 0.08229996
v -0.03763929 -0.03819082 0.08230002
v -0.03824723 -0.03741284 0.08229996
v -0.03806357 -0.03761101 0.08256997
v -0.03766084 -0.03821249 0.08256633
v -0.03755427 -0.03810581 0.08259995
v -0.03774650 -0.03820684 0.08352090
v -0.03777331 -0.03794307 0.08286555
v -0.03766428 -0.03799123 0.08349557
v -0.03755427 -0.03810581 0.08259995
v -0.03774650 -0.03820684 0.08352090
v -0.03766428 -0.03799123 0.08349557
v -0.03766084 -0.03821249 0.08256633
v -0.03774650 -0.03820684 0.08352090
v -0.03755427 -0.03810581 0.08259995
v -0.03777331 -0.03794307 0.08286555
v -0.03806383 -0.03761108 0.08287377
v -0.03806357 -0.03761101 0.08256997
v -0.03755427 -0.03810581 0.08259995
v -0.03766428 -0.03799123 0.08349557
v -0.03777331 -0.03794307 0.08286555
v -0.03755427 -0.03810581 0.08259995
v -0.03777331 -0.03794307 0.08286555
v -0.03806357 -0.03761101 0.08256997
v -0.03910207 -0.03683566 0.08492483
v -0.03843669 -0.03750139 0.08572138
v -0.03915346 -0.03678320 0.08576770
v -0.03836415 -0.03757502 0.08835478
v -0.03797339 -0.03797227 0.08958031
v -0.03963886 -0.03630563 0.08883751
v -0.03769630 -0.03824448 0.08416660
v -0.03805492 -0.03781699 0.08531089
v -0.03834373 -0.03758888 0.08433414
v -0.03915346 -0.03678320 0.08576770
v -0.03880161 -0.03713689 0.08678521
v -0.03942964 -0.03649015 0.08662707
v -0.03880161 -0.03713689 0.08678521
v -0.03606855 -0.03986708 0.08492530
v -0.03527291 -0.04067267 0.08623362
v -0.03618716 -0.03974325 0.08587701
v -0.03759426 -0.03825152 0.08778829
v -0.03687984 -0.03906068 0.08780534
v -0.03770548 -0.03822298 0.08857037
v -0.03703549 -0.03881020 0.08738000
v -0.03687984 -0.03906068 0.08780534
v -0.03759426 -0.03825152 0.08778829
v -0.03770548 -0.03822298 0.08857037
v -0.03797339 -0.03797227 0.08958031
v -0.03836415 -0.03757502 0.08835478
v -0.03854530 -0.03739944 0.08209349
v -0.03901302 -0.03692700 0.08343781
v -0.04008528 -0.03585946 0.08338643
v -0.03840619 -0.03753754 0.08314956
v -0.03769630 -0.03824448 0.08416660
v -0.03761038 -0.03833234 0.08539642
v -0.03805492 -0.03781699 0.08531089
v -0.03702993 -0.03890268 0.08438886
v -0.03761038 -0.03833234 0.08539642
v -0.03769630 -0.03824448 0.08416660
v -0.03838881 -0.03755442 0.08229996
v -0.03840619 -0.03753754 0.08314956
v -0.03854530 -0.03739944 0.08209349
v -0.03957678 -0.03636417 0.08467300
v -0.03994981 -0.03598750 0.08524782
v -0.03900817 -0.03692814 0.08424843
v -0.04008528 -0.03585946 0.08338643
v -0.03994981 -0.03598750 0.08524782
v -0.04067268 -0.03527298 0.08623357
v -0.03843669 -0.03750139 0.08572138
v -0.03808405 -0.03778069 0.08626909
v -0.03880161 -0.03713689 0.08678521
v -0.03649525 -0.03943457 0.08659489
v -0.03770548 -0.03822298 0.08857037
v -0.03630509 -0.03964025 0.08883418
v -0.03797339 -0.03797227 0.08958031
v -0.03692532 -0.03900509 0.08338399
v -0.03670097 -0.03924411 0.08240409
v -0.03702993 -0.03890268 0.08438886
v -0.03687984 -0.03906068 0.08780534
v -0.03630509 -0.03964025 0.08883418
v -0.03770548 -0.03822298 0.08857037
v -0.03670097 -0.03924411 0.08240409
v -0.03763929 -0.03819082 0.08230002
v -0.03854530 -0.03739944 0.08209349
v -0.03649525 -0.03943457 0.08659489
v -0.03527291 -0.04067267 0.08623362
v -0.03635760 -0.03958191 0.08751942
v -0.03635760 -0.03958191 0.08751942
v -0.03921212 -0.03665026 0.08767636
v -0.03963886 -0.03630563 0.08883751
v -0.03958310 -0.03635709 0.08752132
v -0.03635760 -0.03958191 0.08751942
v -0.03630509 -0.03964025 0.08883418
v -0.03687984 -0.03906068 0.08780534
v -0.03774650 -0.03820684 0.08352090
v -0.03766084 -0.03821249 0.08256633
v -0.03739030 -0.03845490 0.08335871
v -0.03840619 -0.03753754 0.08314956
v -0.03785594 -0.03799253 0.08313961
v -0.03825324 -0.03768543 0.08344848
v -0.03763929 -0.03819082 0.08230002
v -0.03838881 -0.03755442 0.08229996
v -0.03854530 -0.03739944 0.08209349
v -0.03777331 -0.03794307 0.08286555
v -0.03774650 -0.03820684 0.08352090
v -0.03785594 -0.03799253 0.08313961
v -0.03670097 -0.03924411 0.08240409
v -0.03766084 -0.03821249 0.08256633
v -0.03763929 -0.03819082 0.08230002
v -0.03670097 -0.03924411 0.08240409
v -0.03563285 -0.04031038 0.08398385
v -0.03702993 -0.03890268 0.08438886
v -0.03966950 -0.03627186 0.08590526
v -0.04067268 -0.03527298 0.08623357
v -0.03670173 -0.03922396 0.08476437
v -0.03834373 -0.03758888 0.08433414
v -0.03670173 -0.03922396 0.08476437
v -0.03685093 -0.03909002 0.08566190
v -0.03761038 -0.03833234 0.08539642
v -0.03563285 -0.04031038 0.08398385
v -0.03670173 -0.03922396 0.08476437
v -0.03702993 -0.03890268 0.08438886
v -0.03761038 -0.03833234 0.08539642
v -0.03685093 -0.03909002 0.08566190
v -0.03762694 -0.03830347 0.08628715
v -0.03785594 -0.03799253 0.08313961
v -0.03774650 -0.03820684 0.08352090
v -0.03825324 -0.03768543 0.08344848
v -0.03834685 -0.03759442 0.08762444
v -0.03880970 -0.03713074 0.08754219
v -0.03808405 -0.03778069 0.08626909
v -0.03834685 -0.03759442 0.08762444
v -0.03880161 -0.03713689 0.08678521
v -0.03563285 -0.04031038 0.08398385
v -0.03670173 -0.03922396 0.08476437
v -0.03808405 -0.03778069 0.08626909
v -0.03784547 -0.03809497 0.08736427
v -0.03834685 -0.03759442 0.08762444
v -0.03762694 -0.03830347 0.08628715
v -0.03784547 -0.03809497 0.08736427
v -0.03808405 -0.03778069 0.08626909
v -0.03880970 -0.03713074 0.08754219
v -0.03836415 -0.03757502 0.08835478
v -0.03921212 -0.03665026 0.08767636
v -0.03836415 -0.03757502 0.08835478
v -0.03963886 -0.03630563 0.08883751
v -0.03921212 -0.03665026 0.08767636
v -0.03825324 -0.03768543 0.08344848
v -0.03774650 -0.03820684 0.08352090
v -0.03834373 -0.03758888 0.08433414
v -0.03670097 -0.03924411 0.08240409
v -0.03739030 -0.03845490 0.08335871
v -0.03766084 -0.03821249 0.08256633
v -0.03774650 -0.03820684 0.08352090
v -0.03769630 -0.03824448 0.08416660
v -0.03834373 -0.03758888 0.08433414
v -0.03670097 -0.03924411 0.08240409
v -0.03692532 -0.03900509 0.08338399
v -0.03739030 -0.03845490 0.08335871
v -0.03685093 -0.03909002 0.08566190
v -0.03713150 -0.03880945 0.08679993
v -0.03762694 -0.03830347 0.08628715
v -0.03966950 -0.03627186 0.08590526
v -0.03942964 -0.03649015 0.08662707
v -0.04067268 -0.03527298 0.08623357
v -0.03685093 -0.03909002 0.08566190
v -0.03649525 -0.03943457 0.08659489
v -0.03713150 -0.03880945 0.08679993
v -0.03915346 -0.03678320 0.08576770
v -0.03762694 -0.03830347 0.08628715
v -0.03713150 -0.03880945 0.08679993
v -0.03784547 -0.03809497 0.08736427
v -0.03618716 -0.03974325 0.08587701
v -0.03942964 -0.03649015 0.08662707
v -0.03958310 -0.03635709 0.08752132
v -0.04067268 -0.03527298 0.08623357
v -0.03958310 -0.03635709 0.08752132
v -0.03713150 -0.03880945 0.08679993
v -0.03703549 -0.03881020 0.08738000
v -0.03784547 -0.03809497 0.08736427
v -0.03784547 -0.03809497 0.08736427
v -0.03703549 -0.03881020 0.08738000
v -0.03759426 -0.03825152 0.08778829
v -0.03805492 -0.03781699 0.08531089
v -0.03843669 -0.03750139 0.08572138
v -0.03834373 -0.03758888 0.08433414
v -0.04060465 -0.03491861 0.08514018
v -0.04020286 -0.03532057 0.08363683
v -0.04008528 -0.03585946 0.08338643
v -0.03797339 -0.03797227 0.08958031
v -0.03802647 -0.03747505 0.08987475
v -0.03963886 -0.03630563 0.08883751
v -0.04020286 -0.03532057 0.08363683
v -0.03943664 -0.03608393 0.08248646
v -0.04008528 -0.03585946 0.08338643
v -0.03802647 -0.03747505 0.08987475
v -0.03926729 -0.03625590 0.08927400
v -0.03963886 -0.03630563 0.08883751
v -0.04008528 -0.03585946 0.08338643
v -0.03943664 -0.03608393 0.08248646
v -0.03854530 -0.03739944 0.08209349
v -0.03943664 -0.03608393 0.08248646
v -0.03839926 -0.03711298 0.08182956
v -0.03854530 -0.03739944 0.08209349
v -0.03926729 -0.03625590 0.08927400
v -0.04010209 -0.03542202 0.08817388
v -0.03963886 -0.03630563 0.08883751
v -0.03839926 -0.03711298 0.08182956
v -0.03718487 -0.03834869 0.08180822
v -0.03854530 -0.03739944 0.08209349
v -0.03963886 -0.03630563 0.08883751
v -0.04010209 -0.03542202 0.08817388
v -0.04067268 -0.03527298 0.08623357
v -0.04010209 -0.03542202 0.08817388
v -0.04055846 -0.03496919 0.08677913
v -0.04067268 -0.03527298 0.08623357
v -0.04055846 -0.03496919 0.08677913
v -0.04060465 -0.03491861 0.08514018
v -0.04067268 -0.03527298 0.08623357
v -0.04067268 -0.03527298 0.08623357
v -0.04060465 -0.03491861 0.08514018
v -0.04008528 -0.03585946 0.08338643
v -0.04024484 -0.03459438 0.08647216
v -0.04055846 -0.03496919 0.08677913
v -0.03987113 -0.03497526 0.08789725
v -0.04055846 -0.03496919 0.08677913
v -0.04010209 -0.03542202 0.08817388
v -0.03987113 -0.03497526 0.08789725
v -0.03718487 -0.03834869 0.08180822
v -0.03839926 -0.03711298 0.08182956
v -0.03697670 -0.03787028 0.08176477
v -0.03697670 -0.03787028 0.08176477
v -0.03839926 -0.03711298 0.08182956
v -0.03837741 -0.03646773 0.08198334
v -0.03987113 -0.03497526 0.08789725
v -0.04010209 -0.03542202 0.08817388
v -0.03920356 -0.03564619 0.08896423
v -0.04010209 -0.03542202 0.08817388
v -0.03926729 -0.03625590 0.08927400
v -0.03920356 -0.03564619 0.08896423
v -0.03839926 -0.03711298 0.08182956
v -0.03943664 -0.03608393 0.08248646
v -0.03837741 -0.03646773 0.08198334
v -0.03837741 -0.03646773 0.08198334
v -0.03943664 -0.03608393 0.08248646
v -0.03954959 -0.03529654 0.08303876
v -0.03920356 -0.03564619 0.08896423
v -0.03926729 -0.03625590 0.08927400
v -0.03822188 -0.03662544 0.08970399
v -0.03926729 -0.03625590 0.08927400
v -0.03802647 -0.03747505 0.08987475
v -0.03822188 -0.03662544 0.08970399
v -0.03943664 -0.03608393 0.08248646
v -0.04020286 -0.03532057 0.08363683
v -0.03954959 -0.03529654 0.08303876
v -0.03822188 -0.03662544 0.08970399
v -0.03802647 -0.03747505 0.08987475
v -0.03735618 -0.03748725 0.08983249
v -0.03954959 -0.03529654 0.08303876
v -0.04020286 -0.03532057 0.08363683
v -0.04020595 -0.03464129 0.08483715
v -0.04020286 -0.03532057 0.08363683
v -0.04060465 -0.03491861 0.08514018
v -0.04020595 -0.03464129 0.08483715
v -0.04020595 -0.03464129 0.08483715
v -0.04060465 -0.03491861 0.08514018
v -0.04024484 -0.03459438 0.08647216
v -0.04060465 -0.03491861 0.08514018
v -0.04055846 -0.03496919 0.08677913
v -0.04024484 -0.03459438 0.08647216
v -0.03887250 -0.03593857 0.08309931
v -0.03954959 -0.03529654 0.08303876
v -0.03915834 -0.03565315 0.08347262
v -0.03938602 -0.03542615 0.08386237
v -0.03915834 -0.03565315 0.08347262
v -0.03954959 -0.03529654 0.08303876
v -0.03887250 -0.03593857 0.08309931
v -0.03837741 -0.03646773 0.08198334
v -0.03954959 -0.03529654 0.08303876
v -0.03846301 -0.03635018 0.08274091
v -0.03837741 -0.03646773 0.08198334
v -0.03956940 -0.03524209 0.08431722
v -0.03954959 -0.03529654 0.08303876
v -0.04020595 -0.03464129 0.08483715
v -0.03956940 -0.03524209 0.08431722
v -0.03970865 -0.03510394 0.08480591
v -0.03956940 -0.03524209 0.08431722
v -0.04020595 -0.03464129 0.08483715
v -0.03812595 -0.03668554 0.08255590
v -0.03776466 -0.03704633 0.08243305
v -0.03837741 -0.03646773 0.08198334
v -0.03812595 -0.03668554 0.08255590
v -0.03980462 -0.03501067 0.08547951
v -0.03970865 -0.03510394 0.08480591
v -0.04020595 -0.03464129 0.08483715
v -0.03776466 -0.03704633 0.08243305
v -0.03697670 -0.03787028 0.08176477
v -0.03837741 -0.03646773 0.08198334
v -0.03730526 -0.03750995 0.08239956
v -0.03697670 -0.03787028 0.08176477
v -0.03776466 -0.03704633 0.08243305
v -0.03980445 -0.03500704 0.08603031
v -0.04024484 -0.03459438 0.08647216
v -0.03976074 -0.03505732 0.08652765
v -0.03980445 -0.03500704 0.08603031
v -0.04024484 -0.03459438 0.08647216
v -0.03686826 -0.03794297 0.08248127
v -0.03697670 -0.03787028 0.08176477
v -0.03730526 -0.03750995 0.08239956
v -0.03964669 -0.03516479 0.08703108
v -0.03976074 -0.03505732 0.08652765
v -0.04024484 -0.03459438 0.08647216
v -0.03964669 -0.03516479 0.08703108
v -0.04024484 -0.03459438 0.08647216
v -0.03987113 -0.03497526 0.08789725
v -0.03640843 -0.03840441 0.08270127
v -0.03697670 -0.03787028 0.08176477
v -0.03686826 -0.03794297 0.08248127
v -0.03948911 -0.03532196 0.08750601
v -0.03964669 -0.03516479 0.08703108
v -0.03987113 -0.03497526 0.08789725
v -0.03640843 -0.03840441 0.08270127
v -0.03569126 -0.03915994 0.08257181
v -0.03697670 -0.03787028 0.08176477
v -0.03598194 -0.03882946 0.08305401
v -0.03919787 -0.03561361 0.08807362
v -0.03948911 -0.03532196 0.08750601
v -0.03561354 -0.03919795 0.08352614
v -0.03569126 -0.03915994 0.08257181
v -0.03598194 -0.03882946 0.08305401
v -0.03920356 -0.03564619 0.08896423
v -0.03919787 -0.03561361 0.08807362
v -0.03987113 -0.03497526 0.08789725
v -0.03495015 -0.03989658 0.08375729
v -0.03882947 -0.03598194 0.08854569
v -0.03495015 -0.03989658 0.08375729
v -0.03561354 -0.03919795 0.08352614
v -0.03532192 -0.03948923 0.08409382
v -0.03840442 -0.03640842 0.08889849
v -0.03882947 -0.03598194 0.08854569
v -0.03920356 -0.03564619 0.08896423
v -0.03822188 -0.03662544 0.08970399
v -0.03495015 -0.03989658 0.08375729
v -0.03532192 -0.03948923 0.08409382
v -0.03516472 -0.03964677 0.08456911
v -0.03458389 -0.04025626 0.08530785
v -0.03516472 -0.03964677 0.08456911
v -0.03505547 -0.03975922 0.08507247
v -0.03458389 -0.04025626 0.08530785
v -0.03822188 -0.03662544 0.08970399
v -0.03794324 -0.03686799 0.08911807
v -0.03840442 -0.03640842 0.08889849
v -0.03458389 -0.04025626 0.08530785
v -0.03505547 -0.03975922 0.08507247
v -0.03500704 -0.03980444 0.08556975
v -0.03822188 -0.03662544 0.08970399
v -0.03750984 -0.03730537 0.08920033
v -0.03794324 -0.03686799 0.08911807
v -0.03735618 -0.03748725 0.08983249
v -0.03750984 -0.03730537 0.08920033
v -0.03462043 -0.04021567 0.08659841
v -0.03500704 -0.03980444 0.08556975
v -0.03500903 -0.03980297 0.08612073
v -0.03735618 -0.03748725 0.08983249
v -0.03704647 -0.03776427 0.08916677
v -0.03750984 -0.03730537 0.08920033
v -0.03510108 -0.03970570 0.08679439
v -0.03650414 -0.03834048 0.08963651
v -0.03704647 -0.03776427 0.08916677
v -0.03735618 -0.03748725 0.08983249
v -0.03650414 -0.03834048 0.08963651
v -0.03668588 -0.03812561 0.08904392
v -0.03704647 -0.03776427 0.08916677
v -0.03497438 -0.03987344 0.08789630
v -0.03462043 -0.04021567 0.08659841
v -0.03510108 -0.03970570 0.08679439
v -0.03497438 -0.03987344 0.08789630
v -0.03510108 -0.03970570 0.08679439
v -0.03524222 -0.03956927 0.08728285
v -0.03650414 -0.03834048 0.08963651
v -0.03635048 -0.03846270 0.08885909
v -0.03668588 -0.03812561 0.08904392
v -0.03542637 -0.03938580 0.08773775
v -0.03593879 -0.03887229 0.08850063
v -0.03567018 -0.03918446 0.08899082
v -0.03593879 -0.03887229 0.08850063
v -0.03650414 -0.03834048 0.08963651
v -0.03497438 -0.03987344 0.08789630
v -0.03542637 -0.03938580 0.08773775
v -0.03565328 -0.03915821 0.08812738
v -0.03497438 -0.03987344 0.08789630
v -0.03565328 -0.03915821 0.08812738
vn 0.59097766 -0.46559007 -0.65876498
vn 0.59097766 -0.46559007 -0.65876498
vn 0.59097766 -0.46559007 -0.65876498
vn 0.05900675 -0.16713202 0.98416721
vn 0.05900675 -0.16713202 0.98416721
vn 0.05900675 -0.16713202 0.98416721
vn 0.50876774 -0.52158541 -0.68491171
vn 0.50876774 -0.52158541 -0.68491171
vn 0.50876774 -0.52158541 -0.68491171
vn 0.09824927 -0.09974947 0.99015005
vn 0.09824927 -0.09974947 0.99015005
vn 0.09824927 -0.09974947 0.99015005
vn 0.35260522 -0.21801988 -0.91002027
vn 0.35260522 -0.21801988 -0.91002027
vn 0.35260522 -0.21801988 -0.91002027
vn 0.39712451 -0.27698482 0.87496945
vn 0.39712451 -0.27698482 0.87496945
vn 0.39712451 -0.27698482 0.87496945
vn 0.33587798 -0.22912875 -0.91361151
vn 0.33587798 -0.22912875 -0.91361151
vn 0.33587798 -0.22912875 -0.91361151
vn 0.37892823 -0.31599841 0.86980365
vn 0.37892823 -0.31599841 0.86980365
vn 0.37892823 -0.31599841 0.86980365
vn 0.49701225 -0.49663863 0.71156791
vn 0.49701225 -0.49663863 0.71156791
vn 0.49701225 -0.49663863 0.71156791
vn 0.62646636 -0.41523651 0.65963516
vn 0.62646636 -0.41523651 0.65963516
vn 0.62646636 -0.41523651 0.65963516
vn 0.60583331 -0.68022494 0.41262577
vn 0.60583331 -0.68022494 0.41262577
vn 0.60583331 -0.68022494 0.41262577
vn 0.73741040 -0.57589079 0.35295282
vn 0.73741040 -0.57589079 0.35295282
vn 0.73741040 -0.57589079 0.35295282
vn 0.72976738 -0.68239665 0.04212351
vn 0.72976738 -0.68239665 0.04212351
vn 0.72976738 -0.68239665 0.04212351
vn 0.70179639 -0.71181232 0.02837314
vn 0.70179639 -0.71181232 0.02837314
vn 0.70179639 -0.71181232 0.02837314
vn 0.75497313 -0.57671652 -0.31211157
vn 0.75497313 -0.57671652 -0.31211157
vn 0.75497313 -0.57671652 -0.31211157
vn 0.66234416 -0.66030844 -0.35396749
vn 0.66234416 -0.66030844 -0.35396749
vn 0.66234416 -0.66030844 -0.35396749
vn -0.29491437 -0.92246525 0.24916536
vn -0.29491437 -0.92246525 0.24916536
vn -0.29491437 -0.92246525 0.24916536
vn -0.10408953 -0.95619581 0.27359631
vn -0.10408953 -0.95619581 0.27359631
vn -0.10408953 -0.95619581 0.27359631
vn -0.55996965 -0.64700348 -0.51751375
vn -0.55996965 -0.64700348 -0.51751375
vn -0.55996965 -0.64700348 -0.51751375
vn 0.02117971 -0.80523727 0.59257435
vn 0.02117971 -0.80523727 0.59257435
vn 0.02117971 -0.80523727 0.59257435
vn -0.07714593 -0.58091692 -0.81029873
vn -0.07714593 -0.58091692 -0.81029873
vn -0.07714593 -0.58091692 -0.81029873
vn -0.13567173 -0.69756618 0.70355853
vn -0.13567173 -0.69756618 0.70355853
vn -0.13567173 -0.69756618 0.70355853
vn -0.47679826 -0.70920019 0.51932505
vn -0.47679826 -0.70920019 0.51932505
vn -0.47679826 -0.70920019 0.51932505
vn -0.20067615 -0.86955241 -0.45122910
vn -0.20067615 -0.86955241 -0.45122910
vn -0.20067615 -0.86955241 -0.45122910
vn -0.21557541 -0.87306096 -0.43736918
vn -0.21557541 -0.87306096 -0.43736918
vn -0.21557541 -0.87306096 -0.43736918
vn -0.35265174 -0.50438650 0.78818209
vn -0.35265174 -0.50438650 0.78818209
vn -0.35265174 -0.50438650 0.78818209
vn -0.20327792 -0.97125245 -0.12388203
vn -0.20327792 -0.97125245 -0.12388203
vn -0.20327792 -0.97125245 -0.12388203
vn 0.02946617 -0.96331324 -0.26675709
vn 0.02946617 -0.96331324 -0.26675709
vn 0.02946617 -0.96331324 -0.26675709
vn 0.28074845 -0.95941242 0.02661043
vn 0.28074845 -0.95941242 0.02661043
vn 0.28074845 -0.95941242 0.02661043
vn 0.10416933 -0.22191064 -0.96948668
vn 0.10416933 -0.22191064 -0.96948668
vn 0.10416933 -0.22191064 -0.96948668
vn -0.36830525 -0.81789315 0.44204302
vn -0.36830525 -0.81789315 0.44204302
vn -0.36830525 -0.81789315 0.44204302
vn 0.18104169 -0.98089092 -0.07125238
vn 0.18104169 -0.98089092 -0.07125238
vn 0.18104169 -0.98089092 -0.07125238
vn -0.32244028 -0.84989982 -0.41677638
vn -0.32244028 -0.84989982 -0.41677638
vn -0.32244028 -0.84989982 -0.41677638
vn 0.02110065 -0.27925482 0.95998516
vn 0.02110065 -0.27925482 0.95998516
vn 0.02110065 -0.27925482 0.95998516
vn -0.10473596 0.12578683 0.98651308
vn -0.10473596 0.12578683 0.98651308
vn -0.10473596 0.12578683 0.98651308
vn 0.68544120 -0.58628157 0.43179195
vn 0.68544120 -0.58628157 0.43179195
vn 0.68544120 -0.58628157 0.43179195
vn 0.64029106 -0.76401390 0.07943626
vn 0.64029106 -0.76401390 0.07943626
vn 0.64029106 -0.76401390 0.07943626
vn 0.37690551 -0.39641883 -0.83713460
vn 0.37690551 -0.39641883 -0.83713460
vn 0.37690551 -0.39641883 -0.83713460
vn 0.59894870 -0.40419012 -0.69129647
vn 0.59894870 -0.40419012 -0.69129647
vn 0.59894870 -0.40419012 -0.69129647
vn 0.04700053 -0.26902770 -0.96198495
vn 0.04700053 -0.26902770 -0.96198495
vn 0.04700053 -0.26902770 -0.96198495
vn -0.51426637 -0.60219352 0.61064970
vn -0.51426637 -0.60219352 0.61064970
vn -0.51426637 -0.60219352 0.61064970
vn 0.13706407 -0.98861109 0.06214135
vn 0.13706407 -0.98861109 0.06214135
vn 0.13706407 -0.98861109 0.06214135
vn 0.41686349 -0.88633793 0.20156861
vn 0.41686349 -0.88633793 0.20156861
vn 0.41686349 -0.88633793 0.20156861
vn -0.28670270 -0.81603196 -0.50188983
vn -0.28670270 -0.81603196 -0.50188983
vn -0.28670270 -0.81603196 -0.50188983
vn 0.08756121 -0.09400331 0.99171388
vn 0.08756121 -0.09400331 0.99171388
vn 0.08756121 -0.09400331 0.99171388
vn 0.10226804 -0.09399495 0.99030611
vn 0.10226804 -0.09399495 0.99030611
vn 0.10226804 -0.09399495 0.99030611
vn 0.62971460 -0.76605334 -0.12892555
vn 0.62971460 -0.76605334 -0.12892555
vn 0.62971460 -0.76605334 -0.12892555
vn 0.74446329 -0.65593950 0.12457041
vn 0.74446329 -0.65593950 0.12457041
vn 0.74446329 -0.65593950 0.12457041
vn 0.47607291 -0.31866149 -0.81963982
vn 0.47607291 -0.31866149 -0.81963982
vn 0.47607291 -0.31866149 -0.81963982
vn 0.06717170 -0.19716896 -0.97806562
vn 0.06717170 -0.19716896 -0.97806562
vn 0.06717170 -0.19716896 -0.97806562
vn -0.27879875 -0.86865486 -0.40952410
vn -0.27879875 -0.86865486 -0.40952410
vn -0.27879875 -0.86865486 -0.40952410
vn -0.27577662 -0.50731534 0.81644253
vn -0.27577662 -0.50731534 0.81644253
vn -0.27577662 -0.50731534 0.81644253
vn -0.19522360 -0.47934976 0.85563518
vn -0.19522360 -0.47934976 0.85563518
vn -0.19522360 -0.47934976 0.85563518
vn 0.05869208 -0.99821540 -0.01101131
vn 0.05869208 -0.99821540 -0.01101131
vn 0.05869208 -0.99821540 -0.01101131
vn 0.16053396 -0.14020908 0.97702112
vn 0.16053396 -0.14020908 0.97702112
vn 0.16053396 -0.14020908 0.97702112
vn 0.18202126 -0.39807776 0.89911198
vn 0.18202126 -0.39807776 0.89911198
vn 0.18202126 -0.39807776 0.89911198
vn 0.73699780 -0.62988347 0.24511438
vn 0.73699780 -0.62988347 0.24511438
vn 0.73699780 -0.62988347 0.24511438
vn 0.51845104 -0.77200138 -0.36772598
vn 0.51845104 -0.77200138 -0.36772598
vn 0.51845104 -0.77200138 -0.36772598
vn 0.33291377 -0.24173820 -0.91144449
vn 0.33291377 -0.24173820 -0.91144449
vn 0.33291377 -0.24173820 -0.91144449
vn -0.03559875 -0.09246087 -0.99507975
vn -0.03559875 -0.09246087 -0.99507975
vn -0.03559875 -0.09246087 -0.99507975
vn -0.17560234 -0.85259416 0.49218596
vn -0.17560234 -0.85259416 0.49218596
vn -0.17560234 -0.85259416 0.49218596
vn 0.18273421 -0.82325312 -0.53745931
vn 0.18273421 -0.82325312 -0.53745931
vn 0.18273421 -0.82325312 -0.53745931
vn -0.25808932 0.14960771 0.95446710
vn -0.25808932 0.14960771 0.95446710
vn -0.25808932 0.14960771 0.95446710
vn 0.54562067 -0.76031245 0.35245292
vn 0.54562067 -0.76031245 0.35245292
vn 0.54562067 -0.76031245 0.35245292
vn 0.58823179 -0.63452867 0.50135489
vn 0.58823179 -0.63452867 0.50135489
vn 0.58823179 -0.63452867 0.50135489
vn 0.66901950 -0.58306794 -0.46091722
vn 0.66901950 -0.58306794 -0.46091722
vn 0.66901950 -0.58306794 -0.46091722
vn 0.05341587 -0.37149914 -0.92689543
vn 0.05341587 -0.37149914 -0.92689543
vn 0.05341587 -0.37149914 -0.92689543
vn -0.11677148 -0.24236322 -0.96313265
vn -0.11677148 -0.24236322 -0.96313265
vn -0.11677148 -0.24236322 -0.96313265
vn -0.06675644 -0.47946821 0.87501646
vn -0.06675644 -0.47946821 0.87501646
vn -0.06675644 -0.47946821 0.87501646
vn -0.25366871 -0.90985884 0.32834293
vn -0.25366871 -0.90985884 0.32834293
vn -0.25366871 -0.90985884 0.32834293
vn 0.42540354 -0.90499573 -0.00381418
vn 0.42540354 -0.90499573 -0.00381418
vn 0.42540354 -0.90499573 -0.00381418
vn -0.29220286 -0.88582945 -0.36044926
vn -0.29220286 -0.88582945 -0.36044926
vn -0.29220286 -0.88582945 -0.36044926
vn -0.00967092 -0.22604066 0.97406986
vn -0.00967092 -0.22604066 0.97406986
vn -0.00967092 -0.22604066 0.97406986
vn 0.67487056 -0.44154270 0.59126117
vn 0.67487056 -0.44154270 0.59126117
vn 0.67487056 -0.44154270 0.59126117
vn 0.64211761 -0.76246717 0.07955370
vn 0.64211761 -0.76246717 0.07955370
vn 0.64211761 -0.76246717 0.07955370
vn 0.34185113 -0.43527617 -0.83287001
vn 0.34185113 -0.43527617 -0.83287001
vn 0.34185113 -0.43527617 -0.83287001
vn 0.61568793 -0.49334860 -0.61443919
vn 0.61568793 -0.49334860 -0.61443919
vn 0.61568793 -0.49334860 -0.61443919
vn 0.07105502 -0.81254030 0.57855807
vn 0.07105502 -0.81254030 0.57855807
vn 0.07105502 -0.81254030 0.57855807
vn -0.16533057 -0.93184816 0.32299352
vn -0.16533057 -0.93184816 0.32299352
vn -0.16533057 -0.93184816 0.32299352
vn -0.27706180 -0.84866212 -0.45056562
vn -0.27706180 -0.84866212 -0.45056562
vn -0.27706180 -0.84866212 -0.45056562
vn 0.17250401 -0.87513837 -0.45207875
vn 0.17250401 -0.87513837 -0.45207875
vn 0.17250401 -0.87513837 -0.45207875
vn -0.09705534 -0.05937274 0.99350649
vn -0.09705534 -0.05937274 0.99350649
vn -0.09705534 -0.05937274 0.99350649
vn 0.69351856 -0.55789544 0.45583405
vn 0.69351856 -0.55789544 0.45583405
vn 0.69351856 -0.55789544 0.45583405
vn 0.61883546 -0.58059954 0.52910004
vn 0.61883546 -0.58059954 0.52910004
vn 0.61883546 -0.58059954 0.52910004
vn 0.48828833 -0.52250651 -0.69897171
vn 0.48828833 -0.52250651 -0.69897171
vn 0.48828833 -0.52250651 -0.69897171
vn 0.49522506 -0.42956366 -0.75513389
vn 0.49522506 -0.42956366 -0.75513389
vn 0.49522506 -0.42956366 -0.75513389
vn -0.28415460 -0.89434761 0.34554091
vn -0.28415460 -0.89434761 0.34554091
vn -0.28415460 -0.89434761 0.34554091
vn 0.56654799 -0.79533431 0.21556137
vn 0.56654799 -0.79533431 0.21556137
vn 0.56654799 -0.79533431 0.21556137
vn -0.42898898 -0.78198457 -0.45218203
vn -0.42898898 -0.78198457 -0.45218203
vn -0.42898898 -0.78198457 -0.45218203
vn 0.62982467 -0.45208544 0.63161669
vn 0.62982467 -0.45208544 0.63161669
vn 0.62982467 -0.45208544 0.63161669
vn 0.55733610 -0.77956286 0.28575902
vn 0.55733610 -0.77956286 0.28575902
vn 0.55733610 -0.77956286 0.28575902
vn 0.64451296 -0.49633558 -0.58159612
vn 0.64451296 -0.49633558 -0.58159612
vn 0.64451296 -0.49633558 -0.58159612
vn 0.12524131 -0.37081626 -0.92022275
vn 0.12524131 -0.37081626 -0.92022275
vn 0.12524131 -0.37081626 -0.92022275
vn -0.11349060 -0.54534489 0.83049313
vn -0.11349060 -0.54534489 0.83049313
vn -0.11349060 -0.54534489 0.83049313
vn -0.30494929 -0.87336576 0.37978703
vn -0.30494929 -0.87336576 0.37978703
vn -0.30494929 -0.87336576 0.37978703
vn 0.40019157 -0.91580815 0.03379567
vn 0.40019157 -0.91580815 0.03379567
vn 0.40019157 -0.91580815 0.03379567
vn -0.32717205 -0.84188764 -0.42916623
vn -0.32717205 -0.84188764 -0.42916623
vn -0.32717205 -0.84188764 -0.42916623
vn 0.01082075 -0.30576793 -0.95204458
vn 0.01082075 -0.30576793 -0.95204458
vn 0.01082075 -0.30576793 -0.95204458
vn 0.12526102 -0.35237750 0.92743721
vn 0.12526102 -0.35237750 0.92743721
vn 0.12526102 -0.35237750 0.92743721
vn 0.62696490 -0.40535904 0.66528119
vn 0.62696490 -0.40535904 0.66528119
vn 0.62696490 -0.40535904 0.66528119
vn 0.55725675 -0.76860869 -0.31417448
vn 0.55725675 -0.76860869 -0.31417448
vn 0.55725675 -0.76860869 -0.31417448
vn 0.57555548 -0.35015877 -0.73900252
vn 0.57555548 -0.35015877 -0.73900252
vn 0.57555548 -0.35015877 -0.73900252
vn -0.03581610 -0.09416882 -0.99491178
vn -0.03581610 -0.09416882 -0.99491178
vn -0.03581610 -0.09416882 -0.99491178
vn -0.33476953 0.49277182 -0.80318447
vn -0.33476953 0.49277182 -0.80318447
vn -0.33476953 0.49277182 -0.80318447
vn -0.67228343 0.57159110 -0.47044511
vn -0.67228343 0.57159110 -0.47044511
vn -0.67228343 0.57159110 -0.47044511
vn -0.68924493 0.70403277 -0.17111192
vn -0.68924493 0.70403277 -0.17111192
vn -0.68924493 0.70403277 -0.17111192
vn -0.69734831 0.48511308 0.52760841
vn -0.69734831 0.48511308 0.52760841
vn -0.69734831 0.48511308 0.52760841
vn -0.21691957 0.33733367 0.91605234
vn -0.21691957 0.33733367 0.91605234
vn -0.21691957 0.33733367 0.91605234
vn -0.86756285 -0.28125356 0.41015989
vn -0.86756285 -0.28125356 0.41015989
vn -0.86756285 -0.28125356 0.41015989
vn -0.82939977 -0.36696780 -0.42122518
vn -0.82939977 -0.36696780 -0.42122518
vn -0.82939977 -0.36696780 -0.42122518
vn -0.76865485 0.62586366 -0.13215294
vn -0.76865485 0.62586366 -0.13215294
vn -0.76865485 0.62586366 -0.13215294
vn -0.31035929 0.33376277 -0.89010085
vn -0.31035929 0.33376277 -0.89010085
vn -0.31035929 0.33376277 -0.89010085
vn -0.51637150 0.40815431 -0.75284164
vn -0.51637150 0.40815431 -0.75284164
vn -0.51637150 0.40815431 -0.75284164
vn -0.62039673 0.77678390 -0.10823431
vn -0.62039673 0.77678390 -0.10823431
vn -0.62039673 0.77678390 -0.10823431
vn -0.73105761 0.64197028 0.23114699
vn -0.73105761 0.64197028 0.23114699
vn -0.73105761 0.64197028 0.23114699
vn -0.29343139 0.39232188 0.87176921
vn -0.29343139 0.39232188 0.87176921
vn -0.29343139 0.39232188 0.87176921
vn -0.21726154 0.06565290 0.97390303
vn -0.21726154 0.06565290 0.97390303
vn -0.21726154 0.06565290 0.97390303
vn -0.51645987 -0.20004564 -0.83261692
vn -0.51645987 -0.20004564 -0.83261692
vn -0.51645987 -0.20004564 -0.83261692
vn -0.98291352 0.17104605 -0.06800193
vn -0.98291352 0.17104605 -0.06800193
vn -0.98291352 0.17104605 -0.06800193
vn -0.99897086 0.04399346 -0.01103651
vn -0.99897086 0.04399346 -0.01103651
vn -0.99897086 0.04399346 -0.01103651
vn -0.23924973 0.00508825 0.97094473
vn -0.23924973 0.00508825 0.97094473
vn -0.23924973 0.00508825 0.97094473
vn -0.76145344 -0.29951327 0.57487430
vn -0.76145344 -0.29951327 0.57487430
vn -0.76145344 -0.29951327 0.57487430
vn -0.49648556 0.42429521 -0.75728176
vn -0.49648556 0.42429521 -0.75728176
vn -0.49648556 0.42429521 -0.75728176
vn -0.36623002 0.42065294 -0.83001607
vn -0.36623002 0.42065294 -0.83001607
vn -0.36623002 0.42065294 -0.83001607
vn -0.67341095 0.73810822 0.04139983
vn -0.67341095 0.73810822 0.04139983
vn -0.67341095 0.73810822 0.04139983
vn -0.72377386 0.60077751 0.33943746
vn -0.72377386 0.60077751 0.33943746
vn -0.72377386 0.60077751 0.33943746
vn -0.20379688 0.37579115 0.90401761
vn -0.20379688 0.37579115 0.90401761
vn -0.20379688 0.37579115 0.90401761
vn -0.43527287 -0.20333881 -0.87703526
vn -0.43527287 -0.20333881 -0.87703526
vn -0.43527287 -0.20333881 -0.87703526
vn -0.81889117 -0.33849390 -0.46350743
vn -0.81889117 -0.33849390 -0.46350743
vn -0.81889117 -0.33849390 -0.46350743
vn -0.99367254 0.10996530 0.02285843
vn -0.99367254 0.10996530 0.02285843
vn -0.99367254 0.10996530 0.02285843
vn -0.93983035 0.33261866 -0.07799835
vn -0.93983035 0.33261866 -0.07799835
vn -0.93983035 0.33261866 -0.07799835
vn -0.64425145 -0.26556151 0.71722880
vn -0.64425145 -0.26556151 0.71722880
vn -0.64425145 -0.26556151 0.71722880
vn -0.73242877 -0.32211388 0.59982560
vn -0.73242877 -0.32211388 0.59982560
vn -0.73242877 -0.32211388 0.59982560
vn -0.09013374 0.23740444 -0.96722026
vn -0.09013374 0.23740444 -0.96722026
vn -0.09013374 0.23740444 -0.96722026
vn -0.44387005 0.33249161 -0.83212301
vn -0.44387005 0.33249161 -0.83212301
vn -0.44387005 0.33249161 -0.83212301
vn -0.77170504 0.59616515 0.22149141
vn -0.77170504 0.59616515 0.22149141
vn -0.77170504 0.59616515 0.22149141
vn -0.64521328 0.75560781 -0.11294535
vn -0.64521328 0.75560781 -0.11294535
vn -0.64521328 0.75560781 -0.11294535
vn -0.17035753 0.32994435 0.92850150
vn -0.17035753 0.32994435 0.92850150
vn -0.17035753 0.32994435 0.92850150
vn -0.61595324 -0.43160449 -0.65902896
vn -0.61595324 -0.43160449 -0.65902896
vn -0.61595324 -0.43160449 -0.65902896
vn -0.99200963 0.10940938 -0.06282100
vn -0.99200963 0.10940938 -0.06282100
vn -0.99200963 0.10940938 -0.06282100
vn -0.96122560 0.24580686 -0.12499736
vn -0.96122560 0.24580686 -0.12499736
vn -0.96122560 0.24580686 -0.12499736
vn -0.87638163 -0.41609373 0.24253090
vn -0.87638163 -0.41609373 0.24253090
vn -0.87638163 -0.41609373 0.24253090
vn -0.70489761 -0.29547855 0.64483469
vn -0.70489761 -0.29547855 0.64483469
vn -0.70489761 -0.29547855 0.64483469
vn -0.15951677 0.27300391 -0.94869556
vn -0.15951677 0.27300391 -0.94869556
vn -0.15951677 0.27300391 -0.94869556
vn -0.73880144 0.58482914 -0.33488401
vn -0.73880144 0.58482914 -0.33488401
vn -0.73880144 0.58482914 -0.33488401
vn -0.59512266 0.80337336 0.02050039
vn -0.59512266 0.80337336 0.02050039
vn -0.59512266 0.80337336 0.02050039
vn -0.35921074 0.16201643 0.91908559
vn -0.35921074 0.16201643 0.91908559
vn -0.35921074 0.16201643 0.91908559
vn -0.51286331 -0.47317940 -0.71629078
vn -0.51286331 -0.47317940 -0.71629078
vn -0.51286331 -0.47317940 -0.71629078
vn -0.99269886 0.12060364 -0.00193184
vn -0.99269886 0.12060364 -0.00193184
vn -0.99269886 0.12060364 -0.00193184
vn -0.99781451 0.06278861 -0.02058620
vn -0.99781451 0.06278861 -0.02058620
vn -0.99781451 0.06278861 -0.02058620
vn -0.40948876 -0.20571497 0.88881961
vn -0.40948876 -0.20571497 0.88881961
vn -0.40948876 -0.20571497 0.88881961
vn -0.40459492 0.59204544 -0.69698289
vn -0.40459492 0.59204544 -0.69698289
vn -0.40459492 0.59204544 -0.69698289
vn -0.62065719 0.59512775 -0.51049741
vn -0.62065719 0.59512775 -0.51049741
vn -0.62065719 0.59512775 -0.51049741
vn -0.65593581 0.59388810 0.46588103
vn -0.65593581 0.59388810 0.46588103
vn -0.65593581 0.59388810 0.46588103
vn -0.56070988 0.61187100 0.55786945
vn -0.56070988 0.61187100 0.55786945
vn -0.56070988 0.61187100 0.55786945
vn -0.53694086 -0.07715960 -0.84008387
vn -0.53694086 -0.07715960 -0.84008387
vn -0.53694086 -0.07715960 -0.84008387
vn -0.87083717 -0.30527949 -0.38528827
vn -0.87083717 -0.30527949 -0.38528827
vn -0.87083717 -0.30527949 -0.38528827
vn -0.79309625 0.57202542 0.20924929
vn -0.79309625 0.57202542 0.20924929
vn -0.79309625 0.57202542 0.20924929
vn -0.91264923 -0.22271186 0.34274014
vn -0.91264923 -0.22271186 0.34274014
vn -0.91264923 -0.22271186 0.34274014
vn -0.56443729 0.51523668 -0.64493543
vn -0.56443729 0.51523668 -0.64493543
vn -0.56443729 0.51523668 -0.64493543
vn -0.35735408 0.47525750 -0.80400770
vn -0.35735408 0.47525750 -0.80400770
vn -0.35735408 0.47525750 -0.80400770
vn -0.64867031 0.73498471 0.19754570
vn -0.64867031 0.73498471 0.19754570
vn -0.64867031 0.73498471 0.19754570
vn -0.69237398 0.63623583 0.34032665
vn -0.69237398 0.63623583 0.34032665
vn -0.69237398 0.63623583 0.34032665
vn -0.83348500 -0.35534098 -0.42312593
vn -0.83348500 -0.35534098 -0.42312593
vn -0.83348500 -0.35534098 -0.42312593
vn -0.98693375 -0.11002392 0.11771369
vn -0.98693375 -0.11002392 0.11771369
vn -0.98693375 -0.11002392 0.11771369
vn -0.82694539 0.53511074 -0.17267834
vn -0.82694539 0.53511074 -0.17267834
vn -0.82694539 0.53511074 -0.17267834
vn -0.33717586 -0.09765489 0.93636316
vn -0.33717586 -0.09765489 0.93636316
vn -0.33717586 -0.09765489 0.93636316
vn -0.40395897 0.35310673 -0.84387961
vn -0.40395897 0.35310673 -0.84387961
vn -0.40395897 0.35310673 -0.84387961
vn -0.41720876 0.55061807 -0.72301908
vn -0.41720876 0.55061807 -0.72301908
vn -0.41720876 0.55061807 -0.72301908
vn -0.75197120 0.60707872 0.25689441
vn -0.75197120 0.60707872 0.25689441
vn -0.75197120 0.60707872 0.25689441
vn -0.58837996 0.66555886 0.45917363
vn -0.58837996 0.66555886 0.45917363
vn -0.58837996 0.66555886 0.45917363
vn -0.23340428 -0.15313129 0.96024645
vn -0.23340428 -0.15313129 0.96024645
vn -0.23340428 -0.15313129 0.96024645
vn -0.85095288 -0.35831160 -0.38404686
vn -0.85095288 -0.35831160 -0.38404686
vn -0.85095288 -0.35831160 -0.38404686
vn -0.72415098 0.67441393 -0.14412220
vn -0.72415098 0.67441393 -0.14412220
vn -0.72415098 0.67441393 -0.14412220
vn -0.93875097 -0.23583400 0.25125474
vn -0.93875097 -0.23583400 0.25125474
vn -0.93875097 -0.23583400 0.25125474
vn -0.73291849 -0.68031602 -0.00077614
vn -0.73382965 -0.67933351 -0.00014547
vn -0.73354645 -0.67963924 -0.00034161
vn -0.73403959 -0.67910668 0.00000000
vn -0.78518407 -0.61357138 0.08376241
vn -0.78518407 -0.61357138 0.08376241
vn -0.78518407 -0.61357138 0.08376241
vn -0.82604107 -0.55240471 -0.11182657
vn -0.82604107 -0.55240471 -0.11182657
vn -0.82604107 -0.55240471 -0.11182657
vn -0.71515469 -0.61770728 -0.32709552
vn -0.71515469 -0.61770728 -0.32709552
vn -0.71515469 -0.61770728 -0.32709552
vn -0.81916556 -0.55285528 -0.15270500
vn -0.81916556 -0.55285528 -0.15270500
vn -0.81916556 -0.55285528 -0.15270500
vn -0.03991303 -0.02642445 -0.99885369
vn -0.03991303 -0.02642445 -0.99885369
vn -0.03991303 -0.02642445 -0.99885369
vn 0.61721986 -0.78679072 0.00000000
vn 0.61721986 -0.78679072 0.00000000
vn 0.61721986 -0.78679072 0.00000000
vn 0.70681948 -0.70681960 0.02850062
vn 0.70681948 -0.70681960 0.02850062
vn 0.70681948 -0.70681960 0.02850062
vn -0.00004301 0.00004301 1.00000000
vn -0.00004301 0.00004301 1.00000000
vn -0.00004301 0.00004301 1.00000000
vn -0.18067164 -0.12687482 0.97532586
vn -0.18067164 -0.12687482 0.97532586
vn -0.18067164 -0.12687482 0.97532586
vn 0.91064427 -0.36905943 -0.18580138
vn 0.91064427 -0.36905943 -0.18580138
vn 0.91064427 -0.36905943 -0.18580138
vn -0.92878608 0.33570269 -0.15703544
vn -0.92878608 0.33570269 -0.15703544
vn -0.92878608 0.33570269 -0.15703544
vn -0.69532371 0.71560164 -0.06662764
vn -0.69532371 0.71560164 -0.06662764
vn -0.69532371 0.71560164 -0.06662764
vn -0.75256237 -0.65852051 -0.00078791
vn -0.75256237 -0.65852051 -0.00078791
vn -0.75256237 -0.65852051 -0.00078791
vn -0.56794194 -0.82230572 0.03542964
vn -0.56794194 -0.82230572 0.03542964
vn -0.56794194 -0.82230572 0.03542964
vn -0.68712951 -0.71506848 -0.12856950
vn -0.68712951 -0.71506848 -0.12856950
vn -0.68712951 -0.71506848 -0.12856950
vn -0.70565037 -0.70855955 -0.00095985
vn -0.70709333 -0.70711956 -0.00097967
vn -0.70780649 -0.70640637 0.00010950
vn -0.70684873 -0.70736061 -0.00241857
vn -0.70641684 -0.70778368 -0.00418439
vn -0.70525591 -0.70894594 -0.00312337
vn -0.70530836 -0.70757707 0.04329913
vn -0.70530836 -0.70757707 0.04329913
vn -0.70530836 -0.70757707 0.04329913
vn -0.71818144 -0.69582585 0.00646571
vn -0.71818144 -0.69582585 0.00646571
vn -0.71818144 -0.69582585 0.00646571
vn -0.70772656 -0.70648540 -0.00122110
vn -0.71261539 -0.70155421 0.00099916
vn -0.71227328 -0.70190205 -0.00053087
vn -0.71272228 -0.70144573 -0.00091426
vn -0.74624935 -0.66059363 -0.08202412
vn -0.74624935 -0.66059363 -0.08202412
vn -0.74624935 -0.66059363 -0.08202412
vn -0.74336666 -0.65876277 -0.11592074
vn -0.74336666 -0.65876277 -0.11592074
vn -0.74336666 -0.65876277 -0.11592074
vn -0.69987093 -0.71422043 -0.00835800
vn -0.69987093 -0.71422043 -0.00835800
vn -0.69987093 -0.71422043 -0.00835800
vn -0.70739605 -0.70681372 0.00227934
vn -0.70622596 -0.70798020 0.00298818
vn -0.70578797 -0.70841928 0.00233800
vn -0.70897747 -0.70523016 0.00117261
vn -0.75771309 -0.65255721 0.00632100
vn -0.75771309 -0.65255721 0.00632100
vn -0.75771309 -0.65255721 0.00632100
vn -0.70105515 -0.71310702 -0.00021232
vn -0.70158883 -0.71258154 -0.00081722
vn -0.70242847 -0.71175214 -0.00177042
vn -0.70348829 -0.71070680 -0.00026663
vn -0.70348829 -0.71070680 -0.00026663
vn -0.70348829 -0.71070680 -0.00026663
vn -0.70604919 -0.70816195 0.00109278
vn -0.70711257 -0.70709845 -0.00189696
vn -0.70490784 -0.70929887 0.00021230
vn -0.70157936 -0.71258840 0.00204057
vn -0.70157936 -0.71258840 0.00204057
vn -0.70157936 -0.71258840 0.00204057
vn -0.65333907 -0.75625578 0.03500372
vn -0.65333907 -0.75625578 0.03500372
vn -0.65333907 -0.75625578 0.03500372
vn -0.71216716 -0.70199974 -0.00378134
vn -0.70999991 -0.70407112 -0.01356434
vn -0.70999991 -0.70407112 -0.01356434
vn -0.70999991 -0.70407112 -0.01356434
vn -0.75095587 -0.66026273 -0.01088135
vn -0.75095587 -0.66026273 -0.01088135
vn -0.75095587 -0.66026273 -0.01088135
vn -0.71147819 -0.70270632 0.00161500
vn -0.71116442 -0.70302567 -0.00027854
vn -0.71147819 -0.70270632 0.00161500
vn -0.50029643 -0.36825587 0.78363964
vn -0.50029643 -0.36825587 0.78363964
vn -0.50029643 -0.36825587 0.78363964
vn -0.71244787 -0.70170145 -0.00575336
vn -0.71244787 -0.70170145 -0.00575336
vn -0.71244787 -0.70170145 -0.00575336
vn -0.71073795 -0.70345119 -0.00282657
vn -0.62112614 -0.78369866 0.00432764
vn -0.62112614 -0.78369866 0.00432764
vn -0.62112614 -0.78369866 0.00432764
vn -0.70726920 -0.70693744 -0.00311979
vn -0.70726920 -0.70693744 -0.00311979
vn -0.70726920 -0.70693744 -0.00311979
vn -0.58537021 -0.80935985 -0.04773202
vn -0.58537021 -0.80935985 -0.04773202
vn -0.58537021 -0.80935985 -0.04773202
vn -0.63688951 -0.76901790 -0.05461886
vn -0.63688951 -0.76901790 -0.05461886
vn -0.63688951 -0.76901790 -0.05461886
vn -0.64508967 -0.75976391 -0.08135190
vn -0.64508967 -0.75976391 -0.08135190
vn -0.64508967 -0.75976391 -0.08135190
vn -0.51882452 -0.80019948 -0.30083536
vn -0.51882452 -0.80019948 -0.30083536
vn -0.51882452 -0.80019948 -0.30083536
vn -0.73621125 -0.66709975 -0.11388992
vn -0.73621125 -0.66709975 -0.11388992
vn -0.73621125 -0.66709975 -0.11388992
vn -0.70923890 -0.70495839 0.00372166
vn -0.70923890 -0.70495839 0.00372166
vn -0.70923890 -0.70495839 0.00372166
vn -0.70639243 -0.70780305 -0.00495756
vn -0.70547421 -0.70872541 -0.00379938
vn -0.70006569 -0.71407787 0.00090726
vn -0.70547422 -0.70873283 -0.00197316
vn -0.70428406 -0.70983073 -0.01114858
vn -0.70428406 -0.70983073 -0.01114858
vn -0.70428406 -0.70983073 -0.01114858
vn -0.70767344 -0.70639842 0.01412688
vn -0.70767344 -0.70639842 0.01412688
vn -0.70767344 -0.70639842 0.01412688
vn -0.70795129 -0.70619437 0.00972036
vn -0.70795129 -0.70619437 0.00972036
vn -0.70795129 -0.70619437 0.00972036
vn -0.68989565 -0.69743719 -0.19397257
vn -0.68989565 -0.69743719 -0.19397257
vn -0.68989565 -0.69743719 -0.19397257
vn -0.70780937 -0.70640308 0.00076396
vn -0.70768810 -0.70652473 -0.00060428
vn -0.67979546 -0.73274165 -0.03110977
vn -0.67979546 -0.73274165 -0.03110977
vn -0.67979546 -0.73274165 -0.03110977
vn -0.71239217 -0.70178118 0.00075220
vn -0.71265603 -0.70151345 0.00050402
vn -0.71704902 -0.69566851 -0.04342847
vn -0.71704902 -0.69566851 -0.04342847
vn -0.71704902 -0.69566851 -0.04342847
vn -0.75214234 -0.65852159 -0.02512385
vn -0.75214234 -0.65852159 -0.02512385
vn -0.75214234 -0.65852159 -0.02512385
vn -0.75706373 -0.65063778 0.05937163
vn -0.75706373 -0.65063778 0.05937163
vn -0.75706373 -0.65063778 0.05937163
vn -0.71508868 -0.69678700 -0.05600052
vn -0.71508868 -0.69678700 -0.05600052
vn -0.71508868 -0.69678700 -0.05600052
vn -0.71730066 -0.69675864 0.00267605
vn -0.71730066 -0.69675864 0.00267605
vn -0.71730066 -0.69675864 0.00267605
vn -0.72843209 -0.68398007 0.03947093
vn -0.72843209 -0.68398007 0.03947093
vn -0.72843209 -0.68398007 0.03947093
vn -0.70965483 -0.70440834 0.01410379
vn -0.70965483 -0.70440834 0.01410379
vn -0.70965483 -0.70440834 0.01410379
vn -0.76327672 -0.64584219 -0.01721963
vn -0.76327672 -0.64584219 -0.01721963
vn -0.76327672 -0.64584219 -0.01721963
vn -0.71301889 -0.70113871 -0.00292892
vn -0.71301889 -0.70113871 -0.00292892
vn -0.71301889 -0.70113871 -0.00292892
vn -0.70199651 -0.71195375 0.01796541
vn -0.70194196 -0.71200841 0.01793076
vn -0.70246188 -0.71148706 0.01826118
vn -0.70126513 -0.71288892 0.00407455
vn -0.70113398 -0.71301846 0.00397672
vn -0.70028645 -0.71385411 0.00334502
vn -0.70138125 -0.71256963 0.01757471
vn -0.71045951 -0.70369348 -0.00792260
vn -0.71045951 -0.70369348 -0.00792260
vn -0.71045951 -0.70369348 -0.00792260
vn -0.70220510 -0.71195870 0.00477641
vn -0.69745801 -0.71650643 -0.01307150
vn -0.69745801 -0.71650643 -0.01307150
vn -0.69745801 -0.71650643 -0.01307150
vn -0.70409505 -0.71010274 -0.00206484
vn -0.65920013 -0.74415005 0.10814754
vn -0.65920013 -0.74415005 0.10814754
vn -0.65920013 -0.74415005 0.10814754
vn -0.65871360 -0.74343107 0.11578701
vn -0.65871360 -0.74343107 0.11578701
vn -0.65871360 -0.74343107 0.11578701
vn -0.63304178 -0.77409119 0.00639764
vn -0.63304178 -0.77409119 0.00639764
vn -0.63304178 -0.77409119 0.00639764
vn -0.96744492 -0.10386079 -0.23078835
vn -0.96744492 -0.10386079 -0.23078835
vn -0.96744492 -0.10386079 -0.23078835
vn -0.68695854 -0.42317605 0.59077067
vn -0.68695854 -0.42317605 0.59077067
vn -0.68695854 -0.42317605 0.59077067
vn -0.79419662 0.10482512 -0.59855111
vn -0.79419662 0.10482512 -0.59855111
vn -0.79419662 0.10482512 -0.59855111
vn -0.68047418 -0.38549043 0.62317896
vn -0.68047418 -0.38549043 0.62317896
vn -0.68047418 -0.38549043 0.62317896
vn -0.78936721 -0.39427225 -0.47058347
vn -0.78936721 -0.39427225 -0.47058347
vn -0.78936721 -0.39427225 -0.47058347
vn -0.69059305 -0.26715020 -0.67209524
vn -0.69059305 -0.26715020 -0.67209524
vn -0.69059305 -0.26715020 -0.67209524
vn -0.76350093 0.08093919 0.64071458
vn -0.76350093 0.08093919 0.64071458
vn -0.76350093 0.08093919 0.64071458
vn -0.47451328 -0.45329286 -0.75456128
vn -0.47451328 -0.45329286 -0.75456128
vn -0.47451328 -0.45329286 -0.75456128
vn -0.92205861 -0.29687029 0.24834642
vn -0.92205861 -0.29687029 0.24834642
vn -0.92205861 -0.29687029 0.24834642
vn -0.95415137 -0.12754737 0.27078926
vn -0.95415137 -0.12754737 0.27078926
vn -0.95415137 -0.12754737 0.27078926
vn -0.95500185 0.29440685 0.03600099
vn -0.95500185 0.29440685 0.03600099
vn -0.95500185 0.29440685 0.03600099
vn -0.95498902 -0.25959340 -0.14355224
vn -0.95498902 -0.25959340 -0.14355224
vn -0.95498902 -0.25959340 -0.14355224
vn -0.55909587 0.75263865 0.34777416
vn -0.55909587 0.75263865 0.34777416
vn -0.55909587 0.75263865 0.34777416
vn -0.67495727 0.60789261 0.41820958
vn -0.67495727 0.60789261 0.41820958
vn -0.67495727 0.60789261 0.41820958
vn -0.07588972 -0.05738865 -0.99546336
vn -0.07588972 -0.05738865 -0.99546336
vn -0.07588972 -0.05738865 -0.99546336
vn 0.07752619 0.22865031 -0.97041678
vn 0.07752619 0.22865031 -0.97041678
vn 0.07752619 0.22865031 -0.97041678
vn -0.42191294 0.62487318 0.65690409
vn -0.42191294 0.62487318 0.65690409
vn -0.42191294 0.62487318 0.65690409
vn -0.53507404 0.42644857 0.72927182
vn -0.53507404 0.42644857 0.72927182
vn -0.53507404 0.42644857 0.72927182
vn -0.34894015 0.22842565 -0.90887980
vn -0.34894015 0.22842565 -0.90887980
vn -0.34894015 0.22842565 -0.90887980
vn -0.19016668 0.54533897 -0.81635901
vn -0.19016668 0.54533897 -0.81635901
vn -0.19016668 0.54533897 -0.81635901
vn -0.19359384 0.46039726 0.86634623
vn -0.19359384 0.46039726 0.86634623
vn -0.19359384 0.46039726 0.86634623
vn -0.34529300 0.10795370 0.93226538
vn -0.34529300 0.10795370 0.93226538
vn -0.34529300 0.10795370 0.93226538
vn -0.63152138 0.38248811 -0.67445059
vn -0.63152138 0.38248811 -0.67445059
vn -0.63152138 0.38248811 -0.67445059
vn 0.06533085 0.21104587 0.97529048
vn 0.06533085 0.21104587 0.97529048
vn 0.06533085 0.21104587 0.97529048
vn -0.43546611 0.78297207 -0.44421167
vn -0.43546611 0.78297207 -0.44421167
vn -0.43546611 0.78297207 -0.44421167
vn -0.70006420 0.62069442 -0.35305603
vn -0.70006420 0.62069442 -0.35305603
vn -0.70006420 0.62069442 -0.35305603
vn -0.58950518 0.80690858 -0.03717766
vn -0.58950518 0.80690858 -0.03717766
vn -0.58950518 0.80690858 -0.03717766
vn -0.74928496 0.66094527 0.04151391
vn -0.74928496 0.66094527 0.04151391
vn -0.74928496 0.66094527 0.04151391
vn 0.69078955 0.72248922 -0.02862056
vn 0.68906676 0.72422685 -0.02612412
vn 0.68906676 0.72422685 -0.02612412
vn 0.68363110 0.72952640 -0.02097027
vn 0.68670413 0.72660282 -0.02204063
vn 0.68537246 0.72787297 -0.02157629
vn 0.68934628 0.72347527 -0.03721873
vn 0.68934628 0.72347527 -0.03721873
vn 0.68934628 0.72347527 -0.03721873
vn 0.69451922 0.71871499 -0.03304276
vn 0.69518465 0.71807934 -0.03286894
vn 0.67718780 0.73551518 -0.02083530
vn 0.67718780 0.73551518 -0.02083530
vn 0.67718780 0.73551518 -0.02083530
vn 0.68241590 0.73067524 -0.02054815
vn 0.68063854 0.73250176 -0.01312841
vn 0.68063854 0.73250176 -0.01312841
vn 0.68063854 0.73250176 -0.01312841
vn 0.69586958 0.71742380 -0.03268983
vn 0.69999016 0.71323994 -0.03609107
vn 0.69999016 0.71323994 -0.03609107
vn 0.69999016 0.71323994 -0.03609107
vn 0.68140405 0.73189134 -0.00485744
vn 0.68098577 0.73228361 -0.00437055
vn 0.68113631 0.73214216 -0.00460321
vn 0.70329089 0.70944662 -0.04546895
vn 0.70329089 0.70944662 -0.04546895
vn 0.70329089 0.70944662 -0.04546895
vn 0.70873752 0.70469139 -0.03318392
vn 0.70873752 0.70469139 -0.03318392
vn 0.70873752 0.70469139 -0.03318392
vn 0.68125426 0.73203083 -0.00484783
vn 0.68118028 0.73209997 -0.00480174
vn 0.69033650 0.72338100 0.01246727
vn 0.69033650 0.72338100 0.01246727
vn 0.69033650 0.72338100 0.01246727
vn 0.70674967 0.70658316 -0.03528663
vn 0.70674967 0.70658316 -0.03528663
vn 0.70674967 0.70658316 -0.03528663
vn 0.69127540 0.72258759 -0.00234351
vn 0.69127540 0.72258759 -0.00234351
vn 0.69127540 0.72258759 -0.00234351
vn 0.68184317 0.73130884 0.01665136
vn 0.68184317 0.73130884 0.01665136
vn 0.68341176 0.72975522 0.02014163
vn 0.71680179 0.69624858 -0.03785648
vn 0.71680179 0.69624858 -0.03785648
vn 0.71680179 0.69624858 -0.03785648
vn 0.68105718 0.73204911 0.01628571
vn 0.68105718 0.73204911 0.01628571
vn 0.68105718 0.73204911 0.01628571
vn 0.72102875 0.69162892 -0.04203532
vn 0.72118109 0.69154862 -0.04072280
vn 0.72092080 0.69168471 -0.04295889
vn 0.72137761 0.69144220 -0.03901304
vn 0.68468589 0.72847541 0.02299574
vn 0.68468589 0.72847541 0.02299574
vn 0.72920304 0.68354129 -0.03215939
vn 0.72832591 0.68448093 -0.03205053
vn 0.72695671 0.68594283 -0.03188079
vn 0.68518463 0.72770953 0.03099791
vn 0.68440960 0.72843756 0.03101959
vn 0.68342004 0.72936487 0.03104719
vn 0.73009130 0.68258726 -0.03226974
vn 0.68656888 0.72640533 0.03095904
vn 0.72879305 0.68433923 -0.02324870
vn 0.72879305 0.68433923 -0.02324870
vn 0.72879305 0.68433923 -0.02324870
vn 0.69133406 0.72153040 0.03809317
vn 0.69135220 0.72145337 0.03920676
vn 0.69134120 0.72150063 0.03852517
vn 0.69132809 0.72155481 0.03773761
vn 0.73250788 0.68057479 -0.01581680
vn 0.73182471 0.68129985 -0.01622048
vn 0.73273379 0.68033465 -0.01568320
vn 0.72880963 0.68471430 -0.00168592
vn 0.72640669 0.68725277 -0.00411679
vn 0.72640669 0.68725277 -0.00411679
vn 0.73312570 0.67991761 -0.01545129
vn 0.69920954 0.71408362 0.03450518
vn 0.69702410 0.71619289 0.03500224
vn 0.69702410 0.71619289 0.03500224
vn 0.72740802 0.68615323 -0.00844481
vn 0.72740802 0.68615323 -0.00844481
vn 0.72740802 0.68615323 -0.00844481
vn 0.70564298 0.70727415 0.04279323
vn 0.70564298 0.70727415 0.04279323
vn 0.70564298 0.70727415 0.04279323
vn 0.70259288 0.71079209 0.03373203
vn 0.70259288 0.71079209 0.03373203
vn 0.72829545 0.68526325 0.00013122
vn 0.72911622 0.68438977 -0.00043032
vn 0.72766969 0.68592738 0.00066841
vn 0.70449225 0.70895601 0.03274208
vn 0.70449225 0.70895601 0.03274208
vn 0.70449225 0.70895601 0.03274208
vn 0.72780597 0.68578297 0.00043278
vn 0.71153273 0.70156460 0.03909331
vn 0.71153273 0.70156460 0.03909331
vn 0.71153273 0.70156460 0.03909331
vn 0.71333446 0.69994775 0.03502990
vn 0.71333446 0.69994775 0.03502990
vn 0.71333446 0.69994775 0.03502990
vn 0.73134673 0.68172170 0.01968471
vn 0.73134673 0.68172170 0.01968471
vn 0.73134673 0.68172170 0.01968471
vn 0.72998123 0.68317383 0.02002295
vn 0.72992262 0.68323482 0.02007879
vn 0.72995269 0.68320353 0.02005014
vn 0.71797443 0.69530582 0.03259653
vn 0.71867855 0.69456597 0.03285202
vn 0.71733337 0.69597801 0.03236413
vn 0.73001206 0.68314175 0.01999359
vn 0.71921967 0.69399630 0.03304855
vn 0.72797984 0.68458215 0.03731811
vn 0.72795058 0.68462457 0.03710988
vn 0.72577144 0.68679040 0.03968326
vn 0.72909539 0.68395175 0.02509793
vn 0.72909539 0.68395175 0.02509793
vn 0.72909539 0.68395175 0.02509793
vn 0.73047034 0.68204496 0.03503934
vn 0.73022169 0.68231100 0.03504257
f 1//1 2//2 3//3
f 4//4 5//5 6//6
f 7//7 8//8 9//9
f 10//10 11//11 12//12
f 13//13 14//14 15//15
f 16//16 17//17 18//18
f 19//19 20//20 21//21
f 22//22 23//23 24//24
f 25//25 26//26 27//27
f 28//28 29//29 30//30
f 31//31 32//32 33//33
f 34//34 35//35 36//36
f 37//37 38//38 39//39
f 40//40 41//41 42//42
f 43//43 44//44 45//45
f 46//46 47//47 48//48
f 49//49 50//50 51//51
f 52//52 53//53 54//54
f 55//55 56//56 57//57
f 58//58 59//59 60//60
f 61//61 62//62 63//63
f 64//64 65//65 66//66
f 67//67 68//68 69//69
f 70//70 71//71 72//72
f 73//73 74//74 75//75
f 76//76 77//77 78//78
f 79//79 80//80 81//81
f 82//82 83//83 84//84
f 85//85 86//86 87//87
f 88//88 89//89 90//90
f 91//91 92//92 93//93
f 94//94 95//95 96//96
f 97//97 98//98 99//99
f 100//100 101//101 102//102
f 103//103 104//104 105//105
f 106//106 107//107 108//108
f 109//109 110//110 111//111
f 112//112 113//113 114//114
f 115//115 116//116 117//117
f 118//118 119//119 120//120
f 121//121 122//122 123//123
f 124//124 125//125 126//126
f 127//127 128//128 129//129
f 130//130 131//131 132//132
f 133//133 134//134 135//135
f 136//136 137//137 138//138
f 139//139 140//140 141//141
f 142//142 143//143 144//144
f 145//145 146//146 147//147
f 148//148 149//149 150//150
f 151//151 152//152 153//153
f 154//154 155//155 156//156
f 157//157 158//158 159//159
f 160//160 161//161 162//162
f 163//163 164//164 165//165
f 166//166 167//167 168//168
f 169//169 170//170 171//171
f 172//172 173//173 174//174
f 175//175 176//176 177//177
f 178//178 179//179 180//180
f 181//181 182//182 183//183
f 184//184 185//185 186//186
f 187//187 188//188 189//189
f 190//190 191//191 192//192
f 193//193 194//194 195//195
f 196//196 197//197 198//198
f 199//199 200//200 201//201
f 202//202 203//203 204//204
f 205//205 206//206 207//207
f 208//208 209//209 210//210
f 211//211 212//212 213//213
f 214//214 215//215 216//216
f 217//217 218//218 219//219
f 220//220 221//221 222//222
f 223//223 224//224 225//225
f 226//226 227//227 228//228
f 229//229 230//230 231//231
f 232//232 233//233 234//234
f 235//235 236//236 237//237
f 238//238 239//239 240//240
f 241//241 242//242 243//243
f 244//244 245//245 246//246
f 247//247 248//248 249//249
f 250//250 251//251 252//252
f 253//253 254//254 255//255
f 256//256 257//257 258//258
f 259//259 260//260 261//261
f 262//262 263//263 264//264
f 265//265 266//266 267//267
f 268//268 269//269 270//270
f 271//271 272//272 273//273
f 274//274 275//275 276//276
f 277//277 278//278 279//279
f 280//280 281//281 282//282
f 283//283 284//284 285//285
f 286//286 287//287 288//288
f 289//289 290//290 291//291
f 292//292 293//293 294//294
f 295//295 296//296 297//297
f 298//298 299//299 300//300
f 301//301 302//302 303//303
f 304//304 305//305 306//306
f 307//307 308//308 309//309
f 310//310 311//311 312//312
f 313//313 314//314 315//315
f 316//316 317//317 318//318
f 319//319 320//320 321//321
f 322//322 323//323 324//324
f 325//325 326//326 327//327
f 328//328 329//329 330//330
f 331//331 332//332 333//333
f 334//334 335//335 336//336
f 337//337 338//338 339//339
f 340//340 341//341 342//342
f 343//343 344//344 345//345
f 346//346 347//347 348//348
f 349//349 350//350 351//351
f 352//352 353//353 354//354
f 355//355 356//356 357//357
f 358//358 359//359 360//360
f 361//361 362//362 363//363
f 364//364 365//365 366//366
f 367//367 368//368 369//369
f 370//370 371//371 372//372
f 373//373 374//374 375//375
f 376//376 377//377 378//378
f 379//379 380//380 381//381
f 382//382 383//383 384//384
f 385//385 386//386 387//387
f 388//388 389//389 390//390
f 391//391 392//392 393//393
f 394//394 395//395 396//396
f 397//397 398//398 399//399
f 400//400 401//401 402//402
f 403//403 404//404 405//405
f 406//406 407//407 408//408
f 409//409 410//410 411//411
f 412//412 413//413 414//414
f 415//415 416//416 417//417
f 418//418 419//419 420//420
f 421//421 422//422 423//423
f 424//424 425//425 426//426
f 427//427 428//428 429//429
f 430//430 431//431 432//432
f 433//433 434//434 435//435
f 436//436 437//437 438//438
f 439//439 440//440 441//441
f 442//442 443//443 444//444
f 445//445 446//446 447//447
f 448//448 449//449 450//450
f 451//451 452//452 453//453
f 454//454 455//455 456//456
f 457//457 458//458 459//459
f 460//460 461//461 462//462
f 463//463 464//464 465//465
f 466//466 467//467 468//468
f 469//469 470//470 471//471
f 472//472 473//473 474//474
f 475//475 476//476 477//477
f 478//478 479//479 480//480
f 481//481 482//482 483//483
f 484//484 485//485 486//486
f 487//487 488//488 489//489
f 490//490 491//491 492//492
f 493//493 494//494 495//495
f 496//496 497//497 498//498
f 499//499 500//500 501//501
f 502//502 503//503 504//504
f 505//505 506//506 507//507
f 508//508 509//509 510//510
f 511//511 512//512 513//513
f 514//514 515//515 516//516
f 517//517 518//518 519//519
f 520//520 521//521 522//522
f 523//523 524//524 525//525
f 526//526 527//527 528//528
f 527//527 529//529 528//528
f 530//530 531//531 532//532
f 533//533 534//534 535//535
f 536//536 537//537 538//538
f 539//539 540//540 541//541
f 542//542 543//543 544//544
f 545//545 546//546 547//547
f 548//548 549//549 550//550
f 551//551 552//552 553//553
f 554//554 555//555 556//556
f 557//557 558//558 559//559
f 560//560 561//561 562//562
f 563//563 564//564 565//565
f 566//566 567//567 568//568
f 569//569 570//570 571//571
f 572//572 573//573 574//574
f 575//575 576//576 577//577
f 578//578 579//579 580//580
f 581//581 582//582 583//583
f 584//584 585//585 586//586
f 577//577 576//576 587//587
f 588//588 589//589 590//590
f 591//591 592//592 593//593
f 594//594 595//595 596//596
f 597//597 598//598 599//599
f 600//600 601//601 602//602
f 600//600 603//603 601//601
f 604//604 605//605 606//606
f 607//607 608//608 609//609
f 610//610 611//611 612//612
f 613//613 614//614 602//602
f 601//601 615//615 602//602
f 616//616 617//617 618//618
f 615//615 613//613 602//602
f 619//619 620//620 621//621
f 590//590 589//589 622//622
f 623//623 624//624 625//625
f 626//626 627//627 628//628
f 629//629 630//630 631//631
f 632//632 633//633 634//634
f 635//635 636//636 637//637
f 589//589 630//630 638//638
f 639//639 640//640 641//641
f 642//642 643//643 644//644
f 645//645 646//646 647//647
f 615//615 575//575 613//613
f 648//648 649//649 650//650
f 651//651 652//652 653//653
f 654//654 655//655 656//656
f 657//657 658//658 659//659
f 660//660 661//661 662//662
f 614//614 663//663 664//664
f 607//607 665//665 608//608
f 666//666 575//575 615//615
f 667//667 668//668 669//669
f 670//670 671//671 672//672
f 673//673 674//674 675//675
f 676//676 677//677 678//678
f 587//587 679//679 680//680
f 681//681 682//682 683//683
f 684//684 588//588 685//685
f 686//686 687//687 688//688
f 689//689 690//690 691//691
f 679//679 578//578 680//680
f 692//692 693//693 694//694
f 695//695 696//696 697//697
f 698//698 699//699 700//700
f 701//701 702//702 703//703
f 704//704 705//705 706//706
f 707//707 708//708 709//709
f 710//710 711//711 712//712
f 713//713 714//714 715//715
f 716//716 717//717 718//718
f 719//719 714//714 713//713
f 720//720 721//721 722//722
f 723//723 717//717 716//716
f 724//724 725//725 726//726
f 664//664 727//727 580//580
f 728//728 729//729 730//730
f 731//731 732//732 733//733
f 666//666 576//576 575//575
f 734//734 735//735 736//736
f 684//684 589//589 588//588
f 737//737 738//738 739//739
f 740//740 741//741 742//742
f 743//743 744//744 745//745
f 746//746 747//747 748//748
f 749//749 750//750 751//751
f 752//752 753//753 754//754
f 755//755 756//756 757//757
f 758//758 759//759 760//760
f 761//761 762//762 763//763
f 764//764 765//765 766//766
f 767//767 768//768 769//769
f 770//770 771//771 772//772
f 773//773 774//774 775//775
f 776//776 777//777 778//778
f 779//779 780//780 781//781
f 782//782 783//783 784//784
f 785//785 786//786 787//787
f 788//788 789//789 790//790
f 791//791 792//792 793//793
f 794//794 795//795 796//796
f 797//797 798//798 799//799
f 800//800 801//801 802//802
f 803//803 804//804 805//805
f 806//806 807//807 808//808
f 809//809 810//810 811//811
f 812//812 813//813 814//814
f 815//815 816//816 817//817
f 818//818 819//819 820//820
f 821//821 822//822 823//823
f 824//824 825//825 826//826
f 827//827 828//828 829//829
f 830//830 831//831 821//821
f 832//832 833//833 834//834
f 835//835 824//824 826//826
f 836//836 837//837 838//838
f 839//839 831//831 830//830
f 840//840 841//841 842//842
f 843//843 844//844 845//845
f 846//846 847//847 848//848
f 849//849 850//850 851//851
f 852//852 845//845 853//853
f 852//852 843//843 845//845
f 854//854 855//855 856//856
f 857//857 858//858 859//859
f 860//860 861//861 862//862
f 863//863 864//864 865//865
f 866//866 867//867 868//868
f 869//869 870//870 871//871
f 872//872 873//873 874//874
f 875//875 873//873 872//872
f 876//876 877//877 865//865
f 878//878 879//879 880//880
f 881//881 882//882 883//883
f 884//884 879//879 878//878
f 885//885 882//882 881//881
f 886//886 887//887 888//888
f 889//889 890//890 891//891
f 892//892 889//889 891//891
f 893//893 894//894 895//895
f 896//896 897//897 898//898
f 899//899 893//893 895//895
f 900//900 901//901 902//902
f 903//903 904//904 905//905
f 906//906 907//907 908//908
f 909//909 910//910 900//900
f 911//911 896//896 912//912
f 911//911 912//912 913//913
f 914//914 915//915 916//916
f 911//911 913//913 917//917
f 918//918 919//919 920//920
f 921//921 922//922 923//923
f 924//924 925//925 926//926
f 927//927 928//928 929//929
f 930//930 931//931 932//932
f 927//927 929//929 933//933
f 930//930 934//934 931//931
f 935//935 936//936 937//937
f 938//938 939//939 940//940
f 935//935 941//941 942//942
f 935//935 942//942 936//936

