# https://github.com/mikedh/trimesh
v 0.05082665 0.03472099 0.07039572
v 0.05067623 0.03399122 0.07064480
v 0.05028296 0.03419230 0.07003565
v 0.05060749 0.03833045 0.07125641
v 0.05079151 0.03817434 0.07165922
v 0.05105720 0.03726750 0.07099862
v 0.05105720 0.03726750 0.07099862
v 0.05079151 0.03817434 0.07165922
v 0.05132061 0.03686922 0.07148219
v 0.05127193 0.03521028 0.07103170
v 0.05067623 0.03399122 0.07064480
v 0.05082665 0.03472099 0.07039572
v 0.05127193 0.03521028 0.07103170
v 0.05082665 0.03472099 0.07039572
v 0.05116307 0.03565388 0.07065226
v 0.05082787 0.03689783 0.07062144
v 0.05039798 0.03828159 0.07093818
v 0.05105720 0.03726750 0.07099862
v 0.05105720 0.03726750 0.07099862
v 0.05039798 0.03828159 0.07093818
v 0.05060749 0.03833045 0.07125641
v 0.05116307 0.03565388 0.07065226
v 0.05082665 0.03472099 0.07039572
v 0.05066523 0.03527159 0.07023043
v 0.05105720 0.03726750 0.07099862
v 0.05141111 0.03604933 0.07115866
v 0.05082787 0.03689783 0.07062144
v 0.05141111 0.03604933 0.07115866
v 0.05116307 0.03565388 0.07065226
v 0.05082787 0.03689783 0.07062144
v 0.05105720 0.03726750 0.07099862
v 0.05132061 0.03686922 0.07148219
v 0.05141111 0.03604933 0.07115866
v 0.05082787 0.03689783 0.07062144
v 0.05116307 0.03565388 0.07065226
v 0.05066523 0.03527159 0.07023043
v 0.05039798 0.03828159 0.07093818
v 0.05082787 0.03689783 0.07062144
v 0.05009465 0.03826756 0.07074667
v 0.05141111 0.03604933 0.07115866
v 0.05127193 0.03521028 0.07103170
v 0.05116307 0.03565388 0.07065226
v 0.05082665 0.03472099 0.07039572
v 0.05028296 0.03419230 0.07003565
v 0.05066523 0.03527159 0.07023043
v 0.04654609 0.02985829 0.06905342
v 0.04661496 0.03009339 0.06871808
v 0.05067623 0.03399122 0.07064480
v 0.05067623 0.03399122 0.07064480
v 0.04661496 0.03009339 0.06871808
v 0.05028296 0.03419230 0.07003565
v 0.04661496 0.03009339 0.06871808
v 0.04640777 0.03035791 0.06840582
v 0.05028296 0.03419230 0.07003565
v 0.05028296 0.03419230 0.07003565
v 0.04579664 0.03043276 0.06814791
v 0.05066523 0.03527159 0.07023043
v 0.04640777 0.03035791 0.06840582
v 0.04579664 0.03043276 0.06814791
v 0.05028296 0.03419230 0.07003565
v 0.04661496 0.03009339 0.06871808
v 0.04536783 0.02947779 0.06852598
v 0.04640777 0.03035791 0.06840582
v 0.04640777 0.03035791 0.06840582
v 0.04536783 0.02947779 0.06852598
v 0.04524953 0.02988354 0.06812275
v 0.04579664 0.03043276 0.06814791
v 0.04524953 0.02988354 0.06812275
v 0.04413082 0.03014144 0.06784899
v 0.04536783 0.02947779 0.06852598
v 0.04397033 0.02971931 0.06811191
v 0.04524953 0.02988354 0.06812275
v 0.04654609 0.02985829 0.06905342
v 0.04536783 0.02947779 0.06852598
v 0.04661496 0.03009339 0.06871808
v 0.04536783 0.02947779 0.06852598
v 0.04446379 0.02939637 0.06851775
v 0.04397033 0.02971931 0.06811191
v 0.04579664 0.03043276 0.06814791
v 0.04413082 0.03014144 0.06784899
v 0.04359122 0.03072260 0.06774420
v 0.04308415 0.02996780 0.06828381
v 0.04397033 0.02971931 0.06811191
v 0.04446379 0.02939637 0.06851775
v 0.04397033 0.02971931 0.06811191
v 0.04297436 0.03058419 0.06784106
v 0.04413082 0.03014144 0.06784899
v 0.04297436 0.03058419 0.06784106
v 0.04397033 0.02971931 0.06811191
v 0.04308415 0.02996780 0.06828381
v 0.04524953 0.02988354 0.06812275
v 0.04397033 0.02971931 0.06811191
v 0.04413082 0.03014144 0.06784899
v 0.04413082 0.03014144 0.06784899
v 0.04297436 0.03058419 0.06784106
v 0.04359122 0.03072260 0.06774420
v 0.04308415 0.02996780 0.06828381
v 0.04248035 0.03051882 0.06818152
v 0.04297436 0.03058419 0.06784106
v 0.04640777 0.03035791 0.06840582
v 0.04524953 0.02988354 0.06812275
v 0.04579664 0.03043276 0.06814791
v 0.03160732 0.04154925 0.06834728
v 0.03056717 0.04239104 0.06828679
v 0.03069467 0.04264042 0.06794543
v 0.03010714 0.04417044 0.06787498
v 0.03025963 0.04511705 0.06798215
v 0.03078865 0.04357389 0.06775177
v 0.03056717 0.04239104 0.06828679
v 0.03002626 0.04291923 0.06837423
v 0.03069467 0.04264042 0.06794543
v 0.03069467 0.04264042 0.06794543
v 0.03002626 0.04291923 0.06837423
v 0.03016079 0.04342263 0.06791020
v 0.03016079 0.04342263 0.06791020
v 0.03002626 0.04291923 0.06837423
v 0.02964466 0.04369954 0.06833989
v 0.03010714 0.04417044 0.06787498
v 0.03016079 0.04342263 0.06791020
v 0.02948193 0.04440410 0.06834651
v 0.03016079 0.04342263 0.06791020
v 0.02964466 0.04369954 0.06833989
v 0.02948193 0.04440410 0.06834651
v 0.03010714 0.04417044 0.06787498
v 0.02978169 0.04518078 0.06815566
v 0.03025963 0.04511705 0.06798215
v 0.02978169 0.04518078 0.06815566
v 0.03032180 0.04624460 0.06834413
v 0.03025963 0.04511705 0.06798215
v 0.02948193 0.04440410 0.06834651
v 0.02941897 0.04518947 0.06862629
v 0.02978169 0.04518078 0.06815566
v 0.03025963 0.04511705 0.06798215
v 0.03032180 0.04624460 0.06834413
v 0.03076720 0.04639761 0.06835098
v 0.02965655 0.04597968 0.06867112
v 0.03048419 0.04685873 0.06867302
v 0.03032180 0.04624460 0.06834413
v 0.02965655 0.04597968 0.06867112
v 0.03010660 0.04685262 0.06911750
v 0.03048419 0.04685873 0.06867302
v 0.02941897 0.04518947 0.06862629
v 0.02965655 0.04597968 0.06867112
v 0.02978169 0.04518078 0.06815566
v 0.03069467 0.04264042 0.06794543
v 0.03016079 0.04342263 0.06791020
v 0.03075110 0.04314471 0.06775905
v 0.03010714 0.04417044 0.06787498
v 0.03075110 0.04314471 0.06775905
v 0.03016079 0.04342263 0.06791020
v 0.02978169 0.04518078 0.06815566
v 0.02965655 0.04597968 0.06867112
v 0.03032180 0.04624460 0.06834413
v 0.02948193 0.04440410 0.06834651
v 0.02978169 0.04518078 0.06815566
v 0.03010714 0.04417044 0.06787498
v 0.03078865 0.04357389 0.06775177
v 0.03075110 0.04314471 0.06775905
v 0.03010714 0.04417044 0.06787498
v 0.03032180 0.04624460 0.06834413
v 0.03048419 0.04685873 0.06867302
v 0.03076720 0.04639761 0.06835098
v 0.04919283 0.03953470 0.07082970
v 0.05039798 0.03828159 0.07093818
v 0.05009465 0.03826756 0.07074667
v 0.04950977 0.03984499 0.07153530
v 0.05039798 0.03828159 0.07093818
v 0.04919283 0.03953470 0.07082970
v 0.04950977 0.03984499 0.07153530
v 0.05060749 0.03833045 0.07125641
v 0.05039798 0.03828159 0.07093818
v 0.04950977 0.03984499 0.07153530
v 0.05079151 0.03817434 0.07165922
v 0.05060749 0.03833045 0.07125641
v 0.04973952 0.04008181 0.07103921
v 0.04850731 0.04020775 0.07081963
v 0.04906196 0.04075936 0.07103921
v 0.03098687 0.04474241 0.06803055
v 0.03078865 0.04357389 0.06775177
v 0.03025963 0.04511705 0.06798215
v 0.05082787 0.03689783 0.07062144
v 0.04975052 0.03767620 0.07052798
v 0.05009465 0.03826756 0.07074667
v 0.03098687 0.04474241 0.06803055
v 0.03025963 0.04511705 0.06798215
v 0.03076720 0.04639761 0.06835098
v 0.05066523 0.03527159 0.07023043
v 0.04961746 0.03494715 0.06991667
v 0.05014733 0.03610720 0.07027776
v 0.03124152 0.04589024 0.06833012
v 0.03098687 0.04474241 0.06803055
v 0.03076720 0.04639761 0.06835098
v 0.05082787 0.03689783 0.07062144
v 0.05014733 0.03610720 0.07027776
v 0.04975052 0.03767620 0.07052798
v 0.05082787 0.03689783 0.07062144
v 0.05066523 0.03527159 0.07023043
v 0.05014733 0.03610720 0.07027776
v 0.03151965 0.04372824 0.06792791
v 0.03078865 0.04357389 0.06775177
v 0.03098687 0.04474241 0.06803055
v 0.03692806 0.03922362 0.06812085
v 0.03451414 0.04022494 0.06787826
v 0.03078865 0.04357389 0.06775177
v 0.03692806 0.03922362 0.06812085
v 0.03078865 0.04357389 0.06775177
v 0.03151965 0.04372824 0.06792791
v 0.03524631 0.04985870 0.07003237
v 0.03076720 0.04639761 0.06835098
v 0.03480374 0.05038128 0.07006455
v 0.03124152 0.04589024 0.06833012
v 0.03651127 0.05013969 0.07036240
v 0.03524631 0.04985870 0.07003237
v 0.03480374 0.05038128 0.07006455
v 0.03724053 0.05066421 0.07064349
v 0.03651127 0.05013969 0.07036240
v 0.03480374 0.05038128 0.07006455
v 0.03856605 0.03666556 0.06793804
v 0.03451414 0.04022494 0.06787826
v 0.03692806 0.03922362 0.06812085
v 0.03765050 0.04972076 0.07051618
v 0.03651127 0.05013969 0.07036240
v 0.03724053 0.05066421 0.07064349
v 0.03953471 0.04919282 0.07082970
v 0.03765050 0.04972076 0.07051618
v 0.03724053 0.05066421 0.07064349
v 0.04286018 0.04534785 0.07069457
v 0.04036526 0.03453078 0.06788279
v 0.03856605 0.03666556 0.06793804
v 0.03692806 0.03922362 0.06812085
v 0.04027641 0.04854359 0.07085789
v 0.04286018 0.04534785 0.07069457
v 0.03953471 0.04919282 0.07082970
v 0.04008182 0.04973951 0.07103921
v 0.04027641 0.04854359 0.07085789
v 0.03953471 0.04919282 0.07082970
v 0.04368340 0.03164094 0.06794424
v 0.04036526 0.03453078 0.06788279
v 0.03692806 0.03922362 0.06812085
v 0.04075937 0.04906196 0.07103921
v 0.04027641 0.04854359 0.07085789
v 0.04008182 0.04973951 0.07103921
v 0.04295186 0.04612247 0.07090796
v 0.04286018 0.04534785 0.07069457
v 0.04027641 0.04854359 0.07085789
v 0.04359122 0.03072260 0.06774420
v 0.04036526 0.03453078 0.06788279
v 0.04368340 0.03164094 0.06794424
v 0.04455263 0.03101666 0.06799651
v 0.04579664 0.03043276 0.06814791
v 0.04359122 0.03072260 0.06774420
v 0.04455263 0.03101666 0.06799651
v 0.04574725 0.04332076 0.07090057
v 0.04286018 0.04534785 0.07069457
v 0.04295186 0.04612247 0.07090796
v 0.04585045 0.03121049 0.06831504
v 0.04579664 0.03043276 0.06814791
v 0.04455263 0.03101666 0.06799651
v 0.04850731 0.04020775 0.07081963
v 0.04286018 0.04534785 0.07069457
v 0.04574725 0.04332076 0.07090057
v 0.04975052 0.03767620 0.07052798
v 0.04850731 0.04020775 0.07081963
v 0.04919283 0.03953470 0.07082970
v 0.04975052 0.03767620 0.07052798
v 0.04850731 0.04020775 0.07081963
v 0.04961746 0.03494715 0.06991667
v 0.04579664 0.03043276 0.06814791
v 0.04585045 0.03121049 0.06831504
v 0.05066523 0.03527159 0.07023043
v 0.04579664 0.03043276 0.06814791
v 0.04961746 0.03494715 0.06991667
v 0.05009465 0.03826756 0.07074667
v 0.04919283 0.03953470 0.07082970
v 0.04973952 0.04008181 0.07103921
v 0.04919283 0.03953470 0.07082970
v 0.04850731 0.04020775 0.07081963
v 0.04888600 0.04059857 0.07158960
v 0.04906196 0.04075936 0.07103921
v 0.04871113 0.04042371 0.07105995
v 0.04871113 0.04042371 0.07105995
v 0.04906196 0.04075936 0.07103921
v 0.04850731 0.04020775 0.07081963
v 0.04919283 0.03953470 0.07082970
v 0.04973952 0.04008181 0.07103921
v 0.04950977 0.03984499 0.07153530
v 0.04460869 0.04509631 0.07141043
v 0.04585417 0.04383592 0.07140733
v 0.04441329 0.04506977 0.07113774
v 0.04574725 0.04332076 0.07090057
v 0.04731279 0.04195761 0.07103975
v 0.04850731 0.04020775 0.07081963
v 0.04585417 0.04383592 0.07140733
v 0.04718125 0.04247917 0.07151867
v 0.04652055 0.04285722 0.07109101
v 0.04622279 0.04355135 0.07179500
v 0.04718125 0.04247917 0.07151867
v 0.04585417 0.04383592 0.07140733
v 0.04622279 0.04355135 0.07179500
v 0.04888600 0.04059857 0.07158960
v 0.04718125 0.04247917 0.07151867
v 0.04337948 0.04630463 0.07142843
v 0.04163734 0.04790372 0.07141454
v 0.04197759 0.04766985 0.07175196
v 0.04460869 0.04509631 0.07141043
v 0.04337948 0.04630463 0.07142843
v 0.04472340 0.04508714 0.07178665
v 0.04585417 0.04383592 0.07140733
v 0.04460869 0.04509631 0.07141043
v 0.04472340 0.04508714 0.07178665
v 0.04472340 0.04508714 0.07178665
v 0.04622279 0.04355135 0.07179500
v 0.04585417 0.04383592 0.07140733
v 0.04585417 0.04383592 0.07140733
v 0.04652055 0.04285722 0.07109101
v 0.04441329 0.04506977 0.07113774
v 0.04441329 0.04506977 0.07113774
v 0.04652055 0.04285722 0.07109101
v 0.04574725 0.04332076 0.07090057
v 0.04731279 0.04195761 0.07103975
v 0.04652055 0.04285722 0.07109101
v 0.04718125 0.04247917 0.07151867
v 0.04731279 0.04195761 0.07103975
v 0.04718125 0.04247917 0.07151867
v 0.04888600 0.04059857 0.07158960
v 0.04850731 0.04020775 0.07081963
v 0.04731279 0.04195761 0.07103975
v 0.04871113 0.04042371 0.07105995
v 0.04888600 0.04059857 0.07158960
v 0.04871113 0.04042371 0.07105995
v 0.04731279 0.04195761 0.07103975
v 0.04222824 0.04717703 0.07115192
v 0.04027641 0.04854359 0.07085789
v 0.04041027 0.04870940 0.07104541
v 0.04041027 0.04870940 0.07104541
v 0.04163734 0.04790372 0.07141454
v 0.04222824 0.04717703 0.07115192
v 0.04222824 0.04717703 0.07115192
v 0.04163734 0.04790372 0.07141454
v 0.04337948 0.04630463 0.07142843
v 0.04441329 0.04506977 0.07113774
v 0.04337948 0.04630463 0.07142843
v 0.04460869 0.04509631 0.07141043
v 0.04574725 0.04332076 0.07090057
v 0.04652055 0.04285722 0.07109101
v 0.04731279 0.04195761 0.07103975
v 0.04058320 0.04887676 0.07159514
v 0.04197759 0.04766985 0.07175196
v 0.04163734 0.04790372 0.07141454
v 0.04163734 0.04790372 0.07141454
v 0.04041027 0.04870940 0.07104541
v 0.04058320 0.04887676 0.07159514
v 0.04295186 0.04612247 0.07090796
v 0.04441329 0.04506977 0.07113774
v 0.04222824 0.04717703 0.07115192
v 0.04337948 0.04630463 0.07142843
v 0.04339528 0.04636393 0.07179655
v 0.04337948 0.04630463 0.07142843
v 0.04197759 0.04766985 0.07175196
v 0.04222824 0.04717703 0.07115192
v 0.04441329 0.04506977 0.07113774
v 0.04295186 0.04612247 0.07090796
v 0.04472340 0.04508714 0.07178665
v 0.04337948 0.04630463 0.07142843
v 0.04339528 0.04636393 0.07179655
v 0.04295186 0.04612247 0.07090796
v 0.04441329 0.04506977 0.07113774
v 0.04574725 0.04332076 0.07090057
v 0.03984500 0.04950977 0.07153530
v 0.04008182 0.04973951 0.07103921
v 0.03953471 0.04919282 0.07082970
v 0.04027641 0.04854359 0.07085789
v 0.04075937 0.04906196 0.07103921
v 0.04041027 0.04870940 0.07104541
v 0.04075937 0.04906196 0.07103921
v 0.04058320 0.04887676 0.07159514
v 0.04041027 0.04870940 0.07104541
v 0.03856209 0.05030411 0.07104124
v 0.03953471 0.04919282 0.07082970
v 0.03724053 0.05066421 0.07064349
v 0.03856209 0.05030411 0.07104124
v 0.03984500 0.04950977 0.07153530
v 0.03953471 0.04919282 0.07082970
v 0.03811858 0.05083116 0.07164145
v 0.03984500 0.04950977 0.07153530
v 0.03856209 0.05030411 0.07104124
v 0.03758900 0.05093066 0.07103784
v 0.03856209 0.05030411 0.07104124
v 0.03724053 0.05066421 0.07064349
v 0.03758900 0.05093066 0.07103784
v 0.03811858 0.05083116 0.07164145
v 0.03856209 0.05030411 0.07104124
v 0.03408125 0.05036805 0.07013846
v 0.03391625 0.05062763 0.07068802
v 0.03499525 0.05097303 0.07049550
v 0.03499525 0.05097303 0.07049550
v 0.03391625 0.05062763 0.07068802
v 0.03514398 0.05126051 0.07110442
v 0.03649396 0.05141021 0.07138289
v 0.03811858 0.05083116 0.07164145
v 0.03758900 0.05093066 0.07103784
v 0.03649396 0.05141021 0.07138289
v 0.03758900 0.05093066 0.07103784
v 0.03685793 0.05114055 0.07090254
v 0.03480374 0.05038128 0.07006455
v 0.03408125 0.05036805 0.07013846
v 0.03499525 0.05097303 0.07049550
v 0.03480374 0.05038128 0.07006455
v 0.03593862 0.05116871 0.07066132
v 0.03724053 0.05066421 0.07064349
v 0.03499525 0.05097303 0.07049550
v 0.03514398 0.05126051 0.07110442
v 0.03593862 0.05116871 0.07066132
v 0.03593862 0.05116871 0.07066132
v 0.03480374 0.05038128 0.07006455
v 0.03499525 0.05097303 0.07049550
v 0.03685793 0.05114055 0.07090254
v 0.03758900 0.05093066 0.07103784
v 0.03724053 0.05066421 0.07064349
v 0.03514398 0.05126051 0.07110442
v 0.03649396 0.05141021 0.07138289
v 0.03593862 0.05116871 0.07066132
v 0.03593862 0.05116871 0.07066132
v 0.03685793 0.05114055 0.07090254
v 0.03724053 0.05066421 0.07064349
v 0.03593862 0.05116871 0.07066132
v 0.03649396 0.05141021 0.07138289
v 0.03685793 0.05114055 0.07090254
v 0.03524581 0.04984445 0.06745274
v 0.03524631 0.04985870 0.07003237
v 0.03583065 0.05025058 0.06760133
v 0.03769075 0.05038183 0.06804676
v 0.03765050 0.04972076 0.07051618
v 0.03828586 0.05006337 0.06802894
v 0.03769075 0.05038183 0.06804676
v 0.03651127 0.05013969 0.07036240
v 0.03765050 0.04972076 0.07051618
v 0.03701901 0.05057031 0.06793971
v 0.03651127 0.05013969 0.07036240
v 0.03769075 0.05038183 0.06804676
v 0.03630651 0.05048917 0.06781299
v 0.03524631 0.04985870 0.07003237
v 0.03651127 0.05013969 0.07036240
v 0.03630651 0.05048917 0.06781299
v 0.03651127 0.05013969 0.07036240
v 0.03701901 0.05057031 0.06793971
v 0.03583065 0.05025058 0.06760133
v 0.03524631 0.04985870 0.07003237
v 0.03630651 0.05048917 0.06781299
v 0.04756184 0.04134171 0.06820644
v 0.04975052 0.03767620 0.07052798
v 0.05018017 0.03805038 0.06829269
v 0.04756184 0.04134171 0.06820644
v 0.04286018 0.04534785 0.07069457
v 0.04975052 0.03767620 0.07052798
v 0.04556816 0.04352328 0.06810922
v 0.04286018 0.04534785 0.07069457
v 0.04756184 0.04134171 0.06820644
v 0.04454067 0.04457302 0.06803579
v 0.04286018 0.04534785 0.07069457
v 0.04556816 0.04352328 0.06810922
v 0.04351548 0.04557527 0.06808932
v 0.04199495 0.04698252 0.06816019
v 0.04286018 0.04534785 0.07069457
v 0.04351548 0.04557527 0.06808932
v 0.04002172 0.04867867 0.06816472
v 0.04286018 0.04534785 0.07069457
v 0.04199495 0.04698252 0.06816019
v 0.04002172 0.04867867 0.06816472
v 0.03765050 0.04972076 0.07051618
v 0.04286018 0.04534785 0.07069457
v 0.03828586 0.05006337 0.06802894
v 0.03765050 0.04972076 0.07051618
v 0.04002172 0.04867867 0.06816472
v 0.05008385 0.03552254 0.06753612
v 0.04961746 0.03494715 0.06991667
v 0.04911001 0.03457364 0.06695718
v 0.05008385 0.03552254 0.06753612
v 0.05014733 0.03610720 0.07027776
v 0.04961746 0.03494715 0.06991667
v 0.05055911 0.03653651 0.06790090
v 0.05014733 0.03610720 0.07027776
v 0.05008385 0.03552254 0.06753612
v 0.05049858 0.03731108 0.06812228
v 0.04975052 0.03767620 0.07052798
v 0.05014733 0.03610720 0.07027776
v 0.05049858 0.03731108 0.06812228
v 0.05014733 0.03610720 0.07027776
v 0.05055911 0.03653651 0.06790090
v 0.05018017 0.03805038 0.06829269
v 0.04975052 0.03767620 0.07052798
v 0.05049858 0.03731108 0.06812228
v 0.04670878 0.03210996 0.06609149
v 0.04911001 0.03457364 0.06695718
v 0.04585045 0.03121049 0.06831504
v 0.04911001 0.03457364 0.06695718
v 0.04961746 0.03494715 0.06991667
v 0.04585045 0.03121049 0.06831504
v 0.04423733 0.03216874 0.06550677
v 0.04455263 0.03101666 0.06799651
v 0.04368340 0.03164094 0.06794424
v 0.04483855 0.03170475 0.06560738
v 0.04455263 0.03101666 0.06799651
v 0.04423733 0.03216874 0.06550677
v 0.04543961 0.03151328 0.06587202
v 0.04455263 0.03101666 0.06799651
v 0.04483855 0.03170475 0.06560738
v 0.04543961 0.03151328 0.06587202
v 0.04585045 0.03121049 0.06831504
v 0.04455263 0.03101666 0.06799651
v 0.04615843 0.03171420 0.06589718
v 0.04585045 0.03121049 0.06831504
v 0.04543961 0.03151328 0.06587202
v 0.04670878 0.03210996 0.06609149
v 0.04585045 0.03121049 0.06831504
v 0.04615843 0.03171420 0.06589718
v 0.03353094 0.04323895 0.06548704
v 0.03692806 0.03922362 0.06812085
v 0.03151965 0.04372824 0.06792791
v 0.03353094 0.04323895 0.06548704
v 0.03151965 0.04372824 0.06792791
v 0.03219986 0.04419114 0.06553341
v 0.03539311 0.04158296 0.06570751
v 0.03692806 0.03922362 0.06812085
v 0.03353094 0.04323895 0.06548704
v 0.03716037 0.04008384 0.06561882
v 0.03692806 0.03922362 0.06812085
v 0.03539311 0.04158296 0.06570751
v 0.03925513 0.03800104 0.06565172
v 0.03692806 0.03922362 0.06812085
v 0.03716037 0.04008384 0.06561882
v 0.04103645 0.03607576 0.06565298
v 0.04368340 0.03164094 0.06794424
v 0.03692806 0.03922362 0.06812085
v 0.04103645 0.03607576 0.06565298
v 0.03692806 0.03922362 0.06812085
v 0.03925513 0.03800104 0.06565172
v 0.04266311 0.03422361 0.06552638
v 0.04368340 0.03164094 0.06794424
v 0.04103645 0.03607576 0.06565298
v 0.04423733 0.03216874 0.06550677
v 0.04368340 0.03164094 0.06794424
v 0.04266311 0.03422361 0.06552638
v 0.03156099 0.04556495 0.06574781
v 0.03098687 0.04474241 0.06803055
v 0.03124152 0.04589024 0.06833012
v 0.03156099 0.04556495 0.06574781
v 0.03124152 0.04589024 0.06833012
v 0.03188388 0.04644822 0.06596250
v 0.03159720 0.04498252 0.06576336
v 0.03098687 0.04474241 0.06803055
v 0.03156099 0.04556495 0.06574781
v 0.03180532 0.04467788 0.06556744
v 0.03151965 0.04372824 0.06792791
v 0.03098687 0.04474241 0.06803055
v 0.03180532 0.04467788 0.06556744
v 0.03098687 0.04474241 0.06803055
v 0.03159720 0.04498252 0.06576336
v 0.03219986 0.04419114 0.06553341
v 0.03151965 0.04372824 0.06792791
v 0.03180532 0.04467788 0.06556744
v 0.03524631 0.04985870 0.07003237
v 0.03524581 0.04984445 0.06745274
v 0.03124152 0.04589024 0.06833012
v 0.03124152 0.04589024 0.06833012
v 0.03524581 0.04984445 0.06745274
v 0.03188388 0.04644822 0.06596250
v 0.03010660 0.04685262 0.06911750
v 0.03391625 0.05062763 0.07068802
v 0.03048419 0.04685873 0.06867302
v 0.03391625 0.05062763 0.07068802
v 0.03408125 0.05036805 0.07013846
v 0.03048419 0.04685873 0.06867302
v 0.03048419 0.04685873 0.06867302
v 0.03408125 0.05036805 0.07013846
v 0.03076720 0.04639761 0.06835098
v 0.03408125 0.05036805 0.07013846
v 0.03480374 0.05038128 0.07006455
v 0.03076720 0.04639761 0.06835098
v 0.03856605 0.03666556 0.06793804
v 0.03826049 0.03653567 0.06793858
v 0.03623668 0.03859538 0.06792123
v 0.03501788 0.03914531 0.06807513
v 0.03355054 0.04078706 0.06789751
v 0.03451414 0.04022494 0.06787826
v 0.03316877 0.04014027 0.06844498
v 0.03346456 0.04052297 0.06801934
v 0.03501788 0.03914531 0.06807513
v 0.03972804 0.03447165 0.06800712
v 0.04118320 0.03266422 0.06798811
v 0.04156602 0.03160874 0.06832374
v 0.03856605 0.03666556 0.06793804
v 0.04036526 0.03453078 0.06788279
v 0.03826049 0.03653567 0.06793858
v 0.03686692 0.03746342 0.06806303
v 0.03826049 0.03653567 0.06793858
v 0.03823920 0.03599648 0.06808800
v 0.03501788 0.03914531 0.06807513
v 0.03623668 0.03859538 0.06792123
v 0.03686692 0.03746342 0.06806303
v 0.03501788 0.03914531 0.06807513
v 0.03346456 0.04052297 0.06801934
v 0.03355054 0.04078706 0.06789751
v 0.04297436 0.03058419 0.06784106
v 0.04105212 0.03337128 0.06787027
v 0.04359122 0.03072260 0.06774420
v 0.04248035 0.03051882 0.06818152
v 0.04118320 0.03266422 0.06798811
v 0.04297436 0.03058419 0.06784106
v 0.04248035 0.03051882 0.06818152
v 0.04156602 0.03160874 0.06832374
v 0.04118320 0.03266422 0.06798811
v 0.04359122 0.03072260 0.06774420
v 0.04105212 0.03337128 0.06787027
v 0.04036526 0.03453078 0.06788279
v 0.03501788 0.03914531 0.06807513
v 0.03686692 0.03746342 0.06806303
v 0.03657121 0.03711159 0.06847782
v 0.04297436 0.03058419 0.06784106
v 0.04118320 0.03266422 0.06798811
v 0.04105212 0.03337128 0.06787027
v 0.04105212 0.03337128 0.06787027
v 0.04118320 0.03266422 0.06798811
v 0.03972804 0.03447165 0.06800712
v 0.03972804 0.03447165 0.06800712
v 0.04036526 0.03453078 0.06788279
v 0.04105212 0.03337128 0.06787027
v 0.04036526 0.03453078 0.06788279
v 0.03972804 0.03447165 0.06800712
v 0.03826049 0.03653567 0.06793858
v 0.03823920 0.03599648 0.06808800
v 0.03826049 0.03653567 0.06793858
v 0.03972804 0.03447165 0.06800712
v 0.03686692 0.03746342 0.06806303
v 0.03623668 0.03859538 0.06792123
v 0.03826049 0.03653567 0.06793858
v 0.03355054 0.04078706 0.06789751
v 0.03075110 0.04314471 0.06775905
v 0.03451414 0.04022494 0.06787826
v 0.03856605 0.03666556 0.06793804
v 0.03623668 0.03859538 0.06792123
v 0.03451414 0.04022494 0.06787826
v 0.03160732 0.04154925 0.06834728
v 0.03069467 0.04264042 0.06794543
v 0.03346456 0.04052297 0.06801934
v 0.03346456 0.04052297 0.06801934
v 0.03069467 0.04264042 0.06794543
v 0.03355054 0.04078706 0.06789751
v 0.03451414 0.04022494 0.06787826
v 0.03075110 0.04314471 0.06775905
v 0.03078865 0.04357389 0.06775177
v 0.03355054 0.04078706 0.06789751
v 0.03069467 0.04264042 0.06794543
v 0.03075110 0.04314471 0.06775905
v 0.03451414 0.04022494 0.06787826
v 0.03623668 0.03859538 0.06792123
v 0.03501788 0.03914531 0.06807513
v 0.03741726 0.04974200 0.06694807
v 0.03762019 0.05017995 0.06737919
v 0.03836691 0.04963731 0.06728573
v 0.03566648 0.04983000 0.06699629
v 0.03676099 0.05012415 0.06704021
v 0.03578976 0.04951976 0.06670762
v 0.03676099 0.05012415 0.06704021
v 0.03656383 0.04964907 0.06675507
v 0.03578976 0.04951976 0.06670762
v 0.03583065 0.05025058 0.06760133
v 0.03630651 0.05048917 0.06781299
v 0.03622176 0.05022673 0.06724180
v 0.03524581 0.04984445 0.06745274
v 0.03583065 0.05025058 0.06760133
v 0.03566648 0.04983000 0.06699629
v 0.03566648 0.04983000 0.06699629
v 0.03583065 0.05025058 0.06760133
v 0.03622176 0.05022673 0.06724180
v 0.03762019 0.05017995 0.06737919
v 0.03828586 0.05006337 0.06802894
v 0.03836691 0.04963731 0.06728573
v 0.03676099 0.05012415 0.06704021
v 0.03622176 0.05022673 0.06724180
v 0.03695878 0.05041163 0.06741948
v 0.03741726 0.04974200 0.06694807
v 0.03676099 0.05012415 0.06704021
v 0.03762019 0.05017995 0.06737919
v 0.03762019 0.05017995 0.06737919
v 0.03769075 0.05038183 0.06804676
v 0.03828586 0.05006337 0.06802894
v 0.03695878 0.05041163 0.06741948
v 0.03630651 0.05048917 0.06781299
v 0.03701901 0.05057031 0.06793971
v 0.03622176 0.05022673 0.06724180
v 0.03630651 0.05048917 0.06781299
v 0.03695878 0.05041163 0.06741948
v 0.03676099 0.05012415 0.06704021
v 0.03695878 0.05041163 0.06741948
v 0.03762019 0.05017995 0.06737919
v 0.03762019 0.05017995 0.06737919
v 0.03701901 0.05057031 0.06793971
v 0.03769075 0.05038183 0.06804676
v 0.03695878 0.05041163 0.06741948
v 0.03701901 0.05057031 0.06793971
v 0.03762019 0.05017995 0.06737919
v 0.03676099 0.05012415 0.06704021
v 0.03566648 0.04983000 0.06699629
v 0.03622176 0.05022673 0.06724180
v 0.03741726 0.04974200 0.06694807
v 0.03656383 0.04964907 0.06675507
v 0.03676099 0.05012415 0.06704021
v 0.04438458 0.04453819 0.06758125
v 0.04351548 0.04557527 0.06808932
v 0.04454067 0.04457302 0.06803579
v 0.04112896 0.04685764 0.06703533
v 0.04325902 0.04504848 0.06711228
v 0.04480943 0.04331810 0.06702442
v 0.04096956 0.04765666 0.06751491
v 0.04247429 0.04644890 0.06773526
v 0.04230528 0.04625730 0.06730659
v 0.04247429 0.04644890 0.06773526
v 0.04331625 0.04551378 0.06749792
v 0.04230528 0.04625730 0.06730659
v 0.04061600 0.04812133 0.06779928
v 0.04247429 0.04644890 0.06773526
v 0.04096956 0.04765666 0.06751491
v 0.04015756 0.04802604 0.06721307
v 0.04096956 0.04765666 0.06751491
v 0.04230528 0.04625730 0.06730659
v 0.04061600 0.04812133 0.06779928
v 0.04199495 0.04698252 0.06816019
v 0.04247429 0.04644890 0.06773526
v 0.03836691 0.04963731 0.06728573
v 0.04112896 0.04685764 0.06703533
v 0.03741726 0.04974200 0.06694807
v 0.04002172 0.04867867 0.06816472
v 0.04199495 0.04698252 0.06816019
v 0.04061600 0.04812133 0.06779928
v 0.03836691 0.04963731 0.06728573
v 0.04015756 0.04802604 0.06721307
v 0.04112896 0.04685764 0.06703533
v 0.03836691 0.04963731 0.06728573
v 0.04061600 0.04812133 0.06779928
v 0.04096956 0.04765666 0.06751491
v 0.04331625 0.04551378 0.06749792
v 0.04438458 0.04453819 0.06758125
v 0.04431997 0.04426966 0.06726314
v 0.04438458 0.04453819 0.06758125
v 0.04331625 0.04551378 0.06749792
v 0.04351548 0.04557527 0.06808932
v 0.03828586 0.05006337 0.06802894
v 0.04061600 0.04812133 0.06779928
v 0.03836691 0.04963731 0.06728573
v 0.03828586 0.05006337 0.06802894
v 0.04002172 0.04867867 0.06816472
v 0.04061600 0.04812133 0.06779928
v 0.04480943 0.04331810 0.06702442
v 0.04325902 0.04504848 0.06711228
v 0.04431997 0.04426966 0.06726314
v 0.04331625 0.04551378 0.06749792
v 0.04247429 0.04644890 0.06773526
v 0.04351548 0.04557527 0.06808932
v 0.04112896 0.04685764 0.06703533
v 0.04230528 0.04625730 0.06730659
v 0.04325902 0.04504848 0.06711228
v 0.04247429 0.04644890 0.06773526
v 0.04199495 0.04698252 0.06816019
v 0.04351548 0.04557527 0.06808932
v 0.04230528 0.04625730 0.06730659
v 0.04112896 0.04685764 0.06703533
v 0.04015756 0.04802604 0.06721307
v 0.04015756 0.04802604 0.06721307
v 0.03836691 0.04963731 0.06728573
v 0.04096956 0.04765666 0.06751491
v 0.04325902 0.04504848 0.06711228
v 0.04230528 0.04625730 0.06730659
v 0.04331625 0.04551378 0.06749792
v 0.04431997 0.04426966 0.06726314
v 0.04325902 0.04504848 0.06711228
v 0.04331625 0.04551378 0.06749792
v 0.04480943 0.04331810 0.06702442
v 0.04540825 0.04341352 0.06746001
v 0.04685326 0.04152362 0.06722117
v 0.04685326 0.04152362 0.06722117
v 0.04540825 0.04341352 0.06746001
v 0.04691733 0.04179437 0.06748928
v 0.04691733 0.04179437 0.06748928
v 0.04540825 0.04341352 0.06746001
v 0.04670604 0.04221781 0.06779082
v 0.04480943 0.04331810 0.06702442
v 0.04431997 0.04426966 0.06726314
v 0.04540825 0.04341352 0.06746001
v 0.04454067 0.04457302 0.06803579
v 0.04556816 0.04352328 0.06810922
v 0.04540825 0.04341352 0.06746001
v 0.04974559 0.03747242 0.06696315
v 0.04818194 0.03958625 0.06702043
v 0.05000057 0.03779981 0.06727392
v 0.04818194 0.03958625 0.06702043
v 0.04851861 0.03976209 0.06733550
v 0.05000057 0.03779981 0.06727392
v 0.04685326 0.04152362 0.06722117
v 0.04818194 0.03958625 0.06702043
v 0.04647550 0.04146297 0.06701244
v 0.05000057 0.03779981 0.06727392
v 0.04851861 0.03976209 0.06733550
v 0.05002371 0.03825647 0.06778152
v 0.04851861 0.03976209 0.06733550
v 0.04854116 0.04011667 0.06778283
v 0.05002371 0.03825647 0.06778152
v 0.05002371 0.03825647 0.06778152
v 0.04756184 0.04134171 0.06820644
v 0.05018017 0.03805038 0.06829269
v 0.04854116 0.04011667 0.06778283
v 0.04691733 0.04179437 0.06748928
v 0.04854116 0.04011667 0.06778283
v 0.04851861 0.03976209 0.06733550
v 0.04670604 0.04221781 0.06779082
v 0.04756184 0.04134171 0.06820644
v 0.04854116 0.04011667 0.06778283
v 0.04670604 0.04221781 0.06779082
v 0.04556816 0.04352328 0.06810922
v 0.04756184 0.04134171 0.06820644
v 0.04540825 0.04341352 0.06746001
v 0.04556816 0.04352328 0.06810922
v 0.04670604 0.04221781 0.06779082
v 0.04431997 0.04426966 0.06726314
v 0.04438458 0.04453819 0.06758125
v 0.04540825 0.04341352 0.06746001
v 0.04454067 0.04457302 0.06803579
v 0.04540825 0.04341352 0.06746001
v 0.04438458 0.04453819 0.06758125
v 0.04670604 0.04221781 0.06779082
v 0.04854116 0.04011667 0.06778283
v 0.04691733 0.04179437 0.06748928
v 0.04851861 0.03976209 0.06733550
v 0.04818194 0.03958625 0.06702043
v 0.04685326 0.04152362 0.06722117
v 0.04685326 0.04152362 0.06722117
v 0.04691733 0.04179437 0.06748928
v 0.04851861 0.03976209 0.06733550
v 0.04685326 0.04152362 0.06722117
v 0.04647550 0.04146297 0.06701244
v 0.04480943 0.04331810 0.06702442
v 0.04850066 0.03528441 0.06623466
v 0.04959631 0.03620970 0.06669475
v 0.04883218 0.03508497 0.06640685
v 0.04883218 0.03508497 0.06640685
v 0.05007130 0.03593490 0.06712867
v 0.04911001 0.03457364 0.06695718
v 0.04959631 0.03620970 0.06669475
v 0.05007130 0.03593490 0.06712867
v 0.04883218 0.03508497 0.06640685
v 0.05007130 0.03593490 0.06712867
v 0.05008385 0.03552254 0.06753612
v 0.04911001 0.03457364 0.06695718
v 0.05055911 0.03653651 0.06790090
v 0.05008385 0.03552254 0.06753612
v 0.05007130 0.03593490 0.06712867
v 0.05028586 0.03685947 0.06719101
v 0.05055911 0.03653651 0.06790090
v 0.05007130 0.03593490 0.06712867
v 0.05000057 0.03779981 0.06727392
v 0.05028586 0.03685947 0.06719101
v 0.04974559 0.03747242 0.06696315
v 0.05042558 0.03744098 0.06769426
v 0.05055911 0.03653651 0.06790090
v 0.05028586 0.03685947 0.06719101
v 0.05042558 0.03744098 0.06769426
v 0.05000057 0.03779981 0.06727392
v 0.05002371 0.03825647 0.06778152
v 0.04959631 0.03620970 0.06669475
v 0.05028586 0.03685947 0.06719101
v 0.05007130 0.03593490 0.06712867
v 0.05042558 0.03744098 0.06769426
v 0.05002371 0.03825647 0.06778152
v 0.05018017 0.03805038 0.06829269
v 0.04959631 0.03620970 0.06669475
v 0.04974559 0.03747242 0.06696315
v 0.05028586 0.03685947 0.06719101
v 0.05000057 0.03779981 0.06727392
v 0.05042558 0.03744098 0.06769426
v 0.05028586 0.03685947 0.06719101
v 0.05018017 0.03805038 0.06829269
v 0.05049858 0.03731108 0.06812228
v 0.05042558 0.03744098 0.06769426
v 0.05042558 0.03744098 0.06769426
v 0.05049858 0.03731108 0.06812228
v 0.05055911 0.03653651 0.06790090
v 0.04911001 0.03457364 0.06695718
v 0.04797424 0.03372111 0.06624199
v 0.04883218 0.03508497 0.06640685
v 0.04605744 0.03278017 0.06518109
v 0.04756053 0.03373830 0.06588251
v 0.04633574 0.03206987 0.06558819
v 0.04756053 0.03373830 0.06588251
v 0.04797424 0.03372111 0.06624199
v 0.04633574 0.03206987 0.06558819
v 0.04883218 0.03508497 0.06640685
v 0.04797424 0.03372111 0.06624199
v 0.04756053 0.03373830 0.06588251
v 0.04823652 0.03375545 0.06656660
v 0.04911001 0.03457364 0.06695718
v 0.04670878 0.03210996 0.06609149
v 0.04797424 0.03372111 0.06624199
v 0.04670878 0.03210996 0.06609149
v 0.04633574 0.03206987 0.06558819
v 0.04797424 0.03372111 0.06624199
v 0.04850066 0.03528441 0.06623466
v 0.04756053 0.03373830 0.06588251
v 0.04605744 0.03278017 0.06518109
v 0.04756053 0.03373830 0.06588251
v 0.04601648 0.03232718 0.06524385
v 0.04633574 0.03206987 0.06558819
v 0.04567837 0.03183228 0.06540597
v 0.04567837 0.03183228 0.06540597
v 0.04633574 0.03206987 0.06558819
v 0.04615843 0.03171420 0.06589718
v 0.04601648 0.03232718 0.06524385
v 0.04605744 0.03278017 0.06518109
v 0.04633574 0.03206987 0.06558819
v 0.04605744 0.03278017 0.06518109
v 0.04515268 0.03250036 0.06500352
v 0.04532868 0.03287614 0.06501628
v 0.04515268 0.03250036 0.06500352
v 0.04522197 0.03197647 0.06523235
v 0.04463318 0.03239499 0.06513000
v 0.04670878 0.03210996 0.06609149
v 0.04615843 0.03171420 0.06589718
v 0.04633574 0.03206987 0.06558819
v 0.04463318 0.03239499 0.06513000
v 0.04522197 0.03197647 0.06523235
v 0.04483855 0.03170475 0.06560738
v 0.04522197 0.03197647 0.06523235
v 0.04567837 0.03183228 0.06540597
v 0.04483855 0.03170475 0.06560738
v 0.04567837 0.03183228 0.06540597
v 0.04543961 0.03151328 0.06587202
v 0.04483855 0.03170475 0.06560738
v 0.04423733 0.03216874 0.06550677
v 0.04463318 0.03239499 0.06513000
v 0.04483855 0.03170475 0.06560738
v 0.04605744 0.03278017 0.06518109
v 0.04601648 0.03232718 0.06524385
v 0.04515268 0.03250036 0.06500352
v 0.04515268 0.03250036 0.06500352
v 0.04601648 0.03232718 0.06524385
v 0.04522197 0.03197647 0.06523235
v 0.04601648 0.03232718 0.06524385
v 0.04567837 0.03183228 0.06540597
v 0.04522197 0.03197647 0.06523235
v 0.04615843 0.03171420 0.06589718
v 0.04543961 0.03151328 0.06587202
v 0.04567837 0.03183228 0.06540597
v 0.04278955 0.03570078 0.06503344
v 0.04094706 0.03706861 0.06513841
v 0.04072873 0.03796339 0.06506283
v 0.04278955 0.03570078 0.06503344
v 0.04174742 0.03585258 0.06523229
v 0.04094706 0.03706861 0.06513841
v 0.04307505 0.03491347 0.06505317
v 0.04174742 0.03585258 0.06523229
v 0.04278955 0.03570078 0.06503344
v 0.04174742 0.03585258 0.06523229
v 0.04307505 0.03491347 0.06505317
v 0.04295995 0.03447789 0.06519128
v 0.04094706 0.03706861 0.06513841
v 0.03963431 0.03808709 0.06529463
v 0.03975740 0.03846505 0.06512261
v 0.04515268 0.03250036 0.06500352
v 0.04307505 0.03491347 0.06505317
v 0.04532868 0.03287614 0.06501628
v 0.04532868 0.03287614 0.06501628
v 0.04307505 0.03491347 0.06505317
v 0.04278955 0.03570078 0.06503344
v 0.04033887 0.03706490 0.06546421
v 0.04174742 0.03585258 0.06523229
v 0.04103645 0.03607576 0.06565298
v 0.04463318 0.03239499 0.06513000
v 0.04295995 0.03447789 0.06519128
v 0.04515268 0.03250036 0.06500352
v 0.04515268 0.03250036 0.06500352
v 0.04295995 0.03447789 0.06519128
v 0.04307505 0.03491347 0.06505317
v 0.04423733 0.03216874 0.06550677
v 0.04295995 0.03447789 0.06519128
v 0.04463318 0.03239499 0.06513000
v 0.04295995 0.03447789 0.06519128
v 0.04266311 0.03422361 0.06552638
v 0.04174742 0.03585258 0.06523229
v 0.04174742 0.03585258 0.06523229
v 0.04266311 0.03422361 0.06552638
v 0.04103645 0.03607576 0.06565298
v 0.04423733 0.03216874 0.06550677
v 0.04266311 0.03422361 0.06552638
v 0.04295995 0.03447789 0.06519128
v 0.04072873 0.03796339 0.06506283
v 0.04094706 0.03706861 0.06513841
v 0.03975740 0.03846505 0.06512261
v 0.04094706 0.03706861 0.06513841
v 0.04174742 0.03585258 0.06523229
v 0.04033887 0.03706490 0.06546421
v 0.04072873 0.03796339 0.06506283
v 0.03975740 0.03846505 0.06512261
v 0.03829206 0.04060625 0.06506796
v 0.03925513 0.03800104 0.06565172
v 0.03963431 0.03808709 0.06529463
v 0.04033887 0.03706490 0.06546421
v 0.04033887 0.03706490 0.06546421
v 0.03963431 0.03808709 0.06529463
v 0.04094706 0.03706861 0.06513841
v 0.04033887 0.03706490 0.06546421
v 0.04103645 0.03607576 0.06565298
v 0.03925513 0.03800104 0.06565172
v 0.03544711 0.04178152 0.06544347
v 0.03447823 0.04300444 0.06517209
v 0.03663210 0.04134125 0.06513561
v 0.03449109 0.04350680 0.06503964
v 0.03663210 0.04134125 0.06513561
v 0.03447823 0.04300444 0.06517209
v 0.03663210 0.04134125 0.06513561
v 0.03641741 0.04233583 0.06505913
v 0.03829206 0.04060625 0.06506796
v 0.03829206 0.04060625 0.06506796
v 0.03799357 0.04024606 0.06511177
v 0.03663210 0.04134125 0.06513561
v 0.03663210 0.04134125 0.06513561
v 0.03799357 0.04024606 0.06511177
v 0.03737772 0.04032934 0.06527854
v 0.03737772 0.04032934 0.06527854
v 0.03544711 0.04178152 0.06544347
v 0.03663210 0.04134125 0.06513561
v 0.03716037 0.04008384 0.06561882
v 0.03539311 0.04158296 0.06570751
v 0.03544711 0.04178152 0.06544347
v 0.03449109 0.04350680 0.06503964
v 0.03447823 0.04300444 0.06517209
v 0.03243651 0.04454976 0.06513173
v 0.03353094 0.04323895 0.06548704
v 0.03544711 0.04178152 0.06544347
v 0.03539311 0.04158296 0.06570751
v 0.03963431 0.03808709 0.06529463
v 0.03799357 0.04024606 0.06511177
v 0.03975740 0.03846505 0.06512261
v 0.03975740 0.03846505 0.06512261
v 0.03963431 0.03808709 0.06529463
v 0.03737772 0.04032934 0.06527854
v 0.03799357 0.04024606 0.06511177
v 0.03925513 0.03800104 0.06565172
v 0.03716037 0.04008384 0.06561882
v 0.03963431 0.03808709 0.06529463
v 0.03963431 0.03808709 0.06529463
v 0.03716037 0.04008384 0.06561882
v 0.03737772 0.04032934 0.06527854
v 0.03243651 0.04454976 0.06513173
v 0.03353094 0.04323895 0.06548704
v 0.03219986 0.04419114 0.06553341
v 0.03641741 0.04233583 0.06505913
v 0.03449109 0.04350680 0.06503964
v 0.03272636 0.04531696 0.06498820
v 0.03449109 0.04350680 0.06503964
v 0.03641741 0.04233583 0.06505913
v 0.03663210 0.04134125 0.06513561
v 0.03737772 0.04032934 0.06527854
v 0.03716037 0.04008384 0.06561882
v 0.03544711 0.04178152 0.06544347
v 0.03353094 0.04323895 0.06548704
v 0.03243651 0.04454976 0.06513173
v 0.03447823 0.04300444 0.06517209
v 0.03353094 0.04323895 0.06548704
v 0.03201197 0.04516043 0.06521971
v 0.03180532 0.04467788 0.06556744
v 0.03156099 0.04556495 0.06574781
v 0.03180532 0.04467788 0.06556744
v 0.03159720 0.04498252 0.06576336
v 0.03156099 0.04556495 0.06574781
v 0.03201197 0.04516043 0.06521971
v 0.03272636 0.04531696 0.06498820
v 0.03243651 0.04454976 0.06513173
v 0.03243651 0.04454976 0.06513173
v 0.03180532 0.04467788 0.06556744
v 0.03201197 0.04516043 0.06521971
v 0.03219986 0.04419114 0.06553341
v 0.03180532 0.04467788 0.06556744
v 0.03243651 0.04454976 0.06513173
v 0.03264038 0.04611413 0.06521291
v 0.03204315 0.04568811 0.06524039
v 0.03225532 0.04635723 0.06548656
v 0.03272636 0.04531696 0.06498820
v 0.03204315 0.04568811 0.06524039
v 0.03264038 0.04611413 0.06521291
v 0.03225532 0.04635723 0.06548656
v 0.03204315 0.04568811 0.06524039
v 0.03188388 0.04644822 0.06596250
v 0.03204315 0.04568811 0.06524039
v 0.03156099 0.04556495 0.06574781
v 0.03188388 0.04644822 0.06596250
v 0.03272636 0.04531696 0.06498820
v 0.03201197 0.04516043 0.06521971
v 0.03204315 0.04568811 0.06524039
v 0.03449109 0.04350680 0.06503964
v 0.03243651 0.04454976 0.06513173
v 0.03272636 0.04531696 0.06498820
v 0.03201197 0.04516043 0.06521971
v 0.03156099 0.04556495 0.06574781
v 0.03204315 0.04568811 0.06524039
v 0.03272636 0.04531696 0.06498820
v 0.03264038 0.04611413 0.06521291
v 0.03656383 0.04964907 0.06675507
v 0.03656383 0.04964907 0.06675507
v 0.03264038 0.04611413 0.06521291
v 0.03578976 0.04951976 0.06670762
v 0.03578976 0.04951976 0.06670762
v 0.03225532 0.04635723 0.06548656
v 0.03566648 0.04983000 0.06699629
v 0.03264038 0.04611413 0.06521291
v 0.03225532 0.04635723 0.06548656
v 0.03578976 0.04951976 0.06670762
v 0.03566648 0.04983000 0.06699629
v 0.03188388 0.04644822 0.06596250
v 0.03524581 0.04984445 0.06745274
v 0.03225532 0.04635723 0.06548656
v 0.03188388 0.04644822 0.06596250
v 0.03566648 0.04983000 0.06699629
v 0.03657121 0.03711159 0.06847782
v 0.03686692 0.03746342 0.06806303
v 0.03823920 0.03599648 0.06808800
v 0.03923754 0.03430070 0.06844164
v 0.03972804 0.03447165 0.06800712
v 0.04156602 0.03160874 0.06832374
v 0.03923754 0.03430070 0.06844164
v 0.03657121 0.03711159 0.06847782
v 0.03823920 0.03599648 0.06808800
v 0.03923754 0.03430070 0.06844164
v 0.03823920 0.03599648 0.06808800
v 0.03972804 0.03447165 0.06800712
v 0.03447819 0.03891827 0.06851674
v 0.03316877 0.04014027 0.06844498
v 0.03501788 0.03914531 0.06807513
v 0.03447819 0.03891827 0.06851674
v 0.03501788 0.03914531 0.06807513
v 0.03657121 0.03711159 0.06847782
v 0.03316877 0.04014027 0.06844498
v 0.03160732 0.04154925 0.06834728
v 0.03346456 0.04052297 0.06801934
v 0.03829206 0.04060625 0.06506796
v 0.04112896 0.04685764 0.06703533
v 0.04480943 0.04331810 0.06702442
v 0.03656383 0.04964907 0.06675507
v 0.03741726 0.04974200 0.06694807
v 0.04112896 0.04685764 0.06703533
v 0.03641741 0.04233583 0.06505913
v 0.03641741 0.04233583 0.06505913
v 0.03272636 0.04531696 0.06498820
v 0.04959631 0.03620970 0.06669475
v 0.04850066 0.03528441 0.06623466
v 0.04818194 0.03958625 0.06702043
v 0.04974559 0.03747242 0.06696315
v 0.04959631 0.03620970 0.06669475
v 0.04818194 0.03958625 0.06702043
v 0.03829206 0.04060625 0.06506796
v 0.04647550 0.04146297 0.06701244
v 0.04072873 0.03796339 0.06506283
v 0.04480943 0.04331810 0.06702442
v 0.04647550 0.04146297 0.06701244
v 0.04278955 0.03570078 0.06503344
v 0.04072873 0.03796339 0.06506283
v 0.04818194 0.03958625 0.06702043
v 0.04278955 0.03570078 0.06503344
v 0.04647550 0.04146297 0.06701244
v 0.04818194 0.03958625 0.06702043
v 0.04605744 0.03278017 0.06518109
v 0.04532868 0.03287614 0.06501628
v 0.04818194 0.03958625 0.06702043
v 0.04532868 0.03287614 0.06501628
v 0.04278955 0.03570078 0.06503344
v 0.04850066 0.03528441 0.06623466
v 0.04605744 0.03278017 0.06518109
vn 0.72974310 -0.35073602 -0.58690651
vn 0.72974310 -0.35073602 -0.58690651
vn 0.72974310 -0.35073602 -0.58690651
vn 0.87377111 0.42639396 -0.23390645
vn 0.87377111 0.42639396 -0.23390645
vn 0.87377111 0.42639396 -0.23390645
vn 0.90467530 0.39003551 -0.17156601
vn 0.90467530 0.39003551 -0.17156601
vn 0.90467530 0.39003551 -0.17156601
vn 0.87428582 -0.30820644 -0.37501080
vn 0.87428582 -0.30820644 -0.37501080
vn 0.87428582 -0.30820644 -0.37501080
vn 0.86616963 -0.18465005 -0.46438618
vn 0.86616963 -0.18465005 -0.46438618
vn 0.86616963 -0.18465005 -0.46438618
vn 0.60631462 0.35162901 -0.71325985
vn 0.60631462 0.35162901 -0.71325985
vn 0.60631462 0.35162901 -0.71325985
vn 0.71966224 0.43559654 -0.54068652
vn 0.71966224 0.43559654 -0.54068652
vn 0.71966224 0.43559654 -0.54068652
vn 0.66020103 -0.03171653 -0.75041899
vn 0.66020103 -0.03171653 -0.75041899
vn 0.66020103 -0.03171653 -0.75041899
vn 0.77607140 0.14483071 -0.61378925
vn 0.77607140 0.14483071 -0.61378925
vn 0.77607140 0.14483071 -0.61378925
vn 0.80697393 0.20371077 -0.55434195
vn 0.80697393 0.20371077 -0.55434195
vn 0.80697393 0.20371077 -0.55434195
vn 0.92151319 0.22625713 -0.31562819
vn 0.92151319 0.22625713 -0.31562819
vn 0.92151319 0.22625713 -0.31562819
vn 0.57774161 0.13573538 -0.80485436
vn 0.57774161 0.13573538 -0.80485436
vn 0.57774161 0.13573538 -0.80485436
vn 0.49153660 0.33655647 -0.80319457
vn 0.49153660 0.33655647 -0.80319457
vn 0.49153660 0.33655647 -0.80319457
vn 0.92145669 -0.09587585 -0.37646431
vn 0.92145669 -0.09587585 -0.37646431
vn 0.92145669 -0.09587585 -0.37646431
vn 0.59483478 -0.06610240 -0.80112549
vn 0.59483478 -0.06610240 -0.80112549
vn 0.59483478 -0.06610240 -0.80112549
vn 0.73065502 -0.62045380 -0.28492161
vn 0.73065502 -0.62045380 -0.28492161
vn 0.73065502 -0.62045380 -0.28492161
vn 0.68844510 -0.42780506 -0.58568437
vn 0.68844510 -0.42780506 -0.58568437
vn 0.68844510 -0.42780506 -0.58568437
vn 0.62802036 -0.33643590 -0.70171313
vn 0.62802036 -0.33643590 -0.70171313
vn 0.62802036 -0.33643590 -0.70171313
vn 0.35760761 0.04170868 -0.93294008
vn 0.35760761 0.04170868 -0.93294008
vn 0.35760761 0.04170868 -0.93294008
vn 0.38869199 -0.00119588 -0.92136698
vn 0.38869199 -0.00119588 -0.92136698
vn 0.38869199 -0.00119588 -0.92136698
vn 0.38889982 -0.55945337 -0.73196234
vn 0.38889982 -0.55945337 -0.73196234
vn 0.38889982 -0.55945337 -0.73196234
vn 0.40966262 -0.58016581 -0.70397739
vn 0.40966262 -0.58016581 -0.70397739
vn 0.40966262 -0.58016581 -0.70397739
vn 0.20078429 -0.15570502 -0.96718231
vn 0.20078429 -0.15570502 -0.96718231
vn 0.20078429 -0.15570502 -0.96718231
vn 0.09440266 -0.68777019 -0.71976406
vn 0.09440266 -0.68777019 -0.71976406
vn 0.09440266 -0.68777019 -0.71976406
vn 0.45018231 -0.77197929 -0.44875813
vn 0.45018231 -0.77197929 -0.44875813
vn 0.45018231 -0.77197929 -0.44875813
vn 0.07239146 -0.73569814 -0.67342982
vn 0.07239146 -0.73569814 -0.67342982
vn 0.07239146 -0.73569814 -0.67342982
vn 0.17857484 -0.01159640 -0.98385799
vn 0.17857484 -0.01159640 -0.98385799
vn 0.17857484 -0.01159640 -0.98385799
vn -0.31350368 -0.89116651 -0.32792941
vn -0.31350368 -0.89116651 -0.32792941
vn -0.31350368 -0.89116651 -0.32792941
vn -0.17471535 -0.47183224 -0.86420419
vn -0.17471535 -0.47183224 -0.86420419
vn -0.17471535 -0.47183224 -0.86420419
vn -0.31010619 -0.59044988 -0.74511952
vn -0.31010619 -0.59044988 -0.74511952
vn -0.31010619 -0.59044988 -0.74511952
vn 0.07743270 -0.54813762 -0.83279609
vn 0.07743270 -0.54813762 -0.83279609
vn 0.07743270 -0.54813762 -0.83279609
vn -0.09273184 -0.25943287 -0.96129881
vn -0.09273184 -0.25943287 -0.96129881
vn -0.09273184 -0.25943287 -0.96129881
vn -0.40920436 -0.57927032 -0.70498063
vn -0.40920436 -0.57927032 -0.70498063
vn -0.40920436 -0.57927032 -0.70498063
vn 0.33998324 -0.29781274 -0.89203081
vn 0.33998324 -0.29781274 -0.89203081
vn 0.33998324 -0.29781274 -0.89203081
vn -0.46679349 -0.62195581 -0.62870884
vn -0.46679349 -0.62195581 -0.62870884
vn -0.46679349 -0.62195581 -0.62870884
vn -0.07086566 0.12347592 -0.98981400
vn -0.07086566 0.12347592 -0.98981400
vn -0.07086566 0.12347592 -0.98981400
vn -0.60432355 -0.51877990 -0.60469865
vn -0.60432355 -0.51877990 -0.60469865
vn -0.60432355 -0.51877990 -0.60469865
vn -0.60764493 -0.44438424 -0.65824789
vn -0.60764493 -0.44438424 -0.65824789
vn -0.60764493 -0.44438424 -0.65824789
vn -0.70360187 -0.37076347 -0.60620034
vn -0.70360187 -0.37076347 -0.60620034
vn -0.70360187 -0.37076347 -0.60620034
vn -0.61932328 -0.08121215 -0.78092462
vn -0.61932328 -0.08121215 -0.78092462
vn -0.61932328 -0.08121215 -0.78092462
vn -0.67888532 -0.15004962 -0.71874880
vn -0.67888532 -0.15004962 -0.71874880
vn -0.67888532 -0.15004962 -0.71874880
vn -0.31842783 0.15713092 -0.93483346
vn -0.31842783 0.15713092 -0.93483346
vn -0.31842783 0.15713092 -0.93483346
vn -0.28831773 0.30706184 -0.90696522
vn -0.28831773 0.30706184 -0.90696522
vn -0.28831773 0.30706184 -0.90696522
vn -0.78137978 0.15289550 -0.60503604
vn -0.78137978 0.15289550 -0.60503604
vn -0.78137978 0.15289550 -0.60503604
vn -0.09157077 0.30895655 -0.94665762
vn -0.09157077 0.30895655 -0.94665762
vn -0.09157077 0.30895655 -0.94665762
vn -0.53428853 0.50450974 -0.67823720
vn -0.53428853 0.50450974 -0.67823720
vn -0.53428853 0.50450974 -0.67823720
vn -0.62140667 0.58619095 -0.51984029
vn -0.62140667 0.58619095 -0.51984029
vn -0.62140667 0.58619095 -0.51984029
vn -0.76189971 0.26265607 -0.59204782
vn -0.76189971 0.26265607 -0.59204782
vn -0.76189971 0.26265607 -0.59204782
vn -0.36225487 -0.28718857 -0.88673228
vn -0.36225487 -0.28718857 -0.88673228
vn -0.36225487 -0.28718857 -0.88673228
vn -0.27612253 -0.06497344 -0.95892377
vn -0.27612253 -0.06497344 -0.95892377
vn -0.27612253 -0.06497344 -0.95892377
vn -0.52770711 0.40061926 -0.74901896
vn -0.52770711 0.40061926 -0.74901896
vn -0.52770711 0.40061926 -0.74901896
vn -0.59422180 0.03185413 -0.80367019
vn -0.59422180 0.03185413 -0.80367019
vn -0.59422180 0.03185413 -0.80367019
vn -0.17879225 -0.00104728 -0.98388629
vn -0.17879225 -0.00104728 -0.98388629
vn -0.17879225 -0.00104728 -0.98388629
vn -0.15807132 0.49832700 -0.85245742
vn -0.15807132 0.49832700 -0.85245742
vn -0.15807132 0.49832700 -0.85245742
vn 0.47815128 0.39180298 -0.78604184
vn 0.47815128 0.39180298 -0.78604184
vn 0.47815128 0.39180298 -0.78604184
vn 0.63294790 0.56268844 -0.53175058
vn 0.63294790 0.56268844 -0.53175058
vn 0.63294790 0.56268844 -0.53175058
vn 0.64747846 0.56371713 -0.51283003
vn 0.64747846 0.56371713 -0.51283003
vn 0.64747846 0.56371713 -0.51283003
vn 0.79130520 0.59745462 -0.12993870
vn 0.79130520 0.59745462 -0.12993870
vn 0.79130520 0.59745462 -0.12993870
vn 0.19110051 0.19110048 -0.96278824
vn 0.19110051 0.19110048 -0.96278824
vn 0.19110051 0.19110048 -0.96278824
vn 0.16811718 0.20168679 -0.96491401
vn 0.16811718 0.20168679 -0.96491401
vn 0.16811718 0.20168679 -0.96491401
vn 0.23622268 0.21312803 -0.94803760
vn 0.23622268 0.21312803 -0.94803760
vn 0.23622268 0.21312803 -0.94803760
vn 0.17182084 0.20916666 -0.96266656
vn 0.17182084 0.20916666 -0.96266656
vn 0.17182084 0.20916666 -0.96266656
vn 0.22579886 0.19402154 -0.95465728
vn 0.22579886 0.19402154 -0.95465728
vn 0.22579886 0.19402154 -0.95465728
vn 0.18256981 0.21016749 -0.96046754
vn 0.18256981 0.21016749 -0.96046754
vn 0.18256981 0.21016749 -0.96046754
vn 0.23452181 0.21065689 -0.94901169
vn 0.23452181 0.21065689 -0.94901169
vn 0.23452181 0.21065689 -0.94901169
vn 0.24220877 0.20384736 -0.94856796
vn 0.24220877 0.20384736 -0.94856796
vn 0.24220877 0.20384736 -0.94856796
vn 0.19010622 0.19720287 -0.96175395
vn 0.19010622 0.19720287 -0.96175395
vn 0.19010622 0.19720287 -0.96175395
vn 0.15417950 0.13454351 -0.97883948
vn 0.15417950 0.13454351 -0.97883948
vn 0.15417950 0.13454351 -0.97883948
vn 0.19205325 0.18934198 -0.96294609
vn 0.19205325 0.18934198 -0.96294609
vn 0.19205325 0.18934198 -0.96294609
vn 0.18971304 0.21940055 -0.95701221
vn 0.19084882 0.21797881 -0.95711126
vn 0.18961883 0.21951841 -0.95700385
vn 0.19094452 0.21785895 -0.95711946
vn 0.19840797 0.22674805 -0.95353007
vn 0.19840797 0.22674805 -0.95353007
vn 0.19840797 0.22674805 -0.95353007
vn 0.19903981 0.23333852 -0.95180686
vn 0.19903981 0.23333852 -0.95180686
vn 0.19903981 0.23333852 -0.95180686
vn 0.17166759 0.17915221 -0.96872841
vn 0.17166759 0.17915221 -0.96872841
vn 0.17166759 0.17915221 -0.96872841
vn 0.20936201 0.21955703 -0.95287054
vn 0.20936201 0.21955703 -0.95287054
vn 0.20936201 0.21955703 -0.95287054
vn 0.22077953 0.22428081 -0.94918624
vn 0.22072739 0.22405598 -0.94925146
vn 0.22071538 0.22400420 -0.94926647
vn 0.21990997 0.22145890 -0.95005029
vn 0.21491789 0.20584344 -0.95469303
vn 0.21491789 0.20584344 -0.95469303
vn 0.21491789 0.20584344 -0.95469303
vn 0.26300111 0.26011804 -0.92906890
vn 0.26300111 0.26011804 -0.92906890
vn 0.26300111 0.26011804 -0.92906890
vn 0.19214049 0.17759738 -0.96516382
vn 0.19214049 0.17759738 -0.96516382
vn 0.19214049 0.17759738 -0.96516382
vn 0.16806337 0.17233222 -0.97059585
vn 0.16806337 0.17233222 -0.97059585
vn 0.16806337 0.17233222 -0.97059585
vn 0.17541871 0.17541868 -0.96873968
vn 0.17541871 0.17541868 -0.96873968
vn 0.17541871 0.17541868 -0.96873968
vn 0.22879121 0.23327907 -0.94511135
vn 0.22879121 0.23327907 -0.94511135
vn 0.22879121 0.23327907 -0.94511135
vn 0.19031042 0.19067396 -0.96302928
vn 0.18459623 0.19145590 -0.96398593
vn 0.18784619 0.19101208 -0.96344600
vn 0.19440231 0.19010947 -0.96232330
vn 0.19949261 0.17502674 -0.96414125
vn 0.19949261 0.17502674 -0.96414125
vn 0.19949261 0.17502674 -0.96414125
vn 0.23093588 0.23290682 -0.94468145
vn 0.23093588 0.23290682 -0.94468145
vn 0.23093588 0.23290682 -0.94468145
vn 0.20681167 0.19185291 -0.95938595
vn 0.20681167 0.19185291 -0.95938595
vn 0.20681167 0.19185291 -0.95938595
vn 0.22508693 0.22422013 -0.94818838
vn 0.22508693 0.22422013 -0.94818838
vn 0.22508693 0.22422013 -0.94818838
vn 0.22204494 0.22002328 -0.94988726
vn 0.21851166 0.21691765 -0.95141967
vn 0.23352645 0.22369782 -0.94626882
vn 0.23352645 0.22369782 -0.94626882
vn 0.23352645 0.22369782 -0.94626882
vn 0.21789069 0.19061192 -0.95717853
vn 0.21789069 0.19061192 -0.95717853
vn 0.21789069 0.19061192 -0.95717853
vn 0.23085515 0.17930450 -0.95632411
vn 0.23085515 0.17930450 -0.95632411
vn 0.23085515 0.17930450 -0.95632411
vn 0.22330136 0.22112748 -0.94933616
vn 0.22330136 0.22112748 -0.94933616
vn 0.19033389 0.17942166 -0.96518437
vn 0.19033389 0.17942166 -0.96518437
vn 0.19033389 0.17942166 -0.96518437
vn -0.69158539 0.72222388 -0.01011547
vn -0.69158539 0.72222388 -0.01011547
vn -0.69158539 0.72222388 -0.01011547
vn -0.69191556 0.71950272 -0.05973853
vn -0.69191556 0.71950272 -0.05973853
vn -0.69191556 0.71950272 -0.05973853
vn 0.70894872 -0.70521078 -0.00833527
vn 0.70894872 -0.70521078 -0.00833527
vn 0.70894872 -0.70521078 -0.00833527
vn 0.61530421 0.60925049 -0.50021453
vn 0.61530421 0.60925049 -0.50021453
vn 0.61530421 0.60925049 -0.50021453
vn 0.40617605 0.38171124 -0.83025150
vn 0.40617605 0.38171124 -0.83025150
vn 0.40617605 0.38171124 -0.83025150
vn 0.64812499 0.59494523 -0.47536741
vn 0.64812499 0.59494523 -0.47536741
vn 0.64812499 0.59494523 -0.47536741
vn 0.71088707 0.68089035 -0.17614740
vn 0.71088707 0.68089035 -0.17614740
vn 0.71088707 0.68089035 -0.17614740
vn 0.74112035 0.67063350 -0.03148543
vn 0.74112035 0.67063350 -0.03148543
vn 0.74112035 0.67063350 -0.03148543
vn 0.66711133 0.72531117 -0.16995934
vn 0.66711133 0.72531117 -0.16995934
vn 0.66711133 0.72531117 -0.16995934
vn 0.68651430 0.70124893 -0.19221876
vn 0.68651430 0.70124893 -0.19221876
vn 0.68651430 0.70124893 -0.19221876
vn 0.69729665 0.68952372 -0.19579179
vn 0.69729665 0.68952372 -0.19579179
vn 0.69729665 0.68952372 -0.19579179
vn 0.70605653 0.68841743 -0.16602897
vn 0.70605653 0.68841743 -0.16602897
vn 0.70605653 0.68841743 -0.16602897
vn 0.60285779 0.58561545 -0.54186440
vn 0.60285779 0.58561545 -0.54186440
vn 0.60285779 0.58561545 -0.54186440
vn 0.46022084 0.45442970 -0.76268632
vn 0.46022084 0.45442970 -0.76268632
vn 0.46022084 0.45442970 -0.76268632
vn 0.64780762 0.59741820 -0.47269099
vn 0.64780762 0.59741820 -0.47269099
vn 0.64780762 0.59741820 -0.47269099
vn 0.66754878 0.58789622 -0.45689896
vn 0.66754878 0.58789622 -0.45689896
vn 0.66754878 0.58789622 -0.45689896
vn 0.47101918 0.41917223 -0.77616723
vn 0.47101918 0.41917223 -0.77616723
vn 0.47101918 0.41917223 -0.77616723
vn 0.67253032 0.60753119 -0.42262136
vn 0.67253032 0.60753119 -0.42262136
vn 0.67253032 0.60753119 -0.42262136
vn 0.45136313 0.48326739 -0.75014929
vn 0.45150392 0.48352203 -0.74990043
vn 0.45152090 0.48355274 -0.74987041
vn 0.57557118 0.64819043 -0.49856492
vn 0.57557118 0.64819043 -0.49856492
vn 0.57557118 0.64819043 -0.49856492
vn 0.60519011 0.65540207 -0.45187726
vn 0.60519011 0.65540207 -0.45187726
vn 0.60519011 0.65540207 -0.45187726
vn 0.60556963 0.62340946 -0.49461709
vn 0.60556963 0.62340946 -0.49461709
vn 0.60556963 0.62340946 -0.49461709
vn 0.45699476 0.44628764 -0.76940440
vn 0.45699476 0.44628764 -0.76940440
vn 0.45699476 0.44628764 -0.76940440
vn 0.65664359 0.73917591 -0.14979379
vn 0.65664359 0.73917591 -0.14979379
vn 0.65664359 0.73917591 -0.14979379
vn 0.58412164 0.70685358 -0.39894852
vn 0.58412164 0.70685358 -0.39894852
vn 0.58412164 0.70685358 -0.39894852
vn 0.45135612 0.48325472 -0.75016167
vn 0.59231892 0.61766647 -0.51734556
vn 0.59231892 0.61766647 -0.51734556
vn 0.59231892 0.61766647 -0.51734556
vn 0.67275745 0.72536812 -0.14573436
vn 0.67275745 0.72536812 -0.14573436
vn 0.67275745 0.72536812 -0.14573436
vn 0.46955882 0.49182725 -0.73322607
vn 0.46955882 0.49182725 -0.73322607
vn 0.46955882 0.49182725 -0.73322607
vn 0.68521520 0.71387915 -0.14441847
vn 0.68521520 0.71387915 -0.14441847
vn 0.68521520 0.71387915 -0.14441847
vn 0.44151925 0.44258187 -0.78050115
vn 0.44151925 0.44258187 -0.78050115
vn 0.44151925 0.44258187 -0.78050115
vn -0.70521066 0.70894884 -0.00833527
vn -0.70521066 0.70894884 -0.00833527
vn -0.70521066 0.70894884 -0.00833527
vn 0.70705376 -0.69814152 0.11257622
vn 0.70705376 -0.69814152 0.11257622
vn 0.70705376 -0.69814152 0.11257622
vn 0.71046971 -0.70366684 -0.00926127
vn 0.71046971 -0.70366684 -0.00926127
vn 0.71046971 -0.70366684 -0.00926127
vn 0.36981386 0.47560217 -0.79814803
vn 0.36981386 0.47560217 -0.79814803
vn 0.36981386 0.47560217 -0.79814803
vn 0.58430371 0.61269578 -0.53215886
vn 0.58430371 0.61269578 -0.53215886
vn 0.58430371 0.61269578 -0.53215886
vn 0.57798049 0.77554065 -0.25391976
vn 0.57798049 0.77554065 -0.25391976
vn 0.57798049 0.77554065 -0.25391976
vn 0.37558394 0.57938527 -0.72335981
vn 0.37558394 0.57938527 -0.72335981
vn 0.37558394 0.57938527 -0.72335981
vn 0.51378107 0.79620679 -0.31950550
vn 0.51378107 0.79620679 -0.31950550
vn 0.51378107 0.79620679 -0.31950550
vn -0.34393398 0.80495254 -0.48348819
vn -0.34393398 0.80495254 -0.48348819
vn -0.34393398 0.80495254 -0.48348819
vn -0.34079021 0.87956092 -0.33201598
vn -0.34079021 0.87956092 -0.33201598
vn -0.34079021 0.87956092 -0.33201598
vn 0.35377010 0.92182008 -0.15841231
vn 0.35377010 0.92182008 -0.15841231
vn 0.35377010 0.92182008 -0.15841231
vn 0.31192313 0.90964930 -0.27430295
vn 0.31192313 0.90964930 -0.27430295
vn 0.31192313 0.90964930 -0.27430295
vn -0.09195969 0.60547827 -0.79053114
vn -0.09195969 0.60547827 -0.79053114
vn -0.09195969 0.60547827 -0.79053114
vn 0.15871286 0.44080535 -0.88345960
vn 0.15871286 0.44080535 -0.88345960
vn 0.15871286 0.44080535 -0.88345960
vn -0.11816000 0.90878236 -0.40019100
vn -0.11816000 0.90878236 -0.40019100
vn -0.11816000 0.90878236 -0.40019100
vn 0.02149786 0.58400484 -0.81146546
vn 0.02149786 0.58400484 -0.81146546
vn 0.02149786 0.58400484 -0.81146546
vn 0.31305301 0.63535374 -0.70592028
vn 0.31305301 0.63535374 -0.70592028
vn 0.31305301 0.63535374 -0.70592028
vn -0.04764460 0.95768070 -0.28386205
vn -0.04764460 0.95768070 -0.28386205
vn -0.04764460 0.95768070 -0.28386205
vn 0.22069637 0.59680283 -0.77143989
vn 0.22069637 0.59680283 -0.77143989
vn 0.22069637 0.59680283 -0.77143989
vn 0.13417294 0.90404197 -0.40583956
vn 0.13417294 0.90404197 -0.40583956
vn 0.13417294 0.90404197 -0.40583956
vn -0.56963000 0.82188932 -0.00442860
vn -0.56963000 0.82188932 -0.00442860
vn -0.56963000 0.82188932 -0.00442860
vn 0.46396922 0.85380085 0.23612850
vn 0.46396922 0.85380085 0.23612850
vn 0.46396922 0.85380085 0.23612850
vn 0.30406758 0.91899635 0.25097534
vn 0.30406758 0.91899635 0.25097534
vn 0.30406758 0.91899635 0.25097534
vn 0.23148189 0.94831283 0.21706893
vn 0.23148189 0.94831283 0.21706893
vn 0.23148189 0.94831283 0.21706893
vn -0.25180495 0.95588447 0.15125852
vn -0.25180495 0.95588447 0.15125852
vn -0.25180495 0.95588447 0.15125852
vn -0.13742356 0.97978997 0.14534915
vn -0.13742356 0.97978997 0.14534915
vn -0.13742356 0.97978997 0.14534915
vn -0.45952074 0.88756762 0.03262511
vn -0.45952074 0.88756762 0.03262511
vn -0.45952074 0.88756762 0.03262511
vn 0.75520393 0.60724981 0.24680903
vn 0.75520393 0.60724981 0.24680903
vn 0.75520393 0.60724981 0.24680903
vn 0.70709403 0.62802433 0.32496687
vn 0.70709403 0.62802433 0.32496687
vn 0.70709403 0.62802433 0.32496687
vn 0.70368251 0.65531307 0.27458277
vn 0.70368251 0.65531307 0.27458277
vn 0.70368251 0.65531307 0.27458277
vn 0.68648981 0.68873647 0.23318192
vn 0.68631493 0.68897129 0.23300296
vn 0.68669087 0.68846628 0.23338774
vn 0.68605552 0.68931926 0.23273759
vn 0.66683158 0.70895144 0.22961597
vn 0.66683158 0.70895144 0.22961597
vn 0.66683158 0.70895144 0.22961597
vn 0.63024984 0.73251607 0.25730400
vn 0.63024984 0.73251607 0.25730400
vn 0.63024984 0.73251607 0.25730400
vn 0.60990830 0.73835792 0.28781842
vn 0.60990830 0.73835792 0.28781842
vn 0.60990830 0.73835792 0.28781842
vn 0.59044864 0.76531494 0.25624882
vn 0.59044864 0.76531494 0.25624882
vn 0.59044864 0.76531494 0.25624882
vn 0.70724839 -0.70623435 -0.03213651
vn 0.70724839 -0.70623435 -0.03213651
vn 0.70724839 -0.70623435 -0.03213651
vn 0.89868309 -0.43273557 0.07147467
vn 0.89868309 -0.43273557 0.07147467
vn 0.89868309 -0.43273557 0.07147467
vn 0.89244714 -0.44500256 0.07423500
vn 0.89244714 -0.44500256 0.07423500
vn 0.89244714 -0.44500256 0.07423500
vn 0.94430508 0.19675231 0.26377346
vn 0.94430508 0.19675231 0.26377346
vn 0.94430508 0.19675231 0.26377346
vn 0.98414422 0.02678646 0.17533581
vn 0.98414422 0.02678646 0.17533581
vn 0.98414422 0.02678646 0.17533581
vn 0.91166451 0.33917585 0.23200769
vn 0.91166451 0.33917585 0.23200769
vn 0.91166451 0.33917585 0.23200769
vn 0.71702405 -0.69702920 -0.00517783
vn 0.71702405 -0.69702920 -0.00517783
vn 0.71702405 -0.69702920 -0.00517783
vn 0.71094087 -0.70246553 -0.03324530
vn 0.71094087 -0.70246553 -0.03324530
vn 0.71094087 -0.70246553 -0.03324530
vn -0.54584250 -0.78463414 -0.29394767
vn -0.54584250 -0.78463414 -0.29394767
vn -0.54584250 -0.78463414 -0.29394767
vn -0.55352774 -0.78034157 -0.29098809
vn -0.55352774 -0.78034157 -0.29098809
vn -0.55352774 -0.78034157 -0.29098809
vn -0.17141687 -0.94107112 -0.29155000
vn -0.17141687 -0.94107112 -0.29155000
vn -0.17141687 -0.94107112 -0.29155000
vn 0.18218494 -0.97159203 -0.15105490
vn 0.18218494 -0.97159203 -0.15105490
vn 0.18218494 -0.97159203 -0.15105490
vn 0.27088136 -0.94868915 -0.16313241
vn 0.27088136 -0.94868915 -0.16313241
vn 0.27088136 -0.94868915 -0.16313241
vn 0.60197036 -0.79358257 -0.08864752
vn 0.60197036 -0.79358257 -0.08864752
vn 0.60197036 -0.79358257 -0.08864752
vn -0.59379538 -0.72764201 -0.34342999
vn -0.59379538 -0.72764201 -0.34342999
vn -0.59379538 -0.72764201 -0.34342999
vn -0.56062310 -0.76871473 -0.30786264
vn -0.56062310 -0.76871473 -0.30786264
vn -0.56062310 -0.76871473 -0.30786264
vn -0.60715164 -0.72579881 -0.32339290
vn -0.60715164 -0.72579881 -0.32339290
vn -0.60715164 -0.72579881 -0.32339290
vn -0.62490090 -0.71862338 -0.30508903
vn -0.62490090 -0.71862338 -0.30508903
vn -0.62490090 -0.71862338 -0.30508903
vn -0.67114114 -0.67967525 -0.29599175
vn -0.67114114 -0.67967525 -0.29599175
vn -0.67114114 -0.67967525 -0.29599175
vn -0.69541839 -0.61072124 -0.37869887
vn -0.69541839 -0.61072124 -0.37869887
vn -0.69541839 -0.61072124 -0.37869887
vn -0.69153947 -0.64004313 -0.33484019
vn -0.69153947 -0.64004313 -0.33484019
vn -0.69153947 -0.64004313 -0.33484019
vn -0.71684100 -0.60600286 -0.34481809
vn -0.71684100 -0.60600286 -0.34481809
vn -0.71684100 -0.60600286 -0.34481809
vn -0.75916837 -0.57874971 -0.29784588
vn -0.75916837 -0.57874971 -0.29784588
vn -0.75916837 -0.57874971 -0.29784588
vn -0.95622785 0.25128126 -0.14995343
vn -0.95622785 0.25128126 -0.14995343
vn -0.95622785 0.25128126 -0.14995343
vn -0.91392521 0.37299358 -0.16005156
vn -0.91392521 0.37299358 -0.16005156
vn -0.91392521 0.37299358 -0.16005156
vn -0.96166065 -0.06687905 -0.26596237
vn -0.96166065 -0.06687905 -0.26596237
vn -0.96166065 -0.06687905 -0.26596237
vn -0.86224359 -0.42509612 -0.27537117
vn -0.86224359 -0.42509612 -0.27537117
vn -0.86224359 -0.42509612 -0.27537117
vn -0.86702177 -0.41401219 -0.27724926
vn -0.86702177 -0.41401219 -0.27724926
vn -0.86702177 -0.41401219 -0.27724926
vn -0.74581614 -0.58185643 -0.32434763
vn -0.74581614 -0.58185643 -0.32434763
vn -0.74581614 -0.58185643 -0.32434763
vn -0.70305889 0.71112153 -0.00379102
vn -0.70305889 0.71112153 -0.00379102
vn -0.70305889 0.71112153 -0.00379102
vn -0.70512605 0.70866571 -0.02429337
vn -0.70512605 0.70866571 -0.02429337
vn -0.70512605 0.70866571 -0.02429337
vn -0.53254678 0.72152256 -0.44249195
vn -0.53254678 0.72152256 -0.44249195
vn -0.53254678 0.72152256 -0.44249195
vn -0.49947261 0.71576757 -0.48806136
vn -0.49947261 0.71576757 -0.48806136
vn -0.49947261 0.71576757 -0.48806136
vn -0.14579531 0.50474946 -0.85086527
vn -0.14579531 0.50474946 -0.85086527
vn -0.14579531 0.50474946 -0.85086527
vn -0.09814190 0.47549213 -0.87422846
vn -0.09814190 0.47549213 -0.87422846
vn -0.09814190 0.47549213 -0.87422846
vn 0.00127887 -0.00716695 -0.99997350
vn 0.00127887 -0.00716695 -0.99997350
vn 0.00127887 -0.00716695 -0.99997350
vn -0.16556277 -0.25115222 -0.95368314
vn -0.16556277 -0.25115222 -0.95368314
vn -0.16556277 -0.25115222 -0.95368314
vn -0.42323039 -0.50758765 -0.75048705
vn -0.42323039 -0.50758765 -0.75048705
vn -0.42323039 -0.50758765 -0.75048705
vn -0.53923006 -0.42649603 -0.72617634
vn -0.53923006 -0.42649603 -0.72617634
vn -0.53923006 -0.42649603 -0.72617634
vn -0.00939940 0.01795361 -0.99979464
vn -0.00939940 0.01795361 -0.99979464
vn -0.00939940 0.01795361 -0.99979464
vn -0.24961765 -0.24943483 -0.93566730
vn -0.24961765 -0.24943483 -0.93566730
vn -0.24961765 -0.24943483 -0.93566730
vn -0.22987156 -0.24594377 -0.94163195
vn -0.22987156 -0.24594377 -0.94163195
vn -0.22987156 -0.24594377 -0.94163195
vn -0.26234646 -0.33248279 -0.90588605
vn -0.26234646 -0.33248279 -0.90588605
vn -0.26234646 -0.33248279 -0.90588605
vn -0.13623872 -0.08361733 -0.98714090
vn -0.13623872 -0.08361733 -0.98714090
vn -0.13623872 -0.08361733 -0.98714090
vn -0.49367626 -0.36946016 -0.78726295
vn -0.49367626 -0.36946016 -0.78726295
vn -0.49367626 -0.36946016 -0.78726295
vn -0.61804784 -0.43284680 -0.65624730
vn -0.61804784 -0.43284680 -0.65624730
vn -0.61804784 -0.43284680 -0.65624730
vn -0.09985268 -0.04841852 -0.99382347
vn -0.09985268 -0.04841852 -0.99382347
vn -0.09985268 -0.04841852 -0.99382347
vn -0.45371823 -0.49347397 -0.74203990
vn -0.45371823 -0.49347397 -0.74203990
vn -0.45371823 -0.49347397 -0.74203990
vn -0.32375459 -0.21363169 -0.92170737
vn -0.32375459 -0.21363169 -0.92170737
vn -0.32375459 -0.21363169 -0.92170737
vn -0.26895680 -0.20664262 -0.94072369
vn -0.26895680 -0.20664262 -0.94072369
vn -0.26895680 -0.20664262 -0.94072369
vn -0.18189800 -0.09718546 -0.97850299
vn -0.18189800 -0.09718546 -0.97850299
vn -0.18189800 -0.09718546 -0.97850299
vn -0.17509711 -0.15677327 -0.97198927
vn -0.17509711 -0.15677327 -0.97198927
vn -0.17509711 -0.15677327 -0.97198927
vn -0.29976212 -0.24376333 -0.92234598
vn -0.29976212 -0.24376333 -0.92234598
vn -0.29976212 -0.24376333 -0.92234598
vn -0.25560518 -0.25899516 -0.93144377
vn -0.25560518 -0.25899516 -0.93144377
vn -0.25560518 -0.25899516 -0.93144377
vn -0.16802392 -0.25542483 -0.95211665
vn -0.16802392 -0.25542483 -0.95211665
vn -0.16802392 -0.25542483 -0.95211665
vn -0.11564243 -0.14814007 -0.98218193
vn -0.11564243 -0.14814007 -0.98218193
vn -0.11564243 -0.14814007 -0.98218193
vn -0.45429984 -0.61671813 -0.64286111
vn -0.45429984 -0.61671813 -0.64286111
vn -0.45429984 -0.61671813 -0.64286111
vn -0.23730393 -0.34215724 -0.90918385
vn -0.23730393 -0.34215724 -0.90918385
vn -0.23730393 -0.34215724 -0.90918385
vn 0.01733297 -0.01847627 -0.99967905
vn 0.01733297 -0.01847627 -0.99967905
vn 0.01733297 -0.01847627 -0.99967905
vn -0.22074244 -0.31628992 -0.92262314
vn -0.22074244 -0.31628992 -0.92262314
vn -0.22074244 -0.31628992 -0.92262314
vn -0.24493119 -0.28335678 -0.92720960
vn -0.24493119 -0.28335678 -0.92720960
vn -0.24493119 -0.28335678 -0.92720960
vn 0.32881578 0.58074964 -0.74472145
vn 0.32881578 0.58074964 -0.74472145
vn 0.32881578 0.58074964 -0.74472145
vn -0.14268295 0.64324620 -0.75224723
vn -0.14268295 0.64324620 -0.75224723
vn -0.14268295 0.64324620 -0.75224723
vn -0.03559451 0.52510989 -0.85028974
vn -0.03559451 0.52510989 -0.85028974
vn -0.03559451 0.52510989 -0.85028974
vn -0.28205756 0.88697034 -0.36568724
vn -0.28205756 0.88697034 -0.36568724
vn -0.28205756 0.88697034 -0.36568724
vn -0.43893827 0.78921399 -0.42950492
vn -0.43893827 0.78921399 -0.42950492
vn -0.43893827 0.78921399 -0.42950492
vn -0.37297146 0.80622600 -0.45922971
vn -0.37297146 0.80622600 -0.45922971
vn -0.37297146 0.80622600 -0.45922971
vn 0.51050660 0.76883105 -0.38507380
vn 0.51050660 0.76883105 -0.38507380
vn 0.51050660 0.76883105 -0.38507380
vn -0.06320457 0.81093320 -0.58171515
vn -0.06320457 0.81093320 -0.58171515
vn -0.06320457 0.81093320 -0.58171515
vn 0.25411421 0.61614504 -0.74551409
vn 0.25411421 0.61614504 -0.74551409
vn 0.25411421 0.61614504 -0.74551409
vn 0.44272958 0.84422801 -0.30210858
vn 0.44272958 0.84422801 -0.30210858
vn 0.44272958 0.84422801 -0.30210858
vn -0.05824412 0.95673307 -0.28507800
vn -0.05824412 0.95673307 -0.28507800
vn -0.05824412 0.95673307 -0.28507800
vn -0.13193795 0.90801049 -0.39762963
vn -0.13193795 0.90801049 -0.39762963
vn -0.13193795 0.90801049 -0.39762963
vn 0.21282559 0.72204895 -0.65829369
vn 0.21282559 0.72204895 -0.65829369
vn 0.21282559 0.72204895 -0.65829369
vn 0.30202408 0.90317127 -0.30506246
vn 0.30202408 0.90317127 -0.30506246
vn 0.30202408 0.90317127 -0.30506246
vn 0.29745138 0.90304833 -0.30988125
vn 0.29745138 0.90304833 -0.30988125
vn 0.29745138 0.90304833 -0.30988125
vn -0.14853104 0.66233298 -0.73433885
vn -0.14853104 0.66233298 -0.73433885
vn -0.14853104 0.66233298 -0.73433885
vn 0.14715407 0.46340331 -0.87384384
vn 0.14715407 0.46340331 -0.87384384
vn 0.14715407 0.46340331 -0.87384384
vn 0.66337043 0.69355072 -0.28093964
vn 0.66337043 0.69355072 -0.28093964
vn 0.66337043 0.69355072 -0.28093964
vn 0.29888393 0.31356322 -0.90130267
vn 0.29888393 0.31356322 -0.90130267
vn 0.29888393 0.31356322 -0.90130267
vn 0.58206754 0.63180288 -0.51188133
vn 0.58206754 0.63180288 -0.51188133
vn 0.58206754 0.63180288 -0.51188133
vn 0.56971074 0.64289799 -0.51196860
vn 0.56971074 0.64289799 -0.51196860
vn 0.56971074 0.64289799 -0.51196860
vn 0.61315882 0.69563279 -0.37434112
vn 0.61315882 0.69563279 -0.37434112
vn 0.61315882 0.69563279 -0.37434112
vn 0.50179843 0.57515848 -0.64605810
vn 0.50179843 0.57515848 -0.64605810
vn 0.50179843 0.57515848 -0.64605810
vn 0.65407476 0.73379644 -0.18365453
vn 0.65407476 0.73379644 -0.18365453
vn 0.65407476 0.73379644 -0.18365453
vn 0.34488094 0.41838577 -0.84024430
vn 0.34488094 0.41838577 -0.84024430
vn 0.34488094 0.41838577 -0.84024430
vn 0.64869159 0.75491511 -0.09644891
vn 0.64869159 0.75491511 -0.09644891
vn 0.64869159 0.75491511 -0.09644891
vn 0.32700052 0.40197238 -0.85527122
vn 0.32700052 0.40197238 -0.85527122
vn 0.32700052 0.40197238 -0.85527122
vn 0.56970238 0.69849957 -0.43305605
vn 0.56970238 0.69849957 -0.43305605
vn 0.56970238 0.69849957 -0.43305605
vn 0.56645969 0.56942019 -0.59572146
vn 0.56645969 0.56942019 -0.59572146
vn 0.56645969 0.56942019 -0.59572146
vn 0.65701026 0.69438953 -0.29353143
vn 0.65701026 0.69438953 -0.29353143
vn 0.65701026 0.69438953 -0.29353143
vn 0.57671004 0.73430170 -0.35805943
vn 0.57671004 0.73430170 -0.35805943
vn 0.57671004 0.73430170 -0.35805943
vn 0.62344529 0.76635797 -0.15495622
vn 0.62344529 0.76635797 -0.15495622
vn 0.62344529 0.76635797 -0.15495622
vn 0.42171528 0.41869314 -0.80427127
vn 0.42171528 0.41869314 -0.80427127
vn 0.42171528 0.41869314 -0.80427127
vn 0.67102335 0.67948184 -0.29670203
vn 0.67102335 0.67948184 -0.29670203
vn 0.67102335 0.67948184 -0.29670203
vn 0.41337525 0.45310422 -0.78982116
vn 0.41337525 0.45310422 -0.78982116
vn 0.41337525 0.45310422 -0.78982116
vn 0.66609034 0.72790822 -0.16270615
vn 0.66609034 0.72790822 -0.16270615
vn 0.66609034 0.72790822 -0.16270615
vn 0.41765648 0.46590222 -0.78006294
vn 0.41765648 0.46590222 -0.78006294
vn 0.41765648 0.46590222 -0.78006294
vn 0.50291833 0.58749506 -0.63397374
vn 0.50291833 0.58749506 -0.63397374
vn 0.50291833 0.58749506 -0.63397374
vn 0.50763851 0.51191270 -0.69299966
vn 0.50763851 0.51191270 -0.69299966
vn 0.50763851 0.51191270 -0.69299966
vn 0.48346467 0.52256946 -0.70226995
vn 0.48346467 0.52256946 -0.70226995
vn 0.48346467 0.52256946 -0.70226995
vn 0.47419923 0.45762233 -0.75214154
vn 0.47419923 0.45762233 -0.75214154
vn 0.47419923 0.45762233 -0.75214154
vn 0.56136203 0.51143635 -0.65061934
vn 0.56136203 0.51143635 -0.65061934
vn 0.56136203 0.51143635 -0.65061934
vn 0.67412391 0.62106655 -0.39979157
vn 0.67412391 0.62106655 -0.39979157
vn 0.67412391 0.62106655 -0.39979157
vn 0.48202538 0.43827342 -0.75866195
vn 0.48202538 0.43827342 -0.75866195
vn 0.48202538 0.43827342 -0.75866195
vn 0.69525257 0.66072764 -0.28295381
vn 0.69525257 0.66072764 -0.28295381
vn 0.69525257 0.66072764 -0.28295381
vn 0.48072503 0.37705498 -0.79166469
vn 0.48072503 0.37705498 -0.79166469
vn 0.48072503 0.37705498 -0.79166469
vn 0.50349659 0.40421799 -0.76360919
vn 0.50349659 0.40421799 -0.76360919
vn 0.50349659 0.40421799 -0.76360919
vn 0.40483472 0.36453193 -0.83858531
vn 0.40483472 0.36453193 -0.83858531
vn 0.40483472 0.36453193 -0.83858531
vn 0.67995295 0.52943934 -0.50730460
vn 0.67995295 0.52943934 -0.50730460
vn 0.67995295 0.52943934 -0.50730460
vn 0.68977030 0.55007213 -0.47078401
vn 0.68977030 0.55007213 -0.47078401
vn 0.68977030 0.55007213 -0.47078401
vn 0.78235564 0.62272985 0.01127814
vn 0.78217478 0.62300465 0.00823504
vn 0.78237420 0.62270065 0.01159771
vn 0.78200543 0.62324743 0.00549103
vn 0.67040936 0.56465574 -0.48136803
vn 0.67040936 0.56465574 -0.48136803
vn 0.67040936 0.56465574 -0.48136803
vn 0.74308255 0.64961036 -0.16073179
vn 0.74308255 0.64961036 -0.16073179
vn 0.74308255 0.64961036 -0.16073179
vn 0.73626468 0.66804728 -0.10782926
vn 0.73626468 0.66804728 -0.10782926
vn 0.73626468 0.66804728 -0.10782926
vn 0.68794996 0.66853059 -0.28247424
vn 0.68794996 0.66853059 -0.28247424
vn 0.68794996 0.66853059 -0.28247424
vn 0.55958010 0.57379721 -0.59801913
vn 0.55958010 0.57379721 -0.59801913
vn 0.55958010 0.57379721 -0.59801913
vn 0.69241557 0.66133191 -0.28844548
vn 0.69241557 0.66133191 -0.28844548
vn 0.69241557 0.66133191 -0.28844548
vn 0.69915677 0.61204037 -0.36957597
vn 0.69915677 0.61204037 -0.36957597
vn 0.69915677 0.61204037 -0.36957597
vn 0.49461727 0.41816073 -0.76190246
vn 0.49461727 0.41816073 -0.76190246
vn 0.49461727 0.41816073 -0.76190246
vn 0.57576406 0.50246431 -0.64500028
vn 0.57576406 0.50246431 -0.64500028
vn 0.57576406 0.50246431 -0.64500028
vn 0.40373483 0.36799707 -0.83760154
vn 0.40373483 0.36799707 -0.83760154
vn 0.40373483 0.36799707 -0.83760154
vn 0.43162045 -0.05962318 -0.90008270
vn 0.43044228 -0.06193397 -0.90049077
vn 0.43129604 -0.06026009 -0.90019578
vn 0.64401237 -0.37046405 -0.66933136
vn 0.64401237 -0.37046405 -0.66933136
vn 0.64401237 -0.37046405 -0.66933136
vn 0.59340809 -0.20383452 -0.77866445
vn 0.59340809 -0.20383452 -0.77866445
vn 0.59340809 -0.20383452 -0.77866445
vn 0.74019999 -0.46105426 -0.48942103
vn 0.74019999 -0.46105426 -0.48942103
vn 0.74019999 -0.46105426 -0.48942103
vn 0.89453730 -0.30009691 -0.33127763
vn 0.89453730 -0.30009691 -0.33127763
vn 0.89453730 -0.30009691 -0.33127763
vn 0.88859394 -0.17770279 -0.42287412
vn 0.88859394 -0.17770279 -0.42287412
vn 0.88859394 -0.17770279 -0.42287412
vn 0.60288059 0.24971815 -0.75774392
vn 0.60288059 0.24971815 -0.75774392
vn 0.60288059 0.24971815 -0.75774392
vn 0.94064558 0.06265896 -0.33355621
vn 0.94064558 0.06265896 -0.33355621
vn 0.94064558 0.06265896 -0.33355621
vn 0.79157734 0.43590389 -0.42824421
vn 0.79157734 0.43590389 -0.42824421
vn 0.79157734 0.43590389 -0.42824421
vn 0.64005519 -0.09714774 -0.76216250
vn 0.64005519 -0.09714774 -0.76216250
vn 0.64005519 -0.09714774 -0.76216250
vn 0.88931311 0.44804063 -0.09155214
vn 0.88931311 0.44804063 -0.09155214
vn 0.88931311 0.44804063 -0.09155214
vn 0.50079537 0.12291385 -0.85679413
vn 0.50079537 0.12291385 -0.85679413
vn 0.50079537 0.12291385 -0.85679413
vn 0.78506561 0.28659692 -0.54912130
vn 0.78506561 0.28659692 -0.54912130
vn 0.78506561 0.28659692 -0.54912130
vn 0.91502458 0.40195610 -0.03407794
vn 0.91502458 0.40195610 -0.03407794
vn 0.91502458 0.40195610 -0.03407794
vn 0.98442642 0.11493823 -0.13301812
vn 0.98442642 0.11493823 -0.13301812
vn 0.98442642 0.11493823 -0.13301812
vn 0.67117583 -0.34275499 -0.65729903
vn 0.67117583 -0.34275499 -0.65729903
vn 0.67117583 -0.34275499 -0.65729903
vn 0.53633218 -0.25160156 -0.80563295
vn 0.53633218 -0.25160156 -0.80563295
vn 0.53633218 -0.25160156 -0.80563295
vn 0.61309317 -0.32287825 -0.72101761
vn 0.61309317 -0.32287825 -0.72101761
vn 0.61309317 -0.32287825 -0.72101761
vn 0.61828510 -0.30118477 -0.72595542
vn 0.61828510 -0.30118477 -0.72595542
vn 0.61828510 -0.30118477 -0.72595542
vn 0.69783734 -0.50014227 -0.51271898
vn 0.69793051 -0.50063175 -0.51211410
vn 0.69818177 -0.50038645 -0.51201134
vn 0.70921612 -0.51175101 -0.48489525
vn 0.70921612 -0.51175101 -0.48489525
vn 0.70921612 -0.51175101 -0.48489525
vn 0.69834729 -0.50091164 -0.51127154
vn 0.46327058 -0.08068540 -0.88253625
vn 0.46327058 -0.08068540 -0.88253625
vn 0.46327058 -0.08068540 -0.88253625
vn 0.43244162 -0.05800888 -0.89979398
vn 0.39740844 -0.51933921 -0.75654036
vn 0.39740844 -0.51933921 -0.75654036
vn 0.39740844 -0.51933921 -0.75654036
vn 0.41436189 -0.70577102 -0.57462292
vn 0.41436189 -0.70577102 -0.57462292
vn 0.41436189 -0.70577102 -0.57462292
vn 0.66069253 -0.16131565 -0.73311844
vn 0.66069253 -0.16131565 -0.73311844
vn 0.66069253 -0.16131565 -0.73311844
vn 0.21181054 -0.06609537 -0.97507317
vn 0.21181054 -0.06609537 -0.97507317
vn 0.21181054 -0.06609537 -0.97507317
vn -0.13592023 -0.41160150 -0.90117140
vn -0.13592023 -0.41160150 -0.90117140
vn -0.13592023 -0.41160150 -0.90117140
vn 0.62352717 -0.66623305 -0.40908114
vn 0.62352717 -0.66623305 -0.40908114
vn 0.62352717 -0.66623305 -0.40908114
vn -0.29865104 -0.60137791 -0.74104802
vn -0.29865104 -0.60137791 -0.74104802
vn -0.29865104 -0.60137791 -0.74104802
vn -0.02315891 -0.79817276 -0.60198332
vn -0.02315891 -0.79817276 -0.60198332
vn -0.02315891 -0.79817276 -0.60198332
vn -0.01152892 -0.82238172 -0.56881930
vn -0.01152892 -0.82238172 -0.56881930
vn -0.01152892 -0.82238172 -0.56881930
vn -0.34321956 -0.60120855 -0.72162914
vn -0.34321956 -0.60120855 -0.72162914
vn -0.34321956 -0.60120855 -0.72162914
vn 0.23600798 -0.15426614 -0.95942805
vn 0.23600798 -0.15426614 -0.95942805
vn 0.23600798 -0.15426614 -0.95942805
vn 0.17824878 -0.37397262 -0.91014936
vn 0.17824878 -0.37397262 -0.91014936
vn 0.17824878 -0.37397262 -0.91014936
vn 0.20089299 -0.42619403 -0.88204345
vn 0.20089299 -0.42619403 -0.88204345
vn 0.20089299 -0.42619403 -0.88204345
vn 0.25455319 -0.85384437 -0.45404016
vn 0.25455319 -0.85384437 -0.45404016
vn 0.25455319 -0.85384437 -0.45404016
vn -0.14360672 -0.11803603 -0.98257041
vn -0.14360672 -0.11803603 -0.98257041
vn -0.14360672 -0.11803603 -0.98257041
vn -0.21305920 -0.21383134 -0.95335300
vn -0.21305920 -0.21383134 -0.95335300
vn -0.21305920 -0.21383134 -0.95335300
vn -0.20016324 -0.09701740 -0.97494733
vn -0.20016324 -0.09701740 -0.97494733
vn -0.20016324 -0.09701740 -0.97494733
vn -0.28247678 -0.22130947 -0.93339648
vn -0.28247678 -0.22130947 -0.93339648
vn -0.28247678 -0.22130947 -0.93339648
vn -0.33675682 -0.29700226 -0.89352364
vn -0.33675682 -0.29700226 -0.89352364
vn -0.33675682 -0.29700226 -0.89352364
vn 0.01006100 0.02922782 -0.99952214
vn 0.01006100 0.02922782 -0.99952214
vn 0.01006100 0.02922782 -0.99952214
vn -0.05789784 -0.04598708 -0.99726277
vn -0.05789784 -0.04598708 -0.99726277
vn -0.05789784 -0.04598708 -0.99726277
vn -0.55057811 -0.51384100 -0.65789906
vn -0.55057811 -0.51384100 -0.65789906
vn -0.55057811 -0.51384100 -0.65789906
vn -0.20769841 -0.13835827 -0.96835859
vn -0.20769841 -0.13835827 -0.96835859
vn -0.20769841 -0.13835827 -0.96835859
vn -0.28023413 -0.22205985 -0.93389414
vn -0.28023413 -0.22205985 -0.93389414
vn -0.28023413 -0.22205985 -0.93389414
vn -0.50995218 -0.38705292 -0.76820493
vn -0.50995218 -0.38705292 -0.76820493
vn -0.50995218 -0.38705292 -0.76820493
vn -0.49921779 -0.41768049 -0.75916046
vn -0.49921779 -0.41768049 -0.75916046
vn -0.49921779 -0.41768049 -0.75916046
vn -0.55558143 -0.43970891 -0.70568077
vn -0.55558143 -0.43970891 -0.70568077
vn -0.55558143 -0.43970891 -0.70568077
vn -0.52075813 -0.39170935 -0.75853462
vn -0.52075813 -0.39170935 -0.75853462
vn -0.52075813 -0.39170935 -0.75853462
vn -0.11871530 -0.11229925 -0.98655743
vn -0.11871530 -0.11229925 -0.98655743
vn -0.11871530 -0.11229925 -0.98655743
vn -0.44006132 -0.35336931 -0.82551570
vn -0.44006132 -0.35336931 -0.82551570
vn -0.44006132 -0.35336931 -0.82551570
vn -0.11419573 -0.10336850 -0.98806593
vn -0.11419573 -0.10336850 -0.98806593
vn -0.11419573 -0.10336850 -0.98806593
vn -0.53848829 -0.48542385 -0.68876270
vn -0.53848829 -0.48542385 -0.68876270
vn -0.53848829 -0.48542385 -0.68876270
vn -0.42527378 -0.42563358 -0.79873542
vn -0.42527378 -0.42563358 -0.79873542
vn -0.42527378 -0.42563358 -0.79873542
vn -0.55942788 -0.51801560 -0.64707054
vn -0.55942788 -0.51801560 -0.64707054
vn -0.55942788 -0.51801560 -0.64707054
vn -0.38292126 -0.47870047 -0.79007415
vn -0.38159034 -0.47789672 -0.79120386
vn -0.38311617 -0.47881809 -0.78990837
vn -0.20494812 -0.24462549 -0.94771021
vn -0.20494812 -0.24462549 -0.94771021
vn -0.20494812 -0.24462549 -0.94771021
vn -0.08206084 -0.09400902 -0.99218361
vn -0.08206084 -0.09400902 -0.99218361
vn -0.08206084 -0.09400902 -0.99218361
vn -0.06607634 -0.06633807 -0.99560694
vn -0.06600237 -0.06639947 -0.99560775
vn -0.06890627 -0.06398829 -0.99556890
vn -0.28834557 -0.33895865 -0.89552435
vn -0.28834557 -0.33895865 -0.89552435
vn -0.28834557 -0.33895865 -0.89552435
vn -0.36409763 -0.38788642 -0.84674497
vn -0.36409763 -0.38788642 -0.84674497
vn -0.36409763 -0.38788642 -0.84674497
vn -0.54726632 -0.61133340 -0.57163892
vn -0.54726632 -0.61133340 -0.57163892
vn -0.54726632 -0.61133340 -0.57163892
vn -0.16829604 -0.24727928 -0.95421664
vn -0.16829604 -0.24727928 -0.95421664
vn -0.16829604 -0.24727928 -0.95421664
vn -0.50000917 -0.63994476 -0.58349082
vn -0.50000917 -0.63994476 -0.58349082
vn -0.50000917 -0.63994476 -0.58349082
vn -0.30706934 -0.30958438 -0.89992551
vn -0.30706934 -0.30958438 -0.89992551
vn -0.30706934 -0.30958438 -0.89992551
vn -0.06324105 -0.06869066 -0.99563154
vn -0.28672159 -0.29509539 -0.91143263
vn -0.28672159 -0.29509539 -0.91143263
vn -0.28672159 -0.29509539 -0.91143263
vn -0.51519612 -0.52881236 -0.67448532
vn -0.51519612 -0.52881236 -0.67448532
vn -0.51519612 -0.52881236 -0.67448532
vn -0.50540121 -0.51360888 -0.69337979
vn -0.50540121 -0.51360888 -0.69337979
vn -0.50540121 -0.51360888 -0.69337979
vn -0.41444973 -0.54383262 -0.72971056
vn -0.41444973 -0.54383262 -0.72971056
vn -0.41444973 -0.54383262 -0.72971056
vn -0.01754587 -0.04548874 -0.99881075
vn -0.01754587 -0.04548874 -0.99881075
vn -0.01754587 -0.04548874 -0.99881075
vn -0.04196550 -0.08560487 -0.99544498
vn -0.04196550 -0.08560487 -0.99544498
vn -0.04196550 -0.08560487 -0.99544498
vn -0.46979664 -0.54577503 -0.69384489
vn -0.46979664 -0.54577503 -0.69384489
vn -0.46979664 -0.54577503 -0.69384489
vn -0.38272452 -0.52551173 -0.75984167
vn -0.38272452 -0.52551173 -0.75984167
vn -0.38272452 -0.52551173 -0.75984167
vn -0.38139051 -0.47777596 -0.79137312
vn -0.79191601 -0.09548179 -0.60311877
vn -0.79191601 -0.09548179 -0.60311877
vn -0.79191601 -0.09548179 -0.60311877
vn -0.73183867 -0.06360671 -0.67850302
vn -0.73183867 -0.06360671 -0.67850302
vn -0.73183867 -0.06360671 -0.67850302
vn -0.29423046 -0.06719784 -0.95336923
vn -0.29423046 -0.06719784 -0.95336923
vn -0.29423046 -0.06719784 -0.95336923
vn -0.58260194 -0.29597485 -0.75695037
vn -0.58260194 -0.29597485 -0.75695037
vn -0.58260194 -0.29597485 -0.75695037
vn -0.57246955 -0.41456700 -0.70739863
vn -0.57246955 -0.41456700 -0.70739863
vn -0.57246955 -0.41456700 -0.70739863
vn -0.33650151 0.41727368 -0.84418565
vn -0.33650151 0.41727368 -0.84418565
vn -0.33650151 0.41727368 -0.84418565
vn -0.21692116 0.24310775 -0.94543314
vn -0.21692116 0.24310775 -0.94543314
vn -0.21692116 0.24310775 -0.94543314
vn -0.66802220 0.43416220 -0.60435878
vn -0.66802220 0.43416220 -0.60435878
vn -0.66802220 0.43416220 -0.60435878
vn -0.71083303 0.40040440 -0.57826700
vn -0.71083303 0.40040440 -0.57826700
vn -0.71083303 0.40040440 -0.57826700
vn -0.31886897 0.05592649 -0.94614735
vn -0.31886897 0.05592649 -0.94614735
vn -0.31886897 0.05592649 -0.94614735
vn -0.11534257 -0.14039127 -0.98335466
vn -0.11534257 -0.14039127 -0.98335466
vn -0.11534257 -0.14039127 -0.98335466
vn -0.73155787 0.06981695 -0.67819516
vn -0.73155787 0.06981695 -0.67819516
vn -0.73155787 0.06981695 -0.67819516
vn 0.12068211 0.28136751 -0.95198117
vn 0.12068211 0.28136751 -0.95198117
vn 0.12068211 0.28136751 -0.95198117
vn -0.01294783 0.41187111 -0.91115012
vn -0.01294783 0.41187111 -0.91115012
vn -0.01294783 0.41187111 -0.91115012
vn -0.27165923 0.59550787 -0.75602357
vn -0.27165923 0.59550787 -0.75602357
vn -0.27165923 0.59550787 -0.75602357
vn -0.21961059 0.55517405 -0.80221753
vn -0.21961059 0.55517405 -0.80221753
vn -0.21961059 0.55517405 -0.80221753
vn -0.50423852 0.71295828 -0.48727201
vn -0.50423852 0.71295828 -0.48727201
vn -0.50423852 0.71295828 -0.48727201
vn -0.48838129 0.70392136 -0.51573097
vn -0.48838129 0.70392136 -0.51573097
vn -0.48838129 0.70392136 -0.51573097
vn -0.48446336 -0.46580295 -0.74048826
vn -0.48446336 -0.46580295 -0.74048826
vn -0.48446336 -0.46580295 -0.74048826
vn -0.51787960 -0.41519589 -0.74793923
vn -0.51787960 -0.41519589 -0.74793923
vn -0.51787960 -0.41519589 -0.74793923
vn -0.47130205 -0.43720462 -0.76598074
vn -0.47130205 -0.43720462 -0.76598074
vn -0.47130205 -0.43720462 -0.76598074
vn -0.49984890 -0.44875718 -0.74078881
vn -0.49984890 -0.44875718 -0.74078881
vn -0.49984890 -0.44875718 -0.74078881
vn -0.41768081 -0.49239946 -0.76360036
vn -0.41768081 -0.49239946 -0.76360036
vn -0.41768081 -0.49239946 -0.76360036
vn -0.42694774 -0.47808086 -0.76756389
vn -0.42694774 -0.47808086 -0.76756389
vn -0.42694774 -0.47808086 -0.76756389
vn -0.41613693 -0.51322100 -0.75062258
vn -0.41613693 -0.51322100 -0.75062258
vn -0.41613693 -0.51322100 -0.75062258
vn 0.19927165 0.21075100 -0.95701349
vn 0.19952285 0.21062899 -0.95698802
vn 0.19966157 0.21056160 -0.95697391
vn 0.19283945 0.21821099 -0.95665924
vn 0.19250569 0.21878368 -0.95659566
vn 0.19210728 0.21810861 -0.95682988
vn 0.19904944 0.21085891 -0.95703596
vn 0.19334015 0.21796804 -0.95661357
vn 0.19437116 0.21790241 -0.95641957
vn 0.23806429 0.19156065 -0.95217116
vn 0.23806429 0.19156065 -0.95217116
vn 0.23806429 0.19156065 -0.95217116
vn 0.20784479 0.17980158 -0.96149464
vn 0.20784479 0.17980158 -0.96149464
vn 0.20784479 0.17980158 -0.96149464
vn 0.20763589 0.19315257 -0.95894704
vn 0.20767318 0.19289552 -0.95899070
vn 0.20761733 0.19328050 -0.95892528
vn 0.20769812 0.19272349 -0.95901989
vn 0.20429894 0.19852935 -0.95856562
vn 0.20429894 0.19852935 -0.95856562
vn 0.20429894 0.19852935 -0.95856562
vn 0.21540977 0.19130240 -0.95760222
vn 0.21497768 0.19139453 -0.95768091
vn 0.21497768 0.19139453 -0.95768091
vn 0.23970802 0.18285083 -0.95347031
vn 0.23970802 0.18285083 -0.95347031
vn 0.23970802 0.18285083 -0.95347031
vn 0.21158316 0.19601431 -0.95750246
vn 0.21158316 0.19601431 -0.95750246
vn 0.21158316 0.19601431 -0.95750246
vn 0.21709477 0.19094267 -0.95729345
vn 0.21709477 0.19094267 -0.95729345
f 1//1 2//2 3//3
f 4//4 5//5 6//6
f 7//7 8//8 9//9
f 10//10 11//11 12//12
f 13//13 14//14 15//15
f 16//16 17//17 18//18
f 19//19 20//20 21//21
f 22//22 23//23 24//24
f 25//25 26//26 27//27
f 28//28 29//29 30//30
f 31//31 32//32 33//33
f 34//34 35//35 36//36
f 37//37 38//38 39//39
f 40//40 41//41 42//42
f 43//43 44//44 45//45
f 46//46 47//47 48//48
f 49//49 50//50 51//51
f 52//52 53//53 54//54
f 55//55 56//56 57//57
f 58//58 59//59 60//60
f 61//61 62//62 63//63
f 64//64 65//65 66//66
f 67//67 68//68 69//69
f 70//70 71//71 72//72
f 73//73 74//74 75//75
f 76//76 77//77 78//78
f 79//79 80//80 81//81
f 82//82 83//83 84//84
f 85//85 86//86 87//87
f 88//88 89//89 90//90
f 91//91 92//92 93//93
f 94//94 95//95 96//96
f 97//97 98//98 99//99
f 100//100 101//101 102//102
f 103//103 104//104 105//105
f 106//106 107//107 108//108
f 109//109 110//110 111//111
f 112//112 113//113 114//114
f 115//115 116//116 117//117
f 118//118 119//119 120//120
f 121//121 122//122 123//123
f 124//124 125//125 126//126
f 127//127 128//128 129//129
f 130//130 131//131 132//132
f 133//133 134//134 135//135
f 136//136 137//137 138//138
f 139//139 140//140 141//141
f 142//142 143//143 144//144
f 145//145 146//146 147//147
f 148//148 149//149 150//150
f 151//151 152//152 153//153
f 154//154 155//155 156//156
f 157//157 158//158 159//159
f 160//160 161//161 162//162
f 163//163 164//164 165//165
f 166//166 167//167 168//168
f 169//169 170//170 171//171
f 172//172 173//173 174//174
f 175//175 176//176 177//177
f 178//178 179//179 180//180
f 181//181 182//182 183//183
f 184//184 185//185 186//186
f 187//187 188//188 189//189
f 190//190 191//191 192//192
f 193//193 194//194 195//195
f 196//196 197//197 198//198
f 199//199 200//200 201//201
f 202//202 203//203 204//204
f 205//205 206//206 207//207
f 208//208 209//209 210//210
f 208//208 211//211 209//209
f 212//212 213//213 214//214
f 215//215 216//216 217//217
f 218//218 219//219 220//220
f 221//221 222//222 223//223
f 224//224 225//225 226//226
f 227//227 225//225 224//224
f 228//228 229//229 230//230
f 231//231 232//232 233//233
f 234//234 235//235 236//236
f 237//237 238//238 239//239
f 240//240 241//241 242//242
f 243//243 244//244 245//245
f 246//246 247//247 248//248
f 249//249 246//246 248//248
f 250//250 251//251 252//252
f 253//253 254//254 255//255
f 256//256 257//257 258//258
f 259//259 260//260 261//261
f 262//262 227//227 263//263
f 264//264 265//265 266//266
f 267//267 268//268 269//269
f 270//270 271//271 272//272
f 273//273 262//262 274//274
f 275//275 276//276 277//277
f 278//278 279//279 280//280
f 281//281 282//282 283//283
f 284//284 285//285 286//286
f 287//287 288//288 289//289
f 290//290 291//291 292//292
f 293//293 294//294 295//295
f 296//296 297//297 298//298
f 299//299 300//300 301//301
f 302//302 303//303 304//304
f 305//305 306//306 307//307
f 308//308 309//309 310//310
f 311//311 312//312 313//313
f 314//314 315//315 316//316
f 317//317 318//318 319//319
f 320//320 321//321 322//322
f 323//323 324//324 325//325
f 326//326 327//327 328//328
f 329//329 330//330 331//331
f 332//332 333//333 334//334
f 335//335 336//336 337//337
f 338//338 339//339 340//340
f 341//341 342//342 343//343
f 344//344 345//345 346//346
f 347//347 348//348 349//349
f 350//350 351//351 352//352
f 333//333 332//332 353//353
f 354//354 355//355 356//356
f 357//357 358//358 359//359
f 360//360 361//361 362//362
f 363//363 364//364 365//365
f 366//366 367//367 368//368
f 369//369 370//370 371//371
f 372//372 373//373 374//374
f 375//375 376//376 377//377
f 378//378 379//379 380//380
f 381//381 382//382 383//383
f 384//384 385//385 386//386
f 387//387 388//388 389//389
f 390//390 391//391 392//392
f 393//393 394//394 395//395
f 396//396 397//397 398//398
f 399//399 400//400 401//401
f 402//402 403//403 404//404
f 405//405 406//406 407//407
f 408//408 409//409 410//410
f 411//411 412//412 413//413
f 414//414 415//415 416//416
f 417//417 418//418 419//419
f 420//420 421//421 422//422
f 423//423 424//424 425//425
f 426//426 427//427 428//428
f 429//429 430//430 431//431
f 432//432 433//433 434//434
f 435//435 436//436 437//437
f 438//438 439//439 440//440
f 441//441 442//442 443//443
f 444//444 445//445 446//446
f 447//447 448//448 449//449
f 450//450 451//451 452//452
f 453//453 454//454 455//455
f 456//456 457//457 458//458
f 459//459 460//460 461//461
f 462//462 460//460 459//459
f 463//463 464//464 465//465
f 466//466 467//467 468//468
f 469//469 470//470 471//471
f 472//472 473//473 474//474
f 475//475 476//476 477//477
f 478//478 479//479 480//480
f 481//481 482//482 483//483
f 484//484 485//485 486//486
f 487//487 488//488 489//489
f 490//490 491//491 492//492
f 493//493 494//494 495//495
f 496//496 497//497 498//498
f 499//499 500//500 501//501
f 502//502 503//503 504//504
f 505//505 506//506 507//507
f 508//508 509//509 510//510
f 511//511 512//512 513//513
f 514//514 515//515 516//516
f 517//517 518//518 519//519
f 520//520 521//521 522//522
f 523//523 524//524 525//525
f 526//526 527//527 528//528
f 529//529 530//530 531//531
f 532//532 533//533 534//534
f 535//535 536//536 537//537
f 538//538 539//539 540//540
f 541//541 542//542 543//543
f 544//544 545//545 546//546
f 547//547 548//548 549//549
f 550//550 551//551 552//552
f 553//553 554//554 555//555
f 556//556 557//557 558//558
f 559//559 560//560 561//561
f 562//562 563//563 564//564
f 565//565 566//566 567//567
f 568//568 569//569 570//570
f 571//571 572//572 573//573
f 574//574 575//575 576//576
f 577//577 578//578 579//579
f 580//580 581//581 582//582
f 583//583 584//584 585//585
f 586//586 587//587 588//588
f 589//589 590//590 591//591
f 592//592 593//593 594//594
f 595//595 596//596 597//597
f 598//598 599//599 600//600
f 601//601 602//602 603//603
f 604//604 605//605 606//606
f 607//607 608//608 609//609
f 610//610 611//611 612//612
f 613//613 614//614 615//615
f 616//616 617//617 618//618
f 619//619 620//620 621//621
f 622//622 623//623 624//624
f 625//625 626//626 627//627
f 628//628 629//629 630//630
f 631//631 632//632 633//633
f 634//634 635//635 636//636
f 637//637 638//638 639//639
f 640//640 641//641 642//642
f 643//643 644//644 645//645
f 646//646 647//647 648//648
f 649//649 650//650 651//651
f 652//652 653//653 654//654
f 655//655 656//656 657//657
f 658//658 659//659 660//660
f 661//661 662//662 663//663
f 664//664 665//665 666//666
f 667//667 668//668 669//669
f 670//670 671//671 672//672
f 673//673 674//674 675//675
f 676//676 677//677 678//678
f 679//679 680//680 681//681
f 682//682 683//683 684//684
f 685//685 686//686 687//687
f 688//688 689//689 690//690
f 691//691 692//692 693//693
f 694//694 695//695 696//696
f 697//697 698//698 699//699
f 700//700 701//701 702//702
f 703//703 704//704 705//705
f 706//706 707//707 708//708
f 709//709 710//710 711//711
f 712//712 713//713 714//714
f 715//715 716//716 717//717
f 718//718 719//719 720//720
f 721//721 722//722 723//723
f 724//724 725//725 726//726
f 727//727 728//728 729//729
f 730//730 731//731 732//732
f 733//733 734//734 735//735
f 736//736 737//737 738//738
f 739//739 740//740 741//741
f 742//742 743//743 744//744
f 745//745 746//746 747//747
f 748//748 749//749 750//750
f 751//751 752//752 753//753
f 754//754 755//755 756//756
f 757//757 758//758 759//759
f 760//760 761//761 762//762
f 763//763 764//764 765//765
f 766//766 767//767 768//768
f 769//769 770//770 771//771
f 772//772 773//773 774//774
f 775//775 776//776 777//777
f 778//778 779//779 780//780
f 781//781 782//782 783//783
f 784//784 785//785 786//786
f 787//787 788//788 789//789
f 790//790 791//791 792//792
f 793//793 794//794 795//795
f 796//796 797//797 798//798
f 799//799 800//800 801//801
f 802//802 803//803 804//804
f 805//805 806//806 807//807
f 808//808 809//809 810//810
f 811//811 809//809 808//808
f 812//812 813//813 814//814
f 815//815 816//816 817//817
f 818//818 819//819 820//820
f 821//821 822//822 823//823
f 824//824 825//825 826//826
f 827//827 828//828 829//829
f 830//830 831//831 832//832
f 833//833 834//834 835//835
f 836//836 837//837 838//838
f 839//839 840//840 841//841
f 842//842 843//843 844//844
f 845//845 846//846 847//847
f 848//848 849//849 850//850
f 851//851 852//852 853//853
f 854//854 855//855 856//856
f 857//857 858//858 859//859
f 860//860 861//861 862//862
f 863//863 864//864 865//865
f 866//866 867//867 868//868
f 869//869 870//870 871//871
f 872//872 873//873 874//874
f 875//875 876//876 877//877
f 878//878 879//879 880//880
f 881//881 882//882 883//883
f 884//884 885//885 886//886
f 887//887 888//888 889//889
f 890//890 891//891 892//892
f 893//893 894//894 895//895
f 896//896 897//897 898//898
f 899//899 900//900 901//901
f 902//902 903//903 904//904
f 899//899 901//901 905//905
f 906//906 907//907 908//908
f 909//909 842//842 844//844
f 900//900 899//899 905//905
f 910//910 911//911 912//912
f 913//913 914//914 915//915
f 916//916 917//917 918//918
f 919//919 920//920 921//921
f 922//922 923//923 924//924
f 925//925 926//926 927//927
f 928//928 929//929 930//930
f 931//931 932//932 933//933
f 934//934 935//935 936//936
f 937//937 938//938 939//939
f 940//940 941//941 942//942
f 943//943 944//944 945//945
f 946//946 947//947 948//948
f 949//949 950//950 951//951
f 952//952 953//953 954//954
f 955//955 956//956 957//957
f 958//958 959//959 960//960
f 961//961 962//962 963//963
f 964//964 965//965 966//966
f 967//967 968//968 969//969
f 970//970 971//971 972//972
f 973//973 974//974 975//975
f 976//976 977//977 978//978
f 979//979 980//980 981//981
f 982//982 983//983 984//984
f 985//985 986//986 987//987
f 988//988 989//989 990//990
f 991//991 992//992 993//993
f 994//994 995//995 996//996
f 997//997 998//998 999//999
f 1000//1000 1001//1001 1002//1002
f 1003//1003 1004//1004 1005//1005
f 1006//1006 1007//1007 1008//1008
f 1009//1009 1010//1010 1011//1011
f 1012//1012 1013//1013 1014//1014
f 1015//1015 1016//1016 1017//1017
f 1018//1018 1019//1019 1020//1020
f 1021//1021 1022//1022 1023//1023
f 1024//1024 1025//1025 1026//1026
f 1027//1027 1028//1028 1029//1029
f 1030//1030 1031//1031 1032//1032
f 1033//1033 1034//1034 1035//1035
f 1036//1036 1037//1037 1038//1038
f 1039//1039 1040//1040 1041//1041
f 1042//1042 1022//1022 1021//1021
f 1043//1043 1044//1044 1045//1045
f 1046//1046 1047//1047 1048//1048
f 1049//1049 1050//1050 1051//1051
f 1052//1052 1053//1053 1054//1054
f 1055//1055 1056//1056 1057//1057
f 1058//1058 1059//1059 1060//1060
f 1061//1061 1062//1062 1063//1063
f 1064//1064 1065//1065 1066//1066
f 1012//1012 1067//1067 1013//1013
f 1068//1068 1069//1069 1070//1070
f 1071//1071 1072//1072 1073//1073
f 1074//1074 1075//1075 1076//1076
f 1077//1077 1078//1078 1079//1079
f 1080//1080 1081//1081 1082//1082
f 1083//1083 1084//1084 1085//1085
f 1086//1086 1087//1087 1088//1088
f 1089//1089 1090//1090 1091//1091
f 1092//1092 1093//1093 1094//1094
f 1095//1095 1096//1096 1097//1097
f 1098//1098 1099//1099 1100//1100
f 1101//1101 1102//1102 1103//1103
f 1104//1104 1105//1105 1106//1106
f 1107//1107 1108//1108 1109//1109
f 1110//1110 1111//1111 1112//1112
f 1113//1113 1114//1114 1115//1115
f 1116//1116 1117//1117 1118//1118
f 1119//1119 1120//1120 1121//1121
f 1122//1122 1123//1123 1124//1124
f 1125//1125 1126//1126 1127//1127
f 1128//1128 1129//1129 1130//1130
f 1131//1131 1132//1132 1133//1133
f 1134//1134 1135//1135 1136//1136
f 1137//1137 1138//1138 1139//1139
f 1140//1140 1141//1141 1142//1142
f 1143//1143 1144//1144 1145//1145
f 1146//1146 1147//1147 1148//1148
f 1149//1149 1144//1144 1143//1143
f 1150//1150 1146//1146 1148//1148
f 1151//1151 1146//1146 1150//1150
f 1152//1152 1153//1153 1154//1154
f 1155//1155 1156//1156 1157//1157
f 1158//1158 1159//1159 1160//1160
f 1158//1158 1161//1161 1159//1159
f 1162//1162 1163//1163 1164//1164
f 1165//1165 1166//1166 1167//1167
f 1168//1168 1169//1169 1170//1170
f 1171//1171 1172//1172 1173//1173
f 1174//1174 1175//1175 1165//1165

