# https://github.com/mikedh/trimesh
v 0.00272727 -0.00802642 0.05338336
v 0.00109541 -0.00473672 0.05323005
v -0.00039223 -0.00697511 0.05308146
v 0.00109541 -0.00473672 0.05323005
v -0.00350851 -0.00592565 0.05274475
v -0.00039223 -0.00697511 0.05308146
v -0.00058612 -0.00134611 0.05306137
v -0.00246715 -0.00225991 0.05286122
v 0.00109541 -0.00473672 0.05323005
v -0.00350851 -0.00592565 0.05274475
v -0.00350851 -0.00592565 0.05274475
v -0.00434721 -0.00317276 0.05264897
v -0.00543135 -0.00527841 0.05252040
v -0.00246715 -0.00225991 0.05286122
v -0.00434721 -0.00317276 0.05264897
v -0.00585043 -0.00390261 0.05246980
v -0.00735283 -0.00463182 0.05228192
v -0.00585043 -0.00390261 0.05246980
v -0.00736666 -0.00463277 0.05198014
v -0.00735283 -0.00463182 0.05228192
v -0.00435382 -0.00317019 0.05234820
v -0.00434721 -0.00317276 0.05264897
v -0.00246930 -0.00225508 0.05256099
v -0.00246715 -0.00225991 0.05286122
v -0.00058375 -0.00133920 0.05276162
v -0.00058612 -0.00134611 0.05306137
v 0.00110191 -0.00473797 0.05293072
v -0.00058612 -0.00134611 0.05306137
v 0.00109541 -0.00473672 0.05323005
v -0.00058375 -0.00133920 0.05276162
v 0.00273764 -0.00803542 0.05308432
v 0.00272727 -0.00802642 0.05338336
v -0.00039223 -0.00697511 0.05308146
v 0.00273764 -0.00803542 0.05308432
v 0.00272727 -0.00802642 0.05338336
v -0.00038101 -0.00698447 0.05278260
v -0.00350851 -0.00592565 0.05274475
v -0.00349647 -0.00593531 0.05244607
v -0.00543135 -0.00527841 0.05252040
v -0.00543225 -0.00528359 0.05222029
v -0.00735283 -0.00463182 0.05228192
v -0.00736666 -0.00463277 0.05198014
v 0.00383556 -0.01286083 0.05348117
v 0.00139529 -0.00800174 0.05325902
v 0.00203454 -0.01226305 0.05331958
v 0.00203454 -0.01226305 0.05331958
v 0.00139529 -0.00800174 0.05325902
v 0.00016868 -0.01164484 0.05313838
v 0.00203454 -0.01226305 0.05331958
v 0.00384593 -0.01286935 0.05318201
v 0.00383556 -0.01286083 0.05348117
v 0.00203675 -0.01226925 0.05301977
v 0.00016868 -0.01164484 0.05313838
v 0.00016202 -0.01164788 0.05283768
v 0.00384593 -0.01286935 0.05318201
v 0.00139529 -0.00800174 0.05325902
v 0.00383556 -0.01286083 0.05348117
v 0.00139433 -0.00798815 0.05295891
v 0.00139433 -0.00798815 0.05295891
v 0.00016868 -0.01164484 0.05313838
v 0.00139529 -0.00800174 0.05325902
v 0.00016202 -0.01164788 0.05283768
v -0.00593519 -0.00326455 0.05245907
v -0.00794184 -0.00261265 0.05220563
v -0.00820035 -0.00437522 0.05217165
v -0.00820035 -0.00437522 0.05217165
v -0.00977540 -0.00201672 0.05195577
v -0.00961447 -0.00506872 0.05197860
v -0.01102674 -0.00576192 0.05177260
v -0.00977540 -0.00201672 0.05195577
v -0.00793737 -0.00260872 0.05190624
v -0.00977540 -0.00201672 0.05195577
v -0.00794184 -0.00261265 0.05220563
v -0.00977874 -0.00201011 0.05165530
v -0.00592130 -0.00326365 0.05216075
v -0.00593519 -0.00326455 0.05245907
v -0.00977874 -0.00201011 0.05165530
v -0.01102674 -0.00576192 0.05177260
v -0.00977540 -0.00201672 0.05195577
v -0.01103574 -0.00577205 0.05147124
v -0.00820035 -0.00437522 0.05217165
v -0.00592130 -0.00326365 0.05216075
v -0.00593519 -0.00326455 0.05245907
v -0.00819665 -0.00437915 0.05187220
v -0.00961447 -0.00506872 0.05197860
v -0.00961709 -0.00507593 0.05167825
v -0.01102674 -0.00576192 0.05177260
v -0.01103574 -0.00577205 0.05147124
v 0.00715834 0.00341868 0.05374003
v 0.00519824 0.00408018 0.05359364
v 0.00436389 0.00203437 0.05352587
v 0.00436389 0.00203437 0.05352587
v 0.00323969 0.00474131 0.05342913
v 0.00157225 0.00065085 0.05327625
v 0.00323969 0.00474131 0.05342913
v 0.00157225 0.00065085 0.05327625
v 0.00010871 0.00579906 0.05313230
v -0.00038225 -0.00031822 0.05308259
v -0.00038225 -0.00031822 0.05308259
v 0.00010871 0.00579906 0.05313230
v -0.00233561 -0.00128692 0.05287529
v 0.00010871 0.00579906 0.05313230
v 0.00324392 0.00474548 0.05312950
v 0.00010871 0.00579906 0.05313230
v 0.00323969 0.00474131 0.05342913
v 0.00010544 0.00580567 0.05283201
v 0.00520724 0.00408262 0.05329437
v 0.00519824 0.00408018 0.05359364
v 0.00717205 0.00341958 0.05344100
v 0.00715834 0.00341868 0.05374003
v 0.00010544 0.00580567 0.05283201
v -0.00233561 -0.00128692 0.05287529
v 0.00010871 0.00579906 0.05313230
v -0.00234467 -0.00129729 0.05257428
v 0.00436389 0.00203437 0.05352587
v 0.00717205 0.00341958 0.05344100
v 0.00715834 0.00341868 0.05374003
v 0.00437760 0.00203538 0.05322701
v 0.00157225 0.00065085 0.05327625
v 0.00158596 0.00065188 0.05297757
v -0.00038225 -0.00031822 0.05308259
v -0.00037989 -0.00032289 0.05278284
v -0.00233561 -0.00128692 0.05287529
v -0.00234467 -0.00129729 0.05257428
v 0.01144433 0.00363940 0.05400003
v 0.00935829 0.00434220 0.05388267
v 0.00874382 0.00223941 0.05384482
v 0.00737137 0.00501192 0.05375475
v 0.00935924 0.00434738 0.05358274
v 0.00737137 0.00501192 0.05375475
v 0.00935829 0.00434220 0.05388267
v 0.00736111 0.00502092 0.05345405
v 0.01145792 0.00364041 0.05370075
v 0.01144433 0.00363940 0.05400003
v 0.00874382 0.00223941 0.05384482
v 0.01145792 0.00364041 0.05370075
v 0.01144433 0.00363940 0.05400003
v 0.00874150 0.00223231 0.05354471
v 0.00737137 0.00501192 0.05375475
v 0.00874150 0.00223231 0.05354471
v 0.00874382 0.00223941 0.05384482
v 0.00736111 0.00502092 0.05345405
v 0.00587606 0.00779527 0.05364651
v 0.00390017 0.01167953 0.05348671
v 0.00396758 0.00681973 0.05349243
v 0.00396758 0.00681973 0.05349243
v 0.00198960 0.01070940 0.05331541
v 0.00199324 0.00581032 0.05331571
v 0.00390017 0.01167953 0.05348671
v 0.00198960 0.01070940 0.05331541
v 0.00000637 0.00970262 0.05312199
v 0.00199324 0.00581032 0.05331571
v 0.00198734 0.01071411 0.05301518
v 0.00000637 0.00970262 0.05312199
v 0.00198960 0.01070940 0.05331541
v -0.00000069 0.00970489 0.05282129
v 0.00390244 0.01168656 0.05318690
v 0.00390017 0.01167953 0.05348671
v 0.00588316 0.00779289 0.05334706
v 0.00390017 0.01167953 0.05348671
v 0.00587606 0.00779527 0.05364651
v 0.00390244 0.01168656 0.05318690
v 0.00396758 0.00681973 0.05349243
v 0.00588316 0.00779289 0.05334706
v 0.00587606 0.00779527 0.05364651
v 0.00397009 0.00681520 0.05319262
v 0.00199324 0.00581032 0.05331571
v 0.00199091 0.00580329 0.05301554
v 0.00000637 0.00970262 0.05312199
v 0.00199091 0.00580329 0.05301554
v 0.00199324 0.00581032 0.05331571
v -0.00000069 0.00970489 0.05282129
v 0.00125039 0.01098299 0.05324507
v -0.00133222 0.01192158 0.05298329
v -0.00072514 0.00999874 0.05304701
v -0.00072514 0.00999874 0.05304701
v -0.00336438 0.01090991 0.05276091
v -0.00274128 0.00899386 0.05283058
v -0.00133222 0.01192158 0.05298329
v -0.00336438 0.01090991 0.05276091
v -0.00538880 0.00990236 0.05252517
v -0.00274128 0.00899386 0.05283058
v -0.00337148 0.01091212 0.05246014
v -0.00538880 0.00990236 0.05252517
v -0.00336438 0.01090991 0.05276091
v -0.00540239 0.00990146 0.05222351
v -0.00133252 0.01192682 0.05268330
v -0.00133222 0.01192158 0.05298329
v 0.00126368 0.01098388 0.05294634
v -0.00133222 0.01192158 0.05298329
v 0.00125039 0.01098299 0.05324507
v -0.00133252 0.01192682 0.05268330
v -0.00072514 0.00999874 0.05304701
v 0.00126368 0.01098388 0.05294634
v 0.00125039 0.01098299 0.05324507
v -0.00071812 0.00999641 0.05274773
v -0.00274128 0.00899386 0.05283058
v -0.00274080 0.00898820 0.05253065
v -0.00538880 0.00990236 0.05252517
v -0.00274080 0.00898820 0.05253065
v -0.00274128 0.00899386 0.05283058
v -0.00540239 0.00990146 0.05222351
vn -0.09689022 -0.00167851 0.99529366
vn -0.09689022 -0.00167851 0.99529366
vn -0.09689022 -0.00167851 0.99529366
vn -0.10595411 0.00440727 0.99436125
vn -0.10915467 0.00237305 0.99402194
vn -0.10595411 0.00440727 0.99436125
vn -0.10464482 -0.00242125 0.99450671
vn -0.10447364 -0.00217225 0.99452528
vn -0.10444558 -0.00213145 0.99452832
vn -0.10432846 -0.00196111 0.99454096
vn -0.11616839 -0.00083598 0.99322918
vn -0.11724707 -0.00027287 0.99310274
vn -0.11898873 -0.00062053 0.99289541
vn -0.11234543 0.00034403 0.99366915
vn -0.11234543 0.00034403 0.99366915
vn -0.12080582 -0.00029143 0.99267611
vn -0.12354415 -0.00113797 0.99233842
vn -0.43836205 0.89863044 0.01737926
vn -0.43833072 0.89864797 0.01726277
vn -0.43832612 0.89865056 0.01724465
vn -0.43835162 0.89863697 0.01730480
vn -0.43834834 0.89863842 0.01731243
vn -0.43834126 0.89863684 0.01757187
vn -0.43834450 0.89863530 0.01756986
vn -0.43838215 0.89862248 0.01728375
vn -0.43838358 0.89862233 0.01725517
vn 0.89538093 0.44495437 0.01756699
vn 0.89539116 0.44494171 0.01736476
vn 0.89538054 0.44495485 0.01757475
vn 0.89539117 0.44494212 0.01735418
vn 0.89537052 0.44497181 0.01765571
vn 0.89537052 0.44497162 0.01766027
vn -0.32081889 -0.94697687 0.01760811
vn -0.32082460 -0.94697900 0.01738800
vn -0.32082466 -0.94697923 0.01737457
vn -0.32081855 -0.94697682 0.01761701
vn -0.32081839 -0.94697569 0.01768035
vn -0.32081939 -0.94697563 0.01766545
vn -0.32082718 -0.94697906 0.01733708
vn -0.32082580 -0.94697952 0.01733771
vn -0.32080508 -0.94698053 0.01766275
vn -0.32080398 -0.94698031 0.01769467
vn -0.08910653 0.00078738 0.99602179
vn -0.08910653 0.00078738 0.99602179
vn -0.08910653 0.00078738 0.99602179
vn -0.09677994 -0.00037392 0.99530573
vn -0.09677994 -0.00037392 0.99530573
vn -0.09677994 -0.00037392 0.99530573
vn -0.31608767 -0.94857356 0.01722771
vn -0.31626142 -0.94853429 0.01616820
vn -0.31627027 -0.94853339 0.01604762
vn -0.31607563 -0.94857706 0.01725557
vn -0.31601807 -0.94860717 0.01664409
vn -0.31602209 -0.94860696 0.01657968
vn 0.89315580 0.44938119 0.01814542
vn 0.89316168 0.44939384 0.01753251
vn 0.89315558 0.44938071 0.01816844
vn 0.89316188 0.44939429 0.01751064
vn -0.94775328 0.31852652 0.01745192
vn -0.94774459 0.31853715 0.01772785
vn -0.94775376 0.31852594 0.01743665
vn -0.94774412 0.31853772 0.01774257
vn -0.12553524 -0.00071165 0.99208891
vn -0.13065837 0.00005247 0.99142745
vn -0.12954557 -0.00011355 0.99157346
vn -0.13539361 0.00027163 0.99079185
vn -0.13904262 0.00007543 0.99028640
vn -0.14094137 -0.00002670 0.99001794
vn -0.14423935 -0.00020416 0.98954281
vn -0.13480584 0.00067147 0.99087180
vn 0.30695508 0.95157019 0.01711011
vn 0.30695172 0.95156417 0.01750094
vn 0.30695638 0.95157012 0.01709026
vn 0.30695249 0.95156316 0.01754181
vn 0.30696790 0.95156557 0.01713695
vn 0.30696797 0.95156547 0.01714152
vn -0.94857111 0.31607971 0.01750652
vn -0.94856627 0.31608389 0.01769172
vn -0.94857136 0.31607949 0.01749681
vn -0.94856603 0.31608410 0.01770109
vn 0.43836360 -0.89863246 0.01723514
vn 0.43837194 -0.89861976 0.01767948
vn 0.43837180 -0.89861913 0.01771526
vn 0.43836383 -0.89863210 0.01724840
vn 0.43841816 -0.89859650 0.01771591
vn 0.43842612 -0.89859273 0.01771010
vn 0.43844154 -0.89859531 0.01718952
vn 0.43843835 -0.89859817 0.01712115
vn -0.07526162 -0.00233837 0.99716108
vn -0.07915129 -0.00074215 0.99686234
vn -0.07947659 -0.00060863 0.99683655
vn -0.08849274 -0.00115446 0.99607615
vn -0.09212192 0.00033722 0.99574768
vn -0.09113810 -0.00006721 0.99583826
vn -0.08336886 0.00098931 0.99651827
vn -0.09851420 -0.00018017 0.99513563
vn -0.09851420 -0.00018017 0.99513563
vn -0.09851420 -0.00018017 0.99513563
vn -0.10572975 0.00040496 0.99439482
vn -0.10572975 0.00040496 0.99439482
vn -0.10572975 0.00040496 0.99439482
vn -0.09400851 0.00111289 0.99557077
vn 0.31850204 0.94775716 0.01768645
vn 0.31850528 0.94776072 0.01743540
vn 0.31850083 0.94775775 0.01767700
vn 0.31850535 0.94776097 0.01742064
vn 0.31850701 0.94776195 0.01733690
vn 0.31850815 0.94776178 0.01732512
vn 0.31854191 0.94774857 0.01742684
vn 0.31854259 0.94774815 0.01743735
vn -0.94538820 0.32547972 0.01743871
vn -0.94539180 0.32547976 0.01724162
vn -0.94538810 0.32547972 0.01744394
vn -0.94539189 0.32547976 0.01723658
vn 0.44274316 -0.89648194 0.01728109
vn 0.44274648 -0.89647416 0.01759669
vn 0.44274682 -0.89647358 0.01761747
vn 0.44274305 -0.89648222 0.01726897
vn 0.44275875 -0.89647535 0.01722291
vn 0.44275986 -0.89647464 0.01723140
vn 0.44275748 -0.89647173 0.01744253
vn 0.44275503 -0.89647265 0.01745750
vn 0.44273415 -0.89648102 0.01755701
vn 0.44273443 -0.89648071 0.01756614
vn -0.05664743 -0.00141731 0.99839324
vn -0.06041674 -0.00031191 0.99817319
vn -0.06017466 -0.00038291 0.99818779
vn -0.06399946 0.00073903 0.99794966
vn 0.31833292 0.94781922 0.01740314
vn 0.31836063 0.94780807 0.01750363
vn 0.31833176 0.94781950 0.01740934
vn 0.31836134 0.94780765 0.01751350
vn 0.31832803 0.94781648 0.01764038
vn 0.31832967 0.94781551 0.01766304
vn 0.45935161 -0.88808296 0.01745731
vn 0.45936410 -0.88806916 0.01782675
vn 0.45936498 -0.88806818 0.01785288
vn 0.45935076 -0.88808389 0.01743213
vn -0.89629837 -0.44311380 0.01730316
vn -0.89629356 -0.44311939 0.01740845
vn -0.89629323 -0.44311978 0.01741577
vn -0.89629869 -0.44311343 0.01729611
vn -0.08050042 0.00005694 0.99675457
vn -0.08050042 0.00005694 0.99675457
vn -0.08050042 0.00005694 0.99675457
vn -0.08917552 -0.00001911 0.99601593
vn -0.08923904 -0.00005167 0.99601024
vn -0.08914908 -0.00000556 0.99601829
vn -0.08926610 -0.00006554 0.99600781
vn -0.09706343 -0.00001147 0.99527820
vn -0.09706343 -0.00001147 0.99527820
vn -0.09706343 -0.00001147 0.99527820
vn -0.45393293 0.89086599 0.01739783
vn -0.45393999 0.89086292 0.01737046
vn -0.45393206 0.89086635 0.01740182
vn -0.45394012 0.89086291 0.01736795
vn -0.45392321 0.89086985 0.01745373
vn -0.45392290 0.89086991 0.01745883
vn 0.89087923 0.45390364 0.01748389
vn 0.89087933 0.45390751 0.01737789
vn 0.89087922 0.45390346 0.01748890
vn 0.89087934 0.45390769 0.01737299
vn 0.45391465 -0.89087767 0.01727643
vn 0.45393153 -0.89085890 0.01779297
vn 0.45393419 -0.89085652 0.01784389
vn 0.45391448 -0.89087818 0.01725467
vn 0.45392859 -0.89086914 0.01734976
vn 0.45392896 -0.89086878 0.01735855
vn -0.89088607 -0.45388964 0.01749882
vn -0.89088523 -0.45389007 0.01753021
vn -0.89088519 -0.45389009 0.01753169
vn -0.89088611 -0.45388962 0.01749737
vn -0.10038694 0.00127933 0.99494765
vn -0.10038694 0.00127933 0.99494765
vn -0.10038694 0.00127933 0.99494765
vn -0.10780094 -0.00008518 0.99417250
vn -0.10773384 0.00011144 0.99417977
vn -0.10734822 0.00124126 0.99422071
vn -0.10818454 -0.00120962 0.99413009
vn -0.11503536 -0.00128991 0.99336056
vn -0.11503536 -0.00128991 0.99336056
vn -0.11503536 -0.00128991 0.99336056
vn -0.44703798 0.89435095 0.01712957
vn -0.44708629 0.89432042 0.01745978
vn -0.44703050 0.89435584 0.01706960
vn -0.44708531 0.89432034 0.01748867
vn -0.44700612 0.89438513 0.01614846
vn -0.44700926 0.89438505 0.01606538
vn 0.33990821 0.94029013 0.01780115
vn 0.33989733 0.94032292 0.01620511
vn 0.33990900 0.94028751 0.01792368
vn 0.33989649 0.94032527 0.01608603
vn 0.44451208 -0.89560438 0.01737276
vn 0.44450072 -0.89561461 0.01713412
vn 0.44449997 -0.89561542 0.01711138
vn 0.44451306 -0.89560347 0.01739433
vn 0.44452170 -0.89559517 0.01759945
vn 0.44452216 -0.89559458 0.01761792
vn -0.32630978 -0.94510100 0.01749387
vn -0.32631038 -0.94510366 0.01733807
vn -0.32631042 -0.94510386 0.01732668
vn -0.32630974 -0.94510081 0.01750493
f 1//1 2//2 3//3
f 4//4 5//5 6//6
f 7//7 8//8 9//9
f 9//9 8//8 10//10
f 11//11 12//12 13//13
f 14//14 15//15 5//5
f 12//12 16//16 13//13
f 16//16 17//17 13//13
f 18//18 19//19 20//20
f 21//21 18//18 22//22
f 23//23 22//22 24//24
f 23//23 21//21 22//22
f 25//25 24//24 26//26
f 25//25 23//23 24//24
f 21//21 19//19 18//18
f 27//27 28//28 29//29
f 27//27 30//30 28//28
f 31//31 29//29 32//32
f 31//31 27//27 29//29
f 33//33 34//34 35//35
f 36//36 34//34 33//33
f 37//37 36//36 33//33
f 38//38 36//36 37//37
f 39//39 38//38 37//37
f 40//40 38//38 39//39
f 41//41 40//40 39//39
f 42//42 40//40 41//41
f 43//43 44//44 45//45
f 46//46 47//47 48//48
f 49//49 50//50 51//51
f 52//52 50//50 49//49
f 53//53 52//52 49//49
f 54//54 52//52 53//53
f 55//55 56//56 57//57
f 55//55 58//58 56//56
f 59//59 60//60 61//61
f 59//59 62//62 60//60
f 63//63 64//64 65//65
f 66//66 67//67 68//68
f 68//68 67//67 69//69
f 64//64 70//70 65//65
f 71//71 72//72 73//73
f 71//71 74//74 72//72
f 75//75 73//73 76//76
f 75//75 71//71 73//73
f 77//77 78//78 79//79
f 77//77 80//80 78//78
f 81//81 82//82 83//83
f 84//84 82//82 81//81
f 85//85 84//84 81//81
f 86//86 84//84 85//85
f 87//87 86//86 85//85
f 88//88 86//86 87//87
f 89//89 90//90 91//91
f 92//92 93//93 94//94
f 90//90 95//95 91//91
f 96//96 97//97 98//98
f 99//99 100//100 101//101
f 93//93 102//102 94//94
f 103//103 104//104 105//105
f 103//103 106//106 104//104
f 107//107 105//105 108//108
f 107//107 103//103 105//105
f 109//109 108//108 110//110
f 109//109 107//107 108//108
f 111//111 112//112 113//113
f 111//111 114//114 112//112
f 115//115 116//116 117//117
f 118//118 116//116 115//115
f 119//119 118//118 115//115
f 120//120 118//118 119//119
f 121//121 120//120 119//119
f 122//122 120//120 121//121
f 123//123 122//122 121//121
f 124//124 122//122 123//123
f 125//125 126//126 127//127
f 126//126 128//128 127//127
f 129//129 130//130 131//131
f 129//129 132//132 130//130
f 133//133 131//131 134//134
f 133//133 129//129 131//131
f 135//135 136//136 137//137
f 138//138 136//136 135//135
f 139//139 140//140 141//141
f 142//142 140//140 139//139
f 143//143 144//144 145//145
f 146//146 147//147 148//148
f 149//149 147//147 146//146
f 150//150 151//151 152//152
f 153//153 154//154 155//155
f 153//153 156//156 154//154
f 157//157 155//155 158//158
f 157//157 153//153 155//155
f 159//159 160//160 161//161
f 159//159 162//162 160//160
f 163//163 164//164 165//165
f 166//166 164//164 163//163
f 167//167 166//166 163//163
f 168//168 166//166 167//167
f 169//169 170//170 171//171
f 172//172 170//170 169//169
f 173//173 174//174 175//175
f 176//176 177//177 178//178
f 179//179 177//177 176//176
f 180//180 181//181 182//182
f 183//183 184//184 185//185
f 183//183 186//186 184//184
f 187//187 185//185 188//188
f 187//187 183//183 185//185
f 189//189 190//190 191//191
f 189//189 192//192 190//190
f 193//193 194//194 195//195
f 196//196 194//194 193//193
f 197//197 196//196 193//193
f 198//198 196//196 197//197
f 199//199 200//200 201//201
f 202//202 200//200 199//199

