# https://github.com/mikedh/trimesh
v -0.02650034 -0.07635426 0.03652471
v -0.02626353 -0.07625192 0.03664743
v -0.02649921 -0.07623189 0.03684794
v -0.02524000 -0.07651817 0.02908653
v -0.02641999 -0.07634878 0.02925670
v -0.02628087 -0.07621294 0.02907449
v -0.02432310 -0.07656788 0.02921253
v -0.02346646 -0.07683438 0.02983111
v -0.02524000 -0.07651817 0.02908653
v -0.02351230 -0.07665592 0.02957421
v -0.02346646 -0.07683438 0.02983111
v -0.02432310 -0.07656788 0.02921253
v -0.02822268 -0.07605779 0.03027886
v -0.02893984 -0.07588076 0.03103262
v -0.02817589 -0.07591837 0.03002732
v -0.02730166 -0.07614815 0.02947872
v -0.02822268 -0.07605779 0.03027886
v -0.02817589 -0.07591837 0.03002732
v -0.02188581 -0.07691282 0.03146398
v -0.02242064 -0.07700359 0.03085678
v -0.02246749 -0.07682210 0.03048515
v -0.02641999 -0.07634878 0.02925670
v -0.02730166 -0.07614815 0.02947872
v -0.02628087 -0.07621294 0.02907449
v -0.02188581 -0.07691282 0.03146398
v -0.02177220 -0.07711052 0.03286486
v -0.02242064 -0.07700359 0.03085678
v -0.02893984 -0.07588076 0.03103262
v -0.02934390 -0.07588171 0.03260099
v -0.02944236 -0.07567667 0.03237861
v -0.02158838 -0.07698327 0.03285586
v -0.02177220 -0.07711052 0.03286486
v -0.02188581 -0.07691282 0.03146398
v -0.02300798 -0.07681864 0.02999669
v -0.02346646 -0.07683438 0.02983111
v -0.02351230 -0.07665592 0.02957421
v -0.02300798 -0.07681864 0.02999669
v -0.02242064 -0.07700359 0.03085678
v -0.02346646 -0.07683438 0.02983111
v -0.02242064 -0.07700359 0.03085678
v -0.02300798 -0.07681864 0.02999669
v -0.02246749 -0.07682210 0.03048515
v -0.02180469 -0.07704019 0.03411877
v -0.02177220 -0.07711052 0.03286486
v -0.02158838 -0.07698327 0.03285586
v -0.02221286 -0.07690358 0.03510779
v -0.02273362 -0.07696855 0.03547430
v -0.02180469 -0.07704019 0.03411877
v -0.02368861 -0.07677882 0.03638416
v -0.02273362 -0.07696855 0.03547430
v -0.02261066 -0.07683682 0.03564745
v -0.02353656 -0.07662147 0.03647333
v -0.02368861 -0.07677882 0.03638416
v -0.02261066 -0.07683682 0.03564745
v -0.02368861 -0.07677882 0.03638416
v -0.02461671 -0.07645452 0.03686302
v -0.02464073 -0.07664209 0.03668439
v -0.02353656 -0.07662147 0.03647333
v -0.02461671 -0.07645452 0.03686302
v -0.02368861 -0.07677882 0.03638416
v -0.02261066 -0.07683682 0.03564745
v -0.02273362 -0.07696855 0.03547430
v -0.02221286 -0.07690358 0.03510779
v -0.02169489 -0.06821912 0.03622955
v -0.02461671 -0.07645452 0.03686302
v -0.02353656 -0.07662147 0.03647333
v -0.02337175 -0.06794756 0.03683459
v -0.02169489 -0.06821912 0.03622955
v -0.02353656 -0.07662147 0.03647333
v -0.02261066 -0.07683682 0.03564745
v -0.02169489 -0.06821912 0.03622955
v -0.02261066 -0.07683682 0.03564745
v -0.02221286 -0.07690358 0.03510779
v -0.02033889 -0.06843876 0.03419268
v -0.02169489 -0.06821912 0.03622955
v -0.02221286 -0.07690358 0.03510779
v -0.02033889 -0.06843876 0.03419268
v -0.02221286 -0.07690358 0.03510779
v -0.02180469 -0.07704019 0.03411877
v -0.02033889 -0.06843876 0.03419268
v -0.02180469 -0.07704019 0.03411877
v -0.02158838 -0.07698327 0.03285586
v -0.02035075 -0.06843686 0.03162199
v -0.02033889 -0.06843876 0.03419268
v -0.02158838 -0.07698327 0.03285586
v -0.02656418 -0.06743049 0.02980202
v -0.02730166 -0.07614815 0.02947872
v -0.02817589 -0.07591837 0.03002732
v -0.02656418 -0.06743049 0.02980202
v -0.02454888 -0.06775683 0.02893584
v -0.02730166 -0.07614815 0.02947872
v -0.02035075 -0.06843686 0.03162199
v -0.02158838 -0.07698327 0.03285586
v -0.02188581 -0.07691282 0.03146398
v -0.02789485 -0.06721496 0.03149873
v -0.02817589 -0.07591837 0.03002732
v -0.02893984 -0.07588076 0.03103262
v -0.02789485 -0.06721496 0.03149873
v -0.02656418 -0.06743049 0.02980202
v -0.02817589 -0.07591837 0.03002732
v -0.02035075 -0.06843686 0.03162199
v -0.02188581 -0.07691282 0.03146398
v -0.02246749 -0.07682210 0.03048515
v -0.02789485 -0.06721496 0.03149873
v -0.02893984 -0.07588076 0.03103262
v -0.02944236 -0.07567667 0.03237861
v -0.02204370 -0.06816262 0.02955377
v -0.02035075 -0.06843686 0.03162199
v -0.02246749 -0.07682210 0.03048515
v -0.02204370 -0.06816262 0.02955377
v -0.02246749 -0.07682210 0.03048515
v -0.02300798 -0.07681864 0.02999669
v -0.02807307 -0.06718611 0.03365725
v -0.02789485 -0.06721496 0.03149873
v -0.02944236 -0.07567667 0.03237861
v -0.02204370 -0.06816262 0.02955377
v -0.02300798 -0.07681864 0.02999669
v -0.02351230 -0.07665592 0.02957421
v -0.02204370 -0.06816262 0.02955377
v -0.02351230 -0.07665592 0.02957421
v -0.02432310 -0.07656788 0.02921253
v -0.02454888 -0.06775683 0.02893584
v -0.02432310 -0.07656788 0.02921253
v -0.02524000 -0.07651817 0.02908653
v -0.02454888 -0.06775683 0.02893584
v -0.02204370 -0.06816262 0.02955377
v -0.02432310 -0.07656788 0.02921253
v -0.02454888 -0.06775683 0.02893584
v -0.02524000 -0.07651817 0.02908653
v -0.02628087 -0.07621294 0.02907449
v -0.02454888 -0.06775683 0.02893584
v -0.02628087 -0.07621294 0.02907449
v -0.02730166 -0.07614815 0.02947872
v -0.02724504 -0.07623457 0.03496152
v -0.02662920 -0.07633239 0.03497076
v -0.02702921 -0.07586038 0.03514355
v -0.02662920 -0.07633239 0.03497076
v -0.02635890 -0.07637709 0.03557854
v -0.02654379 -0.07592439 0.03536528
v -0.02724504 -0.07623457 0.03496152
v -0.02702921 -0.07586038 0.03514355
v -0.02758187 -0.07617902 0.03546929
v -0.02758187 -0.07617902 0.03546929
v -0.02702921 -0.07586038 0.03514355
v -0.02728456 -0.07582151 0.03548187
v -0.02662920 -0.07633239 0.03497076
v -0.02654379 -0.07592439 0.03536528
v -0.02702921 -0.07586038 0.03514355
v -0.02625554 -0.07436907 0.03562247
v -0.02649879 -0.07432967 0.03515923
v -0.02654379 -0.07592439 0.03536528
v -0.02654379 -0.07592439 0.03536528
v -0.02649879 -0.07432967 0.03515923
v -0.02702921 -0.07586038 0.03514355
v -0.02649879 -0.07432967 0.03515923
v -0.02704954 -0.07424050 0.03537064
v -0.02702921 -0.07586038 0.03514355
v -0.02702921 -0.07586038 0.03514355
v -0.02704954 -0.07424050 0.03537064
v -0.02728456 -0.07582151 0.03548187
v -0.02777171 -0.07572549 0.03396838
v -0.02766370 -0.07616674 0.03380399
v -0.02763557 -0.07617080 0.03440809
v -0.02882522 -0.07597351 0.03399121
v -0.02825713 -0.07566154 0.03374665
v -0.02851229 -0.07562261 0.03408515
v -0.02819406 -0.07608026 0.03350836
v -0.02825713 -0.07566154 0.03374665
v -0.02882522 -0.07597351 0.03399121
v -0.02766370 -0.07616674 0.03380399
v -0.02777171 -0.07572549 0.03396838
v -0.02819406 -0.07608026 0.03350836
v -0.02819406 -0.07608026 0.03350836
v -0.02777171 -0.07572549 0.03396838
v -0.02825713 -0.07566154 0.03374665
v -0.02777171 -0.07572549 0.03396838
v -0.02795952 -0.07409310 0.03373014
v -0.02825713 -0.07566154 0.03374665
v -0.02746355 -0.07417345 0.03407621
v -0.02795952 -0.07409310 0.03373014
v -0.02777171 -0.07572549 0.03396838
v -0.02825713 -0.07566154 0.03374665
v -0.02827721 -0.07404160 0.03428030
v -0.02851229 -0.07562261 0.03408515
v -0.02795952 -0.07409310 0.03373014
v -0.02827721 -0.07404160 0.03428030
v -0.02825713 -0.07566154 0.03374665
v -0.02864325 -0.07560145 0.03230375
v -0.02890777 -0.07595515 0.03189790
v -0.02849555 -0.07561141 0.03194886
v -0.02890777 -0.07595515 0.03189790
v -0.02797985 -0.07611417 0.03171092
v -0.02849555 -0.07561141 0.03194886
v -0.02849555 -0.07561141 0.03194886
v -0.02797985 -0.07611417 0.03171092
v -0.02803659 -0.07568728 0.03194320
v -0.02797985 -0.07611417 0.03171092
v -0.02771759 -0.07615703 0.03231614
v -0.02803659 -0.07568728 0.03194320
v -0.02803659 -0.07568728 0.03194320
v -0.02771759 -0.07615703 0.03231614
v -0.02789765 -0.07571101 0.03241610
v -0.02789765 -0.07571101 0.03241610
v -0.02773219 -0.07412993 0.03194451
v -0.02803659 -0.07568728 0.03194320
v -0.02803659 -0.07568728 0.03194320
v -0.02773219 -0.07412993 0.03194451
v -0.02849555 -0.07561141 0.03194886
v -0.02773219 -0.07412993 0.03194451
v -0.02840811 -0.07402044 0.03210830
v -0.02849555 -0.07561141 0.03194886
v -0.02849555 -0.07561141 0.03194886
v -0.02840811 -0.07402044 0.03210830
v -0.02864325 -0.07560145 0.03230375
v -0.02502638 -0.07659381 0.02977693
v -0.02526199 -0.07614314 0.02978545
v -0.02555668 -0.07650727 0.02948123
v -0.02587491 -0.07604980 0.03014189
v -0.02612352 -0.07641565 0.02981919
v -0.02572727 -0.07605975 0.02978718
v -0.02512907 -0.07615935 0.03025448
v -0.02502638 -0.07659381 0.02977693
v -0.02499788 -0.07659798 0.03038078
v -0.02526199 -0.07614314 0.02978545
v -0.02502638 -0.07659381 0.02977693
v -0.02512907 -0.07615935 0.03025448
v -0.02555668 -0.07650727 0.02948123
v -0.02572727 -0.07605975 0.02978718
v -0.02612352 -0.07641565 0.02981919
v -0.02572727 -0.07605975 0.02978718
v -0.02555668 -0.07650727 0.02948123
v -0.02526199 -0.07614314 0.02978545
v -0.02493637 -0.07458269 0.03037333
v -0.02491855 -0.07458561 0.02989083
v -0.02512907 -0.07615935 0.03025448
v -0.02512907 -0.07615935 0.03025448
v -0.02491855 -0.07458561 0.02989083
v -0.02526199 -0.07614314 0.02978545
v -0.02491855 -0.07458561 0.02989083
v -0.02537173 -0.07451224 0.02970552
v -0.02526199 -0.07614314 0.02978545
v -0.02526199 -0.07614314 0.02978545
v -0.02537173 -0.07451224 0.02970552
v -0.02572727 -0.07605975 0.02978718
v -0.02572727 -0.07605975 0.02978718
v -0.02559190 -0.07447654 0.03034538
v -0.02587491 -0.07604980 0.03014189
v -0.02537173 -0.07451224 0.02970552
v -0.02559190 -0.07447654 0.03034538
v -0.02572727 -0.07605975 0.02978718
v -0.02318483 -0.07688701 0.03056704
v -0.02352118 -0.07641768 0.03038448
v -0.02381724 -0.07678902 0.03008431
v -0.02437585 -0.07669878 0.03098392
v -0.02434772 -0.07670378 0.03038001
v -0.02412724 -0.07633286 0.03074502
v -0.02412724 -0.07633286 0.03074502
v -0.02434772 -0.07670378 0.03038001
v -0.02399045 -0.07634967 0.03039622
v -0.02352118 -0.07641768 0.03038448
v -0.02318483 -0.07688701 0.03056704
v -0.02338165 -0.07644242 0.03085762
v -0.02381724 -0.07678902 0.03008431
v -0.02399045 -0.07634967 0.03039622
v -0.02434772 -0.07670378 0.03038001
v -0.02381724 -0.07678902 0.03008431
v -0.02352118 -0.07641768 0.03038448
v -0.02399045 -0.07634967 0.03039622
v -0.02338165 -0.07644242 0.03085762
v -0.02325958 -0.07485431 0.03038585
v -0.02352118 -0.07641768 0.03038448
v -0.02314931 -0.07487219 0.03094375
v -0.02325958 -0.07485431 0.03038585
v -0.02338165 -0.07644242 0.03085762
v -0.02352118 -0.07641768 0.03038448
v -0.02384442 -0.07475960 0.03045773
v -0.02399045 -0.07634967 0.03039622
v -0.02325958 -0.07485431 0.03038585
v -0.02384442 -0.07475960 0.03045773
v -0.02352118 -0.07641768 0.03038448
v -0.02399045 -0.07634967 0.03039622
v -0.02384442 -0.07475960 0.03045773
v -0.02412724 -0.07633286 0.03074502
v -0.02310651 -0.07649821 0.03230375
v -0.02340394 -0.07685583 0.03220689
v -0.02295893 -0.07650816 0.03194886
v -0.02306681 -0.07691127 0.03169912
v -0.02245146 -0.07700836 0.03170859
v -0.02295893 -0.07650816 0.03194886
v -0.02245146 -0.07700836 0.03170859
v -0.02221024 -0.07704079 0.03262543
v -0.02249372 -0.07659149 0.03194695
v -0.02249372 -0.07659149 0.03194695
v -0.02221024 -0.07704079 0.03262543
v -0.02236092 -0.07660776 0.03241610
v -0.02306681 -0.07691127 0.03169912
v -0.02295893 -0.07650816 0.03194886
v -0.02340394 -0.07685583 0.03220689
v -0.02295893 -0.07650816 0.03194886
v -0.02245146 -0.07700836 0.03170859
v -0.02249372 -0.07659149 0.03194695
v -0.02236092 -0.07660776 0.03241610
v -0.02213490 -0.07503646 0.03204435
v -0.02249372 -0.07659149 0.03194695
v -0.02213490 -0.07503646 0.03204435
v -0.02280098 -0.07492858 0.03196710
v -0.02249372 -0.07659149 0.03194695
v -0.02249372 -0.07659149 0.03194695
v -0.02280098 -0.07492858 0.03196710
v -0.02295893 -0.07650816 0.03194886
v -0.02295893 -0.07650816 0.03194886
v -0.02280098 -0.07492858 0.03196710
v -0.02310651 -0.07649821 0.03230375
v -0.02229475 -0.07703119 0.03399121
v -0.02263110 -0.07656180 0.03380846
v -0.02292734 -0.07693332 0.03350836
v -0.02348577 -0.07684290 0.03440809
v -0.02345782 -0.07684797 0.03380399
v -0.02323716 -0.07647705 0.03416919
v -0.02323716 -0.07647705 0.03416919
v -0.02345782 -0.07684797 0.03380399
v -0.02310055 -0.07649385 0.03382039
v -0.02263110 -0.07656180 0.03380846
v -0.02229475 -0.07703119 0.03399121
v -0.02249169 -0.07658654 0.03428173
v -0.02292734 -0.07693332 0.03350836
v -0.02310055 -0.07649385 0.03382039
v -0.02345782 -0.07684797 0.03380399
v -0.02292734 -0.07693332 0.03350836
v -0.02263110 -0.07656180 0.03380846
v -0.02310055 -0.07649385 0.03382039
v -0.02249169 -0.07658654 0.03428173
v -0.02216476 -0.07503163 0.03418105
v -0.02263110 -0.07656180 0.03380846
v -0.02216476 -0.07503163 0.03418105
v -0.02259016 -0.07496273 0.03373932
v -0.02263110 -0.07656180 0.03380846
v -0.02263110 -0.07656180 0.03380846
v -0.02259016 -0.07496273 0.03373932
v -0.02310055 -0.07649385 0.03382039
v -0.02259016 -0.07496273 0.03373932
v -0.02298074 -0.07489943 0.03398215
v -0.02310055 -0.07649385 0.03382039
v -0.02310055 -0.07649385 0.03382039
v -0.02298074 -0.07489943 0.03398215
v -0.02323716 -0.07647705 0.03416919
v -0.02446526 -0.07627815 0.03556615
v -0.02479368 -0.07664406 0.03569841
v -0.02431762 -0.07628810 0.03521126
v -0.02371942 -0.07638770 0.03567832
v -0.02361667 -0.07682216 0.03520089
v -0.02358829 -0.07682609 0.03580456
v -0.02385234 -0.07637143 0.03520929
v -0.02361667 -0.07682216 0.03520089
v -0.02371942 -0.07638770 0.03567832
v -0.02428436 -0.07671195 0.03489071
v -0.02431762 -0.07628810 0.03521126
v -0.02479368 -0.07664406 0.03569841
v -0.02431762 -0.07628810 0.03521126
v -0.02428436 -0.07671195 0.03489071
v -0.02385234 -0.07637143 0.03520929
v -0.02361667 -0.07682216 0.03520089
v -0.02385234 -0.07637143 0.03520929
v -0.02428436 -0.07671195 0.03489071
v -0.02358698 -0.07480126 0.03588265
v -0.02358520 -0.07480156 0.03519088
v -0.02371942 -0.07638770 0.03567832
v -0.02371942 -0.07638770 0.03567832
v -0.02358520 -0.07480156 0.03519088
v -0.02385234 -0.07637143 0.03520929
v -0.02385234 -0.07637143 0.03520929
v -0.02358520 -0.07480156 0.03519088
v -0.02431762 -0.07628810 0.03521126
v -0.02358520 -0.07480156 0.03519088
v -0.02407521 -0.07472223 0.03522479
v -0.02431762 -0.07628810 0.03521126
v -0.02431762 -0.07628810 0.03521126
v -0.02420878 -0.07470059 0.03566879
v -0.02446526 -0.07627815 0.03556615
v -0.02407521 -0.07472223 0.03522479
v -0.02420878 -0.07470059 0.03566879
v -0.02431762 -0.07628810 0.03521126
v -0.02399170 -0.07675731 0.03231394
v -0.02432781 -0.07628798 0.03213155
v -0.02462482 -0.07665860 0.03182965
v -0.02487391 -0.07616627 0.03221583
v -0.02462482 -0.07665860 0.03182965
v -0.02432781 -0.07628798 0.03213155
v -0.02432781 -0.07628798 0.03213155
v -0.02399170 -0.07675731 0.03231394
v -0.02417469 -0.07633304 0.03249323
v -0.02462482 -0.07665860 0.03182965
v -0.02487391 -0.07616627 0.03221583
v -0.02518314 -0.07656794 0.03216922
v -0.02458333 -0.07463991 0.03277313
v -0.02487391 -0.07616627 0.03221583
v -0.02458333 -0.07463991 0.03217667
v -0.02458333 -0.07463991 0.03217667
v -0.02487391 -0.07616627 0.03221583
v -0.02397871 -0.07473784 0.03216081
v -0.02487391 -0.07616627 0.03221583
v -0.02432781 -0.07628798 0.03213155
v -0.02397871 -0.07473784 0.03216081
v -0.02432781 -0.07628798 0.03213155
v -0.02417469 -0.07633304 0.03249323
v -0.02397871 -0.07473784 0.03216081
v -0.02581721 -0.07602280 0.03434062
v -0.02612358 -0.07641577 0.03381896
v -0.02572727 -0.07605975 0.03378719
v -0.02515649 -0.07614815 0.03386849
v -0.02502632 -0.07659387 0.03377676
v -0.02499788 -0.07659798 0.03438079
v -0.02555668 -0.07650750 0.03348106
v -0.02572727 -0.07605975 0.03378719
v -0.02612358 -0.07641577 0.03381896
v -0.02572727 -0.07605975 0.03378719
v -0.02555668 -0.07650750 0.03348106
v -0.02515649 -0.07614815 0.03386849
v -0.02502632 -0.07659387 0.03377676
v -0.02515649 -0.07614815 0.03386849
v -0.02555668 -0.07650750 0.03348106
v -0.02581721 -0.07602280 0.03434062
v -0.02572727 -0.07605975 0.03378719
v -0.02564322 -0.07446825 0.03418374
v -0.02564322 -0.07446825 0.03418374
v -0.02572727 -0.07605975 0.03378719
v -0.02536594 -0.07451313 0.03372490
v -0.02572727 -0.07605975 0.03378719
v -0.02515649 -0.07614815 0.03386849
v -0.02536594 -0.07451313 0.03372490
v -0.02536594 -0.07451313 0.03372490
v -0.02515649 -0.07614815 0.03386849
v -0.02490347 -0.07458806 0.03388249
v -0.02596670 -0.07644152 0.03212690
v -0.02606964 -0.07600706 0.03229540
v -0.02650547 -0.07635402 0.03182965
v -0.02650547 -0.07635402 0.03182965
v -0.02606964 -0.07600706 0.03229540
v -0.02655184 -0.07593190 0.03206795
v -0.02606964 -0.07600706 0.03229540
v -0.02596670 -0.07644152 0.03212690
v -0.02593839 -0.07644575 0.03273063
v -0.02706390 -0.07626336 0.03216916
v -0.02655184 -0.07593190 0.03206795
v -0.02681523 -0.07589751 0.03240782
v -0.02650547 -0.07635402 0.03182965
v -0.02655184 -0.07593190 0.03206795
v -0.02706390 -0.07626336 0.03216916
v -0.02681523 -0.07589751 0.03240782
v -0.02655184 -0.07593190 0.03206795
v -0.02656382 -0.07431918 0.03235453
v -0.02656382 -0.07431918 0.03235453
v -0.02655184 -0.07593190 0.03206795
v -0.02611619 -0.07439166 0.03203922
v -0.02655184 -0.07593190 0.03206795
v -0.02606964 -0.07600706 0.03229540
v -0.02611619 -0.07439166 0.03203922
v -0.02611619 -0.07439166 0.03203922
v -0.02606964 -0.07600706 0.03229540
v -0.02579349 -0.07444393 0.03244996
v -0.02687680 -0.07587629 0.03054863
v -0.02677381 -0.07631075 0.03038007
v -0.02674549 -0.07631492 0.03098386
v -0.02787101 -0.07613241 0.03042227
v -0.02735894 -0.07580113 0.03032106
v -0.02762252 -0.07576674 0.03066080
v -0.02731281 -0.07622313 0.03008288
v -0.02735894 -0.07580113 0.03032106
v -0.02787101 -0.07613241 0.03042227
v -0.02677381 -0.07631075 0.03038007
v -0.02687680 -0.07587629 0.03054863
v -0.02731281 -0.07622313 0.03008288
v -0.02731281 -0.07622313 0.03008288
v -0.02687680 -0.07587629 0.03054863
v -0.02735894 -0.07580113 0.03032106
v -0.02687680 -0.07587629 0.03054863
v -0.02668422 -0.07429969 0.03042972
v -0.02735894 -0.07580113 0.03032106
v -0.02668422 -0.07429969 0.03042972
v -0.02728515 -0.07420229 0.03041511
v -0.02735894 -0.07580113 0.03032106
v -0.02735894 -0.07580113 0.03032106
v -0.02728515 -0.07420229 0.03041511
v -0.02762252 -0.07576674 0.03066080
v -0.02728515 -0.07420229 0.03041511
v -0.02722430 -0.07421219 0.03104871
v -0.02762252 -0.07576674 0.03066080
v -0.02762252 -0.07576674 0.03066080
v -0.02722430 -0.07421219 0.03104871
v -0.02748554 -0.07578361 0.03100997
v -0.02748554 -0.07578361 0.03100997
v -0.02722430 -0.07421219 0.03104871
v -0.02701646 -0.07585155 0.03102171
v -0.02722430 -0.07421219 0.03104871
v -0.02668672 -0.07429921 0.03095448
v -0.02701646 -0.07585155 0.03102171
v -0.02701646 -0.07585155 0.03102171
v -0.02668672 -0.07429921 0.03095448
v -0.02687680 -0.07587629 0.03054863
v -0.02668672 -0.07429921 0.03095448
v -0.02668422 -0.07429969 0.03042972
v -0.02687680 -0.07587629 0.03054863
v -0.02784281 -0.07613760 0.03102618
v -0.02748554 -0.07578361 0.03100997
v -0.02731233 -0.07622313 0.03132200
v -0.02687680 -0.07587629 0.03054863
v -0.02674549 -0.07631492 0.03098386
v -0.02701646 -0.07585155 0.03102171
v -0.02762252 -0.07576674 0.03066080
v -0.02784281 -0.07613760 0.03102618
v -0.02787101 -0.07613241 0.03042227
v -0.02748554 -0.07578361 0.03100997
v -0.02784281 -0.07613760 0.03102618
v -0.02762252 -0.07576674 0.03066080
v -0.02731233 -0.07622313 0.03132200
v -0.02701646 -0.07585155 0.03102171
v -0.02674549 -0.07631492 0.03098386
v -0.02701646 -0.07585155 0.03102171
v -0.02731233 -0.07622313 0.03132200
v -0.02748554 -0.07578361 0.03100997
v -0.02579349 -0.07444393 0.03244996
v -0.02620917 -0.07598233 0.03276836
v -0.02621668 -0.07437539 0.03288853
v -0.02606964 -0.07600706 0.03229540
v -0.02620917 -0.07598233 0.03276836
v -0.02579349 -0.07444393 0.03244996
v -0.02620917 -0.07598233 0.03276836
v -0.02667850 -0.07591432 0.03275686
v -0.02621668 -0.07437539 0.03288853
v -0.02621668 -0.07437539 0.03288853
v -0.02667850 -0.07591432 0.03275686
v -0.02656382 -0.07431918 0.03235453
v -0.02667850 -0.07591432 0.03275686
v -0.02681523 -0.07589751 0.03240782
v -0.02656382 -0.07431918 0.03235453
v -0.02606964 -0.07600706 0.03229540
v -0.02593839 -0.07644575 0.03273063
v -0.02620917 -0.07598233 0.03276836
v -0.02681523 -0.07589751 0.03240782
v -0.02703571 -0.07626843 0.03277289
v -0.02706390 -0.07626336 0.03216916
v -0.02667850 -0.07591432 0.03275686
v -0.02703571 -0.07626843 0.03277289
v -0.02681523 -0.07589751 0.03240782
v -0.02650529 -0.07635390 0.03306889
v -0.02620917 -0.07598233 0.03276836
v -0.02593839 -0.07644575 0.03273063
v -0.02620917 -0.07598233 0.03276836
v -0.02650529 -0.07635390 0.03306889
v -0.02667850 -0.07591432 0.03275686
v -0.02703571 -0.07626843 0.03277289
v -0.02667850 -0.07591432 0.03275686
v -0.02650529 -0.07635390 0.03306889
v -0.02490347 -0.07458806 0.03388249
v -0.02515649 -0.07614815 0.03386849
v -0.02505970 -0.07456278 0.03448629
v -0.02515649 -0.07614815 0.03386849
v -0.02526170 -0.07613521 0.03441274
v -0.02505970 -0.07456278 0.03448629
v -0.02526170 -0.07613521 0.03441274
v -0.02581721 -0.07602280 0.03434062
v -0.02505970 -0.07456278 0.03448629
v -0.02505970 -0.07456278 0.03448629
v -0.02581721 -0.07602280 0.03434062
v -0.02564322 -0.07446825 0.03418374
v -0.02515649 -0.07614815 0.03386849
v -0.02499788 -0.07659798 0.03438079
v -0.02526170 -0.07613521 0.03441274
v -0.02526170 -0.07613521 0.03441274
v -0.02555644 -0.07650774 0.03472030
v -0.02581721 -0.07602280 0.03434062
v -0.02581721 -0.07602280 0.03434062
v -0.02609539 -0.07642066 0.03442305
v -0.02612358 -0.07641577 0.03381896
v -0.02555644 -0.07650774 0.03472030
v -0.02526170 -0.07613521 0.03441274
v -0.02499788 -0.07659798 0.03438079
v -0.02609539 -0.07642066 0.03442305
v -0.02581721 -0.07602280 0.03434062
v -0.02555644 -0.07650774 0.03472030
v -0.02397871 -0.07473784 0.03216081
v -0.02417469 -0.07633304 0.03249323
v -0.02403694 -0.07472842 0.03273123
v -0.02417469 -0.07633304 0.03249323
v -0.02437615 -0.07628911 0.03279113
v -0.02403694 -0.07472842 0.03273123
v -0.02403694 -0.07472842 0.03273123
v -0.02437615 -0.07628911 0.03279113
v -0.02458333 -0.07463991 0.03277313
v -0.02437615 -0.07628911 0.03279113
v -0.02479755 -0.07621896 0.03275686
v -0.02458333 -0.07463991 0.03277313
v -0.02479755 -0.07621896 0.03275686
v -0.02487391 -0.07616627 0.03221583
v -0.02458333 -0.07463991 0.03277313
v -0.02487391 -0.07616627 0.03221583
v -0.02515482 -0.07657301 0.03277289
v -0.02518314 -0.07656794 0.03216922
v -0.02479755 -0.07621896 0.03275686
v -0.02515482 -0.07657301 0.03277289
v -0.02487391 -0.07616627 0.03221583
v -0.02448666 -0.07667917 0.03308326
v -0.02437615 -0.07628911 0.03279113
v -0.02399170 -0.07675731 0.03231394
v -0.02399170 -0.07675731 0.03231394
v -0.02437615 -0.07628911 0.03279113
v -0.02417469 -0.07633304 0.03249323
v -0.02437615 -0.07628911 0.03279113
v -0.02448666 -0.07667917 0.03308326
v -0.02479755 -0.07621896 0.03275686
v -0.02515482 -0.07657301 0.03277289
v -0.02479755 -0.07621896 0.03275686
v -0.02448666 -0.07667917 0.03308326
v -0.02446526 -0.07627815 0.03556615
v -0.02420878 -0.07470059 0.03566879
v -0.02419751 -0.07630330 0.03590726
v -0.02420878 -0.07470059 0.03566879
v -0.02358698 -0.07480126 0.03588265
v -0.02419751 -0.07630330 0.03590726
v -0.02419751 -0.07630330 0.03590726
v -0.02358698 -0.07480126 0.03588265
v -0.02371942 -0.07638770 0.03567832
v -0.02479368 -0.07664406 0.03569841
v -0.02419751 -0.07630330 0.03590726
v -0.02415657 -0.07673406 0.03614157
v -0.02479368 -0.07664406 0.03569841
v -0.02446526 -0.07627815 0.03556615
v -0.02419751 -0.07630330 0.03590726
v -0.02415657 -0.07673406 0.03614157
v -0.02371942 -0.07638770 0.03567832
v -0.02358829 -0.07682609 0.03580456
v -0.02415657 -0.07673406 0.03614157
v -0.02419751 -0.07630330 0.03590726
v -0.02371942 -0.07638770 0.03567832
v -0.02323716 -0.07647705 0.03416919
v -0.02277565 -0.07493269 0.03449290
v -0.02297031 -0.07650291 0.03451037
v -0.02298074 -0.07489943 0.03398215
v -0.02277565 -0.07493269 0.03449290
v -0.02323716 -0.07647705 0.03416919
v -0.02297031 -0.07650291 0.03451037
v -0.02216476 -0.07503163 0.03418105
v -0.02249169 -0.07658654 0.03428173
v -0.02277565 -0.07493269 0.03449290
v -0.02216476 -0.07503163 0.03418105
v -0.02297031 -0.07650291 0.03451037
v -0.02348577 -0.07684290 0.03440809
v -0.02323716 -0.07647705 0.03416919
v -0.02297031 -0.07650291 0.03451037
v -0.02278929 -0.07695376 0.03476029
v -0.02249169 -0.07658654 0.03428173
v -0.02229475 -0.07703119 0.03399121
v -0.02278929 -0.07695376 0.03476029
v -0.02297031 -0.07650291 0.03451037
v -0.02249169 -0.07658654 0.03428173
v -0.02348577 -0.07684290 0.03440809
v -0.02297031 -0.07650291 0.03451037
v -0.02278929 -0.07695376 0.03476029
v -0.02310651 -0.07649821 0.03230375
v -0.02271664 -0.07494229 0.03256088
v -0.02283895 -0.07652336 0.03264486
v -0.02280098 -0.07492858 0.03196710
v -0.02271664 -0.07494229 0.03256088
v -0.02310651 -0.07649821 0.03230375
v -0.02271664 -0.07494229 0.03256088
v -0.02224165 -0.07501918 0.03260082
v -0.02283895 -0.07652336 0.03264486
v -0.02283895 -0.07652336 0.03264486
v -0.02224165 -0.07501918 0.03260082
v -0.02236092 -0.07660776 0.03241610
v -0.02224165 -0.07501918 0.03260082
v -0.02213490 -0.07503646 0.03204435
v -0.02236092 -0.07660776 0.03241610
v -0.02312988 -0.07689887 0.03281760
v -0.02310651 -0.07649821 0.03230375
v -0.02283895 -0.07652336 0.03264486
v -0.02221024 -0.07704079 0.03262543
v -0.02312988 -0.07689887 0.03281760
v -0.02283895 -0.07652336 0.03264486
v -0.02312988 -0.07689887 0.03281760
v -0.02340394 -0.07685583 0.03220689
v -0.02310651 -0.07649821 0.03230375
v -0.02221024 -0.07704079 0.03262543
v -0.02283895 -0.07652336 0.03264486
v -0.02236092 -0.07660776 0.03241610
v -0.02412724 -0.07633286 0.03074502
v -0.02370345 -0.07478243 0.03103697
v -0.02386045 -0.07635879 0.03108626
v -0.02384442 -0.07475960 0.03045773
v -0.02370345 -0.07478243 0.03103697
v -0.02412724 -0.07633286 0.03074502
v -0.02370345 -0.07478243 0.03103697
v -0.02314931 -0.07487219 0.03094375
v -0.02386045 -0.07635879 0.03108626
v -0.02386045 -0.07635879 0.03108626
v -0.02314931 -0.07487219 0.03094375
v -0.02338165 -0.07644242 0.03085762
v -0.02437585 -0.07669878 0.03098392
v -0.02412724 -0.07633286 0.03074502
v -0.02386045 -0.07635879 0.03108626
v -0.02367937 -0.07680994 0.03133624
v -0.02338165 -0.07644242 0.03085762
v -0.02318483 -0.07688701 0.03056704
v -0.02367937 -0.07680994 0.03133624
v -0.02386045 -0.07635879 0.03108626
v -0.02338165 -0.07644242 0.03085762
v -0.02437585 -0.07669878 0.03098392
v -0.02386045 -0.07635879 0.03108626
v -0.02367937 -0.07680994 0.03133624
v -0.02587491 -0.07604980 0.03014189
v -0.02559190 -0.07447654 0.03034538
v -0.02560716 -0.07607495 0.03048336
v -0.02559190 -0.07447654 0.03034538
v -0.02493637 -0.07458269 0.03037333
v -0.02560716 -0.07607495 0.03048336
v -0.02560716 -0.07607495 0.03048336
v -0.02493637 -0.07458269 0.03037333
v -0.02512907 -0.07615935 0.03025448
v -0.02609539 -0.07642072 0.03042304
v -0.02587491 -0.07604980 0.03014189
v -0.02560716 -0.07607495 0.03048336
v -0.02587491 -0.07604980 0.03014189
v -0.02609539 -0.07642072 0.03042304
v -0.02612352 -0.07641565 0.02981919
v -0.02556622 -0.07650589 0.03071761
v -0.02512907 -0.07615935 0.03025448
v -0.02499788 -0.07659798 0.03038078
v -0.02556622 -0.07650589 0.03071761
v -0.02560716 -0.07607495 0.03048336
v -0.02512907 -0.07615935 0.03025448
v -0.02609539 -0.07642072 0.03042304
v -0.02560716 -0.07607495 0.03048336
v -0.02556622 -0.07650589 0.03071761
v -0.02864325 -0.07560145 0.03230375
v -0.02840811 -0.07402044 0.03210830
v -0.02837646 -0.07562738 0.03264456
v -0.02840811 -0.07402044 0.03210830
v -0.02809017 -0.07407194 0.03265839
v -0.02837646 -0.07562738 0.03264456
v -0.02837646 -0.07562738 0.03264456
v -0.02809017 -0.07407194 0.03265839
v -0.02789765 -0.07571101 0.03241610
v -0.02809017 -0.07407194 0.03265839
v -0.02768689 -0.07413727 0.03247076
v -0.02789765 -0.07571101 0.03241610
v -0.02768689 -0.07413727 0.03247076
v -0.02773219 -0.07412993 0.03194451
v -0.02789765 -0.07571101 0.03241610
v -0.02866965 -0.07600164 0.03281468
v -0.02864325 -0.07560145 0.03230375
v -0.02837646 -0.07562738 0.03264456
v -0.02805477 -0.07610338 0.03282397
v -0.02866965 -0.07600164 0.03281468
v -0.02837646 -0.07562738 0.03264456
v -0.02866965 -0.07600164 0.03281468
v -0.02890777 -0.07595515 0.03189790
v -0.02864325 -0.07560145 0.03230375
v -0.02805477 -0.07610338 0.03282397
v -0.02789765 -0.07571101 0.03241610
v -0.02771759 -0.07615703 0.03231614
v -0.02805477 -0.07610338 0.03282397
v -0.02837646 -0.07562738 0.03264456
v -0.02789765 -0.07571101 0.03241610
v -0.02851229 -0.07562261 0.03408515
v -0.02827721 -0.07404160 0.03428030
v -0.02836465 -0.07563257 0.03444004
v -0.02836465 -0.07563257 0.03444004
v -0.02777415 -0.07412314 0.03450042
v -0.02789551 -0.07572162 0.03444123
v -0.02827721 -0.07404160 0.03428030
v -0.02777415 -0.07412314 0.03450042
v -0.02836465 -0.07563257 0.03444004
v -0.02777415 -0.07412314 0.03450042
v -0.02746355 -0.07417345 0.03407621
v -0.02789551 -0.07572162 0.03444123
v -0.02789551 -0.07572162 0.03444123
v -0.02746355 -0.07417345 0.03407621
v -0.02777171 -0.07572549 0.03396838
v -0.02882522 -0.07597351 0.03399121
v -0.02836465 -0.07563257 0.03444004
v -0.02833133 -0.07605612 0.03476029
v -0.02777171 -0.07572549 0.03396838
v -0.02763557 -0.07617080 0.03440809
v -0.02789551 -0.07572162 0.03444123
v -0.02836465 -0.07563257 0.03444004
v -0.02882522 -0.07597351 0.03399121
v -0.02851229 -0.07562261 0.03408515
v -0.02833133 -0.07605612 0.03476029
v -0.02789551 -0.07572162 0.03444123
v -0.02763557 -0.07617080 0.03440809
v -0.02833133 -0.07605612 0.03476029
v -0.02836465 -0.07563257 0.03444004
v -0.02789551 -0.07572162 0.03444123
v -0.02728456 -0.07582151 0.03548187
v -0.02704954 -0.07424050 0.03537064
v -0.02715492 -0.07584279 0.03582674
v -0.02704954 -0.07424050 0.03537064
v -0.02673161 -0.07429200 0.03592073
v -0.02715492 -0.07584279 0.03582674
v -0.02715492 -0.07584279 0.03582674
v -0.02673161 -0.07429200 0.03592073
v -0.02667433 -0.07591164 0.03584235
v -0.02673161 -0.07429200 0.03592073
v -0.02625554 -0.07436907 0.03562247
v -0.02667433 -0.07591164 0.03584235
v -0.02667433 -0.07591164 0.03584235
v -0.02625554 -0.07436907 0.03562247
v -0.02654379 -0.07592439 0.03536528
v -0.02654379 -0.07592439 0.03536528
v -0.02635890 -0.07637709 0.03557854
v -0.02667433 -0.07591164 0.03584235
v -0.02669602 -0.07632350 0.03608644
v -0.02730751 -0.07622176 0.03607982
v -0.02667433 -0.07591164 0.03584235
v -0.02730751 -0.07622176 0.03607982
v -0.02758187 -0.07617902 0.03546929
v -0.02715492 -0.07584279 0.03582674
v -0.02715492 -0.07584279 0.03582674
v -0.02758187 -0.07617902 0.03546929
v -0.02728456 -0.07582151 0.03548187
v -0.02669602 -0.07632350 0.03608644
v -0.02667433 -0.07591164 0.03584235
v -0.02635890 -0.07637709 0.03557854
v -0.02667433 -0.07591164 0.03584235
v -0.02730751 -0.07622176 0.03607982
v -0.02715492 -0.07584279 0.03582674
v -0.02361667 -0.07682216 0.03520089
v -0.02348577 -0.07684290 0.03440809
v -0.02278929 -0.07695376 0.03476029
v -0.02703571 -0.07626843 0.03277289
v -0.02771759 -0.07615703 0.03231614
v -0.02706390 -0.07626336 0.03216916
v -0.02415657 -0.07673406 0.03614157
v -0.02482074 -0.07657712 0.03624230
v -0.02479368 -0.07664406 0.03569841
v -0.02650547 -0.07635402 0.03182965
v -0.02674549 -0.07631492 0.03098386
v -0.02609539 -0.07642072 0.03042304
v -0.02556622 -0.07650589 0.03071761
v -0.02805477 -0.07610338 0.03282397
v -0.02766370 -0.07616674 0.03380399
v -0.02731281 -0.07622313 0.03008288
v -0.02822268 -0.07605779 0.03027886
v -0.02730166 -0.07614815 0.02947872
v -0.02180469 -0.07704019 0.03411877
v -0.02229475 -0.07703119 0.03399121
v -0.02177220 -0.07711052 0.03286486
v -0.02819406 -0.07608026 0.03350836
v -0.02731281 -0.07622313 0.03008288
v -0.02787101 -0.07613241 0.03042227
v -0.02822268 -0.07605779 0.03027886
v -0.02596670 -0.07644152 0.03212690
v -0.02340394 -0.07685583 0.03220689
v -0.02399170 -0.07675731 0.03231394
v -0.02367937 -0.07680994 0.03133624
v -0.02340394 -0.07685583 0.03220689
v -0.02367937 -0.07680994 0.03133624
v -0.02306681 -0.07691127 0.03169912
v -0.02844119 -0.07604223 0.03541928
v -0.02882522 -0.07597351 0.03399121
v -0.02833133 -0.07605612 0.03476029
v -0.02844119 -0.07604223 0.03541928
v -0.02919501 -0.07590943 0.03393375
v -0.02882522 -0.07597351 0.03399121
v -0.02784281 -0.07613760 0.03102618
v -0.02822268 -0.07605779 0.03027886
v -0.02787101 -0.07613241 0.03042227
v -0.02784281 -0.07613760 0.03102618
v -0.02893984 -0.07588076 0.03103262
v -0.02822268 -0.07605779 0.03027886
v -0.02434772 -0.07670378 0.03038001
v -0.02499788 -0.07659798 0.03038078
v -0.02502638 -0.07659381 0.02977693
v -0.02731281 -0.07622313 0.03008288
v -0.02730166 -0.07614815 0.02947872
v -0.02641999 -0.07634878 0.02925670
v -0.02434772 -0.07670378 0.03038001
v -0.02502638 -0.07659381 0.02977693
v -0.02524000 -0.07651817 0.02908653
v -0.02434772 -0.07670378 0.03038001
v -0.02524000 -0.07651817 0.02908653
v -0.02346646 -0.07683438 0.02983111
v -0.02306681 -0.07691127 0.03169912
v -0.02318483 -0.07688701 0.03056704
v -0.02242064 -0.07700359 0.03085678
v -0.02318483 -0.07688701 0.03056704
v -0.02555644 -0.07650774 0.03472030
v -0.02662920 -0.07633239 0.03497076
v -0.02609539 -0.07642066 0.03442305
v -0.02381724 -0.07678902 0.03008431
v -0.02434772 -0.07670378 0.03038001
v -0.02346646 -0.07683438 0.02983111
v -0.02245146 -0.07700836 0.03170859
v -0.02306681 -0.07691127 0.03169912
v -0.02242064 -0.07700359 0.03085678
v -0.02464073 -0.07664209 0.03668439
v -0.02482074 -0.07657712 0.03624230
v -0.02415657 -0.07673406 0.03614157
v -0.02677381 -0.07631075 0.03038007
v -0.02731281 -0.07622313 0.03008288
v -0.02641999 -0.07634878 0.02925670
v -0.02273362 -0.07696855 0.03547430
v -0.02229475 -0.07703119 0.03399121
v -0.02180469 -0.07704019 0.03411877
v -0.02890777 -0.07595515 0.03189790
v -0.02934390 -0.07588171 0.03260099
v -0.02893984 -0.07588076 0.03103262
v -0.02273362 -0.07696855 0.03547430
v -0.02278929 -0.07695376 0.03476029
v -0.02229475 -0.07703119 0.03399121
v -0.02368861 -0.07677882 0.03638416
v -0.02464073 -0.07664209 0.03668439
v -0.02415657 -0.07673406 0.03614157
v -0.02650529 -0.07635390 0.03306889
v -0.02368861 -0.07677882 0.03638416
v -0.02415657 -0.07673406 0.03614157
v -0.02358829 -0.07682609 0.03580456
v -0.02437585 -0.07669878 0.03098392
v -0.02797985 -0.07611417 0.03171092
v -0.02893984 -0.07588076 0.03103262
v -0.02784281 -0.07613760 0.03102618
v -0.02797985 -0.07611417 0.03171092
v -0.02890777 -0.07595515 0.03189790
v -0.02893984 -0.07588076 0.03103262
v -0.02273362 -0.07696855 0.03547430
v -0.02368861 -0.07677882 0.03638416
v -0.02358829 -0.07682609 0.03580456
v -0.02273362 -0.07696855 0.03547430
v -0.02361667 -0.07682216 0.03520089
v -0.02278929 -0.07695376 0.03476029
v -0.02273362 -0.07696855 0.03547430
v -0.02358829 -0.07682609 0.03580456
v -0.02312988 -0.07689887 0.03281760
v -0.02399170 -0.07675731 0.03231394
v -0.02866965 -0.07600164 0.03281468
v -0.02934390 -0.07588171 0.03260099
v -0.02890777 -0.07595515 0.03189790
v -0.02797985 -0.07611417 0.03171092
v -0.02784281 -0.07613760 0.03102618
v -0.02731233 -0.07622313 0.03132200
v -0.02555668 -0.07650727 0.02948123
v -0.02612352 -0.07641565 0.02981919
v -0.02641999 -0.07634878 0.02925670
v -0.02612352 -0.07641565 0.02981919
v -0.02677381 -0.07631075 0.03038007
v -0.02641999 -0.07634878 0.02925670
v -0.02919501 -0.07590943 0.03393375
v -0.02524000 -0.07651817 0.02908653
v -0.02555668 -0.07650727 0.02948123
v -0.02641999 -0.07634878 0.02925670
v -0.02715224 -0.07622492 0.03651469
v -0.02730751 -0.07622176 0.03607982
v -0.02669602 -0.07632350 0.03608644
v -0.02318483 -0.07688701 0.03056704
v -0.02381724 -0.07678902 0.03008431
v -0.02346646 -0.07683438 0.02983111
v -0.02593368 -0.07642805 0.03565526
v -0.02669602 -0.07632350 0.03608644
v -0.02635890 -0.07637709 0.03557854
v -0.02677381 -0.07631075 0.03038007
v -0.02612352 -0.07641565 0.02981919
v -0.02650034 -0.07635426 0.03652471
v -0.02669602 -0.07632350 0.03608644
v -0.02593368 -0.07642805 0.03565526
v -0.02593368 -0.07642805 0.03565526
v -0.02662920 -0.07633239 0.03497076
v -0.02555644 -0.07650774 0.03472030
v -0.02518314 -0.07656794 0.03216922
v -0.02593368 -0.07642805 0.03565526
v -0.02635890 -0.07637709 0.03557854
v -0.02662920 -0.07633239 0.03497076
v -0.02650034 -0.07635426 0.03652471
v -0.02715224 -0.07622492 0.03651469
v -0.02669602 -0.07632350 0.03608644
v -0.02462482 -0.07665860 0.03182965
v -0.02593839 -0.07644575 0.03273063
v -0.02221024 -0.07704079 0.03262543
v -0.02245146 -0.07700836 0.03170859
v -0.02242064 -0.07700359 0.03085678
v -0.02502638 -0.07659381 0.02977693
v -0.02555668 -0.07650727 0.02948123
v -0.02524000 -0.07651817 0.02908653
v -0.02515482 -0.07657301 0.03277289
v -0.02242064 -0.07700359 0.03085678
v -0.02318483 -0.07688701 0.03056704
v -0.02346646 -0.07683438 0.02983111
v -0.02177220 -0.07711052 0.03286486
v -0.02221024 -0.07704079 0.03262543
v -0.02242064 -0.07700359 0.03085678
v -0.02345782 -0.07684797 0.03380399
v -0.02448666 -0.07667917 0.03308326
v -0.02292734 -0.07693332 0.03350836
v -0.02612358 -0.07641577 0.03381896
v -0.02758187 -0.07617902 0.03546929
v -0.02763557 -0.07617080 0.03440809
v -0.02724504 -0.07623457 0.03496152
v -0.02499788 -0.07659798 0.03438079
v -0.02502632 -0.07659387 0.03377676
v -0.02833133 -0.07605612 0.03476029
v -0.02479368 -0.07664406 0.03569841
v -0.02499788 -0.07659798 0.03438079
v -0.02428436 -0.07671195 0.03489071
v -0.02479368 -0.07664406 0.03569841
v -0.02593368 -0.07642805 0.03565526
v -0.02555644 -0.07650774 0.03472030
v -0.02479368 -0.07664406 0.03569841
v -0.02555644 -0.07650774 0.03472030
v -0.02499788 -0.07659798 0.03438079
v -0.02555668 -0.07650750 0.03348106
v -0.02866965 -0.07600164 0.03281468
v -0.02758187 -0.07617902 0.03546929
v -0.02292734 -0.07693332 0.03350836
v -0.02312988 -0.07689887 0.03281760
v -0.02221024 -0.07704079 0.03262543
v -0.02428436 -0.07671195 0.03489071
v -0.02819406 -0.07608026 0.03350836
v -0.02229475 -0.07703119 0.03399121
v -0.02866965 -0.07600164 0.03281468
v -0.02730751 -0.07622176 0.03607982
v -0.02844119 -0.07604223 0.03541928
v -0.02229475 -0.07703119 0.03399121
v -0.02715224 -0.07622492 0.03651469
v -0.02844119 -0.07604223 0.03541928
v -0.02730751 -0.07622176 0.03607982
v -0.02464073 -0.07664209 0.03668439
v -0.02461671 -0.07645452 0.03686302
v -0.02481478 -0.07647120 0.03665626
v -0.02866441 -0.07585966 0.03540301
v -0.02844119 -0.07604223 0.03541928
v -0.02793622 -0.07596874 0.03617179
v -0.02912962 -0.07577860 0.03463470
v -0.02844119 -0.07604223 0.03541928
v -0.02866441 -0.07585966 0.03540301
v -0.02793622 -0.07596874 0.03617179
v -0.02715224 -0.07622492 0.03651469
v -0.02649921 -0.07623189 0.03684794
v -0.02793622 -0.07596874 0.03617179
v -0.02844119 -0.07604223 0.03541928
v -0.02715224 -0.07622492 0.03651469
v -0.02912962 -0.07577860 0.03463470
v -0.02919501 -0.07590943 0.03393375
v -0.02844119 -0.07604223 0.03541928
v -0.02942866 -0.07569491 0.03358334
v -0.02919501 -0.07590943 0.03393375
v -0.02912962 -0.07577860 0.03463470
v -0.02942866 -0.07569491 0.03358334
v -0.02934390 -0.07588171 0.03260099
v -0.02919501 -0.07590943 0.03393375
v -0.02942866 -0.07569491 0.03358334
v -0.02944236 -0.07567667 0.03237861
v -0.02934390 -0.07588171 0.03260099
v -0.02649921 -0.07623189 0.03684794
v -0.02715224 -0.07622492 0.03651469
v -0.02650034 -0.07635426 0.03652471
v -0.02492725 -0.06769555 0.03684651
v -0.02649921 -0.07623189 0.03684794
v -0.02626353 -0.07625192 0.03664743
v -0.02521425 -0.07642412 0.03582352
v -0.02578270 -0.07625502 0.03582149
v -0.02593368 -0.07642805 0.03565526
v -0.02650034 -0.07635426 0.03652471
v -0.02617168 -0.07619845 0.03617990
v -0.02626353 -0.07625192 0.03664743
v -0.02479368 -0.07664406 0.03569841
v -0.02521425 -0.07642412 0.03582352
v -0.02593368 -0.07642805 0.03565526
v -0.02593368 -0.07642805 0.03565526
v -0.02617168 -0.07619845 0.03617990
v -0.02650034 -0.07635426 0.03652471
v -0.02482074 -0.07657712 0.03624230
v -0.02521425 -0.07642412 0.03582352
v -0.02479368 -0.07664406 0.03569841
v -0.02593368 -0.07642805 0.03565526
v -0.02578270 -0.07625502 0.03582149
v -0.02617168 -0.07619845 0.03617990
v -0.02482074 -0.07657712 0.03624230
v -0.02464073 -0.07664209 0.03668439
v -0.02481478 -0.07647120 0.03665626
v -0.02492725 -0.06769555 0.03684651
v -0.02626353 -0.07625192 0.03664743
v -0.02464675 -0.06774103 0.03591793
v -0.02626353 -0.07625192 0.03664743
v -0.02617168 -0.07619845 0.03617990
v -0.02464675 -0.06774103 0.03591793
v -0.02617168 -0.07619845 0.03617990
v -0.02578270 -0.07625502 0.03582149
v -0.02464675 -0.06774103 0.03591793
v -0.02464675 -0.06774103 0.03591793
v -0.02521425 -0.07642412 0.03582352
v -0.02377325 -0.06788253 0.03588598
v -0.02578270 -0.07625502 0.03582149
v -0.02521425 -0.07642412 0.03582352
v -0.02464675 -0.06774103 0.03591793
v -0.02521425 -0.07642412 0.03582352
v -0.02482074 -0.07657712 0.03624230
v -0.02377325 -0.06788253 0.03588598
v -0.02377325 -0.06788253 0.03588598
v -0.02482074 -0.07657712 0.03624230
v -0.02337175 -0.06794756 0.03683459
v -0.02482074 -0.07657712 0.03624230
v -0.02481478 -0.07647120 0.03665626
v -0.02337175 -0.06794756 0.03683459
v -0.02337175 -0.06794756 0.03683459
v -0.02481478 -0.07647120 0.03665626
v -0.02461671 -0.07645452 0.03686302
v -0.02807307 -0.06718611 0.03365725
v -0.02944236 -0.07567667 0.03237861
v -0.02942866 -0.07569491 0.03358334
v -0.02807307 -0.06718611 0.03365725
v -0.02942866 -0.07569491 0.03358334
v -0.02912962 -0.07577860 0.03463470
v -0.02741336 -0.06729292 0.03532606
v -0.02807307 -0.06718611 0.03365725
v -0.02912962 -0.07577860 0.03463470
v -0.02741336 -0.06729292 0.03532606
v -0.02912962 -0.07577860 0.03463470
v -0.02866441 -0.07585966 0.03540301
v -0.02741336 -0.06729292 0.03532606
v -0.02866441 -0.07585966 0.03540301
v -0.02793622 -0.07596874 0.03617179
v -0.02613639 -0.06749975 0.03648257
v -0.02741336 -0.06729292 0.03532606
v -0.02793622 -0.07596874 0.03617179
v -0.02613639 -0.06749975 0.03648257
v -0.02793622 -0.07596874 0.03617179
v -0.02649921 -0.07623189 0.03684794
v -0.02492725 -0.06769555 0.03684651
v -0.02613639 -0.06749975 0.03648257
v -0.02649921 -0.07623189 0.03684794
vn 0.21593296 -0.91341094 0.34504117
vn 0.21593296 -0.91341094 0.34504117
vn 0.21593296 -0.91341094 0.34504117
vn -0.19934702 -0.70658436 -0.67896930
vn -0.19934702 -0.70658436 -0.67896930
vn -0.19934702 -0.70658436 -0.67896930
vn 0.00564054 -0.91551699 -0.40223977
vn 0.00564054 -0.91551699 -0.40223977
vn 0.00564054 -0.91551699 -0.40223977
vn 0.17365873 -0.79401050 -0.58257186
vn 0.17365873 -0.79401050 -0.58257186
vn 0.17365873 -0.79401050 -0.58257186
vn -0.63700183 -0.61785764 -0.46095618
vn -0.63700183 -0.61785764 -0.46095618
vn -0.63700183 -0.61785764 -0.46095618
vn -0.49582070 -0.71716114 -0.48973639
vn -0.49582070 -0.71716114 -0.48973639
vn -0.49582070 -0.71716114 -0.48973639
vn 0.58766331 -0.69536196 -0.41367086
vn 0.58766331 -0.69536196 -0.41367086
vn 0.58766331 -0.69536196 -0.41367086
vn -0.32136716 -0.62505824 -0.71135458
vn -0.32136716 -0.62505824 -0.71135458
vn -0.32136716 -0.62505824 -0.71135458
vn 0.33724043 -0.92801116 -0.15831673
vn 0.33724043 -0.92801116 -0.15831673
vn 0.33724043 -0.92801116 -0.15831673
vn -0.77982268 -0.59276340 -0.20126633
vn -0.77982268 -0.59276340 -0.20126633
vn -0.77982268 -0.59276340 -0.20126633
vn 0.55650950 -0.81525308 -0.16018612
vn 0.55650950 -0.81525308 -0.16018612
vn 0.55650950 -0.81525308 -0.16018612
vn 0.23704697 -0.77754131 -0.58244163
vn 0.23704697 -0.77754131 -0.58244163
vn 0.23704697 -0.77754131 -0.58244163
vn 0.14032770 -0.94393867 -0.29881086
vn 0.14032770 -0.94393867 -0.29881086
vn 0.14032770 -0.94393867 -0.29881086
vn 0.39507208 -0.80485452 -0.44286256
vn 0.39507208 -0.80485452 -0.44286256
vn 0.39507208 -0.80485452 -0.44286256
vn 0.57013152 -0.81930585 0.06072864
vn 0.57013152 -0.81930585 0.06072864
vn 0.57013152 -0.81930585 0.06072864
vn 0.28930379 -0.92478649 0.24713007
vn 0.28930379 -0.92478649 0.24713007
vn 0.28930379 -0.92478649 0.24713007
vn 0.26640594 -0.84883607 0.45662370
vn 0.26640594 -0.84883607 0.45662370
vn 0.26640594 -0.84883607 0.45662370
vn 0.37456291 -0.70393575 0.60347086
vn 0.37456291 -0.70393575 0.60347086
vn 0.37456291 -0.70393575 0.60347086
vn 0.12457451 -0.69259141 0.71049161
vn 0.12457451 -0.69259141 0.71049161
vn 0.12457451 -0.69259141 0.71049161
vn 0.18279542 -0.61246826 0.76906987
vn 0.18279542 -0.61246826 0.76906987
vn 0.18279542 -0.61246826 0.76906987
vn 0.37275197 -0.84676666 0.37952892
vn 0.37275197 -0.84676666 0.37952892
vn 0.37275197 -0.84676666 0.37952892
vn 0.33253953 -0.04552274 0.94198999
vn 0.33273354 -0.04559712 0.94191788
vn 0.33276620 -0.04560964 0.94190574
vn 0.33251771 -0.04551438 0.94199810
vn 0.64525076 -0.11953703 0.75456103
vn 0.64525076 -0.11953703 0.75456103
vn 0.64525076 -0.11953703 0.75456103
vn 0.79125679 -0.12452259 0.59867087
vn 0.79125679 -0.12452259 0.59867087
vn 0.79125679 -0.12452259 0.59867087
vn 0.82020561 -0.12113738 0.55909613
vn 0.82020561 -0.12113738 0.55909613
vn 0.82020561 -0.12113738 0.55909613
vn 0.90495309 -0.15761265 0.39524442
vn 0.90495309 -0.15761265 0.39524442
vn 0.90495309 -0.15761265 0.39524442
vn 0.97300120 -0.16718003 0.15912104
vn 0.97300120 -0.16718003 0.15912104
vn 0.97300120 -0.16718003 0.15912104
vn 0.98957002 -0.14397687 -0.00467234
vn 0.98957002 -0.14397687 -0.00467234
vn 0.98957002 -0.14397687 -0.00467234
vn -0.51575615 0.07528067 -0.85342160
vn -0.51575615 0.07528067 -0.85342160
vn -0.51575615 0.07528067 -0.85342160
vn -0.38485916 0.06669727 -0.92056227
vn -0.38485916 0.06669727 -0.92056227
vn -0.38485916 0.06669727 -0.92056227
vn 0.96185623 -0.17020714 -0.21415443
vn 0.96185623 -0.17020714 -0.21415443
vn 0.96185623 -0.17020714 -0.21415443
vn -0.78740342 0.12739195 -0.60313111
vn -0.78740342 0.12739195 -0.60313111
vn -0.78740342 0.12739195 -0.60313111
vn -0.77209274 0.13009622 -0.62205126
vn -0.77209274 0.13009622 -0.62205126
vn -0.77209274 0.13009622 -0.62205126
vn 0.84488299 -0.14340715 -0.51537086
vn 0.84488299 -0.14340715 -0.51537086
vn 0.84488299 -0.14340715 -0.51537086
vn -0.92213027 0.13078173 -0.36410424
vn -0.92213027 0.13078173 -0.36410424
vn -0.92213027 0.13078173 -0.36410424
vn 0.76252713 -0.10596215 -0.63821972
vn 0.76252713 -0.10596215 -0.63821972
vn 0.76252713 -0.10596215 -0.63821972
vn 0.66588723 -0.11192260 -0.73760933
vn 0.66588723 -0.11192260 -0.73760933
vn 0.66588723 -0.11192260 -0.73760933
vn -0.98176031 0.17088162 -0.08334362
vn -0.98176031 0.17088162 -0.08334362
vn -0.98176031 0.17088162 -0.08334362
vn 0.61753124 -0.10865394 -0.77900545
vn 0.61753124 -0.10865394 -0.77900545
vn 0.61753124 -0.10865394 -0.77900545
vn 0.39987393 -0.07134257 -0.91378941
vn 0.39987393 -0.07134257 -0.91378941
vn 0.39987393 -0.07134257 -0.91378941
vn 0.13461687 -0.02765518 -0.99051173
vn 0.13461687 -0.02765518 -0.99051173
vn 0.13461687 -0.02765518 -0.99051173
vn 0.23567294 -0.02446939 -0.97152432
vn 0.23567294 -0.02446939 -0.97152432
vn 0.23567294 -0.02446939 -0.97152432
vn 0.00637515 -0.01769926 -0.99982303
vn 0.00637515 -0.01769926 -0.99982303
vn 0.00637515 -0.01769926 -0.99982303
vn -0.36427068 0.05937153 -0.92939867
vn -0.36427068 0.05937153 -0.92939867
vn -0.36427068 0.05937153 -0.92939867
vn -0.07720244 -0.39978098 0.91335368
vn -0.07720244 -0.39978098 0.91335368
vn -0.07720244 -0.39978098 0.91335368
vn -0.90277353 -0.18601414 0.38781271
vn -0.90277353 -0.18601414 0.38781271
vn -0.90277353 -0.18601414 0.38781271
vn 0.63355521 -0.60190664 0.48612364
vn 0.63355521 -0.60190664 0.48612364
vn 0.63355521 -0.60190664 0.48612364
vn 0.63611041 -0.54810988 0.54308297
vn 0.63611041 -0.54810988 0.54308297
vn 0.63611041 -0.54810988 0.54308297
vn -0.39786846 -0.59333890 0.69974970
vn -0.39786846 -0.59333890 0.69974970
vn -0.39786846 -0.59333890 0.69974970
vn -0.87911701 0.08539126 0.46889403
vn -0.87911701 0.08539126 0.46889403
vn -0.87911701 0.08539126 0.46889403
vn -0.39795634 0.12859441 0.90834698
vn -0.39795634 0.12859441 0.90834698
vn -0.39795634 0.12859441 0.90834698
vn 0.33756383 -0.12652655 0.93276026
vn 0.33756383 -0.12652655 0.93276026
vn 0.33756383 -0.12652655 0.93276026
vn 0.79175703 -0.07504759 0.60620844
vn 0.79175703 -0.07504759 0.60620844
vn 0.79175703 -0.07504759 0.60620844
vn -0.96656710 -0.25272985 0.04330899
vn -0.96656710 -0.25272985 0.04330899
vn -0.96656710 -0.25272985 0.04330899
vn 0.57224182 -0.64567870 0.50560687
vn 0.57224182 -0.64567870 0.50560687
vn 0.57224182 -0.64567870 0.50560687
vn 0.52822378 -0.35847492 0.76972422
vn 0.52822378 -0.35847492 0.76972422
vn 0.52822378 -0.35847492 0.76972422
vn -0.49445210 -0.40714030 0.76795436
vn -0.49445210 -0.40714030 0.76795436
vn -0.49445210 -0.40714030 0.76795436
vn -0.41392471 -0.49653775 0.76296566
vn -0.41392471 -0.49653775 0.76296566
vn -0.41392471 -0.49653775 0.76296566
vn -0.40450690 0.08633678 0.91045051
vn -0.40450690 0.08633678 0.91045051
vn -0.40450690 0.08633678 0.91045051
vn -0.56534500 0.05507093 0.82301411
vn -0.56534500 0.05507093 0.82301411
vn -0.56534500 0.05507093 0.82301411
vn 0.77344347 -0.18965793 0.60482648
vn 0.77344347 -0.18965793 0.60482648
vn 0.77344347 -0.18965793 0.60482648
vn 0.84902729 -0.15578901 0.50485883
vn 0.84902729 -0.15578901 0.50485883
vn 0.84902729 -0.15578901 0.50485883
vn 0.59683664 -0.75571018 0.26960739
vn 0.59683664 -0.75571018 0.26960739
vn 0.59683664 -0.75571018 0.26960739
vn 0.13766467 -0.30480974 0.94241151
vn 0.13766467 -0.30480974 0.94241151
vn 0.13766467 -0.30480974 0.94241151
vn -0.06922677 -0.48388672 0.87238827
vn -0.06922677 -0.48388672 0.87238827
vn -0.06922677 -0.48388672 0.87238827
vn -0.87954665 -0.31225494 0.35901885
vn -0.87954665 -0.31225494 0.35901885
vn -0.87954665 -0.31225494 0.35901885
vn -0.88087055 -0.40901172 0.23827817
vn -0.88087055 -0.40901172 0.23827817
vn -0.88087055 -0.40901172 0.23827817
vn -0.94060564 0.18361109 0.28556608
vn -0.94060564 0.18361109 0.28556608
vn -0.94060564 0.18361109 0.28556608
vn 0.01181568 -0.00315145 0.99992523
vn 0.01181568 -0.00315145 0.99992523
vn 0.01181568 -0.00315145 0.99992523
vn 0.21736239 -0.10915117 0.96996887
vn 0.21736239 -0.10915117 0.96996887
vn 0.21736239 -0.10915117 0.96996887
vn 0.91867657 -0.08905708 0.38484047
vn 0.91867657 -0.08905708 0.38484047
vn 0.91867657 -0.08905708 0.38484047
vn -0.50202451 -0.27794181 0.81897481
vn -0.50202451 -0.27794181 0.81897481
vn -0.50202451 -0.27794181 0.81897481
vn 0.65218297 -0.69994201 0.29109887
vn 0.65218297 -0.69994201 0.29109887
vn 0.65218297 -0.69994201 0.29109887
vn -0.96052645 -0.27477717 0.04343316
vn -0.96052645 -0.27477717 0.04343316
vn -0.96052645 -0.27477717 0.04343316
vn -0.86101612 -0.45445687 0.22829846
vn -0.86101612 -0.45445687 0.22829846
vn -0.86101612 -0.45445687 0.22829846
vn 0.42199955 -0.39651306 0.81528754
vn 0.42199955 -0.39651306 0.81528754
vn 0.42199955 -0.39651306 0.81528754
vn -0.10234548 -0.58770064 0.80257919
vn -0.10234548 -0.58770064 0.80257919
vn -0.10234548 -0.58770064 0.80257919
vn -0.99157721 0.12400790 -0.03737208
vn -0.99157721 0.12400790 -0.03737208
vn -0.99157721 0.12400790 -0.03737208
vn -0.94295977 0.18940249 0.27377649
vn -0.94295977 0.18940249 0.27377649
vn -0.94295977 0.18940249 0.27377649
vn -0.37561681 0.02013585 0.92655629
vn -0.37561681 0.02013585 0.92655629
vn -0.37561681 0.02013585 0.92655629
vn 0.01263439 0.04979523 0.99867953
vn 0.01263439 0.04979523 0.99867953
vn 0.01263439 0.04979523 0.99867953
vn 0.90028188 -0.21118443 0.38064901
vn 0.90028188 -0.21118443 0.38064901
vn 0.90028188 -0.21118443 0.38064901
vn 0.92404715 -0.19494794 0.32883456
vn 0.92404715 -0.19494794 0.32883456
vn 0.92404715 -0.19494794 0.32883456
vn -0.61437313 -0.13811904 0.77683253
vn -0.61437313 -0.13811904 0.77683253
vn -0.61437313 -0.13811904 0.77683253
vn 0.83936347 -0.54182058 0.04358235
vn 0.83936347 -0.54182058 0.04358235
vn 0.83936347 -0.54182058 0.04358235
vn 0.66603238 -0.68544182 0.29422845
vn 0.66603238 -0.68544182 0.29422845
vn 0.66603238 -0.68544182 0.29422845
vn -0.83143504 -0.51086728 0.21847288
vn -0.83143504 -0.51086728 0.21847288
vn -0.83143504 -0.51086728 0.21847288
vn 0.38674027 -0.42759004 0.81706715
vn 0.38674027 -0.42759004 0.81706715
vn 0.38674027 -0.42759004 0.81706715
vn -0.06616230 -0.59482633 0.80112682
vn -0.06616230 -0.59482633 0.80112682
vn -0.06616230 -0.59482633 0.80112682
vn -0.94486693 0.15785328 0.28689516
vn -0.94486693 0.15785328 0.28689516
vn -0.94486693 0.15785328 0.28689516
vn -0.97148870 0.13298104 0.19627978
vn -0.97148870 0.13298104 0.19627978
vn -0.97148870 0.13298104 0.19627978
vn 0.01913767 -0.04040292 0.99900018
vn 0.01913767 -0.04040292 0.99900018
vn 0.01913767 -0.04040292 0.99900018
vn 0.11865352 -0.02072484 0.99271941
vn 0.11865352 -0.02072484 0.99271941
vn 0.11865352 -0.02072484 0.99271941
vn 0.92474958 -0.09914167 0.36743590
vn 0.92474958 -0.09914167 0.36743590
vn 0.92474958 -0.09914167 0.36743590
vn 0.68985784 -0.65643366 0.30527204
vn 0.68985784 -0.65643366 0.30527204
vn 0.68985784 -0.65643366 0.30527204
vn -0.09306842 -0.50624634 0.85735227
vn -0.09306842 -0.50624634 0.85735227
vn -0.09306842 -0.50624634 0.85735227
vn -0.94254809 -0.23263868 0.23975475
vn -0.94254809 -0.23263868 0.23975475
vn -0.94254809 -0.23263868 0.23975475
vn -0.94403726 -0.20271404 0.26019352
vn -0.94403726 -0.20271404 0.26019352
vn -0.94403726 -0.20271404 0.26019352
vn 0.69287467 -0.50455423 0.51512108
vn 0.69287467 -0.50455423 0.51512108
vn 0.69287467 -0.50455423 0.51512108
vn -0.08622594 -0.50109723 0.86108458
vn -0.08622594 -0.50109723 0.86108458
vn -0.08622594 -0.50109723 0.86108458
vn -0.94091646 0.19999741 0.27327139
vn -0.94091646 0.19999741 0.27327139
vn -0.94091646 0.19999741 0.27327139
vn -0.12062011 -0.03430899 0.99210568
vn -0.12062011 -0.03430899 0.99210568
vn -0.12062011 -0.03430899 0.99210568
vn 0.00200353 -0.01174631 0.99992900
vn 0.00200353 -0.01174631 0.99992900
vn 0.00200353 -0.01174631 0.99992900
vn 0.91810021 -0.09624548 0.38448512
vn 0.91810021 -0.09624548 0.38448512
vn 0.91810021 -0.09624548 0.38448512
vn -0.61433400 -0.13772172 0.77693401
vn -0.61433400 -0.13772172 0.77693401
vn -0.61433400 -0.13772172 0.77693401
vn 0.83926289 -0.54199231 0.04338367
vn 0.83926289 -0.54199231 0.04338367
vn 0.83926289 -0.54199231 0.04338367
vn 0.66604105 -0.68558114 0.29388403
vn 0.66604105 -0.68558114 0.29388403
vn 0.66604105 -0.68558114 0.29388403
vn -0.83150091 -0.51086350 0.21823091
vn -0.83150091 -0.51086350 0.21823091
vn -0.83150091 -0.51086350 0.21823091
vn 0.38651194 -0.42779760 0.81706654
vn 0.38651194 -0.42779760 0.81706654
vn 0.38651194 -0.42779760 0.81706654
vn -0.06572494 -0.59477548 0.80120057
vn -0.06572494 -0.59477548 0.80120057
vn -0.06572494 -0.59477548 0.80120057
vn -0.93374432 0.21486255 0.28627893
vn -0.93374432 0.21486255 0.28627893
vn -0.93374432 0.21486255 0.28627893
vn -0.71566296 0.04844754 0.69676349
vn -0.71566296 0.04844754 0.69676349
vn -0.71566296 0.04844754 0.69676349
vn 0.03151433 0.04236894 0.99860489
vn 0.03151433 0.04236894 0.99860489
vn 0.03151433 0.04236894 0.99860489
vn 0.50922359 -0.12465774 0.85155845
vn 0.50922359 -0.12465774 0.85155845
vn 0.50922359 -0.12465774 0.85155845
vn 0.92406211 -0.10667532 0.36705530
vn 0.92406211 -0.10667532 0.36705530
vn 0.92406211 -0.10667532 0.36705530
vn 0.75856223 -0.56109284 0.33129771
vn 0.75856223 -0.56109284 0.33129771
vn 0.75856223 -0.56109284 0.33129771
vn -0.96051641 -0.27482264 0.04336763
vn -0.96051641 -0.27482264 0.04336763
vn -0.96051641 -0.27482264 0.04336763
vn -0.86103043 -0.45445674 0.22824477
vn -0.86103043 -0.45445674 0.22824477
vn -0.86103043 -0.45445674 0.22824477
vn 0.78445586 -0.33376047 0.52271690
vn 0.78445586 -0.33376047 0.52271690
vn 0.78445586 -0.33376047 0.52271690
vn -0.10503311 -0.60508979 0.78919858
vn -0.10503311 -0.60508979 0.78919858
vn -0.10503311 -0.60508979 0.78919858
vn -0.44149111 -0.24691752 0.86262236
vn -0.44149111 -0.24691752 0.86262236
vn -0.44149111 -0.24691752 0.86262236
vn -0.99650222 0.08352589 -0.00259840
vn -0.99650222 0.08352589 -0.00259840
vn -0.99650222 0.08352589 -0.00259840
vn -0.94750135 0.16444917 0.27422191
vn -0.94750135 0.16444917 0.27422191
vn -0.94750135 0.16444917 0.27422191
vn 0.00614805 0.01068021 0.99992406
vn 0.00614805 0.01068021 0.99992406
vn 0.00614805 0.01068021 0.99992406
vn 0.06599281 -0.01883666 0.99764229
vn 0.06599281 -0.01883666 0.99764229
vn 0.06599281 -0.01883666 0.99764229
vn 0.90773301 -0.17246209 0.38246255
vn 0.90773301 -0.17246209 0.38246255
vn 0.90773301 -0.17246209 0.38246255
vn 0.94492064 -0.14880119 0.29151877
vn 0.94492064 -0.14880119 0.29151877
vn 0.94492064 -0.14880119 0.29151877
vn -0.61524239 -0.13904481 0.77597896
vn -0.61524239 -0.13904481 0.77597896
vn -0.61524239 -0.13904481 0.77597896
vn -0.01805588 -0.62271824 0.78223780
vn -0.01805588 -0.62271824 0.78223780
vn -0.01805588 -0.62271824 0.78223780
vn -0.82779501 -0.47986151 0.29066881
vn -0.82779501 -0.47986151 0.29066881
vn -0.82779501 -0.47986151 0.29066881
vn 0.42157480 -0.41793840 0.80473734
vn 0.42157480 -0.41793840 0.80473734
vn 0.42157480 -0.41793840 0.80473734
vn 0.98235699 -0.18701538 0.00000000
vn 0.98235699 -0.18701538 0.00000000
vn 0.98235699 -0.18701538 0.00000000
vn 0.02945687 0.02003181 0.99936531
vn 0.02945687 0.02003181 0.99936531
vn 0.02945687 0.02003181 0.99936531
vn 0.14133178 -0.05049211 0.98867380
vn 0.14133178 -0.05049211 0.98867380
vn 0.14133178 -0.05049211 0.98867380
vn -0.89450506 0.19384349 0.40284662
vn -0.89450506 0.19384349 0.40284662
vn -0.89450506 0.19384349 0.40284662
vn 0.66692627 -0.72839093 0.15702234
vn 0.66692627 -0.72839093 0.15702234
vn 0.66692627 -0.72839093 0.15702234
vn -0.95658991 -0.28823642 0.04307552
vn -0.95658991 -0.28823642 0.04307552
vn -0.95658991 -0.28823642 0.04307552
vn 0.42176060 -0.39673820 0.81530166
vn 0.42176060 -0.39673820 0.81530166
vn 0.42176060 -0.39673820 0.81530166
vn -0.20332035 -0.60421935 0.77044131
vn -0.20332035 -0.60421935 0.77044131
vn -0.20332035 -0.60421935 0.77044131
vn -0.50089895 -0.31240578 0.80715727
vn -0.50089895 -0.31240578 0.80715727
vn -0.50089895 -0.31240578 0.80715727
vn 0.98175528 -0.09315218 0.16576863
vn 0.98175528 -0.09315218 0.16576863
vn 0.98175528 -0.09315218 0.16576863
vn 0.83516010 -0.17410246 0.52172400
vn 0.83516010 -0.17410246 0.52172400
vn 0.83516010 -0.17410246 0.52172400
vn -0.13000161 0.07020499 0.98902520
vn -0.13000161 0.07020499 0.98902520
vn -0.13000161 0.07020499 0.98902520
vn -0.31603985 0.04275116 0.94778223
vn -0.31603985 0.04275116 0.94778223
vn -0.31603985 0.04275116 0.94778223
vn -0.49038640 -0.41368526 0.76706303
vn -0.49038640 -0.41368526 0.76706303
vn -0.49038640 -0.41368526 0.76706303
vn -0.43450433 -0.47849620 0.76305136
vn -0.43450433 -0.47849620 0.76305136
vn -0.43450433 -0.47849620 0.76305136
vn -0.96819886 -0.24634026 0.04367428
vn -0.96819886 -0.24634026 0.04367428
vn -0.96819886 -0.24634026 0.04367428
vn 0.54022474 -0.68555301 0.48803104
vn 0.54022474 -0.68555301 0.48803104
vn 0.54022474 -0.68555301 0.48803104
vn 0.42455776 -0.40928304 0.80761259
vn 0.42455776 -0.40928304 0.80761259
vn 0.42455776 -0.40928304 0.80761259
vn 0.78106630 -0.10362380 0.61579018
vn 0.78106630 -0.10362380 0.61579018
vn 0.78106630 -0.10362380 0.61579018
vn 0.55464487 -0.14158507 0.81995289
vn 0.55464487 -0.14158507 0.81995289
vn 0.55464487 -0.14158507 0.81995289
vn -0.40602519 0.13171074 0.90432064
vn -0.40602519 0.13171074 0.90432064
vn -0.40602519 0.13171074 0.90432064
vn -0.77932225 0.07617783 0.62197570
vn -0.77932225 0.07617783 0.62197570
vn -0.77932225 0.07617783 0.62197570
vn -0.96816604 -0.24646341 0.04370696
vn -0.96816604 -0.24646341 0.04370696
vn -0.96816604 -0.24646341 0.04370696
vn 0.54000703 -0.68550993 0.48833242
vn 0.54000703 -0.68550993 0.48833242
vn 0.54000703 -0.68550993 0.48833242
vn 0.42448387 -0.40940684 0.80758868
vn 0.42448387 -0.40940684 0.80758868
vn 0.42448387 -0.40940684 0.80758868
vn -0.49022539 -0.41382340 0.76709143
vn -0.49022539 -0.41382340 0.76709143
vn -0.49022539 -0.41382340 0.76709143
vn -0.43473197 -0.47821841 0.76309584
vn -0.43473197 -0.47821841 0.76309584
vn -0.43473197 -0.47821841 0.76309584
vn -0.40872511 0.11817981 0.90497365
vn -0.40872511 0.11817981 0.90497365
vn -0.40872511 0.11817981 0.90497365
vn -0.03352277 -0.05714800 0.99780275
vn -0.03352277 -0.05714800 0.99780275
vn -0.03352277 -0.05714800 0.99780275
vn 0.78445807 -0.07243700 0.61593702
vn 0.78445807 -0.07243700 0.61593702
vn 0.78445807 -0.07243700 0.61593702
vn 0.96971846 -0.22429440 -0.09663398
vn 0.96971846 -0.22429440 -0.09663398
vn 0.96971846 -0.22429440 -0.09663398
vn 0.91888461 -0.14370177 -0.36742465
vn 0.91888461 -0.14370177 -0.36742465
vn 0.91888461 -0.14370177 -0.36742465
vn 0.02791007 0.01999803 -0.99941038
vn 0.02791007 0.01999803 -0.99941038
vn 0.02791007 0.01999803 -0.99941038
vn -0.17355759 -0.00578476 -0.98480673
vn -0.17355759 -0.00578476 -0.98480673
vn -0.17355759 -0.00578476 -0.98480673
vn -0.93944052 0.18711590 -0.28712217
vn -0.93944052 0.18711590 -0.28712217
vn -0.93944052 0.18711590 -0.28712217
vn -0.99265456 0.12088633 -0.00484003
vn -0.99265456 0.12088633 -0.00484003
vn -0.99265456 0.12088633 -0.00484003
vn 0.38667459 -0.42767151 -0.81705559
vn 0.38667459 -0.42767151 -0.81705559
vn 0.38667459 -0.42767151 -0.81705559
vn -0.84889445 -0.47799173 -0.22561500
vn -0.84889445 -0.47799173 -0.22561500
vn -0.84889445 -0.47799173 -0.22561500
vn 0.83936981 -0.54178881 -0.04385441
vn 0.83936981 -0.54178881 -0.04385441
vn 0.83936981 -0.54178881 -0.04385441
vn 0.66588645 -0.68553237 -0.29434776
vn 0.66588645 -0.68553237 -0.29434776
vn 0.66588645 -0.68553237 -0.29434776
vn -0.52569416 -0.24077134 -0.81588897
vn -0.52569416 -0.24077134 -0.81588897
vn -0.52569416 -0.24077134 -0.81588897
vn -0.06610150 -0.59480982 -0.80114410
vn -0.06610150 -0.59480982 -0.80114410
vn -0.06610150 -0.59480982 -0.80114410
vn -0.71493092 0.04881837 -0.69748875
vn -0.71493092 0.04881837 -0.69748875
vn -0.71493092 0.04881837 -0.69748875
vn -0.93809165 0.19409615 -0.28689849
vn -0.93809165 0.19409615 -0.28689849
vn -0.93809165 0.19409615 -0.28689849
vn 0.03524244 0.07469132 -0.99658375
vn 0.03524244 0.07469132 -0.99658375
vn 0.03524244 0.07469132 -0.99658375
vn 0.81241524 -0.19683959 -0.54884940
vn 0.81241524 -0.19683959 -0.54884940
vn 0.81241524 -0.19683959 -0.54884940
vn 0.91673655 -0.15840853 -0.36674356
vn 0.91673655 -0.15840853 -0.36674356
vn 0.91673655 -0.15840853 -0.36674356
vn -0.84905785 -0.47775327 -0.22550516
vn -0.84905785 -0.47775327 -0.22550516
vn -0.84905785 -0.47775327 -0.22550516
vn 0.83928474 -0.54192998 -0.04373800
vn 0.83928474 -0.54192998 -0.04373800
vn 0.83928474 -0.54192998 -0.04373800
vn 0.66621453 -0.68536520 -0.29399445
vn 0.66621453 -0.68536520 -0.29399445
vn 0.66621453 -0.68536520 -0.29399445
vn -0.52579800 -0.24080890 -0.81581097
vn -0.52579800 -0.24080890 -0.81581097
vn -0.52579800 -0.24080890 -0.81581097
vn -0.06657076 -0.59486243 -0.80106618
vn -0.06657076 -0.59486243 -0.80106618
vn -0.06657076 -0.59486243 -0.80106618
vn 0.38705118 -0.42743006 -0.81700363
vn 0.38705118 -0.42743006 -0.81700363
vn 0.38705118 -0.42743006 -0.81700363
vn -0.95448549 0.15707619 -0.25354393
vn -0.95448549 0.15707619 -0.25354393
vn -0.95448549 0.15707619 -0.25354393
vn -0.97238941 0.13385782 -0.19115680
vn -0.97238941 0.13385782 -0.19115680
vn -0.97238941 0.13385782 -0.19115680
vn 0.13447450 0.02905386 -0.99049103
vn 0.13447450 0.02905386 -0.99049103
vn 0.13447450 0.02905386 -0.99049103
vn 0.43805406 -0.13866123 -0.88819013
vn 0.43805406 -0.13866123 -0.88819013
vn 0.43805406 -0.13866123 -0.88819013
vn -0.86277519 -0.48113138 -0.15534338
vn -0.86277519 -0.48113138 -0.15534338
vn -0.86277519 -0.48113138 -0.15534338
vn -0.02505655 -0.62459503 -0.78054674
vn -0.02505655 -0.62459503 -0.78054674
vn -0.02505655 -0.62459503 -0.78054674
vn 0.81462098 -0.57842020 -0.04269343
vn 0.81462098 -0.57842020 -0.04269343
vn 0.81462098 -0.57842020 -0.04269343
vn -0.53213667 -0.24745966 -0.80968776
vn -0.53213667 -0.24745966 -0.80968776
vn -0.53213667 -0.24745966 -0.80968776
vn 0.38001263 -0.43484324 -0.81639559
vn 0.38001263 -0.43484324 -0.81639559
vn 0.38001263 -0.43484324 -0.81639559
vn -0.98965601 0.10018801 -0.10268081
vn -0.98965601 0.10018801 -0.10268081
vn -0.98965601 0.10018801 -0.10268081
vn -0.80784488 0.15374451 -0.56898969
vn -0.80784488 0.15374451 -0.56898969
vn -0.80784488 0.15374451 -0.56898969
vn -0.07980693 -0.02090325 -0.99659114
vn -0.07980693 -0.02090325 -0.99659114
vn -0.07980693 -0.02090325 -0.99659114
vn 0.08093658 -0.00071131 -0.99671900
vn 0.08093658 -0.00071131 -0.99671900
vn 0.08093658 -0.00071131 -0.99671900
vn 0.97975546 -0.13136005 -0.15107541
vn 0.97975546 -0.13136005 -0.15107541
vn 0.97975546 -0.13136005 -0.15107541
vn 0.79404078 -0.60638817 -0.04233948
vn 0.79404078 -0.60638817 -0.04233948
vn 0.79404078 -0.60638817 -0.04233948
vn 0.69035669 -0.70416390 -0.16601455
vn 0.69035669 -0.70416390 -0.16601455
vn 0.69035669 -0.70416390 -0.16601455
vn -0.83794211 -0.15459704 -0.52340498
vn -0.83794211 -0.15459704 -0.52340498
vn -0.83794211 -0.15459704 -0.52340498
vn -0.83017073 -0.12883763 -0.54241812
vn -0.83017073 -0.12883763 -0.54241812
vn -0.83017073 -0.12883763 -0.54241812
vn -0.03330150 -0.59306037 -0.80446902
vn -0.03330150 -0.59306037 -0.80446902
vn -0.03330150 -0.59306037 -0.80446902
vn 0.33901117 -0.38104544 -0.86016033
vn 0.33901117 -0.38104544 -0.86016033
vn 0.33901117 -0.38104544 -0.86016033
vn 0.78054639 -0.08662286 -0.61906689
vn 0.78054639 -0.08662286 -0.61906689
vn 0.78054639 -0.08662286 -0.61906689
vn 0.30203280 -0.13821977 -0.94322398
vn 0.30203280 -0.13821977 -0.94322398
vn 0.30203280 -0.13821977 -0.94322398
vn -0.40535175 0.14998730 -0.90177257
vn -0.40535175 0.14998730 -0.90177257
vn -0.40535175 0.14998730 -0.90177257
vn 0.49154483 -0.37961016 -0.78376004
vn 0.49154483 -0.37961016 -0.78376004
vn 0.49154483 -0.37961016 -0.78376004
vn 0.55577435 -0.67448841 -0.48598381
vn 0.55577435 -0.67448841 -0.48598381
vn 0.55577435 -0.67448841 -0.48598381
vn -0.51694206 -0.37606914 -0.76898824
vn -0.51694206 -0.37606914 -0.76898824
vn -0.51694206 -0.37606914 -0.76898824
vn -0.44827641 -0.45963516 -0.76667058
vn -0.44827641 -0.45963516 -0.76667058
vn -0.44827641 -0.45963516 -0.76667058
vn 0.77963024 -0.10352231 -0.61762434
vn 0.77963024 -0.10352231 -0.61762434
vn 0.77963024 -0.10352231 -0.61762434
vn 0.90634011 -0.19194179 -0.37643853
vn 0.90634011 -0.19194179 -0.37643853
vn 0.90634011 -0.19194179 -0.37643853
vn -0.42640699 0.03112152 -0.90399587
vn -0.42640699 0.03112152 -0.90399587
vn -0.42640699 0.03112152 -0.90399587
vn -0.44831778 0.04564458 -0.89270809
vn -0.44831778 0.04564458 -0.89270809
vn -0.44831778 0.04564458 -0.89270809
vn 0.54738719 -0.68547864 -0.48008988
vn 0.54738719 -0.68547864 -0.48008988
vn 0.54738719 -0.68547864 -0.48008988
vn -0.84187431 -0.02052244 -0.53928330
vn -0.84187431 -0.02052244 -0.53928330
vn -0.84187431 -0.02052244 -0.53928330
vn -0.43414681 -0.56378871 -0.70260859
vn -0.43414681 -0.56378871 -0.70260859
vn -0.43414681 -0.56378871 -0.70260859
vn 0.38528465 -0.32422499 -0.86396406
vn 0.38528465 -0.32422499 -0.86396406
vn 0.38528465 -0.32422499 -0.86396406
vn 0.78005369 -0.09320849 -0.61873130
vn 0.78005369 -0.09320849 -0.61873130
vn 0.78005369 -0.09320849 -0.61873130
vn 0.96544306 -0.21841759 -0.14217406
vn 0.96544306 -0.21841759 -0.14217406
vn 0.96544306 -0.21841759 -0.14217406
vn 0.07421772 -0.05861869 -0.99551774
vn 0.07421772 -0.05861869 -0.99551774
vn 0.07421772 -0.05861869 -0.99551774
vn -0.40809386 0.13561805 -0.90281069
vn -0.40809386 0.13561805 -0.90281069
vn -0.40809386 0.13561805 -0.90281069
vn -0.97705129 0.09549661 -0.19039743
vn -0.97705129 0.09549661 -0.19039743
vn -0.97705129 0.09549661 -0.19039743
vn 0.56429327 -0.66330228 -0.49153147
vn 0.56429327 -0.66330228 -0.49153147
vn 0.56429327 -0.66330228 -0.49153147
vn -0.23487400 -0.25011409 -0.93929609
vn -0.23487400 -0.25011409 -0.93929609
vn -0.23487400 -0.25011409 -0.93929609
vn 0.75952460 -0.52927209 -0.37814474
vn 0.75952460 -0.52927209 -0.37814474
vn 0.75952460 -0.52927209 -0.37814474
vn -0.44285758 -0.51042048 -0.73712149
vn -0.44285758 -0.51042048 -0.73712149
vn -0.44285758 -0.51042048 -0.73712149
vn 0.78049659 -0.09704637 -0.61758164
vn 0.78049659 -0.09704637 -0.61758164
vn 0.78049659 -0.09704637 -0.61758164
vn 0.94717957 -0.21390469 -0.23894695
vn 0.94717957 -0.21390469 -0.23894695
vn 0.94717957 -0.21390469 -0.23894695
vn -0.16809400 -0.01407931 -0.98567042
vn -0.16809400 -0.01407931 -0.98567042
vn -0.16809400 -0.01407931 -0.98567042
vn -0.41246926 0.11062919 -0.90422911
vn -0.41246926 0.11062919 -0.90422911
vn -0.41246926 0.11062919 -0.90422911
vn 0.54747075 -0.68540359 -0.48010175
vn 0.54747075 -0.68540359 -0.48010175
vn 0.54747075 -0.68540359 -0.48010175
vn -0.84190106 -0.02025980 -0.53925147
vn -0.84190106 -0.02025980 -0.53925147
vn -0.84190106 -0.02025980 -0.53925147
vn -0.43405297 -0.56362782 -0.70279563
vn -0.43405297 -0.56362782 -0.70279563
vn -0.43405297 -0.56362782 -0.70279563
vn 0.38533868 -0.32406822 -0.86399878
vn 0.38533868 -0.32406822 -0.86399878
vn 0.38533868 -0.32406822 -0.86399878
vn 0.78328673 -0.06088291 -0.61867210
vn 0.78328673 -0.06088291 -0.61867210
vn 0.78328673 -0.06088291 -0.61867210
vn 0.02849519 -0.08623799 -0.99586698
vn 0.02849519 -0.08623799 -0.99586698
vn 0.02849519 -0.08623799 -0.99586698
vn -0.41168165 0.11842975 -0.90359981
vn -0.41168165 0.11842975 -0.90359981
vn -0.41168165 0.11842975 -0.90359981
vn 0.54602429 -0.68747427 -0.47878659
vn 0.54602429 -0.68747427 -0.47878659
vn 0.54602429 -0.68747427 -0.47878659
vn 0.84384835 -0.53479137 -0.04379677
vn 0.84384835 -0.53479137 -0.04379677
vn 0.84384835 -0.53479137 -0.04379677
vn -0.51675904 -0.37602346 -0.76913357
vn -0.51675904 -0.37602346 -0.76913357
vn -0.51675904 -0.37602346 -0.76913357
vn -0.44821838 -0.45941508 -0.76683641
vn -0.44821838 -0.45941508 -0.76683641
vn -0.44821838 -0.45941508 -0.76683641
vn 0.39226374 -0.41026001 -0.82329575
vn 0.39226374 -0.41026001 -0.82329575
vn 0.39226374 -0.41026001 -0.82329575
vn 0.76604209 -0.18985082 -0.61411414
vn 0.76604209 -0.18985082 -0.61411414
vn 0.76604209 -0.18985082 -0.61411414
vn 0.84952154 -0.15186778 -0.50522206
vn 0.84952154 -0.15186778 -0.50522206
vn 0.84952154 -0.15186778 -0.50522206
vn -0.41697487 0.08479466 -0.90495404
vn -0.41697487 0.08479466 -0.90495404
vn -0.41697487 0.08479466 -0.90495404
vn -0.40874117 0.08629500 -0.90856141
vn -0.40874117 0.08629500 -0.90856141
vn -0.40874117 0.08629500 -0.90856141
vn -0.98779983 0.12927334 0.08683256
vn -0.98779983 0.12927334 0.08683256
vn -0.98779983 0.12927334 0.08683256
vn 0.56308757 -0.66446365 -0.49134554
vn 0.56308757 -0.66446365 -0.49134554
vn 0.56308757 -0.66446365 -0.49134554
vn -0.04912790 -0.38116468 -0.92320092
vn -0.04912790 -0.38116468 -0.92320092
vn -0.04912790 -0.38116468 -0.92320092
vn 0.89092991 -0.37873357 -0.25060881
vn 0.89092991 -0.37873357 -0.25060881
vn 0.89092991 -0.37873357 -0.25060881
vn -0.82390546 -0.21510440 -0.52431850
vn -0.82390546 -0.21510440 -0.52431850
vn -0.82390546 -0.21510440 -0.52431850
vn -0.43447651 -0.55962198 -0.70572898
vn -0.43447651 -0.55962198 -0.70572898
vn -0.43447651 -0.55962198 -0.70572898
vn 0.91872757 -0.08911920 -0.38470432
vn 0.91872757 -0.08911920 -0.38470432
vn 0.91872757 -0.08911920 -0.38470432
vn 0.00941932 0.03628836 -0.99929697
vn 0.00941932 0.03628836 -0.99929697
vn 0.00941932 0.03628836 -0.99929697
vn 0.38285086 -0.11309814 -0.91686097
vn 0.38285086 -0.11309814 -0.91686097
vn 0.38285086 -0.11309814 -0.91686097
vn -0.79937902 0.08272713 -0.59510453
vn -0.79937902 0.08272713 -0.59510453
vn -0.79937902 0.08272713 -0.59510453
vn -0.94638611 0.20523796 -0.24946083
vn -0.94638611 0.20523796 -0.24946083
vn -0.94638611 0.20523796 -0.24946083
vn 0.77338786 -0.34249880 -0.53344708
vn 0.77338786 -0.34249880 -0.53344708
vn 0.77338786 -0.34249880 -0.53344708
vn -0.85142375 -0.47655730 -0.21902223
vn -0.85142375 -0.47655730 -0.21902223
vn -0.85142375 -0.47655730 -0.21902223
vn 0.74709414 -0.57869870 -0.32704458
vn 0.74709414 -0.57869870 -0.32704458
vn 0.74709414 -0.57869870 -0.32704458
vn -0.46883627 -0.20797846 -0.85845065
vn -0.46883627 -0.20797846 -0.85845065
vn -0.46883627 -0.20797846 -0.85845065
vn -0.11282021 -0.60489287 -0.78827420
vn -0.11282021 -0.60489287 -0.78827420
vn -0.11282021 -0.60489287 -0.78827420
vn 0.92037471 -0.16185919 -0.35596629
vn 0.92037471 -0.16185919 -0.35596629
vn 0.92037471 -0.16185919 -0.35596629
vn 0.84033510 -0.19881616 -0.50429064
vn 0.84033510 -0.19881616 -0.50429064
vn 0.84033510 -0.19881616 -0.50429064
vn 0.03954023 0.04969409 -0.99798150
vn 0.03954023 0.04969409 -0.99798150
vn 0.03954023 0.04969409 -0.99798150
vn -0.52817785 0.02239873 -0.84883830
vn -0.52817785 0.02239873 -0.84883830
vn -0.52817785 0.02239873 -0.84883830
vn -0.93991572 0.21768726 -0.26300323
vn -0.93991572 0.21768726 -0.26300323
vn -0.93991572 0.21768726 -0.26300323
vn -0.86101578 -0.45689102 -0.22338851
vn -0.86101578 -0.45689102 -0.22338851
vn -0.86101578 -0.45689102 -0.22338851
vn -0.07480249 -0.50549103 -0.85958327
vn -0.07480249 -0.50549103 -0.85958327
vn -0.07480249 -0.50549103 -0.85958327
vn 0.74650342 -0.55033327 -0.37398655
vn 0.74650342 -0.55033327 -0.37398655
vn 0.74650342 -0.55033327 -0.37398655
vn 0.73549506 -0.60061618 -0.31353981
vn 0.73549506 -0.60061618 -0.31353981
vn 0.73549506 -0.60061618 -0.31353981
vn -0.81659812 -0.26184949 -0.51439514
vn -0.81659812 -0.26184949 -0.51439514
vn -0.81659812 -0.26184949 -0.51439514
vn -0.05016905 -0.54061622 -0.83977209
vn -0.05016905 -0.54061622 -0.83977209
vn -0.05016905 -0.54061622 -0.83977209
vn -0.16154367 -0.98686556 0.00004631
vn -0.15959362 -0.98718267 0.00050461
vn -0.15714187 -0.98757603 -0.00011655
vn -0.15984823 -0.98714154 -0.00033771
vn -0.16038834 -0.98705347 -0.00101284
vn -0.16057461 -0.98702368 -0.00021488
vn -0.21291803 -0.97098027 0.10891845
vn -0.21291803 -0.97098027 0.10891845
vn -0.21291803 -0.97098027 0.10891845
vn -0.16007950 -0.98710412 -0.00011002
vn -0.16031861 -0.98706532 0.00005811
vn -0.15980670 -0.98714833 -0.00003426
vn -0.15965916 -0.98717220 0.00004981
vn -0.16121659 -0.98691900 -0.00033064
vn -0.15990556 -0.98713224 0.00038312
vn -0.20324995 -0.97120796 -0.12427616
vn -0.20324995 -0.97120796 -0.12427616
vn -0.20324995 -0.97120796 -0.12427616
vn -0.03267797 -0.99794434 0.05512929
vn -0.03267797 -0.99794434 0.05512929
vn -0.03267797 -0.99794434 0.05512929
vn -0.16183326 -0.98681804 0.00039826
vn -0.18856990 -0.98088823 -0.04795496
vn -0.18856990 -0.98088823 -0.04795496
vn -0.18856990 -0.98088823 -0.04795496
vn -0.15955151 -0.98718961 0.00000934
vn -0.16525882 -0.98625019 0.00029858
vn -0.16525882 -0.98625019 0.00029858
vn -0.16525882 -0.98625019 0.00029858
vn -0.16401139 -0.98645464 0.00273813
vn -0.15958158 -0.98718420 -0.00103557
vn -0.16206418 -0.98677826 -0.00196765
vn -0.15690040 -0.98760003 -0.00533261
vn -0.15689251 -0.98760130 -0.00533127
vn -0.15689549 -0.98760082 -0.00533178
vn -0.17051323 -0.98535415 -0.00156033
vn -0.17073197 -0.98531750 -0.00011172
vn -0.16973643 -0.98548949 -0.00006468
vn -0.20806939 -0.97811320 0.00130525
vn -0.20806939 -0.97811320 0.00130525
vn -0.20806939 -0.97811320 0.00130525
vn -0.22788021 -0.97361700 0.01185543
vn -0.22788021 -0.97361700 0.01185543
vn -0.22788021 -0.97361700 0.01185543
vn -0.16061298 -0.98701720 0.00071229
vn -0.16032296 -0.98706454 0.00036494
vn -0.16061292 -0.98701718 0.00076023
vn -0.24971134 -0.96037517 -0.12378927
vn -0.24971134 -0.96037517 -0.12378927
vn -0.24971134 -0.96037517 -0.12378927
vn -0.08856775 -0.99274200 -0.08135764
vn -0.08856775 -0.99274200 -0.08135764
vn -0.08856775 -0.99274200 -0.08135764
vn -0.16386140 -0.98607272 -0.02846092
vn -0.16386140 -0.98607272 -0.02846092
vn -0.16386140 -0.98607272 -0.02846092
vn -0.14869730 -0.98886640 -0.00568830
vn -0.14869730 -0.98886640 -0.00568830
vn -0.14869730 -0.98886640 -0.00568830
vn -0.16065922 -0.98700012 -0.00440126
vn -0.16077785 -0.98698779 0.00236196
vn -0.15972122 -0.98716194 0.00066025
vn -0.16228515 -0.98674353 0.00085356
vn -0.25375553 -0.95011771 -0.18134075
vn -0.25375553 -0.95011771 -0.18134075
vn -0.25375553 -0.95011771 -0.18134075
vn -0.15567271 -0.98774562 -0.01116206
vn -0.15567271 -0.98774562 -0.01116206
vn -0.15567271 -0.98774562 -0.01116206
vn -0.23637111 -0.97055500 -0.04638621
vn -0.23637111 -0.97055500 -0.04638621
vn -0.23637111 -0.97055500 -0.04638621
vn -0.15258656 -0.98818224 -0.01460119
vn -0.15258656 -0.98818224 -0.01460119
vn -0.15258656 -0.98818224 -0.01460119
vn -0.02723346 -0.99904611 0.03413505
vn -0.02723346 -0.99904611 0.03413505
vn -0.02723346 -0.99904611 0.03413505
vn -0.27752433 -0.95801073 -0.07208119
vn -0.27752433 -0.95801073 -0.07208119
vn -0.27752433 -0.95801073 -0.07208119
vn -0.16601909 -0.98609416 -0.00748075
vn -0.16601909 -0.98609416 -0.00748075
vn -0.16601909 -0.98609416 -0.00748075
vn -0.12429421 -0.99060820 0.05697662
vn -0.12429421 -0.99060820 0.05697662
vn -0.12429421 -0.99060820 0.05697662
vn -0.15966217 -0.98717171 0.00000932
vn -0.12535305 -0.99035235 0.05906634
vn -0.12535305 -0.99035235 0.05906634
vn -0.12535305 -0.99035235 0.05906634
vn -0.15933219 -0.98722500 0.00021285
vn -0.22801345 -0.97358007 -0.01231719
vn -0.22801345 -0.97358007 -0.01231719
vn -0.22801345 -0.97358007 -0.01231719
vn -0.18354198 -0.97995595 -0.07745117
vn -0.18354198 -0.97995595 -0.07745117
vn -0.18354198 -0.97995595 -0.07745117
vn -0.14314384 -0.98812731 0.05580558
vn -0.14314384 -0.98812731 0.05580558
vn -0.14314384 -0.98812731 0.05580558
vn -0.16116569 -0.98689594 -0.00787577
vn -0.16116569 -0.98689594 -0.00787577
vn -0.16116569 -0.98689594 -0.00787577
vn -0.16393320 -0.98647060 0.00129039
vn -0.16393320 -0.98647060 0.00129039
vn -0.16135330 -0.98689617 -0.00103486
vn -0.15980433 -0.98714841 0.00076721
vn -0.17432938 -0.98468408 -0.00255639
vn -0.17418855 -0.98470770 -0.00301399
vn -0.17362752 -0.98479952 -0.00483572
vn -0.16056186 -0.98702558 0.00062110
vn -0.16010999 -0.98709765 0.00173528
vn -0.16035015 -0.98706008 0.00048336
vn -0.17415502 -0.98439488 -0.02523377
vn -0.17415502 -0.98439488 -0.02523377
vn -0.17415502 -0.98439488 -0.02523377
vn -0.17843364 -0.98368556 -0.02289432
vn -0.17843364 -0.98368556 -0.02289432
vn -0.17843364 -0.98368556 -0.02289432
vn -0.17482487 -0.98459909 -0.00094530
vn -0.15516037 -0.98308193 -0.09734053
vn -0.15516037 -0.98308193 -0.09734053
vn -0.15516037 -0.98308193 -0.09734053
vn -0.16445723 -0.98503641 0.05154707
vn -0.16445723 -0.98503641 0.05154707
vn -0.16445723 -0.98503641 0.05154707
vn -0.14034625 -0.98995499 -0.01708923
vn -0.14034625 -0.98995499 -0.01708923
vn -0.14034625 -0.98995499 -0.01708923
vn -0.12305405 -0.99213353 0.02299486
vn -0.12305405 -0.99213353 0.02299486
vn -0.12305405 -0.99213353 0.02299486
vn -0.16001957 -0.98711383 0.00016339
vn -0.15995817 -0.98712344 -0.00083065
vn -0.13978859 -0.99015612 -0.00707187
vn -0.13978859 -0.99015612 -0.00707187
vn -0.13978859 -0.99015612 -0.00707187
vn -0.15649761 -0.98745460 0.02102184
vn -0.15649761 -0.98745460 0.02102184
vn -0.15649761 -0.98745460 0.02102184
vn -0.15980235 -0.98714903 -0.00011099
vn -0.11508019 -0.99311579 -0.02185360
vn -0.11508019 -0.99311579 -0.02185360
vn -0.11508019 -0.99311579 -0.02185360
vn -0.19484020 -0.98066662 0.01817373
vn -0.19484020 -0.98066662 0.01817373
vn -0.19484020 -0.98066662 0.01817373
vn -0.15872401 -0.98732257 0.00091251
vn -0.15991000 -0.98713159 0.00008176
vn -0.09899891 -0.99504545 -0.00915229
vn -0.09899891 -0.99504545 -0.00915229
vn -0.09899891 -0.99504545 -0.00915229
vn -0.12215095 -0.98999271 -0.07066525
vn -0.12215095 -0.98999271 -0.07066525
vn -0.12215095 -0.98999271 -0.07066525
vn -0.15950756 -0.98719667 -0.00028150
vn -0.14515537 -0.98929209 -0.01520144
vn -0.14515537 -0.98929209 -0.01520144
vn -0.14515537 -0.98929209 -0.01520144
vn -0.15585187 -0.98777717 -0.00254066
vn -0.15593839 -0.98776392 -0.00237851
vn -0.15602566 -0.98775052 -0.00221494
vn -0.16007898 -0.98710334 -0.00130981
vn -0.15901033 -0.98727457 -0.00215279
vn -0.16008214 -0.98710106 -0.00228249
vn -0.16007086 -0.98710549 0.00026130
vn -0.15927369 -0.98723379 0.00115322
vn -0.16031999 -0.98706500 0.00044126
vn -0.15920051 -0.98724526 -0.00141542
vn -0.15992924 -0.98712741 0.00145407
vn -0.15948955 -0.98719952 -0.00044116
vn -0.16234884 -0.98673326 0.00057405
vn -0.14979924 -0.98865116 -0.01136129
vn -0.14979924 -0.98865116 -0.01136129
vn -0.14979924 -0.98865116 -0.01136129
vn -0.18647771 -0.98242245 0.00849647
vn -0.18647771 -0.98242245 0.00849647
vn -0.18647771 -0.98242245 0.00849647
vn -0.16478937 -0.98628812 -0.00895554
vn -0.16478937 -0.98628812 -0.00895554
vn -0.16478937 -0.98628812 -0.00895554
vn -0.16025485 -0.98707567 0.00010912
vn -0.16710264 -0.98593840 0.00147408
vn -0.15690274 -0.98759966 -0.00533301
vn -0.15199651 -0.98837605 -0.00313877
vn -0.15339005 -0.98815638 -0.00429732
vn -0.15229582 -0.98832915 -0.00338757
vn -0.16074606 -0.98699415 0.00180399
vn -0.16550959 -0.98620673 0.00169113
vn -0.15110645 -0.98851459 -0.00239901
vn -0.16325321 -0.98658420 0.00010137
vn -0.15729591 -0.98755029 0.00155809
vn -0.15729591 -0.98755029 0.00155809
vn -0.15577073 -0.98778957 -0.00269272
vn -0.19066270 -0.97976211 0.06094217
vn -0.19066270 -0.97976211 0.06094217
vn -0.19066270 -0.97976211 0.06094217
vn -0.60025196 -0.50994115 0.61616362
vn -0.60025196 -0.50994115 0.61616362
vn -0.60025196 -0.50994115 0.61616362
vn -0.58290954 -0.67198645 0.45678297
vn -0.58290954 -0.67198645 0.45678297
vn -0.58290954 -0.67198645 0.45678297
vn -0.61741537 -0.72841667 0.29699733
vn -0.61741537 -0.72841667 0.29699733
vn -0.61741537 -0.72841667 0.29699733
vn -0.44696404 -0.20112345 0.87164930
vn -0.44696404 -0.20112345 0.87164930
vn -0.44696404 -0.20112345 0.87164930
vn -0.43065015 -0.82345812 0.36940111
vn -0.43065015 -0.82345812 0.36940111
vn -0.43065015 -0.82345812 0.36940111
vn -0.54308852 -0.81483115 0.20274381
vn -0.54308852 -0.81483115 0.20274381
vn -0.54308852 -0.81483115 0.20274381
vn -0.79883072 -0.57350279 0.18155999
vn -0.79883072 -0.57350279 0.18155999
vn -0.79883072 -0.57350279 0.18155999
vn -0.72749833 -0.68282319 0.06707212
vn -0.72749833 -0.68282319 0.06707212
vn -0.72749833 -0.68282319 0.06707212
vn -0.90303207 -0.42955663 0.00376568
vn -0.90303207 -0.42955663 0.00376568
vn -0.90303207 -0.42955663 0.00376568
vn -0.18756397 -0.91840930 0.34834481
vn -0.18756397 -0.91840930 0.34834481
vn -0.18756397 -0.91840930 0.34834481
vn 0.63771368 -0.11730695 0.76128861
vn 0.63771368 -0.11730695 0.76128861
vn 0.63771368 -0.11730695 0.76128861
vn -0.17989548 -0.59534558 0.78307168
vn -0.17989548 -0.59534558 0.78307168
vn -0.17989548 -0.59534558 0.78307168
vn 0.40721693 -0.91300526 -0.02440849
vn 0.40721693 -0.91300526 -0.02440849
vn 0.40721693 -0.91300526 -0.02440849
vn -0.15900008 -0.70004489 0.69617248
vn -0.15900008 -0.70004489 0.69617248
vn -0.15900008 -0.70004489 0.69617248
vn 0.74441737 -0.41804805 0.52065209
vn 0.74441737 -0.41804805 0.52065209
vn 0.74441737 -0.41804805 0.52065209
vn -0.44093724 -0.89321324 0.08800262
vn -0.44093724 -0.89321324 0.08800262
vn -0.44093724 -0.89321324 0.08800262
vn 0.34974643 -0.78958972 0.50420780
vn 0.34974643 -0.78958972 0.50420780
vn 0.34974643 -0.78958972 0.50420780
vn -0.70352493 -0.68599405 0.18564705
vn -0.70352493 -0.68599405 0.18564705
vn -0.70352493 -0.68599405 0.18564705
vn 0.94371439 -0.15419187 0.29262265
vn 0.94371439 -0.15419187 0.29262265
vn 0.94371439 -0.15419187 0.29262265
vn 0.97050439 -0.16968387 0.17125598
vn 0.97050439 -0.16968387 0.17125598
vn 0.97050439 -0.16968387 0.17125598
vn 0.66670923 -0.09732355 0.73893635
vn 0.66670923 -0.09732355 0.73893635
vn 0.66670923 -0.09732355 0.73893635
vn 0.03442956 -0.01311568 0.99932106
vn 0.03442956 -0.01311568 0.99932106
vn 0.03442956 -0.01311568 0.99932106
vn -0.00667567 -0.01043572 0.99992326
vn -0.00667567 -0.01043572 0.99992326
vn -0.00667567 -0.01043572 0.99992326
vn -0.70302206 0.11346897 0.70205753
vn -0.70302206 0.11346897 0.70205753
vn -0.70302206 0.11346897 0.70205753
vn -0.91046463 0.12583522 0.39397925
vn -0.91046463 0.12583522 0.39397925
vn -0.91046463 0.12583522 0.39397925
vn -0.98546634 0.16743639 -0.02865587
vn -0.98546634 0.16743639 -0.02865587
vn -0.98546634 0.16743639 -0.02865587
vn -0.72223633 0.10797968 0.68316548
vn -0.72223633 0.10797968 0.68316548
vn -0.72223633 0.10797968 0.68316548
vn -0.98747266 0.15720222 0.01360916
vn -0.98747266 0.15720222 0.01360916
vn -0.98747266 0.15720222 0.01360916
vn -0.94799655 0.14858634 0.28146873
vn -0.94799655 0.14858634 0.28146873
vn -0.94799655 0.14858634 0.28146873
vn -0.91532667 0.15483979 0.37175492
vn -0.91532667 0.15483979 0.37175492
vn -0.91532667 0.15483979 0.37175492
vn -0.84237859 0.12771989 0.52353218
vn -0.84237859 0.12771989 0.52353218
vn -0.84237859 0.12771989 0.52353218
vn -0.71370128 0.11043886 0.69168905
vn -0.71370128 0.11043886 0.69168905
vn -0.71370128 0.11043886 0.69168905
vn -0.65698720 0.11226608 0.74549591
vn -0.65698720 0.11226608 0.74549591
vn -0.65698720 0.11226608 0.74549591
vn -0.41679401 0.05528201 0.90731838
vn -0.41679401 0.05528201 0.90731838
vn -0.41679401 0.05528201 0.90731838
vn -0.28014027 0.05174827 0.95856327
vn -0.28014027 0.05174827 0.95856327
vn -0.28014027 0.05174827 0.95856327
f 1//1 2//2 3//3
f 4//4 5//5 6//6
f 7//7 8//8 9//9
f 10//10 11//11 12//12
f 13//13 14//14 15//15
f 16//16 17//17 18//18
f 19//19 20//20 21//21
f 22//22 23//23 24//24
f 25//25 26//26 27//27
f 28//28 29//29 30//30
f 31//31 32//32 33//33
f 34//34 35//35 36//36
f 37//37 38//38 39//39
f 40//40 41//41 42//42
f 43//43 44//44 45//45
f 46//46 47//47 48//48
f 49//49 50//50 51//51
f 52//52 53//53 54//54
f 55//55 56//56 57//57
f 58//58 59//59 60//60
f 61//61 62//62 63//63
f 64//64 65//65 66//66
f 64//64 67//67 65//65
f 68//68 69//69 70//70
f 71//71 72//72 73//73
f 74//74 75//75 76//76
f 77//77 78//78 79//79
f 80//80 81//81 82//82
f 83//83 84//84 85//85
f 86//86 87//87 88//88
f 89//89 90//90 91//91
f 92//92 93//93 94//94
f 95//95 96//96 97//97
f 98//98 99//99 100//100
f 101//101 102//102 103//103
f 104//104 105//105 106//106
f 107//107 108//108 109//109
f 110//110 111//111 112//112
f 113//113 114//114 115//115
f 116//116 117//117 118//118
f 119//119 120//120 121//121
f 122//122 123//123 124//124
f 125//125 126//126 127//127
f 128//128 129//129 130//130
f 131//131 132//132 133//133
f 134//134 135//135 136//136
f 137//137 138//138 139//139
f 140//140 141//141 142//142
f 143//143 144//144 145//145
f 146//146 147//147 148//148
f 149//149 150//150 151//151
f 152//152 153//153 154//154
f 155//155 156//156 157//157
f 158//158 159//159 160//160
f 161//161 162//162 163//163
f 164//164 165//165 166//166
f 167//167 168//168 169//169
f 170//170 171//171 172//172
f 173//173 174//174 175//175
f 176//176 177//177 178//178
f 179//179 180//180 181//181
f 182//182 183//183 184//184
f 185//185 186//186 187//187
f 188//188 189//189 190//190
f 191//191 192//192 193//193
f 194//194 195//195 196//196
f 197//197 198//198 199//199
f 200//200 201//201 202//202
f 203//203 204//204 205//205
f 206//206 207//207 208//208
f 209//209 210//210 211//211
f 212//212 213//213 214//214
f 215//215 216//216 217//217
f 218//218 219//219 220//220
f 221//221 222//222 223//223
f 224//224 225//225 226//226
f 227//227 228//228 229//229
f 230//230 231//231 232//232
f 233//233 234//234 235//235
f 236//236 237//237 238//238
f 239//239 240//240 241//241
f 242//242 243//243 244//244
f 245//245 246//246 247//247
f 248//248 249//249 250//250
f 251//251 252//252 253//253
f 254//254 255//255 256//256
f 257//257 258//258 259//259
f 260//260 261//261 262//262
f 263//263 264//264 265//265
f 266//266 267//267 268//268
f 269//269 270//270 271//271
f 272//272 273//273 274//274
f 275//275 276//276 277//277
f 278//278 279//279 280//280
f 281//281 282//282 283//283
f 284//284 285//285 286//286
f 287//287 288//288 289//289
f 290//290 291//291 292//292
f 293//293 294//294 295//295
f 296//296 297//297 298//298
f 299//299 300//300 301//301
f 302//302 303//303 304//304
f 305//305 306//306 307//307
f 308//308 309//309 310//310
f 311//311 312//312 313//313
f 314//314 315//315 316//316
f 317//317 318//318 319//319
f 320//320 321//321 322//322
f 323//323 324//324 325//325
f 326//326 327//327 328//328
f 329//329 330//330 331//331
f 332//332 333//333 334//334
f 335//335 336//336 337//337
f 338//338 339//339 340//340
f 341//341 342//342 343//343
f 344//344 345//345 346//346
f 347//347 348//348 349//349
f 350//350 351//351 352//352
f 353//353 354//354 355//355
f 356//356 357//357 358//358
f 359//359 360//360 361//361
f 362//362 363//363 364//364
f 365//365 366//366 367//367
f 368//368 369//369 370//370
f 371//371 372//372 373//373
f 374//374 375//375 376//376
f 377//377 378//378 379//379
f 380//380 381//381 382//382
f 383//383 384//384 385//385
f 386//386 387//387 388//388
f 389//389 390//390 391//391
f 392//392 393//393 394//394
f 395//395 396//396 397//397
f 398//398 399//399 400//400
f 401//401 402//402 403//403
f 404//404 405//405 406//406
f 407//407 408//408 409//409
f 410//410 411//411 412//412
f 413//413 414//414 415//415
f 416//416 417//417 418//418
f 419//419 420//420 421//421
f 422//422 423//423 424//424
f 425//425 426//426 427//427
f 428//428 429//429 430//430
f 431//431 432//432 433//433
f 434//434 435//435 436//436
f 437//437 438//438 439//439
f 440//440 441//441 442//442
f 443//443 444//444 445//445
f 446//446 447//447 448//448
f 449//449 450//450 451//451
f 452//452 453//453 454//454
f 455//455 456//456 457//457
f 458//458 459//459 460//460
f 461//461 462//462 463//463
f 464//464 465//465 466//466
f 467//467 468//468 469//469
f 470//470 471//471 472//472
f 473//473 474//474 475//475
f 476//476 477//477 478//478
f 479//479 480//480 481//481
f 482//482 483//483 484//484
f 485//485 486//486 487//487
f 488//488 489//489 490//490
f 491//491 492//492 493//493
f 494//494 495//495 496//496
f 497//497 498//498 499//499
f 500//500 501//501 502//502
f 503//503 504//504 505//505
f 506//506 507//507 508//508
f 509//509 510//510 511//511
f 512//512 513//513 514//514
f 515//515 516//516 517//517
f 518//518 519//519 520//520
f 521//521 522//522 523//523
f 524//524 525//525 526//526
f 527//527 528//528 529//529
f 530//530 531//531 532//532
f 533//533 534//534 535//535
f 536//536 537//537 538//538
f 539//539 540//540 541//541
f 542//542 543//543 544//544
f 545//545 546//546 547//547
f 548//548 549//549 550//550
f 551//551 552//552 553//553
f 554//554 555//555 556//556
f 557//557 558//558 559//559
f 560//560 561//561 562//562
f 563//563 564//564 565//565
f 566//566 567//567 568//568
f 569//569 570//570 571//571
f 572//572 573//573 574//574
f 575//575 576//576 577//577
f 578//578 579//579 580//580
f 581//581 582//582 583//583
f 584//584 585//585 586//586
f 587//587 588//588 589//589
f 590//590 591//591 592//592
f 593//593 594//594 595//595
f 596//596 597//597 598//598
f 599//599 600//600 601//601
f 602//602 603//603 604//604
f 605//605 606//606 607//607
f 608//608 609//609 610//610
f 611//611 612//612 613//613
f 614//614 615//615 616//616
f 617//617 618//618 619//619
f 620//620 621//621 622//622
f 623//623 624//624 625//625
f 626//626 627//627 628//628
f 629//629 630//630 631//631
f 632//632 633//633 634//634
f 635//635 636//636 637//637
f 638//638 639//639 640//640
f 641//641 642//642 643//643
f 644//644 645//645 646//646
f 647//647 648//648 649//649
f 650//650 651//651 652//652
f 653//653 654//654 655//655
f 656//656 657//657 658//658
f 659//659 660//660 661//661
f 662//662 663//663 664//664
f 665//665 666//666 667//667
f 668//668 669//669 670//670
f 671//671 672//672 673//673
f 674//674 675//675 676//676
f 677//677 678//678 679//679
f 680//680 681//681 682//682
f 683//683 684//684 685//685
f 686//686 687//687 688//688
f 689//689 690//690 691//691
f 692//692 693//693 694//694
f 695//695 696//696 697//697
f 698//698 699//699 700//700
f 701//701 702//702 703//703
f 704//704 705//705 706//706
f 707//707 708//708 709//709
f 710//710 711//711 712//712
f 713//713 714//714 715//715
f 716//716 717//717 718//718
f 719//719 720//720 721//721
f 722//722 723//723 724//724
f 725//725 726//726 727//727
f 728//728 729//729 730//730
f 731//731 732//732 733//733
f 734//734 735//735 736//736
f 737//737 738//738 739//739
f 740//740 741//741 742//742
f 743//743 744//744 745//745
f 746//746 747//747 748//748
f 749//749 750//750 751//751
f 752//752 753//753 754//754
f 755//755 756//756 757//757
f 758//758 759//759 760//760
f 761//761 762//762 763//763
f 764//764 765//765 766//766
f 767//767 768//768 769//769
f 770//770 771//771 772//772
f 773//773 774//774 775//775
f 776//776 777//777 778//778
f 779//779 780//780 781//781
f 782//782 783//783 784//784
f 785//785 786//786 787//787
f 788//788 789//789 790//790
f 791//791 792//792 793//793
f 794//794 795//795 796//796
f 797//797 798//798 799//799
f 800//800 801//801 802//802
f 803//803 804//804 805//805
f 806//806 807//807 808//808
f 809//809 810//810 811//811
f 812//812 813//813 814//814
f 815//815 816//816 817//817
f 818//818 819//819 820//820
f 821//821 822//822 823//823
f 824//824 825//825 826//826
f 827//827 828//828 829//829
f 830//830 831//831 832//832
f 833//833 834//834 835//835
f 836//836 837//837 838//838
f 836//836 838//838 839//839
f 830//830 840//840 831//831
f 841//841 840//840 830//830
f 842//842 843//843 844//844
f 845//845 846//846 847//847
f 841//841 848//848 840//840
f 849//849 850//850 851//851
f 852//852 836//836 839//839
f 853//853 854//854 855//855
f 856//856 857//857 858//858
f 859//859 860//860 861//861
f 862//862 863//863 864//864
f 865//865 866//866 867//867
f 868//868 869//869 870//870
f 871//871 872//872 873//873
f 874//874 875//875 876//876
f 877//877 878//878 879//879
f 880//880 881//881 882//882
f 883//883 884//884 885//885
f 858//858 857//857 886//886
f 887//887 888//888 889//889
f 890//890 891//891 892//892
f 893//893 894//894 895//895
f 896//896 897//897 898//898
f 899//899 900//900 901//901
f 902//902 903//903 904//904
f 905//905 906//906 907//907
f 908//908 909//909 910//910
f 911//911 912//912 913//913
f 914//914 841//841 830//830
f 915//915 916//916 917//917
f 918//918 872//872 871//871
f 919//919 920//920 921//921
f 922//922 923//923 924//924
f 925//925 926//926 927//927
f 928//928 929//929 930//930
f 931//931 932//932 827//827
f 933//933 934//934 856//856
f 935//935 936//936 937//937
f 938//938 939//939 940//940
f 941//941 942//942 943//943
f 944//944 945//945 946//946
f 935//935 947//947 936//936
f 948//948 949//949 950//950
f 951//951 952//952 953//953
f 954//954 955//955 956//956
f 957//957 958//958 959//959
f 838//838 960//960 961//961
f 962//962 963//963 964//964
f 965//965 966//966 967//967
f 968//968 852//852 839//839
f 969//969 970//970 971//971
f 972//972 973//973 974//974
f 975//975 872//872 918//918
f 975//975 968//968 839//839
f 975//975 839//839 872//872
f 968//968 976//976 852//852
f 977//977 978//978 979//979
f 838//838 837//837 960//960
f 980//980 981//981 982//982
f 983//983 976//976 968//968
f 975//975 918//918 857//857
f 984//984 985//985 986//986
f 987//987 988//988 989//989
f 990//990 991//991 934//934
f 990//990 934//934 933//933
f 934//934 975//975 857//857
f 992//992 990//990 933//933
f 993//993 914//914 976//976
f 994//994 995//995 996//996
f 990//990 997//997 998//998
f 990//990 998//998 991//991
f 994//994 999//999 995//995
f 1000//1000 1001//1001 1002//1002
f 1003//1003 1004//1004 1005//1005
f 1006//1006 1007//1007 1008//1008
f 1009//1009 993//993 976//976
f 828//828 997//997 990//990
f 864//864 863//863 1010//1010
f 1011//1011 859//859 861//861
f 1012//1012 1013//1013 1014//1014
f 993//993 841//841 914//914
f 1015//1015 997//997 828//828
f 832//832 938//938 940//940
f 993//993 995//995 841//841
f 1016//1016 864//864 1010//1010
f 832//832 831//831 938//938
f 888//888 996//996 995//995
f 888//888 995//995 993//993
f 836//836 832//832 940//940
f 836//836 940//940 837//837
f 1009//1009 976//976 983//983
f 889//889 888//888 993//993
f 1017//1017 1012//1012 1014//1014
f 848//848 1018//1018 840//840
f 1019//1019 1020//1020 994//994
f 827//827 1015//1015 828//828
f 987//987 1021//1021 988//988
f 998//998 983//983 991//991
f 998//998 1009//1009 983//983
f 1022//1022 1023//1023 1024//1024
f 1025//1025 1026//1026 1027//1027
f 1028//1028 1029//1029 1030//1030
f 1031//1031 1032//1032 1033//1033
f 1034//1034 1035//1035 1036//1036
f 1037//1037 1038//1038 1039//1039
f 1040//1040 1041//1041 1042//1042
f 1043//1043 1044//1044 1045//1045
f 1046//1046 1047//1047 1048//1048
f 1049//1049 1050//1050 1051//1051
f 1052//1052 1053//1053 1054//1054
f 1055//1055 1056//1056 1057//1057
f 1058//1058 1059//1059 1060//1060
f 1061//1061 1062//1062 1063//1063
f 1064//1064 1065//1065 1066//1066
f 1067//1067 1068//1068 1069//1069
f 1070//1070 1071//1071 1072//1072
f 1073//1073 1074//1074 1075//1075
f 1076//1076 1077//1077 1078//1078
f 1079//1079 1080//1080 1081//1081
f 1082//1082 1083//1083 1084//1084
f 1085//1085 1086//1086 1087//1087
f 1088//1088 1089//1089 1090//1090
f 1091//1091 1092//1092 1093//1093
f 1094//1094 1095//1095 1096//1096
f 1097//1097 1098//1098 1099//1099
f 1100//1100 1101//1101 1102//1102
f 1103//1103 1104//1104 1105//1105
f 1106//1106 1107//1107 1108//1108
f 1109//1109 1110//1110 1111//1111
f 1112//1112 1113//1113 1114//1114
f 1115//1115 1116//1116 1117//1117
f 1118//1118 1119//1119 1120//1120
f 1121//1121 1122//1122 1123//1123
f 1124//1124 1125//1125 1126//1126
f 1127//1127 1128//1128 1129//1129

