# https://github.com/mikedh/trimesh
v -0.01428252 0.10592210 -0.09334831
v -0.01427870 0.10532840 -0.09666310
v -0.01487004 0.10522860 -0.09664640
v -0.01428252 0.10592210 -0.09334831
v -0.01487004 0.10522860 -0.09664640
v -0.01545608 0.10512510 -0.09662901
v -0.01546025 0.10596860 -0.09192970
v -0.01545608 0.10512510 -0.09662901
v -0.01263356 0.10617340 -0.09338990
v -0.01204741 0.10574580 -0.09626560
v -0.01263070 0.10566380 -0.09625201
v -0.01387614 0.10623500 -0.09197450
v -0.01346707 0.10605080 -0.09336960
v -0.01428252 0.10592210 -0.09334831
v -0.01387614 0.10623500 -0.09197450
v -0.01145637 0.10633190 -0.09341630
v -0.01145339 0.10582540 -0.09627901
v -0.01204741 0.10574580 -0.09626560
v -0.01145637 0.10633190 -0.09341630
v -0.01204741 0.10574580 -0.09626560
v -0.01263356 0.10617340 -0.09338990
v -0.01228737 0.10646710 -0.09201330
v -0.01263356 0.10617340 -0.09338990
v -0.01346707 0.10605080 -0.09336960
v -0.01387614 0.10623500 -0.09197450
v -0.01228737 0.10646710 -0.09201330
v -0.01039505 0.10670460 -0.09205291
v -0.00997788 0.10650970 -0.09344621
v -0.01145637 0.10633190 -0.09341630
v -0.01039505 0.10670460 -0.09205291
v -0.01228737 0.10646710 -0.09201330
v -0.00849777 0.10690830 -0.09208660
v -0.00849712 0.10666790 -0.09347270
v -0.00997788 0.10650970 -0.09344621
v -0.01039505 0.10670460 -0.09205291
v -0.01074326 0.10501610 -0.10139330
v -0.01156741 0.10476740 -0.10216460
v -0.01095384 0.10501740 -0.10122721
v -0.01170301 0.10464860 -0.10272650
v -0.01277130 0.10456940 -0.10227910
v -0.01268941 0.10460000 -0.10217850
v -0.01170301 0.10464860 -0.10272650
v -0.01268941 0.10460000 -0.10217850
v -0.01265448 0.10461540 -0.10212161
v -0.01369982 0.10438940 -0.10245781
v -0.01431721 0.10405440 -0.10375050
v -0.01379954 0.10437950 -0.10242040
v -0.01170301 0.10464860 -0.10272650
v -0.01180142 0.10459250 -0.10296360
v -0.01277130 0.10456940 -0.10227910
v -0.01147723 0.10475390 -0.10231230
v -0.01384437 0.10410950 -0.10389261
v -0.01406621 0.10408100 -0.10384220
v -0.01369982 0.10438940 -0.10245781
v -0.01406621 0.10408100 -0.10384220
v -0.01431721 0.10405440 -0.10375050
v -0.01422572 0.10439980 -0.10190441
v -0.01419061 0.10438740 -0.10200730
v -0.01539582 0.10413180 -0.10223550
v -0.01127964 0.10504250 -0.10083580
v -0.01120012 0.10503020 -0.10096641
v -0.01251643 0.10481290 -0.10112831
v -0.01422572 0.10439980 -0.10190441
v -0.01539582 0.10413180 -0.10223550
v -0.01543444 0.10419150 -0.10186180
v -0.01374930 0.10512110 -0.09831320
v -0.01251327 0.10506230 -0.09972881
v -0.01340514 0.10492830 -0.09970601
v -0.01374930 0.10512110 -0.09831320
v -0.01340514 0.10492830 -0.09970601
v -0.01428127 0.10478760 -0.09968220
v -0.01162523 0.10470610 -0.10246460
v -0.01265448 0.10461540 -0.10212161
v -0.01262474 0.10463060 -0.10206170
v -0.01374930 0.10512110 -0.09831320
v -0.01428127 0.10478760 -0.09968220
v -0.01545912 0.10483100 -0.09826440
v -0.01260000 0.10464560 -0.10199860
v -0.01359570 0.10440180 -0.10248451
v -0.01162523 0.10470610 -0.10246460
v -0.01265448 0.10461540 -0.10212161
v -0.01133126 0.10505810 -0.10070740
v -0.01251643 0.10481290 -0.10112831
v -0.01251333 0.10488000 -0.10075371
v -0.01127964 0.10504250 -0.10083580
v -0.01425582 0.10441800 -0.10177310
v -0.01428043 0.10459430 -0.10076350
v -0.01545763 0.10430940 -0.10117801
v -0.01037961 0.10501740 -0.10165450
v -0.01147723 0.10475390 -0.10231230
v -0.01074326 0.10501610 -0.10139330
v -0.01350629 0.10441430 -0.10249661
v -0.01037961 0.10501740 -0.10165450
v -0.01105713 0.10471750 -0.10284640
v -0.01121956 0.10472680 -0.10266800
v -0.01138138 0.10474180 -0.10245630
v -0.01350396 0.10415960 -0.10392700
v -0.01136851 0.10508110 -0.10054840
v -0.01426672 0.10443960 -0.10164240
v -0.01545161 0.10424940 -0.10152021
v -0.01001054 0.10501960 -0.10190830
v -0.01341557 0.10442790 -0.10250260
v -0.01010286 0.10471560 -0.10357000
v -0.01035130 0.10471300 -0.10340390
v -0.01067566 0.10471110 -0.10317300
v -0.01087933 0.10471240 -0.10301150
v -0.01139485 0.10512050 -0.10030471
v -0.01251327 0.10506230 -0.09972881
v -0.01324862 0.10420220 -0.10392040
v -0.01427245 0.10446200 -0.10151140
v -0.01140254 0.10516740 -0.10003421
v -0.01324290 0.10445700 -0.10249521
v -0.01324290 0.10445700 -0.10249521
v -0.01277536 0.10429330 -0.10382821
v -0.01299667 0.10424830 -0.10388690
v -0.01312398 0.10422430 -0.10390790
v -0.01312398 0.10422430 -0.10390790
v -0.00849408 0.10501930 -0.10293831
v -0.01010286 0.10471560 -0.10357000
v -0.01001054 0.10501960 -0.10190830
v -0.00849342 0.10472970 -0.10459520
v -0.00985175 0.10471900 -0.10373141
v -0.01309102 0.10448640 -0.10246520
v -0.01237624 0.10438910 -0.10363260
v -0.01257914 0.10433780 -0.10374801
v -0.01140213 0.10521720 -0.09975341
v -0.01140254 0.10516740 -0.10003421
v -0.01251327 0.10506230 -0.09972881
v -0.01203399 0.10537580 -0.09835580
v -0.01427876 0.10451440 -0.10121231
v -0.01203399 0.10537580 -0.09835580
v -0.01140213 0.10521720 -0.09975341
v -0.01156741 0.10476740 -0.10216460
v -0.01260000 0.10464560 -0.10199860
v -0.01258093 0.10466010 -0.10193340
v -0.01297760 0.10451160 -0.10242410
v -0.01219701 0.10444030 -0.10349490
v -0.01255178 0.10469620 -0.10175531
v -0.01253014 0.10474440 -0.10150200
v -0.01205289 0.10448750 -0.10334910
v -0.01026767 0.10560510 -0.09839410
v -0.00995022 0.10540020 -0.09978430
v -0.01140213 0.10521720 -0.09975341
v -0.01286751 0.10454010 -0.10236040
v -0.01205289 0.10448750 -0.10334910
v -0.01297760 0.10451160 -0.10242410
v -0.01203399 0.10537580 -0.09835580
v -0.01403558 0.10437030 -0.10225071
v -0.01505047 0.10402600 -0.10318190
v -0.01516592 0.10403700 -0.10300280
v -0.00849694 0.10580570 -0.09842740
v -0.00849599 0.10556450 -0.09981190
v -0.00995022 0.10540020 -0.09978430
v -0.01191502 0.10454000 -0.10316670
v -0.01281774 0.10455470 -0.10232191
v -0.01026767 0.10560510 -0.09839410
v -0.01191502 0.10454000 -0.10316670
v -0.01205289 0.10448750 -0.10334910
v -0.01286751 0.10454010 -0.10236040
v -0.01396054 0.10437040 -0.10232110
v -0.01473081 0.10402590 -0.10350421
v -0.01490885 0.10402220 -0.10334650
v -0.01396054 0.10437040 -0.10232110
v -0.01505047 0.10402600 -0.10318190
v -0.01403558 0.10437030 -0.10225071
v -0.01409590 0.10437320 -0.10217761
v -0.01516592 0.10403700 -0.10300280
v -0.01409590 0.10437320 -0.10217761
v -0.01526492 0.10405730 -0.10278720
v -0.01533734 0.10408680 -0.10254781
v -0.01388394 0.10437340 -0.10237621
v -0.01473081 0.10402590 -0.10350421
v -0.01396054 0.10437040 -0.10232110
v -0.01180142 0.10459250 -0.10296360
v -0.01388394 0.10437340 -0.10237621
v -0.01453495 0.10403650 -0.10363810
v -0.01281774 0.10455470 -0.10232191
v -0.01414728 0.10437880 -0.10209730
v -0.01533734 0.10408680 -0.10254781
v -0.01108670 0.10502120 -0.10110430
v -0.01379954 0.10437950 -0.10242040
v -0.01453495 0.10403650 -0.10363810
v -0.01379954 0.10437950 -0.10242040
v -0.01120012 0.10503020 -0.10096641
v -0.01156741 0.10476740 -0.10216460
v -0.01253014 0.10474440 -0.10150200
v -0.01120012 0.10503020 -0.10096641
v -0.01120012 0.10503020 -0.10096641
v -0.01419061 0.10438740 -0.10200730
v -0.01383352 0.10330920 -0.10839480
v -0.01392382 0.10305340 -0.10974540
v -0.01545649 0.10289560 -0.10909620
v -0.01545888 0.10315630 -0.10763180
v -0.01255083 0.10342720 -0.10889770
v -0.01238703 0.10318690 -0.11039181
v -0.01392382 0.10305340 -0.10974540
v -0.01383352 0.10330920 -0.10839480
v -0.01124978 0.10353030 -0.10940491
v -0.01044219 0.10332290 -0.11120430
v -0.01238703 0.10318690 -0.11039181
v -0.01124978 0.10353030 -0.10940491
v -0.01238703 0.10318690 -0.11039181
v -0.01255083 0.10342720 -0.10889770
v -0.01359838 0.10360140 -0.10697170
v -0.01255065 0.10359230 -0.10796860
v -0.01359838 0.10360140 -0.10697170
v -0.01007544 0.10360690 -0.10987501
v -0.01044219 0.10332290 -0.11120430
v -0.01124978 0.10353030 -0.10940491
v -0.00928921 0.10365120 -0.11018911
v -0.00849360 0.10342440 -0.11201261
v -0.01044219 0.10332290 -0.11120430
v -0.00928921 0.10365120 -0.11018911
v -0.01044219 0.10332290 -0.11120430
v -0.01007544 0.10360690 -0.10987501
v -0.00849378 0.10369070 -0.11050591
v -0.00849360 0.10342440 -0.11201261
v -0.01173251 0.10401000 -0.10630330
v -0.01125121 0.10386150 -0.10753380
v -0.01255065 0.10359230 -0.10796860
v -0.01173251 0.10401000 -0.10630330
v -0.01255065 0.10359230 -0.10796860
v -0.01359838 0.10360140 -0.10697170
v -0.01007777 0.10409100 -0.10713370
v -0.01125121 0.10386150 -0.10753380
v -0.01173251 0.10401000 -0.10630330
v -0.01011699 0.10433500 -0.10571940
v -0.00929427 0.10423610 -0.10686921
v -0.01007777 0.10409100 -0.10713370
v -0.01011699 0.10433500 -0.10571940
v -0.00849688 0.10437810 -0.10659911
v -0.00849813 0.10463550 -0.10513000
v -0.01391178 0.10149080 -0.11855881
v -0.01545506 0.10122370 -0.11851381
v -0.01545733 0.10145120 -0.11722711
v -0.01391106 0.10171910 -0.11727230
v -0.01236420 0.10173340 -0.11859950
v -0.01391178 0.10149080 -0.11855881
v -0.01391106 0.10171910 -0.11727230
v -0.01236116 0.10196270 -0.11731331
v -0.01080781 0.10218290 -0.11735021
v -0.01043123 0.10200320 -0.11864461
v -0.01236420 0.10173340 -0.11859950
v -0.01080781 0.10218290 -0.11735021
v -0.01236420 0.10173340 -0.11859950
v -0.01236116 0.10196270 -0.11731331
v -0.01303756 0.10236830 -0.11442810
v -0.01236104 0.10212910 -0.11637631
v -0.01391196 0.10205100 -0.11540000
v -0.01303756 0.10236830 -0.11442810
v -0.01391196 0.10205100 -0.11540000
v -0.01545929 0.10194820 -0.11442120
v -0.01152527 0.10242990 -0.11538610
v -0.01236104 0.10212910 -0.11637631
v -0.01152527 0.10242990 -0.11538610
v -0.01236104 0.10212910 -0.11637631
v -0.01303756 0.10236830 -0.11442810
v -0.01354372 0.10251560 -0.11312950
v -0.01545995 0.10218720 -0.11307420
v -0.01354372 0.10251560 -0.11312950
v -0.01303756 0.10236830 -0.11442810
v -0.01545929 0.10194820 -0.11442120
v -0.01001060 0.10246930 -0.11634161
v -0.01080781 0.10218290 -0.11735021
v -0.01152527 0.10242990 -0.11538610
v -0.00849420 0.10248730 -0.11729470
v -0.00849301 0.10223910 -0.11868380
v -0.01043123 0.10200320 -0.11864461
v -0.01080781 0.10218290 -0.11735021
v -0.00849420 0.10248730 -0.11729470
v -0.01080781 0.10218290 -0.11735021
v -0.01001060 0.10246930 -0.11634161
v -0.01162195 0.10280720 -0.11317830
v -0.01051807 0.10273060 -0.11448860
v -0.01177883 0.10255700 -0.11445971
v -0.01162195 0.10280720 -0.11317830
v -0.01177883 0.10255700 -0.11445971
v -0.01354372 0.10251560 -0.11312950
v -0.01006138 0.10301750 -0.11321351
v -0.00849670 0.10297840 -0.11452980
v -0.01051807 0.10273060 -0.11448860
v -0.01006138 0.10301750 -0.11321351
v -0.00849759 0.10320600 -0.11324480
v -0.00849670 0.10297840 -0.11452980
v -0.01006138 0.10301750 -0.11321351
v -0.01411139 0.10025730 -0.12528071
v -0.01545542 0.09980022 -0.12652330
v -0.01545721 0.10013460 -0.12466140
v -0.01392018 0.10064380 -0.12331450
v -0.01274567 0.10070480 -0.12401481
v -0.01411139 0.10025730 -0.12528071
v -0.01392018 0.10064380 -0.12331450
v -0.01545912 0.10087490 -0.12048030
v -0.01460129 0.10078090 -0.12188961
v -0.01545846 0.10063030 -0.12186420
v -0.01176327 0.10101960 -0.12308471
v -0.01156628 0.10073310 -0.12479751
v -0.01274567 0.10070480 -0.12401481
v -0.01236712 0.10113550 -0.12194940
v -0.01274567 0.10070480 -0.12401481
v -0.01392018 0.10064380 -0.12331450
v -0.01236712 0.10113550 -0.12194940
v -0.01012980 0.10106140 -0.12406181
v -0.01038491 0.10074520 -0.12557800
v -0.01156628 0.10073310 -0.12479751
v -0.01012980 0.10106140 -0.12406181
v -0.01156628 0.10073310 -0.12479751
v -0.01176327 0.10101960 -0.12308471
v -0.01358908 0.10119430 -0.12053400
v -0.01374334 0.10092350 -0.12191370
v -0.01358908 0.10119430 -0.12053400
v -0.01374334 0.10092350 -0.12191370
v -0.01460129 0.10078090 -0.12188961
v -0.01545912 0.10087490 -0.12048030
v -0.00849456 0.10107690 -0.12503570
v -0.00849319 0.10073750 -0.12682390
v -0.01038491 0.10074520 -0.12557800
v -0.00849456 0.10107690 -0.12503570
v -0.01038491 0.10074520 -0.12557800
v -0.01012980 0.10106140 -0.12406181
v -0.01059937 0.10137990 -0.12198940
v -0.01176327 0.10101960 -0.12308471
v -0.01236712 0.10113550 -0.12194940
v -0.01171302 0.10147740 -0.12058140
v -0.01171302 0.10147740 -0.12058140
v -0.01059937 0.10137990 -0.12198940
v -0.01010692 0.10169240 -0.12061730
v -0.00956297 0.10150950 -0.12201120
v -0.01059937 0.10137990 -0.12198940
v -0.01010692 0.10169240 -0.12061730
v -0.01059937 0.10137990 -0.12198940
v -0.01171302 0.10147740 -0.12058140
v -0.00849706 0.10188480 -0.12064931
v -0.00849610 0.10163350 -0.12203221
v -0.00956297 0.10150950 -0.12201120
v -0.01010692 0.10169240 -0.12061730
v -0.01383334 0.09930020 -0.13058700
v -0.01337134 0.09906727 -0.13216551
v -0.01545637 0.09891349 -0.13129310
v -0.01383334 0.09930020 -0.13058700
v -0.01545637 0.09891349 -0.13129310
v -0.01545876 0.09918516 -0.12983060
v -0.01258188 0.09938967 -0.13107321
v -0.01337134 0.09906727 -0.13216551
v -0.01383334 0.09930020 -0.13058700
v -0.01124954 0.09947180 -0.13158861
v -0.01128262 0.09918874 -0.13303401
v -0.01337134 0.09906727 -0.13216551
v -0.01258188 0.09938967 -0.13107321
v -0.01314342 0.09970772 -0.12900381
v -0.01253098 0.09957498 -0.13015221
v -0.01383334 0.09930020 -0.13058700
v -0.01314342 0.09970772 -0.12900381
v -0.01007539 0.09953206 -0.13205580
v -0.00849330 0.09931480 -0.13418740
v -0.01128262 0.09918874 -0.13303401
v -0.01124954 0.09947180 -0.13158861
v -0.00849348 0.09960234 -0.13268450
v -0.00849330 0.09931480 -0.13418740
v -0.01007539 0.09953206 -0.13205580
v -0.01125097 0.09983450 -0.12972291
v -0.01253098 0.09957498 -0.13015221
v -0.01314342 0.09970772 -0.12900381
v -0.01007729 0.10006400 -0.12932280
v -0.01125097 0.09983450 -0.12972291
v -0.01007539 0.09953206 -0.13205580
v -0.01105535 0.10014630 -0.12825230
v -0.01105535 0.10014630 -0.12825230
v -0.01125097 0.09983450 -0.12972291
v -0.00977731 0.10039900 -0.12778971
v -0.01007729 0.10006400 -0.12932280
v -0.01105535 0.10014630 -0.12825230
v -0.00849670 0.10035780 -0.12878941
v -0.00849795 0.10064080 -0.12732470
v -0.00849670 0.10035780 -0.12878941
v -0.00977731 0.10039900 -0.12778971
v -0.00613886 0.10703520 -0.09265770
v -0.00613779 0.10669020 -0.09466790
v -0.00677687 0.10663280 -0.09465851
v -0.00677842 0.10710760 -0.09189650
v -0.00466383 0.10715990 -0.09267840
v -0.00466275 0.10683990 -0.09454900
v -0.00529945 0.10678670 -0.09454010
v -0.00530046 0.10710690 -0.09266940
v -0.00512785 0.10724990 -0.09191981
v -0.00530046 0.10710690 -0.09266940
v -0.00512785 0.10724990 -0.09191981
v -0.00363457 0.10724350 -0.09269150
v -0.00299680 0.10693750 -0.09478170
v -0.00363350 0.10688720 -0.09477320
v -0.00299847 0.10742310 -0.09194811
v -0.00597227 0.10604020 -0.09853080
v -0.00677615 0.10584560 -0.09921780
v -0.00677675 0.10604050 -0.09808940
v -0.00495523 0.10600840 -0.09924461
v -0.00553900 0.10620780 -0.09778701
v -0.00453115 0.10616400 -0.09855120
v -0.00597394 0.10641930 -0.09632960
v -0.00552118 0.10632870 -0.09709330
v -0.00677735 0.10627260 -0.09674551
v -0.00677842 0.10646700 -0.09561920
v -0.00299621 0.10616520 -0.09927021
v -0.00495523 0.10600840 -0.09924461
v -0.00453115 0.10616400 -0.09855120
v -0.00419933 0.10637990 -0.09745790
v -0.00455630 0.10622260 -0.09819880
v -0.00299650 0.10628560 -0.09857120
v -0.00452614 0.10648110 -0.09670870
v -0.00419933 0.10637990 -0.09745790
v -0.00552118 0.10632870 -0.09709330
v -0.00299728 0.10641300 -0.09783170
v -0.00455630 0.10622260 -0.09819880
v -0.00501329 0.10662200 -0.09564461
v -0.00455648 0.10654020 -0.09634960
v -0.00299758 0.10653760 -0.09710750
v -0.00299847 0.10678450 -0.09567110
v -0.00299817 0.10666440 -0.09637000
v -0.00455648 0.10654020 -0.09634960
v -0.00501329 0.10662200 -0.09564461
v -0.00452614 0.10648110 -0.09670870
v -0.00495005 0.10583900 -0.10023090
v -0.00494409 0.10570990 -0.10098280
v -0.00677836 0.10554470 -0.10095571
v -0.00677884 0.10567480 -0.10020390
v -0.00299895 0.10599480 -0.10025631
v -0.00299847 0.10586500 -0.10100810
v -0.00494409 0.10570990 -0.10098280
v -0.00495005 0.10583900 -0.10023090
v -0.00530511 0.10518120 -0.10385540
v -0.00677615 0.10480140 -0.10523640
v -0.00677705 0.10497750 -0.10422470
v -0.00594920 0.10531910 -0.10271820
v -0.00677776 0.10524140 -0.10270540
v -0.00677824 0.10537180 -0.10195361
v -0.00477159 0.10531660 -0.10334441
v -0.00415093 0.10514960 -0.10461070
v -0.00509953 0.10539430 -0.10273060
v -0.00299698 0.10527900 -0.10439160
v -0.00299633 0.10510990 -0.10536490
v -0.00415093 0.10514960 -0.10461070
v -0.00413972 0.10547410 -0.10274310
v -0.00477159 0.10531660 -0.10334441
v -0.00509953 0.10539430 -0.10273060
v -0.00488919 0.10554220 -0.10198161
v -0.00488919 0.10554220 -0.10198161
v -0.00299835 0.10569240 -0.10200611
v -0.00299787 0.10556230 -0.10275790
v -0.00589556 0.10450320 -0.10743780
v -0.00491077 0.10439060 -0.10859491
v -0.00677687 0.10434810 -0.10783060
v -0.00589556 0.10450320 -0.10743780
v -0.00677687 0.10434810 -0.10783060
v -0.00677794 0.10448720 -0.10703520
v -0.00449282 0.10453560 -0.10797100
v -0.00491077 0.10439060 -0.10859491
v -0.00589556 0.10450320 -0.10743780
v -0.00385541 0.10454480 -0.10822061
v -0.00299650 0.10440950 -0.10937470
v -0.00491077 0.10439060 -0.10859491
v -0.00385541 0.10454480 -0.10822061
v -0.00491077 0.10439060 -0.10859491
v -0.00449282 0.10453560 -0.10797100
v -0.00299650 0.10455280 -0.10855660
v -0.00299650 0.10440950 -0.10937470
v -0.00494027 0.10477870 -0.10635771
v -0.00449359 0.10471310 -0.10695490
v -0.00677794 0.10448720 -0.10703520
v -0.00385648 0.10480460 -0.10673210
v -0.00449359 0.10471310 -0.10695490
v -0.00494027 0.10477870 -0.10635771
v -0.00299895 0.10506220 -0.10563770
v -0.00299829 0.10492330 -0.10643530
vn -0.17034289 0.97002056 -0.17333033
vn -0.16865513 0.97020213 -0.17396345
vn -0.16865513 0.97020213 -0.17396345
vn -0.17627772 0.96912915 -0.17237995
vn -0.17627772 0.96912915 -0.17237995
vn -0.17627772 0.96912915 -0.17237995
vn -0.16964173 0.97026644 -0.17264042
vn -0.17154477 0.96965286 -0.17420023
vn -0.14106592 0.97464664 -0.17367884
vn -0.14106592 0.97464664 -0.17367884
vn -0.14106592 0.97464664 -0.17367884
vn -0.15794226 0.97188357 -0.17463267
vn -0.15794226 0.97188357 -0.17463267
vn -0.15794226 0.97188357 -0.17463267
vn -0.16809592 0.97075999 -0.17137327
vn -0.12745500 0.97725101 -0.16951602
vn -0.13465185 0.97571428 -0.17277304
vn -0.13465185 0.97571428 -0.17277304
vn -0.13523347 0.97554656 -0.17326518
vn -0.13523435 0.97565718 -0.17264046
vn -0.13523334 0.97553089 -0.17335349
vn -0.14684079 0.97421413 -0.17130268
vn -0.14746208 0.97421511 -0.17076258
vn -0.14695561 0.97421436 -0.17120288
vn -0.14651174 0.97421335 -0.17158864
vn -0.13523222 0.97539971 -0.17409091
vn -0.12104626 0.97746004 -0.17297306
vn -0.12104626 0.97746004 -0.17297306
vn -0.12104626 0.97746004 -0.17297306
vn -0.12622187 0.97750780 -0.16895722
vn -0.12622187 0.97750780 -0.16895722
vn -0.10792753 0.97956993 -0.16968911
vn -0.10769195 0.97955230 -0.16994040
vn -0.10798200 0.97957399 -0.16963100
vn -0.10818092 0.97958877 -0.16941878
vn -0.13166414 0.97590600 -0.17398860
vn -0.13383165 0.97600208 -0.17178191
vn -0.13203734 0.97588114 -0.17384514
vn -0.14627552 0.97328441 -0.17697723
vn -0.14655792 0.97344156 -0.17587580
vn -0.14627552 0.97328441 -0.17697723
vn -0.14499009 0.97390438 -0.17460850
vn -0.14499009 0.97390438 -0.17460850
vn -0.14499009 0.97390438 -0.17460850
vn -0.16118263 0.97148886 -0.17386647
vn -0.16185861 0.97128023 -0.17440329
vn -0.16185861 0.97128023 -0.17440329
vn -0.14348655 0.97473298 -0.17119353
vn -0.14411838 0.97466094 -0.17107294
vn -0.14384308 0.97472959 -0.17091339
vn -0.13325367 0.97628121 -0.17064130
vn -0.16222800 0.97144869 -0.17311705
vn -0.16408757 0.97117119 -0.17292136
vn -0.16587874 0.97095954 -0.17240017
vn -0.16587874 0.97095954 -0.17240017
vn -0.16715731 0.97080305 -0.17204612
vn -0.17231436 0.96926576 -0.17558940
vn -0.17190419 0.96936871 -0.17542308
vn -0.17231436 0.96926576 -0.17558940
vn -0.13915372 0.97441569 -0.17649446
vn -0.13915372 0.97441569 -0.17649446
vn -0.13915372 0.97441569 -0.17649446
vn -0.17319180 0.96942598 -0.17383288
vn -0.17312422 0.96968721 -0.17243759
vn -0.17331580 0.96954822 -0.17302569
vn -0.14952074 0.97385892 -0.17100398
vn -0.14966258 0.97381569 -0.17112603
vn -0.15066117 0.97351029 -0.17198525
vn -0.16074677 0.97150146 -0.17419931
vn -0.16074677 0.97150146 -0.17419931
vn -0.16074677 0.97150146 -0.17419931
vn -0.14421852 0.97390088 -0.17526581
vn -0.14429335 0.97385481 -0.17546006
vn -0.14422157 0.97389900 -0.17527372
vn -0.16955285 0.97064817 -0.17056954
vn -0.17219776 0.96981163 -0.17266540
vn -0.17123157 0.97011017 -0.17194768
vn -0.14414535 0.97394588 -0.17507584
vn -0.15977990 0.97178493 -0.17350629
vn -0.14283942 0.97475663 -0.17159957
vn -0.14306073 0.97473676 -0.17152804
vn -0.13987233 0.97473880 -0.17412638
vn -0.13978293 0.97485160 -0.17356580
vn -0.14006564 0.97483947 -0.17340594
vn -0.13967198 0.97469649 -0.17452359
vn -0.17316442 0.96933954 -0.17434143
vn -0.17357281 0.96944213 -0.17336213
vn -0.17348965 0.96946902 -0.17329503
vn -0.12932586 0.97600592 -0.17517782
vn -0.12932586 0.97600592 -0.17517782
vn -0.12932586 0.97600592 -0.17517782
vn -0.15840994 0.97201687 -0.17346323
vn -0.12730908 0.97660080 -0.17332999
vn -0.13011627 0.97668999 -0.17072324
vn -0.13197996 0.97646112 -0.17060181
vn -0.13237119 0.97646812 -0.17025827
vn -0.15909367 0.97193326 -0.17330591
vn -0.14016099 0.97484394 -0.17330375
vn -0.17332898 0.96939025 -0.17389539
vn -0.17348947 0.96951049 -0.17306301
vn -0.12646451 0.97676031 -0.17304919
vn -0.15687230 0.97229612 -0.17329552
vn -0.12509936 0.97715404 -0.17181425
vn -0.12604861 0.97707297 -0.17158135
vn -0.12820480 0.97691633 -0.17087429
vn -0.12932215 0.97688946 -0.17018452
vn -0.14004554 0.97490993 -0.17302568
vn -0.13986943 0.97484140 -0.17355341
vn -0.15642243 0.97236980 -0.17328877
vn -0.17354640 0.96944423 -0.17337683
vn -0.13981495 0.97494905 -0.17299168
vn -0.15639265 0.97238768 -0.17321531
vn -0.15386703 0.97275768 -0.17339966
vn -0.15125065 0.97327645 -0.17278943
vn -0.15346503 0.97288416 -0.17304592
vn -0.15477534 0.97264177 -0.17324140
vn -0.15506042 0.97259350 -0.17325745
vn -0.11691490 0.97825742 -0.17129893
vn -0.11822093 0.97844370 -0.16932730
vn -0.11692825 0.97805651 -0.17243332
vn -0.11648055 0.97835276 -0.17105017
vn -0.11859390 0.97870198 -0.16756465
vn -0.15305729 0.97280240 -0.17386477
vn -0.14764501 0.97398318 -0.17192358
vn -0.14933487 0.97364537 -0.17237691
vn -0.13975073 0.97500296 -0.17273956
vn -0.13975073 0.97500296 -0.17273956
vn -0.13975073 0.97500296 -0.17273956
vn -0.14886632 0.97405787 -0.17044084
vn -0.17362054 0.96943259 -0.17336773
vn -0.13974800 0.97481546 -0.17379678
vn -0.13974800 0.97481546 -0.17379678
vn -0.14260910 0.97468957 -0.17217112
vn -0.14293384 0.97426557 -0.17428858
vn -0.14293326 0.97423435 -0.17446349
vn -0.15175972 0.97295779 -0.17413250
vn -0.14618504 0.97428830 -0.17144168
vn -0.14266264 0.97442694 -0.17360736
vn -0.14101368 0.97470016 -0.17342072
vn -0.14588825 0.97436987 -0.17123077
vn -0.12861725 0.97677109 -0.17139383
vn -0.12678407 0.97674254 -0.17291562
vn -0.12884456 0.97677424 -0.17120502
vn -0.14973536 0.97296128 -0.17585698
vn -0.15026647 0.97293120 -0.17557011
vn -0.15026647 0.97293120 -0.17557011
vn -0.13049136 0.97679455 -0.16983643
vn -0.17243382 0.97010651 -0.17076278
vn -0.17221220 0.97017970 -0.17057054
vn -0.17272253 0.97005411 -0.17076871
vn -0.11394675 0.97875451 -0.17045744
vn -0.11381670 0.97874583 -0.17059414
vn -0.11396986 0.97875605 -0.17043315
vn -0.14906582 0.97299868 -0.17621849
vn -0.14807148 0.97323876 -0.17573033
vn -0.11408377 0.97876362 -0.17031342
vn -0.14455689 0.97458348 -0.17114424
vn -0.14472655 0.97456735 -0.17109268
vn -0.14472655 0.97456735 -0.17109268
vn -0.17175711 0.97024960 -0.17063179
vn -0.17062132 0.97035221 -0.17118692
vn -0.17175985 0.97024956 -0.17062924
vn -0.16698073 0.97000306 -0.17666778
vn -0.16698073 0.97000306 -0.17666778
vn -0.16750299 0.96987285 -0.17688810
vn -0.16934185 0.96953053 -0.17701383
vn -0.16808360 0.96972770 -0.17713299
vn -0.17279605 0.96995113 -0.17127853
vn -0.17283140 0.96995632 -0.17121342
vn -0.17278051 0.96984062 -0.17191881
vn -0.16321884 0.97083348 -0.17561883
vn -0.16437891 0.97063881 -0.17561286
vn -0.16437891 0.97063881 -0.17561286
vn -0.14676018 0.97355339 -0.17508638
vn -0.16977024 0.97044521 -0.17150558
vn -0.16908419 0.97054775 -0.17160306
vn -0.14434994 0.97460310 -0.17120714
vn -0.17117127 0.96937017 -0.17613026
vn -0.17120986 0.96938064 -0.17603509
vn -0.13293790 0.97585217 -0.17332069
vn -0.16208513 0.97102238 -0.17562442
vn -0.16208513 0.97102238 -0.17562442
vn -0.16841079 0.97064792 -0.17169865
vn -0.14080515 0.97520446 -0.17073420
vn -0.14080515 0.97520446 -0.17073420
vn -0.14080515 0.97520446 -0.17073420
vn -0.13315972 0.97584029 -0.17321728
vn -0.13958810 0.97487671 -0.17358156
vn -0.17307025 0.96974982 -0.17213939
vn -0.17214715 0.96996933 -0.17182797
vn -0.17275600 0.96980759 -0.17212961
vn -0.17254603 0.96976327 -0.17258933
vn -0.17203218 0.96994217 -0.17209624
vn -0.15748415 0.97214179 -0.17360609
vn -0.15747683 0.97214093 -0.17361755
vn -0.15748478 0.97214187 -0.17360510
vn -0.15719620 0.97218119 -0.17364646
vn -0.14158064 0.97418615 -0.17583020
vn -0.14158064 0.97418615 -0.17583020
vn -0.14158064 0.97418615 -0.17583020
vn -0.14447821 0.97434770 -0.17254743
vn -0.14447821 0.97434770 -0.17254743
vn -0.14447821 0.97434770 -0.17254743
vn -0.17149257 0.97025188 -0.17088470
vn -0.15683646 0.97222758 -0.17371200
vn -0.15683646 0.97222758 -0.17371200
vn -0.13259970 0.97609764 -0.17219381
vn -0.13252110 0.97614427 -0.17198986
vn -0.13252422 0.97607082 -0.17240383
vn -0.12364535 0.97669714 -0.17542670
vn -0.12364535 0.97669714 -0.17542670
vn -0.12364535 0.97669714 -0.17542670
vn -0.12162153 0.97726145 -0.17369014
vn -0.12466645 0.97677070 -0.17429079
vn -0.12466645 0.97677070 -0.17429079
vn -0.11740153 0.97792533 -0.17285524
vn -0.11740153 0.97792533 -0.17285524
vn -0.14368763 0.97424628 -0.17377587
vn -0.14368763 0.97424628 -0.17377587
vn -0.14368763 0.97424628 -0.17377587
vn -0.15258976 0.97368717 -0.16926211
vn -0.15258976 0.97368717 -0.16926211
vn -0.15258976 0.97368717 -0.16926211
vn -0.13311432 0.97610267 -0.17176772
vn -0.13245152 0.97623718 -0.17151552
vn -0.13361412 0.97616350 -0.17103240
vn -0.11987550 0.97798019 -0.17083505
vn -0.11963975 0.97819892 -0.16974452
vn -0.12293297 0.97739075 -0.17203140
vn -0.13413033 0.97590750 -0.17208602
vn -0.11833978 0.97830988 -0.17001613
vn -0.11910997 0.97796586 -0.17145141
vn -0.17296461 0.96981092 -0.17190120
vn -0.17286593 0.96984901 -0.17178555
vn -0.17294416 0.96981881 -0.17187724
vn -0.17304272 0.96978075 -0.17199275
vn -0.15720683 0.97234005 -0.17274502
vn -0.15697272 0.97242647 -0.17247123
vn -0.15715830 0.97235798 -0.17268826
vn -0.15739218 0.97227153 -0.17296178
vn -0.14010745 0.97436287 -0.17603098
vn -0.14010745 0.97436287 -0.17603098
vn -0.14010745 0.97436287 -0.17603098
vn -0.14282050 0.97431107 -0.17412710
vn -0.14226628 0.97452203 -0.17339876
vn -0.14226628 0.97452203 -0.17339876
vn -0.15875147 0.97178585 -0.17444263
vn -0.15875147 0.97178585 -0.17444263
vn -0.15875147 0.97178585 -0.17444263
vn -0.16902830 0.97167457 -0.16516042
vn -0.16902830 0.97167457 -0.16516042
vn -0.17040236 0.97067303 -0.16957860
vn -0.14338878 0.97409382 -0.17487392
vn -0.14338878 0.97409382 -0.17487392
vn -0.14799126 0.97409503 -0.17098965
vn -0.14799126 0.97409503 -0.17098965
vn -0.15049216 0.97377938 -0.17060431
vn -0.17121742 0.97006731 -0.17220338
vn -0.17121742 0.97006731 -0.17220338
vn -0.16874363 0.96985916 -0.17578052
vn -0.16874363 0.96985916 -0.17578052
vn -0.16874363 0.96985916 -0.17578052
vn -0.13361523 0.97607207 -0.17155257
vn -0.13361523 0.97607207 -0.17155257
vn -0.13361523 0.97607207 -0.17155257
vn -0.12320527 0.97707803 -0.17360581
vn -0.12244007 0.97698451 -0.17467027
vn -0.12377138 0.97714616 -0.17281791
vn -0.12444979 0.97722660 -0.17187327
vn -0.12411422 0.97598232 -0.17903680
vn -0.12411422 0.97598232 -0.17903680
vn -0.12411422 0.97598232 -0.17903680
vn -0.13677516 0.97551045 -0.17225538
vn -0.13666991 0.97554054 -0.17216847
vn -0.13823901 0.97508985 -0.17346403
vn -0.15117959 0.97365830 -0.17068758
vn -0.15027032 0.97362032 -0.17170414
vn -0.15205345 0.97369310 -0.16971002
vn -0.13537268 0.97590983 -0.17109719
vn -0.12331350 0.97670866 -0.17559607
vn -0.12331350 0.97670866 -0.17559607
vn -0.12331350 0.97670866 -0.17559607
vn -0.12128114 0.97739065 -0.17320046
vn -0.12128114 0.97739065 -0.17320046
vn -0.12128114 0.97739065 -0.17320046
vn -0.16867249 0.97013111 -0.17434226
vn -0.16869235 0.97011949 -0.17438772
vn -0.16867337 0.97013059 -0.17434428
vn -0.16865407 0.97014189 -0.17430009
vn -0.15540335 0.97205265 -0.17596430
vn -0.15540335 0.97205265 -0.17596430
vn -0.15540335 0.97205265 -0.17596430
vn -0.17540756 0.96945486 -0.17143353
vn -0.17540756 0.96945486 -0.17143353
vn -0.17540756 0.96945486 -0.17143353
vn -0.14404303 0.97354689 -0.17736420
vn -0.14228505 0.97347013 -0.17919505
vn -0.14310932 0.97350690 -0.17833688
vn -0.15303276 0.97301363 -0.17270049
vn -0.15453159 0.97246151 -0.17446664
vn -0.15453159 0.97246151 -0.17446664
vn -0.14102682 0.97406924 -0.17691962
vn -0.12985493 0.97479100 -0.18143926
vn -0.12985493 0.97479100 -0.18143926
vn -0.12985493 0.97479100 -0.18143926
vn -0.13157340 0.97514998 -0.17824409
vn -0.13157340 0.97514998 -0.17824409
vn -0.13157340 0.97514998 -0.17824409
vn -0.15277015 0.97312276 -0.17231763
vn -0.15433446 0.97263931 -0.17364807
vn -0.16907445 0.97086176 -0.16982716
vn -0.16622059 0.97097344 -0.17199215
vn -0.16869427 0.97087737 -0.17011580
vn -0.17065239 0.97079463 -0.16862847
vn -0.11803810 0.97557522 -0.18525657
vn -0.11803810 0.97557522 -0.18525657
vn -0.11803810 0.97557522 -0.18525657
vn -0.11857135 0.97583217 -0.18355493
vn -0.11857135 0.97583217 -0.18355493
vn -0.11857135 0.97583217 -0.18355493
vn -0.13872692 0.97504488 -0.17332719
vn -0.13872692 0.97504488 -0.17332719
vn -0.13872692 0.97504488 -0.17332719
vn -0.15123700 0.97359219 -0.17101352
vn -0.13871846 0.97435171 -0.17718900
vn -0.13871846 0.97435171 -0.17718900
vn -0.12578304 0.97610967 -0.17716809
vn -0.12578304 0.97610967 -0.17716809
vn -0.12578304 0.97610967 -0.17716809
vn -0.13447767 0.97553510 -0.17391670
vn -0.13447767 0.97553510 -0.17391670
vn -0.13447767 0.97553510 -0.17391670
vn -0.11893584 0.97714494 -0.17618747
vn -0.11706614 0.97710765 -0.17764055
vn -0.11875325 0.97714154 -0.17632944
vn -0.12026495 0.97716813 -0.17515361
vn -0.14990075 0.97083054 -0.18713049
vn -0.14990075 0.97083054 -0.18713049
vn -0.14990075 0.97083054 -0.18713049
vn -0.15349626 0.97121785 -0.18213944
vn -0.15286507 0.97158104 -0.18072784
vn -0.15325909 0.97135464 -0.18160898
vn -0.14136243 0.97254031 -0.18488378
vn -0.14136243 0.97254031 -0.18488378
vn -0.14136243 0.97254031 -0.18488378
vn -0.12984325 0.97334765 -0.18903727
vn -0.13453641 0.97301277 -0.18747294
vn -0.13408501 0.97278482 -0.18897330
vn -0.13363292 0.97255424 -0.19047440
vn -0.13973122 0.97215660 -0.18811362
vn -0.14221752 0.97178521 -0.18816927
vn -0.14221752 0.97178521 -0.18816927
vn -0.15383959 0.97101918 -0.18290744
vn -0.12358154 0.97409847 -0.18936675
vn -0.12274065 0.97400865 -0.19037300
vn -0.12363887 0.97410454 -0.18929813
vn -0.12477854 0.97422347 -0.18793336
vn -0.11750509 0.97537840 -0.18662674
vn -0.11750509 0.97537840 -0.18662674
vn -0.11750509 0.97537840 -0.18662674
vn -0.13540339 0.97341818 -0.18472406
vn -0.13540339 0.97341818 -0.18472406
vn -0.13540339 0.97341818 -0.18472406
vn -0.12570620 0.97377929 -0.18960973
vn -0.12580304 0.97378329 -0.18952491
vn -0.12543092 0.97381161 -0.18962602
vn -0.12572673 0.97375295 -0.18973135
vn -0.13661031 0.97261389 -0.18804212
vn -0.13661031 0.97261389 -0.18804212
vn -0.12053831 0.97448275 -0.18935121
vn -0.12053136 0.97448332 -0.18935269
vn -0.12437704 0.97415963 -0.18852947
vn -0.11703789 0.97476409 -0.19009762
vn -0.11579567 0.97521775 -0.18852505
vn -0.11579567 0.97521775 -0.18852505
vn -0.11579567 0.97521775 -0.18852505
vn -0.08840660 0.98184638 -0.16781524
vn -0.09063127 0.98152582 -0.16850236
vn -0.09046295 0.98153192 -0.16855726
vn -0.08824593 0.98190731 -0.16754307
vn -0.08316640 0.98236448 -0.16746157
vn -0.08442058 0.98215511 -0.16806099
vn -0.08436178 0.98215668 -0.16808138
vn -0.08413615 0.98217544 -0.16808487
vn -0.08666379 0.98213569 -0.16702957
vn -0.08633013 0.98208951 -0.16747329
vn -0.08293339 0.98240166 -0.16735899
vn -0.08125642 0.98248020 -0.16772015
vn -0.07999330 0.98249432 -0.16824380
vn -0.07986203 0.98251143 -0.16820626
vn -0.08143779 0.98247333 -0.16767243
vn -0.09023766 0.98133175 -0.16983863
vn -0.09154055 0.98104795 -0.17077837
vn -0.09225228 0.98132393 -0.16879827
vn -0.08774162 0.98174597 -0.16874908
vn -0.08743723 0.98166142 -0.16939770
vn -0.08673362 0.98207877 -0.16732771
vn -0.08918617 0.98165645 -0.16851242
vn -0.08737309 0.98185957 -0.16827872
vn -0.09126211 0.98124037 -0.16981919
vn -0.09016234 0.98165252 -0.16801514
vn -0.08025800 0.98222303 -0.16969552
vn -0.08082845 0.98196499 -0.17091375
vn -0.08066761 0.98203794 -0.17057026
vn -0.08500654 0.98218906 -0.16756650
vn -0.08539065 0.98199774 -0.16849001
vn -0.08004171 0.98232037 -0.16923363
vn -0.08307969 0.98212469 -0.16890491
vn -0.08083529 0.98229253 -0.16901787
vn -0.08481213 0.98185266 -0.16962388
vn -0.07971238 0.98232810 -0.16934413
vn -0.07991860 0.98219475 -0.17001911
vn -0.08686939 0.98182986 -0.16871230
vn -0.08612927 0.98172168 -0.16971825
vn -0.07975653 0.98244606 -0.16863756
vn -0.08075683 0.98242399 -0.16828977
vn -0.08050165 0.98234902 -0.16884873
vn -0.08125603 0.98256959 -0.16719589
vn -0.08144289 0.98262373 -0.16678629
vn -0.08573989 0.98216283 -0.16734646
vn -0.09081768 0.98135740 -0.16938063
vn -0.09088598 0.98137927 -0.16921720
vn -0.09068086 0.98131351 -0.16970791
vn -0.09061224 0.98129145 -0.16987206
vn -0.08053720 0.98222557 -0.16954849
vn -0.08050522 0.98221418 -0.16962963
vn -0.08060818 0.98225083 -0.16936834
vn -0.08064000 0.98226214 -0.16928757
vn -0.08986477 0.98134627 -0.16995243
vn -0.09288843 0.98091310 -0.17082517
vn -0.09300133 0.98097475 -0.17040919
vn -0.09153989 0.98157006 -0.16775177
vn -0.09460466 0.98085913 -0.17019203
vn -0.09291655 0.98133069 -0.16839414
vn -0.08570048 0.98160283 -0.17062038
vn -0.08514574 0.98155258 -0.17118627
vn -0.08949189 0.98153174 -0.16907586
vn -0.07793406 0.98239947 -0.16975736
vn -0.07773726 0.98225067 -0.17070598
vn -0.07813348 0.98254935 -0.16879553
vn -0.08135454 0.98234278 -0.16847580
vn -0.08211022 0.98223262 -0.16875125
vn -0.08385174 0.98190967 -0.16977127
vn -0.09014737 0.98172204 -0.16761651
vn -0.08229081 0.98220446 -0.16882718
vn -0.07888430 0.98248013 -0.16884924
vn -0.07808261 0.98233732 -0.17004850
vn -0.09421736 0.97995205 -0.17554789
vn -0.09421736 0.97995205 -0.17554789
vn -0.09421736 0.97995205 -0.17554789
vn -0.09606869 0.98047158 -0.17159920
vn -0.09606869 0.98047158 -0.17159920
vn -0.09606869 0.98047158 -0.17159920
vn -0.08719157 0.98162566 -0.16973125
vn -0.08719157 0.98162566 -0.16973125
vn -0.09164185 0.98140676 -0.16864918
vn -0.08114586 0.98114436 -0.17541689
vn -0.08114586 0.98114436 -0.17541689
vn -0.08114586 0.98114436 -0.17541689
vn -0.08039461 0.98179875 -0.17206951
vn -0.08198613 0.98147140 -0.17318244
vn -0.08159350 0.98166192 -0.17228574
vn -0.07643572 0.98212249 -0.17202617
vn -0.07643572 0.98212249 -0.17202617
vn -0.08907097 0.98115213 -0.17148428
vn -0.08727355 0.98103958 -0.17304529
vn -0.09405530 0.98143523 -0.16714813
vn -0.08076352 0.98223948 -0.16936017
vn -0.08144898 0.98200588 -0.17038343
vn -0.08160720 0.98235480 -0.16828343
vn -0.07880395 0.98237670 -0.16948735
vn -0.07668192 0.98226109 -0.17112288
f 1//1 2//2 3//3
f 4//4 5//5 6//6
f 7//7 1//1 8//8
f 9//9 10//10 11//11
f 12//12 13//13 14//14
f 15//15 1//1 7//7
f 16//16 17//17 18//18
f 19//19 20//20 21//21
f 22//22 23//23 24//24
f 22//22 24//24 25//25
f 26//26 19//19 21//21
f 27//27 28//28 29//29
f 30//30 16//16 31//31
f 32//32 33//33 34//34
f 32//32 34//34 35//35
f 36//36 37//37 38//38
f 39//39 40//40 41//41
f 42//42 43//43 44//44
f 45//45 46//46 47//47
f 48//48 49//49 50//50
f 36//36 51//51 37//37
f 45//45 52//52 53//53
f 54//54 55//55 56//56
f 57//57 58//58 59//59
f 60//60 61//61 62//62
f 63//63 64//64 65//65
f 66//66 67//67 68//68
f 69//69 70//70 71//71
f 72//72 73//73 74//74
f 75//75 76//76 77//77
f 72//72 74//74 78//78
f 79//79 52//52 45//45
f 80//80 48//48 81//81
f 82//82 83//83 84//84
f 82//82 85//85 83//83
f 86//86 63//63 65//65
f 76//76 87//87 88//88
f 89//89 90//90 91//91
f 92//92 52//52 79//79
f 93//93 94//94 95//95
f 93//93 95//95 96//96
f 93//93 96//96 51//51
f 92//92 97//97 52//52
f 98//98 82//82 84//84
f 99//99 86//86 65//65
f 99//99 65//65 100//100
f 101//101 94//94 93//93
f 102//102 97//97 92//92
f 101//101 103//103 104//104
f 101//101 104//104 105//105
f 101//101 105//105 106//106
f 101//101 106//106 94//94
f 107//107 84//84 108//108
f 102//102 109//109 97//97
f 110//110 99//99 100//100
f 110//110 100//100 88//88
f 107//107 98//98 84//84
f 111//111 107//107 108//108
f 112//112 109//109 102//102
f 113//113 114//114 115//115
f 113//113 115//115 116//116
f 112//112 117//117 109//109
f 118//118 119//119 120//120
f 118//118 121//121 122//122
f 77//77 76//76 88//88
f 118//118 122//122 119//119
f 123//123 114//114 113//113
f 123//123 124//124 125//125
f 126//126 127//127 128//128
f 123//123 125//125 114//114
f 129//129 67//67 66//66
f 130//130 110//110 88//88
f 131//131 132//132 108//108
f 133//133 80//80 134//134
f 133//133 134//134 135//135
f 136//136 137//137 124//124
f 133//133 135//135 138//138
f 133//133 138//138 139//139
f 136//136 124//124 123//123
f 140//140 137//137 136//136
f 141//141 142//142 143//143
f 144//144 145//145 146//146
f 141//141 143//143 147//147
f 148//148 149//149 150//150
f 151//151 152//152 153//153
f 154//154 144//144 155//155
f 151//151 153//153 156//156
f 157//157 158//158 159//159
f 87//87 130//130 88//88
f 160//160 161//161 162//162
f 160//160 162//162 149//149
f 163//163 164//164 165//165
f 166//166 165//165 167//167
f 168//168 150//150 169//169
f 168//168 169//169 170//170
f 171//171 172//172 173//173
f 174//174 155//155 40//40
f 175//175 176//176 161//161
f 49//49 157//157 177//177
f 178//178 166//166 179//179
f 38//38 37//37 180//180
f 181//181 182//182 171//171
f 183//183 56//56 176//176
f 184//184 185//185 186//186
f 187//187 180//180 37//37
f 58//58 178//178 179//179
f 188//188 139//139 83//83
f 189//189 170//170 64//64
f 190//190 191//191 192//192
f 190//190 192//192 193//193
f 194//194 195//195 196//196
f 194//194 196//196 197//197
f 198//198 199//199 200//200
f 201//201 202//202 203//203
f 204//204 190//190 193//193
f 205//205 197//197 206//206
f 207//207 208//208 209//209
f 210//210 211//211 212//212
f 213//213 214//214 215//215
f 216//216 217//217 213//213
f 218//218 219//219 220//220
f 221//221 222//222 223//223
f 224//224 209//209 225//225
f 224//224 225//225 226//226
f 224//224 207//207 209//209
f 227//227 228//228 229//229
f 230//230 224//224 226//226
f 231//231 228//228 227//227
f 232//232 231//231 227//227
f 233//233 234//234 235//235
f 236//236 233//233 235//235
f 237//237 238//238 239//239
f 240//240 237//237 239//239
f 241//241 242//242 243//243
f 244//244 245//245 246//246
f 247//247 248//248 249//249
f 250//250 251//251 252//252
f 253//253 244//244 254//254
f 255//255 256//256 257//257
f 258//258 252//252 259//259
f 260//260 261//261 262//262
f 263//263 264//264 265//265
f 266//266 267//267 268//268
f 266//266 268//268 269//269
f 270//270 271//271 272//272
f 273//273 274//274 275//275
f 276//276 277//277 257//257
f 276//276 257//257 278//278
f 279//279 274//274 273//273
f 280//280 281//281 282//282
f 283//283 284//284 285//285
f 286//286 287//287 288//288
f 289//289 286//286 288//288
f 290//290 291//291 292//292
f 293//293 294//294 295//295
f 296//296 297//297 298//298
f 299//299 300//300 301//301
f 302//302 296//296 298//298
f 303//303 304//304 305//305
f 306//306 307//307 308//308
f 309//309 299//299 310//310
f 311//311 312//312 313//313
f 311//311 313//313 314//314
f 315//315 316//316 317//317
f 318//318 319//319 320//320
f 321//321 322//322 323//323
f 324//324 299//299 309//309
f 325//325 326//326 302//302
f 327//327 328//328 329//329
f 330//330 331//331 332//332
f 333//333 334//334 335//335
f 333//333 335//335 336//336
f 337//337 338//338 339//339
f 340//340 341//341 342//342
f 343//343 344//344 345//345
f 346//346 347//347 348//348
f 346//346 348//348 349//349
f 350//350 351//351 352//352
f 353//353 340//340 342//342
f 354//354 355//355 356//356
f 354//354 356//356 357//357
f 358//358 359//359 360//360
f 361//361 362//362 363//363
f 364//364 346//346 365//365
f 364//364 366//366 346//346
f 367//367 364//364 365//365
f 368//368 369//369 350//350
f 370//370 371//371 372//372
f 373//373 371//371 370//370
f 374//374 375//375 376//376
f 377//377 378//378 379//379
f 380//380 377//377 379//379
f 381//381 382//382 383//383
f 381//381 383//383 384//384
f 385//385 386//386 377//377
f 387//387 381//381 384//384
f 385//385 377//377 380//380
f 388//388 389//389 390//390
f 388//388 381//381 387//387
f 391//391 389//389 388//388
f 391//391 388//388 387//387
f 392//392 393//393 394//394
f 395//395 393//393 392//392
f 396//396 392//392 394//394
f 397//397 395//395 392//392
f 398//398 399//399 400//400
f 398//398 400//400 401//401
f 402//402 403//403 404//404
f 405//405 406//406 396//396
f 407//407 402//402 404//404
f 408//408 409//409 410//410
f 411//411 412//412 409//409
f 413//413 414//414 398//398
f 413//413 398//398 401//401
f 415//415 409//409 408//408
f 415//415 411//411 409//409
f 416//416 417//417 418//418
f 416//416 418//418 419//419
f 398//398 420//420 399//399
f 406//406 392//392 396//396
f 421//421 422//422 423//423
f 421//421 423//423 424//424
f 425//425 426//426 427//427
f 425//425 427//427 428//428
f 429//429 430//430 431//431
f 432//432 433//433 434//434
f 435//435 436//436 429//429
f 437//437 435//435 429//429
f 438//438 439//439 440//440
f 441//441 442//442 443//443
f 444//444 437//437 432//432
f 444//444 432//432 434//434
f 445//445 441//441 443//443
f 446//446 447//447 441//441
f 446//446 441//441 445//445
f 442//442 438//438 440//440
f 431//431 437//437 429//429
f 448//448 449//449 450//450
f 451//451 452//452 453//453
f 454//454 455//455 456//456
f 457//457 458//458 459//459
f 460//460 461//461 462//462
f 463//463 464//464 460//460
f 465//465 466//466 456//456
f 465//465 456//456 467//467
f 468//468 462//462 469//469
f 468//468 460//460 462//462
f 468//468 469//469 470//470
f 471//471 472//472 468//468
f 471//471 468//468 470//470

