# https://github.com/mikedh/trimesh
v 0.01525497 0.06630653 0.01106137
v 0.01525551 0.06845593 0.02644127
v 0.01525527 -0.06846272 0.02643764
v -0.01525551 0.06845593 0.02644127
v -0.01525497 0.06630653 0.01106137
v -0.01525527 -0.06846272 0.02643764
v 0.01525533 0.06931853 0.02623498
v 0.01525521 0.07196158 0.02213627
v 0.01525521 -0.06962722 0.02613562
v 0.01525515 -0.07078915 0.02532345
v 0.01525509 -0.07158952 0.02423399
v 0.01525533 -0.07197290 0.02268934
v 0.01525533 -0.07185590 0.02158552
v 0.01525533 -0.07075327 0.01761788
v 0.01525545 -0.06930655 0.01320594
v 0.01525455 -0.06638556 0.01107043
v 0.01525515 -0.06847184 0.01210933
v 0.01525521 -0.06758683 0.01148784
v 0.01525425 0.06754839 0.01146334
v 0.01525491 0.06862276 0.01224517
v 0.01525413 0.06938499 0.01338952
v 0.01525527 0.07189172 0.02323365
v 0.01525527 0.07155174 0.02429097
v 0.01525533 0.07087653 0.02522397
v 0.01525533 0.07015961 0.02582716
v 0.01525408 0.07093381 0.01820755
v -0.01525521 -0.06758683 0.01148784
v -0.01525515 -0.06847184 0.01210933
v -0.01525545 -0.06930655 0.01320594
v -0.01525533 -0.07075327 0.01761788
v -0.01525455 -0.06638556 0.01107043
v -0.01525533 -0.07185590 0.02158552
v -0.01525533 -0.07197290 0.02268934
v -0.01525515 -0.07078915 0.02532345
v -0.01525509 -0.07158952 0.02423399
v -0.01525521 -0.06962722 0.02613562
v -0.01525533 0.06931853 0.02623498
v -0.01525527 0.07189172 0.02323365
v -0.01525533 0.07015961 0.02582716
v -0.01525533 0.07087653 0.02522397
v -0.01525527 0.07155174 0.02429097
v -0.01525521 0.07196158 0.02213627
v -0.01525413 0.06938499 0.01338952
v -0.01525491 0.06862276 0.01224517
v -0.01525425 0.06754839 0.01146334
v -0.01525408 0.07093381 0.01820755
vn 0.99999997 0.00018618 -0.00013024
vn 1.00000000 0.00007196 -0.00003258
vn 1.00000000 -0.00000037 -0.00001351
vn -1.00000000 0.00006495 -0.00002754
vn -0.99999997 0.00018618 -0.00013024
vn -1.00000000 -0.00000037 -0.00001351
vn 0.99999998 0.00018870 0.00009390
vn 0.99999997 -0.00015646 -0.00018847
vn 1.00000000 -0.00005112 -0.00000026
vn 0.99999999 -0.00009941 0.00007966
vn 0.99999987 -0.00043400 0.00026328
vn 1.00000000 0.00008716 0.00002907
vn 1.00000000 0.00001593 0.00001248
vn 0.99999999 0.00014104 -0.00000574
vn 0.99999991 0.00040250 0.00015225
vn 0.99999999 0.00015533 0.00005433
vn 0.99999960 -0.00055726 -0.00069764
vn 0.99999961 0.00068835 0.00054915
vn 0.99999967 0.00062027 -0.00052906
vn 0.99999543 -0.00215587 0.00211798
vn 0.99999997 0.00022399 -0.00000177
vn 1.00000000 -0.00003058 -0.00005006
vn 0.99999999 0.00016134 0.00005188
vn 1.00000000 -0.00001804 -0.00003832
vn 1.00000000 0.00000000 0.00000000
vn 0.99999997 0.00022557 -0.00010866
vn -0.99999961 0.00068835 0.00054915
vn -0.99999960 -0.00055726 -0.00069764
vn -0.99999991 0.00040250 0.00015225
vn -0.99999999 0.00014104 -0.00000574
vn -0.99999999 0.00015533 0.00005433
vn -1.00000000 0.00001593 0.00001248
vn -1.00000000 0.00008716 0.00002907
vn -0.99999999 -0.00009941 0.00007966
vn -0.99999987 -0.00043400 0.00026328
vn -1.00000000 -0.00005112 -0.00000026
vn -0.99999996 0.00021722 0.00016692
vn -1.00000000 0.00003320 -0.00003690
vn -1.00000000 0.00000000 0.00000000
vn -1.00000000 -0.00001804 -0.00003832
vn -0.99999999 0.00016134 0.00005188
vn -0.99999997 -0.00015354 -0.00019469
vn -0.99999997 0.00022399 -0.00000177
vn -0.99999543 -0.00215587 0.00211798
vn -0.99999967 0.00062027 -0.00052906
vn -0.99999997 0.00022557 -0.00010866
f 1//1 2//2 3//3
f 4//4 5//5 6//6
f 7//7 2//2 8//8
f 3//3 9//9 10//10
f 10//10 11//11 12//12
f 12//12 13//13 10//10
f 14//14 15//15 16//16
f 17//17 18//18 15//15
f 16//16 1//1 3//3
f 19//19 20//20 21//21
f 21//21 1//1 19//19
f 8//8 22//22 7//7
f 23//23 24//24 22//22
f 25//25 7//7 24//24
f 3//3 10//10 13//13
f 13//13 14//14 3//3
f 18//18 16//16 15//15
f 21//21 26//26 1//1
f 22//22 24//24 7//7
f 2//2 1//1 26//26
f 14//14 16//16 3//3
f 26//26 8//8 2//2
f 27//27 28//28 29//29
f 29//29 30//30 31//31
f 32//32 33//33 34//34
f 35//35 34//34 33//33
f 36//36 6//6 34//34
f 4//4 37//37 38//38
f 39//39 40//40 37//37
f 41//41 38//38 40//40
f 42//42 4//4 38//38
f 43//43 44//44 45//45
f 45//45 5//5 43//43
f 31//31 27//27 29//29
f 30//30 32//32 6//6
f 34//34 6//6 32//32
f 37//37 40//40 38//38
f 42//42 46//46 4//4
f 43//43 5//5 46//46
f 31//31 30//30 6//6
f 6//6 5//5 31//31
f 46//46 5//5 4//4

